<svg width="102" height="116" viewBox="0 0 102 116" fill="none" xmlns="http://www.w3.org/2000/svg">
<path d="M87.0932 62.6147L86.3762 61.5297L86.3932 55.2997C86.3932 55.2997 87.1782 54.3957 87.3122 54.0537L87.7592 53.3527L87.5492 53.3067L87.1942 53.3157L87.0592 53.3617L86.6292 53.3527L86.0642 52.7807L84.7902 53.3897C84.7902 53.3897 84.5452 53.5927 84.5202 53.7497L84.1062 54.3307L83.8532 54.2197L83.5672 54.1927L83.4482 54.0997L83.0272 54.1457C83.0272 54.1457 82.9502 53.9987 82.5882 53.9427C82.5882 53.9427 82.5542 53.8877 82.5202 53.9157C82.4872 53.9427 81.8542 53.9527 81.8542 53.9527C81.8542 53.9527 81.6522 53.6667 81.1372 53.3437C81.1372 53.3437 80.1422 52.5867 80.0822 52.5677C80.0232 52.5497 79.9392 52.4847 79.9392 52.4847L78.6572 52.5217L78.5222 52.3737L78.4962 52.2227H76.0982L75.5252 52.8337C75.5252 52.8337 75.5322 52.9807 75.5642 53.0157C75.5962 53.0517 75.5882 53.2367 75.5882 53.2367C75.5882 53.2367 75.6292 53.3287 75.6612 53.3677C75.6932 53.4077 75.6412 53.4867 75.6412 53.4867C75.6412 53.4867 75.7692 53.4777 75.7692 53.5177C75.7692 53.5577 75.7052 53.6807 75.7372 53.6937C75.7692 53.7067 75.8902 53.6937 75.9142 53.7337C75.9382 53.7737 76.0392 53.7507 76.0592 53.7777C76.0792 53.8047 76.1642 53.8427 76.1722 53.9097C76.1802 53.9757 76.1122 54.1217 76.1122 54.1737C76.1122 54.2267 76.1362 54.3507 76.1562 54.3807C76.1762 54.4117 76.1762 54.5967 76.1762 54.5967C76.1762 54.5967 76.2842 54.7997 76.3572 54.8477C76.3572 54.8477 76.3932 55.0587 76.4292 55.1157C76.4292 55.1157 76.6222 55.2657 76.6672 55.3097C76.7112 55.3537 76.7152 55.5477 76.7152 55.5877C76.7152 55.6267 76.8722 55.7107 76.8882 55.7507C76.9052 55.7897 76.9692 55.9137 76.9572 55.9397C76.9452 55.9657 76.9002 56.0857 76.9092 56.1207C76.9172 56.1557 76.9612 56.3797 76.9612 56.3797L77.0112 56.5647V57.2287C77.0112 57.2287 76.9442 57.4507 76.8092 57.5337C76.8092 57.5337 76.7162 57.7177 76.7422 57.8657C76.7422 57.8657 76.7842 57.9947 76.7082 58.0037C76.7082 58.0037 76.3332 58.1497 76.2752 58.2597C76.2722 58.2637 76.2712 58.2677 76.2692 58.2717C76.2352 58.3827 76.2352 58.6227 76.1932 58.6597C76.1932 58.6597 76.0162 58.7887 75.9832 58.8627C75.9832 58.8627 75.9322 59.0657 75.8732 59.0567C75.8142 59.0477 75.6452 59.0567 75.6622 59.4527C75.6622 59.4527 75.6712 59.5547 75.6282 59.5547C75.5862 59.5547 75.3842 59.8597 75.3842 59.8597C75.3842 59.8597 75.3502 59.9337 75.3842 60.0437C75.4172 60.1547 75.4842 60.2657 75.4762 60.3487C75.4682 60.4317 75.3692 60.7177 75.3692 60.7177V61.7427L81.2142 65.3237L81.2472 65.4987V65.7387L81.1882 65.8307L81.1032 65.8957C81.1032 65.8957 81.0272 66.0807 81.2472 66.0897C81.4662 66.0987 81.2802 66.0897 81.2802 66.0897L81.4242 66.3017L81.5082 66.4217L83.5502 67.9997C83.5502 67.9997 84.5812 66.2917 84.8722 64.7987C84.9722 64.2887 84.9632 64.3417 84.9632 64.3417L85.1502 64.3107L85.4662 64.4037L85.6132 64.4687L85.9552 63.6667L86.0422 63.4607H86.6442L87.0122 62.7607L87.0932 62.6147ZM52.3482 111.134C52.3482 111.134 52.2242 111.188 52.0992 111.285C51.9212 111.423 51.7422 111.644 51.9192 111.913C52.2192 112.372 52.6062 112.691 52.6062 112.92V114.157C52.6062 114.157 53.3802 114.294 53.5942 114.157C53.8102 114.019 54.1112 114.889 54.4972 114.889C54.8842 114.889 55.5722 114.615 55.5722 114.615L55.9162 114.385C55.9162 114.385 57.2042 114.432 57.3332 114.294C57.4622 114.157 58.1502 113.837 58.1502 113.837L58.4082 113.699C58.4082 113.699 58.7522 114.065 59.0102 114.019C59.2682 113.974 59.6972 113.699 59.6972 113.699L60.4712 113.974L61.1152 114.202L61.4162 113.882L61.7172 113.562C61.7172 113.562 61.9762 113.745 62.2332 113.79C62.4912 113.837 62.6202 113.515 62.6202 113.515V113.333H63.7802C64.0382 113.333 66.8312 110.951 67.5192 110.31C67.5192 110.31 69.1102 109.119 69.2392 108.479C69.2392 108.479 70.1842 106.784 70.4852 106.601C70.7862 106.417 71.9032 105.685 72.0322 105.318C72.0322 105.318 72.3322 103.761 72.5052 103.441C72.6772 103.121 72.8482 101.151 72.8482 100.83C72.8482 100.509 74.3532 99.6847 75.1692 99.6387C75.1692 99.6387 76.3732 98.9067 76.5442 98.5867C76.7162 98.2647 76.7592 97.1207 76.7592 97.1207L77.0172 96.5717V96.2967H76.7592L77.0172 95.7017V95.4257H76.7592C76.7592 95.4257 77.0172 95.1507 77.0172 94.8767V94.1897C77.0172 94.1897 76.5882 93.9147 76.4162 93.8687C76.2442 93.8237 76.4582 93.0907 75.9862 92.7247C75.5132 92.3587 75.8572 91.7167 76.1572 91.7167C76.4582 91.7167 77.3182 90.8007 77.4472 90.6167C77.5762 90.4337 78.0492 90.2967 78.0492 90.2967C78.0492 90.2967 80.1122 87.6407 81.6162 87.6867C81.6162 87.6867 84.4522 85.7177 84.7532 84.9387C85.0542 84.1607 85.3552 83.5647 85.2262 83.2437C85.0972 82.9237 84.8822 82.5577 84.8822 82.5577C84.8822 82.5577 84.7962 81.0017 85.0112 80.7717C85.2262 80.5427 84.8822 79.5347 84.8822 79.3527C84.8822 79.1687 84.7532 78.3897 84.9682 78.2987C85.1832 78.2077 85.2872 77.8417 85.2572 77.6577C85.2262 77.4747 85.2262 76.7417 85.0112 76.6047C84.7962 76.4667 84.1512 76.1007 83.9802 75.8717C83.8082 75.6437 83.8512 75.1387 83.4202 73.9947C83.4202 73.9947 83.5062 73.1697 83.5922 72.9407C83.6792 72.7117 83.5492 72.4827 83.5492 72.2077C83.5492 71.9327 83.8082 71.7957 83.8082 71.4757C83.8082 71.1547 83.2492 70.6057 82.8192 69.9647C82.8192 69.9647 83.1202 68.7727 83.2492 68.5907C83.3782 68.4067 83.8512 67.6737 83.9802 67.2627C84.1092 66.8497 84.9682 64.8347 84.9252 64.4687C84.8822 64.1017 85.6132 64.4687 85.6132 64.4687L86.0422 63.4607H86.6442C86.6442 63.4607 87.4612 61.8127 88.0192 61.2177C88.0192 61.2177 90.4262 58.2297 90.9422 57.9837C90.9422 57.9837 93.1772 56.8207 93.8652 55.7217C93.8652 55.7217 97.8612 50.7297 97.9052 50.2717C97.9482 49.8137 97.9052 48.9897 97.9052 48.9897C97.9052 48.9897 98.7642 47.7527 98.8072 47.1117C98.8072 47.1117 99.8392 45.2797 100.01 44.8677C100.182 44.4557 100.268 43.1737 100.268 43.1737C100.268 43.1737 101.213 42.8067 100.913 42.6697C100.612 42.5317 100.354 42.3947 100.354 42.3947C100.354 42.3947 100.397 40.4707 100.01 40.1967C99.6242 39.9217 98.9362 40.7007 98.6782 40.8837C98.4202 41.0667 97.6472 41.2957 97.3892 41.3417C97.1312 41.3867 95.8842 41.7537 95.6272 41.7997C95.3692 41.8457 94.7672 41.5247 94.5952 41.7537C94.4232 41.9827 93.6502 42.5317 93.4352 42.4867C93.2202 42.4407 92.6622 42.0277 92.4042 42.2577C92.1462 42.4867 91.5442 42.8987 91.2432 42.8987C90.9432 42.8987 90.2982 43.1737 90.0832 42.8987C89.8682 42.6237 89.0952 41.5707 88.9222 41.4327C88.7512 41.2957 88.5352 41.2047 88.5352 41.2047C88.5352 41.2047 89.2232 40.3097 89.0942 40.1387C88.9652 39.9677 88.2782 38.9147 87.9342 38.8237C87.5902 38.7317 86.7312 37.5867 86.3862 37.4027C86.0432 37.2197 85.7422 36.3497 85.5272 36.3497C85.3122 36.3497 84.1952 35.2967 83.9372 35.2047C83.6792 35.1137 83.2922 35.2047 83.2922 35.2047L82.7772 34.3807C82.7772 34.3807 82.1322 31.0377 80.0692 29.9387C80.0692 29.9387 79.5532 29.0227 79.3812 26.5037C79.3812 26.5037 79.4682 26.2747 79.0812 26.0007C78.6942 25.7257 78.8662 25.1297 78.7372 24.9927C78.6082 24.8547 77.0182 23.6187 76.9322 23.4817C76.8462 23.3447 76.6312 22.7937 76.9322 22.6567C77.2332 22.5197 77.1462 22.1987 77.0172 21.9707C76.8962 21.7537 75.6982 20.6777 75.1322 19.2847C75.1002 19.2037 75.0692 19.1217 75.0412 19.0387C74.5252 17.5277 74.2242 17.7567 74.0952 17.4367C73.9672 17.1157 73.7512 16.2457 74.1812 16.2457C74.1812 16.2457 74.5682 16.6587 74.6112 16.2457C74.6542 15.8337 74.8692 14.9637 74.8692 14.5977C74.8692 14.2317 75.1272 12.9487 75.0412 12.7647C74.9552 12.5827 74.6542 11.4367 74.4822 11.2547C74.3102 11.0707 74.3102 10.4757 74.0522 10.4297C73.7942 10.3837 73.4512 10.8877 73.1932 10.7967C72.9352 10.7047 72.2472 10.4267 72.2472 10.4267C72.2472 10.4267 72.0332 10.8417 71.7322 10.7967C71.4312 10.7507 70.6142 10.1097 70.3562 10.1097C70.0982 10.1097 69.6692 10.0637 69.5402 10.1097C69.4112 10.1547 67.7342 11.0707 67.1332 11.4367C67.1332 11.4367 66.8322 11.3457 66.4882 11.1627C66.1452 10.9797 65.4992 11.0707 65.1562 10.9337C64.8122 10.7967 62.0182 10.4757 62.0182 10.4757C62.0182 10.4757 61.9332 9.88067 61.7182 9.69667C61.5032 9.51467 60.5152 9.97167 60.2572 9.69667C59.9992 9.42167 59.4402 9.28467 59.4402 9.28467C59.4402 9.28467 58.7092 8.68967 58.3222 8.55167C57.9362 8.41567 56.6892 7.95668 55.9592 8.78168C55.9592 8.78168 54.4552 9.10167 54.7122 10.9337C54.7122 10.9337 54.9712 12.3997 53.8532 12.5827C53.8532 12.5827 52.1342 11.5287 51.4892 11.3457C51.4892 11.3457 50.0282 11.0707 49.6412 10.8877C49.2542 10.7047 49.3832 9.78867 49.1262 9.46867C48.8682 9.14767 48.1802 9.05568 47.8792 8.96468C47.5782 8.87268 46.7182 8.32467 46.4182 8.30167C46.1172 8.27767 45.5152 8.14167 45.3002 8.30167C45.0862 8.46067 44.6992 8.44667 44.5702 8.22467C44.4412 8.00267 43.6672 7.72768 43.6672 7.72768C43.6672 7.72768 43.5392 6.67468 43.2382 6.58368C42.9372 6.49168 42.5072 7.04067 42.5072 7.04067C42.5072 7.04067 42.2062 6.83668 42.2492 6.57268C42.2922 6.30768 42.6362 5.75868 43.3662 5.52968C44.0972 5.30068 43.8392 4.38467 43.6252 4.11067C43.4102 3.83567 42.7652 3.56067 43.3242 3.14867C43.8822 2.73667 44.1832 1.95767 43.8822 1.77467C43.5812 1.59167 43.1952 1.77467 43.0232 1.77467C42.8512 1.77467 42.9362 1.72867 42.5932 1.45367C42.2492 1.17867 41.3892 1.17867 40.9602 1.45367C40.5302 1.72867 40.1862 1.91167 39.9282 1.77467C39.6702 1.63767 39.2412 1.17867 39.0262 1.24767C38.8102 1.31667 38.5532 1.86667 38.4242 1.72867C38.2962 1.59167 38.1232 1.11968 37.9082 1.24068C37.6942 1.36268 37.3922 1.59168 37.2642 1.68268C37.1342 1.77468 36.7482 1.59168 36.6622 1.82068L36.5762 2.04967C36.5762 2.04967 35.7602 1.49967 35.4592 1.40767C35.1582 1.31667 34.4272 1.31667 34.2552 1.54567C34.0832 1.77467 33.7392 1.68268 33.7392 1.68268L33.2242 1.22067C33.2242 1.22067 33.0952 1.82068 32.6222 1.82068C32.1502 1.82068 31.2472 1.72867 31.2472 1.72867C31.2472 1.72867 29.9152 2.09468 29.4852 2.59868C29.4852 2.59868 28.9692 2.73668 28.7982 2.78168C28.6252 2.82768 28.3682 2.64468 28.1962 2.78168C28.0232 2.91968 27.1642 3.65167 26.7342 3.60667C26.3042 3.56067 26.0042 3.37767 25.8322 3.19367C25.6602 3.01167 25.4452 2.87367 25.2302 3.05667C25.0152 3.24067 23.6402 3.42368 23.5972 3.24068C23.5542 3.05668 22.9092 2.18667 22.4372 2.04967C21.9642 1.91167 21.4052 2.68967 20.6752 4.38467C20.6752 4.38467 19.5572 5.48467 18.6972 5.48467C18.6972 5.48467 16.5492 5.94168 16.5062 7.72768C16.5062 7.72768 15.3892 8.04867 15.1732 10.1097C15.1732 10.1097 15.8182 10.7507 15.3892 11.0257C15.3892 11.0257 13.6702 12.4907 13.4552 12.5827C13.2392 12.6737 12.4662 13.5897 12.0792 13.6357C11.6922 13.6817 10.2742 12.8577 9.32823 15.5137C9.32823 15.5137 8.34023 16.2467 8.03923 16.2917C8.03923 16.2917 6.87924 17.8027 6.96524 18.7657C6.96524 18.7657 5.20224 19.9547 5.07424 20.3677C5.07424 20.3677 4.17123 21.9707 4.04223 22.5657C4.04223 22.5657 3.44023 22.2447 2.92523 24.5357C2.92523 24.5357 2.53823 25.2217 2.92523 25.4057C2.92523 25.4057 3.69924 25.6347 3.69924 26.2297C3.69924 26.2297 3.09723 26.9617 3.09723 27.6037C3.09723 27.6037 3.44023 28.0157 3.61323 28.5197C3.61323 28.5197 3.52723 29.8477 3.48423 30.4427C3.48423 30.4427 2.62424 33.0527 2.45224 33.2827C2.28024 33.5107 2.10824 34.2897 1.93724 34.3817C1.76524 34.4727 0.776232 34.9767 0.819232 35.3427C0.862232 35.7097 1.03423 35.6637 1.33523 35.9837C1.63623 36.3047 1.85024 37.0377 1.85024 37.4047C1.85024 37.7697 1.63623 37.6787 1.63623 37.6787L1.46324 39.0977C1.46324 39.0977 1.67924 39.5107 1.89324 39.8307C2.10824 40.1517 2.36623 40.5177 2.06523 40.6097C1.76423 40.7007 1.59223 41.7997 2.23723 41.9377C2.88223 42.0747 3.09624 41.4337 3.26824 41.5257C3.44024 41.6167 3.69824 41.9377 3.78424 42.1667C3.87024 42.3957 4.17124 42.3957 4.17124 42.3957L5.58924 44.1817L5.54624 44.6847C5.54624 44.6847 6.01924 44.4107 6.01924 44.7767C6.01924 45.1437 6.14823 46.8377 6.14823 46.8377C6.14823 46.8377 6.19123 47.7537 6.57823 47.8917C6.96423 48.0287 8.72723 48.6697 9.54323 49.9977C9.54323 49.9977 12.2502 51.6467 12.7232 52.6537C12.7232 52.6537 13.8842 53.5237 14.4002 53.5237C14.9152 53.5237 16.1622 52.4247 16.8062 52.2417C16.8062 52.2417 19.9432 51.4177 22.3932 52.6537C22.3932 52.6537 23.4242 52.4247 23.8542 52.2877C24.2842 52.1497 25.9172 51.3717 26.1752 51.3247C26.4332 51.2797 27.3352 51.2797 27.3352 51.2797C27.3352 51.2797 27.6362 50.3177 28.3242 50.4097C28.3242 50.4097 31.5902 49.8147 32.1482 50.3177C32.1482 50.3177 33.6102 53.1577 34.1262 53.6607C34.1262 53.6607 34.4252 53.9007 35.2682 53.6357C35.3282 53.6167 35.3922 53.5937 35.4582 53.5697C36.4462 53.2027 38.0372 53.0657 38.2952 53.4327C38.5532 53.7987 39.0682 54.4397 39.4122 54.4397C39.7562 54.4397 40.0142 54.8977 39.9282 55.3557C39.8422 55.8137 39.8422 57.0957 39.7562 57.2327C39.6702 57.3707 38.9822 58.3777 39.1112 58.5157C39.2402 58.6527 39.4552 58.9727 39.4552 58.9727C39.4552 58.9727 39.0252 58.9727 39.0252 60.4397L38.5962 60.9417L38.1662 61.0807C38.1662 61.0807 38.2092 62.3167 38.9822 63.5537C38.9822 63.5537 42.9362 67.4917 43.1082 68.3617C43.1082 68.3617 43.4522 69.7357 43.5802 70.2397C43.5802 70.2397 44.4842 72.1627 44.5702 72.6667C44.6552 73.1707 45.0852 73.8567 44.8272 74.2237C44.8272 74.2237 44.3552 74.2697 44.9992 76.2847C44.9992 76.2847 45.8582 76.7417 45.8162 77.2007C45.7732 77.6587 45.7292 79.0787 45.7292 79.0787C45.7292 79.0787 44.2682 80.2687 44.0532 81.5047C43.8382 82.7407 43.7952 83.4287 43.4092 83.8867C43.0222 84.3437 42.8502 85.3067 42.9362 85.6267C43.0222 85.9477 42.9792 88.4657 43.3232 89.0617C43.3232 89.0617 45.3432 91.9007 45.6012 93.4117C45.6012 93.4117 46.9332 94.9237 47.0192 95.3347C47.1052 95.7477 46.9332 97.7157 47.2342 98.7697C47.5352 99.8227 47.8362 100.419 47.8792 101.198C47.9212 101.976 48.1372 103.442 48.5232 103.853C48.9102 104.266 49.8562 105.045 50.1572 105.686C50.4572 106.327 51.3602 108.479 51.6602 108.937C51.9612 109.394 52.5202 109.945 52.5632 110.219C52.6062 110.494 52.6492 110.906 52.6492 110.906" fill="white"/>
<path d="M85.6132 64.4687L85.4662 64.4037L85.1502 64.3107L84.9632 64.3417C84.9632 64.3417 84.9722 64.2887 84.8722 64.7987C84.5812 66.2917 83.5502 67.9997 83.5502 67.9997L81.5082 66.4217L81.4242 66.3017L81.2802 66.0897C81.2802 66.0897 81.4662 66.0987 81.2472 66.0897C81.0272 66.0807 81.1032 65.8957 81.1032 65.8957L81.1882 65.8307L81.2472 65.7387V65.4987L81.2142 65.3237L75.3692 61.7427V60.7177C75.3692 60.7177 75.4682 60.4317 75.4762 60.3487C75.4842 60.2657 75.4172 60.1547 75.3842 60.0437C75.3502 59.9337 75.3842 59.8597 75.3842 59.8597C75.3842 59.8597 75.5862 59.5547 75.6282 59.5547C75.6712 59.5547 75.6622 59.4527 75.6622 59.4527C75.6452 59.0567 75.8142 59.0477 75.8732 59.0567C75.9322 59.0657 75.9832 58.8627 75.9832 58.8627C76.0162 58.7887 76.1932 58.6597 76.1932 58.6597C76.2352 58.6227 76.2352 58.3827 76.2692 58.2717C76.2712 58.2677 76.2722 58.2637 76.2752 58.2597C76.3332 58.1497 76.7082 58.0037 76.7082 58.0037C76.7842 57.9947 76.7422 57.8657 76.7422 57.8657C76.7162 57.7177 76.8092 57.5337 76.8092 57.5337C76.9442 57.4507 77.0112 57.2287 77.0112 57.2287V56.5647L76.9612 56.3797C76.9612 56.3797 76.9172 56.1557 76.9092 56.1207C76.9002 56.0857 76.9452 55.9657 76.9572 55.9397C76.9692 55.9137 76.9052 55.7897 76.8882 55.7507C76.8722 55.7107 76.7152 55.6267 76.7152 55.5877C76.7152 55.5477 76.7112 55.3537 76.6672 55.3097C76.6222 55.2657 76.4292 55.1157 76.4292 55.1157C76.3932 55.0587 76.3572 54.8477 76.3572 54.8477C76.2842 54.7997 76.1762 54.5967 76.1762 54.5967C76.1762 54.5967 76.1762 54.4117 76.1562 54.3807C76.1362 54.3507 76.1122 54.2267 76.1122 54.1737C76.1122 54.1217 76.1802 53.9757 76.1722 53.9097C76.1642 53.8427 76.0792 53.8047 76.0592 53.7777C76.0392 53.7507 75.9382 53.7737 75.9142 53.7337C75.8902 53.6937 75.7692 53.7067 75.7372 53.6937C75.7052 53.6807 75.7692 53.5577 75.7692 53.5177C75.7692 53.4777 75.6412 53.4867 75.6412 53.4867C75.6412 53.4867 75.6932 53.4077 75.6612 53.3677C75.6292 53.3287 75.5882 53.2367 75.5882 53.2367C75.5882 53.2367 75.5962 53.0517 75.5642 53.0157C75.5322 52.9807 75.5252 52.8337 75.5252 52.8337L76.0982 52.2227H78.4962L78.5222 52.3737L78.6572 52.5217L79.9392 52.4847C79.9392 52.4847 80.0232 52.5497 80.0822 52.5677C80.1422 52.5867 81.1372 53.3437 81.1372 53.3437C81.6522 53.6667 81.8542 53.9527 81.8542 53.9527C81.8542 53.9527 82.4872 53.9427 82.5202 53.9157C82.5542 53.8877 82.5882 53.9427 82.5882 53.9427C82.9502 53.9987 83.0272 54.1457 83.0272 54.1457L83.4482 54.0997L83.5672 54.1927L83.8532 54.2197L84.1062 54.3307L84.5202 53.7497C84.5452 53.5927 84.7902 53.3897 84.7902 53.3897L86.0642 52.7807L86.6292 53.3527L87.0592 53.3617L87.1942 53.3157L87.5492 53.3067L87.7592 53.3527L87.3122 54.0537C87.1782 54.3957 86.3932 55.2997 86.3932 55.2997L86.3762 61.5297L87.0932 62.6147L87.0122 62.7607L86.6442 63.4607M85.6132 64.4687L85.9552 63.6667L86.0422 63.4607M85.6132 64.4687C85.6132 64.4687 84.8822 64.1017 84.9252 64.4687C84.9682 64.8347 84.1092 66.8497 83.9802 67.2627C83.8512 67.6737 83.3782 68.4067 83.2492 68.5907C83.1202 68.7727 82.8192 69.9647 82.8192 69.9647C83.2492 70.6057 83.8082 71.1547 83.8082 71.4757C83.8082 71.7957 83.5492 71.9327 83.5492 72.2077C83.5492 72.4827 83.6792 72.7117 83.5922 72.9407C83.5062 73.1697 83.4202 73.9947 83.4202 73.9947C83.8512 75.1387 83.8082 75.6437 83.9802 75.8717C84.1512 76.1007 84.7962 76.4667 85.0112 76.6047C85.2262 76.7417 85.2262 77.4747 85.2572 77.6577C85.2872 77.8417 85.1832 78.2077 84.9682 78.2987C84.7532 78.3897 84.8822 79.1687 84.8822 79.3527C84.8822 79.5347 85.2262 80.5427 85.0112 80.7717C84.7962 81.0017 84.8822 82.5577 84.8822 82.5577C84.8822 82.5577 85.0972 82.9237 85.2262 83.2437C85.3552 83.5647 85.0542 84.1607 84.7532 84.9387C84.4522 85.7177 81.6162 87.6867 81.6162 87.6867C80.1122 87.6407 78.0492 90.2967 78.0492 90.2967C78.0492 90.2967 77.5762 90.4337 77.4472 90.6167C77.3182 90.8007 76.4582 91.7167 76.1572 91.7167C75.8572 91.7167 75.5132 92.3587 75.9862 92.7247C76.4582 93.0907 76.2442 93.8237 76.4162 93.8687C76.5882 93.9147 77.0172 94.1897 77.0172 94.1897V94.8767C77.0172 95.1507 76.7592 95.4257 76.7592 95.4257H77.0172V95.7017L76.7592 96.2967H77.0172V96.5717L76.7592 97.1207C76.7592 97.1207 76.7162 98.2647 76.5442 98.5867C76.3732 98.9067 75.1692 99.6387 75.1692 99.6387C74.3532 99.6847 72.8482 100.509 72.8482 100.83C72.8482 101.151 72.6772 103.121 72.5052 103.441C72.3322 103.761 72.0322 105.318 72.0322 105.318C71.9032 105.685 70.7862 106.417 70.4852 106.601C70.1842 106.784 69.2392 108.479 69.2392 108.479C69.1102 109.119 67.5192 110.31 67.5192 110.31C66.8312 110.951 64.0382 113.333 63.7802 113.333H62.6202V113.515C62.6202 113.515 62.4912 113.837 62.2332 113.79C61.9762 113.745 61.7172 113.562 61.7172 113.562L61.4162 113.882L61.1152 114.202L60.4712 113.974L59.6972 113.699C59.6972 113.699 59.2682 113.974 59.0102 114.019C58.7522 114.065 58.4082 113.699 58.4082 113.699L58.1502 113.837C58.1502 113.837 57.4622 114.157 57.3332 114.294C57.2042 114.432 55.9162 114.385 55.9162 114.385L55.5722 114.615C55.5722 114.615 54.8842 114.889 54.4972 114.889C54.1112 114.889 53.8102 114.019 53.5942 114.157C53.3802 114.294 52.6062 114.157 52.6062 114.157V112.92C52.6062 112.691 52.2192 112.372 51.9192 111.913C51.7422 111.644 51.9212 111.423 52.0992 111.285C52.2242 111.188 52.3482 111.134 52.3482 111.134M85.6132 64.4687L86.0422 63.4607M86.0422 63.4607H86.6442M86.6442 63.4607C86.6442 63.4607 87.4612 61.8127 88.0192 61.2177C88.0192 61.2177 90.4262 58.2297 90.9422 57.9837C90.9422 57.9837 93.1772 56.8207 93.8652 55.7217C93.8652 55.7217 97.8612 50.7297 97.9052 50.2717C97.9482 49.8137 97.9052 48.9897 97.9052 48.9897C97.9052 48.9897 98.7642 47.7527 98.8072 47.1117C98.8072 47.1117 99.8392 45.2797 100.01 44.8677C100.182 44.4557 100.268 43.1737 100.268 43.1737C100.268 43.1737 101.213 42.8067 100.913 42.6697C100.612 42.5317 100.354 42.3947 100.354 42.3947C100.354 42.3947 100.397 40.4707 100.01 40.1967C99.6242 39.9217 98.9362 40.7007 98.6782 40.8837C98.4202 41.0667 97.6472 41.2957 97.3892 41.3417C97.1312 41.3867 95.8842 41.7537 95.6272 41.7997C95.3692 41.8457 94.7672 41.5247 94.5952 41.7537C94.4232 41.9827 93.6502 42.5317 93.4352 42.4867C93.2202 42.4407 92.6622 42.0277 92.4042 42.2577C92.1462 42.4867 91.5442 42.8987 91.2432 42.8987C90.9432 42.8987 90.2982 43.1737 90.0832 42.8987C89.8682 42.6237 89.0952 41.5707 88.9222 41.4327C88.7512 41.2957 88.5352 41.2047 88.5352 41.2047C88.5352 41.2047 89.2232 40.3097 89.0942 40.1387C88.9652 39.9677 88.2782 38.9147 87.9342 38.8237C87.5902 38.7317 86.7312 37.5867 86.3862 37.4027C86.0432 37.2197 85.7422 36.3497 85.5272 36.3497C85.3122 36.3497 84.1952 35.2967 83.9372 35.2047C83.6792 35.1137 83.2922 35.2047 83.2922 35.2047L82.7772 34.3807C82.7772 34.3807 82.1322 31.0377 80.0692 29.9387C80.0692 29.9387 79.5532 29.0227 79.3812 26.5037C79.3812 26.5037 79.4682 26.2747 79.0812 26.0007C78.6942 25.7257 78.8662 25.1297 78.7372 24.9927C78.6082 24.8547 77.0182 23.6187 76.9322 23.4817C76.8462 23.3447 76.6312 22.7937 76.9322 22.6567C77.2332 22.5197 77.1462 22.1987 77.0172 21.9707C76.8962 21.7537 75.6982 20.6777 75.1322 19.2847C75.1002 19.2037 75.0692 19.1217 75.0412 19.0387C74.5252 17.5277 74.2242 17.7567 74.0952 17.4367C73.9672 17.1157 73.7512 16.2457 74.1812 16.2457C74.1812 16.2457 74.5682 16.6587 74.6112 16.2457C74.6542 15.8337 74.8692 14.9637 74.8692 14.5977C74.8692 14.2317 75.1272 12.9487 75.0412 12.7647C74.9552 12.5827 74.6542 11.4367 74.4822 11.2547C74.3102 11.0707 74.3102 10.4757 74.0522 10.4297C73.7942 10.3837 73.4512 10.8877 73.1932 10.7967C72.9352 10.7047 72.2472 10.4267 72.2472 10.4267C72.2472 10.4267 72.0332 10.8417 71.7322 10.7967C71.4312 10.7507 70.6142 10.1097 70.3562 10.1097C70.0982 10.1097 69.6692 10.0637 69.5402 10.1097C69.4112 10.1547 67.7342 11.0707 67.1332 11.4367C67.1332 11.4367 66.8322 11.3457 66.4882 11.1627C66.1452 10.9797 65.4992 11.0707 65.1562 10.9337C64.8122 10.7967 62.0182 10.4757 62.0182 10.4757C62.0182 10.4757 61.9332 9.88067 61.7182 9.69667C61.5032 9.51467 60.5152 9.97167 60.2572 9.69667C59.9992 9.42167 59.4402 9.28467 59.4402 9.28467C59.4402 9.28467 58.7092 8.68967 58.3222 8.55167C57.9362 8.41567 56.6892 7.95668 55.9592 8.78168C55.9592 8.78168 54.4552 9.10167 54.7122 10.9337C54.7122 10.9337 54.9712 12.3997 53.8532 12.5827C53.8532 12.5827 52.1342 11.5287 51.4892 11.3457C51.4892 11.3457 50.0282 11.0707 49.6412 10.8877C49.2542 10.7047 49.3832 9.78867 49.1262 9.46867C48.8682 9.14767 48.1802 9.05568 47.8792 8.96468C47.5782 8.87268 46.7182 8.32467 46.4182 8.30167C46.1172 8.27767 45.5152 8.14167 45.3002 8.30167C45.0862 8.46067 44.6992 8.44667 44.5702 8.22467C44.4412 8.00267 43.6672 7.72768 43.6672 7.72768C43.6672 7.72768 43.5392 6.67468 43.2382 6.58368C42.9372 6.49168 42.5072 7.04067 42.5072 7.04067C42.5072 7.04067 42.2062 6.83668 42.2492 6.57268C42.2922 6.30768 42.6362 5.75868 43.3662 5.52968C44.0972 5.30068 43.8392 4.38467 43.6252 4.11067C43.4102 3.83567 42.7652 3.56067 43.3242 3.14867C43.8822 2.73667 44.1832 1.95767 43.8822 1.77467C43.5812 1.59167 43.1952 1.77467 43.0232 1.77467C42.8512 1.77467 42.9362 1.72867 42.5932 1.45367C42.2492 1.17867 41.3892 1.17867 40.9602 1.45367C40.5302 1.72867 40.1862 1.91167 39.9282 1.77467C39.6702 1.63767 39.2412 1.17867 39.0262 1.24767C38.8102 1.31667 38.5532 1.86667 38.4242 1.72867C38.2962 1.59167 38.1232 1.11968 37.9082 1.24068C37.6942 1.36268 37.3922 1.59168 37.2642 1.68268C37.1342 1.77468 36.7482 1.59168 36.6622 1.82068L36.5762 2.04967C36.5762 2.04967 35.7602 1.49967 35.4592 1.40767C35.1582 1.31667 34.4272 1.31667 34.2552 1.54567C34.0832 1.77467 33.7392 1.68268 33.7392 1.68268L33.2242 1.22067C33.2242 1.22067 33.0952 1.82068 32.6222 1.82068C32.1502 1.82068 31.2472 1.72867 31.2472 1.72867C31.2472 1.72867 29.9152 2.09468 29.4852 2.59868C29.4852 2.59868 28.9692 2.73668 28.7982 2.78168C28.6252 2.82768 28.3682 2.64468 28.1962 2.78168C28.0232 2.91968 27.1642 3.65167 26.7342 3.60667C26.3042 3.56067 26.0042 3.37767 25.8322 3.19367C25.6602 3.01167 25.4452 2.87367 25.2302 3.05667C25.0152 3.24067 23.6402 3.42368 23.5972 3.24068C23.5542 3.05668 22.9092 2.18667 22.4372 2.04967C21.9642 1.91167 21.4052 2.68967 20.6752 4.38467C20.6752 4.38467 19.5572 5.48467 18.6972 5.48467C18.6972 5.48467 16.5492 5.94168 16.5062 7.72768C16.5062 7.72768 15.3892 8.04867 15.1732 10.1097C15.1732 10.1097 15.8182 10.7507 15.3892 11.0257C15.3892 11.0257 13.6702 12.4907 13.4552 12.5827C13.2392 12.6737 12.4662 13.5897 12.0792 13.6357C11.6922 13.6817 10.2742 12.8577 9.32823 15.5137C9.32823 15.5137 8.34023 16.2467 8.03923 16.2917C8.03923 16.2917 6.87924 17.8027 6.96524 18.7657C6.96524 18.7657 5.20224 19.9547 5.07424 20.3677C5.07424 20.3677 4.17123 21.9707 4.04223 22.5657C4.04223 22.5657 3.44023 22.2447 2.92523 24.5357C2.92523 24.5357 2.53823 25.2217 2.92523 25.4057C2.92523 25.4057 3.69924 25.6347 3.69924 26.2297C3.69924 26.2297 3.09723 26.9617 3.09723 27.6037C3.09723 27.6037 3.44023 28.0157 3.61323 28.5197C3.61323 28.5197 3.52723 29.8477 3.48423 30.4427C3.48423 30.4427 2.62424 33.0527 2.45224 33.2827C2.28024 33.5107 2.10824 34.2897 1.93724 34.3817C1.76524 34.4727 0.776232 34.9767 0.819232 35.3427C0.862232 35.7097 1.03423 35.6637 1.33523 35.9837C1.63623 36.3047 1.85024 37.0377 1.85024 37.4047C1.85024 37.7697 1.63623 37.6787 1.63623 37.6787L1.46324 39.0977C1.46324 39.0977 1.67924 39.5107 1.89324 39.8307C2.10824 40.1517 2.36623 40.5177 2.06523 40.6097C1.76423 40.7007 1.59223 41.7997 2.23723 41.9377C2.88223 42.0747 3.09624 41.4337 3.26824 41.5257C3.44024 41.6167 3.69824 41.9377 3.78424 42.1667C3.87024 42.3957 4.17124 42.3957 4.17124 42.3957L5.58924 44.1817L5.54624 44.6847C5.54624 44.6847 6.01924 44.4107 6.01924 44.7767C6.01924 45.1437 6.14823 46.8377 6.14823 46.8377C6.14823 46.8377 6.19123 47.7537 6.57823 47.8917C6.96423 48.0287 8.72723 48.6697 9.54323 49.9977C9.54323 49.9977 12.2502 51.6467 12.7232 52.6537C12.7232 52.6537 13.8842 53.5237 14.4002 53.5237C14.9152 53.5237 16.1622 52.4247 16.8062 52.2417C16.8062 52.2417 19.9432 51.4177 22.3932 52.6537C22.3932 52.6537 23.4242 52.4247 23.8542 52.2877C24.2842 52.1497 25.9172 51.3717 26.1752 51.3247C26.4332 51.2797 27.3352 51.2797 27.3352 51.2797C27.3352 51.2797 27.6362 50.3177 28.3242 50.4097C28.3242 50.4097 31.5902 49.8147 32.1482 50.3177C32.1482 50.3177 33.6102 53.1577 34.1262 53.6607C34.1262 53.6607 34.4252 53.9007 35.2682 53.6357C35.3282 53.6167 35.3922 53.5937 35.4582 53.5697C36.4462 53.2027 38.0372 53.0657 38.2952 53.4327C38.5532 53.7987 39.0682 54.4397 39.4122 54.4397C39.7562 54.4397 40.0142 54.8977 39.9282 55.3557C39.8422 55.8137 39.8422 57.0957 39.7562 57.2327C39.6702 57.3707 38.9822 58.3777 39.1112 58.5157C39.2402 58.6527 39.4552 58.9727 39.4552 58.9727C39.4552 58.9727 39.0252 58.9727 39.0252 60.4397L38.5962 60.9417L38.1662 61.0807C38.1662 61.0807 38.2092 62.3167 38.9822 63.5537C38.9822 63.5537 42.9362 67.4917 43.1082 68.3617C43.1082 68.3617 43.4522 69.7357 43.5802 70.2397C43.5802 70.2397 44.4842 72.1627 44.5702 72.6667C44.6552 73.1707 45.0852 73.8567 44.8272 74.2237C44.8272 74.2237 44.3552 74.2697 44.9992 76.2847C44.9992 76.2847 45.8582 76.7417 45.8162 77.2007C45.7732 77.6587 45.7292 79.0787 45.7292 79.0787C45.7292 79.0787 44.2682 80.2687 44.0532 81.5047C43.8382 82.7407 43.7952 83.4287 43.4092 83.8867C43.0222 84.3437 42.8502 85.3067 42.9362 85.6267C43.0222 85.9477 42.9792 88.4657 43.3232 89.0617C43.3232 89.0617 45.3432 91.9007 45.6012 93.4117C45.6012 93.4117 46.9332 94.9237 47.0192 95.3347C47.1052 95.7477 46.9332 97.7157 47.2342 98.7697C47.5352 99.8227 47.8362 100.419 47.8792 101.198C47.9212 101.976 48.1372 103.442 48.5232 103.853C48.9102 104.266 49.8562 105.045 50.1572 105.686C50.4572 106.327 51.3602 108.479 51.6602 108.937C51.9612 109.394 52.5202 109.945 52.5632 110.219C52.6062 110.494 52.6492 110.906 52.6492 110.906" stroke="#083783" stroke-width="0.5" stroke-linecap="square" stroke-linejoin="round"/>
<path d="M82.5198 63.631C82.9638 63.631 83.3248 63.271 83.3248 62.826C83.3248 62.382 82.9638 62.021 82.5198 62.021C82.0758 62.021 81.7148 62.382 81.7148 62.826C81.7148 63.271 82.0758 63.631 82.5198 63.631Z" fill="#083783"/>
<path d="M82.5198 63.631C82.9638 63.631 83.3248 63.271 83.3248 62.826C83.3248 62.382 82.9638 62.021 82.5198 62.021C82.0758 62.021 81.7148 62.382 81.7148 62.826C81.7148 63.271 82.0758 63.631 82.5198 63.631Z" stroke="#083783" stroke-width="0.475"/>
</svg>
