<svg width="102" height="116" viewBox="0 0 102 116" fill="none" xmlns="http://www.w3.org/2000/svg">
<path d="M85.9782 64.3294L85.8312 64.2644L85.5152 64.1714L85.3282 64.2024C85.3282 64.2024 85.3372 64.1484 85.2372 64.6584C84.9462 66.1524 83.9152 67.8604 83.9152 67.8604L81.8732 66.2824L81.7892 66.1624L81.6452 65.9504C81.6452 65.9504 81.8312 65.9594 81.6122 65.9504C81.3922 65.9414 81.4682 65.7564 81.4682 65.7564L81.5532 65.6914L81.6122 65.5994V65.3594L81.5792 65.1844L75.7342 61.6034V60.5784C75.7342 60.5784 75.8332 60.2914 75.8412 60.2094C75.8492 60.1264 75.7822 60.0154 75.7492 59.9044C75.7152 59.7944 75.7492 59.7194 75.7492 59.7194C75.7492 59.7194 75.9512 59.4154 75.9932 59.4154C76.0362 59.4154 76.0272 59.3134 76.0272 59.3134C76.0102 58.9174 76.1792 58.9084 76.2382 58.9174C76.2972 58.9264 76.3482 58.7234 76.3482 58.7234C76.3812 58.6494 76.5582 58.5204 76.5582 58.5204C76.6002 58.4834 76.6002 58.2434 76.6342 58.1324C76.6362 58.1284 76.6372 58.1244 76.6402 58.1204C76.6982 58.0104 77.0732 57.8644 77.0732 57.8644C77.1492 57.8554 77.1072 57.7264 77.1072 57.7264C77.0812 57.5784 77.1742 57.3934 77.1742 57.3934C77.3092 57.3114 77.3762 57.0894 77.3762 57.0894V56.4254L77.3262 56.2404C77.3262 56.2404 77.2822 56.0164 77.2742 55.9814C77.2652 55.9464 77.3102 55.8264 77.3222 55.8004C77.3342 55.7734 77.2702 55.6504 77.2532 55.6114C77.2372 55.5714 77.0802 55.4874 77.0802 55.4474C77.0802 55.4084 77.0762 55.2144 77.0322 55.1704C76.9872 55.1264 76.7942 54.9764 76.7942 54.9764C76.7582 54.9194 76.7222 54.7084 76.7222 54.7084C76.6492 54.6594 76.5412 54.4574 76.5412 54.4574C76.5412 54.4574 76.5412 54.2724 76.5212 54.2414C76.5012 54.2104 76.4772 54.0874 76.4772 54.0344C76.4772 53.9824 76.5452 53.8364 76.5372 53.7704C76.5292 53.7034 76.4442 53.6654 76.4242 53.6384C76.4042 53.6114 76.3032 53.6344 76.2792 53.5944C76.2552 53.5544 76.1342 53.5674 76.1022 53.5544C76.0702 53.5414 76.1342 53.4184 76.1342 53.3784C76.1342 53.3384 76.0062 53.3474 76.0062 53.3474C76.0062 53.3474 76.0582 53.2684 76.0262 53.2284C75.9942 53.1894 75.9532 53.0964 75.9532 53.0964C75.9532 53.0964 75.9612 52.9124 75.9292 52.8764C75.8972 52.8414 75.8902 52.6944 75.8902 52.6944L76.4632 52.0834H78.8612L78.8872 52.2344L79.0222 52.3824L80.3042 52.3454C80.3042 52.3454 80.3882 52.4104 80.4472 52.4284C80.5072 52.4474 81.5022 53.2034 81.5022 53.2034C82.0172 53.5274 82.2192 53.8134 82.2192 53.8134C82.2192 53.8134 82.8522 53.8034 82.8852 53.7764C82.9192 53.7484 82.9532 53.8034 82.9532 53.8034C83.3152 53.8594 83.3922 54.0064 83.3922 54.0064L83.8132 53.9604L83.9322 54.0534L84.2182 54.0804L84.4712 54.1914L84.8852 53.6104C84.9102 53.4534 85.1552 53.2504 85.1552 53.2504L86.4292 52.6414L86.9942 53.2134L87.4242 53.2224L87.5592 53.1764L87.9142 53.1674L88.1242 53.2134L87.6772 53.9144C87.5432 54.2564 86.7582 55.1604 86.7582 55.1604L86.7412 61.3904L87.4582 62.4754L87.3772 62.6214L87.0092 63.3214M85.9782 64.3294L86.3202 63.5274L86.4072 63.3214M85.9782 64.3294C85.9782 64.3294 85.2472 63.9624 85.2902 64.3294C85.3332 64.6954 84.4742 66.7104 84.3452 67.1234C84.2162 67.5344 83.7432 68.2674 83.6142 68.4514C83.4852 68.6334 83.1842 69.8254 83.1842 69.8254C83.6142 70.4664 84.1732 71.0154 84.1732 71.3364C84.1732 71.6564 83.9142 71.7934 83.9142 72.0684C83.9142 72.3434 84.0442 72.5724 83.9572 72.8014C83.8712 73.0304 83.7852 73.8554 83.7852 73.8554C84.2162 74.9994 84.1732 75.5044 84.3452 75.7324C84.5162 75.9614 85.1612 76.3274 85.3762 76.4654C85.5912 76.6024 85.5912 77.3354 85.6222 77.5174C85.6522 77.7024 85.5482 78.0684 85.3332 78.1594C85.1182 78.2504 85.2472 79.0294 85.2472 79.2134C85.2472 79.3954 85.5912 80.4034 85.3762 80.6324C85.1612 80.8624 85.2472 82.4184 85.2472 82.4184C85.2472 82.4184 85.4622 82.7844 85.5912 83.1044C85.7202 83.4254 85.4192 84.0214 85.1182 84.7994C84.8172 85.5784 81.9812 87.5474 81.9812 87.5474C80.4772 87.5014 78.4142 90.1574 78.4142 90.1574C78.4142 90.1574 77.9412 90.2944 77.8122 90.4774C77.6832 90.6614 76.8232 91.5774 76.5222 91.5774C76.2222 91.5774 75.8782 92.2194 76.3512 92.5854C76.8232 92.9514 76.6092 93.6844 76.7812 93.7294C76.9532 93.7754 77.3822 94.0504 77.3822 94.0504V94.7374C77.3822 95.0114 77.1242 95.2864 77.1242 95.2864H77.3822V95.5614L77.1242 96.1564H77.3822V96.4324L77.1242 96.9814C77.1242 96.9814 77.0812 98.1254 76.9092 98.4474C76.7382 98.7674 75.5342 99.4994 75.5342 99.4994C74.7182 99.5454 73.2132 100.369 73.2132 100.69C73.2132 101.011 73.0422 102.981 72.8702 103.301C72.6972 103.621 72.3972 105.178 72.3972 105.178C72.2682 105.545 71.1512 106.277 70.8502 106.461C70.5492 106.643 69.6042 108.338 69.6042 108.338C69.4752 108.979 67.8842 110.17 67.8842 110.17C67.1962 110.811 64.4032 113.193 64.1452 113.193H62.9852V113.375C62.9852 113.375 62.8562 113.696 62.5982 113.65C62.3412 113.605 62.0822 113.422 62.0822 113.422L61.7812 113.742L61.4802 114.062L60.8362 113.834L60.0622 113.559C60.0622 113.559 59.6332 113.834 59.3752 113.879C59.1172 113.925 58.7732 113.559 58.7732 113.559L58.5152 113.696C58.5152 113.696 57.8272 114.017 57.6982 114.154C57.5692 114.292 56.2812 114.245 56.2812 114.245L55.9372 114.475C55.9372 114.475 55.2492 114.749 54.8622 114.749C54.4762 114.749 54.1752 113.879 53.9592 114.017C53.7452 114.154 52.9712 114.017 52.9712 114.017V112.78C52.9712 112.551 52.5842 112.232 52.2842 111.773C52.1072 111.504 52.2862 111.283 52.4642 111.145C52.5892 111.048 52.7132 110.994 52.7132 110.994M85.9782 64.3294L86.4072 63.3214M86.4072 63.3214H87.0092M87.0092 63.3214C87.0092 63.3214 87.8262 61.6734 88.3842 61.0784C88.3842 61.0784 90.7912 58.0904 91.3072 57.8444C91.3072 57.8444 93.5422 56.6814 94.2302 55.5824C94.2302 55.5824 98.2262 50.5904 98.2702 50.1324C98.3132 49.6744 98.2702 48.8504 98.2702 48.8504C98.2702 48.8504 99.1292 47.6134 99.1722 46.9724C99.1722 46.9724 100.204 45.1404 100.375 44.7284C100.547 44.3164 100.633 43.0344 100.633 43.0344C100.633 43.0344 101.578 42.6674 101.278 42.5304C100.977 42.3924 100.719 42.2554 100.719 42.2554C100.719 42.2554 100.762 40.3314 100.375 40.0574C99.9892 39.7824 99.3012 40.5614 99.0432 40.7444C98.7852 40.9274 98.0122 41.1564 97.7542 41.2024C97.4962 41.2474 96.2492 41.6134 95.9922 41.6604C95.7342 41.7064 95.1322 41.3854 94.9602 41.6144C94.7882 41.8434 94.0152 42.3924 93.8002 42.3474C93.5852 42.3014 93.0272 41.8884 92.7692 42.1184C92.5112 42.3474 91.9092 42.7594 91.6082 42.7594C91.3082 42.7594 90.6632 43.0344 90.4482 42.7594C90.2332 42.4844 89.4602 41.4314 89.2872 41.2934C89.1162 41.1564 88.9002 41.0654 88.9002 41.0654C88.9002 41.0654 89.5882 40.1704 89.4592 39.9994C89.3302 39.8284 88.6432 38.7754 88.2992 38.6834C87.9552 38.5924 87.0962 37.4474 86.7512 37.2634C86.4082 37.0804 86.1072 36.2104 85.8922 36.2104C85.6772 36.2104 84.5602 35.1574 84.3022 35.0654C84.0442 34.9744 83.6572 35.0654 83.6572 35.0654L83.1422 34.2414C83.1422 34.2414 82.4972 30.8984 80.4342 29.7994C80.4342 29.7994 79.9182 28.8824 79.7462 26.3644C79.7462 26.3644 79.8332 26.1354 79.4462 25.8614C79.0592 25.5864 79.2312 24.9904 79.1022 24.8534C78.9732 24.7154 77.3832 23.4794 77.2972 23.3424C77.2112 23.2054 76.9962 22.6544 77.2972 22.5174C77.5982 22.3804 77.5112 22.0594 77.3822 21.8314C77.2612 21.6144 76.0632 20.5384 75.4972 19.1454C75.4652 19.0644 75.4342 18.9824 75.4062 18.8994C74.8902 17.3884 74.5892 17.6174 74.4602 17.2974C74.3322 16.9764 74.1162 16.1064 74.5462 16.1064C74.5462 16.1064 74.9332 16.5194 74.9762 16.1064C75.0192 15.6944 75.2342 14.8244 75.2342 14.4584C75.2342 14.0924 75.4922 12.8094 75.4062 12.6254C75.3202 12.4424 75.0192 11.2974 74.8472 11.1154C74.6752 10.9314 74.6752 10.3364 74.4172 10.2904C74.1592 10.2444 73.8162 10.7484 73.5582 10.6574C73.3002 10.5654 72.6122 10.2874 72.6122 10.2874C72.6122 10.2874 72.3982 10.7024 72.0972 10.6574C71.7962 10.6114 70.9792 9.97039 70.7212 9.97039C70.4632 9.97039 70.0342 9.92439 69.9052 9.97039C69.7762 10.0154 68.0992 10.9314 67.4982 11.2974C67.4982 11.2974 67.1972 11.2064 66.8532 11.0234C66.5102 10.8404 65.8642 10.9314 65.5212 10.7944C65.1772 10.6574 62.3832 10.3364 62.3832 10.3364C62.3832 10.3364 62.2982 9.74139 62.0832 9.55739C61.8682 9.37539 60.8802 9.83239 60.6222 9.55739C60.3642 9.28239 59.8052 9.14539 59.8052 9.14539C59.8052 9.14539 59.0742 8.55039 58.6872 8.41239C58.3012 8.27539 57.0542 7.8174 56.3242 8.6424C56.3242 8.6424 54.8202 8.96239 55.0772 10.7944C55.0772 10.7944 55.3362 12.2604 54.2182 12.4424C54.2182 12.4424 52.4992 11.3894 51.8542 11.2064C51.8542 11.2064 50.3932 10.9314 50.0062 10.7484C49.6192 10.5654 49.7482 9.64939 49.4912 9.32939C49.2332 9.00839 48.5452 8.91639 48.2442 8.82539C47.9432 8.73339 47.0832 8.18539 46.7832 8.16139C46.4822 8.13839 45.8802 8.00239 45.6652 8.16139C45.4512 8.32139 45.0642 8.30739 44.9352 8.08539C44.8062 7.86339 44.0322 7.58839 44.0322 7.58839C44.0322 7.58839 43.9042 6.5354 43.6032 6.4444C43.3022 6.3524 42.8722 6.90139 42.8722 6.90139C42.8722 6.90139 42.5712 6.6974 42.6142 6.4334C42.6572 6.1684 43.0012 5.6194 43.7312 5.3904C44.4622 5.1614 44.2042 4.24539 43.9902 3.97139C43.7752 3.69639 43.1302 3.42139 43.6892 3.00939C44.2472 2.59739 44.5482 1.81839 44.2472 1.63539C43.9462 1.45239 43.5602 1.63539 43.3882 1.63539C43.2162 1.63539 43.3012 1.58939 42.9582 1.31439C42.6142 1.03939 41.7542 1.03939 41.3252 1.31439C40.8952 1.58939 40.5512 1.77239 40.2932 1.63539C40.0352 1.49739 39.6062 1.03939 39.3912 1.10839C39.1752 1.17739 38.9182 1.72739 38.7892 1.58939C38.6612 1.45239 38.4882 0.980395 38.2732 1.10139C38.0592 1.22339 37.7572 1.4524 37.6292 1.5434C37.4992 1.6354 37.1132 1.4524 37.0272 1.6814L36.9412 1.91039C36.9412 1.91039 36.1252 1.36039 35.8242 1.26839C35.5232 1.17739 34.7922 1.17739 34.6202 1.40639C34.4482 1.63539 34.1042 1.5434 34.1042 1.5434L33.5892 1.08139C33.5892 1.08139 33.4602 1.6814 32.9872 1.6814C32.5152 1.6814 31.6122 1.58939 31.6122 1.58939C31.6122 1.58939 30.2802 1.9554 29.8502 2.4594C29.8502 2.4594 29.3342 2.5974 29.1632 2.6424C28.9902 2.6884 28.7332 2.5054 28.5612 2.6424C28.3882 2.7804 27.5292 3.51239 27.0992 3.46739C26.6692 3.42139 26.3692 3.23839 26.1972 3.05439C26.0252 2.87139 25.8102 2.73439 25.5952 2.91739C25.3802 3.10139 24.0052 3.28339 23.9622 3.10139C23.9192 2.91739 23.2742 2.04739 22.8022 1.91039C22.3292 1.77239 21.7702 2.55039 21.0402 4.24539C21.0402 4.24539 19.9222 5.34539 19.0622 5.34539C19.0622 5.34539 16.9142 5.80239 16.8712 7.58839C16.8712 7.58839 15.7542 7.90939 15.5382 9.97039C15.5382 9.97039 16.1832 10.6114 15.7542 10.8864C15.7542 10.8864 14.0352 12.3514 13.8202 12.4424C13.6042 12.5344 12.8312 13.4504 12.4442 13.4964C12.0572 13.5424 10.6392 12.7184 9.69324 15.3744C9.69324 15.3744 8.70524 16.1074 8.40424 16.1524C8.40424 16.1524 7.24424 17.6634 7.33024 18.6264C7.33024 18.6264 5.56724 19.8154 5.43924 20.2284C5.43924 20.2284 4.53624 21.8314 4.40724 22.4264C4.40724 22.4264 3.80524 22.1054 3.29024 24.3964C3.29024 24.3964 2.90324 25.0824 3.29024 25.2664C3.29024 25.2664 4.06424 25.4954 4.06424 26.0904C4.06424 26.0904 3.46224 26.8224 3.46224 27.4644C3.46224 27.4644 3.80524 27.8764 3.97824 28.3804C3.97824 28.3804 3.89224 29.7074 3.84924 30.3034C3.84924 30.3034 2.98924 32.9134 2.81724 33.1434C2.64524 33.3714 2.47324 34.1504 2.30224 34.2424C2.13024 34.3334 1.14124 34.8374 1.18424 35.2034C1.22724 35.5704 1.39924 35.5244 1.70024 35.8444C2.00124 36.1654 2.21524 36.8984 2.21524 37.2644C2.21524 37.6304 2.00124 37.5394 2.00124 37.5394L1.82824 38.9584C1.82824 38.9584 2.04424 39.3714 2.25824 39.6914C2.47324 40.0124 2.73124 40.3784 2.43024 40.4704C2.12924 40.5614 1.95724 41.6604 2.60224 41.7984C3.24724 41.9354 3.46124 41.2944 3.63324 41.3864C3.80524 41.4774 4.06324 41.7984 4.14924 42.0274C4.23524 42.2564 4.53624 42.2564 4.53624 42.2564L5.95424 44.0424L5.91124 44.5454C5.91124 44.5454 6.38424 44.2714 6.38424 44.6374C6.38424 45.0044 6.51324 46.6984 6.51324 46.6984C6.51324 46.6984 6.55624 47.6144 6.94324 47.7514C7.32924 47.8894 9.09224 48.5304 9.90824 49.8584C9.90824 49.8584 12.6152 51.5074 13.0882 52.5144C13.0882 52.5144 14.2492 53.3844 14.7652 53.3844C15.2802 53.3844 16.5272 52.2854 17.1712 52.1024C17.1712 52.1024 20.3082 51.2784 22.7582 52.5144C22.7582 52.5144 23.7892 52.2854 24.2192 52.1484C24.6492 52.0104 26.2822 51.2324 26.5402 51.1854C26.7982 51.1404 27.7002 51.1404 27.7002 51.1404C27.7002 51.1404 28.0012 50.1784 28.6892 50.2704C28.6892 50.2704 31.9552 49.6754 32.5132 50.1784C32.5132 50.1784 33.9752 53.0184 34.4912 53.5214C34.4912 53.5214 34.7902 53.7614 35.6332 53.4954C35.6932 53.4774 35.7572 53.4544 35.8232 53.4304C36.8112 53.0634 38.4022 52.9264 38.6602 53.2934C38.9182 53.6594 39.4332 54.3004 39.7772 54.3004C40.1212 54.3004 40.3792 54.7584 40.2932 55.2164C40.2072 55.6744 40.2072 56.9564 40.1212 57.0934C40.0352 57.2314 39.3472 58.2384 39.4762 58.3764C39.6052 58.5134 39.8202 58.8334 39.8202 58.8334C39.8202 58.8334 39.3902 58.8334 39.3902 60.3004L38.9612 60.8024L38.5312 60.9414C38.5312 60.9414 38.5742 62.1774 39.3472 63.4144C39.3472 63.4144 43.3012 67.3514 43.4732 68.2224C43.4732 68.2224 43.8172 69.5954 43.9452 70.0994C43.9452 70.0994 44.8492 72.0234 44.9352 72.5274C45.0202 73.0314 45.4502 73.7174 45.1922 74.0844C45.1922 74.0844 44.7202 74.1294 45.3642 76.1454C45.3642 76.1454 46.2232 76.6024 46.1812 77.0614C46.1382 77.5194 46.0942 78.9394 46.0942 78.9394C46.0942 78.9394 44.6332 80.1294 44.4182 81.3654C44.2032 82.6014 44.1602 83.2894 43.7742 83.7474C43.3872 84.2044 43.2152 85.1674 43.3012 85.4874C43.3872 85.8084 43.3442 88.3264 43.6882 88.9224C43.6882 88.9224 45.7082 91.7614 45.9662 93.2724C45.9662 93.2724 47.2982 94.7844 47.3842 95.1954C47.4702 95.6074 47.2982 97.5764 47.5992 98.6304C47.9002 99.6834 48.2012 100.279 48.2442 101.058C48.2862 101.836 48.5022 103.302 48.8882 103.713C49.2752 104.126 50.2212 104.905 50.5222 105.546C50.8222 106.187 51.7252 108.338 52.0252 108.797C52.3262 109.254 52.8852 109.805 52.9282 110.079C52.9712 110.354 53.0142 110.766 53.0142 110.766" stroke="#4FB29E" stroke-linecap="square" stroke-linejoin="round"/>
<path d="M54.7641 44.9927L57.165 47.2453C57.18 47.2582 57.1832 47.2733 57.1746 47.2904C57.1682 47.3076 57.1553 47.3162 57.136 47.3162H56.398C56.3851 47.3162 56.3754 47.3119 56.369 47.3033L54.4676 45.5212V47.2743C54.4676 47.3023 54.4536 47.3162 54.4257 47.3162H53.9198C53.8918 47.3162 53.8779 47.3023 53.8779 47.2743V42.7401C53.8779 42.7121 53.8918 42.6982 53.9198 42.6982H54.4257C54.4536 42.6982 54.4676 42.7121 54.4676 42.7401V44.4545L56.2143 42.7143C56.2229 42.7057 56.2326 42.7014 56.2433 42.7014H56.9587C56.9781 42.7014 56.991 42.71 56.9974 42.7272C57.006 42.7443 57.0038 42.7594 56.991 42.7723L54.7641 44.9927ZM57.8127 44.4223H58.2703C58.2983 44.4223 58.3122 44.4362 58.3122 44.4642V47.2743C58.3122 47.3023 58.2983 47.3162 58.2703 47.3162H57.8127C57.7848 47.3162 57.7708 47.3023 57.7708 47.2743V44.4642C57.7708 44.4362 57.7848 44.4223 57.8127 44.4223ZM58.2607 43.8003C58.2005 43.8605 58.1275 43.8905 58.0415 43.8905C57.9556 43.8905 57.8826 43.8605 57.8224 43.8003C57.7601 43.738 57.7289 43.6639 57.7289 43.5779C57.7289 43.492 57.7601 43.419 57.8224 43.3588C57.8826 43.2986 57.9556 43.2686 58.0415 43.2686C58.1275 43.2686 58.2005 43.2986 58.2607 43.3588C58.3208 43.419 58.3509 43.492 58.3509 43.5779C58.3509 43.6639 58.3208 43.738 58.2607 43.8003ZM59.279 43.3652C59.3413 43.3051 59.4155 43.275 59.5014 43.275C59.5852 43.275 59.6582 43.3051 59.7205 43.3652C59.7807 43.4276 59.8108 43.5017 59.8108 43.5876C59.8108 43.6714 59.7807 43.7444 59.7205 43.8068C59.6582 43.8669 59.5852 43.897 59.5014 43.897C59.4155 43.897 59.3413 43.8669 59.279 43.8068C59.2189 43.7444 59.1888 43.6714 59.1888 43.5876C59.1888 43.5017 59.2189 43.4276 59.279 43.3652ZM59.2275 47.574V44.4642C59.2275 44.4362 59.2414 44.4223 59.2694 44.4223H59.7302C59.7581 44.4223 59.7721 44.4362 59.7721 44.4642V47.574C59.7721 47.7502 59.7324 47.9081 59.6529 48.0478C59.5755 48.1853 59.4681 48.2884 59.3306 48.3571C59.2253 48.4109 59.1125 48.4377 58.9922 48.4377C58.816 48.4377 58.6463 48.3818 58.483 48.2701C58.4594 48.2551 58.4562 48.2358 58.4734 48.2121L58.7505 47.8447C58.7656 47.8233 58.7838 47.82 58.8053 47.8351C58.9106 47.9017 59.004 47.9146 59.0857 47.8737C59.1802 47.8265 59.2275 47.7266 59.2275 47.574ZM61.1546 46.6588C61.2212 46.734 61.3458 46.7716 61.5285 46.7716C61.5908 46.7716 61.652 46.7641 61.7121 46.749C61.7916 46.7276 61.8636 46.6943 61.9281 46.6491C62.0999 46.5245 62.2031 46.3161 62.2374 46.0239C62.1408 46.0175 62.0484 46.0143 61.9603 46.0143C61.5714 46.0143 61.3093 46.0744 61.174 46.1947C61.116 46.2463 61.0869 46.3172 61.0869 46.4074C61.0869 46.5234 61.1095 46.6072 61.1546 46.6588ZM62.7917 45.8016C62.7917 45.8359 62.7907 45.8714 62.7885 45.9079C62.7864 45.9831 62.7853 46.039 62.7853 46.0755C62.7853 46.2624 62.7982 46.4869 62.824 46.749C62.8326 46.8457 62.8433 46.9445 62.8562 47.0455C62.8648 47.1207 62.8744 47.1948 62.8852 47.2679C62.8895 47.3001 62.8755 47.3162 62.8433 47.3162H62.3792C62.3556 47.3162 62.3416 47.3044 62.3373 47.2808C62.3266 47.2013 62.3169 47.1207 62.3083 47.0391C62.0892 47.2217 61.8292 47.313 61.5285 47.313C61.2191 47.313 60.9774 47.2335 60.8034 47.0745C60.6293 46.9134 60.5423 46.691 60.5423 46.4074C60.5423 46.1539 60.6336 45.9466 60.8162 45.7855C61.0934 45.5384 61.5682 45.4363 62.2407 45.4793C62.2256 45.2881 62.1816 45.1549 62.1085 45.0797C62.0333 45.0002 61.9012 44.9605 61.7121 44.9605C61.5703 44.9605 61.4404 44.9852 61.3222 45.0346C61.2792 45.0518 61.2384 45.0722 61.1997 45.0958C61.1718 45.113 61.1471 45.1302 61.1256 45.1474C61.1063 45.1646 61.088 45.1646 61.0708 45.1474L60.7292 44.8348C60.7077 44.8133 60.7077 44.7929 60.7292 44.7735C60.7443 44.7585 60.7604 44.7445 60.7776 44.7317C60.7991 44.7123 60.8227 44.6941 60.8485 44.6769C60.9108 44.6339 60.9785 44.5952 61.0515 44.5609C61.2513 44.4663 61.4715 44.4191 61.7121 44.4191C62.0537 44.4191 62.3159 44.5125 62.4985 44.6994C62.6252 44.8305 62.7101 45.0045 62.7531 45.2215C62.7831 45.3654 62.796 45.5588 62.7917 45.8016ZM64.5674 46.5138C64.7436 46.6857 64.9541 46.7716 65.1991 46.7716C65.4483 46.7716 65.662 46.6835 65.8404 46.5073C66.0165 46.3312 66.1046 46.1185 66.1046 45.8693C66.1046 45.62 66.0165 45.4063 65.8404 45.2279C65.662 45.0518 65.4483 44.9637 65.1991 44.9637C64.9541 44.9637 64.7436 45.0496 64.5674 45.2215C64.3934 45.3934 64.3032 45.6018 64.2967 45.8467V45.8886C64.3032 46.1335 64.3934 46.3419 64.5674 46.5138ZM64.2967 44.7381C64.5782 44.5125 64.8993 44.4072 65.2603 44.4223C65.6277 44.4373 65.9446 44.5748 66.211 44.8348C66.4774 45.0947 66.6224 45.4073 66.646 45.7726C66.6589 45.9788 66.6299 46.1776 66.559 46.3688C66.4903 46.5535 66.3882 46.7168 66.2529 46.8586C65.9671 47.1637 65.6159 47.3162 65.1991 47.3162C64.8618 47.3162 64.561 47.2099 64.2967 46.9972V47.2647C64.2967 47.2926 64.2827 47.3066 64.2548 47.3066H63.7875C63.7596 47.3066 63.7456 47.2926 63.7456 47.2647V42.7336C63.7456 42.7057 63.7596 42.6917 63.7875 42.6917H64.2548C64.2827 42.6917 64.2967 42.7057 64.2967 42.7336V44.7381ZM67.7095 45.7178L69.3788 45.5728C69.3316 45.388 69.2338 45.2408 69.0856 45.1313C68.9373 45.0195 68.7601 44.9637 68.5538 44.9637C68.3368 44.9637 68.1499 45.0346 67.9931 45.1764C67.8363 45.316 67.7417 45.4965 67.7095 45.7178ZM67.5645 44.838C67.8373 44.5587 68.1703 44.4201 68.5635 44.4223C68.9481 44.4244 69.2757 44.5662 69.5464 44.8477C69.8171 45.127 69.9525 45.46 69.9525 45.8467V46.0304C69.9525 46.0562 69.9396 46.0701 69.9138 46.0723L67.7868 46.256C67.8599 46.4107 67.9695 46.5353 68.1156 46.6298C68.2638 46.7243 68.426 46.7716 68.6022 46.7716C68.7569 46.7716 68.9019 46.7351 69.0372 46.662C69.1747 46.5868 69.2843 46.4848 69.366 46.3559C69.381 46.3322 69.4003 46.3269 69.424 46.3398L69.8203 46.5718C69.8461 46.5847 69.8515 46.604 69.8365 46.6298C69.7054 46.8425 69.5292 47.0101 69.3079 47.1325C69.0888 47.255 68.8535 47.3162 68.6022 47.3162C68.2047 47.3162 67.8642 47.1744 67.5806 46.8908C67.297 46.6094 67.1552 46.2689 67.1552 45.8693C67.1552 45.461 67.2916 45.1173 67.5645 44.838ZM70.684 46.6943H71.0256C71.0514 46.6943 71.0729 46.7028 71.0901 46.72C71.1094 46.7394 71.1191 46.7619 71.1191 46.7877V47.3227C71.1191 47.3656 71.103 47.4032 71.0707 47.4355C71.0407 47.4655 71.0031 47.4806 70.9579 47.4806H70.9289C70.8344 47.4806 70.7549 47.4484 70.6905 47.3839C70.6239 47.3173 70.5906 47.2367 70.5906 47.1422V46.7877C70.5906 46.7619 70.5992 46.7394 70.6163 46.72C70.6357 46.7028 70.6582 46.6943 70.684 46.6943ZM54.7641 50.9927L57.165 53.2453C57.18 53.2582 57.1832 53.2733 57.1746 53.2904C57.1682 53.3076 57.1553 53.3162 57.136 53.3162H56.398C56.3851 53.3162 56.3754 53.3119 56.369 53.3033L54.4676 51.5212V53.2743C54.4676 53.3023 54.4536 53.3162 54.4257 53.3162H53.9198C53.8918 53.3162 53.8779 53.3023 53.8779 53.2743V48.7401C53.8779 48.7121 53.8918 48.6982 53.9198 48.6982H54.4257C54.4536 48.6982 54.4676 48.7121 54.4676 48.7401V50.4545L56.2143 48.7143C56.2229 48.7057 56.2326 48.7014 56.2433 48.7014H56.9587C56.9781 48.7014 56.991 48.71 56.9974 48.7272C57.006 48.7443 57.0038 48.7594 56.991 48.7723L54.7641 50.9927ZM57.9384 51.7178L59.6077 51.5728C59.5605 51.388 59.4627 51.2408 59.3145 51.1313C59.1662 51.0195 58.989 50.9637 58.7827 50.9637C58.5658 50.9637 58.3788 51.0346 58.222 51.1764C58.0652 51.316 57.9706 51.4965 57.9384 51.7178ZM57.7934 50.838C58.0662 50.5587 58.3993 50.4201 58.7924 50.4223C59.177 50.4244 59.5046 50.5662 59.7753 50.8477C60.046 51.127 60.1814 51.46 60.1814 51.8467V52.0304C60.1814 52.0562 60.1685 52.0701 60.1427 52.0723L58.0158 52.256C58.0888 52.4107 58.1984 52.5353 58.3445 52.6298C58.4927 52.7243 58.6549 52.7716 58.8311 52.7716C58.9858 52.7716 59.1308 52.7351 59.2661 52.662C59.4036 52.5868 59.5132 52.4848 59.5949 52.3559C59.6099 52.3322 59.6292 52.3269 59.6529 52.3398L60.0493 52.5718C60.075 52.5847 60.0804 52.604 60.0654 52.6298C59.9343 52.8425 59.7581 53.0101 59.5368 53.1325C59.3177 53.255 59.0825 53.3162 58.8311 53.3162C58.4336 53.3162 58.0931 53.1744 57.8095 52.8908C57.5259 52.6094 57.3841 52.2689 57.3841 51.8693C57.3841 51.461 57.5205 51.1173 57.7934 50.838ZM63.3589 52.0497C63.3589 52.1937 63.3589 52.3011 63.3589 52.372C63.3611 52.6384 63.3621 52.8608 63.3621 53.0391L63.3654 53.2679C63.3654 53.2958 63.3514 53.3098 63.3235 53.3098H62.8594C62.8315 53.3098 62.8175 53.2958 62.8175 53.2679L62.8207 53.0391C62.8207 52.8608 62.8218 52.6384 62.824 52.372C62.824 52.3011 62.825 52.1937 62.8272 52.0497V51.9627V51.8725C62.8272 51.8059 62.8272 51.7446 62.8272 51.6888V51.5953L62.824 51.5276C62.8197 51.4804 62.8111 51.4353 62.7982 51.3923C62.7681 51.3021 62.7198 51.2215 62.6532 51.1506C62.5887 51.0818 62.5103 51.0303 62.4179 50.9959C62.3771 50.9787 62.333 50.9669 62.2858 50.9605L62.2664 50.9572C62.26 50.9551 62.2557 50.954 62.2535 50.954H62.2439H62.2374C62.2331 50.954 62.2267 50.954 62.2181 50.954L62.1955 50.9508H62.1891H62.1827H62.1633L62.1472 50.954C61.9753 50.9605 61.8303 51.0281 61.7121 51.157C61.6649 51.2043 61.6273 51.258 61.5993 51.3182C61.5757 51.3654 61.5585 51.4138 61.5478 51.4632C61.5413 51.4868 61.537 51.5051 61.5349 51.518V51.5309V51.5405L61.5317 51.5567C61.5317 51.576 61.5306 51.591 61.5285 51.6018V51.6404V53.2743C61.5285 53.3023 61.5145 53.3162 61.4866 53.3162H61.016C60.9881 53.3162 60.9742 53.3023 60.9742 53.2743V50.4448C60.9742 50.4169 60.9881 50.4029 61.016 50.4029H61.4866C61.5145 50.4029 61.5285 50.4169 61.5285 50.4448V50.664C61.5779 50.6275 61.6262 50.5974 61.6735 50.5737C61.811 50.5028 61.9581 50.4609 62.115 50.4481L62.144 50.4448H62.173H62.1891H62.202H62.2084H62.231C62.2374 50.4448 62.2471 50.4448 62.26 50.4448L62.2761 50.4481H62.2922C62.303 50.4481 62.3137 50.4491 62.3244 50.4513L62.3567 50.4545C62.4405 50.4674 62.521 50.4878 62.5984 50.5157C62.7638 50.5759 62.9056 50.6683 63.0238 50.7929C63.1462 50.9175 63.2354 51.0614 63.2912 51.2247C63.3192 51.3042 63.3374 51.3859 63.346 51.4696C63.3525 51.5105 63.3557 51.5524 63.3557 51.5953V51.6888C63.3557 51.7446 63.3557 51.8059 63.3557 51.8725V51.9627L63.3589 52.0497ZM65.3215 52.4622L66.1368 50.4287C66.1454 50.4115 66.1583 50.4029 66.1755 50.4029H66.6815C66.6965 50.4029 66.7083 50.4094 66.7169 50.4223C66.7255 50.433 66.7266 50.4459 66.7202 50.4609L65.1185 54.4442C65.112 54.4613 65.0992 54.4699 65.0798 54.4699H64.5739C64.5588 54.4699 64.5481 54.4635 64.5416 54.4506C64.533 54.4399 64.5309 54.427 64.5352 54.4119L65.025 53.1938L63.8939 50.4609C63.8874 50.4459 63.8885 50.433 63.8971 50.4223C63.9057 50.4094 63.9175 50.4029 63.9326 50.4029H64.4385C64.4578 50.4029 64.4707 50.4115 64.4772 50.4287L65.3215 52.4622ZM67.7095 52.6588C67.7761 52.734 67.9007 52.7716 68.0833 52.7716C68.1456 52.7716 68.2069 52.7641 68.267 52.749C68.3465 52.7276 68.4185 52.6943 68.4829 52.6491C68.6548 52.5245 68.7579 52.3161 68.7923 52.0239C68.6956 52.0175 68.6033 52.0143 68.5152 52.0143C68.1263 52.0143 67.8642 52.0744 67.7288 52.1947C67.6708 52.2463 67.6418 52.3172 67.6418 52.4074C67.6418 52.5234 67.6644 52.6072 67.7095 52.6588ZM69.3466 51.8016C69.3466 51.8359 69.3455 51.8714 69.3434 51.9079C69.3412 51.9831 69.3402 52.039 69.3402 52.0755C69.3402 52.2624 69.3531 52.4869 69.3788 52.749C69.3874 52.8457 69.3982 52.9445 69.4111 53.0455C69.4197 53.1207 69.4293 53.1948 69.4401 53.2679C69.4444 53.3001 69.4304 53.3162 69.3982 53.3162H68.9341C68.9105 53.3162 68.8965 53.3044 68.8922 53.2808C68.8815 53.2013 68.8718 53.1207 68.8632 53.0391C68.6441 53.2217 68.3841 53.313 68.0833 53.313C67.774 53.313 67.5323 53.2335 67.3582 53.0745C67.1842 52.9134 67.0972 52.691 67.0972 52.4074C67.0972 52.1539 67.1885 51.9466 67.3711 51.7855C67.6483 51.5384 68.1231 51.4363 68.7955 51.4793C68.7805 51.2881 68.7365 51.1549 68.6634 51.0797C68.5882 51.0002 68.4561 50.9605 68.267 50.9605C68.1252 50.9605 67.9952 50.9852 67.8771 51.0346C67.8341 51.0518 67.7933 51.0722 67.7546 51.0958C67.7267 51.113 67.702 51.1302 67.6805 51.1474C67.6612 51.1646 67.6429 51.1646 67.6257 51.1474L67.2841 50.8348C67.2626 50.8133 67.2626 50.7929 67.2841 50.7735C67.2992 50.7585 67.3153 50.7445 67.3325 50.7317C67.3539 50.7123 67.3776 50.6941 67.4034 50.6769C67.4657 50.6339 67.5333 50.5952 67.6064 50.5609C67.8062 50.4663 68.0264 50.4191 68.267 50.4191C68.6086 50.4191 68.8707 50.5125 69.0534 50.6994C69.1801 50.8305 69.265 51.0045 69.3079 51.2215C69.338 51.3654 69.3509 51.5588 69.3466 51.8016Z" fill="white"/>
</svg>
