<svg width="598" height="29" viewBox="0 0 598 29" fill="none" xmlns="http://www.w3.org/2000/svg">
<path d="M0 26.2151L339.903 26.5331" stroke="#4FB29E" stroke-width="2"/>
<path d="M338.407 26.6448L482.199 26.4168C482.199 26.4168 495.34 4.03877 500.09 1.70477C500.09 1.70477 502.956 -0.998227 506.596 4.18277C506.596 4.18277 517.013 20.5378 518.445 22.2858C518.445 22.2858 522.23 27.9938 527.816 27.9938C527.816 27.9938 530.973 27.5358 533.471 26.7908C533.471 26.7908 552.213 21.3838 555.234 21.3838C555.234 21.3838 558 21.1118 564.605 23.1008C564.605 23.1008 571.559 25.2598 581.335 26.1168C581.335 26.1168 591.713 26.5658 596.902 20.6328" stroke="#4FB29E" stroke-width="2"/>
</svg>
