<svg width="135" height="134" viewBox="0 0 135 134" fill="none" xmlns="http://www.w3.org/2000/svg">
<path d="M119.421 16.9264C139.422 22.1684 129.364 37.2254 129.364 37.2254C119.449 47.1974 110.607 38.8074 110.607 38.8074L83.1028 67.2365L82.3058 52.6104H69.1228L96.9308 24.6255C96.9308 24.6255 87.8808 14.5694 99.5908 6.78345C99.6098 6.77045 113.859 -4.30355 119.364 16.6984L119.421 16.9264Z" stroke="#4FB6D9" stroke-width="6.136"/>
<path d="M16.8411 116.348L17.0421 116.75L17.7241 118.471C22.7761 137.465 38.2381 127.208 38.2381 127.208C46.0261 121.083 40.7071 108.024 40.7071 108.024L68.2491 80.4822L68.2421 66.3962H67.7171L54.3901 66.3652L26.0201 93.0532C26.0201 93.0532 13.1291 87.3382 6.76912 94.9352C6.76912 94.9352 -3.95588 110.076 14.8761 115.706L16.4391 116.214L16.8411 116.348Z" stroke="#4FB6D9" stroke-width="6.136"/>
<path d="M65.6281 17.7242L64.6401 38.0862" stroke="#4FB6D9" stroke-width="6.136" stroke-linecap="round"/>
<path d="M35.823 28.2852L48.604 42.1132" stroke="#4FB6D9" stroke-width="6.136" stroke-linecap="round"/>
<path d="M23.4602 58.9043L43.7462 57.9163" stroke="#4FB6D9" stroke-width="6.136" stroke-linecap="round"/>
<path d="M72.5227 113.847L73.8657 93.505" stroke="#4FB6D9" stroke-width="6.136" stroke-linecap="round"/>
<path d="M102.508 103.808L89.9707 89.7587" stroke="#4FB6D9" stroke-width="6.136" stroke-linecap="round"/>
<path d="M115.403 73.4091L95.103 74.0431" stroke="#4FB6D9" stroke-width="6.136" stroke-linecap="round"/>
</svg>
