<svg width="68" height="67" viewBox="0 0 68 67" fill="none" xmlns="http://www.w3.org/2000/svg">
<path d="M60.1125 8.9368C70.1135 11.5578 65.0845 19.0858 65.0845 19.0858C60.1265 24.0718 55.7055 19.8778 55.7055 19.8778L41.9535 34.0918L41.5545 26.7788H34.9635L48.8675 12.7858C48.8675 12.7858 44.3425 7.7588 50.1975 3.8648C50.2065 3.8588 57.3315 -1.6782 60.0845 8.8228L60.1125 8.9368Z" stroke="white" stroke-width="3.068"/>
<path d="M8.82278 58.6476L8.92378 58.8486L9.26378 59.7086C11.7908 69.2066 19.5208 64.0776 19.5208 64.0776C23.4148 61.0146 20.7558 54.4856 20.7558 54.4856L34.5268 40.7146L34.5228 33.6716H34.2608L27.5978 33.6556L13.4118 46.9996C13.4118 46.9996 6.96678 44.1426 3.78678 47.9406C3.78678 47.9406 -1.57522 55.5116 7.83978 58.3266L8.62178 58.5806L8.82278 58.6476Z" stroke="white" stroke-width="3.068"/>
<path d="M33.2162 9.3356L32.7222 19.5166" stroke="white" stroke-width="3.068" stroke-linecap="round"/>
<path d="M18.3137 14.6163L24.7037 21.5303" stroke="white" stroke-width="3.068" stroke-linecap="round"/>
<path d="M12.1323 29.9257L22.2753 29.4317" stroke="white" stroke-width="3.068" stroke-linecap="round"/>
<path d="M36.6636 57.3971L37.3346 47.2261" stroke="white" stroke-width="3.068" stroke-linecap="round"/>
<path d="M51.656 52.3774L45.387 45.3534" stroke="white" stroke-width="3.068" stroke-linecap="round"/>
<path d="M58.1037 37.1782L47.9537 37.4952" stroke="white" stroke-width="3.068" stroke-linecap="round"/>
</svg>
