<svg width="60" height="43" viewBox="0 0 60 43" fill="none" xmlns="http://www.w3.org/2000/svg">
<path d="M57.4661 6.76453C57.4921 4.95853 58.0991 5.73253 57.4721 3.99953C57.4291 4.28853 56.9451 3.60153 56.5701 3.30753C56.2961 2.94053 55.5851 2.76253 55.2161 2.52953C54.9251 2.41653 54.9221 2.69053 55.4341 2.97253C57.1521 3.00553 57.4421 5.29053 57.4661 6.76453Z" fill="white"/>
<path d="M57.9634 8.8175C58.3934 7.7765 57.7984 8.0195 58.1204 7.0105C57.7944 7.3975 58.1014 7.6085 57.7534 8.5445L58.0504 8.0485L57.9634 8.8175Z" fill="white"/>
<path d="M55.1238 2.10804C54.5878 1.93504 53.2628 2.01204 53.2598 2.25104C53.1808 2.27904 53.3248 2.39404 53.0188 2.41504C53.4828 2.26004 54.8478 2.37604 55.1238 2.10804Z" fill="white"/>
<path d="M57.8586 2.78125C57.6636 2.43925 57.3596 1.97925 56.8416 1.74825C57.1686 1.92225 57.4996 2.40425 57.8586 2.78125Z" fill="white"/>
<path d="M54.461 1.49251C54.601 1.30151 53.951 1.39551 53.783 1.37751L53.425 1.43251C53.763 1.51251 54.176 1.57851 54.461 1.49251Z" fill="white"/>
<path d="M49.6346 3.20996C48.8776 3.65496 50.5376 3.06396 49.6196 3.53296L50.1616 3.30796L50.2606 2.92196L49.6346 3.20996Z" fill="white"/>
<path d="M49.305 2.8987C48.885 3.0147 49.016 3.1707 48.802 3.3717C48.96 3.3237 49.705 2.7287 49.305 2.8987Z" fill="white"/>
<path d="M45.8515 42.9291L45.6425 42.9371C45.8525 42.9301 46.1505 42.9591 46.3445 42.9921C46.3705 42.9051 46.0115 42.7501 45.6135 42.7251C45.6855 42.8071 46.0745 42.8761 45.8515 42.9291Z" fill="white"/>
<path d="M54.9377 36.3997C55.4047 35.3687 54.8737 35.5677 55.3327 34.5787C54.9987 34.9317 55.1367 35.1557 54.7537 36.0957L55.0807 35.6147L54.9377 36.3997Z" fill="white"/>
<path d="M56.7426 30.4803C56.7716 30.0553 56.7616 29.6203 56.7466 28.9703C56.7186 29.3993 56.6346 29.9203 56.7426 30.4803Z" fill="white"/>
<path d="M57.8932 12.072C57.5812 12.137 57.3922 12.682 57.0742 13.079C57.3932 12.681 57.6042 12.583 57.8932 12.072Z" fill="white"/>
<path d="M55.4214 10.9469C55.4954 10.6959 55.6994 10.5039 55.8364 10.4139L55.8254 10.5729L55.4214 10.9469Z" fill="white"/>
<path d="M52.7813 37.2754C52.4993 37.7624 51.9793 38.5954 52.1893 38.5844L52.1923 38.7534C52.5243 38.3674 53.4863 36.5424 52.7813 37.2754Z" fill="white"/>
<path d="M52.2723 36.7122C52.0913 37.1522 52.2973 36.8712 52.3863 36.8352L52.6743 36.2552C52.6953 36.0352 52.4303 36.5012 52.2723 36.7122Z" fill="white"/>
<path d="M50.325 40.6302C50.828 40.5072 51.777 39.6942 51.658 39.4342C51.708 39.3742 51.541 39.3322 51.791 39.2122C51.5 39.5892 50.432 40.2662 50.325 40.6302Z" fill="white"/>
<path d="M48.1746 42.1639C48.4906 42.1889 48.8176 42.2479 49.2956 42.1089C48.9746 42.1619 48.5876 42.0519 48.1746 42.1639Z" fill="white"/>
<path d="M51.1095 40.8096C51.0945 41.0636 51.5415 40.6336 51.6595 40.5176L51.8925 40.2466C51.6085 40.3746 51.3065 40.6296 51.1095 40.8096Z" fill="white"/>
<path d="M54.0071 36.8509C54.3391 36.0749 53.4091 37.4639 53.8571 36.5869L53.5601 37.0529L53.6721 37.4139L54.0071 36.8509Z" fill="white"/>
<path d="M54.3457 35.5459C54.4837 35.3499 54.5917 35.1239 54.6947 34.6959L54.5217 34.8709C54.4297 34.9999 54.4667 35.2319 54.3457 35.5459Z" fill="white"/>
<path d="M54.4046 36.9101C54.6356 36.5611 54.4936 36.5371 54.5576 36.2621C54.4256 36.3591 54.2036 37.2821 54.4046 36.9101Z" fill="white"/>
<path d="M57.3623 33.3433C57.0593 33.7183 56.9533 34.6423 56.6223 35.4473C56.9423 34.6463 57.1643 34.3303 57.3623 33.3433Z" fill="white"/>
<path d="M53.5756 36.3741C53.1626 36.6291 53.6226 36.0131 53.7286 35.1561C54.0716 34.1401 54.5456 33.1271 54.7606 32.0591L55.0206 31.4411C54.9096 32.7601 54.3556 35.0271 53.5756 36.3741Z" fill="white"/>
<path d="M52.1583 36.3446C52.3993 35.6386 52.9173 34.8546 53.0973 34.3326C52.8333 35.2156 52.3543 36.2946 52.0403 36.8376C51.9543 36.8676 52.1013 36.5276 52.1583 36.3446Z" fill="white"/>
<path d="M30.6006 23.7203C30.6006 23.7203 47.8426 -4.67666 56.9206 2.31534C56.9206 2.31534 60.0576 4.60534 57.4836 10.1313C57.4836 10.1313 52.4666 17.2943 52.3716 21.5923L30.6006 23.7203Z" fill="#149ECC"/>
<path d="M51.7387 19.4076C51.9397 18.7626 52.2467 17.6886 52.0487 17.7906L52.0057 17.6196C51.7817 18.1096 51.1997 20.5116 51.7387 19.4076Z" fill="white"/>
<path d="M52.3546 19.7889C52.4486 19.2459 52.2986 19.6319 52.2176 19.7059L52.0796 20.4689C52.1086 20.7149 52.2726 20.0919 52.3546 19.7889Z" fill="white"/>
<path d="M53.8225 20.0044L53.8065 20.1984C53.8235 20.0054 53.8825 19.7314 53.9325 19.5564C53.8655 19.5084 53.6945 19.8214 53.6255 20.1964C53.7035 20.1374 53.8055 19.7874 53.8225 20.0044Z" fill="white"/>
<path d="M56.9755 10.115C57.2385 10.163 57.1286 10.964 56.8636 11.825L57.3356 11.839C57.5036 11.35 58.3686 10.077 58.6796 8.96602C58.9016 8.59602 58.4396 9.99302 58.8976 8.99602C58.8876 8.85502 58.7666 8.90102 58.8116 8.67002C59.0946 7.72002 59.4455 8.37702 59.5035 5.96002L59.2866 5.16802C58.7866 0.446018 53.8015 -0.813982 51.2155 0.475018C50.6145 0.339018 49.2395 1.16402 48.3345 1.44602L48.3666 1.58102C47.8256 1.67602 47.1695 2.44602 46.6025 2.79602L46.1685 3.25402C46.0685 3.55102 47.6305 2.38202 47.3245 2.96902C46.3395 3.79602 45.4845 4.01402 44.7445 4.89402C43.9535 5.61702 43.9895 5.44202 43.4675 5.83802C43.2725 5.84802 43.5525 5.58102 43.4195 5.50402C41.6235 7.11402 41.9485 7.76202 40.4855 9.28202C40.3685 9.25102 39.0516 10.304 40.0266 9.00902L40.6206 8.55602L40.8815 8.06202C40.4815 8.49002 39.7615 9.29302 39.7545 9.08702C39.5365 10.028 36.8535 11.831 38.3685 11.132C38.9375 10.274 39.1415 10.068 39.6815 9.72202C38.2365 11.472 37.1175 13.173 35.9865 14.661L35.5145 14.948C35.6325 15.131 35.1845 15.966 34.6915 16.724C34.4285 16.997 34.1606 17.423 34.1556 17.25C33.9496 17.288 36.0375 14.564 34.8275 15.59C33.6365 17.327 32.5215 19.3 31.9875 20.619C32.5755 19.844 32.9186 19.208 33.7146 18.566C35.9046 15.905 38.0466 12.763 40.4366 10.527C40.4266 10.322 40.9846 9.63402 40.7146 9.70802C40.8596 9.40002 41.5006 8.86602 41.5306 8.52802C43.3925 6.80902 45.4995 4.67802 47.3575 3.38902C47.0165 4.09602 48.5775 2.83702 49.1705 2.69402C49.6235 2.29802 50.5385 1.91902 51.1985 1.65502C51.2915 1.70402 51.7225 1.63402 51.6405 1.76702C51.1215 1.80402 50.9755 2.00802 50.4995 2.27402C50.7685 2.40702 51.5375 1.79402 52.3195 1.66802L51.8936 1.59702C53.0946 1.22302 54.8626 0.687018 55.9116 1.63402C55.5576 1.59602 55.2495 1.41602 54.8965 1.51302C56.2295 1.95802 58.1125 2.88602 58.0565 4.47702C57.7575 3.38002 56.5946 2.07102 56.3806 2.57102C56.4226 2.70302 57.1446 3.33402 57.4366 3.82302C58.8516 5.96102 57.3835 8.16702 56.9755 10.115Z" fill="white"/>
<path d="M48.5768 4.16972C48.3368 4.24972 48.1078 4.37572 47.7578 4.68372L48.0138 4.64572C48.1728 4.59272 48.2818 4.36472 48.5768 4.16972Z" fill="white"/>
<path d="M44.7649 3.93799C45.2419 3.87899 45.8179 3.11799 46.5759 2.70999C45.8199 3.11699 45.5169 3.29399 44.7649 3.93799Z" fill="white"/>
<path d="M47.4998 20.6966C47.1428 20.8186 46.7118 20.7886 46.4548 20.7426L46.6378 20.6356L47.4998 20.6966Z" fill="white"/>
<path d="M51.1818 20.8109C51.3338 20.5379 51.3548 20.6559 51.3508 20.9669L51.3468 21.2359L51.3438 21.3929V21.4759V21.5189L51.3428 21.5409L51.3438 21.5519V21.5569V21.5599C51.1388 21.8189 53.1318 19.3029 52.2878 20.3679L52.2868 20.3689L51.7698 20.5289C50.8018 20.6819 49.7708 20.5429 48.8058 20.6509L48.2078 20.5429C48.7808 20.4359 49.5738 20.3099 50.3958 20.2129L51.6278 20.0939L52.2168 20.0619L52.2528 20.0609L52.2618 20.0599H52.2658C51.7388 20.7259 53.4468 18.5709 51.0858 21.5519L51.0848 21.5499L51.0858 21.5469L51.0888 21.5199L51.1008 21.4139L51.1258 21.2069L51.1818 20.8109Z" fill="white"/>
<path d="M52.5587 20.1362L52.3767 21.5082C52.1157 21.6552 51.6547 21.5302 51.4207 21.5862C52.7277 21.9412 52.1697 20.2802 52.5617 19.5592C52.6417 19.4902 52.5537 19.9102 52.5587 20.1362Z" fill="white"/>
<path d="M38.1467 21.4452C39.3707 21.3382 41.0527 20.9412 42.4227 21.1852C41.8037 21.3092 41.7967 21.4002 40.8287 21.5532C41.5837 21.8752 42.3217 21.3542 43.1967 21.2782C42.4887 21.4302 43.4377 21.5072 44.0487 21.4772C45.1947 21.2632 47.0307 21.1252 48.6047 20.9882C49.2927 21.0642 51.5007 20.6212 51.2057 21.0342C51.6867 21.0032 51.9547 20.9112 52.1917 20.8082C51.1467 22.3462 51.8157 20.6972 51.6047 20.6072C52.4517 18.0092 52.4317 15.6532 54.0827 13.4952C53.8407 13.5152 54.5137 12.3622 54.7687 11.9112C55.3127 10.9172 56.7827 8.69717 56.7427 9.45217C56.4907 10.2662 55.3597 11.2632 54.9627 12.4502C54.2617 14.4422 56.1447 10.7422 56.4487 10.9772C56.2487 11.1802 56.3847 11.5122 55.8487 12.1902C56.9397 10.7062 55.7347 13.0952 56.3917 12.4222C55.4717 14.3692 55.5827 14.2132 55.4277 15.4112C54.7997 16.4862 54.7217 16.0082 54.4217 16.2402C53.6967 17.3812 53.6307 18.5802 53.2417 19.6452C53.6117 19.3222 53.5237 19.8302 53.4247 20.5312L53.3447 21.0862L53.3207 21.3702L53.3067 21.5132L53.2987 21.5842L53.2947 21.6202V21.6212C51.5997 23.7602 52.8247 22.2142 52.4457 22.6912H52.4437H52.4387L52.4297 22.6932L52.4117 22.6942C52.0147 22.7272 51.6277 22.7542 51.3207 22.7812C49.7427 22.9642 50.7527 22.3062 49.0847 22.5202C48.2727 22.8872 50.8037 22.7352 49.7277 23.1482L48.9497 23.1022C48.4437 22.9192 48.0317 22.6582 47.4327 22.5502C47.0827 22.5812 46.5577 22.6262 46.5507 22.7182C47.2427 22.7502 47.0487 22.9952 46.3367 23.1932C45.9947 23.1322 45.9097 23.1172 45.7417 23.0402C47.1097 22.2592 44.2557 23.1482 43.2377 22.8722C40.3057 22.6262 41.7727 23.7752 38.9077 23.7752C39.7427 23.1312 37.0057 23.6672 36.0607 23.5452C35.2707 23.6362 34.9957 23.8202 34.4557 24.0502C34.2337 24.0102 33.6217 24.0382 33.5217 23.9392C33.9117 23.1482 35.6947 22.2642 38.0247 21.4132C38.0897 21.4212 38.1467 21.4292 38.1467 21.4452Z" fill="white"/>
<path d="M30.5557 23.9047C30.5557 23.9047 56.4797 5.80269 56.3997 31.0567C56.3997 31.0567 55.1597 43.8767 45.6517 41.4757C45.6517 41.4757 36.1727 39.4567 30.5557 23.9047Z" fill="#149ECC"/>
<path d="M46.0922 40.3964C46.5682 40.5224 47.4002 40.5824 47.2722 40.3764L47.3742 40.2804C46.9802 40.2234 45.3052 39.9644 46.0922 40.3964Z" fill="white"/>
<path d="M45.8433 41.1799C46.2943 41.1899 45.9643 41.0859 45.8993 41.0069L45.3093 40.8749C45.1173 40.8979 45.5833 41.1239 45.8433 41.1799Z" fill="white"/>
<path d="M53.808 37.6739C54.081 37.7149 54.018 38.5159 53.628 39.3959L54.111 39.4379C54.413 38.7639 55.195 37.6539 55.632 36.6419C55.88 36.2999 55.315 37.6419 55.845 36.6999C55.843 36.5569 55.729 36.5899 55.779 36.3579C56.19 35.4989 56.372 36.1459 56.89 34.0349L56.886 33.2779C57.641 29.4059 57.401 25.5629 55.867 22.2129C55.852 21.4729 54.799 19.9149 54.122 18.9999L54.029 19.0819C53.705 18.4529 52.757 17.9859 52.133 17.6119L51.515 17.4259C51.25 17.4579 53.062 18.4669 52.429 18.4579C51.264 17.8479 50.526 17.1299 49.411 17.0639C48.363 16.9489 48.501 16.7819 47.854 16.6739C47.693 16.5259 48.073 16.5529 48.015 16.3889C45.617 16.2139 45.546 17.0059 43.562 17.2739C43.477 17.1579 41.843 17.2699 43.297 16.7449L44.031 16.7569L44.501 16.5169C43.943 16.6039 42.929 16.8139 43.024 16.6459C42.378 17.2529 39.212 17.2629 40.861 17.5359C41.749 17.1449 42.023 17.0779 42.661 17.1469C40.577 17.7069 38.864 18.5929 37.253 19.3199L36.709 19.3209C36.742 19.5449 36.007 20.0519 35.272 20.4919C34.932 20.6149 34.521 20.8499 34.583 20.6949C34.38 20.6269 37.325 19.2259 35.831 19.5329C34.07 20.4869 32.316 21.7409 31.363 22.7189C32.175 22.2689 32.73 21.8739 33.69 21.6679C36.665 20.3389 39.857 18.6659 42.941 18.3109C43.025 18.1249 43.818 17.8839 43.555 17.7799C43.826 17.6239 44.623 17.5899 44.817 17.3469C47.211 17.2309 50.156 17.3019 52.13 18.7029C51.45 18.6679 53.188 19.6959 53.464 20.4089C53.985 20.7349 54.555 21.7169 54.885 22.4679C54.872 22.5859 55.054 23.0649 54.921 23.0029C54.721 22.4259 54.579 22.2579 54.23 21.7819C54.175 22.1339 54.849 22.8959 55.181 23.7709L55.134 23.2539C55.677 24.6689 56.526 26.4639 56.375 27.9709L56.007 26.7949C56.077 28.5299 56.672 30.8049 56.07 32.0139C56.295 30.8719 56.172 28.9189 55.927 28.9659C55.757 29.0509 55.806 30.3989 55.898 31.0419C55.848 33.7189 54.505 35.5459 53.808 37.6739Z" fill="white"/>
<path d="M54.7341 34.1521C55.3131 32.0831 55.5171 33.2651 55.8421 31.1501C55.6831 31.3571 55.5351 30.5541 55.4861 29.7291C55.5911 29.0191 55.4201 28.2031 55.3611 27.6011C55.2831 27.1951 55.0811 27.2951 55.1581 28.0891C55.7981 30.1411 55.0981 32.2271 54.7341 34.1521Z" fill="white"/>
<path d="M55.6196 27.3042C55.5586 26.5872 55.1396 24.9902 54.8726 25.0592C54.8266 24.9702 54.7656 25.1742 54.6956 24.7992C54.9776 25.3092 55.3046 27.0862 55.6196 27.3042Z" fill="white"/>
<path d="M55.8909 26.2776C56.0839 26.3766 55.8129 25.6536 55.7749 25.4496L55.6169 25.0456C55.6659 25.4596 55.7339 25.9736 55.8909 26.2776Z" fill="white"/>
<path d="M53.2271 21.0984C52.6091 20.4614 53.6591 21.9974 52.9661 21.2014L53.3321 21.6854L53.6591 21.6814C53.5471 21.4524 53.3701 21.2944 53.2271 21.0984Z" fill="white"/>
<path d="M52.1352 20.3468C51.9982 20.1078 51.7902 19.9608 51.4072 19.7838L51.5562 20.0128C51.6612 20.1458 51.8942 20.0998 52.1352 20.3468Z" fill="white"/>
<path d="M53.3528 20.6308C53.1018 20.2148 53.0558 20.3828 52.8088 20.2478C52.9088 20.3848 53.6218 21.0208 53.3528 20.6308Z" fill="white"/>
<path d="M50.0537 16.4511C50.4487 16.8071 51.3847 16.9791 52.1807 17.5391C51.3887 17.0271 51.0547 16.6961 50.0537 16.4511Z" fill="white"/>
<path d="M40.6789 37.2412C40.3519 37.0672 40.0499 36.7202 39.8879 36.4952L40.0819 36.5512L40.6789 37.2412Z" fill="white"/>
<path d="M45.2047 39.7912C45.4767 40.1992 44.9177 39.8722 44.1947 39.7652C43.2977 39.4242 42.5077 38.6632 41.7017 38.1172L41.2937 37.6182C42.2637 38.2762 44.0277 39.2222 45.2047 39.7912Z" fill="white"/>
<path d="M45.5664 41.4462C44.8174 41.3792 43.9744 40.7782 43.4924 40.5272C44.3274 40.9152 45.4294 41.3372 46.0544 41.3772C46.1234 41.4552 45.7574 41.4472 45.5664 41.4462Z" fill="white"/>
<path d="M34.5043 29.3838C35.1383 30.6078 36.3093 31.9968 36.9703 33.3838C36.5323 32.8788 36.4363 32.9598 35.7993 32.1088C35.9903 33.0378 36.8063 33.4008 37.3773 34.1508C36.8313 33.6188 37.3773 34.5158 37.8053 35.0268C38.6733 35.9098 40.0613 37.2918 41.3813 38.2518C41.8703 38.8468 43.9243 39.7468 43.5153 39.9238C44.3823 40.3778 44.5953 40.1568 45.2593 40.3098C47.2063 41.2718 48.8253 40.1598 50.6603 39.7918C50.4943 39.6858 51.3253 39.1448 51.6293 38.8888C52.3293 38.3718 53.5053 36.3998 53.5223 37.0518C53.3973 37.8838 52.2703 38.6138 51.6843 39.4328C50.5653 40.8818 53.1713 38.4998 53.2853 38.4908C53.0793 38.6558 53.2143 39.0498 52.5513 39.5368C53.9033 38.3928 52.2573 40.3948 53.0343 39.9138C51.5583 41.5538 51.6463 41.3238 50.8123 42.2758C49.5623 42.6628 49.8353 42.1318 49.4663 42.0658C48.2033 42.1458 47.1823 42.4998 46.0873 42.1878C46.8713 42.9938 44.0823 42.3118 42.9303 41.5308C41.3863 40.6948 42.5913 40.7898 41.0283 39.8428C40.1363 39.5728 42.4443 41.2108 41.3013 40.8068L40.6313 40.2158C40.2923 39.6728 40.0563 39.1988 39.6473 38.6228C39.3533 38.3668 38.9133 37.9828 38.8553 38.0458C39.3883 38.6188 39.0983 38.6648 38.4203 38.2168C38.1943 37.8728 38.1403 37.7878 38.0583 37.5878C39.5323 38.2158 36.8663 36.3928 36.3793 35.2138C34.7063 32.2218 34.8063 34.3558 33.1853 31.3378C34.0903 31.9048 32.2503 29.2638 31.9943 28.1138C31.5903 27.2698 31.3013 27.0528 30.9363 26.5078C30.8843 26.2368 30.6383 25.5398 30.6803 25.3908C31.4353 25.5688 32.7493 27.2918 34.4703 29.2438C34.4953 29.3148 34.5163 29.3758 34.5043 29.3838Z" fill="white"/>
<path d="M54.0819 1.22253C55.0889 1.29453 56.0429 1.64053 56.9199 2.31653C56.9199 2.31653 60.0569 4.60553 57.4829 10.1315C57.4829 10.1315 52.4669 17.2945 52.3719 21.5925L50.4399 18.1285C51.7329 14.0495 55.0449 9.32053 55.0449 9.32053C57.6189 3.79553 54.4819 1.50653 54.4819 1.50653C54.3509 1.40453 54.2169 1.30953 54.0819 1.22253Z" fill="white"/>
<path d="M53.1143 14.4713C52.9193 14.7543 52.7063 15.3263 52.8833 15.3323L52.9323 15.4523C53.0533 15.1843 53.6083 14.0913 53.1143 14.4713Z" fill="white"/>
<path d="M52.5739 13.9594C52.4789 14.2664 52.6209 14.0834 52.6939 14.0724L52.8789 13.6934C52.8779 13.5324 52.6689 13.8124 52.5739 13.9594Z" fill="white"/>
<path d="M51.2626 13.1988L51.2916 13.0588L51.1316 13.4898C51.1916 13.5468 51.3686 13.3828 51.4556 13.1338C51.3816 13.1448 51.2646 13.3668 51.2626 13.1988Z" fill="white"/>
<path d="M51.5877 19.3206C51.4417 19.5526 50.9637 19.4236 50.5297 19.1246L50.3037 19.5466C50.6467 19.7606 50.9347 20.5036 51.2217 21.0346C51.2687 21.2896 50.8447 20.6296 51.0637 21.2036C51.1427 21.2236 51.1997 21.1186 51.2907 21.2046C51.3777 21.4696 51.3247 21.5906 51.3277 21.7656C51.3297 21.8536 51.3457 21.9536 51.4007 22.0926L51.4497 22.2036L51.4807 22.2656L51.4887 22.2816L51.4927 22.2896L51.4937 22.2906C55.3557 20.9606 52.5647 21.9216 53.4257 21.6246L53.4267 21.6216L53.4277 21.6186L53.4307 21.5866L53.4457 21.2836L53.2887 20.9296C53.5967 19.1186 54.7117 17.4136 55.3757 15.6806C55.6907 15.5106 56.0817 14.6396 56.4657 14.2286L56.3787 14.1396C56.7047 13.9906 56.7827 13.3456 57.0177 13.0176L57.1187 12.6286C57.0387 12.3746 56.5037 13.4586 56.4447 12.9816C56.7227 12.1926 57.3487 12.0426 57.5537 11.3386C57.9017 10.6776 57.8697 11.1156 58.2707 10.4596C58.4147 10.4126 58.3167 10.6646 58.4507 10.6966C59.0917 9.09065 58.6917 8.83865 58.9597 7.35865C59.0627 7.34465 59.5097 6.11165 59.4557 7.31165L59.2407 7.84665L59.2977 8.26665C59.3837 7.83065 59.5077 7.02065 59.6237 7.13365C59.3947 6.57665 59.9057 3.81465 59.3997 5.23865C59.5347 6.00665 59.5367 6.27565 59.3407 6.74565C59.4027 4.99565 58.8017 3.49565 58.0187 2.46065L57.9187 1.98465C57.7767 2.13165 57.2337 1.71165 56.7287 1.56965C56.5457 1.40965 56.2737 1.27765 56.3757 1.21065C56.2977 0.902649 58.2307 2.35565 57.4707 1.30465C56.3047 0.565649 54.8947 0.39965 54.1107 0.64765C54.6587 0.81565 55.0857 0.84865 55.5837 1.26965C57.4397 2.01965 58.9457 4.49665 58.3247 6.68965C58.4437 6.77965 58.3947 7.35965 58.5577 7.21665C58.6137 7.44365 58.4167 7.97765 58.5697 8.19665C57.9797 9.84965 56.9587 11.4846 56.2337 12.6726C56.1647 12.0926 55.6067 13.2646 55.2967 13.5276C55.2307 13.9566 54.8617 14.4856 54.6347 14.9126C54.5617 14.9226 54.4017 15.1746 54.3547 15.0526C54.5587 14.7606 54.5567 14.5986 54.7007 14.2496C54.4227 14.2246 54.3297 14.9536 54.1027 15.4596L54.3477 15.2846C53.9337 16.1116 53.8727 17.3366 53.3597 17.9756L53.4097 17.1986C52.8897 18.1026 52.8107 19.4616 52.3757 20.1386C52.4217 19.3896 52.9787 18.3626 52.6787 18.2386C52.4997 18.1896 52.2407 19.0006 52.2137 19.4226C52.1647 19.8656 52.1287 20.2936 52.0327 20.6806L51.9427 21.2846C52.3177 21.2446 51.0297 21.7946 52.7697 21.2696L52.6687 21.0256C52.3977 20.3776 52.1247 19.7676 51.5877 19.3206Z" fill="white"/>
<path d="M53.1191 20.8526L53.1481 20.9066L53.1611 20.9326L53.1681 20.9446L53.1711 20.9516L53.1731 20.9546C49.6491 22.1676 52.1961 21.2906 51.4091 21.5606L51.4101 21.5596V21.5576L51.4261 21.4226L51.4611 21.1926L51.5441 20.8636C51.6061 20.6936 51.6651 20.6006 51.7401 20.5256C51.8871 20.3706 52.0021 20.2186 52.1431 19.5296C51.9311 19.6446 51.9701 18.9206 52.0991 18.4626C52.3411 18.0866 52.4441 17.5436 52.6011 17.1966C52.6681 16.9346 52.4661 16.8556 52.2641 17.3376C52.1911 18.0306 51.9101 18.6996 51.6681 19.4226L51.3851 20.5516L51.3541 21.1476L51.3651 21.4336L51.3701 21.5026L51.3741 21.5366L51.3761 21.5536V21.5586L51.3771 21.5606C55.0211 20.3066 52.3871 21.2126 53.2001 20.9326L53.1991 20.9316L53.1951 20.9276L53.1191 20.8526Z" fill="white"/>
<path d="M51.7644 20.4862C52.0644 21.0802 52.2764 20.5942 52.5074 21.2312C52.5504 20.8502 52.3354 20.9132 52.0484 20.3822L52.1184 20.7642L51.7644 20.4862Z" fill="white"/>
<path d="M52.9182 17.202C53.0942 16.798 53.4342 15.829 53.2452 15.662C53.2572 15.593 53.1072 15.623 53.2512 15.425C53.1442 15.816 52.6972 16.883 52.9182 17.202Z" fill="white"/>
<path d="M53.1209 19.4292C53.2179 19.2172 53.2929 18.9912 53.4209 18.6562C53.3059 18.8572 53.1119 19.0892 53.1209 19.4292Z" fill="white"/>
<path d="M53.5154 16.9027C53.6324 17.0727 53.7024 16.5967 53.7544 16.4857L53.7964 16.2107C53.6614 16.4067 53.5144 16.6727 53.5154 16.9027Z" fill="white"/>
<path d="M54.7381 13.2939C54.9851 12.7039 54.2401 13.7169 54.5791 13.0479L54.3491 13.4069L54.4941 13.7179L54.7381 13.2939Z" fill="white"/>
<path d="M55.0168 12.3108C55.1548 12.1978 55.2628 12.0558 55.3818 11.7538L55.2148 11.8318C55.1208 11.9038 55.1418 12.1008 55.0168 12.3108Z" fill="white"/>
<path d="M55.1066 13.4169C55.3006 13.1989 55.1706 13.1479 55.2196 12.9479C55.0966 12.9899 54.9416 13.6639 55.1066 13.4169Z" fill="white"/>
<path d="M53.7056 14.0255C53.3686 14.0885 53.6896 13.7745 53.7786 13.2215C54.0546 12.6165 54.5776 12.1805 54.9036 11.6255L55.2226 11.3965C54.8726 12.0975 54.2516 13.3075 53.7056 14.0255Z" fill="white"/>
<path d="M52.4208 13.6521C52.5668 13.1441 53.0358 12.7071 53.2138 12.3961C52.9458 12.9471 52.5568 13.6251 52.3848 14.0191C52.3108 14.0291 52.3948 13.7871 52.4208 13.6521Z" fill="white"/>
<path d="M57.0714 3.35724C57.4254 4.45224 57.5314 6.14924 56.9744 7.17124C57.0094 6.63224 56.9554 6.60824 57.0124 5.79424C56.6134 6.35124 56.8634 7.02124 56.7234 7.76124C56.7734 7.16024 56.4974 7.87624 56.2814 8.27424C56.1304 9.21624 55.3144 10.6572 54.7714 11.3102C54.4264 11.6042 53.8174 13.0232 53.6654 12.6182C53.3234 13.1662 53.4834 13.4102 53.3074 13.8722C52.3044 14.9072 52.7164 16.5492 51.7884 17.6792C51.9944 17.6892 51.7164 18.3612 51.6314 18.6342L51.6214 18.6622C51.5634 18.0512 51.7514 20.0292 51.4914 17.2932V17.2952L51.4934 17.2962L51.4944 17.3002L51.4994 17.3072L51.5074 17.3212L51.5424 17.3812L51.6174 17.5132L51.7824 17.8082L52.0974 18.4382C52.2764 18.8422 52.3544 19.1652 52.1214 19.1322C51.8134 19.3032 51.3254 16.9302 51.2994 18.3002C51.3204 17.6722 51.1834 17.9342 50.9974 18.3512C51.0334 17.5102 51.4344 18.9772 51.2674 18.8102C51.2314 18.6202 50.9484 18.7242 50.7754 18.1942C51.2014 19.2772 50.2514 18.0232 50.3684 18.6582C49.9564 16.7222 50.4144 17.2632 50.1304 16.2632C50.5074 15.5332 50.6784 15.9102 50.9074 15.7812C51.3854 15.0942 51.3584 14.2792 51.7734 13.6832C51.0814 13.8532 52.0174 12.3432 52.4624 11.6132C53.0124 10.6482 53.0134 11.5982 53.5814 10.5792C53.6924 9.91324 52.7094 11.3582 52.9004 10.5242L53.2654 10.1372C53.6064 9.98924 53.9474 9.94024 54.2784 9.70424C54.4144 9.50624 54.6174 9.20924 54.5644 9.14424C54.2404 9.47424 54.1634 9.22024 54.3704 8.71324C54.3574 8.87124 54.5064 8.60324 54.5764 8.61824C54.7284 9.79024 54.9514 7.72224 55.4624 7.22624C56.2194 5.36024 55.1244 6.07724 55.2444 4.41324C55.8354 4.82724 55.2494 3.18424 55.0154 2.61724C54.7324 2.21824 54.5014 2.18824 54.2214 2.14724C54.1734 2.02624 53.8794 1.79524 53.8834 1.66624C54.3064 1.11024 55.9424 1.17024 57.0784 3.23424L57.0714 3.35724Z" fill="white"/>
<path d="M48.8726 17.7843C53.1256 18.5333 56.4286 22.0173 56.3996 31.0573C56.3996 31.0573 55.1596 43.8763 45.6516 41.4753C45.6516 41.4753 45.1196 41.3623 44.2316 40.9823L43.8286 40.8023C52.7756 42.5073 53.9626 30.2463 53.9626 30.2463C53.9836 23.0313 51.8846 19.3563 48.8726 17.7843Z" fill="white"/>
<path d="M50.9392 35.9785L50.9872 35.8135L50.7622 36.3325C50.8162 36.3995 51.0272 36.1865 51.1552 35.8815C51.0732 35.9045 50.9192 36.1765 50.9392 35.9785Z" fill="white"/>
<path d="M45.2131 41.4248C45.0991 41.1628 45.6431 40.7738 46.2391 40.4268L45.9791 39.9898C45.7611 40.1148 45.4191 40.2078 45.0381 40.1318L44.4581 40.0508L44.1691 40.0088L44.0301 39.9898L43.9611 39.9808L43.9441 39.9788L43.9391 39.9798C44.2561 38.5468 43.5071 41.9298 43.5841 41.5818L43.5861 41.5828L43.5881 41.5838L43.5961 41.5878L43.6301 41.6028C43.6931 41.6568 43.6791 41.6728 43.6351 41.6748L43.5961 41.6728L43.5741 41.6708L43.5621 41.6698H43.5581H43.5571C43.2041 43.2628 44.0371 39.4998 43.9511 39.8868L43.9581 39.8848L44.0501 39.8658C44.1081 39.8518 44.1521 39.8368 44.1401 39.8148L44.0731 39.7758L43.9961 39.7518L43.9731 39.7438H43.9711H43.9701C44.3781 37.9018 43.4141 42.2528 43.5141 41.8048H43.5151L43.5181 41.8078L43.5241 41.8118L43.5381 41.8198L43.5971 41.8568C43.6971 41.8298 43.6721 41.6958 43.8361 41.7228C44.4971 42.0928 43.9911 42.3898 45.6231 42.7258L46.1861 42.5968C48.8041 43.2768 52.2531 42.5948 54.0411 39.9188C54.5301 39.6688 55.3781 38.3118 55.8561 37.4968L55.7661 37.4088C56.1881 37.0278 56.3151 36.0238 56.5551 35.3998L56.6321 34.7728C56.5461 34.4868 56.0071 36.3648 55.9151 35.7188C56.1931 34.4768 56.8181 33.7888 56.8441 32.6448C56.9861 31.5288 57.1071 31.8558 57.2281 30.9378C57.3421 30.6548 57.3451 31.3018 57.4701 31.2318C57.4061 28.5148 56.9661 28.6608 56.6491 26.5328C56.7341 26.4468 56.6941 24.6898 57.0871 26.2298L57.0891 27.0058L57.2981 27.4968C57.2111 26.9108 57.0271 25.8408 57.1761 25.9308C56.7881 25.2898 56.4411 21.7898 56.3611 23.6548C56.7541 24.5768 56.8641 24.8758 56.7711 25.5658C56.2761 23.3688 55.3801 21.5498 54.2531 20.1938L54.0601 19.6198C53.9241 19.7168 53.2751 19.1988 52.5931 18.8038C52.3471 18.5488 51.9901 18.2868 52.1171 18.2578C52.0541 17.9978 54.4701 20.0828 53.5401 18.8068C52.0181 17.4028 50.0301 17.1588 48.9431 17.2138C49.7031 17.5208 50.3281 17.4648 51.0041 18.1868C53.6341 19.5138 55.6031 22.7178 55.8021 25.9318C55.9491 26.0078 56.1321 26.8268 56.2251 26.5468C56.3631 26.8218 56.3931 27.6488 56.6161 27.8418C56.7411 30.3458 56.5331 33.3618 55.6731 35.4198C55.5831 34.6948 55.0121 36.5598 54.6051 36.9948C54.4751 37.5788 53.9411 38.3808 53.5031 38.9008C53.4141 38.9158 53.1461 39.2368 53.1411 39.0738C53.4691 38.7068 53.5241 38.4998 53.8001 38.0658C53.4651 38.0218 53.2091 38.9978 52.6581 39.5018L53.0221 39.3468C52.2561 40.3358 51.1051 41.5308 49.9921 41.6058C50.2741 41.4738 50.5111 41.1878 50.7581 40.9938C49.5791 41.5058 47.9631 41.9608 47.0321 41.4808C47.8741 41.4978 49.3041 41.5648 49.2181 41.1298C49.1471 40.9958 48.2221 41.0748 47.7671 41.1448C46.8051 41.2958 45.8581 41.0348 45.1171 40.6848L44.5361 40.4008L44.2491 40.2608L44.0981 40.1898L44.0601 40.1718L44.0421 40.1638L44.0321 40.1598C43.9011 40.7478 44.3231 38.8408 43.7381 41.4798H43.7401H43.7421L43.7471 41.4808L43.8331 41.4878C44.2861 41.5288 44.7501 41.5218 45.2131 41.4248Z" fill="white"/>
<path d="M45.4106 40.2186C46.9056 40.5716 46.0956 40.9696 47.6286 41.1016C47.4486 40.9006 48.1796 40.7046 48.6646 40.6816C49.1366 40.7096 49.6916 40.5196 50.0776 40.3786C50.3206 40.2006 50.2236 40.0316 49.7186 40.1896C48.4966 41.1026 46.6956 40.1616 45.4106 40.2186Z" fill="white"/>
<path d="M43.8973 40.818C44.4223 41.093 44.4403 40.589 45.1263 40.973C44.8583 40.615 44.6983 40.821 43.9813 40.497L44.3543 40.813C44.2213 40.828 43.8303 40.725 43.8973 40.818Z" fill="white"/>
<path d="M55.0755 30.6091C55.0635 29.8371 55.0545 29.6321 55.1215 29.2671L55.2025 29.4761C55.1565 29.8761 55.1795 29.9251 55.0755 30.6091Z" fill="white"/>
<path d="M53.1139 20.1024C53.8739 21.3004 54.6299 23.1844 54.6319 24.7754C54.4179 24.1004 54.3579 24.1044 54.0399 23.0644C53.9159 23.9764 54.5099 24.6734 54.6429 25.6564C54.4759 24.8834 54.4669 25.9514 54.5229 26.6174C54.7189 27.7814 54.9849 29.9864 54.5519 31.7434C54.3399 32.4534 53.8179 34.8564 53.6029 34.3734C53.2339 35.3294 53.4019 35.5844 53.1369 36.3354C51.9079 38.0734 51.4469 40.6034 49.0179 41.3804C49.2369 41.5484 48.1359 42.0514 47.6819 42.1364C46.7079 42.5664 44.4049 42.4594 44.9389 42.0334C45.5479 41.8154 46.9029 42.2234 47.8239 41.5804C49.3429 40.6704 46.0809 41.9304 46.0229 41.3554C46.2609 41.3874 46.3639 41.0944 47.0639 41.0734C45.5939 41.1534 47.5939 40.5514 46.8279 40.4634C48.3209 39.8134 48.1469 39.7354 48.6569 38.9654C49.4259 38.4884 49.3769 38.9044 49.6899 38.8884C50.6039 38.3084 50.8759 37.2864 51.4209 36.5094C50.6629 36.8024 51.9169 34.8934 52.2419 33.7184C52.6599 32.2374 52.8419 33.4124 53.1929 31.7594C53.1449 30.8904 52.5039 33.2944 52.5039 32.1534L52.7659 31.4544C53.0509 31.0664 53.3729 30.6534 53.5639 30.2054C53.5539 29.8434 53.5399 29.2994 53.4629 29.2894C53.4059 30.0004 53.2089 29.7804 53.0759 29.0554C53.1429 28.7094 53.1599 28.6224 53.2319 28.4524C53.8459 29.8574 53.2109 26.9314 53.3229 25.8794C53.1239 22.8454 52.5049 24.5084 51.7189 21.9414C52.5299 22.3724 51.1179 20.1844 50.5739 19.4904C50.0269 19.0264 49.7859 18.9254 49.2989 18.8534C49.1679 18.7014 48.7379 18.3884 48.7049 18.2444C49.2099 17.7864 51.2199 17.8314 53.0789 19.9554C53.1039 20.0304 53.1259 20.0944 53.1139 20.1024Z" fill="white"/>
<path d="M2.16637 6.76453C2.14037 4.95853 1.53337 5.73253 2.16037 3.99953C2.20237 4.28853 2.68737 3.60153 3.06237 3.30753C3.33637 2.94053 4.04737 2.76253 4.41637 2.52953C4.70737 2.41653 4.71037 2.69053 4.19837 2.97253C2.48037 3.00553 2.18937 5.29053 2.16637 6.76453Z" fill="white"/>
<path d="M1.66921 8.8175C1.23921 7.7765 1.83421 8.0195 1.51221 7.0105C1.83821 7.3975 1.53121 7.6085 1.87921 8.5445L1.58221 8.0485L1.66921 8.8175Z" fill="white"/>
<path d="M4.50879 2.10804C5.04479 1.93404 6.36979 2.01204 6.37279 2.25104C6.45179 2.27804 6.30779 2.39404 6.61379 2.41504C6.14979 2.26004 4.78479 2.37604 4.50879 2.10804Z" fill="white"/>
<path d="M1.77393 2.78137C1.96893 2.43937 2.27393 1.97937 2.79093 1.74737C2.46393 1.92237 2.13293 2.40337 1.77393 2.78137Z" fill="white"/>
<path d="M5.1717 1.49251C5.0317 1.30151 5.6817 1.39551 5.8497 1.37851L6.2077 1.43251C5.8697 1.51251 5.4567 1.57851 5.1717 1.49251Z" fill="white"/>
<path d="M9.99807 3.20996C10.7551 3.65496 9.09507 3.06396 10.0131 3.53296L9.47107 3.30796L9.37207 2.92196L9.99807 3.20996Z" fill="white"/>
<path d="M10.3275 2.8987C10.7475 3.0147 10.6165 3.1717 10.8305 3.3717C10.6725 3.3237 9.92751 2.7287 10.3275 2.8987Z" fill="white"/>
<path d="M13.7812 42.9291L13.9902 42.9371C13.7802 42.9301 13.4822 42.9591 13.2882 42.9921C13.2622 42.9051 13.6212 42.7501 14.0192 42.7251C13.9472 42.8071 13.5582 42.8761 13.7812 42.9291Z" fill="white"/>
<path d="M4.69505 36.3995C4.22805 35.3685 4.75905 35.5675 4.30005 34.5785C4.63405 34.9315 4.49605 35.1555 4.87905 36.0955L4.55205 35.6145L4.69505 36.3995Z" fill="white"/>
<path d="M2.89016 30.4801C2.86116 30.0551 2.87116 29.6201 2.88616 28.9701C2.91416 29.3991 2.99816 29.9201 2.89016 30.4801Z" fill="white"/>
<path d="M1.7395 12.072C2.0515 12.137 2.2405 12.682 2.5585 13.079C2.2395 12.681 2.0285 12.583 1.7395 12.072Z" fill="white"/>
<path d="M4.21114 10.9469C4.13714 10.6949 3.93314 10.5039 3.79614 10.4139L3.80714 10.5729L4.21114 10.9469Z" fill="white"/>
<path d="M6.85111 37.2754C7.13311 37.7624 7.65311 38.5964 7.44311 38.5844L7.44011 38.7534C7.10811 38.3674 6.14611 36.5424 6.85111 37.2754Z" fill="white"/>
<path d="M7.36045 36.7122C7.54145 37.1522 7.33545 36.8712 7.24645 36.8352L6.95845 36.2552C6.93745 36.0352 7.20245 36.5012 7.36045 36.7122Z" fill="white"/>
<path d="M9.3078 40.6304C8.8048 40.5074 7.8558 39.6944 7.9748 39.4344C7.9248 39.3744 8.0918 39.3324 7.8418 39.2124C8.1328 39.5894 9.2008 40.2664 9.3078 40.6304Z" fill="white"/>
<path d="M11.4582 42.1639C11.1422 42.1889 10.8152 42.2479 10.3372 42.1089C10.6582 42.1619 11.0452 42.0519 11.4582 42.1639Z" fill="white"/>
<path d="M8.52299 40.8097C8.53799 41.0637 8.09099 40.6337 7.97299 40.5177L7.73999 40.2467C8.02299 40.3737 8.32599 40.6297 8.52299 40.8097Z" fill="white"/>
<path d="M5.62551 36.8509C5.29351 36.0749 6.22351 37.4639 5.77551 36.5869L6.07251 37.0529L5.96051 37.4139L5.62551 36.8509Z" fill="white"/>
<path d="M5.28699 35.5459C5.14899 35.3499 5.04099 35.1239 4.93799 34.6959L5.11099 34.8709C5.20299 34.9999 5.16599 35.2319 5.28699 35.5459Z" fill="white"/>
<path d="M5.22795 36.9101C4.99695 36.5611 5.13895 36.5371 5.07495 36.2621C5.20695 36.3591 5.42895 37.2821 5.22795 36.9101Z" fill="white"/>
<path d="M2.27026 33.3433C2.57326 33.7183 2.67926 34.6423 3.01026 35.4473C2.69026 34.6463 2.46826 34.3303 2.27026 33.3433Z" fill="white"/>
<path d="M6.05706 36.3741C6.47006 36.6291 6.01006 36.0131 5.90406 35.1561C5.56106 34.1401 5.08706 33.1271 4.87206 32.0591L4.61206 31.4411C4.72306 32.7601 5.27706 35.0271 6.05706 36.3741Z" fill="white"/>
<path d="M7.47416 36.3444C7.23316 35.6384 6.71516 34.8544 6.53516 34.3334C6.79916 35.2154 7.27816 36.2944 7.59216 36.8374C7.67816 36.8674 7.53116 36.5274 7.47416 36.3444Z" fill="white"/>
<path d="M29.0318 23.7203C29.0318 23.7203 11.7898 -4.67666 2.71182 2.31534C2.71182 2.31534 -0.425182 4.60534 2.14882 10.1313C2.14882 10.1313 7.16582 17.2943 7.26082 21.5923L29.0318 23.7203Z" fill="#149ECC"/>
<path d="M7.89394 19.4075C7.69294 18.7625 7.38594 17.6885 7.58394 17.7905L7.62694 17.6195C7.85094 18.1095 8.43294 20.5115 7.89394 19.4075Z" fill="white"/>
<path d="M7.278 19.7889C7.184 19.2459 7.334 19.6319 7.415 19.7059L7.553 20.4689C7.524 20.7149 7.36 20.0929 7.278 19.7889Z" fill="white"/>
<path d="M5.80995 20.0044L5.82595 20.1984C5.80895 20.0054 5.74995 19.7314 5.69995 19.5564C5.76795 19.5084 5.93795 19.8214 6.00695 20.1964C5.92895 20.1374 5.82695 19.7874 5.80995 20.0044Z" fill="white"/>
<path d="M2.65715 10.115C2.39415 10.163 2.50415 10.964 2.76915 11.825L2.29715 11.839C2.12915 11.35 1.26415 10.077 0.953151 8.96602C0.731151 8.59602 1.19315 9.99302 0.73515 8.99602C0.74515 8.85502 0.866151 8.90002 0.821151 8.67002C0.538151 7.72002 0.18715 8.37702 0.12915 5.96002L0.34615 5.16802C0.84615 0.446018 5.83115 -0.813982 8.41715 0.475018C9.01815 0.339018 10.3932 1.16402 11.2982 1.44602L11.2662 1.58102C11.8072 1.67602 12.4632 2.44602 13.0302 2.79602L13.4642 3.25402C13.5642 3.55102 12.0022 2.38202 12.3082 2.96902C13.2932 3.79602 14.1481 4.01402 14.8871 4.89402C15.6791 5.61702 15.6432 5.44102 16.1652 5.83802C16.3592 5.84802 16.0802 5.58102 16.2132 5.50402C18.0092 7.11402 17.6841 7.76202 19.1472 9.28202C19.2642 9.25102 20.5811 10.304 19.6061 9.00802L19.0121 8.55602L18.7512 8.06202C19.1512 8.49002 19.8712 9.29302 19.8782 9.08702C20.0962 10.027 22.7792 11.831 21.2642 11.132C20.6952 10.274 20.4912 10.067 19.9512 9.72202C21.3972 11.472 22.5152 13.173 23.6462 14.661L24.1182 14.948C24.0002 15.131 24.4482 15.966 24.9412 16.724C25.2042 16.997 25.4721 17.423 25.4771 17.25C25.6831 17.288 23.5952 14.564 24.8052 15.589C25.9962 17.327 27.1112 19.3 27.6452 20.619C27.0572 19.844 26.7141 19.208 25.9181 18.566C23.7281 15.905 21.5861 12.763 19.1961 10.527C19.2061 10.322 18.6481 9.63402 18.9181 9.70802C18.7731 9.40002 18.1321 8.86602 18.1021 8.52802C16.2401 6.80902 14.1332 4.67802 12.2752 3.38902C12.6162 4.09602 11.0552 2.83702 10.4622 2.69402C10.0092 2.29802 9.09415 1.91902 8.43415 1.65502C8.34115 1.70302 7.91015 1.63402 7.99215 1.76702C8.51115 1.80302 8.65715 2.00802 9.13315 2.27402C8.86415 2.40702 8.09515 1.79402 7.31315 1.66802L7.73915 1.59702C6.53815 1.22202 4.77015 0.687018 3.72115 1.63402C4.07515 1.59602 4.38315 1.41602 4.73615 1.51202C3.40315 1.95802 1.52015 2.88602 1.57615 4.47702C1.87515 3.38002 3.03815 2.07102 3.25215 2.57102C3.21015 2.70302 2.48815 3.33402 2.19615 3.82302C0.781151 5.96102 2.24915 8.16702 2.65715 10.115Z" fill="white"/>
<path d="M11.0559 4.16972C11.2959 4.24972 11.5249 4.37572 11.8749 4.68372L11.6189 4.64572C11.4599 4.59272 11.3509 4.36472 11.0559 4.16972Z" fill="white"/>
<path d="M14.8676 3.93787C14.3906 3.87887 13.8146 3.11787 13.0566 2.70987C13.8126 3.11687 14.1156 3.29387 14.8676 3.93787Z" fill="white"/>
<path d="M12.1328 20.6966C12.4898 20.8186 12.9208 20.7876 13.1778 20.7426L12.9948 20.6356L12.1328 20.6966Z" fill="white"/>
<path d="M8.45094 20.8109C8.29894 20.5379 8.27794 20.6559 8.28194 20.9669L8.28594 21.2359L8.28794 21.3929L8.28894 21.4759V21.5189L8.28994 21.5409L8.28894 21.5519V21.5569V21.5599C8.49394 21.8189 6.50094 19.3029 7.34494 20.3679L7.34594 20.3689H7.34694L7.86294 20.5289C8.83094 20.6819 9.86194 20.5429 10.8269 20.6509L11.4249 20.5429C10.8519 20.4359 10.0599 20.3099 9.23694 20.2129L8.00494 20.0939L7.41594 20.0619L7.37994 20.0609L7.37094 20.0599H7.36694C7.89394 20.7259 6.18594 18.5709 8.54694 21.5519L8.54794 21.5499L8.54694 21.5469L8.54394 21.5199L8.53194 21.4139L8.50694 21.2069L8.45094 20.8109Z" fill="white"/>
<path d="M7.0741 20.1362L7.2561 21.5082C7.5171 21.6552 7.9781 21.5302 8.2121 21.5862C6.9051 21.9412 7.4631 20.2802 7.0711 19.5592C6.9911 19.4902 7.0791 19.9102 7.0741 20.1362Z" fill="white"/>
<path d="M21.4857 21.4452C20.2617 21.3382 18.5797 20.9412 17.2097 21.1852C17.8287 21.3092 17.8357 21.4002 18.8037 21.5532C18.0487 21.8752 17.3107 21.3542 16.4357 21.2782C17.1437 21.4302 16.1947 21.5072 15.5837 21.4772C14.4377 21.2632 12.6017 21.1252 11.0277 20.9882C10.3397 21.0642 8.13172 20.6212 8.42672 21.0342C7.94572 21.0032 7.67772 20.9112 7.44072 20.8082C8.48572 22.3462 7.81672 20.6972 8.02772 20.6072C7.18072 18.0092 7.20072 15.6532 5.54972 13.4942C5.79172 13.5152 5.11872 12.3622 4.86372 11.9112C4.31972 10.9172 2.84972 8.69717 2.88972 9.45217C3.14172 10.2662 4.27272 11.2632 4.66972 12.4502C5.37072 14.4422 3.48772 10.7422 3.18372 10.9772C3.38372 11.1802 3.24772 11.5122 3.78372 12.1902C2.69272 10.7062 3.89772 13.0952 3.24072 12.4222C4.16072 14.3692 4.04972 14.2132 4.20472 15.4112C4.83272 16.4862 4.91072 16.0082 5.21072 16.2402C5.93572 17.3812 6.00172 18.5802 6.39072 19.6452C6.02072 19.3222 6.10872 19.8302 6.20772 20.5312L6.28772 21.0862L6.31172 21.3702L6.32572 21.5132L6.33372 21.5842L6.33772 21.6202V21.6212C8.03272 23.7602 6.80772 22.2142 7.18672 22.6912H7.18872H7.19372L7.20272 22.6932L7.22072 22.6942C7.61772 22.7272 8.00472 22.7542 8.31172 22.7812C9.88972 22.9642 8.87972 22.3062 10.5477 22.5202C11.3597 22.8872 8.82872 22.7352 9.90472 23.1482L10.6827 23.1022C11.1887 22.9192 11.6007 22.6582 12.2007 22.5502C12.5497 22.5812 13.0747 22.6262 13.0817 22.7182C12.3897 22.7502 12.5837 22.9952 13.2957 23.1932C13.6377 23.1322 13.7227 23.1172 13.8897 23.0402C12.5227 22.2592 15.3767 23.1482 16.3947 22.8722C19.3267 22.6262 17.8597 23.7762 20.7247 23.7752C19.8897 23.1312 22.6267 23.6672 23.5717 23.5452C24.3617 23.6362 24.6367 23.8202 25.1767 24.0502C25.3987 24.0102 26.0107 24.0382 26.1107 23.9392C25.7207 23.1482 23.9377 22.2642 21.6077 21.4132C21.5427 21.4212 21.4857 21.4292 21.4857 21.4452Z" fill="white"/>
<path d="M29.0771 23.9047C29.0771 23.9047 3.15309 5.80269 3.23309 31.0567C3.23309 31.0567 4.47309 43.8767 13.9811 41.4757C13.9811 41.4757 23.4601 39.4567 29.0771 23.9047Z" fill="#149ECC"/>
<path d="M13.5403 40.3964C13.0643 40.5224 12.2323 40.5824 12.3603 40.3764L12.2583 40.2804C12.6523 40.2234 14.3273 39.9644 13.5403 40.3964Z" fill="white"/>
<path d="M13.7893 41.1797C13.3383 41.1897 13.6683 41.0857 13.7333 41.0067L14.3233 40.8747C14.5153 40.8977 14.0493 41.1237 13.7893 41.1797Z" fill="white"/>
<path d="M5.82463 37.6739C5.55163 37.7149 5.61463 38.5159 6.00463 39.3959L5.52163 39.4379C5.21963 38.7639 4.43763 37.6539 4.00063 36.6419C3.75263 36.2999 4.31763 37.6419 3.78763 36.6999C3.78963 36.5569 3.90363 36.5899 3.85363 36.3579C3.44263 35.4989 3.26063 36.1459 2.74263 34.0349L2.74663 33.2779C1.99163 29.4059 2.23163 25.5629 3.76563 22.2129C3.78063 21.4729 4.83363 19.9149 5.51063 18.9999L5.60363 19.0819C5.92763 18.4529 6.87563 17.9859 7.49963 17.6119L8.11763 17.4259C8.38263 17.4579 6.57063 18.4669 7.20363 18.4579C8.36863 17.8479 9.10662 17.1299 10.2216 17.0639C11.2696 16.9489 11.1316 16.7819 11.7786 16.6739C11.9396 16.5259 11.5596 16.5529 11.6176 16.3889C14.0156 16.2139 14.0866 17.0059 16.0706 17.2739C16.1556 17.1579 17.7896 17.2699 16.3356 16.7449L15.6016 16.7569L15.1316 16.5169C15.6896 16.6039 16.7036 16.8139 16.6086 16.6459C17.2546 17.2529 20.4206 17.2629 18.7716 17.5359C17.8836 17.1439 17.6096 17.0779 16.9716 17.1469C19.0556 17.7069 20.7686 18.5929 22.3796 19.3199L22.9236 19.3209C22.8916 19.5449 23.6256 20.0519 24.3606 20.4919C24.7006 20.6149 25.1116 20.8499 25.0496 20.6949C25.2526 20.6269 22.3076 19.2259 23.8016 19.5329C25.5626 20.4869 27.3166 21.7409 28.2696 22.7189C27.4576 22.2689 26.9026 21.8739 25.9426 21.6679C22.9676 20.3389 19.7756 18.6659 16.6916 18.3109C16.6076 18.1249 15.8146 17.8849 16.0776 17.7799C15.8066 17.6239 15.0096 17.5899 14.8156 17.3469C12.4216 17.2309 9.47662 17.3019 7.50262 18.7029C8.18262 18.6679 6.44463 19.6959 6.16863 20.4089C5.64763 20.7349 5.07763 21.7169 4.74663 22.4679C4.76063 22.5859 4.57863 23.0649 4.71163 23.0029C4.91163 22.4259 5.05363 22.2579 5.40263 21.7819C5.45763 22.1339 4.78363 22.8959 4.45163 23.7709L4.49863 23.2539C3.95563 24.6689 3.10663 26.4639 3.25763 27.9709L3.62563 26.7949C3.55563 28.5299 2.96063 30.8049 3.56263 32.0139C3.33763 30.8719 3.46063 28.9189 3.70563 28.9659C3.87563 29.0509 3.82663 30.3989 3.73463 31.0419C3.78463 33.7189 5.12763 35.5459 5.82463 37.6739Z" fill="white"/>
<path d="M4.89853 34.152C4.31953 32.083 4.11553 33.265 3.79053 31.15C3.94953 31.357 4.09753 30.554 4.14653 29.729C4.04153 29.019 4.21253 28.203 4.27153 27.601C4.34953 27.195 4.55153 27.295 4.47453 28.089C3.83453 30.141 4.53453 32.227 4.89853 34.152Z" fill="white"/>
<path d="M4.01294 27.3042C4.07394 26.5872 4.49294 24.9902 4.75994 25.0592C4.80594 24.9702 4.86694 25.1752 4.93694 24.7992C4.65494 25.3092 4.32794 27.0852 4.01294 27.3042Z" fill="white"/>
<path d="M3.74148 26.2776C3.54748 26.3766 3.81948 25.6536 3.85748 25.4496L4.01548 25.0456C3.96648 25.4596 3.89848 25.9736 3.74148 26.2776Z" fill="white"/>
<path d="M6.40563 21.0984C7.02363 20.4614 5.97363 21.9974 6.66663 21.2014L6.30063 21.6854L5.97363 21.6814C6.08563 21.4524 6.26263 21.2944 6.40563 21.0984Z" fill="white"/>
<path d="M7.49731 20.3468C7.63431 20.1078 7.84231 19.9608 8.22531 19.7838L8.07731 20.0128C7.97131 20.1458 7.73831 20.0998 7.49731 20.3468Z" fill="white"/>
<path d="M6.27974 20.6308C6.53074 20.2148 6.57574 20.3828 6.82374 20.2478C6.72374 20.3848 6.01074 21.0208 6.27974 20.6308Z" fill="white"/>
<path d="M9.5789 16.4511C9.1839 16.8071 8.2479 16.9791 7.4519 17.5391C8.2439 17.0271 8.5779 16.6961 9.5789 16.4511Z" fill="white"/>
<path d="M18.9539 37.2412C19.2809 37.0672 19.5829 36.7202 19.7449 36.4952L19.5509 36.5512L18.9539 37.2412Z" fill="white"/>
<path d="M14.4279 39.7912C14.1559 40.1992 14.7149 39.8722 15.4379 39.7652C16.3349 39.4242 17.1249 38.6632 17.9309 38.1172L18.3389 37.6182C17.3689 38.2762 15.6049 39.2222 14.4279 39.7912Z" fill="white"/>
<path d="M14.0661 41.4462C14.8151 41.3792 15.6571 40.7782 16.1401 40.5272C15.3051 40.9152 14.2031 41.3372 13.5781 41.3772C13.5091 41.4552 13.8751 41.4472 14.0661 41.4462Z" fill="white"/>
<path d="M25.1284 29.3838C24.4944 30.6078 23.3234 31.9978 22.6624 33.3838C23.1004 32.8788 23.1964 32.9598 23.8334 32.1088C23.6424 33.0378 22.8264 33.4008 22.2554 34.1508C22.8014 33.6188 22.2554 34.5158 21.8274 35.0268C20.9594 35.9098 19.5714 37.2918 18.2504 38.2518C17.7624 38.8468 15.7084 39.7468 16.1174 39.9238C15.2504 40.3778 15.0374 40.1568 14.3734 40.3098C12.4264 41.2718 10.8064 40.1598 8.97237 39.7918C9.13837 39.6858 8.30737 39.1448 8.00337 38.8888C7.30337 38.3718 6.12737 36.3998 6.10938 37.0518C6.23538 37.8838 7.36237 38.6138 7.94837 39.4328C9.06737 40.8818 6.46137 38.4998 6.34737 38.4908C6.55337 38.6558 6.41837 39.0498 7.08137 39.5368C5.72937 38.3938 7.37537 40.3948 6.59737 39.9138C8.07437 41.5538 7.98637 41.3238 8.82037 42.2758C10.0704 42.6628 9.79737 42.1318 10.1664 42.0658C11.4294 42.1458 12.4504 42.4998 13.5454 42.1878C12.7614 42.9938 15.5504 42.3118 16.7024 41.5308C18.2464 40.6948 17.0414 40.7898 18.6044 39.8428C19.4964 39.5728 17.1874 41.2108 18.3314 40.8068L19.0014 40.2158C19.3404 39.6728 19.5764 39.1988 19.9854 38.6228C20.2794 38.3668 20.7194 37.9828 20.7774 38.0458C20.2444 38.6188 20.5344 38.6648 21.2124 38.2168C21.4384 37.8728 21.4924 37.7878 21.5744 37.5878C20.1004 38.2158 22.7664 36.3928 23.2534 35.2138C24.9264 32.2218 24.8264 34.3558 26.4474 31.3378C25.5414 31.9038 27.3824 29.2638 27.6384 28.1138C28.0424 27.2698 28.3314 27.0528 28.6964 26.5078C28.7484 26.2368 28.9944 25.5398 28.9524 25.3908C28.1974 25.5688 26.8834 27.2918 25.1624 29.2438C25.1374 29.3148 25.1164 29.3758 25.1284 29.3838Z" fill="white"/>
<path d="M5.55055 1.22253C4.54355 1.29453 3.58955 1.64053 2.71255 2.31653C2.71255 2.31653 -0.42445 4.60553 2.14955 10.1315C2.14955 10.1315 7.16555 17.2945 7.26055 21.5925L9.19255 18.1285C7.89955 14.0495 4.58755 9.32053 4.58755 9.32053C2.01355 3.79553 5.15055 1.50653 5.15055 1.50653C5.28155 1.40453 5.41555 1.30953 5.55055 1.22253Z" fill="white"/>
<path d="M6.51831 14.4711C6.71331 14.7541 6.92631 15.3261 6.74931 15.3321L6.70031 15.4521C6.57931 15.1841 6.02431 14.0911 6.51831 14.4711Z" fill="white"/>
<path d="M7.05866 13.9594C7.15366 14.2664 7.01166 14.0834 6.93866 14.0724L6.75366 13.6934C6.75466 13.5324 6.96366 13.8124 7.05866 13.9594Z" fill="white"/>
<path d="M8.37 13.1988L8.341 13.0588L8.501 13.4898C8.441 13.5468 8.265 13.3828 8.177 13.1338C8.252 13.1448 8.368 13.3668 8.37 13.1988Z" fill="white"/>
<path d="M8.04505 19.3206C8.19105 19.5526 8.66905 19.4236 9.10305 19.1246L9.32905 19.5466C8.98605 19.7606 8.69805 20.5036 8.41105 21.0346C8.36405 21.2896 8.78805 20.6296 8.56905 21.2036C8.49005 21.2236 8.43305 21.1186 8.34205 21.2046C8.25505 21.4696 8.30805 21.5906 8.30505 21.7656C8.30305 21.8536 8.28705 21.9536 8.23205 22.0926L8.18305 22.2036L8.15205 22.2656L8.14405 22.2816L8.13905 22.2896C4.27705 20.9596 7.06805 21.9216 6.20705 21.6246L6.20605 21.6226L6.20505 21.6186L6.20205 21.5866L6.18605 21.2836L6.34405 20.9296C6.03605 19.1186 4.92105 17.4136 4.25705 15.6806C3.94205 15.5106 3.55105 14.6396 3.16705 14.2286L3.25405 14.1396C2.92805 13.9906 2.85005 13.3456 2.61505 13.0176L2.51405 12.6286C2.59405 12.3746 3.12905 13.4586 3.18805 12.9816C2.91005 12.1926 2.28405 12.0426 2.07905 11.3386C1.73005 10.6776 1.76305 11.1156 1.36205 10.4596C1.21805 10.4126 1.31605 10.6646 1.18205 10.6966C0.541049 9.09065 0.941049 8.83865 0.673049 7.35865C0.570049 7.34465 0.123049 6.11165 0.177049 7.31165L0.392049 7.84665L0.334049 8.26665C0.249049 7.83065 0.125049 7.02065 0.00904888 7.13365C0.238049 6.57565 -0.272951 3.81465 0.233049 5.23865C0.0980493 6.00665 0.0960494 6.27565 0.292049 6.74565C0.230049 4.99565 0.831049 3.49565 1.61405 2.46065L1.71405 1.98465C1.85605 2.13165 2.39905 1.71165 2.90405 1.56965C3.08705 1.40965 3.35905 1.27765 3.25705 1.21065C3.33505 0.902649 1.40205 2.35565 2.16205 1.30465C3.32805 0.565649 4.73805 0.39965 5.52205 0.64765C4.97405 0.81565 4.54705 0.84865 4.04905 1.26965C2.19305 2.01965 0.687049 4.49665 1.30805 6.68965C1.18905 6.77965 1.23805 7.35965 1.07505 7.21665C1.01905 7.44365 1.21605 7.97765 1.06305 8.19665C1.65305 9.84965 2.67305 11.4846 3.39905 12.6726C3.46805 12.0926 4.02605 13.2646 4.33605 13.5276C4.40205 13.9566 4.77105 14.4856 4.99805 14.9126C5.07105 14.9226 5.23105 15.1746 5.27805 15.0526C5.07405 14.7606 5.07605 14.5986 4.93205 14.2496C5.21005 14.2246 5.30305 14.9536 5.53005 15.4596L5.28505 15.2846C5.69905 16.1116 5.76005 17.3366 6.27305 17.9756L6.22305 17.1986C6.74305 18.1026 6.82205 19.4616 7.25705 20.1386C7.21105 19.3896 6.65405 18.3626 6.95405 18.2386C7.13305 18.1896 7.39205 19.0006 7.41905 19.4226C7.46805 19.8656 7.50405 20.2936 7.60005 20.6806L7.69005 21.2846C7.31505 21.2446 8.60305 21.7946 6.86305 21.2696L6.96405 21.0256C7.23505 20.3776 7.50805 19.7676 8.04505 19.3206Z" fill="white"/>
<path d="M6.51366 20.8526L6.48466 20.9066L6.47166 20.9326L6.46466 20.9446L6.46166 20.9516L6.45966 20.9546C9.98366 22.1676 7.43666 21.2906 8.22366 21.5606L8.22266 21.5596V21.5576L8.20666 21.4236L8.17166 21.1926L8.08866 20.8636C8.02666 20.6936 7.96766 20.6006 7.89266 20.5256C7.74566 20.3706 7.63066 20.2186 7.48966 19.5296C7.70166 19.6446 7.66266 18.9206 7.53366 18.4626C7.29166 18.0866 7.18866 17.5436 7.03166 17.1966C6.96466 16.9346 7.16666 16.8556 7.36866 17.3376C7.44166 18.0306 7.72266 18.6996 7.96466 19.4226L8.24766 20.5516L8.27866 21.1476L8.26766 21.4336L8.26266 21.5026L8.25866 21.5366L8.25666 21.5536V21.5586L8.25566 21.5606C4.61166 20.3066 7.24566 21.2126 6.43266 20.9326L6.43366 20.9316L6.43766 20.9276L6.51366 20.8526Z" fill="white"/>
<path d="M7.86812 20.4862C7.56812 21.0802 7.35612 20.5942 7.12512 21.2312C7.08212 20.8502 7.29712 20.9132 7.58412 20.3822L7.51412 20.7642L7.86812 20.4862Z" fill="white"/>
<path d="M6.71455 17.202C6.53855 16.798 6.19855 15.829 6.38755 15.662C6.37555 15.593 6.52555 15.623 6.38155 15.425C6.48855 15.816 6.93555 16.883 6.71455 17.202Z" fill="white"/>
<path d="M6.51191 19.4292C6.41491 19.2172 6.33991 18.9912 6.21191 18.6562C6.32691 18.8572 6.52091 19.0892 6.51191 19.4292Z" fill="white"/>
<path d="M6.11718 16.9027C6.00018 17.0727 5.93018 16.5967 5.87818 16.4857L5.83618 16.2107C5.97118 16.4067 6.11818 16.6727 6.11718 16.9027Z" fill="white"/>
<path d="M4.89447 13.2939C4.64747 12.7039 5.39247 13.7169 5.05347 13.0479L5.28347 13.4069L5.13847 13.7179L4.89447 13.2939Z" fill="white"/>
<path d="M4.61573 12.3107C4.47773 12.1977 4.36973 12.0557 4.25073 11.7537L4.41773 11.8317C4.51173 11.9037 4.49073 12.1007 4.61573 12.3107Z" fill="white"/>
<path d="M4.52584 13.4169C4.33184 13.1989 4.46184 13.1479 4.41284 12.9479C4.53584 12.9899 4.69184 13.6639 4.52584 13.4169Z" fill="white"/>
<path d="M5.92716 14.0254C6.26416 14.0874 5.94316 13.7744 5.85416 13.2214C5.57816 12.6164 5.05516 12.1804 4.72916 11.6254L4.41016 11.3964C4.76016 12.0974 5.38116 13.3074 5.92716 14.0254Z" fill="white"/>
<path d="M7.21195 13.6521C7.06595 13.1441 6.59695 12.7071 6.41895 12.3961C6.68695 12.9471 7.07595 13.6251 7.24795 14.0191C7.32195 14.0291 7.23795 13.7871 7.21195 13.6521Z" fill="white"/>
<path d="M2.56144 3.35724C2.20744 4.45224 2.10144 6.14924 2.65844 7.17124C2.62344 6.63224 2.67744 6.60824 2.62044 5.79424C3.01944 6.35124 2.76944 7.02124 2.90944 7.76124C2.85944 7.16024 3.13544 7.87624 3.35144 8.27424C3.50244 9.21624 4.31844 10.6572 4.86144 11.3102C5.20644 11.6042 5.81544 13.0232 5.96744 12.6182C6.30944 13.1662 6.14944 13.4102 6.32544 13.8722C7.32844 14.9072 6.91644 16.5492 7.84444 17.6792C7.63844 17.6892 7.91544 18.3612 8.00144 18.6342L8.01144 18.6622C8.06944 18.0512 7.88144 20.0292 8.14144 17.2932V17.2952L8.13944 17.2962L8.13844 17.3002L8.13344 17.3072L8.12544 17.3212L8.09044 17.3812L8.01544 17.5132L7.85044 17.8082L7.53544 18.4382C7.35644 18.8422 7.27844 19.1652 7.51144 19.1322C7.81944 19.3032 8.30744 16.9302 8.33344 18.3002C8.31244 17.6722 8.44944 17.9342 8.63544 18.3512C8.59944 17.5102 8.19844 18.9772 8.36544 18.8102C8.40144 18.6202 8.68444 18.7242 8.85744 18.1942C8.43144 19.2772 9.38144 18.0232 9.26444 18.6582C9.67644 16.7222 9.21844 17.2632 9.50244 16.2632C9.12544 15.5332 8.95444 15.9102 8.72544 15.7812C8.24744 15.0942 8.27444 14.2792 7.85944 13.6832C8.55144 13.8532 7.61544 12.3432 7.17044 11.6132C6.61944 10.6482 6.61944 11.5982 6.05144 10.5792C5.94044 9.91324 6.92344 11.3582 6.73244 10.5242L6.36744 10.1372C6.02644 9.98924 5.68544 9.94024 5.35344 9.70424C5.21844 9.50624 5.01544 9.20924 5.06844 9.14424C5.39244 9.47424 5.46944 9.22024 5.26244 8.71324C5.27544 8.87124 5.12644 8.60324 5.05644 8.61824C4.90444 9.79024 4.68144 7.72224 4.17044 7.22624C3.41344 5.36024 4.50744 6.07824 4.38844 4.41324C3.79744 4.82724 4.38344 3.18424 4.61744 2.61724C4.90044 2.21824 5.13144 2.18824 5.41144 2.14724C5.45944 2.02624 5.75344 1.79524 5.74944 1.66624C5.32644 1.11024 3.69044 1.17024 2.55444 3.23424L2.56144 3.35724Z" fill="white"/>
<path d="M10.7599 17.7843C6.50686 18.5333 3.20386 22.0173 3.23286 31.0573C3.23286 31.0573 4.47285 43.8763 13.9809 41.4753C13.9809 41.4753 14.5129 41.3623 15.4009 40.9823L15.8039 40.8023C6.85686 42.5073 5.66986 30.2453 5.66986 30.2453C5.64886 23.0313 7.74786 19.3553 10.7599 17.7843Z" fill="white"/>
<path d="M8.69354 35.9785L8.64554 35.8135L8.87054 36.3325C8.81654 36.3995 8.60554 36.1865 8.47754 35.8815C8.55954 35.9045 8.71354 36.1765 8.69354 35.9785Z" fill="white"/>
<path d="M14.4196 41.4249C14.5336 41.1629 13.9896 40.7739 13.3936 40.4269L13.6536 39.9899C13.8726 40.1149 14.2136 40.2079 14.5946 40.1319L15.1746 40.0509L15.4636 40.0089L15.6026 39.9899L15.6716 39.9809L15.6886 39.9789L15.6936 39.9799C15.3766 38.5469 16.1256 41.9299 16.0486 41.5819L16.0466 41.5829L16.0446 41.5839L16.0366 41.5879L16.0026 41.6029C15.9396 41.6569 15.9536 41.6729 15.9976 41.6749L16.0366 41.6729L16.0586 41.6709L16.0706 41.6699H16.0746H16.0756V41.6689C16.4286 43.2619 15.5956 39.4999 15.6816 39.8869H15.6806L15.6746 39.8849L15.5826 39.8659C15.5246 39.8519 15.4806 39.8369 15.4926 39.8149L15.5596 39.7759L15.6366 39.7519L15.6596 39.7439H15.6616H15.6626C15.2546 37.9019 16.2186 42.2529 16.1186 41.8049H16.1176L16.1146 41.8079L16.1086 41.8119L16.0946 41.8199L16.0356 41.8569C15.9356 41.8299 15.9606 41.6959 15.7966 41.7229C15.1356 42.0929 15.6416 42.3899 14.0096 42.7259L13.4466 42.5959C10.8286 43.2769 7.3796 42.5949 5.5916 39.9189C5.1026 39.6689 4.2546 38.3119 3.7766 37.4969L3.8666 37.4089C3.4446 37.0279 3.3176 36.0229 3.0776 35.3989L3.0006 34.7729C3.0866 34.4869 3.6256 36.3649 3.7176 35.7189C3.4396 34.4769 2.8146 33.7889 2.7886 32.6449C2.6466 31.5289 2.5256 31.8559 2.4046 30.9379C2.2906 30.6549 2.2876 31.3009 2.1626 31.2319C2.2266 28.5149 2.6666 28.6609 2.9836 26.5329C2.8986 26.4469 2.9386 24.6889 2.5456 26.2299L2.5436 27.0059L2.3346 27.4959C2.4216 26.9109 2.6056 25.8409 2.4566 25.9309C2.8446 25.2899 3.1916 21.7899 3.2716 23.6549C2.8786 24.5769 2.7686 24.8759 2.8616 25.5659C3.3566 23.3689 4.2526 21.5499 5.3796 20.1929L5.5726 19.6199C5.7086 19.7169 6.3576 19.1989 7.0396 18.8039C7.2856 18.5489 7.6426 18.2869 7.5156 18.2579C7.5786 17.9979 5.1626 20.0829 6.0926 18.8069C7.6146 17.4029 9.6026 17.1589 10.6896 17.2139C9.9296 17.5209 9.3046 17.4649 8.6286 18.1869C5.9986 19.5129 4.0296 22.7179 3.8306 25.9319C3.6836 26.0079 3.5006 26.8269 3.4076 26.5469C3.2696 26.8219 3.2396 27.6489 3.0176 27.8419C2.8916 30.3459 3.0996 33.3619 3.9596 35.4199C4.0496 34.6949 4.6206 36.5599 5.0276 36.9949C5.1576 37.5789 5.6916 38.3809 6.1296 38.9009C6.2186 38.9159 6.4866 39.2369 6.4916 39.0739C6.1636 38.7069 6.1086 38.4999 5.8326 38.0649C6.1676 38.0219 6.4236 38.9979 6.9746 39.5019L6.6106 39.3469C7.3766 40.3349 8.5276 41.5309 9.6416 41.6059C9.3586 41.4739 9.1216 41.1879 8.8746 40.9929C10.0536 41.5059 11.6696 41.9609 12.6006 41.4809C11.7586 41.4979 10.3286 41.5649 10.4146 41.1299C10.4856 40.9959 11.4106 41.0749 11.8656 41.1449C12.8276 41.2959 13.7746 41.0349 14.5156 40.6849L15.0966 40.4009L15.3836 40.2609L15.5346 40.1899L15.5726 40.1719L15.5906 40.1639L15.6006 40.1599C15.7316 40.7479 15.3096 38.8409 15.8946 41.4799H15.8926H15.8906L15.8856 41.4809L15.7996 41.4879C15.3466 41.5289 14.8836 41.5219 14.4196 41.4249Z" fill="white"/>
<path d="M14.222 40.2186C12.727 40.5716 13.537 40.9696 12.004 41.1016C12.185 40.9006 11.453 40.7046 10.968 40.6816C10.496 40.7096 9.94104 40.5196 9.55504 40.3786C9.31204 40.2006 9.40904 40.0316 9.91404 40.1896C11.136 41.1026 12.937 40.1616 14.222 40.2186Z" fill="white"/>
<path d="M15.7353 40.818C15.2103 41.093 15.1923 40.588 14.5063 40.973C14.7743 40.615 14.9343 40.821 15.6513 40.497L15.2783 40.813C15.4113 40.828 15.8023 40.725 15.7353 40.818Z" fill="white"/>
<path d="M4.55696 30.6091C4.56896 29.8371 4.57796 29.6321 4.51096 29.2671L4.42896 29.4751C4.47596 29.8761 4.45296 29.9251 4.55696 30.6091Z" fill="white"/>
<path d="M6.51873 20.1024C5.75873 21.3004 5.00273 23.1844 5.00073 24.7754C5.21473 24.1004 5.27473 24.1044 5.59273 23.0644C5.71673 23.9764 5.12273 24.6734 4.98973 25.6564C5.15673 24.8834 5.16573 25.9514 5.10973 26.6174C4.91373 27.7814 4.64773 29.9864 5.08073 31.7434C5.29273 32.4534 5.81473 34.8564 6.02973 34.3734C6.39873 35.3294 6.23073 35.5844 6.49573 36.3354C7.72473 38.0734 8.18573 40.6034 10.6147 41.3804C10.3947 41.5484 11.4967 42.0514 11.9507 42.1364C12.9247 42.5664 15.2277 42.4594 14.6937 42.0334C14.0847 41.8154 12.7297 42.2234 11.8087 41.5804C10.2897 40.6704 13.5517 41.9294 13.6097 41.3554C13.3717 41.3874 13.2687 41.0944 12.5687 41.0734C14.0387 41.1534 12.0387 40.5514 12.8047 40.4634C11.3117 39.8134 11.4857 39.7354 10.9757 38.9654C10.2067 38.4884 10.2557 38.9044 9.94273 38.8884C9.02873 38.3084 8.75673 37.2864 8.21173 36.5094C8.96973 36.8024 7.71573 34.8934 7.39073 33.7184C6.97273 32.2364 6.79073 33.4124 6.43973 31.7594C6.48773 30.8904 7.12873 33.2944 7.12873 32.1534L6.86673 31.4544C6.58173 31.0664 6.25973 30.6534 6.06873 30.2054C6.07873 29.8434 6.09273 29.2994 6.16973 29.2894C6.22673 30.0004 6.42373 29.7804 6.55673 29.0554C6.48973 28.7094 6.47273 28.6224 6.40073 28.4524C5.78673 29.8574 6.42073 26.9314 6.30873 25.8794C6.50873 22.8454 7.12773 24.5084 7.91273 21.9414C7.10273 22.3724 8.51473 20.1844 9.05873 19.4904C9.60573 19.0264 9.84673 18.9254 10.3337 18.8534C10.4647 18.7014 10.8947 18.3884 10.9277 18.2444C10.4227 17.7864 8.41273 17.8314 6.55373 19.9554C6.52873 20.0304 6.50673 20.0944 6.51873 20.1024Z" fill="white"/>
</svg>
