<svg width="66" height="48" viewBox="0 0 66 48" fill="none" xmlns="http://www.w3.org/2000/svg">
<path d="M63.1458 7.64832C63.1738 5.66432 63.8418 6.51432 63.1528 4.61032C63.1058 4.92732 62.5728 4.17232 62.1618 3.84932C61.8608 3.44632 61.0788 3.25132 60.6728 2.99432C60.3538 2.87032 60.3498 3.17132 60.9128 3.48132C62.7998 3.51732 63.1198 6.02832 63.1458 7.64832Z" fill="white"/>
<path d="M63.6919 9.9043C64.1639 8.7603 63.5109 9.0273 63.8649 7.9183C63.5069 8.3443 63.8439 8.5763 63.4619 9.6043L63.7869 9.0593L63.6919 9.9043Z" fill="white"/>
<path d="M60.5718 2.53116C59.9828 2.34016 58.5268 2.42516 58.5238 2.68816C58.4368 2.71816 58.5948 2.84516 58.2578 2.86816C58.7688 2.69816 60.2678 2.82616 60.5718 2.53116Z" fill="white"/>
<path d="M63.577 3.27124C63.363 2.89524 63.028 2.39024 62.459 2.13524C62.818 2.32724 63.182 2.85624 63.577 3.27124Z" fill="white"/>
<path d="M54.5399 3.74217C53.7079 4.23117 55.5319 3.58117 54.5229 4.09717L55.1189 3.85017L55.2269 3.42517L54.5399 3.74217Z" fill="white"/>
<path d="M54.177 3.40007C53.716 3.52807 53.859 3.70007 53.624 3.91907C53.798 3.86707 54.617 3.21307 54.177 3.40007Z" fill="white"/>
<path d="M60.367 40.2144C60.88 39.0814 60.297 39.3004 60.801 38.2134C60.434 38.6014 60.586 38.8474 60.165 39.8804L60.524 39.3514L60.367 40.2144Z" fill="white"/>
<path d="M62.3508 33.7095C62.3828 33.2425 62.3718 32.7645 62.3548 32.0495C62.3238 32.5225 62.2328 33.0945 62.3508 33.7095Z" fill="white"/>
<path d="M63.6148 13.4807C63.2728 13.5517 63.0638 14.1507 62.7148 14.5867C63.0658 14.1497 63.2968 14.0417 63.6148 13.4807Z" fill="white"/>
<path d="M60.8984 12.2444C60.9804 11.9684 61.2034 11.7584 61.3544 11.6584L61.3424 11.8334L60.8984 12.2444Z" fill="white"/>
<path d="M57.9972 41.1767C57.6872 41.7117 57.1162 42.6277 57.3462 42.6147L57.3502 42.8007C57.7152 42.3767 58.7712 40.3717 57.9972 41.1767Z" fill="white"/>
<path d="M57.4376 40.5577C57.2386 41.0417 57.4656 40.7327 57.5626 40.6927L57.8796 40.0557C57.9026 39.8137 57.6106 40.3257 57.4376 40.5577Z" fill="white"/>
<path d="M55.2979 44.8635C55.8509 44.7285 56.8929 43.8345 56.7629 43.5495C56.8179 43.4825 56.6339 43.4375 56.9089 43.3055C56.5889 43.7195 55.4159 44.4635 55.2979 44.8635Z" fill="white"/>
<path d="M52.9355 46.5487C53.2825 46.5767 53.6425 46.6407 54.1675 46.4877C53.8145 46.5467 53.3895 46.4247 52.9355 46.5487Z" fill="white"/>
<path d="M56.1606 45.0605C56.1436 45.3395 56.6356 44.8675 56.7656 44.7395L57.0216 44.4415C56.7096 44.5815 56.3776 44.8635 56.1606 45.0605Z" fill="white"/>
<path d="M59.3445 40.7103C59.7095 39.8573 58.6875 41.3833 59.1795 40.4203L58.8525 40.9323L58.9765 41.3293L59.3445 40.7103Z" fill="white"/>
<path d="M59.7168 39.2761C59.8688 39.0611 59.9868 38.8121 60.0998 38.3421L59.9108 38.5341C59.8098 38.6761 59.8498 38.9311 59.7168 39.2761Z" fill="white"/>
<path d="M59.7816 40.7754C60.0356 40.3914 59.8796 40.3654 59.9496 40.0634C59.8046 40.1694 59.5616 41.1844 59.7816 40.7754Z" fill="white"/>
<path d="M63.0318 36.8557C62.6988 37.2677 62.5828 38.2827 62.2178 39.1687C62.5698 38.2877 62.8138 37.9407 63.0318 36.8557Z" fill="white"/>
<path d="M58.8706 40.1862C58.4166 40.4672 58.9216 39.7902 59.0386 38.8482C59.4156 37.7312 59.9356 36.6182 60.1726 35.4442L60.4586 34.7652C60.3356 36.2142 59.7276 38.7052 58.8706 40.1862Z" fill="white"/>
<path d="M57.3135 40.1538C57.5785 39.3778 58.1475 38.5168 58.3445 37.9428C58.0545 38.9128 57.5285 40.0988 57.1835 40.6948C57.0885 40.7278 57.2505 40.3548 57.3135 40.1538Z" fill="white"/>
<path d="M33.623 26.2811C33.623 26.2811 52.57 -4.92387 62.547 2.76013C62.547 2.76013 65.993 5.27513 63.165 11.3481C63.165 11.3481 57.652 19.2201 57.547 23.9421L33.623 26.2811Z" fill="#083783"/>
<path d="M56.8521 21.5417C57.0731 20.8327 57.4111 19.6527 57.1921 19.7647L57.1461 19.5777C56.8991 20.1147 56.2591 22.7547 56.8521 21.5417Z" fill="white"/>
<path d="M57.5286 21.9607C57.6316 21.3647 57.4666 21.7877 57.3776 21.8697L57.2266 22.7087C57.2586 22.9777 57.4386 22.2937 57.5286 21.9607Z" fill="white"/>
<path d="M59.1418 22.1975L59.1238 22.4115C59.1428 22.1985 59.2068 21.8965 59.2628 21.7055C59.1888 21.6525 59.0018 21.9965 58.9248 22.4085C59.0108 22.3435 59.1228 21.9595 59.1418 22.1975Z" fill="white"/>
<path d="M62.6065 11.3302C62.8955 11.3832 62.7745 12.2632 62.4835 13.2102L63.0025 13.2242C63.1875 12.6882 64.1375 11.2882 64.4795 10.0672C64.7235 9.66119 64.2155 11.1962 64.7185 10.1002C64.7075 9.94619 64.5745 9.99519 64.6235 9.74219C64.9355 8.69819 65.3215 9.42019 65.3845 6.76419L65.1455 5.89419C64.5965 0.705192 59.1185 -0.679808 56.2765 0.737192C55.6155 0.587192 54.1055 1.49319 53.1115 1.80319L53.1455 1.95219C52.5515 2.05619 51.8305 2.90319 51.2075 3.28719L50.7305 3.79119C50.6205 4.11719 52.3375 2.83219 52.0015 3.47719C50.9185 4.38619 49.9795 4.62619 49.1665 5.59319C48.2965 6.38719 48.3365 6.19419 47.7625 6.63019C47.5485 6.64119 47.8555 6.34719 47.7105 6.26319C45.7365 8.03219 46.0935 8.74419 44.4855 10.4142C44.3565 10.3812 42.9095 11.5382 43.9815 10.1142L44.6335 9.61719L44.9205 9.07419C44.4815 9.54419 43.6895 10.4272 43.6815 10.2002C43.4425 11.2342 40.4945 13.2162 42.1595 12.4472C42.7845 11.5052 43.0085 11.2782 43.6025 10.8982C42.0135 12.8212 40.7845 14.6912 39.5415 16.3252L39.0235 16.6412C39.1525 16.8432 38.6605 17.7602 38.1185 18.5932C37.8295 18.8932 37.5345 19.3612 37.5295 19.1702C37.3035 19.2122 39.5985 16.2192 38.2675 17.3462C36.9585 19.2552 35.7345 21.4232 35.1475 22.8722C35.7935 22.0212 36.1705 21.3232 37.0445 20.6172C39.4515 17.6922 41.8055 14.2402 44.4325 11.7832C44.4205 11.5582 45.0345 10.8022 44.7375 10.8832C44.8965 10.5452 45.6015 9.95719 45.6335 9.58619C47.6805 7.69719 49.9955 5.35519 52.0365 3.93919C51.6625 4.71619 53.3775 3.33219 54.0295 3.17519C54.5275 2.74019 55.5325 2.32319 56.2585 2.03319C56.3605 2.08619 56.8335 2.01019 56.7445 2.15619C56.1735 2.19619 56.0125 2.42219 55.4895 2.71419C55.7855 2.86019 56.6305 2.18619 57.4895 2.04719L57.0215 1.97019C58.3415 1.55819 60.2845 0.969193 61.4365 2.01019C61.0485 1.96919 60.7095 1.77019 60.3215 1.87719C61.7875 2.36619 63.8565 3.38619 63.7945 5.13519C63.4655 3.92919 62.1875 2.49119 61.9525 3.04019C61.9985 3.18419 62.7925 3.87919 63.1125 4.41619C64.6675 6.76519 63.0545 9.18919 62.6065 11.3302Z" fill="white"/>
<path d="M53.3766 4.79682C53.1136 4.88482 52.8606 5.02382 52.4766 5.36182L52.7576 5.31982C52.9326 5.26182 53.0516 5.01182 53.3766 4.79682Z" fill="white"/>
<path d="M49.1885 4.54211C49.7125 4.47711 50.3455 3.64111 51.1785 3.19311C50.3485 3.64011 50.0145 3.83411 49.1885 4.54211Z" fill="white"/>
<path d="M52.1939 22.9582C51.8019 23.0922 51.3279 23.0592 51.0449 23.0082L51.2469 22.8912L52.1939 22.9582Z" fill="white"/>
<path d="M56.2397 23.0837C56.4067 22.7837 56.4297 22.9127 56.4257 23.2547L56.4207 23.5507L56.4187 23.7237L56.4177 23.8147V23.8617L56.4167 23.8857L56.4177 23.8977V23.9037V23.9067C56.1927 24.1917 58.3827 21.4267 57.4547 22.5967L57.4537 22.5977L56.8857 22.7737C55.8217 22.9417 54.6897 22.7897 53.6287 22.9077L52.9717 22.7897C53.6017 22.6717 54.4717 22.5337 55.3757 22.4267L56.7307 22.2957L57.3777 22.2607L57.4167 22.2587H57.4267H57.4317C56.8527 22.9897 58.7287 20.6217 56.1337 23.8977V23.8957V23.8927L56.1377 23.8627L56.1507 23.7467L56.1787 23.5187L56.2397 23.0837Z" fill="white"/>
<path d="M57.752 22.3425L57.552 23.8505C57.265 24.0125 56.758 23.8745 56.502 23.9355C57.937 24.3265 57.324 22.5015 57.755 21.7075C57.843 21.6325 57.746 22.0935 57.752 22.3425Z" fill="white"/>
<path d="M41.916 23.7809C43.261 23.6629 45.11 23.2269 46.614 23.4959C45.935 23.6309 45.927 23.7319 44.863 23.8999C45.693 24.2539 46.504 23.6809 47.465 23.5969C46.688 23.7649 47.73 23.8499 48.402 23.8159C49.661 23.5809 51.678 23.4289 53.409 23.2789C54.164 23.3619 56.591 22.8749 56.267 23.3299C56.795 23.2959 57.09 23.1949 57.35 23.0809C56.202 24.7709 56.937 22.9589 56.705 22.8599C57.636 20.0049 57.613 17.4159 59.428 15.0439C59.162 15.0669 59.902 13.7999 60.182 13.3039C60.78 12.2119 62.395 9.77192 62.351 10.6019C62.074 11.4959 60.831 12.5919 60.395 13.8959C59.625 16.0859 61.694 12.0189 62.028 12.2779C61.808 12.5009 61.958 12.8649 61.368 13.6109C62.567 11.9799 61.243 14.6049 61.966 13.8649C60.954 16.0049 61.077 15.8339 60.906 17.1509C60.216 18.3309 60.13 17.8069 59.801 18.0609C59.004 19.3159 58.931 20.6329 58.503 21.8029C58.91 21.4479 58.813 22.0059 58.705 22.7769L58.617 23.3869L58.591 23.6979L58.575 23.8549L58.567 23.9339L58.562 23.9739C56.7 26.3239 58.045 24.6259 57.629 25.1509H57.627H57.622L57.612 25.1519L57.591 25.1539C57.156 25.1899 56.73 25.2189 56.393 25.2499C54.659 25.4499 55.769 24.7269 53.936 24.9619C53.044 25.3659 55.825 25.1979 54.643 25.6529L53.788 25.6019C53.231 25.3999 52.779 25.1139 52.12 24.9959C51.736 25.0289 51.159 25.0789 51.151 25.1799C51.912 25.2149 51.698 25.4839 50.916 25.7019C50.54 25.6349 50.446 25.6179 50.263 25.5339C51.765 24.6759 48.63 25.6519 47.511 25.3489C44.288 25.0779 45.901 26.3419 42.752 26.3409C43.67 25.6339 40.662 26.2229 39.624 26.0879C38.756 26.1889 38.453 26.3909 37.86 26.6439C37.616 26.5989 36.944 26.6299 36.834 26.5209C37.262 25.6519 39.222 24.6809 41.782 23.7459C41.854 23.7549 41.916 23.7629 41.916 23.7809Z" fill="white"/>
<path d="M33.5732 26.4836C33.5732 26.4836 62.0612 6.59059 61.9732 34.3436C61.9732 34.3436 60.6102 48.4306 50.1622 45.7926C50.1622 45.7926 39.7462 43.5736 33.5732 26.4836Z" fill="#083783"/>
<path d="M50.6472 44.6064C51.1702 44.7444 52.0842 44.8104 51.9442 44.5844L52.0562 44.4784C51.6232 44.4164 49.7822 44.1314 50.6472 44.6064Z" fill="white"/>
<path d="M50.373 45.4673C50.869 45.4783 50.506 45.3633 50.434 45.2773L49.787 45.1323C49.576 45.1583 50.087 45.4053 50.373 45.4673Z" fill="white"/>
<path d="M59.1259 41.6146C59.4269 41.6596 59.3569 42.5396 58.9279 43.5076L59.4589 43.5526C59.7909 42.8116 60.6499 41.5926 61.1299 40.4796C61.4029 40.1046 60.7819 41.5796 61.3639 40.5446C61.3619 40.3876 61.2379 40.4236 61.2919 40.1686C61.7429 39.2246 61.9429 39.9356 62.5129 37.6156L62.5089 36.7836C63.3389 32.5296 63.0739 28.3066 61.3879 24.6246C61.3719 23.8116 60.2149 22.0986 59.4709 21.0936L59.3689 21.1836C59.0129 20.4926 57.9709 19.9796 57.2849 19.5676L56.6059 19.3646C56.3149 19.3996 58.3069 20.5086 57.6109 20.4986C56.3309 19.8286 55.5189 19.0386 54.2939 18.9656C53.1429 18.8406 53.2939 18.6566 52.5829 18.5376C52.4059 18.3746 52.8239 18.4046 52.7599 18.2246C50.1249 18.0316 50.0469 18.9026 47.8669 19.1966C47.7729 19.0696 45.9779 19.1926 47.5759 18.6156L48.3819 18.6296L48.8989 18.3646C48.2859 18.4606 47.1709 18.6916 47.2759 18.5066C46.5649 19.1736 43.0859 19.1846 44.8979 19.4856C45.8749 19.0546 46.1749 18.9816 46.8769 19.0576C44.5859 19.6736 42.7039 20.6466 40.9339 21.4456L40.3359 21.4466C40.3719 21.6926 39.5639 22.2496 38.7569 22.7336C38.3839 22.8686 37.9319 23.1266 37.9999 22.9556C37.7769 22.8816 41.0129 21.3416 39.3709 21.6796C37.4359 22.7276 35.5079 24.1056 34.4609 25.1806C35.3539 24.6866 35.9639 24.2526 37.0179 24.0256C40.2869 22.5646 43.7959 20.7266 47.1849 20.3366C47.2759 20.1316 48.1479 19.8676 47.8589 19.7536C48.1569 19.5816 49.0329 19.5436 49.2459 19.2766C51.8769 19.1496 55.1129 19.2276 57.2829 20.7666C56.5339 20.7286 58.4449 21.8586 58.7479 22.6426C59.3209 22.9996 59.9469 24.0796 60.3099 24.9056C60.2949 25.0346 60.4959 25.5606 60.3489 25.4926C60.1299 24.8586 59.9739 24.6736 59.5899 24.1516C59.5299 24.5376 60.2709 25.3746 60.6349 26.3366L60.5839 25.7676C61.1799 27.3226 62.1119 29.2966 61.9469 30.9516L61.5419 29.6596C61.6189 31.5666 62.2729 34.0656 61.6119 35.3956C61.8599 34.1406 61.7239 31.9936 61.4549 32.0456C61.2679 32.1386 61.3219 33.6206 61.4219 34.3266C61.3679 37.2686 59.8919 39.2756 59.1259 41.6146Z" fill="white"/>
<path d="M60.1436 37.7444C60.7796 35.4704 61.0046 36.7694 61.3616 34.4454C61.1856 34.6734 61.0246 33.7904 60.9706 32.8844C61.0856 32.1034 60.8976 31.2064 60.8326 30.5454C60.7476 30.0994 60.5256 30.2094 60.6096 31.0824C61.3136 33.3364 60.5436 35.6294 60.1436 37.7444Z" fill="white"/>
<path d="M61.1166 30.2192C61.0496 29.4322 60.5886 27.6762 60.2966 27.7512C60.2446 27.6542 60.1786 27.8792 60.1006 27.4662C60.4116 28.0272 60.7706 29.9792 61.1166 30.2192Z" fill="white"/>
<path d="M61.4143 29.0913C61.6273 29.1993 61.3293 28.4053 61.2873 28.1813L61.1123 27.7373C61.1673 28.1923 61.2423 28.7573 61.4143 29.0913Z" fill="white"/>
<path d="M58.4872 23.3999C57.8082 22.6999 58.9622 24.3879 58.2012 23.5139L58.6022 24.0449L58.9622 24.0409C58.8392 23.7889 58.6442 23.6149 58.4872 23.3999Z" fill="white"/>
<path d="M57.2873 22.574C57.1363 22.312 56.9073 22.15 56.4873 21.955L56.6503 22.207C56.7673 22.353 57.0223 22.302 57.2873 22.574Z" fill="white"/>
<path d="M58.6253 22.886C58.3493 22.429 58.2993 22.613 58.0283 22.465C58.1383 22.616 58.9203 23.315 58.6253 22.886Z" fill="white"/>
<path d="M55 18.2929C55.434 18.6849 56.463 18.8739 57.338 19.4889C56.467 18.9259 56.1 18.5619 55 18.2929Z" fill="white"/>
<path d="M44.6981 41.1392C44.3391 40.9482 44.0061 40.5662 43.8291 40.3192L44.0421 40.3802L44.6981 41.1392Z" fill="white"/>
<path d="M49.671 43.9411C49.97 44.3891 49.356 44.0301 48.561 43.9131C47.575 43.5381 46.708 42.7021 45.822 42.1021L45.373 41.5541C46.439 42.2761 48.377 43.3151 49.671 43.9411Z" fill="white"/>
<path d="M50.0691 45.76C49.2461 45.686 48.3201 45.026 47.7891 44.75C48.7071 45.176 49.9191 45.64 50.6061 45.685C50.6811 45.77 50.2791 45.761 50.0691 45.76Z" fill="white"/>
<path d="M37.9131 32.5046C38.6101 33.8496 39.8971 35.3766 40.6231 36.8996C40.1411 36.3446 40.0361 36.4346 39.3361 35.4996C39.5461 36.5196 40.4431 36.9186 41.0701 37.7426C40.4701 37.1586 41.0711 38.1436 41.5411 38.7056C42.4941 39.6766 44.0191 41.1946 45.4711 42.2496C46.0081 42.9036 48.2641 43.8926 47.8161 44.0866C48.7681 44.5856 49.0021 44.3426 49.7311 44.5116C51.8721 45.5686 53.6511 44.3466 55.6671 43.9416C55.4851 43.8256 56.3971 43.2316 56.7321 42.9496C57.5011 42.3816 58.7931 40.2146 58.8131 40.9306C58.6741 41.8456 57.4361 42.6476 56.7931 43.5466C55.5631 45.1406 58.4261 42.5226 58.5521 42.5126C58.3251 42.6936 58.4731 43.1256 57.7451 43.6616C59.2301 42.4046 57.4211 44.6046 58.2761 44.0766C56.6531 45.8786 56.7511 45.6256 55.8341 46.6716C54.4611 47.0966 54.7601 46.5126 54.3551 46.4406C52.9671 46.5286 51.8451 46.9176 50.6421 46.5756C51.5031 47.4606 48.4391 46.7106 47.1721 45.8526C45.4761 44.9346 46.8001 45.0386 45.0831 43.9976C44.1021 43.7006 46.6391 45.5016 45.3821 45.0566L44.6461 44.4086C44.2731 43.8116 44.0141 43.2906 43.5641 42.6576C43.2411 42.3756 42.7581 41.9536 42.6941 42.0236C43.2801 42.6526 42.9611 42.7026 42.2161 42.2106C41.9681 41.8336 41.9081 41.7396 41.8191 41.5196C43.4381 42.2096 40.5081 40.2066 39.9731 38.9116C38.1351 35.6236 38.2451 37.9686 36.4641 34.6516C37.4591 35.2746 35.4371 32.3726 35.1551 31.1086C34.7111 30.1816 34.3931 29.9436 33.9921 29.3436C33.9361 29.0456 33.6651 28.2806 33.7101 28.1166C34.5401 28.3116 35.9841 30.2056 37.8761 32.3516C37.9031 32.4286 37.9261 32.4966 37.9131 32.5046Z" fill="white"/>
<path d="M59.4268 1.55814C60.5338 1.63714 61.5818 2.01714 62.5458 2.76014C62.5458 2.76014 65.9928 5.27514 63.1648 11.3481C63.1648 11.3481 57.6518 19.2201 57.5478 23.9421L55.4248 20.1361C56.8448 15.6541 60.4848 10.4571 60.4848 10.4571C63.3138 4.38614 59.8668 1.87014 59.8668 1.87014C59.7228 1.75814 59.5758 1.65414 59.4268 1.55814Z" fill="white"/>
<path d="M58.3631 16.1172C58.1491 16.4282 57.9151 17.0572 58.1101 17.0632L58.1631 17.1952C58.2951 16.9002 58.9061 15.7002 58.3631 16.1172Z" fill="white"/>
<path d="M57.7694 15.5547C57.6644 15.8927 57.8214 15.6907 57.9014 15.6787L58.1044 15.2627C58.1034 15.0857 57.8744 15.3937 57.7694 15.5547Z" fill="white"/>
<path d="M56.3286 14.7188L56.3606 14.5648L56.1846 15.0388C56.2506 15.1008 56.4446 14.9208 56.5406 14.6468C56.4586 14.6598 56.3306 14.9038 56.3286 14.7188Z" fill="white"/>
<path d="M56.6854 21.4462C56.5244 21.7012 55.9994 21.5592 55.5224 21.2302L55.2744 21.6952C55.6514 21.9302 55.9674 22.7462 56.2834 23.3302C56.3354 23.6092 55.8684 22.8852 56.1094 23.5152C56.1964 23.5382 56.2584 23.4222 56.3594 23.5162C56.4544 23.8072 56.3964 23.9412 56.3994 24.1332C56.4014 24.2292 56.4204 24.3402 56.4804 24.4922L56.5344 24.6142L56.5674 24.6822L56.5764 24.7002L56.5814 24.7092C60.8254 23.2482 57.7584 24.3042 58.7054 23.9782V23.9772L58.7064 23.9752L58.7074 23.9712L58.7104 23.9362L58.7274 23.6032L58.5544 23.2142C58.8924 21.2242 60.1184 19.3502 60.8484 17.4462C61.1944 17.2592 61.6244 16.3022 62.0464 15.8512L61.9504 15.7532C62.3084 15.5882 62.3944 14.8802 62.6524 14.5192L62.7634 14.0922C62.6754 13.8132 62.0874 15.0042 62.0224 14.4802C62.3284 13.6132 63.0164 13.4482 63.2414 12.6752C63.6244 11.9482 63.5894 12.4302 64.0294 11.7082C64.1884 11.6572 64.0804 11.9342 64.2274 11.9692C64.9324 10.2042 64.4914 9.92823 64.7864 8.30123C64.9004 8.28623 65.3914 6.93123 65.3314 8.24923L65.0954 8.83723L65.1584 9.29823C65.2524 8.81923 65.3894 7.92923 65.5154 8.05423C65.2644 7.44123 65.8254 4.40623 65.2704 5.97123C65.4184 6.81523 65.4214 7.11123 65.2054 7.62823C65.2734 5.70423 64.6134 4.05623 63.7524 2.91823L63.6424 2.39523C63.4864 2.55723 62.8904 2.09523 62.3344 1.94023C62.1334 1.76423 61.8344 1.61923 61.9474 1.54523C61.8614 1.20623 63.9854 2.80323 63.1504 1.64823C61.8694 0.837228 60.3194 0.654228 59.4584 0.926228C60.0604 1.11123 60.5284 1.14723 61.0764 1.60923C63.1164 2.43323 64.7714 5.15623 64.0894 7.56623C64.2194 7.66523 64.1654 8.30223 64.3454 8.14523C64.4064 8.39423 64.1894 8.98123 64.3584 9.22223C63.7094 11.0382 62.5884 12.8352 61.7904 14.1412C61.7154 13.5032 61.1014 14.7912 60.7614 15.0802C60.6894 15.5512 60.2834 16.1332 60.0344 16.6022C59.9534 16.6132 59.7774 16.8902 59.7264 16.7562C59.9504 16.4352 59.9474 16.2572 60.1064 15.8732C59.8004 15.8462 59.6984 16.6472 59.4494 17.2032L59.7184 17.0112C59.2634 17.9202 59.1964 19.2662 58.6334 19.9682L58.6874 19.1142C58.1164 20.1082 58.0294 21.6012 57.5514 22.3442C57.6014 21.5222 58.2144 20.3932 57.8844 20.2562C57.6874 20.2032 57.4034 21.0942 57.3734 21.5582C57.3194 22.0452 57.2794 22.5152 57.1744 22.9412L57.0754 23.6042C57.4874 23.5602 56.0714 24.1652 57.9844 23.5872L57.8734 23.3192C57.5754 22.6082 57.2754 21.9372 56.6854 21.4462Z" fill="white"/>
<path d="M58.3689 23.1299L58.4009 23.1889L58.4159 23.2179L58.4229 23.2319L58.4259 23.2389L58.4279 23.2419C54.5549 24.5749 57.3549 23.6109 56.4899 23.9079L56.4909 23.9069V23.9039L56.5079 23.7569L56.5469 23.5039L56.6389 23.1419C56.7059 22.9549 56.7709 22.8529 56.8529 22.7699C57.0149 22.5999 57.1409 22.4329 57.2959 21.6759C57.0639 21.8029 57.1059 21.0069 57.2489 20.5039C57.5139 20.0899 57.6269 19.4939 57.7999 19.1119C57.8729 18.8249 57.6509 18.7379 57.4299 19.2669C57.3499 20.0289 57.0409 20.7639 56.7739 21.5589L56.4629 22.7989L56.4289 23.4539L56.4409 23.7679L56.4469 23.8439L56.4509 23.8819L56.4529 23.8999L56.4539 23.9059V23.9079C60.4599 22.5299 57.5639 23.5249 58.4579 23.2179L58.4569 23.2169L58.4519 23.2119L58.3689 23.1299Z" fill="white"/>
<path d="M56.8799 22.7269C57.2089 23.3799 57.4429 22.8459 57.6969 23.5449C57.7439 23.1269 57.5069 23.1959 57.1919 22.6119L57.2689 23.0319L56.8799 22.7269Z" fill="white"/>
<path d="M58.1473 19.118C58.3403 18.674 58.7143 17.609 58.5073 17.426C58.5203 17.35 58.3553 17.383 58.5133 17.165C58.3953 17.595 57.9053 18.768 58.1473 19.118Z" fill="white"/>
<path d="M58.3705 21.5654C58.4775 21.3324 58.5595 21.0844 58.6995 20.7154C58.5735 20.9364 58.3605 21.1924 58.3705 21.5654Z" fill="white"/>
<path d="M58.8047 18.7893C58.9327 18.9753 59.0107 18.4523 59.0677 18.3303L59.1137 18.0283C58.9647 18.2443 58.8037 18.5373 58.8047 18.7893Z" fill="white"/>
<path d="M60.1477 14.8236C60.4187 14.1756 59.6007 15.2886 59.9727 14.5536L59.7207 14.9486L59.8797 15.2896L60.1477 14.8236Z" fill="white"/>
<path d="M60.4541 13.7429C60.6051 13.6189 60.7241 13.4629 60.8561 13.1309L60.6711 13.2169C60.5691 13.2959 60.5921 13.5129 60.4541 13.7429Z" fill="white"/>
<path d="M60.5527 14.9586C60.7667 14.7186 60.6227 14.6626 60.6777 14.4426C60.5417 14.4896 60.3707 15.2306 60.5527 14.9586Z" fill="white"/>
<path d="M59.0126 15.6273C58.6416 15.6963 58.9946 15.3513 59.0926 14.7443C59.3956 14.0793 59.9706 13.5993 60.3286 12.9893L60.6796 12.7383C60.2946 13.5083 59.6126 14.8383 59.0126 15.6273Z" fill="white"/>
<path d="M57.6014 15.217C57.7614 14.659 58.2774 14.178 58.4734 13.837C58.1784 14.443 57.7504 15.187 57.5614 15.62C57.4814 15.631 57.5724 15.366 57.6014 15.217Z" fill="white"/>
<path d="M62.712 3.90402C63.101 5.10702 63.217 6.97202 62.605 8.09602C62.644 7.50202 62.585 7.47602 62.647 6.58202C62.209 7.19402 62.483 7.93002 62.329 8.74302C62.385 8.08302 62.081 8.86902 61.843 9.30702C61.678 10.342 60.781 11.926 60.185 12.643C59.806 12.966 59.136 14.526 58.969 14.081C58.593 14.683 58.77 14.951 58.576 15.459C57.473 16.596 57.926 18.4 56.907 19.643C57.133 19.654 56.828 20.392 56.734 20.692L56.723 20.723C56.659 20.051 56.866 22.225 56.58 19.218L56.581 19.22L56.582 19.222L56.584 19.226L56.589 19.233L56.598 19.249L56.636 19.315L56.719 19.459L56.9 19.784L57.246 20.477C57.442 20.92 57.529 21.276 57.273 21.239C56.934 21.427 56.398 18.819 56.369 20.325C56.392 19.635 56.241 19.923 56.037 20.381C56.077 19.456 56.517 21.068 56.334 20.886C56.295 20.676 55.984 20.791 55.793 20.208C56.262 21.398 55.217 20.02 55.346 20.719C54.893 18.591 55.396 19.185 55.085 18.087C55.499 17.284 55.687 17.699 55.938 17.557C56.464 16.802 56.434 15.906 56.89 15.251C56.13 15.438 57.158 13.778 57.648 12.977C58.252 11.916 58.253 12.96 58.877 11.841C58.998 11.108 57.918 12.696 58.129 11.779L58.53 11.355C58.904 11.192 59.279 11.138 59.643 10.879C59.793 10.661 60.015 10.335 59.957 10.263C59.601 10.626 59.516 10.347 59.744 9.78902C59.73 9.96302 59.893 9.66902 59.971 9.68502C60.137 10.973 60.383 8.70102 60.944 8.15602C61.776 6.10502 60.573 6.89402 60.704 5.06502C61.353 5.51902 60.71 3.71402 60.453 3.09102C60.141 2.65302 59.888 2.62002 59.58 2.57502C59.527 2.44102 59.205 2.18702 59.209 2.04602C59.673 1.43502 61.472 1.50002 62.72 3.76902L62.712 3.90402Z" fill="white"/>
<path d="M53.7022 19.7579C58.3762 20.5809 62.0052 24.4089 61.9732 34.3429C61.9732 34.3429 60.6112 48.4299 50.1622 45.7929C50.1622 45.7929 49.5782 45.6679 48.6022 45.2509L48.1592 45.0519C57.9912 46.9259 59.2952 33.4519 59.2952 33.4519C59.3192 25.5239 57.0122 21.4839 53.7032 19.7569" fill="white"/>
<path d="M55.9733 39.7517L56.0263 39.5697L55.7793 40.1407C55.8383 40.2137 56.0703 39.9807 56.2103 39.6457C56.1203 39.6697 55.9513 39.9687 55.9733 39.7517Z" fill="white"/>
<path d="M49.6801 45.7366C49.5551 45.4486 50.1521 45.0206 50.8081 44.6396L50.5221 44.1596C50.2821 44.2966 49.9061 44.3996 49.4881 44.3156L48.8501 44.2266L48.5331 44.1806L48.3801 44.1596L48.3041 44.1496L48.2851 44.1476H48.2801C48.6281 42.5736 47.8051 46.2916 47.8901 45.9096L47.8921 45.9106H47.8941L47.9031 45.9156L47.9411 45.9326C48.0101 45.9916 47.9951 46.0096 47.9451 46.0116L47.9031 46.0096L47.8781 46.0066L47.8651 46.0056H47.8621H47.8601V46.0046C47.4721 47.7546 48.3871 43.6206 48.2941 44.0466L48.3011 44.0446L48.4021 44.0226C48.4661 44.0076 48.5141 43.9916 48.5001 43.9666L48.4271 43.9236L48.3431 43.8976L48.3171 43.8896L48.3151 43.8886L48.3141 43.8896C48.7631 41.8646 47.7031 46.6466 47.8131 46.1536L47.8141 46.1546L47.8171 46.1566L47.8241 46.1616L47.8391 46.1706L47.9041 46.2106C48.0141 46.1816 47.9871 46.0346 48.1671 46.0646C48.8931 46.4706 48.3381 46.7976 50.1311 47.1656L50.7491 47.0236C53.6261 47.7716 57.4161 47.0226 59.3811 44.0816C59.9191 43.8066 60.8511 42.3156 61.3761 41.4196L61.2771 41.3236C61.7411 40.9046 61.8791 39.8006 62.1441 39.1156L62.2281 38.4266C62.1341 38.1126 61.5411 40.1756 61.4401 39.4666C61.7461 38.1016 62.4331 37.3456 62.4621 36.0876C62.6181 34.8616 62.7501 35.2216 62.8841 34.2126C63.0091 33.9016 63.0111 34.6116 63.1491 34.5356C63.0781 31.5496 62.5951 31.7106 62.2471 29.3716C62.3401 29.2766 62.2971 27.3456 62.7281 29.0386L62.7301 29.8916L62.9601 30.4306C62.8651 29.7866 62.6631 28.6116 62.8271 28.7106C62.4001 28.0066 62.0181 24.1596 61.9311 26.2086C62.3621 27.2216 62.4831 27.5506 62.3821 28.3086C61.8371 25.8946 60.8521 23.8956 59.6141 22.4056L59.4021 21.7746C59.2531 21.8816 58.5391 21.3126 57.7901 20.8786C57.5191 20.5976 57.1281 20.3106 57.2661 20.2776C57.1981 19.9926 59.8531 22.2836 58.8301 20.8816C57.1581 19.3386 54.9731 19.0706 53.7791 19.1316C54.6141 19.4676 55.3001 19.4076 56.0431 20.2006C58.9331 21.6576 61.0971 25.1786 61.3171 28.7106C61.4781 28.7946 61.6791 29.6946 61.7811 29.3876C61.9331 29.6896 61.9651 30.5986 62.2101 30.8106C62.3481 33.5616 62.1191 36.8756 61.1751 39.1376C61.0761 38.3416 60.4491 40.3896 60.0011 40.8676C59.8581 41.5106 59.2711 42.3916 58.7891 42.9636C58.6931 42.9786 58.3971 43.3316 58.3921 43.1536C58.7531 42.7496 58.8141 42.5216 59.1171 42.0446C58.7481 41.9966 58.4671 43.0686 57.8621 43.6236L58.2611 43.4526C57.4201 44.5396 56.1551 45.8536 54.9311 45.9356C55.2421 45.7906 55.5021 45.4766 55.7741 45.2626C54.4771 45.8256 52.7021 46.3256 51.6791 45.7976C52.6041 45.8166 54.1761 45.8906 54.0811 45.4126C54.0031 45.2646 52.9871 45.3516 52.4871 45.4286C51.4301 45.5946 50.3891 45.3086 49.5751 44.9236L48.9361 44.6106L48.6201 44.4566L48.4551 44.3796L48.4141 44.3596L48.3931 44.3506L48.3821 44.3456C48.2381 44.9926 48.7021 42.8966 48.0591 45.7966H48.0611L48.0641 45.7976H48.0691L48.1631 45.8066C48.6621 45.8516 49.1711 45.8426 49.6801 45.7366Z" fill="white"/>
<path d="M49.8975 44.411C51.5395 44.799 50.6495 45.237 52.3345 45.381C52.1365 45.16 52.9405 44.945 53.4735 44.92C53.9925 44.95 54.6015 44.742 55.0255 44.587C55.2935 44.391 55.1865 44.206 54.6315 44.379C53.2885 45.382 51.3095 44.349 49.8975 44.411Z" fill="white"/>
<path d="M48.2349 45.0697C48.8119 45.3717 48.8309 44.8177 49.5859 45.2397C49.2909 44.8467 49.1159 45.0727 48.3269 44.7167L48.7369 45.0637C48.5909 45.0807 48.1619 44.9667 48.2349 45.0697Z" fill="white"/>
<path d="M60.5189 33.8512C60.5059 33.0022 60.4959 32.7782 60.5689 32.3762L60.6589 32.6052C60.6079 33.0462 60.6339 33.1002 60.5189 33.8512Z" fill="white"/>
<path d="M58.3634 22.3052C59.1984 23.6212 60.0294 25.6922 60.0314 27.4412C59.7964 26.6982 59.7304 26.7032 59.3814 25.5602C59.2444 26.5622 59.8974 27.3282 60.0434 28.4082C59.8594 27.5592 59.8504 28.7322 59.9124 29.4652C60.1264 30.7432 60.4194 33.1672 59.9444 35.0972C59.7104 35.8782 59.1374 38.5182 58.9014 37.9872C58.4954 39.0382 58.6804 39.3182 58.3894 40.1442C57.0384 42.0542 56.5324 44.8342 53.8614 45.6882C54.1034 45.8722 52.8934 46.4242 52.3944 46.5182C51.3244 46.9912 48.7924 46.8732 49.3804 46.4052C50.0494 46.1662 51.5384 46.6142 52.5494 45.9072C54.2194 44.9072 50.6344 46.2912 50.5714 45.6602C50.8324 45.6952 50.9454 45.3742 51.7144 45.3512C50.0994 45.4382 52.2974 44.7772 51.4554 44.6802C53.0954 43.9652 52.9054 43.8792 53.4654 43.0332C54.3104 42.5092 54.2574 42.9662 54.6014 42.9492C55.6054 42.3122 55.9044 41.1882 56.5034 40.3352C55.6704 40.6572 57.0484 38.5592 57.4054 37.2682C57.8644 35.6402 58.0644 36.9312 58.4504 35.1152C58.3974 34.1602 57.6934 36.8012 57.6924 35.5482L57.9814 34.7802C58.2944 34.3542 58.6474 33.8992 58.8584 33.4082C58.8474 33.0102 58.8314 32.4122 58.7464 32.4002C58.6844 33.1822 58.4684 32.9402 58.3214 32.1432C58.3954 31.7642 58.4134 31.6682 58.4924 31.4812C59.1674 33.0252 58.4704 29.8102 58.5934 28.6532C58.3744 25.3192 57.6934 27.1472 56.8314 24.3262C57.7214 24.8002 56.1694 22.3952 55.5724 21.6332C54.9714 21.1222 54.7064 21.0122 54.1714 20.9322C54.0274 20.7652 53.5544 20.4222 53.5184 20.2632C54.0734 19.7602 56.2824 19.8092 58.3244 22.1432C58.3534 22.2252 58.3764 22.2972 58.3634 22.3052Z" fill="white"/>
<path d="M2.3768 7.64832C2.3488 5.66432 1.6818 6.51432 2.3698 4.61032C2.4168 4.92732 2.9498 4.17232 3.3608 3.84932C3.6628 3.44632 4.4438 3.25132 4.8498 2.99432C5.1688 2.87032 5.1728 3.17132 4.6098 3.48132C2.7228 3.51732 2.4028 6.02832 2.3768 7.64832Z" fill="white"/>
<path d="M1.83017 9.9043C1.35817 8.7603 2.01117 9.0273 1.65717 7.9183C2.01517 8.3443 1.67817 8.5763 2.06017 9.6043L1.73517 9.0593L1.83017 9.9043Z" fill="white"/>
<path d="M4.9502 2.53116C5.5392 2.34016 6.9952 2.42516 6.9982 2.68816C7.0852 2.71816 6.9272 2.84516 7.2642 2.86816C6.7532 2.69816 5.2532 2.82616 4.9502 2.53116Z" fill="white"/>
<path d="M1.94531 3.27124C2.15931 2.89524 2.49431 2.39024 3.06331 2.13524C2.70431 2.32724 2.34031 2.85624 1.94531 3.27124Z" fill="white"/>
<path d="M10.9829 3.74217C11.8149 4.23117 9.9909 3.58117 10.9999 4.09717L10.4039 3.85017L10.2959 3.42517L10.9829 3.74217Z" fill="white"/>
<path d="M11.3451 3.40007C11.8061 3.52807 11.6631 3.70007 11.8981 3.91907C11.7241 3.86707 10.9051 3.21307 11.3451 3.40007Z" fill="white"/>
<path d="M5.15568 40.2144C4.64268 39.0814 5.22568 39.3004 4.72168 38.2134C5.08868 38.6014 4.93668 38.8474 5.35768 39.8804L4.99868 39.3514L5.15568 40.2144Z" fill="white"/>
<path d="M3.17183 33.7096C3.13983 33.2426 3.15083 32.7646 3.16783 32.0496C3.19883 32.5226 3.28983 33.0946 3.17183 33.7096Z" fill="white"/>
<path d="M1.90723 13.4807C2.24923 13.5517 2.45823 14.1507 2.80723 14.5867C2.45623 14.1497 2.22423 14.0417 1.90723 13.4807Z" fill="white"/>
<path d="M4.62397 12.2444C4.54197 11.9684 4.31897 11.7584 4.16797 11.6584L4.17997 11.8334L4.62397 12.2444Z" fill="white"/>
<path d="M7.52498 41.1767C7.83498 41.7117 8.40598 42.6277 8.17598 42.6147L8.17198 42.8007C7.80698 42.3767 6.75098 40.3717 7.52498 41.1767Z" fill="white"/>
<path d="M8.08391 40.5577C8.28291 41.0417 8.05591 40.7327 7.95891 40.6927L7.64191 40.0557C7.61891 39.8137 7.91091 40.3257 8.08391 40.5577Z" fill="white"/>
<path d="M10.2243 44.8635C9.67128 44.7285 8.62928 43.8345 8.75928 43.5495C8.70428 43.4825 8.88828 43.4375 8.61328 43.3055C8.93328 43.7195 10.1063 44.4635 10.2243 44.8635Z" fill="white"/>
<path d="M12.5875 46.5486C12.2405 46.5766 11.8805 46.6406 11.3555 46.4876C11.7085 46.5466 12.1335 46.4246 12.5875 46.5486Z" fill="white"/>
<path d="M9.36198 45.0605C9.37898 45.3395 8.88698 44.8675 8.75798 44.7395L8.50098 44.4415C8.81298 44.5815 9.14498 44.8635 9.36198 45.0605Z" fill="white"/>
<path d="M6.17823 40.7103C5.81323 39.8573 6.83523 41.3833 6.34323 40.4203L6.67023 40.9323L6.54623 41.3293L6.17823 40.7103Z" fill="white"/>
<path d="M5.80585 39.2761C5.65385 39.0611 5.53585 38.8121 5.42285 38.3421L5.61185 38.5351C5.71285 38.6771 5.67285 38.9301 5.80585 39.2761Z" fill="white"/>
<path d="M5.74124 40.7754C5.48724 40.3914 5.64324 40.3654 5.57324 40.0644C5.71824 40.1694 5.96124 41.1844 5.74124 40.7754Z" fill="white"/>
<path d="M2.49023 36.8557C2.82323 37.2677 2.93923 38.2827 3.30423 39.1677C2.95223 38.2877 2.70823 37.9407 2.49023 36.8557Z" fill="white"/>
<path d="M6.65245 40.1862C7.10645 40.4672 6.60145 39.7902 6.48445 38.8482C6.10745 37.7312 5.58745 36.6182 5.35045 35.4442L5.06445 34.7652C5.18745 36.2142 5.79545 38.7052 6.65245 40.1862Z" fill="white"/>
<path d="M8.20873 40.1538C7.94373 39.3778 7.37473 38.5168 7.17773 37.9428C7.46773 38.9128 7.99373 40.0988 8.33873 40.6948C8.43373 40.7278 8.27173 40.3548 8.20873 40.1538Z" fill="white"/>
<path d="M31.8987 26.2811C31.8987 26.2811 12.9517 -4.92387 2.97469 2.75913C2.97469 2.75913 -0.471312 5.27513 2.35669 11.3481C2.35669 11.3481 7.86969 19.2201 7.97469 23.9421L31.8987 26.2811Z" fill="#083783"/>
<path d="M8.67068 21.5417C8.44968 20.8327 8.11168 19.6527 8.33068 19.7647L8.37668 19.5777C8.62368 20.1147 9.26368 22.7547 8.67068 21.5417Z" fill="white"/>
<path d="M7.99368 21.9607C7.89068 21.3647 8.05568 21.7877 8.14468 21.8697L8.29568 22.7087C8.26368 22.9777 8.08368 22.2937 7.99368 21.9607Z" fill="white"/>
<path d="M6.38077 22.1975L6.39877 22.4115C6.37977 22.1985 6.31577 21.8965 6.25977 21.7055C6.33377 21.6525 6.52077 21.9965 6.59777 22.4085C6.51177 22.3435 6.39977 21.9595 6.38077 22.1975Z" fill="white"/>
<path d="M2.9157 11.3302C2.6267 11.3832 2.7477 12.2632 3.0387 13.2102L2.5197 13.2242C2.3347 12.6882 1.3857 11.2882 1.0427 10.0672C0.798695 9.66119 1.3067 11.1962 0.803695 10.1002C0.814695 9.94619 0.947695 9.99519 0.898695 9.74219C0.586695 8.69819 0.200695 9.42019 0.137695 6.76419L0.376695 5.89419C0.925695 0.705192 6.4037 -0.679808 9.2457 0.737192C9.9067 0.587192 11.4167 1.49319 12.4107 1.80319L12.3767 1.95219C12.9707 2.05619 13.6917 2.90319 14.3147 3.28719L14.7917 3.79119C14.9007 4.11719 13.1847 2.83219 13.5217 3.47719C14.6037 4.38619 15.5427 4.62619 16.3557 5.59319C17.2257 6.38719 17.1857 6.19419 17.7597 6.63019C17.9737 6.64119 17.6667 6.34719 17.8117 6.26319C19.7857 8.03219 19.4287 8.74419 21.0367 10.4142C21.1657 10.3812 22.6127 11.5382 21.5407 10.1142L20.8887 9.61719L20.6017 9.07419C21.0407 9.54419 21.8327 10.4272 21.8407 10.2002C22.0797 11.2342 25.0277 13.2162 23.3627 12.4472C22.7377 11.5052 22.5137 11.2782 21.9197 10.8982C23.5087 12.8212 24.7377 14.6912 25.9807 16.3252L26.4987 16.6412C26.3697 16.8432 26.8617 17.7602 27.4037 18.5932C27.6927 18.8932 27.9877 19.3612 27.9927 19.1702C28.2187 19.2122 25.9237 16.2192 27.2547 17.3462C28.5637 19.2552 29.7877 21.4232 30.3747 22.8722C29.7287 22.0222 29.3517 21.3232 28.4777 20.6172C26.0707 17.6922 23.7167 14.2402 21.0897 11.7832C21.1017 11.5582 20.4887 10.8022 20.7847 10.8832C20.6257 10.5452 19.9207 9.95719 19.8887 9.58619C17.8417 7.69719 15.5267 5.35519 13.4857 3.93919C13.8597 4.71619 12.1447 3.33219 11.4927 3.17519C10.9947 2.74019 9.9897 2.32319 9.2637 2.03319C9.1617 2.08619 8.6887 2.01019 8.7777 2.15619C9.3487 2.19619 9.5097 2.42219 10.0327 2.71419C9.7367 2.86019 8.8917 2.18619 8.0327 2.04719L8.5007 1.97019C7.1807 1.55819 5.2377 0.969193 4.0857 2.01019C4.4737 1.96919 4.8127 1.77019 5.1997 1.87719C3.7347 2.36619 1.6657 3.38619 1.7277 5.13519C2.0567 3.92919 3.3347 2.49119 3.5697 3.04019C3.5237 3.18519 2.7297 3.87919 2.4097 4.41619C0.854695 6.76519 2.4677 9.18919 2.9157 11.3302Z" fill="white"/>
<path d="M12.1455 4.79682C12.4085 4.88482 12.6615 5.02382 13.0455 5.36182L12.7645 5.31982C12.5895 5.26182 12.4705 5.01182 12.1455 4.79682Z" fill="white"/>
<path d="M16.3338 4.54211C15.8098 4.47711 15.1768 3.64111 14.3438 3.19311C15.1737 3.64011 15.5078 3.83411 16.3338 4.54211Z" fill="white"/>
<path d="M13.3281 22.9582C13.7201 23.0922 14.1941 23.0592 14.4771 23.0082L14.2751 22.8912L13.3281 22.9582Z" fill="white"/>
<path d="M9.28321 23.0837C9.11621 22.7837 9.09321 22.9137 9.09721 23.2547L9.10221 23.5507L9.10421 23.7237L9.10521 23.8147V23.8617L9.10621 23.8857L9.10521 23.8977V23.9037V23.9067C9.33121 24.1917 7.14021 21.4267 8.06821 22.5967L8.06921 22.5977L8.63721 22.7737C9.70121 22.9417 10.8332 22.7897 11.8942 22.9077L12.5512 22.7897C11.9212 22.6717 11.0512 22.5337 10.1472 22.4267L8.79221 22.2957L8.14521 22.2607L8.10621 22.2587H8.09621H8.09121C8.67121 22.9897 6.79421 20.6217 9.38921 23.8977V23.8927L9.38621 23.8627L9.37221 23.7467L9.34421 23.5197L9.28321 23.0837Z" fill="white"/>
<path d="M7.76958 22.3424L7.96958 23.8504C8.25658 24.0124 8.76358 23.8744 9.01958 23.9354C7.58458 24.3264 8.19758 22.5014 7.76658 21.7084C7.67858 21.6334 7.77558 22.0934 7.76958 22.3424Z" fill="white"/>
<path d="M23.6068 23.7809C22.2618 23.6629 20.4128 23.2269 18.9088 23.4959C19.5878 23.6309 19.5958 23.7319 20.6598 23.8999C19.8298 24.2539 19.0188 23.6809 18.0578 23.5969C18.8348 23.7649 17.7928 23.8499 17.1208 23.8159C15.8618 23.5809 13.8448 23.4289 12.1138 23.2779C11.3588 23.3619 8.93182 22.8749 9.25582 23.3289C8.72782 23.2959 8.43282 23.1949 8.17282 23.0809C9.32082 24.7709 8.58582 22.9589 8.81782 22.8599C7.88682 20.0049 7.90982 17.4159 6.09382 15.0439C6.36082 15.0669 5.62082 13.7999 5.34082 13.3039C4.74282 12.2119 3.12682 9.77192 3.17182 10.6019C3.44882 11.4959 4.69182 12.5919 5.12782 13.8959C5.89782 16.0859 3.82882 12.0189 3.49482 12.2779C3.71482 12.5009 3.56482 12.8649 4.15482 13.6109C2.95582 11.9799 4.27982 14.6049 3.55682 13.8649C4.56882 16.0049 4.44582 15.8339 4.61682 17.1509C5.30682 18.3309 5.39282 17.8069 5.72182 18.0609C6.51882 19.3149 6.59082 20.6329 7.01982 21.8029C6.61282 21.4479 6.70982 22.0059 6.81782 22.7769L6.90582 23.3869L6.93182 23.6979L6.94782 23.8549L6.95582 23.9339L6.96082 23.9739C8.82282 26.3239 7.47782 24.6259 7.89382 25.1509H7.89582H7.90082L7.91082 25.1519L7.93182 25.1529C8.36682 25.1899 8.79282 25.2199 9.12982 25.2499C10.8638 25.4499 9.75382 24.7269 11.5868 24.9619C12.4788 25.3659 9.69782 25.1979 10.8798 25.6529L11.7348 25.6019C12.2918 25.3999 12.7438 25.1129 13.4028 24.9959C13.7868 25.0289 14.3638 25.0789 14.3718 25.1799C13.6108 25.2149 13.8248 25.4839 14.6068 25.7019C14.9828 25.6349 15.0768 25.6179 15.2598 25.5339C13.7578 24.6759 16.8928 25.6519 18.0118 25.3489C21.2348 25.0779 19.6218 26.3419 22.7708 26.3409C21.8528 25.6339 24.8608 26.2229 25.8988 26.0879C26.7668 26.1889 27.0698 26.3909 27.6628 26.6439C27.9068 26.5989 28.5788 26.6299 28.6888 26.5209C28.2608 25.6519 26.3008 24.6809 23.7408 23.7459C23.6688 23.7549 23.6068 23.7629 23.6068 23.7809Z" fill="white"/>
<path d="M31.949 26.4836C31.949 26.4836 3.46103 6.59059 3.54903 34.3436C3.54903 34.3436 4.91203 48.4306 15.36 45.7926C15.36 45.7926 25.776 43.5736 31.949 26.4836Z" fill="#083783"/>
<path d="M14.8758 44.6063C14.3528 44.7443 13.4388 44.8103 13.5788 44.5843L13.4668 44.4783C13.8998 44.4163 15.7408 44.1313 14.8758 44.6063Z" fill="white"/>
<path d="M15.1492 45.4673C14.6532 45.4783 15.0162 45.3633 15.0882 45.2773L15.7352 45.1323C15.9462 45.1583 15.4352 45.4053 15.1492 45.4673Z" fill="white"/>
<path d="M6.39705 41.6147C6.09605 41.6597 6.16605 42.5397 6.59505 43.5077L6.06405 43.5527C5.73205 42.8117 4.87305 41.5927 4.39305 40.4797C4.12005 40.1047 4.74105 41.5797 4.15905 40.5447C4.16105 40.3877 4.28605 40.4237 4.23105 40.1687C3.78005 39.2247 3.58005 39.9357 3.01005 37.6157L3.01405 36.7837C2.18405 32.5287 2.44905 28.3057 4.13505 24.6237C4.15105 23.8117 5.30805 22.0987 6.05205 21.0937L6.15405 21.1837C6.51005 20.4927 7.55205 19.9797 8.23805 19.5677L8.91705 19.3647C9.20805 19.3987 7.21605 20.5087 7.91205 20.4977C9.19205 19.8287 10.004 19.0387 11.229 18.9657C12.38 18.8397 12.229 18.6567 12.94 18.5377C13.117 18.3747 12.699 18.4047 12.763 18.2247C15.398 18.0317 15.476 18.9027 17.656 19.1967C17.75 19.0697 19.545 19.1927 17.947 18.6157L17.141 18.6297L16.624 18.3647C17.237 18.4607 18.352 18.6917 18.247 18.5067C18.958 19.1737 22.437 19.1847 20.625 19.4847C19.648 19.0547 19.348 18.9807 18.646 19.0567C20.937 19.6727 22.819 20.6467 24.589 21.4457L25.187 21.4467C25.151 21.6917 25.958 22.2497 26.766 22.7327C27.139 22.8687 27.591 23.1257 27.523 22.9557C27.746 22.8817 24.51 21.3417 26.152 21.6797C28.087 22.7277 30.015 24.1047 31.062 25.1807C30.169 24.6867 29.559 24.2517 28.505 24.0247C25.236 22.5647 21.727 20.7257 18.338 20.3367C18.247 20.1317 17.375 19.8677 17.664 19.7537C17.366 19.5817 16.49 19.5437 16.277 19.2767C13.646 19.1497 10.41 19.2277 8.24005 20.7667C8.98905 20.7287 7.07805 21.8587 6.77505 22.6427C6.20205 22.9997 5.57605 24.0797 5.21305 24.9047C5.22805 25.0347 5.02705 25.5607 5.17405 25.4927C5.39305 24.8587 5.54905 24.6737 5.93305 24.1517C5.99305 24.5377 5.25205 25.3747 4.88805 26.3367L4.93905 25.7677C4.34305 27.3227 3.41105 29.2967 3.57605 30.9517L3.98105 29.6597C3.90405 31.5667 3.25005 34.0657 3.91105 35.3957C3.66405 34.1397 3.79905 31.9937 4.06805 32.0447C4.25505 32.1387 4.20105 33.6207 4.10105 34.3267C4.15505 37.2687 5.63105 39.2757 6.39705 41.6147Z" fill="white"/>
<path d="M5.37913 37.7444C4.74313 35.4704 4.51813 36.7694 4.16113 34.4454C4.33713 34.6734 4.49813 33.7904 4.55213 32.8844C4.43713 32.1034 4.62513 31.2064 4.69013 30.5454C4.77513 30.0984 4.99713 30.2094 4.91313 31.0824C4.20913 33.3364 4.97913 35.6294 5.37913 37.7444Z" fill="white"/>
<path d="M4.40625 30.2192C4.47325 29.4312 4.93425 27.6762 5.22625 27.7512C5.27725 27.6542 5.34425 27.8792 5.42225 27.4662C5.11125 28.0272 4.75225 29.9792 4.40625 30.2192Z" fill="white"/>
<path d="M4.10709 29.0913C3.89409 29.1993 4.19309 28.4053 4.23409 28.1813L4.40909 27.7373C4.35409 28.1923 4.27909 28.7573 4.10709 29.0913Z" fill="white"/>
<path d="M7.03555 23.3999C7.71455 22.6999 6.56055 24.3879 7.32155 23.5139L6.92055 24.0459L6.56055 24.0409C6.68355 23.7889 6.87855 23.6149 7.03555 23.3999Z" fill="white"/>
<path d="M8.23438 22.574C8.38537 22.312 8.61438 22.15 9.03438 21.955L8.87138 22.207C8.75438 22.353 8.49937 22.302 8.23438 22.574Z" fill="white"/>
<path d="M6.89615 22.886C7.17215 22.429 7.22215 22.613 7.49315 22.465C7.38315 22.616 6.60115 23.315 6.89615 22.886Z" fill="white"/>
<path d="M10.5216 18.2928C10.0876 18.6848 9.05859 18.8738 8.18359 19.4888C9.05459 18.9258 9.42159 18.5618 10.5216 18.2928Z" fill="white"/>
<path d="M20.8242 41.1392C21.1832 40.9482 21.5162 40.5662 21.6932 40.3192L21.4802 40.3802L20.8242 41.1392Z" fill="white"/>
<path d="M15.8505 43.9414C15.5515 44.3894 16.1655 44.0304 16.9605 43.9134C17.9465 43.5384 18.8135 42.7024 19.6995 42.1024L20.1485 41.5534C19.0825 42.2764 17.1445 43.3154 15.8505 43.9414Z" fill="white"/>
<path d="M15.4534 45.76C16.2764 45.686 17.2024 45.026 17.7334 44.75C16.8154 45.176 15.6034 45.64 14.9164 45.685C14.8414 45.77 15.2434 45.761 15.4534 45.76Z" fill="white"/>
<path d="M27.609 32.5046C26.912 33.8496 25.626 35.3766 24.899 36.8996C25.381 36.3446 25.486 36.4336 26.186 35.4996C25.976 36.5196 25.079 36.9186 24.452 37.7426C25.052 37.1586 24.451 38.1436 23.981 38.7056C23.028 39.6766 21.503 41.1946 20.051 42.2496C19.514 42.9036 17.258 43.8926 17.706 44.0866C16.754 44.5856 16.52 44.3426 15.791 44.5116C13.65 45.5686 11.871 44.3466 9.85498 43.9416C10.037 43.8256 9.12498 43.2316 8.78998 42.9496C8.02098 42.3816 6.72898 40.2146 6.70898 40.9306C6.84798 41.8456 8.08598 42.6476 8.72898 43.5466C9.95898 45.1406 7.09598 42.5216 6.96998 42.5126C7.19698 42.6936 7.04898 43.1256 7.77698 43.6616C6.29198 42.4046 8.10098 44.6046 7.24598 44.0766C8.86898 45.8786 8.77098 45.6256 9.68798 46.6716C11.061 47.0966 10.762 46.5126 11.167 46.4406C12.555 46.5286 13.677 46.9176 14.88 46.5756C14.019 47.4606 17.084 46.7106 18.35 45.8526C20.046 44.9346 18.722 45.0376 20.44 43.9976C21.42 43.7016 18.883 45.5016 20.14 45.0566L20.876 44.4086C21.249 43.8116 21.508 43.2906 21.958 42.6566C22.281 42.3756 22.764 41.9536 22.828 42.0236C22.242 42.6526 22.561 42.7026 23.306 42.2106C23.554 41.8336 23.614 41.7396 23.703 41.5196C22.084 42.2096 25.014 40.2066 25.549 38.9116C27.387 35.6236 27.277 37.9686 29.058 34.6516C28.063 35.2746 30.085 32.3726 30.367 31.1086C30.811 30.1816 31.129 29.9436 31.53 29.3436C31.587 29.0456 31.857 28.2806 31.812 28.1166C30.982 28.3116 29.538 30.2056 27.646 32.3516C27.619 32.4286 27.596 32.4956 27.609 32.5046Z" fill="white"/>
<path d="M6.09546 1.55814C4.98846 1.63714 3.94046 2.01714 2.97646 2.76014C2.97646 2.76014 -0.470541 5.27514 2.35746 11.3481C2.35746 11.3481 7.87046 19.2201 7.97446 23.9421L10.0975 20.1361C8.67746 15.6541 5.03746 10.4571 5.03746 10.4571C2.20846 4.38614 5.65546 1.87014 5.65546 1.87014C5.80046 1.75814 5.94646 1.65414 6.09546 1.55814Z" fill="white"/>
<path d="M7.15872 16.1172C7.37272 16.4282 7.60672 17.0572 7.41172 17.0632L7.35872 17.1952C7.22672 16.9002 6.61572 15.7002 7.15872 16.1172Z" fill="white"/>
<path d="M7.75297 15.5547C7.85797 15.8917 7.70097 15.6907 7.62097 15.6787L7.41797 15.2627C7.41897 15.0857 7.64797 15.3937 7.75297 15.5547Z" fill="white"/>
<path d="M9.19345 14.7188L9.16145 14.5658L9.33745 15.0388C9.27145 15.1008 9.07745 14.9208 8.98145 14.6468C9.06345 14.6598 9.19145 14.9038 9.19345 14.7188Z" fill="white"/>
<path d="M8.83655 21.4462C8.99755 21.7012 9.52255 21.5592 9.99955 21.2302L10.2475 21.6952C9.87055 21.9302 9.55455 22.7462 9.23855 23.3302C9.18655 23.6102 9.65355 22.8852 9.41255 23.5152C9.32555 23.5382 9.26355 23.4222 9.16255 23.5162C9.06755 23.8072 9.12555 23.9412 9.12255 24.1332C9.12055 24.2292 9.10255 24.3402 9.04155 24.4922L8.98755 24.6142L8.95455 24.6822L8.94555 24.7002L8.94055 24.7092C4.69555 23.2482 7.76355 24.3042 6.81655 23.9782V23.9772L6.81555 23.9752L6.81455 23.9712L6.81155 23.9362L6.79455 23.6032L6.96755 23.2142C6.62955 21.2242 5.40355 19.3502 4.67355 17.4462C4.32755 17.2592 3.89755 16.3022 3.47555 15.8512L3.57155 15.7532C3.21355 15.5882 3.12755 14.8802 2.86955 14.5192L2.75855 14.0922C2.84655 13.8132 3.43455 15.0042 3.49955 14.4802C3.19355 13.6132 2.50555 13.4482 2.28055 12.6752C1.89755 11.9482 1.93255 12.4302 1.49255 11.7082C1.33355 11.6572 1.44155 11.9342 1.29455 11.9692C0.589549 10.2042 1.03055 9.92823 0.735549 8.30123C0.621549 8.28623 0.130549 6.93123 0.190549 8.24923L0.426549 8.83723L0.363549 9.29823C0.269549 8.81923 0.132549 7.92923 0.00654905 8.05423C0.257549 7.44123 -0.303451 4.40623 0.251549 5.97123C0.103549 6.81523 0.100549 7.11123 0.316549 7.62823C0.248549 5.70423 0.909549 4.05623 1.76955 2.91823L1.87955 2.39523C2.03555 2.55723 2.63255 2.09523 3.18755 1.94023C3.38855 1.76423 3.68755 1.61923 3.57455 1.54523C3.66055 1.20623 1.53655 2.80323 2.37155 1.64823C3.65255 0.837228 5.20255 0.654228 6.06355 0.926228C5.46155 1.11123 4.99355 1.14723 4.44455 1.60923C2.40555 2.43423 0.750549 5.15623 1.43355 7.56623C1.30255 7.66523 1.35655 8.30223 1.17755 8.14523C1.11555 8.39423 1.33255 8.98123 1.16355 9.22223C1.81255 11.0382 2.93355 12.8342 3.73155 14.1412C3.80655 13.5032 4.42055 14.7912 4.76055 15.0802C4.83255 15.5512 5.23855 16.1332 5.48755 16.6022C5.56855 16.6132 5.74455 16.8902 5.79555 16.7562C5.57155 16.4352 5.57455 16.2572 5.41555 15.8732C5.72155 15.8462 5.82355 16.6472 6.07255 17.2032L5.80355 17.0112C6.25855 17.9202 6.32555 19.2662 6.88855 19.9682L6.83455 19.1142C7.40555 20.1082 7.49255 21.6012 7.97055 22.3442C7.92055 21.5222 7.30755 20.3932 7.63755 20.2572C7.83455 20.2032 8.11855 21.0942 8.14855 21.5592C8.20255 22.0452 8.24255 22.5152 8.34755 22.9412L8.44655 23.6042C8.03455 23.5602 9.45055 24.1652 7.53755 23.5872L7.64855 23.3192C7.94655 22.6082 8.24655 21.9372 8.83655 21.4462Z" fill="white"/>
<path d="M7.15393 23.1299L7.12193 23.1889L7.10693 23.2179L7.09993 23.2319L7.09693 23.2389L7.09493 23.2419C10.9679 24.5749 8.16793 23.6109 9.03293 23.9079L9.03193 23.9069V23.9049L9.01493 23.7569L8.97593 23.5039L8.88393 23.1419C8.81693 22.9549 8.75193 22.8529 8.66993 22.7699C8.50793 22.5999 8.38193 22.4329 8.22693 21.6759C8.45893 21.8029 8.41693 21.0069 8.27393 20.5039C8.00893 20.0899 7.89593 19.4939 7.72293 19.1119C7.64993 18.8249 7.87193 18.7379 8.09293 19.2669C8.17293 20.0289 8.48193 20.7639 8.74893 21.5589L9.05993 22.7989L9.09393 23.4539L9.08193 23.7679L9.07593 23.8439L9.07193 23.8819L9.06993 23.8999L9.06893 23.9059V23.9079C5.06293 22.5299 7.95893 23.5249 7.06493 23.2179L7.06593 23.2169L7.07093 23.2119L7.15393 23.1299Z" fill="white"/>
<path d="M8.64231 22.7269C8.31331 23.3799 8.07931 22.8459 7.82531 23.5449C7.77831 23.1269 8.01431 23.1959 8.33031 22.6119L8.25331 23.0319L8.64231 22.7269Z" fill="white"/>
<path d="M7.37472 19.118C7.18172 18.674 6.80772 17.609 7.01472 17.426C7.00172 17.35 7.16672 17.382 7.00872 17.165C7.12672 17.595 7.61672 18.768 7.37472 19.118Z" fill="white"/>
<path d="M7.15127 21.5654C7.04427 21.3334 6.96227 21.0844 6.82227 20.7154C6.94827 20.9364 7.16127 21.1924 7.15127 21.5654Z" fill="white"/>
<path d="M6.71818 18.7893C6.59018 18.9753 6.51318 18.4523 6.45518 18.3303L6.40918 18.0283C6.55818 18.2443 6.71918 18.5373 6.71818 18.7893Z" fill="white"/>
<path d="M5.37451 14.8236C5.10351 14.1756 5.92151 15.2886 5.54951 14.5536L5.80151 14.9486L5.64251 15.2896L5.37451 14.8236Z" fill="white"/>
<path d="M5.06802 13.7429C4.91702 13.6189 4.79802 13.4629 4.66602 13.1309L4.85102 13.2169C4.95302 13.2959 4.93002 13.5129 5.06802 13.7429Z" fill="white"/>
<path d="M4.96973 14.9586C4.75573 14.7186 4.89973 14.6626 4.84473 14.4426C4.98073 14.4896 5.15173 15.2306 4.96973 14.9586Z" fill="white"/>
<path d="M6.5088 15.6273C6.8798 15.6963 6.5268 15.3513 6.4288 14.7443C6.1258 14.0793 5.5508 13.5993 5.1928 12.9893L4.8418 12.7383C5.2268 13.5083 5.9088 14.8383 6.5088 15.6273Z" fill="white"/>
<path d="M7.92083 15.217C7.76083 14.659 7.24483 14.179 7.04883 13.837C7.34383 14.443 7.77183 15.187 7.96083 15.62C8.04083 15.632 7.94983 15.366 7.92083 15.217Z" fill="white"/>
<path d="M2.81016 3.90402C2.42116 5.10702 2.30516 6.97202 2.91716 8.09602C2.87816 7.50202 2.93716 7.47602 2.87516 6.58202C3.31316 7.19402 3.03916 7.93002 3.19316 8.74302C3.13716 8.08302 3.44116 8.86902 3.67916 9.30702C3.84416 10.343 4.74116 11.926 5.33716 12.643C5.71616 12.966 6.38616 14.526 6.55316 14.081C6.92916 14.683 6.75216 14.951 6.94616 15.459C8.04916 16.596 7.59616 18.4 8.61516 19.643C8.38916 19.653 8.69416 20.392 8.78816 20.692L8.79916 20.723C8.86316 20.051 8.65616 22.225 8.94216 19.218L8.94116 19.22L8.94016 19.221L8.93816 19.226L8.93316 19.233L8.92416 19.249L8.88616 19.315L8.80316 19.459L8.62216 19.784L8.27616 20.477C8.08016 20.92 7.99316 21.276 8.24916 21.239C8.58816 21.427 9.12416 18.819 9.15316 20.325C9.13016 19.635 9.28116 19.923 9.48516 20.381C9.44516 19.456 9.00516 21.068 9.18816 20.886C9.22716 20.676 9.53816 20.791 9.72916 20.208C9.26016 21.398 10.3052 20.02 10.1762 20.719C10.6292 18.591 10.1262 19.185 10.4372 18.087C10.0232 17.284 9.83516 17.699 9.58416 17.557C9.05816 16.802 9.08816 15.906 8.63216 15.251C9.39216 15.438 8.36416 13.778 7.87416 12.977C7.27016 11.916 7.26916 12.96 6.64516 11.841C6.52416 11.108 7.60416 12.696 7.39316 11.78L6.99216 11.355C6.61816 11.191 6.24316 11.138 5.87916 10.879C5.72916 10.661 5.50716 10.335 5.56516 10.263C5.92116 10.626 6.00616 10.347 5.77816 9.78902C5.79216 9.96302 5.62916 9.66902 5.55216 9.68502C5.38516 10.973 5.13916 8.70102 4.57816 8.15602C3.74716 6.10502 4.94916 6.89402 4.81816 5.06502C4.16916 5.51902 4.81216 3.71402 5.07016 3.09102C5.38116 2.65302 5.63416 2.62002 5.94216 2.57502C5.99516 2.44102 6.31716 2.18702 6.31316 2.04602C5.84916 1.43502 4.05016 1.50002 2.80216 3.76902L2.81016 3.90402Z" fill="white"/>
<path d="M11.82 19.7579C7.14604 20.5809 3.51704 24.4089 3.54904 34.3429C3.54904 34.3429 4.91104 48.4299 15.36 45.7929C15.36 45.7929 15.944 45.6679 16.92 45.2509L17.363 45.0519C7.53104 46.9259 6.22704 33.4519 6.22704 33.4519C6.20304 25.5239 8.51004 21.4849 11.82 19.7579Z" fill="white"/>
<path d="M9.5495 39.7517L9.4965 39.5697L9.7445 40.1407C9.6845 40.2137 9.4525 39.9807 9.3125 39.6457C9.4025 39.6697 9.5715 39.9687 9.5495 39.7517Z" fill="white"/>
<path d="M15.842 45.7365C15.967 45.4485 15.37 45.0205 14.714 44.6395L15 44.1595C15.24 44.2975 15.616 44.3995 16.034 44.3155L16.672 44.2265L16.989 44.1805L17.142 44.1595L17.218 44.1505L17.237 44.1475L17.242 44.1485C16.894 42.5735 17.717 46.2915 17.632 45.9095H17.631L17.63 45.9105L17.628 45.9115L17.619 45.9155L17.581 45.9325C17.512 45.9915 17.527 46.0095 17.577 46.0115L17.619 46.0095L17.644 46.0065L17.657 46.0055H17.66H17.662C18.05 47.7545 17.135 43.6205 17.228 44.0465L17.221 44.0445L17.12 44.0225C17.056 44.0075 17.008 43.9915 17.022 43.9665L17.095 43.9235L17.179 43.8975L17.205 43.8895L17.207 43.8885L17.208 43.8895C16.759 41.8645 17.819 46.6465 17.709 46.1535L17.708 46.1545L17.705 46.1565L17.698 46.1615L17.683 46.1705L17.618 46.2105C17.508 46.1815 17.535 46.0345 17.355 46.0645C16.629 46.4705 17.184 46.7975 15.391 47.1655L14.773 47.0235C11.896 47.7715 8.10605 47.0225 6.14105 44.0815C5.60305 43.8075 4.67105 42.3155 4.14605 41.4205L4.24505 41.3235C3.78105 40.9045 3.64305 39.8005 3.37805 39.1155L3.29405 38.4265C3.38805 38.1125 3.98105 40.1755 4.08205 39.4665C3.77605 38.1015 3.08905 37.3455 3.06005 36.0885C2.90405 34.8615 2.77205 35.2215 2.63805 34.2125C2.51305 33.9015 2.51105 34.6115 2.37305 34.5355C2.44405 31.5495 2.92705 31.7105 3.27505 29.3715C3.18205 29.2765 3.22505 27.3455 2.79405 29.0385L2.79205 29.8915L2.56205 30.4305C2.65705 29.7875 2.85905 28.6115 2.69505 28.7105C3.12205 28.0065 3.50405 24.1595 3.59105 26.2085C3.16005 27.2225 3.03905 27.5505 3.14005 28.3085C3.68505 25.8945 4.67005 23.8955 5.90805 22.4055L6.12005 21.7745C6.27005 21.8815 6.98305 21.3125 7.73205 20.8785C8.00305 20.5975 8.39405 20.3105 8.25605 20.2775C8.32405 19.9925 5.66905 22.2835 6.69205 20.8815C8.36405 19.3385 10.549 19.0705 11.743 19.1315C10.908 19.4675 10.221 19.4075 9.47905 20.2005C6.58905 21.6575 4.42505 25.1795 4.20505 28.7105C4.04405 28.7945 3.84305 29.6945 3.74105 29.3875C3.58905 29.6895 3.55705 30.5985 3.31205 30.8105C3.17405 33.5615 3.40305 36.8765 4.34705 39.1375C4.44605 38.3415 5.07305 40.3905 5.52105 40.8675C5.66405 41.5105 6.25105 42.3915 6.73305 42.9635C6.82905 42.9785 7.12505 43.3325 7.13005 43.1535C6.77005 42.7495 6.70805 42.5215 6.40505 42.0445C6.77405 41.9965 7.05505 43.0695 7.66005 43.6235L7.26105 43.4525C8.10205 44.5395 9.36705 45.8535 10.591 45.9355C10.28 45.7905 10.02 45.4765 9.74805 45.2625C11.045 45.8255 12.82 46.3255 13.843 45.7985C12.918 45.8165 11.346 45.8905 11.441 45.4125C11.519 45.2645 12.535 45.3515 13.035 45.4295C14.092 45.5945 15.133 45.3085 15.947 44.9235L16.586 44.6105L16.902 44.4565L17.067 44.3795L17.109 44.3595L17.129 44.3505L17.14 44.3465C17.284 44.9925 16.82 42.8965 17.463 45.7965H17.461L17.458 45.7975H17.453L17.359 45.8065C16.86 45.8515 16.351 45.8425 15.842 45.7365Z" fill="white"/>
<path d="M15.6239 44.4108C13.9819 44.7988 14.8719 45.2368 13.1869 45.3818C13.3849 45.1598 12.5809 44.9448 12.0489 44.9198C11.5299 44.9498 10.9199 44.7418 10.4959 44.5868C10.2279 44.3908 10.3349 44.2058 10.8899 44.3788C12.2329 45.3818 14.2119 44.3488 15.6239 44.4108Z" fill="white"/>
<path d="M17.2875 45.0697C16.7105 45.3717 16.6915 44.8177 15.9365 45.2397C16.2315 44.8467 16.4065 45.0727 17.1955 44.7167L16.7855 45.0637C16.9315 45.0807 17.3605 44.9667 17.2875 45.0697Z" fill="white"/>
<path d="M5.00328 33.8512C5.01628 33.0022 5.02628 32.7782 4.95328 32.3762L4.86328 32.6052C4.91428 33.0462 4.88828 33.1002 5.00328 33.8512Z" fill="white"/>
<path d="M7.15886 22.3052C6.32386 23.6212 5.49286 25.6922 5.49086 27.4402C5.72586 26.6982 5.79186 26.7032 6.14086 25.5602C6.27786 26.5622 5.62486 27.3282 5.47886 28.4082C5.66286 27.5592 5.67186 28.7322 5.60986 29.4652C5.39586 30.7442 5.10286 33.1672 5.57786 35.0972C5.81186 35.8782 6.38486 38.5182 6.62086 37.9872C7.02686 39.0392 6.84186 39.3182 7.13286 40.1442C8.48386 42.0532 8.98986 44.8342 11.6609 45.6882C11.4189 45.8722 12.6289 46.4242 13.1279 46.5182C14.1979 46.9912 16.7299 46.8732 16.1419 46.4052C15.4729 46.1662 13.9839 46.6142 12.9729 45.9072C11.3029 44.9072 14.8879 46.2912 14.9509 45.6602C14.6899 45.6952 14.5769 45.3742 13.8079 45.3512C15.4229 45.4382 13.2249 44.7772 14.0669 44.6802C12.4259 43.9652 12.6169 43.8792 12.0569 43.0332C11.2119 42.5092 11.2649 42.9662 10.9209 42.9492C9.91686 42.3122 9.61786 41.1882 9.01886 40.3352C9.85186 40.6572 8.47386 38.5592 8.11686 37.2682C7.65786 35.6402 7.45786 36.9312 7.07186 35.1152C7.12486 34.1602 7.82886 36.8012 7.82986 35.5482L7.54086 34.7802C7.22786 34.3542 6.87486 33.8992 6.66386 33.4082C6.67486 33.0102 6.69086 32.4122 6.77586 32.4002C6.83786 33.1822 7.05386 32.9402 7.20086 32.1432C7.12686 31.7642 7.10886 31.6682 7.02986 31.4812C6.35486 33.0252 7.05186 29.8102 6.92886 28.6532C7.14786 25.3192 7.82886 27.1472 8.69086 24.3262C7.80086 24.8002 9.35286 22.3952 9.94986 21.6332C10.5509 21.1222 10.8159 21.0122 11.3509 20.9322C11.4949 20.7652 11.9679 20.4212 12.0039 20.2632C11.4489 19.7602 9.23986 19.8092 7.19786 22.1432C7.16986 22.2262 7.14586 22.2972 7.15886 22.3052Z" fill="white"/>
</svg>
