<svg width="93" height="174" viewBox="0 0 93 174" fill="none" xmlns="http://www.w3.org/2000/svg">
<path d="M0 173.751H92.976V-3.05176e-05H0V173.751Z" fill="#4FB29E"/>
<path d="M37.9236 128.251C37.9746 128.251 37.9996 128.276 37.9996 128.327V136.565C37.9996 136.616 37.9746 136.642 37.9236 136.642H37.0566C37.0056 136.642 36.9806 136.616 36.9806 136.565V130.349L34.6186 132.985C34.5796 133.024 34.5426 133.024 34.5076 132.985L32.1526 130.355V136.565C32.1526 136.616 32.1266 136.642 32.0756 136.642H31.2086C31.1576 136.642 31.1326 136.616 31.1326 136.565V128.327C31.1326 128.276 31.1576 128.251 31.2086 128.251H31.5486C31.6076 128.251 31.6576 128.274 31.7006 128.321L34.5606 131.521L37.4256 128.321C37.4686 128.274 37.5196 128.251 37.5776 128.251H37.9236ZM45.1176 135.569C45.9766 135.569 46.7136 135.265 47.3266 134.655C47.9356 134.046 48.2406 133.31 48.2406 132.446C48.2406 131.587 47.9356 130.851 47.3266 130.237C46.7136 129.628 45.9766 129.323 45.1176 129.323C44.2546 129.323 43.5176 129.628 42.9086 130.237C42.2996 130.851 41.9946 131.587 41.9946 132.446C41.9946 133.31 42.2996 134.046 42.9086 134.655C43.5176 135.265 44.2546 135.569 45.1176 135.569ZM45.1176 128.251C46.2736 128.251 47.2616 128.661 48.0826 129.481C48.9026 130.302 49.3126 131.29 49.3126 132.446C49.3126 133.603 48.9026 134.591 48.0826 135.411C47.2616 136.231 46.2736 136.642 45.1176 136.642C43.9616 136.642 42.9726 136.231 42.1526 135.411C41.3326 134.591 40.9226 133.603 40.9226 132.446C40.9226 131.29 41.3326 130.302 42.1526 129.481C42.9726 128.661 43.9616 128.251 45.1176 128.251ZM55.6336 131.937C55.9966 131.937 56.3076 131.808 56.5656 131.55C56.8236 131.292 56.9516 130.983 56.9516 130.624C56.9516 130.261 56.8236 129.95 56.5656 129.692C56.3076 129.439 55.9966 129.312 55.6336 129.312H53.5416V131.937H55.6336ZM58.1296 136.53C58.1416 136.554 58.1396 136.579 58.1236 136.606C58.1126 136.63 58.0906 136.642 58.0596 136.642H57.0166C56.9856 136.642 56.9636 136.628 56.9516 136.601L54.9836 133.009L54.9896 133.003H53.5416V136.548C53.5416 136.599 53.5166 136.624 53.4656 136.624H52.5516C52.5006 136.624 52.4756 136.599 52.4756 136.548V128.321C52.4756 128.271 52.5006 128.245 52.5516 128.245H55.6336C56.3056 128.245 56.8756 128.485 57.3446 128.966C57.8136 129.446 58.0376 130.023 58.0186 130.694C57.9986 131.237 57.8136 131.718 57.4616 132.136C57.1136 132.542 56.6786 132.808 56.1556 132.933L58.1296 136.53ZM66.5956 128.251C66.6456 128.251 66.6716 128.276 66.6716 128.327V129.241C66.6716 129.292 66.6456 129.317 66.5956 129.317H62.1366V131.913H65.3646C65.4156 131.913 65.4406 131.939 65.4406 131.989V132.903C65.4406 132.954 65.4156 132.98 65.3646 132.98H62.1366V135.575H66.5956C66.6456 135.575 66.6716 135.601 66.6716 135.651V136.565C66.6716 136.616 66.6456 136.642 66.5956 136.642H61.1456C61.0956 136.642 61.0696 136.616 61.0696 136.565V128.327C61.0696 128.276 61.0956 128.251 61.1456 128.251H66.5956ZM70.2316 134.47H70.7716L70.9396 130.69V128.002H70.0636V130.69L70.2316 134.47ZM70.9396 135.586H70.0636V136.642H70.9396V135.586Z" fill="white"/>
<path d="M37.9236 128.251C37.9746 128.251 37.9996 128.276 37.9996 128.327V136.565C37.9996 136.616 37.9746 136.642 37.9236 136.642H37.0566C37.0056 136.642 36.9806 136.616 36.9806 136.565V130.349L34.6186 132.985C34.5796 133.024 34.5426 133.024 34.5076 132.985L32.1526 130.355V136.565C32.1526 136.616 32.1266 136.642 32.0756 136.642H31.2086C31.1576 136.642 31.1326 136.616 31.1326 136.565V128.327C31.1326 128.276 31.1576 128.251 31.2086 128.251H31.5486C31.6076 128.251 31.6576 128.274 31.7006 128.321L34.5606 131.521L37.4256 128.321C37.4686 128.274 37.5196 128.251 37.5776 128.251H37.9236ZM45.1176 135.569C45.9766 135.569 46.7136 135.265 47.3266 134.655C47.9356 134.046 48.2406 133.31 48.2406 132.446C48.2406 131.587 47.9356 130.851 47.3266 130.237C46.7136 129.628 45.9766 129.323 45.1176 129.323C44.2546 129.323 43.5176 129.628 42.9086 130.237C42.2996 130.851 41.9946 131.587 41.9946 132.446C41.9946 133.31 42.2996 134.046 42.9086 134.655C43.5176 135.265 44.2546 135.569 45.1176 135.569ZM45.1176 128.251C46.2736 128.251 47.2616 128.661 48.0826 129.481C48.9026 130.302 49.3126 131.29 49.3126 132.446C49.3126 133.603 48.9026 134.591 48.0826 135.411C47.2616 136.231 46.2736 136.642 45.1176 136.642C43.9616 136.642 42.9726 136.231 42.1526 135.411C41.3326 134.591 40.9226 133.603 40.9226 132.446C40.9226 131.29 41.3326 130.302 42.1526 129.481C42.9726 128.661 43.9616 128.251 45.1176 128.251ZM55.6336 131.937C55.9966 131.937 56.3076 131.808 56.5656 131.55C56.8236 131.292 56.9516 130.983 56.9516 130.624C56.9516 130.261 56.8236 129.95 56.5656 129.692C56.3076 129.439 55.9966 129.312 55.6336 129.312H53.5416V131.937H55.6336ZM58.1296 136.53C58.1416 136.554 58.1396 136.579 58.1236 136.606C58.1126 136.63 58.0906 136.642 58.0596 136.642H57.0166C56.9856 136.642 56.9636 136.628 56.9516 136.601L54.9836 133.009L54.9896 133.003H53.5416V136.548C53.5416 136.599 53.5166 136.624 53.4656 136.624H52.5516C52.5006 136.624 52.4756 136.599 52.4756 136.548V128.321C52.4756 128.271 52.5006 128.245 52.5516 128.245H55.6336C56.3056 128.245 56.8756 128.485 57.3446 128.966C57.8136 129.446 58.0376 130.023 58.0186 130.694C57.9986 131.237 57.8136 131.718 57.4616 132.136C57.1136 132.542 56.6786 132.808 56.1556 132.933L58.1296 136.53ZM66.5956 128.251C66.6456 128.251 66.6716 128.276 66.6716 128.327V129.241C66.6716 129.292 66.6456 129.317 66.5956 129.317H62.1366V131.913H65.3646C65.4156 131.913 65.4406 131.939 65.4406 131.989V132.903C65.4406 132.954 65.4156 132.98 65.3646 132.98H62.1366V135.575H66.5956C66.6456 135.575 66.6716 135.601 66.6716 135.651V136.565C66.6716 136.616 66.6456 136.642 66.5956 136.642H61.1456C61.0956 136.642 61.0696 136.616 61.0696 136.565V128.327C61.0696 128.276 61.0956 128.251 61.1456 128.251H66.5956ZM70.2316 134.47H70.7716L70.9396 130.69V128.002H70.0636V130.69L70.2316 134.47ZM70.9396 135.586H70.0636V136.642H70.9396V135.586Z" stroke="white" stroke-width="0.25" stroke-miterlimit="4.78"/>
<path d="M40.9521 113.851C41.0031 113.851 41.0281 113.876 41.0281 113.927V122.165C41.0281 122.216 41.0031 122.242 40.9521 122.242H40.0321C39.9811 122.242 39.9561 122.216 39.9561 122.165V118.568H36.0361V122.154C36.0361 122.205 36.0111 122.23 35.9601 122.23H35.0401C34.9891 122.23 34.9641 122.205 34.9641 122.154V113.915C34.9641 113.865 34.9891 113.839 35.0401 113.839H35.9601C36.0111 113.839 36.0361 113.865 36.0361 113.915V117.496H39.9561V113.927C39.9561 113.876 39.9811 113.851 40.0321 113.851H40.9521ZM50.0801 113.851C50.1301 113.851 50.1561 113.876 50.1561 113.927V114.841C50.1561 114.892 50.1301 114.917 50.0801 114.917H45.6211V117.513H48.8491C48.9001 117.513 48.9251 117.539 48.9251 117.589V118.503C48.9251 118.554 48.9001 118.58 48.8491 118.58H45.6211V121.175H50.0801C50.1301 121.175 50.1561 121.201 50.1561 121.251V122.165C50.1561 122.216 50.1301 122.242 50.0801 122.242H44.6301C44.5791 122.242 44.5541 122.216 44.5541 122.165V113.927C44.5541 113.876 44.5791 113.851 44.6301 113.851H50.0801ZM57.0621 117.941L56.0081 115.392L54.9471 117.941H57.0621ZM56.4121 113.833C56.4471 113.833 56.4711 113.849 56.4821 113.88L59.9101 122.136C59.9221 122.16 59.9201 122.183 59.9041 122.206C59.8891 122.23 59.8671 122.242 59.8401 122.242H58.9021C58.8671 122.242 58.8441 122.226 58.8321 122.195L57.4901 118.96H54.5201L53.1781 122.195C53.1661 122.226 53.1431 122.242 53.1071 122.242H52.1701C52.1421 122.242 52.1211 122.23 52.1051 122.206C52.0901 122.183 52.0881 122.16 52.1001 122.136L55.5271 113.88C55.5431 113.849 55.5661 113.833 55.5981 113.833H56.4121ZM65.6921 117.537C66.0551 117.537 66.3661 117.408 66.6241 117.15C66.8811 116.892 67.0101 116.583 67.0101 116.224C67.0101 115.861 66.8811 115.55 66.6241 115.292C66.3661 115.039 66.0551 114.912 65.6921 114.912H63.6001V117.537H65.6921ZM68.1881 122.13C68.2001 122.154 68.1981 122.179 68.1821 122.206C68.1701 122.23 68.1491 122.242 68.1181 122.242H67.0751C67.0431 122.242 67.0221 122.228 67.0101 122.201L65.0421 118.609L65.0471 118.603H63.6001V122.148C63.6001 122.199 63.5751 122.224 63.5241 122.224H62.6101C62.5591 122.224 62.5341 122.199 62.5341 122.148V113.921C62.5341 113.871 62.5591 113.845 62.6101 113.845H65.6921C66.3641 113.845 66.9341 114.085 67.4031 114.566C67.8721 115.046 68.0961 115.623 68.0771 116.294C68.0571 116.837 67.8721 117.318 67.5201 117.736C67.1721 118.142 66.7371 118.408 66.2131 118.533L68.1881 122.13Z" fill="white"/>
<path d="M40.9521 113.851C41.0031 113.851 41.0281 113.876 41.0281 113.927V122.165C41.0281 122.216 41.0031 122.242 40.9521 122.242H40.0321C39.9811 122.242 39.9561 122.216 39.9561 122.165V118.568H36.0361V122.154C36.0361 122.205 36.0111 122.23 35.9601 122.23H35.0401C34.9891 122.23 34.9641 122.205 34.9641 122.154V113.915C34.9641 113.865 34.9891 113.839 35.0401 113.839H35.9601C36.0111 113.839 36.0361 113.865 36.0361 113.915V117.496H39.9561V113.927C39.9561 113.876 39.9811 113.851 40.0321 113.851H40.9521ZM50.0801 113.851C50.1301 113.851 50.1561 113.876 50.1561 113.927V114.841C50.1561 114.892 50.1301 114.917 50.0801 114.917H45.6211V117.513H48.8491C48.9001 117.513 48.9251 117.539 48.9251 117.589V118.503C48.9251 118.554 48.9001 118.58 48.8491 118.58H45.6211V121.175H50.0801C50.1301 121.175 50.1561 121.201 50.1561 121.251V122.165C50.1561 122.216 50.1301 122.242 50.0801 122.242H44.6301C44.5791 122.242 44.5541 122.216 44.5541 122.165V113.927C44.5541 113.876 44.5791 113.851 44.6301 113.851H50.0801ZM57.0621 117.941L56.0081 115.392L54.9471 117.941H57.0621ZM56.4121 113.833C56.4471 113.833 56.4711 113.849 56.4821 113.88L59.9101 122.136C59.9221 122.16 59.9201 122.183 59.9041 122.206C59.8891 122.23 59.8671 122.242 59.8401 122.242H58.9021C58.8671 122.242 58.8441 122.226 58.8321 122.195L57.4901 118.96H54.5201L53.1781 122.195C53.1661 122.226 53.1431 122.242 53.1071 122.242H52.1701C52.1421 122.242 52.1211 122.23 52.1051 122.206C52.0901 122.183 52.0881 122.16 52.1001 122.136L55.5271 113.88C55.5431 113.849 55.5661 113.833 55.5981 113.833H56.4121ZM65.6921 117.537C66.0551 117.537 66.3661 117.408 66.6241 117.15C66.8811 116.892 67.0101 116.583 67.0101 116.224C67.0101 115.861 66.8811 115.55 66.6241 115.292C66.3661 115.039 66.0551 114.912 65.6921 114.912H63.6001V117.537H65.6921ZM68.1881 122.13C68.2001 122.154 68.1981 122.179 68.1821 122.206C68.1701 122.23 68.1491 122.242 68.1181 122.242H67.0751C67.0431 122.242 67.0221 122.228 67.0101 122.201L65.0421 118.609L65.0471 118.603H63.6001V122.148C63.6001 122.199 63.5751 122.224 63.5241 122.224H62.6101C62.5591 122.224 62.5341 122.199 62.5341 122.148V113.921C62.5341 113.871 62.5591 113.845 62.6101 113.845H65.6921C66.3641 113.845 66.9341 114.085 67.4031 114.566C67.8721 115.046 68.0961 115.623 68.0771 116.294C68.0571 116.837 67.8721 117.318 67.5201 117.736C67.1721 118.142 66.7371 118.408 66.2131 118.533L68.1881 122.13Z" stroke="white" stroke-width="0.25" stroke-miterlimit="4.78"/>
<path d="M29.9826 99.4513C30.0336 99.4513 30.0586 99.4763 30.0586 99.5273V107.765C30.0586 107.816 30.0336 107.842 29.9826 107.842H29.0626C29.0116 107.842 28.9866 107.816 28.9866 107.765V104.168H25.0666V107.754C25.0666 107.805 25.0416 107.83 24.9906 107.83H24.0706C24.0196 107.83 23.9946 107.805 23.9946 107.754V99.5153C23.9946 99.4653 24.0196 99.4393 24.0706 99.4393H24.9906C25.0416 99.4393 25.0666 99.4653 25.0666 99.5153V103.096H28.9866V99.5273C28.9866 99.4763 29.0116 99.4513 29.0626 99.4513H29.9826ZM39.1106 99.4513C39.1606 99.4513 39.1866 99.4763 39.1866 99.5273V100.441C39.1866 100.492 39.1606 100.517 39.1106 100.517H34.6516V103.113H37.8796C37.9306 103.113 37.9556 103.139 37.9556 103.189V104.103C37.9556 104.154 37.9306 104.18 37.8796 104.18H34.6516V106.775H39.1106C39.1606 106.775 39.1866 106.801 39.1866 106.851V107.765C39.1866 107.816 39.1606 107.842 39.1106 107.842H33.6606C33.6106 107.842 33.5846 107.816 33.5846 107.765V99.5273C33.5846 99.4763 33.6106 99.4513 33.6606 99.4513H39.1106ZM45.1966 103.137C45.5596 103.137 45.8706 103.008 46.1286 102.75C46.3856 102.492 46.5146 102.183 46.5146 101.824C46.5146 101.461 46.3856 101.15 46.1286 100.892C45.8706 100.639 45.5596 100.512 45.1966 100.512H43.1046V103.137H45.1966ZM47.6926 107.73C47.7046 107.754 47.7026 107.779 47.6866 107.806C47.6756 107.83 47.6536 107.842 47.6226 107.842H46.5796C46.5476 107.842 46.5266 107.828 46.5146 107.801L44.5466 104.209L44.5516 104.203H43.1046V107.748C43.1046 107.799 43.0796 107.824 43.0286 107.824H42.1146C42.0636 107.824 42.0386 107.799 42.0386 107.748V99.5213C42.0386 99.4713 42.0636 99.4453 42.1146 99.4453H45.1966C45.8686 99.4453 46.4386 99.6853 46.9076 100.166C47.3766 100.646 47.6006 101.223 47.5816 101.894C47.5616 102.437 47.3766 102.918 47.0246 103.336C46.6766 103.742 46.2416 104.008 45.7176 104.133L47.6926 107.73ZM56.1576 99.4513C56.2086 99.4513 56.2346 99.4763 56.2346 99.5273V100.441C56.2346 100.492 56.2086 100.517 56.1576 100.517H51.6986V103.113H54.9276C54.9786 103.113 55.0036 103.139 55.0036 103.189V104.103C55.0036 104.154 54.9786 104.18 54.9276 104.18H51.6986V106.775H56.1576C56.2086 106.775 56.2346 106.801 56.2346 106.851V107.765C56.2346 107.816 56.2086 107.842 56.1576 107.842H50.7086C50.6576 107.842 50.6326 107.816 50.6326 107.765V99.5273C50.6326 99.4763 50.6576 99.4513 50.7086 99.4513H56.1576ZM68.3776 99.4513C68.4286 99.4513 68.4536 99.4763 68.4536 99.5273V100.441C68.4536 100.492 68.4286 100.517 68.3776 100.517H66.1806V107.765C66.1806 107.816 66.1556 107.842 66.1046 107.842H65.1906C65.1396 107.842 65.1146 107.816 65.1146 107.765V100.517H62.9116C62.8606 100.517 62.8346 100.492 62.8346 100.441V99.5273C62.8346 99.4763 62.8606 99.4513 62.9116 99.4513H68.3776ZM74.7396 106.769C75.5996 106.769 76.3356 106.465 76.9486 105.855C77.5586 105.246 77.8626 104.51 77.8626 103.646C77.8626 102.787 77.5586 102.051 76.9486 101.437C76.3356 100.828 75.5996 100.523 74.7396 100.523C73.8766 100.523 73.1406 100.828 72.5306 101.437C71.9216 102.051 71.6166 102.787 71.6166 103.646C71.6166 104.51 71.9216 105.246 72.5306 105.855C73.1406 106.465 73.8766 106.769 74.7396 106.769ZM74.7396 99.4513C75.8956 99.4513 76.8846 99.8613 77.7046 100.681C78.5246 101.502 78.9356 102.49 78.9356 103.646C78.9356 104.803 78.5246 105.791 77.7046 106.611C76.8846 107.431 75.8956 107.842 74.7396 107.842C73.5836 107.842 72.5956 107.431 71.7746 106.611C70.9546 105.791 70.5446 104.803 70.5446 103.646C70.5446 102.49 70.9546 101.502 71.7746 100.681C72.5956 99.8613 73.5836 99.4513 74.7396 99.4513Z" fill="white"/>
<path d="M29.9826 99.4513C30.0336 99.4513 30.0586 99.4763 30.0586 99.5273V107.765C30.0586 107.816 30.0336 107.842 29.9826 107.842H29.0626C29.0116 107.842 28.9866 107.816 28.9866 107.765V104.168H25.0666V107.754C25.0666 107.805 25.0416 107.83 24.9906 107.83H24.0706C24.0196 107.83 23.9946 107.805 23.9946 107.754V99.5153C23.9946 99.4653 24.0196 99.4393 24.0706 99.4393H24.9906C25.0416 99.4393 25.0666 99.4653 25.0666 99.5153V103.096H28.9866V99.5273C28.9866 99.4763 29.0116 99.4513 29.0626 99.4513H29.9826ZM39.1106 99.4513C39.1606 99.4513 39.1866 99.4763 39.1866 99.5273V100.441C39.1866 100.492 39.1606 100.517 39.1106 100.517H34.6516V103.113H37.8796C37.9306 103.113 37.9556 103.139 37.9556 103.189V104.103C37.9556 104.154 37.9306 104.18 37.8796 104.18H34.6516V106.775H39.1106C39.1606 106.775 39.1866 106.801 39.1866 106.851V107.765C39.1866 107.816 39.1606 107.842 39.1106 107.842H33.6606C33.6106 107.842 33.5846 107.816 33.5846 107.765V99.5273C33.5846 99.4763 33.6106 99.4513 33.6606 99.4513H39.1106ZM45.1966 103.137C45.5596 103.137 45.8706 103.008 46.1286 102.75C46.3856 102.492 46.5146 102.183 46.5146 101.824C46.5146 101.461 46.3856 101.15 46.1286 100.892C45.8706 100.639 45.5596 100.512 45.1966 100.512H43.1046V103.137H45.1966ZM47.6926 107.73C47.7046 107.754 47.7026 107.779 47.6866 107.806C47.6756 107.83 47.6536 107.842 47.6226 107.842H46.5796C46.5476 107.842 46.5266 107.828 46.5146 107.801L44.5466 104.209L44.5516 104.203H43.1046V107.748C43.1046 107.799 43.0796 107.824 43.0286 107.824H42.1146C42.0636 107.824 42.0386 107.799 42.0386 107.748V99.5213C42.0386 99.4713 42.0636 99.4453 42.1146 99.4453H45.1966C45.8686 99.4453 46.4386 99.6853 46.9076 100.166C47.3766 100.646 47.6006 101.223 47.5816 101.894C47.5616 102.437 47.3766 102.918 47.0246 103.336C46.6766 103.742 46.2416 104.008 45.7176 104.133L47.6926 107.73ZM56.1576 99.4513C56.2086 99.4513 56.2346 99.4763 56.2346 99.5273V100.441C56.2346 100.492 56.2086 100.517 56.1576 100.517H51.6986V103.113H54.9276C54.9786 103.113 55.0036 103.139 55.0036 103.189V104.103C55.0036 104.154 54.9786 104.18 54.9276 104.18H51.6986V106.775H56.1576C56.2086 106.775 56.2346 106.801 56.2346 106.851V107.765C56.2346 107.816 56.2086 107.842 56.1576 107.842H50.7086C50.6576 107.842 50.6326 107.816 50.6326 107.765V99.5273C50.6326 99.4763 50.6576 99.4513 50.7086 99.4513H56.1576ZM68.3776 99.4513C68.4286 99.4513 68.4536 99.4763 68.4536 99.5273V100.441C68.4536 100.492 68.4286 100.517 68.3776 100.517H66.1806V107.765C66.1806 107.816 66.1556 107.842 66.1046 107.842H65.1906C65.1396 107.842 65.1146 107.816 65.1146 107.765V100.517H62.9116C62.8606 100.517 62.8346 100.492 62.8346 100.441V99.5273C62.8346 99.4763 62.8606 99.4513 62.9116 99.4513H68.3776ZM74.7396 106.769C75.5996 106.769 76.3356 106.465 76.9486 105.855C77.5586 105.246 77.8626 104.51 77.8626 103.646C77.8626 102.787 77.5586 102.051 76.9486 101.437C76.3356 100.828 75.5996 100.523 74.7396 100.523C73.8766 100.523 73.1406 100.828 72.5306 101.437C71.9216 102.051 71.6166 102.787 71.6166 103.646C71.6166 104.51 71.9216 105.246 72.5306 105.855C73.1406 106.465 73.8766 106.769 74.7396 106.769ZM74.7396 99.4513C75.8956 99.4513 76.8846 99.8613 77.7046 100.681C78.5246 101.502 78.9356 102.49 78.9356 103.646C78.9356 104.803 78.5246 105.791 77.7046 106.611C76.8846 107.431 75.8956 107.842 74.7396 107.842C73.5836 107.842 72.5956 107.431 71.7746 106.611C70.9546 105.791 70.5446 104.803 70.5446 103.646C70.5446 102.49 70.9546 101.502 71.7746 100.681C72.5956 99.8613 73.5836 99.4513 74.7396 99.4513Z" stroke="white" stroke-width="0.25" stroke-miterlimit="4.78"/>
<path d="M40.0272 92.6567C40.0542 92.6997 40.0472 92.7347 40.0042 92.7617C39.3122 93.2157 38.5482 93.4417 37.7132 93.4417C37.1272 93.4417 36.5662 93.3247 36.0312 93.0907C35.5152 92.8637 35.0622 92.5437 34.6722 92.1297C33.8392 91.2547 33.4572 90.2137 33.5232 89.0067C33.5822 87.9677 33.9802 87.0707 34.7182 86.3167C35.4532 85.5627 36.3392 85.1447 37.3792 85.0627C38.3322 84.9887 39.2052 85.2097 39.9982 85.7247C40.0412 85.7527 40.0482 85.7877 40.0212 85.8307L39.5062 86.5867C39.4782 86.6297 39.4432 86.6367 39.4002 86.6097C38.8142 86.2307 38.1702 86.0687 37.4662 86.1237C36.6702 86.1857 35.9922 86.5137 35.4332 87.1077C34.8792 87.7017 34.5952 88.4007 34.5842 89.2057C34.5722 90.0767 34.8752 90.8227 35.4922 91.4437C36.1052 92.0647 36.8452 92.3757 37.7132 92.3757C38.3302 92.3757 38.8942 92.2097 39.4062 91.8777C39.4492 91.8497 39.4842 91.8577 39.5112 91.9007L40.0272 92.6567ZM47.4262 92.3697C47.4772 92.3697 47.5022 92.3947 47.5022 92.4457V93.3657C47.5022 93.4167 47.4772 93.4417 47.4262 93.4417H42.7622C42.7112 93.4417 42.6862 93.4167 42.6862 93.3657V85.1217C42.6862 85.0707 42.7112 85.0457 42.7622 85.0457H43.6822C43.7332 85.0457 43.7582 85.0707 43.7582 85.1217V92.3697H47.4262ZM51.2392 85.0517C51.2902 85.0517 51.3152 85.0767 51.3152 85.1277V93.3657C51.3152 93.4167 51.2902 93.4417 51.2392 93.4417H50.3192C50.2682 93.4417 50.2432 93.4167 50.2432 93.3657V85.1277C50.2432 85.0767 50.2682 85.0517 50.3192 85.0517H51.2392ZM60.8062 92.6567C60.8332 92.6997 60.8262 92.7347 60.7832 92.7617C60.0912 93.2157 59.3272 93.4417 58.4922 93.4417C57.9062 93.4417 57.3452 93.3247 56.8102 93.0907C56.2942 92.8637 55.8412 92.5437 55.4512 92.1297C54.6182 91.2547 54.2362 90.2137 54.3022 89.0067C54.3612 87.9677 54.7592 87.0707 55.4972 86.3167C56.2322 85.5627 57.1182 85.1447 58.1582 85.0627C59.1112 84.9887 59.9842 85.2097 60.7772 85.7247C60.8202 85.7527 60.8272 85.7877 60.8002 85.8307L60.2852 86.5867C60.2572 86.6297 60.2222 86.6367 60.1792 86.6097C59.5932 86.2307 58.9492 86.0687 58.2452 86.1237C57.4492 86.1857 56.7712 86.5137 56.2122 87.1077C55.6582 87.7017 55.3742 88.4007 55.3632 89.2057C55.3512 90.0767 55.6542 90.8227 56.2712 91.4437C56.8842 92.0647 57.6242 92.3757 58.4922 92.3757C59.1092 92.3757 59.6732 92.2097 60.1852 91.8777C60.2282 91.8497 60.2632 91.8577 60.2902 91.9007L60.8062 92.6567ZM69.4412 93.3127C69.4692 93.3367 69.4742 93.3637 69.4592 93.3947C69.4472 93.4267 69.4242 93.4417 69.3892 93.4417H68.0472C68.0232 93.4417 68.0062 93.4337 67.9942 93.4187L64.5372 90.1777V93.3657C64.5372 93.4167 64.5122 93.4417 64.4612 93.4417H63.5412C63.4902 93.4417 63.4652 93.4167 63.4652 93.3657V85.1217C63.4652 85.0707 63.4902 85.0457 63.5412 85.0457H64.4612C64.5122 85.0457 64.5372 85.0707 64.5372 85.1217V88.2387L67.7132 85.0747C67.7282 85.0587 67.7462 85.0517 67.7662 85.0517H69.0662C69.1012 85.0517 69.1252 85.0667 69.1372 85.0977C69.1522 85.1297 69.1482 85.1567 69.1252 85.1797L65.0762 89.2177L69.4412 93.3127Z" fill="white"/>
<path d="M40.0272 92.6567C40.0542 92.6997 40.0472 92.7347 40.0042 92.7617C39.3122 93.2157 38.5482 93.4417 37.7132 93.4417C37.1272 93.4417 36.5662 93.3247 36.0312 93.0907C35.5152 92.8637 35.0622 92.5437 34.6722 92.1297C33.8392 91.2547 33.4572 90.2137 33.5232 89.0067C33.5822 87.9677 33.9802 87.0707 34.7182 86.3167C35.4532 85.5627 36.3392 85.1447 37.3792 85.0627C38.3322 84.9887 39.2052 85.2097 39.9982 85.7247C40.0412 85.7527 40.0482 85.7877 40.0212 85.8307L39.5062 86.5867C39.4782 86.6297 39.4432 86.6367 39.4002 86.6097C38.8142 86.2307 38.1702 86.0687 37.4662 86.1237C36.6702 86.1857 35.9922 86.5137 35.4332 87.1077C34.8792 87.7017 34.5952 88.4007 34.5842 89.2057C34.5722 90.0767 34.8752 90.8227 35.4922 91.4437C36.1052 92.0647 36.8452 92.3757 37.7132 92.3757C38.3302 92.3757 38.8942 92.2097 39.4062 91.8777C39.4492 91.8497 39.4842 91.8577 39.5112 91.9007L40.0272 92.6567ZM47.4262 92.3697C47.4772 92.3697 47.5022 92.3947 47.5022 92.4457V93.3657C47.5022 93.4167 47.4772 93.4417 47.4262 93.4417H42.7622C42.7112 93.4417 42.6862 93.4167 42.6862 93.3657V85.1217C42.6862 85.0707 42.7112 85.0457 42.7622 85.0457H43.6822C43.7332 85.0457 43.7582 85.0707 43.7582 85.1217V92.3697H47.4262ZM51.2392 85.0517C51.2902 85.0517 51.3152 85.0767 51.3152 85.1277V93.3657C51.3152 93.4167 51.2902 93.4417 51.2392 93.4417H50.3192C50.2682 93.4417 50.2432 93.4167 50.2432 93.3657V85.1277C50.2432 85.0767 50.2682 85.0517 50.3192 85.0517H51.2392ZM60.8062 92.6567C60.8332 92.6997 60.8262 92.7347 60.7832 92.7617C60.0912 93.2157 59.3272 93.4417 58.4922 93.4417C57.9062 93.4417 57.3452 93.3247 56.8102 93.0907C56.2942 92.8637 55.8412 92.5437 55.4512 92.1297C54.6182 91.2547 54.2362 90.2137 54.3022 89.0067C54.3612 87.9677 54.7592 87.0707 55.4972 86.3167C56.2322 85.5627 57.1182 85.1447 58.1582 85.0627C59.1112 84.9887 59.9842 85.2097 60.7772 85.7247C60.8202 85.7527 60.8272 85.7877 60.8002 85.8307L60.2852 86.5867C60.2572 86.6297 60.2222 86.6367 60.1792 86.6097C59.5932 86.2307 58.9492 86.0687 58.2452 86.1237C57.4492 86.1857 56.7712 86.5137 56.2122 87.1077C55.6582 87.7017 55.3742 88.4007 55.3632 89.2057C55.3512 90.0767 55.6542 90.8227 56.2712 91.4437C56.8842 92.0647 57.6242 92.3757 58.4922 92.3757C59.1092 92.3757 59.6732 92.2097 60.1852 91.8777C60.2282 91.8497 60.2632 91.8577 60.2902 91.9007L60.8062 92.6567ZM69.4412 93.3127C69.4692 93.3367 69.4742 93.3637 69.4592 93.3947C69.4472 93.4267 69.4242 93.4417 69.3892 93.4417H68.0472C68.0232 93.4417 68.0062 93.4337 67.9942 93.4187L64.5372 90.1777V93.3657C64.5372 93.4167 64.5122 93.4417 64.4612 93.4417H63.5412C63.4902 93.4417 63.4652 93.4167 63.4652 93.3657V85.1217C63.4652 85.0707 63.4902 85.0457 63.5412 85.0457H64.4612C64.5122 85.0457 64.5372 85.0707 64.5372 85.1217V88.2387L67.7132 85.0747C67.7282 85.0587 67.7462 85.0517 67.7662 85.0517H69.0662C69.1012 85.0517 69.1252 85.0667 69.1372 85.0977C69.1522 85.1297 69.1482 85.1567 69.1252 85.1797L65.0762 89.2177L69.4412 93.3127Z" stroke="white" stroke-width="0.25" stroke-miterlimit="4.78"/>
<path d="M42.7871 27.7471C45.9061 27.5461 49.5021 27.6841 52.8011 27.6841C56.1351 27.6841 59.7391 27.4601 62.2471 28.1251C64.7271 28.7821 66.9071 30.1291 68.3561 31.9041C69.7261 33.5811 70.9571 35.8231 71.1271 39.0201C71.3091 42.4351 71.1271 45.2241 71.1271 48.9711C71.1271 52.3331 71.3881 55.8791 70.7491 58.4801C69.5631 63.3111 65.4781 66.9331 59.7911 67.2971C56.4611 67.5101 53.2301 67.3601 49.9031 67.3601C46.8241 67.3601 43.0251 67.6621 40.3941 66.9821C35.5901 65.7421 31.8791 61.8651 31.5141 56.0871C31.3221 53.0481 31.4511 49.3691 31.4511 46.2001C31.4511 42.8891 31.2121 39.1441 31.8291 36.6901C32.7871 32.8751 35.2301 30.1961 38.6931 28.6921C39.9441 28.1481 41.2401 27.8471 42.7871 27.7471Z" fill="white"/>
<path d="M64.3648 58.4741H38.2468V36.5911H64.3648V58.4741Z" fill="#003882"/>
<path d="M35.8638 34.3264H66.6548V56.2384C66.6548 57.5754 66.9628 61.1134 66.4658 61.5274C66.1048 61.8284 65.5078 61.5274 64.1998 61.5274C51.6488 61.5274 47.4388 61.6824 35.8638 61.3384V34.3264ZM39.2638 42.0704C38.6838 43.8704 38.5658 51.9014 39.4528 53.7834C40.8708 56.7944 45.4258 56.0504 50.7868 56.0504C56.6168 56.0504 61.6438 56.8864 62.8778 53.4054C63.6168 51.3184 63.3678 43.2694 62.8778 41.8814C61.6468 38.3974 56.5048 39.2374 51.7318 39.2374C48.4618 39.2374 44.7758 38.9074 42.4748 39.4264C40.6228 39.8434 39.5878 41.0634 39.2638 42.0704Z" fill="white"/>
<path d="M48.8979 44.7155C51.0099 45.7085 52.1639 46.2745 54.7539 47.5495C52.8819 48.6365 50.8979 49.6115 48.8979 50.5715V44.7155Z" fill="white"/>
<path d="M0.290771 0.249997V174L15.2908 87.3067L0.290771 0.249997Z" fill="#C7D886"/>
</svg>
