<svg width="94" height="330" viewBox="0 0 94 330" fill="none" xmlns="http://www.w3.org/2000/svg">
<path d="M0 329.666H92.976V0.000331413H0V329.666Z" fill="#C7D886"/>
<path d="M30.8379 242.853C30.8889 242.853 30.9139 242.9 30.9139 242.996V258.576C30.9139 258.673 30.8889 258.722 30.8379 258.722H29.9709C29.9199 258.722 29.8949 258.673 29.8949 258.576V246.82L27.5329 251.806C27.4939 251.88 27.4569 251.88 27.4219 251.806L25.0669 246.832V258.576C25.0669 258.673 25.0409 258.722 24.9899 258.722H24.1229C24.0719 258.722 24.0469 258.673 24.0469 258.576V242.996C24.0469 242.9 24.0719 242.853 24.1229 242.853H24.4629C24.5219 242.853 24.5719 242.896 24.6149 242.985L27.4749 249.037L30.3399 242.985C30.3829 242.896 30.4339 242.853 30.4919 242.853H30.8379ZM38.0319 256.693C38.8909 256.693 39.6279 256.118 40.2409 254.964C40.8499 253.812 41.1549 252.42 41.1549 250.786C41.1549 249.162 40.8499 247.77 40.2409 246.609C39.6279 245.457 38.8909 244.88 38.0319 244.88C37.1689 244.88 36.4319 245.457 35.8229 246.609C35.2139 247.77 34.9089 249.162 34.9089 250.786C34.9089 252.42 35.2139 253.812 35.8229 254.964C36.4319 256.118 37.1689 256.693 38.0319 256.693ZM38.0319 242.853C39.1879 242.853 40.1759 243.628 40.9969 245.179C41.8169 246.732 42.2269 248.6 42.2269 250.786C42.2269 252.975 41.8169 254.843 40.9969 256.394C40.1759 257.945 39.1879 258.722 38.0319 258.722C36.8759 258.722 35.8869 257.945 35.0669 256.394C34.2469 254.843 33.8369 252.975 33.8369 250.786C33.8369 248.6 34.2469 246.732 35.0669 245.179C35.8869 243.628 36.8759 242.853 38.0319 242.853ZM48.5479 249.824C48.9109 249.824 49.2219 249.58 49.4799 249.092C49.7379 248.604 49.8659 248.019 49.8659 247.341C49.8659 246.654 49.7379 246.066 49.4799 245.578C49.2219 245.099 48.9109 244.859 48.5479 244.859H46.4559V249.824H48.5479ZM51.0439 258.51C51.0559 258.556 51.0539 258.603 51.0379 258.654C51.0269 258.699 51.0049 258.722 50.9739 258.722H49.9309C49.8999 258.722 49.8779 258.696 49.8659 258.645L47.8979 251.851L47.9039 251.84H46.4559V258.544C46.4559 258.641 46.4309 258.688 46.3799 258.688H45.4659C45.4149 258.688 45.3899 258.641 45.3899 258.544V242.985C45.3899 242.89 45.4149 242.841 45.4659 242.841H48.5479C49.2199 242.841 49.7899 243.295 50.2589 244.205C50.7279 245.113 50.9519 246.204 50.9329 247.473C50.9129 248.5 50.7279 249.41 50.3759 250.2C50.0279 250.968 49.5929 251.471 49.0699 251.707L51.0439 258.51ZM59.5099 242.853C59.5599 242.853 59.5859 242.9 59.5859 242.996V244.725C59.5859 244.821 59.5599 244.869 59.5099 244.869H55.0509V249.778H58.2789C58.3299 249.778 58.3549 249.828 58.3549 249.922V251.651C58.3549 251.747 58.3299 251.796 58.2789 251.796H55.0509V256.704H59.5099C59.5599 256.704 59.5859 256.753 59.5859 256.848V258.576C59.5859 258.673 59.5599 258.722 59.5099 258.722H54.0599C54.0099 258.722 53.9839 258.673 53.9839 258.576V242.996C53.9839 242.9 54.0099 242.853 54.0599 242.853H59.5099ZM63.1459 254.614H63.6859L63.8539 247.465V242.382H62.9779V247.465L63.1459 254.614ZM63.8539 256.725H62.9779V258.722H63.8539V256.725Z" fill="#083783"/>
<path d="M30.8379 242.853C30.8889 242.853 30.9139 242.9 30.9139 242.996V258.576C30.9139 258.673 30.8889 258.722 30.8379 258.722H29.9709C29.9199 258.722 29.8949 258.673 29.8949 258.576V246.82L27.5329 251.806C27.4939 251.88 27.4569 251.88 27.4219 251.806L25.0669 246.832V258.576C25.0669 258.673 25.0409 258.722 24.9899 258.722H24.1229C24.0719 258.722 24.0469 258.673 24.0469 258.576V242.996C24.0469 242.9 24.0719 242.853 24.1229 242.853H24.4629C24.5219 242.853 24.5719 242.896 24.6149 242.985L27.4749 249.037L30.3399 242.985C30.3829 242.896 30.4339 242.853 30.4919 242.853H30.8379ZM38.0319 256.693C38.8909 256.693 39.6279 256.118 40.2409 254.964C40.8499 253.812 41.1549 252.42 41.1549 250.786C41.1549 249.162 40.8499 247.77 40.2409 246.609C39.6279 245.457 38.8909 244.88 38.0319 244.88C37.1689 244.88 36.4319 245.457 35.8229 246.609C35.2139 247.77 34.9089 249.162 34.9089 250.786C34.9089 252.42 35.2139 253.812 35.8229 254.964C36.4319 256.118 37.1689 256.693 38.0319 256.693ZM38.0319 242.853C39.1879 242.853 40.1759 243.628 40.9969 245.179C41.8169 246.732 42.2269 248.6 42.2269 250.786C42.2269 252.975 41.8169 254.843 40.9969 256.394C40.1759 257.945 39.1879 258.722 38.0319 258.722C36.8759 258.722 35.8869 257.945 35.0669 256.394C34.2469 254.843 33.8369 252.975 33.8369 250.786C33.8369 248.6 34.2469 246.732 35.0669 245.179C35.8869 243.628 36.8759 242.853 38.0319 242.853ZM48.5479 249.824C48.9109 249.824 49.2219 249.58 49.4799 249.092C49.7379 248.604 49.8659 248.019 49.8659 247.341C49.8659 246.654 49.7379 246.066 49.4799 245.578C49.2219 245.099 48.9109 244.859 48.5479 244.859H46.4559V249.824H48.5479ZM51.0439 258.51C51.0559 258.556 51.0539 258.603 51.0379 258.654C51.0269 258.699 51.0049 258.722 50.9739 258.722H49.9309C49.8999 258.722 49.8779 258.696 49.8659 258.645L47.8979 251.851L47.9039 251.84H46.4559V258.544C46.4559 258.641 46.4309 258.688 46.3799 258.688H45.4659C45.4149 258.688 45.3899 258.641 45.3899 258.544V242.985C45.3899 242.89 45.4149 242.841 45.4659 242.841H48.5479C49.2199 242.841 49.7899 243.295 50.2589 244.205C50.7279 245.113 50.9519 246.204 50.9329 247.473C50.9129 248.5 50.7279 249.41 50.3759 250.2C50.0279 250.968 49.5929 251.471 49.0699 251.707L51.0439 258.51ZM59.5099 242.853C59.5599 242.853 59.5859 242.9 59.5859 242.996V244.725C59.5859 244.821 59.5599 244.869 59.5099 244.869H55.0509V249.778H58.2789C58.3299 249.778 58.3549 249.828 58.3549 249.922V251.651C58.3549 251.747 58.3299 251.796 58.2789 251.796H55.0509V256.704H59.5099C59.5599 256.704 59.5859 256.753 59.5859 256.848V258.576C59.5859 258.673 59.5599 258.722 59.5099 258.722H54.0599C54.0099 258.722 53.9839 258.673 53.9839 258.576V242.996C53.9839 242.9 54.0099 242.853 54.0599 242.853H59.5099ZM63.1459 254.614H63.6859L63.8539 247.465V242.382H62.9779V247.465L63.1459 254.614ZM63.8539 256.725H62.9779V258.722H63.8539V256.725Z" stroke="#083783" stroke-width="0.25" stroke-miterlimit="4.78"/>
<path d="M33.8664 215.618C33.9174 215.618 33.9424 215.666 33.9424 215.762V231.342C33.9424 231.439 33.9174 231.488 33.8664 231.488H32.9464C32.8954 231.488 32.8704 231.439 32.8704 231.342V224.539H28.9504V231.321C28.9504 231.418 28.9254 231.465 28.8744 231.465H27.9544C27.9034 231.465 27.8784 231.418 27.8784 231.321V215.739C27.8784 215.645 27.9034 215.596 27.9544 215.596H28.8744C28.9254 215.596 28.9504 215.645 28.9504 215.739V222.512H32.8704V215.762C32.8704 215.666 32.8954 215.618 32.9464 215.618H33.8664ZM42.9944 215.618C43.0444 215.618 43.0704 215.666 43.0704 215.762V217.491C43.0704 217.587 43.0444 217.634 42.9944 217.634H38.5354V222.544H41.7634C41.8144 222.544 41.8394 222.593 41.8394 222.688V224.416C41.8394 224.513 41.8144 224.562 41.7634 224.562H38.5354V229.47H42.9944C43.0444 229.47 43.0704 229.519 43.0704 229.614V231.342C43.0704 231.439 43.0444 231.488 42.9944 231.488H37.5444C37.4934 231.488 37.4684 231.439 37.4684 231.342V215.762C37.4684 215.666 37.4934 215.618 37.5444 215.618H42.9944ZM49.9764 223.354L48.9224 218.533L47.8614 223.354H49.9764ZM49.3264 215.584C49.3614 215.584 49.3854 215.615 49.3964 215.673L52.8244 231.287C52.8364 231.333 52.8344 231.376 52.8184 231.42C52.8034 231.465 52.7814 231.488 52.7544 231.488H51.8164C51.7814 231.488 51.7584 231.458 51.7464 231.399L50.4044 225.281H47.4344L46.0924 231.399C46.0804 231.458 46.0574 231.488 46.0214 231.488H45.0844C45.0574 231.488 45.0354 231.465 45.0194 231.42C45.0044 231.376 45.0024 231.333 45.0144 231.287L48.4414 215.673C48.4574 215.615 48.4804 215.584 48.5124 215.584H49.3264ZM58.6064 222.589C58.9694 222.589 59.2804 222.346 59.5384 221.858C59.7954 221.37 59.9244 220.785 59.9244 220.106C59.9244 219.42 59.7954 218.832 59.5384 218.344C59.2804 217.865 58.9694 217.625 58.6064 217.625H56.5144V222.589H58.6064ZM61.1024 231.276C61.1144 231.321 61.1124 231.369 61.0964 231.42C61.0844 231.465 61.0634 231.488 61.0324 231.488H59.9894C59.9574 231.488 59.9364 231.461 59.9244 231.41L57.9564 224.617L57.9614 224.606H56.5144V231.31C56.5144 231.406 56.4894 231.454 56.4384 231.454H55.5244C55.4734 231.454 55.4484 231.406 55.4484 231.31V215.751C55.4484 215.656 55.4734 215.607 55.5244 215.607H58.6064C59.2784 215.607 59.8484 216.061 60.3174 216.971C60.7864 217.878 61.0104 218.97 60.9914 220.239C60.9714 221.266 60.7864 222.175 60.4344 222.966C60.0864 223.734 59.6514 224.237 59.1274 224.473L61.1024 231.276Z" fill="#083783"/>
<path d="M33.8664 215.618C33.9174 215.618 33.9424 215.666 33.9424 215.762V231.342C33.9424 231.439 33.9174 231.488 33.8664 231.488H32.9464C32.8954 231.488 32.8704 231.439 32.8704 231.342V224.539H28.9504V231.321C28.9504 231.418 28.9254 231.465 28.8744 231.465H27.9544C27.9034 231.465 27.8784 231.418 27.8784 231.321V215.739C27.8784 215.645 27.9034 215.596 27.9544 215.596H28.8744C28.9254 215.596 28.9504 215.645 28.9504 215.739V222.512H32.8704V215.762C32.8704 215.666 32.8954 215.618 32.9464 215.618H33.8664ZM42.9944 215.618C43.0444 215.618 43.0704 215.666 43.0704 215.762V217.491C43.0704 217.587 43.0444 217.634 42.9944 217.634H38.5354V222.544H41.7634C41.8144 222.544 41.8394 222.593 41.8394 222.688V224.416C41.8394 224.513 41.8144 224.562 41.7634 224.562H38.5354V229.47H42.9944C43.0444 229.47 43.0704 229.519 43.0704 229.614V231.342C43.0704 231.439 43.0444 231.488 42.9944 231.488H37.5444C37.4934 231.488 37.4684 231.439 37.4684 231.342V215.762C37.4684 215.666 37.4934 215.618 37.5444 215.618H42.9944ZM49.9764 223.354L48.9224 218.533L47.8614 223.354H49.9764ZM49.3264 215.584C49.3614 215.584 49.3854 215.615 49.3964 215.673L52.8244 231.287C52.8364 231.333 52.8344 231.376 52.8184 231.42C52.8034 231.465 52.7814 231.488 52.7544 231.488H51.8164C51.7814 231.488 51.7584 231.458 51.7464 231.399L50.4044 225.281H47.4344L46.0924 231.399C46.0804 231.458 46.0574 231.488 46.0214 231.488H45.0844C45.0574 231.488 45.0354 231.465 45.0194 231.42C45.0044 231.376 45.0024 231.333 45.0144 231.287L48.4414 215.673C48.4574 215.615 48.4804 215.584 48.5124 215.584H49.3264ZM58.6064 222.589C58.9694 222.589 59.2804 222.346 59.5384 221.858C59.7954 221.37 59.9244 220.785 59.9244 220.106C59.9244 219.42 59.7954 218.832 59.5384 218.344C59.2804 217.865 58.9694 217.625 58.6064 217.625H56.5144V222.589H58.6064ZM61.1024 231.276C61.1144 231.321 61.1124 231.369 61.0964 231.42C61.0844 231.465 61.0634 231.488 61.0324 231.488H59.9894C59.9574 231.488 59.9364 231.461 59.9244 231.41L57.9564 224.617L57.9614 224.606H56.5144V231.31C56.5144 231.406 56.4894 231.454 56.4384 231.454H55.5244C55.4734 231.454 55.4484 231.406 55.4484 231.31V215.751C55.4484 215.656 55.4734 215.607 55.5244 215.607H58.6064C59.2784 215.607 59.8484 216.061 60.3174 216.971C60.7864 217.878 61.0104 218.97 60.9914 220.239C60.9714 221.266 60.7864 222.175 60.4344 222.966C60.0864 223.734 59.6514 224.237 59.1274 224.473L61.1024 231.276Z" stroke="#083783" stroke-width="0.25" stroke-miterlimit="4.78"/>
<path d="M22.8969 188.385C22.9479 188.385 22.9729 188.432 22.9729 188.528V204.108C22.9729 204.205 22.9479 204.254 22.8969 204.254H21.9769C21.9259 204.254 21.9009 204.205 21.9009 204.108V197.306H17.9809V204.088C17.9809 204.184 17.9559 204.231 17.9049 204.231H16.9849C16.9339 204.231 16.9089 204.184 16.9089 204.088V188.506C16.9089 188.411 16.9339 188.362 16.9849 188.362H17.9049C17.9559 188.362 17.9809 188.411 17.9809 188.506V195.278H21.9009V188.528C21.9009 188.432 21.9259 188.385 21.9769 188.385H22.8969ZM32.0249 188.385C32.0749 188.385 32.1009 188.432 32.1009 188.528V190.257C32.1009 190.353 32.0749 190.401 32.0249 190.401H27.5659V195.31H30.7939C30.8449 195.31 30.8699 195.359 30.8699 195.454V197.183C30.8699 197.279 30.8449 197.328 30.7939 197.328H27.5659V202.236H32.0249C32.0749 202.236 32.1009 202.285 32.1009 202.38V204.108C32.1009 204.205 32.0749 204.254 32.0249 204.254H26.5749C26.5239 204.254 26.4989 204.205 26.4989 204.108V188.528C26.4989 188.432 26.5239 188.385 26.5749 188.385H32.0249ZM38.1109 195.356C38.4739 195.356 38.7849 195.112 39.0429 194.624C39.2999 194.136 39.4289 193.551 39.4289 192.873C39.4289 192.186 39.2999 191.598 39.0429 191.11C38.7849 190.631 38.4739 190.391 38.1109 190.391H36.0189V195.356H38.1109ZM40.6069 204.042C40.6189 204.088 40.6169 204.135 40.6009 204.186C40.5899 204.231 40.5679 204.254 40.5369 204.254H39.4939C39.4619 204.254 39.4409 204.228 39.4289 204.176L37.4609 197.383L37.4659 197.372H36.0189V204.076C36.0189 204.173 35.9939 204.22 35.9429 204.22H35.0289C34.9779 204.22 34.9529 204.173 34.9529 204.076V188.517C34.9529 188.422 34.9779 188.373 35.0289 188.373H38.1109C38.7829 188.373 39.3529 188.827 39.8219 189.737C40.2909 190.645 40.5149 191.736 40.4959 193.005C40.4759 194.032 40.2909 194.942 39.9389 195.732C39.5909 196.5 39.1559 197.003 38.6319 197.239L40.6069 204.042ZM49.0719 188.385C49.1229 188.385 49.1489 188.432 49.1489 188.528V190.257C49.1489 190.353 49.1229 190.401 49.0719 190.401H44.6129V195.31H47.8419C47.8929 195.31 47.9179 195.359 47.9179 195.454V197.183C47.9179 197.279 47.8929 197.328 47.8419 197.328H44.6129V202.236H49.0719C49.1229 202.236 49.1489 202.285 49.1489 202.38V204.108C49.1489 204.205 49.1229 204.254 49.0719 204.254H43.6229C43.5719 204.254 43.5469 204.205 43.5469 204.108V188.528C43.5469 188.432 43.5719 188.385 43.6229 188.385H49.0719ZM61.2919 188.385C61.3429 188.385 61.3679 188.432 61.3679 188.528V190.257C61.3679 190.353 61.3429 190.401 61.2919 190.401H59.0949V204.108C59.0949 204.205 59.0699 204.254 59.0189 204.254H58.1049C58.0539 204.254 58.0289 204.205 58.0289 204.108V190.401H55.8259C55.7749 190.401 55.7489 190.353 55.7489 190.257V188.528C55.7489 188.432 55.7749 188.385 55.8259 188.385H61.2919ZM67.6539 202.225C68.5139 202.225 69.2499 201.65 69.8629 200.496C70.4729 199.344 70.7769 197.952 70.7769 196.318C70.7769 194.694 70.4729 193.302 69.8629 192.141C69.2499 190.989 68.5139 190.412 67.6539 190.412C66.7909 190.412 66.0549 190.989 65.4449 192.141C64.8359 193.302 64.5309 194.694 64.5309 196.318C64.5309 197.952 64.8359 199.344 65.4449 200.496C66.0549 201.65 66.7909 202.225 67.6539 202.225ZM67.6539 188.385C68.8099 188.385 69.7989 189.16 70.6189 190.711C71.4389 192.264 71.8489 194.132 71.8489 196.318C71.8489 198.507 71.4389 200.375 70.6189 201.926C69.7989 203.477 68.8099 204.254 67.6539 204.254C66.4979 204.254 65.5099 203.477 64.6889 201.926C63.8689 200.375 63.4589 198.507 63.4589 196.318C63.4589 194.132 63.8689 192.264 64.6889 190.711C65.5099 189.16 66.4979 188.385 67.6539 188.385Z" fill="#083783"/>
<path d="M22.8969 188.385C22.9479 188.385 22.9729 188.432 22.9729 188.528V204.108C22.9729 204.205 22.9479 204.254 22.8969 204.254H21.9769C21.9259 204.254 21.9009 204.205 21.9009 204.108V197.306H17.9809V204.088C17.9809 204.184 17.9559 204.231 17.9049 204.231H16.9849C16.9339 204.231 16.9089 204.184 16.9089 204.088V188.506C16.9089 188.411 16.9339 188.362 16.9849 188.362H17.9049C17.9559 188.362 17.9809 188.411 17.9809 188.506V195.278H21.9009V188.528C21.9009 188.432 21.9259 188.385 21.9769 188.385H22.8969ZM32.0249 188.385C32.0749 188.385 32.1009 188.432 32.1009 188.528V190.257C32.1009 190.353 32.0749 190.401 32.0249 190.401H27.5659V195.31H30.7939C30.8449 195.31 30.8699 195.359 30.8699 195.454V197.183C30.8699 197.279 30.8449 197.328 30.7939 197.328H27.5659V202.236H32.0249C32.0749 202.236 32.1009 202.285 32.1009 202.38V204.108C32.1009 204.205 32.0749 204.254 32.0249 204.254H26.5749C26.5239 204.254 26.4989 204.205 26.4989 204.108V188.528C26.4989 188.432 26.5239 188.385 26.5749 188.385H32.0249ZM38.1109 195.356C38.4739 195.356 38.7849 195.112 39.0429 194.624C39.2999 194.136 39.4289 193.551 39.4289 192.873C39.4289 192.186 39.2999 191.598 39.0429 191.11C38.7849 190.631 38.4739 190.391 38.1109 190.391H36.0189V195.356H38.1109ZM40.6069 204.042C40.6189 204.088 40.6169 204.135 40.6009 204.186C40.5899 204.231 40.5679 204.254 40.5369 204.254H39.4939C39.4619 204.254 39.4409 204.228 39.4289 204.176L37.4609 197.383L37.4659 197.372H36.0189V204.076C36.0189 204.173 35.9939 204.22 35.9429 204.22H35.0289C34.9779 204.22 34.9529 204.173 34.9529 204.076V188.517C34.9529 188.422 34.9779 188.373 35.0289 188.373H38.1109C38.7829 188.373 39.3529 188.827 39.8219 189.737C40.2909 190.645 40.5149 191.736 40.4959 193.005C40.4759 194.032 40.2909 194.942 39.9389 195.732C39.5909 196.5 39.1559 197.003 38.6319 197.239L40.6069 204.042ZM49.0719 188.385C49.1229 188.385 49.1489 188.432 49.1489 188.528V190.257C49.1489 190.353 49.1229 190.401 49.0719 190.401H44.6129V195.31H47.8419C47.8929 195.31 47.9179 195.359 47.9179 195.454V197.183C47.9179 197.279 47.8929 197.328 47.8419 197.328H44.6129V202.236H49.0719C49.1229 202.236 49.1489 202.285 49.1489 202.38V204.108C49.1489 204.205 49.1229 204.254 49.0719 204.254H43.6229C43.5719 204.254 43.5469 204.205 43.5469 204.108V188.528C43.5469 188.432 43.5719 188.385 43.6229 188.385H49.0719ZM61.2919 188.385C61.3429 188.385 61.3679 188.432 61.3679 188.528V190.257C61.3679 190.353 61.3429 190.401 61.2919 190.401H59.0949V204.108C59.0949 204.205 59.0699 204.254 59.0189 204.254H58.1049C58.0539 204.254 58.0289 204.205 58.0289 204.108V190.401H55.8259C55.7749 190.401 55.7489 190.353 55.7489 190.257V188.528C55.7489 188.432 55.7749 188.385 55.8259 188.385H61.2919ZM67.6539 202.225C68.5139 202.225 69.2499 201.65 69.8629 200.496C70.4729 199.344 70.7769 197.952 70.7769 196.318C70.7769 194.694 70.4729 193.302 69.8629 192.141C69.2499 190.989 68.5139 190.412 67.6539 190.412C66.7909 190.412 66.0549 190.989 65.4449 192.141C64.8359 193.302 64.5309 194.694 64.5309 196.318C64.5309 197.952 64.8359 199.344 65.4449 200.496C66.0549 201.65 66.7909 202.225 67.6539 202.225ZM67.6539 188.385C68.8099 188.385 69.7989 189.16 70.6189 190.711C71.4389 192.264 71.8489 194.132 71.8489 196.318C71.8489 198.507 71.4389 200.375 70.6189 201.926C69.7989 203.477 68.8099 204.254 67.6539 204.254C66.4979 204.254 65.5099 203.477 64.6889 201.926C63.8689 200.375 63.4589 198.507 63.4589 196.318C63.4589 194.132 63.8689 192.264 64.6889 190.711C65.5099 189.16 66.4979 188.385 67.6539 188.385Z" stroke="#083783" stroke-width="0.25" stroke-miterlimit="4.78"/>
<path d="M32.9412 175.534C32.9682 175.616 32.9612 175.682 32.9182 175.733C32.2262 176.591 31.4622 177.019 30.6272 177.019C30.0412 177.019 29.4802 176.798 28.9452 176.355C28.4292 175.926 27.9762 175.321 27.5862 174.538C26.7532 172.883 26.3712 170.914 26.4372 168.631C26.4962 166.666 26.8942 164.97 27.6322 163.544C28.3672 162.118 29.2532 161.327 30.2932 161.172C31.2462 161.032 32.1192 161.45 32.9122 162.424C32.9552 162.477 32.9622 162.543 32.9352 162.625L32.4202 164.054C32.3922 164.136 32.3572 164.149 32.3142 164.098C31.7282 163.381 31.0842 163.075 30.3802 163.179C29.5842 163.296 28.9062 163.916 28.3472 165.04C27.7932 166.163 27.5092 167.485 27.4982 169.008C27.4862 170.655 27.7892 172.066 28.4062 173.24C29.0192 174.415 29.7592 175.003 30.6272 175.003C31.2442 175.003 31.8082 174.689 32.3202 174.061C32.3632 174.008 32.3982 174.023 32.4252 174.105L32.9412 175.534ZM40.3402 174.992C40.3912 174.992 40.4162 175.039 40.4162 175.135V176.875C40.4162 176.972 40.3912 177.019 40.3402 177.019H35.6762C35.6252 177.019 35.6002 176.972 35.6002 176.875V161.284C35.6002 161.187 35.6252 161.14 35.6762 161.14H36.5962C36.6472 161.14 36.6722 161.187 36.6722 161.284V174.992H40.3402ZM44.1532 161.151C44.2042 161.151 44.2292 161.199 44.2292 161.295V176.875C44.2292 176.972 44.2042 177.019 44.1532 177.019H43.2332C43.1822 177.019 43.1572 176.972 43.1572 176.875V161.295C43.1572 161.199 43.1822 161.151 43.2332 161.151H44.1532ZM53.7202 175.534C53.7472 175.616 53.7392 175.682 53.6972 175.733C53.0052 176.591 52.2412 177.019 51.4062 177.019C50.8202 177.019 50.2592 176.798 49.7242 176.355C49.2082 175.926 48.7552 175.321 48.3652 174.538C47.5322 172.883 47.1502 170.914 47.2162 168.631C47.2752 166.666 47.6732 164.97 48.4112 163.544C49.1462 162.118 50.0322 161.327 51.0722 161.172C52.0252 161.032 52.8982 161.45 53.6912 162.424C53.7342 162.477 53.7412 162.543 53.7142 162.625L53.1992 164.054C53.1712 164.136 53.1362 164.149 53.0932 164.098C52.5072 163.381 51.8632 163.075 51.1592 163.179C50.3632 163.296 49.6852 163.916 49.1262 165.04C48.5722 166.163 48.2882 167.485 48.2772 169.008C48.2652 170.655 48.5682 172.066 49.1852 173.24C49.7982 174.415 50.5382 175.003 51.4062 175.003C52.0232 175.003 52.5872 174.689 53.0992 174.061C53.1422 174.008 53.1772 174.023 53.2042 174.105L53.7202 175.534ZM62.3552 176.775C62.3832 176.82 62.3882 176.871 62.3732 176.93C62.3612 176.991 62.3382 177.019 62.3032 177.019H60.9612C60.9372 177.019 60.9202 177.004 60.9082 176.975L57.4512 170.846V176.875C57.4512 176.972 57.4262 177.019 57.3752 177.019H56.4552C56.4042 177.019 56.3792 176.972 56.3792 176.875V161.284C56.3792 161.187 56.4042 161.14 56.4552 161.14H57.3752C57.4262 161.14 57.4512 161.187 57.4512 161.284V167.179L60.6272 161.195C60.6422 161.165 60.6602 161.151 60.6802 161.151H61.9802C62.0152 161.151 62.0392 161.18 62.0512 161.238C62.0662 161.299 62.0622 161.35 62.0392 161.393L57.9902 169.03L62.3552 176.775Z" fill="#083783"/>
<path d="M32.9412 175.534C32.9682 175.616 32.9612 175.682 32.9182 175.733C32.2262 176.591 31.4622 177.019 30.6272 177.019C30.0412 177.019 29.4802 176.798 28.9452 176.355C28.4292 175.926 27.9762 175.321 27.5862 174.538C26.7532 172.883 26.3712 170.914 26.4372 168.631C26.4962 166.666 26.8942 164.97 27.6322 163.544C28.3672 162.118 29.2532 161.327 30.2932 161.172C31.2462 161.032 32.1192 161.45 32.9122 162.424C32.9552 162.477 32.9622 162.543 32.9352 162.625L32.4202 164.054C32.3922 164.136 32.3572 164.149 32.3142 164.098C31.7282 163.381 31.0842 163.075 30.3802 163.179C29.5842 163.296 28.9062 163.916 28.3472 165.04C27.7932 166.163 27.5092 167.485 27.4982 169.008C27.4862 170.655 27.7892 172.066 28.4062 173.24C29.0192 174.415 29.7592 175.003 30.6272 175.003C31.2442 175.003 31.8082 174.689 32.3202 174.061C32.3632 174.008 32.3982 174.023 32.4252 174.105L32.9412 175.534ZM40.3402 174.992C40.3912 174.992 40.4162 175.039 40.4162 175.135V176.875C40.4162 176.972 40.3912 177.019 40.3402 177.019H35.6762C35.6252 177.019 35.6002 176.972 35.6002 176.875V161.284C35.6002 161.187 35.6252 161.14 35.6762 161.14H36.5962C36.6472 161.14 36.6722 161.187 36.6722 161.284V174.992H40.3402ZM44.1532 161.151C44.2042 161.151 44.2292 161.199 44.2292 161.295V176.875C44.2292 176.972 44.2042 177.019 44.1532 177.019H43.2332C43.1822 177.019 43.1572 176.972 43.1572 176.875V161.295C43.1572 161.199 43.1822 161.151 43.2332 161.151H44.1532ZM53.7202 175.534C53.7472 175.616 53.7392 175.682 53.6972 175.733C53.0052 176.591 52.2412 177.019 51.4062 177.019C50.8202 177.019 50.2592 176.798 49.7242 176.355C49.2082 175.926 48.7552 175.321 48.3652 174.538C47.5322 172.883 47.1502 170.914 47.2162 168.631C47.2752 166.666 47.6732 164.97 48.4112 163.544C49.1462 162.118 50.0322 161.327 51.0722 161.172C52.0252 161.032 52.8982 161.45 53.6912 162.424C53.7342 162.477 53.7412 162.543 53.7142 162.625L53.1992 164.054C53.1712 164.136 53.1362 164.149 53.0932 164.098C52.5072 163.381 51.8632 163.075 51.1592 163.179C50.3632 163.296 49.6852 163.916 49.1262 165.04C48.5722 166.163 48.2882 167.485 48.2772 169.008C48.2652 170.655 48.5682 172.066 49.1852 173.24C49.7982 174.415 50.5382 175.003 51.4062 175.003C52.0232 175.003 52.5872 174.689 53.0992 174.061C53.1422 174.008 53.1772 174.023 53.2042 174.105L53.7202 175.534ZM62.3552 176.775C62.3832 176.82 62.3882 176.871 62.3732 176.93C62.3612 176.991 62.3382 177.019 62.3032 177.019H60.9612C60.9372 177.019 60.9202 177.004 60.9082 176.975L57.4512 170.846V176.875C57.4512 176.972 57.4262 177.019 57.3752 177.019H56.4552C56.4042 177.019 56.3792 176.972 56.3792 176.875V161.284C56.3792 161.187 56.4042 161.14 56.4552 161.14H57.3752C57.4262 161.14 57.4512 161.187 57.4512 161.284V167.179L60.6272 161.195C60.6422 161.165 60.6602 161.151 60.6802 161.151H61.9802C62.0152 161.151 62.0392 161.18 62.0512 161.238C62.0662 161.299 62.0622 161.35 62.0392 161.393L57.9902 169.03L62.3552 176.775Z" stroke="#083783" stroke-width="0.25" stroke-miterlimit="4.78"/>
<path d="M35.7011 52.7741C38.8201 52.394 42.4161 52.655 45.7151 52.655C49.0491 52.655 52.6531 52.2313 55.1611 53.489C57.6411 54.7315 59.8211 57.2791 61.2701 60.636C62.6401 63.8076 63.8711 68.0478 64.0411 74.0941C64.2231 80.5528 64.0411 85.8274 64.0411 92.9139C64.0411 99.2723 64.3021 105.979 63.6631 110.898C62.4771 120.034 58.3921 126.885 52.7051 127.573C49.3751 127.978 46.1441 127.692 42.8171 127.692C39.7381 127.692 35.9391 128.263 33.3081 126.977C28.5041 124.632 24.7931 117.3 24.4281 106.372C24.2361 100.626 24.3651 93.6667 24.3651 87.6733C24.3651 81.4114 24.1261 74.3287 24.7431 69.6875C25.7011 62.4724 28.1441 57.4058 31.6071 54.5613C32.8581 53.5325 34.1541 52.9632 35.7011 52.7741Z" fill="white"/>
<path d="M57.2799 110.886H31.1619V69.4998H57.2799V110.886Z" fill="#003882"/>
<path d="M28.7778 65.2175H59.5688V106.658C59.5688 109.187 59.8768 115.878 59.3798 116.661C59.0188 117.231 58.4218 116.661 57.1138 116.661C44.5628 116.661 40.3528 116.954 28.7778 116.304V65.2175ZM32.1778 79.8633C31.5978 83.2675 31.4798 98.4562 32.3658 102.015C33.7848 107.71 38.3398 106.303 43.7008 106.303C49.5308 106.303 54.5578 107.884 55.7908 101.301C56.5308 97.3536 56.2818 82.1309 55.7908 79.5059C54.5608 72.9167 49.4188 74.5054 44.6458 74.5054C41.3758 74.5054 37.6898 73.8813 35.3888 74.8628C33.5368 75.6515 32.5018 77.9588 32.1778 79.8633Z" fill="white"/>
<path d="M41.812 84.8661C43.924 86.7441 45.078 87.8146 47.668 90.2259C45.796 92.2817 43.812 94.1257 41.812 95.9413V84.8661Z" fill="white"/>
<path d="M93.6853 -8.15039e-06V330L78.7593 165.346L93.6853 -8.15039e-06Z" fill="#083783"/>
</svg>
