<svg width="93" height="175" viewBox="0 0 93 175" fill="none" xmlns="http://www.w3.org/2000/svg">
<path d="M0 173.751H92.976V6.10352e-05H0V173.751Z" fill="#083783"/>
<path d="M38.1328 128.605C38.1838 128.605 38.2088 128.63 38.2088 128.681V136.919C38.2088 136.97 38.1838 136.996 38.1328 136.996H37.2658C37.2148 136.996 37.1898 136.97 37.1898 136.919V130.703L34.8278 133.339C34.7888 133.378 34.7518 133.378 34.7168 133.339L32.3618 130.709V136.919C32.3618 136.97 32.3358 136.996 32.2848 136.996H31.4178C31.3668 136.996 31.3418 136.97 31.3418 136.919V128.681C31.3418 128.63 31.3668 128.605 31.4178 128.605H31.7578C31.8168 128.605 31.8668 128.628 31.9098 128.675L34.7698 131.875L37.6348 128.675C37.6778 128.628 37.7288 128.605 37.7868 128.605H38.1328ZM45.3268 135.923C46.1858 135.923 46.9228 135.619 47.5358 135.009C48.1448 134.4 48.4498 133.664 48.4498 132.8C48.4498 131.941 48.1448 131.205 47.5358 130.591C46.9228 129.982 46.1858 129.677 45.3268 129.677C44.4638 129.677 43.7268 129.982 43.1178 130.591C42.5088 131.205 42.2038 131.941 42.2038 132.8C42.2038 133.664 42.5088 134.4 43.1178 135.009C43.7268 135.619 44.4638 135.923 45.3268 135.923ZM45.3268 128.605C46.4828 128.605 47.4708 129.015 48.2918 129.835C49.1118 130.656 49.5218 131.644 49.5218 132.8C49.5218 133.957 49.1118 134.945 48.2918 135.765C47.4708 136.585 46.4828 136.996 45.3268 136.996C44.1708 136.996 43.1818 136.585 42.3618 135.765C41.5418 134.945 41.1318 133.957 41.1318 132.8C41.1318 131.644 41.5418 130.656 42.3618 129.835C43.1818 129.015 44.1708 128.605 45.3268 128.605ZM55.8428 132.291C56.2058 132.291 56.5168 132.162 56.7748 131.904C57.0328 131.646 57.1608 131.337 57.1608 130.978C57.1608 130.615 57.0328 130.304 56.7748 130.046C56.5168 129.793 56.2058 129.666 55.8428 129.666H53.7508V132.291H55.8428ZM58.3388 136.884C58.3508 136.908 58.3488 136.933 58.3328 136.96C58.3218 136.984 58.2998 136.996 58.2688 136.996H57.2258C57.1948 136.996 57.1728 136.982 57.1608 136.955L55.1928 133.363L55.1988 133.357H53.7508V136.902C53.7508 136.953 53.7258 136.978 53.6748 136.978H52.7608C52.7098 136.978 52.6848 136.953 52.6848 136.902V128.675C52.6848 128.625 52.7098 128.599 52.7608 128.599H55.8428C56.5148 128.599 57.0848 128.839 57.5538 129.32C58.0228 129.8 58.2468 130.377 58.2278 131.048C58.2078 131.591 58.0228 132.072 57.6708 132.49C57.3228 132.896 56.8878 133.162 56.3648 133.287L58.3388 136.884ZM66.8048 128.605C66.8548 128.605 66.8808 128.63 66.8808 128.681V129.595C66.8808 129.646 66.8548 129.671 66.8048 129.671H62.3458V132.267H65.5738C65.6248 132.267 65.6498 132.293 65.6498 132.343V133.257C65.6498 133.308 65.6248 133.334 65.5738 133.334H62.3458V135.929H66.8048C66.8548 135.929 66.8808 135.955 66.8808 136.005V136.919C66.8808 136.97 66.8548 136.996 66.8048 136.996H61.3548C61.3048 136.996 61.2788 136.97 61.2788 136.919V128.681C61.2788 128.63 61.3048 128.605 61.3548 128.605H66.8048ZM70.4408 134.824H70.9808L71.1488 131.044V128.356H70.2728V131.044L70.4408 134.824ZM71.1488 135.94H70.2728V136.996H71.1488V135.94Z" fill="white"/>
<path d="M38.1328 128.605C38.1838 128.605 38.2088 128.63 38.2088 128.681V136.919C38.2088 136.97 38.1838 136.996 38.1328 136.996H37.2658C37.2148 136.996 37.1898 136.97 37.1898 136.919V130.703L34.8278 133.339C34.7888 133.378 34.7518 133.378 34.7168 133.339L32.3618 130.709V136.919C32.3618 136.97 32.3358 136.996 32.2848 136.996H31.4178C31.3668 136.996 31.3418 136.97 31.3418 136.919V128.681C31.3418 128.63 31.3668 128.605 31.4178 128.605H31.7578C31.8168 128.605 31.8668 128.628 31.9098 128.675L34.7698 131.875L37.6348 128.675C37.6778 128.628 37.7288 128.605 37.7868 128.605H38.1328ZM45.3268 135.923C46.1858 135.923 46.9228 135.619 47.5358 135.009C48.1448 134.4 48.4498 133.664 48.4498 132.8C48.4498 131.941 48.1448 131.205 47.5358 130.591C46.9228 129.982 46.1858 129.677 45.3268 129.677C44.4638 129.677 43.7268 129.982 43.1178 130.591C42.5088 131.205 42.2038 131.941 42.2038 132.8C42.2038 133.664 42.5088 134.4 43.1178 135.009C43.7268 135.619 44.4638 135.923 45.3268 135.923ZM45.3268 128.605C46.4828 128.605 47.4708 129.015 48.2918 129.835C49.1118 130.656 49.5218 131.644 49.5218 132.8C49.5218 133.957 49.1118 134.945 48.2918 135.765C47.4708 136.585 46.4828 136.996 45.3268 136.996C44.1708 136.996 43.1818 136.585 42.3618 135.765C41.5418 134.945 41.1318 133.957 41.1318 132.8C41.1318 131.644 41.5418 130.656 42.3618 129.835C43.1818 129.015 44.1708 128.605 45.3268 128.605ZM55.8428 132.291C56.2058 132.291 56.5168 132.162 56.7748 131.904C57.0328 131.646 57.1608 131.337 57.1608 130.978C57.1608 130.615 57.0328 130.304 56.7748 130.046C56.5168 129.793 56.2058 129.666 55.8428 129.666H53.7508V132.291H55.8428ZM58.3388 136.884C58.3508 136.908 58.3488 136.933 58.3328 136.96C58.3218 136.984 58.2998 136.996 58.2688 136.996H57.2258C57.1948 136.996 57.1728 136.982 57.1608 136.955L55.1928 133.363L55.1988 133.357H53.7508V136.902C53.7508 136.953 53.7258 136.978 53.6748 136.978H52.7608C52.7098 136.978 52.6848 136.953 52.6848 136.902V128.675C52.6848 128.625 52.7098 128.599 52.7608 128.599H55.8428C56.5148 128.599 57.0848 128.839 57.5538 129.32C58.0228 129.8 58.2468 130.377 58.2278 131.048C58.2078 131.591 58.0228 132.072 57.6708 132.49C57.3228 132.896 56.8878 133.162 56.3648 133.287L58.3388 136.884ZM66.8048 128.605C66.8548 128.605 66.8808 128.63 66.8808 128.681V129.595C66.8808 129.646 66.8548 129.671 66.8048 129.671H62.3458V132.267H65.5738C65.6248 132.267 65.6498 132.293 65.6498 132.343V133.257C65.6498 133.308 65.6248 133.334 65.5738 133.334H62.3458V135.929H66.8048C66.8548 135.929 66.8808 135.955 66.8808 136.005V136.919C66.8808 136.97 66.8548 136.996 66.8048 136.996H61.3548C61.3048 136.996 61.2788 136.97 61.2788 136.919V128.681C61.2788 128.63 61.3048 128.605 61.3548 128.605H66.8048ZM70.4408 134.824H70.9808L71.1488 131.044V128.356H70.2728V131.044L70.4408 134.824ZM71.1488 135.94H70.2728V136.996H71.1488V135.94Z" stroke="white" stroke-width="0.25" stroke-miterlimit="4.78"/>
<path d="M41.1613 114.205C41.2123 114.205 41.2373 114.23 41.2373 114.281V122.519C41.2373 122.57 41.2123 122.596 41.1613 122.596H40.2413C40.1903 122.596 40.1653 122.57 40.1653 122.519V118.922H36.2453V122.508C36.2453 122.559 36.2203 122.584 36.1693 122.584H35.2493C35.1983 122.584 35.1733 122.559 35.1733 122.508V114.269C35.1733 114.219 35.1983 114.193 35.2493 114.193H36.1693C36.2203 114.193 36.2453 114.219 36.2453 114.269V117.85H40.1653V114.281C40.1653 114.23 40.1903 114.205 40.2413 114.205H41.1613ZM50.2893 114.205C50.3393 114.205 50.3653 114.23 50.3653 114.281V115.195C50.3653 115.246 50.3393 115.271 50.2893 115.271H45.8303V117.867H49.0583C49.1093 117.867 49.1343 117.893 49.1343 117.943V118.857C49.1343 118.908 49.1093 118.934 49.0583 118.934H45.8303V121.529H50.2893C50.3393 121.529 50.3653 121.555 50.3653 121.605V122.519C50.3653 122.57 50.3393 122.596 50.2893 122.596H44.8393C44.7883 122.596 44.7633 122.57 44.7633 122.519V114.281C44.7633 114.23 44.7883 114.205 44.8393 114.205H50.2893ZM57.2713 118.295L56.2173 115.746L55.1563 118.295H57.2713ZM56.6213 114.187C56.6563 114.187 56.6803 114.203 56.6913 114.234L60.1193 122.49C60.1313 122.514 60.1293 122.537 60.1133 122.56C60.0983 122.584 60.0763 122.596 60.0493 122.596H59.1113C59.0763 122.596 59.0533 122.58 59.0413 122.549L57.6993 119.314H54.7293L53.3873 122.549C53.3753 122.58 53.3523 122.596 53.3163 122.596H52.3793C52.3513 122.596 52.3303 122.584 52.3143 122.56C52.2993 122.537 52.2973 122.514 52.3093 122.49L55.7363 114.234C55.7523 114.203 55.7753 114.187 55.8073 114.187H56.6213ZM65.9013 117.891C66.2643 117.891 66.5753 117.762 66.8333 117.504C67.0903 117.246 67.2193 116.937 67.2193 116.578C67.2193 116.215 67.0903 115.904 66.8333 115.646C66.5753 115.393 66.2643 115.266 65.9013 115.266H63.8093V117.891H65.9013ZM68.3973 122.484C68.4093 122.508 68.4073 122.533 68.3913 122.56C68.3793 122.584 68.3583 122.596 68.3273 122.596H67.2843C67.2523 122.596 67.2313 122.582 67.2193 122.555L65.2513 118.963L65.2563 118.957H63.8093V122.502C63.8093 122.553 63.7843 122.578 63.7333 122.578H62.8193C62.7683 122.578 62.7433 122.553 62.7433 122.502V114.275C62.7433 114.225 62.7683 114.199 62.8193 114.199H65.9013C66.5733 114.199 67.1433 114.439 67.6123 114.92C68.0813 115.4 68.3053 115.977 68.2863 116.648C68.2663 117.191 68.0813 117.672 67.7293 118.09C67.3813 118.496 66.9463 118.762 66.4223 118.887L68.3973 122.484Z" fill="white"/>
<path d="M41.1613 114.205C41.2123 114.205 41.2373 114.23 41.2373 114.281V122.519C41.2373 122.57 41.2123 122.596 41.1613 122.596H40.2413C40.1903 122.596 40.1653 122.57 40.1653 122.519V118.922H36.2453V122.508C36.2453 122.559 36.2203 122.584 36.1693 122.584H35.2493C35.1983 122.584 35.1733 122.559 35.1733 122.508V114.269C35.1733 114.219 35.1983 114.193 35.2493 114.193H36.1693C36.2203 114.193 36.2453 114.219 36.2453 114.269V117.85H40.1653V114.281C40.1653 114.23 40.1903 114.205 40.2413 114.205H41.1613ZM50.2893 114.205C50.3393 114.205 50.3653 114.23 50.3653 114.281V115.195C50.3653 115.246 50.3393 115.271 50.2893 115.271H45.8303V117.867H49.0583C49.1093 117.867 49.1343 117.893 49.1343 117.943V118.857C49.1343 118.908 49.1093 118.934 49.0583 118.934H45.8303V121.529H50.2893C50.3393 121.529 50.3653 121.555 50.3653 121.605V122.519C50.3653 122.57 50.3393 122.596 50.2893 122.596H44.8393C44.7883 122.596 44.7633 122.57 44.7633 122.519V114.281C44.7633 114.23 44.7883 114.205 44.8393 114.205H50.2893ZM57.2713 118.295L56.2173 115.746L55.1563 118.295H57.2713ZM56.6213 114.187C56.6563 114.187 56.6803 114.203 56.6913 114.234L60.1193 122.49C60.1313 122.514 60.1293 122.537 60.1133 122.56C60.0983 122.584 60.0763 122.596 60.0493 122.596H59.1113C59.0763 122.596 59.0533 122.58 59.0413 122.549L57.6993 119.314H54.7293L53.3873 122.549C53.3753 122.58 53.3523 122.596 53.3163 122.596H52.3793C52.3513 122.596 52.3303 122.584 52.3143 122.56C52.2993 122.537 52.2973 122.514 52.3093 122.49L55.7363 114.234C55.7523 114.203 55.7753 114.187 55.8073 114.187H56.6213ZM65.9013 117.891C66.2643 117.891 66.5753 117.762 66.8333 117.504C67.0903 117.246 67.2193 116.937 67.2193 116.578C67.2193 116.215 67.0903 115.904 66.8333 115.646C66.5753 115.393 66.2643 115.266 65.9013 115.266H63.8093V117.891H65.9013ZM68.3973 122.484C68.4093 122.508 68.4073 122.533 68.3913 122.56C68.3793 122.584 68.3583 122.596 68.3273 122.596H67.2843C67.2523 122.596 67.2313 122.582 67.2193 122.555L65.2513 118.963L65.2563 118.957H63.8093V122.502C63.8093 122.553 63.7843 122.578 63.7333 122.578H62.8193C62.7683 122.578 62.7433 122.553 62.7433 122.502V114.275C62.7433 114.225 62.7683 114.199 62.8193 114.199H65.9013C66.5733 114.199 67.1433 114.439 67.6123 114.92C68.0813 115.4 68.3053 115.977 68.2863 116.648C68.2663 117.191 68.0813 117.672 67.7293 118.09C67.3813 118.496 66.9463 118.762 66.4223 118.887L68.3973 122.484Z" stroke="white" stroke-width="0.25" stroke-miterlimit="4.78"/>
<path d="M30.1919 99.8052C30.2429 99.8052 30.2679 99.8302 30.2679 99.8812V108.119C30.2679 108.17 30.2429 108.196 30.1919 108.196H29.2719C29.2209 108.196 29.1959 108.17 29.1959 108.119V104.522H25.2759V108.108C25.2759 108.159 25.2509 108.184 25.1999 108.184H24.2799C24.2289 108.184 24.2039 108.159 24.2039 108.108V99.8692C24.2039 99.8192 24.2289 99.7932 24.2799 99.7932H25.1999C25.2509 99.7932 25.2759 99.8192 25.2759 99.8692V103.45H29.1959V99.8812C29.1959 99.8302 29.2209 99.8052 29.2719 99.8052H30.1919ZM39.3199 99.8052C39.3699 99.8052 39.3959 99.8302 39.3959 99.8812V100.795C39.3959 100.846 39.3699 100.871 39.3199 100.871H34.8609V103.467H38.0889C38.1399 103.467 38.1649 103.493 38.1649 103.543V104.457C38.1649 104.508 38.1399 104.534 38.0889 104.534H34.8609V107.129H39.3199C39.3699 107.129 39.3959 107.155 39.3959 107.205V108.119C39.3959 108.17 39.3699 108.196 39.3199 108.196H33.8699C33.8199 108.196 33.7939 108.17 33.7939 108.119V99.8812C33.7939 99.8302 33.8199 99.8052 33.8699 99.8052H39.3199ZM45.4059 103.491C45.7689 103.491 46.0799 103.362 46.3379 103.104C46.5949 102.846 46.7239 102.537 46.7239 102.178C46.7239 101.815 46.5949 101.504 46.3379 101.246C46.0799 100.993 45.7689 100.866 45.4059 100.866H43.3139V103.491H45.4059ZM47.9019 108.084C47.9139 108.108 47.9119 108.133 47.8959 108.16C47.8849 108.184 47.8629 108.196 47.8319 108.196H46.7889C46.7569 108.196 46.7359 108.182 46.7239 108.155L44.7559 104.563L44.7609 104.557H43.3139V108.102C43.3139 108.153 43.2889 108.178 43.2379 108.178H42.3239C42.2729 108.178 42.2479 108.153 42.2479 108.102V99.8752C42.2479 99.8252 42.2729 99.7992 42.3239 99.7992H45.4059C46.0779 99.7992 46.6479 100.039 47.1169 100.52C47.5859 101 47.8099 101.577 47.7909 102.248C47.7709 102.791 47.5859 103.272 47.2339 103.69C46.8859 104.096 46.4509 104.362 45.9269 104.487L47.9019 108.084ZM56.3669 99.8052C56.4179 99.8052 56.4439 99.8302 56.4439 99.8812V100.795C56.4439 100.846 56.4179 100.871 56.3669 100.871H51.9079V103.467H55.1369C55.1879 103.467 55.2129 103.493 55.2129 103.543V104.457C55.2129 104.508 55.1879 104.534 55.1369 104.534H51.9079V107.129H56.3669C56.4179 107.129 56.4439 107.155 56.4439 107.205V108.119C56.4439 108.17 56.4179 108.196 56.3669 108.196H50.9179C50.8669 108.196 50.8419 108.17 50.8419 108.119V99.8812C50.8419 99.8302 50.8669 99.8052 50.9179 99.8052H56.3669ZM68.5869 99.8052C68.6379 99.8052 68.6629 99.8302 68.6629 99.8812V100.795C68.6629 100.846 68.6379 100.871 68.5869 100.871H66.3899V108.119C66.3899 108.17 66.3649 108.196 66.3139 108.196H65.3999C65.3489 108.196 65.3239 108.17 65.3239 108.119V100.871H63.1209C63.0699 100.871 63.0439 100.846 63.0439 100.795V99.8812C63.0439 99.8302 63.0699 99.8052 63.1209 99.8052H68.5869ZM74.9489 107.123C75.8089 107.123 76.5449 106.819 77.1579 106.209C77.7679 105.6 78.0719 104.864 78.0719 104C78.0719 103.141 77.7679 102.405 77.1579 101.791C76.5449 101.182 75.8089 100.877 74.9489 100.877C74.0859 100.877 73.3499 101.182 72.7399 101.791C72.1309 102.405 71.8259 103.141 71.8259 104C71.8259 104.864 72.1309 105.6 72.7399 106.209C73.3499 106.819 74.0859 107.123 74.9489 107.123ZM74.9489 99.8052C76.1049 99.8052 77.0939 100.215 77.9139 101.035C78.7339 101.856 79.1449 102.844 79.1449 104C79.1449 105.157 78.7339 106.145 77.9139 106.965C77.0939 107.785 76.1049 108.196 74.9489 108.196C73.7929 108.196 72.8049 107.785 71.9839 106.965C71.1639 106.145 70.7539 105.157 70.7539 104C70.7539 102.844 71.1639 101.856 71.9839 101.035C72.8049 100.215 73.7929 99.8052 74.9489 99.8052Z" fill="white"/>
<path d="M30.1919 99.8052C30.2429 99.8052 30.2679 99.8302 30.2679 99.8812V108.119C30.2679 108.17 30.2429 108.196 30.1919 108.196H29.2719C29.2209 108.196 29.1959 108.17 29.1959 108.119V104.522H25.2759V108.108C25.2759 108.159 25.2509 108.184 25.1999 108.184H24.2799C24.2289 108.184 24.2039 108.159 24.2039 108.108V99.8692C24.2039 99.8192 24.2289 99.7932 24.2799 99.7932H25.1999C25.2509 99.7932 25.2759 99.8192 25.2759 99.8692V103.45H29.1959V99.8812C29.1959 99.8302 29.2209 99.8052 29.2719 99.8052H30.1919ZM39.3199 99.8052C39.3699 99.8052 39.3959 99.8302 39.3959 99.8812V100.795C39.3959 100.846 39.3699 100.871 39.3199 100.871H34.8609V103.467H38.0889C38.1399 103.467 38.1649 103.493 38.1649 103.543V104.457C38.1649 104.508 38.1399 104.534 38.0889 104.534H34.8609V107.129H39.3199C39.3699 107.129 39.3959 107.155 39.3959 107.205V108.119C39.3959 108.17 39.3699 108.196 39.3199 108.196H33.8699C33.8199 108.196 33.7939 108.17 33.7939 108.119V99.8812C33.7939 99.8302 33.8199 99.8052 33.8699 99.8052H39.3199ZM45.4059 103.491C45.7689 103.491 46.0799 103.362 46.3379 103.104C46.5949 102.846 46.7239 102.537 46.7239 102.178C46.7239 101.815 46.5949 101.504 46.3379 101.246C46.0799 100.993 45.7689 100.866 45.4059 100.866H43.3139V103.491H45.4059ZM47.9019 108.084C47.9139 108.108 47.9119 108.133 47.8959 108.16C47.8849 108.184 47.8629 108.196 47.8319 108.196H46.7889C46.7569 108.196 46.7359 108.182 46.7239 108.155L44.7559 104.563L44.7609 104.557H43.3139V108.102C43.3139 108.153 43.2889 108.178 43.2379 108.178H42.3239C42.2729 108.178 42.2479 108.153 42.2479 108.102V99.8752C42.2479 99.8252 42.2729 99.7992 42.3239 99.7992H45.4059C46.0779 99.7992 46.6479 100.039 47.1169 100.52C47.5859 101 47.8099 101.577 47.7909 102.248C47.7709 102.791 47.5859 103.272 47.2339 103.69C46.8859 104.096 46.4509 104.362 45.9269 104.487L47.9019 108.084ZM56.3669 99.8052C56.4179 99.8052 56.4439 99.8302 56.4439 99.8812V100.795C56.4439 100.846 56.4179 100.871 56.3669 100.871H51.9079V103.467H55.1369C55.1879 103.467 55.2129 103.493 55.2129 103.543V104.457C55.2129 104.508 55.1879 104.534 55.1369 104.534H51.9079V107.129H56.3669C56.4179 107.129 56.4439 107.155 56.4439 107.205V108.119C56.4439 108.17 56.4179 108.196 56.3669 108.196H50.9179C50.8669 108.196 50.8419 108.17 50.8419 108.119V99.8812C50.8419 99.8302 50.8669 99.8052 50.9179 99.8052H56.3669ZM68.5869 99.8052C68.6379 99.8052 68.6629 99.8302 68.6629 99.8812V100.795C68.6629 100.846 68.6379 100.871 68.5869 100.871H66.3899V108.119C66.3899 108.17 66.3649 108.196 66.3139 108.196H65.3999C65.3489 108.196 65.3239 108.17 65.3239 108.119V100.871H63.1209C63.0699 100.871 63.0439 100.846 63.0439 100.795V99.8812C63.0439 99.8302 63.0699 99.8052 63.1209 99.8052H68.5869ZM74.9489 107.123C75.8089 107.123 76.5449 106.819 77.1579 106.209C77.7679 105.6 78.0719 104.864 78.0719 104C78.0719 103.141 77.7679 102.405 77.1579 101.791C76.5449 101.182 75.8089 100.877 74.9489 100.877C74.0859 100.877 73.3499 101.182 72.7399 101.791C72.1309 102.405 71.8259 103.141 71.8259 104C71.8259 104.864 72.1309 105.6 72.7399 106.209C73.3499 106.819 74.0859 107.123 74.9489 107.123ZM74.9489 99.8052C76.1049 99.8052 77.0939 100.215 77.9139 101.035C78.7339 101.856 79.1449 102.844 79.1449 104C79.1449 105.157 78.7339 106.145 77.9139 106.965C77.0939 107.785 76.1049 108.196 74.9489 108.196C73.7929 108.196 72.8049 107.785 71.9839 106.965C71.1639 106.145 70.7539 105.157 70.7539 104C70.7539 102.844 71.1639 101.856 71.9839 101.035C72.8049 100.215 73.7929 99.8052 74.9489 99.8052Z" stroke="white" stroke-width="0.25" stroke-miterlimit="4.78"/>
<path d="M40.2364 93.0105C40.2634 93.0535 40.2564 93.0885 40.2134 93.1155C39.5214 93.5695 38.7574 93.7955 37.9224 93.7955C37.3364 93.7955 36.7754 93.6785 36.2404 93.4445C35.7244 93.2175 35.2714 92.8975 34.8814 92.4835C34.0484 91.6085 33.6664 90.5675 33.7324 89.3605C33.7914 88.3215 34.1894 87.4245 34.9274 86.6705C35.6624 85.9165 36.5484 85.4985 37.5884 85.4165C38.5414 85.3425 39.4144 85.5635 40.2074 86.0785C40.2504 86.1065 40.2574 86.1415 40.2304 86.1845L39.7154 86.9405C39.6874 86.9835 39.6524 86.9915 39.6094 86.9635C39.0234 86.5845 38.3794 86.4225 37.6754 86.4775C36.8794 86.5395 36.2014 86.8675 35.6424 87.4615C35.0884 88.0555 34.8044 88.7545 34.7934 89.5595C34.7814 90.4305 35.0844 91.1765 35.7014 91.7975C36.3144 92.4185 37.0544 92.7295 37.9224 92.7295C38.5394 92.7295 39.1034 92.5635 39.6154 92.2315C39.6584 92.2035 39.6934 92.2115 39.7204 92.2545L40.2364 93.0105ZM47.6354 92.7235C47.6864 92.7235 47.7114 92.7485 47.7114 92.7995V93.7195C47.7114 93.7705 47.6864 93.7955 47.6354 93.7955H42.9714C42.9204 93.7955 42.8954 93.7705 42.8954 93.7195V85.4755C42.8954 85.4245 42.9204 85.3995 42.9714 85.3995H43.8914C43.9424 85.3995 43.9674 85.4245 43.9674 85.4755V92.7235H47.6354ZM51.4484 85.4055C51.4994 85.4055 51.5244 85.4305 51.5244 85.4815V93.7195C51.5244 93.7705 51.4994 93.7955 51.4484 93.7955H50.5284C50.4774 93.7955 50.4524 93.7705 50.4524 93.7195V85.4815C50.4524 85.4305 50.4774 85.4055 50.5284 85.4055H51.4484ZM61.0154 93.0105C61.0424 93.0535 61.0354 93.0885 60.9924 93.1155C60.3004 93.5695 59.5364 93.7955 58.7014 93.7955C58.1154 93.7955 57.5544 93.6785 57.0194 93.4445C56.5034 93.2175 56.0504 92.8975 55.6604 92.4835C54.8274 91.6085 54.4454 90.5675 54.5114 89.3605C54.5704 88.3215 54.9684 87.4245 55.7064 86.6705C56.4414 85.9165 57.3274 85.4985 58.3674 85.4165C59.3204 85.3425 60.1934 85.5635 60.9864 86.0785C61.0294 86.1065 61.0364 86.1415 61.0094 86.1845L60.4944 86.9405C60.4664 86.9835 60.4314 86.9915 60.3884 86.9635C59.8024 86.5845 59.1584 86.4225 58.4544 86.4775C57.6584 86.5395 56.9804 86.8675 56.4214 87.4615C55.8674 88.0555 55.5834 88.7545 55.5724 89.5595C55.5604 90.4305 55.8634 91.1765 56.4804 91.7975C57.0934 92.4185 57.8334 92.7295 58.7014 92.7295C59.3184 92.7295 59.8824 92.5635 60.3944 92.2315C60.4374 92.2035 60.4724 92.2115 60.4994 92.2545L61.0154 93.0105ZM69.6504 93.6665C69.6784 93.6905 69.6834 93.7175 69.6684 93.7485C69.6564 93.7805 69.6334 93.7955 69.5984 93.7955H68.2564C68.2324 93.7955 68.2154 93.7875 68.2034 93.7725L64.7464 90.5315V93.7195C64.7464 93.7705 64.7214 93.7955 64.6704 93.7955H63.7504C63.6994 93.7955 63.6744 93.7705 63.6744 93.7195V85.4755C63.6744 85.4245 63.6994 85.3995 63.7504 85.3995H64.6704C64.7214 85.3995 64.7464 85.4245 64.7464 85.4755V88.5925L67.9224 85.4285C67.9374 85.4125 67.9554 85.4055 67.9754 85.4055H69.2754C69.3104 85.4055 69.3344 85.4205 69.3464 85.4515C69.3614 85.4835 69.3574 85.5105 69.3344 85.5335L65.2854 89.5715L69.6504 93.6665Z" fill="white"/>
<path d="M40.2364 93.0105C40.2634 93.0535 40.2564 93.0885 40.2134 93.1155C39.5214 93.5695 38.7574 93.7955 37.9224 93.7955C37.3364 93.7955 36.7754 93.6785 36.2404 93.4445C35.7244 93.2175 35.2714 92.8975 34.8814 92.4835C34.0484 91.6085 33.6664 90.5675 33.7324 89.3605C33.7914 88.3215 34.1894 87.4245 34.9274 86.6705C35.6624 85.9165 36.5484 85.4985 37.5884 85.4165C38.5414 85.3425 39.4144 85.5635 40.2074 86.0785C40.2504 86.1065 40.2574 86.1415 40.2304 86.1845L39.7154 86.9405C39.6874 86.9835 39.6524 86.9915 39.6094 86.9635C39.0234 86.5845 38.3794 86.4225 37.6754 86.4775C36.8794 86.5395 36.2014 86.8675 35.6424 87.4615C35.0884 88.0555 34.8044 88.7545 34.7934 89.5595C34.7814 90.4305 35.0844 91.1765 35.7014 91.7975C36.3144 92.4185 37.0544 92.7295 37.9224 92.7295C38.5394 92.7295 39.1034 92.5635 39.6154 92.2315C39.6584 92.2035 39.6934 92.2115 39.7204 92.2545L40.2364 93.0105ZM47.6354 92.7235C47.6864 92.7235 47.7114 92.7485 47.7114 92.7995V93.7195C47.7114 93.7705 47.6864 93.7955 47.6354 93.7955H42.9714C42.9204 93.7955 42.8954 93.7705 42.8954 93.7195V85.4755C42.8954 85.4245 42.9204 85.3995 42.9714 85.3995H43.8914C43.9424 85.3995 43.9674 85.4245 43.9674 85.4755V92.7235H47.6354ZM51.4484 85.4055C51.4994 85.4055 51.5244 85.4305 51.5244 85.4815V93.7195C51.5244 93.7705 51.4994 93.7955 51.4484 93.7955H50.5284C50.4774 93.7955 50.4524 93.7705 50.4524 93.7195V85.4815C50.4524 85.4305 50.4774 85.4055 50.5284 85.4055H51.4484ZM61.0154 93.0105C61.0424 93.0535 61.0354 93.0885 60.9924 93.1155C60.3004 93.5695 59.5364 93.7955 58.7014 93.7955C58.1154 93.7955 57.5544 93.6785 57.0194 93.4445C56.5034 93.2175 56.0504 92.8975 55.6604 92.4835C54.8274 91.6085 54.4454 90.5675 54.5114 89.3605C54.5704 88.3215 54.9684 87.4245 55.7064 86.6705C56.4414 85.9165 57.3274 85.4985 58.3674 85.4165C59.3204 85.3425 60.1934 85.5635 60.9864 86.0785C61.0294 86.1065 61.0364 86.1415 61.0094 86.1845L60.4944 86.9405C60.4664 86.9835 60.4314 86.9915 60.3884 86.9635C59.8024 86.5845 59.1584 86.4225 58.4544 86.4775C57.6584 86.5395 56.9804 86.8675 56.4214 87.4615C55.8674 88.0555 55.5834 88.7545 55.5724 89.5595C55.5604 90.4305 55.8634 91.1765 56.4804 91.7975C57.0934 92.4185 57.8334 92.7295 58.7014 92.7295C59.3184 92.7295 59.8824 92.5635 60.3944 92.2315C60.4374 92.2035 60.4724 92.2115 60.4994 92.2545L61.0154 93.0105ZM69.6504 93.6665C69.6784 93.6905 69.6834 93.7175 69.6684 93.7485C69.6564 93.7805 69.6334 93.7955 69.5984 93.7955H68.2564C68.2324 93.7955 68.2154 93.7875 68.2034 93.7725L64.7464 90.5315V93.7195C64.7464 93.7705 64.7214 93.7955 64.6704 93.7955H63.7504C63.6994 93.7955 63.6744 93.7705 63.6744 93.7195V85.4755C63.6744 85.4245 63.6994 85.3995 63.7504 85.3995H64.6704C64.7214 85.3995 64.7464 85.4245 64.7464 85.4755V88.5925L67.9224 85.4285C67.9374 85.4125 67.9554 85.4055 67.9754 85.4055H69.2754C69.3104 85.4055 69.3344 85.4205 69.3464 85.4515C69.3614 85.4835 69.3574 85.5105 69.3344 85.5335L65.2854 89.5715L69.6504 93.6665Z" stroke="white" stroke-width="0.25" stroke-miterlimit="4.78"/>
<path d="M42.9963 28.1009C46.1153 27.8999 49.7113 28.0379 53.0103 28.0379C56.3443 28.0379 59.9483 27.8139 62.4563 28.4789C64.9363 29.1359 67.1163 30.4829 68.5653 32.2579C69.9353 33.9349 71.1663 36.1769 71.3363 39.3739C71.5183 42.7889 71.3363 45.5779 71.3363 49.3249C71.3363 52.6869 71.5973 56.2329 70.9583 58.8339C69.7723 63.6649 65.6873 67.2869 60.0003 67.6509C56.6703 67.8649 53.4393 67.7139 50.1123 67.7139C47.0333 67.7139 43.2343 68.0159 40.6033 67.3359C35.7993 66.0959 32.0883 62.2189 31.7233 56.4409C31.5313 53.4029 31.6603 49.7229 31.6603 46.5539C31.6603 43.2429 31.4213 39.4979 32.0383 37.0439C32.9963 33.2289 35.4393 30.5499 38.9023 29.0459C40.1533 28.5019 41.4493 28.2009 42.9963 28.1009Z" fill="white"/>
<path d="M64.574 58.828H38.4561V36.945H64.574V58.828Z" fill="#003882"/>
<path d="M36.073 34.6801H66.864V56.5921C66.864 57.9291 67.172 61.4671 66.675 61.8811C66.314 62.1821 65.717 61.8811 64.409 61.8811C51.858 61.8811 47.648 62.0361 36.073 61.6921V34.6801ZM39.473 42.4241C38.893 44.2241 38.775 52.2551 39.662 54.1371C41.08 57.1481 45.635 56.4041 50.996 56.4041C56.826 56.4041 61.853 57.2401 63.087 53.7591C63.826 51.6721 63.577 43.6231 63.087 42.2351C61.856 38.7511 56.714 39.5911 51.941 39.5911C48.671 39.5911 44.985 39.2611 42.684 39.7801C40.832 40.1971 39.797 41.4171 39.473 42.4241Z" fill="white"/>
<path d="M49.1072 45.0694C51.2192 46.0624 52.3732 46.6284 54.9632 47.9034C53.0912 48.9904 51.1072 49.9654 49.1072 50.9254V45.0694Z" fill="white"/>
<path d="M0.291504 0.999755V175L17.2915 88.1816L0.291504 0.999755Z" fill="#4FB29E"/>
</svg>
