<svg width="94" height="175" viewBox="0 0 94 175" fill="none" xmlns="http://www.w3.org/2000/svg">
<path d="M0.709229 173.751H93.6852V-3.05176e-05H0.709229V173.751Z" fill="#4FB29E"/>
<path d="M38.6328 128.251C38.6838 128.251 38.7088 128.276 38.7088 128.327V136.565C38.7088 136.616 38.6838 136.642 38.6328 136.642H37.7658C37.7148 136.642 37.6898 136.616 37.6898 136.565V130.349L35.3278 132.985C35.2888 133.024 35.2518 133.024 35.2168 132.985L32.8618 130.355V136.565C32.8618 136.616 32.8358 136.642 32.7848 136.642H31.9178C31.8668 136.642 31.8418 136.616 31.8418 136.565V128.327C31.8418 128.276 31.8668 128.251 31.9178 128.251H32.2578C32.3168 128.251 32.3668 128.274 32.4098 128.321L35.2698 131.521L38.1348 128.321C38.1778 128.274 38.2288 128.251 38.2868 128.251H38.6328ZM45.8268 135.569C46.6858 135.569 47.4228 135.265 48.0358 134.655C48.6448 134.046 48.9498 133.31 48.9498 132.446C48.9498 131.587 48.6448 130.851 48.0358 130.237C47.4228 129.628 46.6858 129.323 45.8268 129.323C44.9638 129.323 44.2268 129.628 43.6178 130.237C43.0088 130.851 42.7038 131.587 42.7038 132.446C42.7038 133.31 43.0088 134.046 43.6178 134.655C44.2268 135.265 44.9638 135.569 45.8268 135.569ZM45.8268 128.251C46.9828 128.251 47.9708 128.661 48.7918 129.481C49.6118 130.302 50.0218 131.29 50.0218 132.446C50.0218 133.603 49.6118 134.591 48.7918 135.411C47.9708 136.231 46.9828 136.642 45.8268 136.642C44.6708 136.642 43.6818 136.231 42.8618 135.411C42.0418 134.591 41.6318 133.603 41.6318 132.446C41.6318 131.29 42.0418 130.302 42.8618 129.481C43.6818 128.661 44.6708 128.251 45.8268 128.251ZM56.3428 131.937C56.7058 131.937 57.0168 131.808 57.2748 131.55C57.5328 131.292 57.6608 130.983 57.6608 130.624C57.6608 130.261 57.5328 129.95 57.2748 129.692C57.0168 129.439 56.7058 129.312 56.3428 129.312H54.2508V131.937H56.3428ZM58.8388 136.53C58.8508 136.554 58.8488 136.579 58.8328 136.606C58.8218 136.63 58.7998 136.642 58.7688 136.642H57.7258C57.6948 136.642 57.6728 136.628 57.6608 136.601L55.6928 133.009L55.6988 133.003H54.2508V136.548C54.2508 136.599 54.2258 136.624 54.1748 136.624H53.2608C53.2098 136.624 53.1848 136.599 53.1848 136.548V128.321C53.1848 128.271 53.2098 128.245 53.2608 128.245H56.3428C57.0148 128.245 57.5848 128.485 58.0538 128.966C58.5228 129.446 58.7468 130.023 58.7278 130.694C58.7078 131.237 58.5228 131.718 58.1708 132.136C57.8228 132.542 57.3878 132.808 56.8648 132.933L58.8388 136.53ZM67.3048 128.251C67.3548 128.251 67.3808 128.276 67.3808 128.327V129.241C67.3808 129.292 67.3548 129.317 67.3048 129.317H62.8458V131.913H66.0738C66.1248 131.913 66.1498 131.939 66.1498 131.989V132.903C66.1498 132.954 66.1248 132.98 66.0738 132.98H62.8458V135.575H67.3048C67.3548 135.575 67.3808 135.601 67.3808 135.651V136.565C67.3808 136.616 67.3548 136.642 67.3048 136.642H61.8548C61.8048 136.642 61.7788 136.616 61.7788 136.565V128.327C61.7788 128.276 61.8048 128.251 61.8548 128.251H67.3048ZM70.9408 134.47H71.4808L71.6488 130.69V128.002H70.7728V130.69L70.9408 134.47ZM71.6488 135.586H70.7728V136.642H71.6488V135.586Z" fill="white"/>
<path d="M38.6328 128.251C38.6838 128.251 38.7088 128.276 38.7088 128.327V136.565C38.7088 136.616 38.6838 136.642 38.6328 136.642H37.7658C37.7148 136.642 37.6898 136.616 37.6898 136.565V130.349L35.3278 132.985C35.2888 133.024 35.2518 133.024 35.2168 132.985L32.8618 130.355V136.565C32.8618 136.616 32.8358 136.642 32.7848 136.642H31.9178C31.8668 136.642 31.8418 136.616 31.8418 136.565V128.327C31.8418 128.276 31.8668 128.251 31.9178 128.251H32.2578C32.3168 128.251 32.3668 128.274 32.4098 128.321L35.2698 131.521L38.1348 128.321C38.1778 128.274 38.2288 128.251 38.2868 128.251H38.6328ZM45.8268 135.569C46.6858 135.569 47.4228 135.265 48.0358 134.655C48.6448 134.046 48.9498 133.31 48.9498 132.446C48.9498 131.587 48.6448 130.851 48.0358 130.237C47.4228 129.628 46.6858 129.323 45.8268 129.323C44.9638 129.323 44.2268 129.628 43.6178 130.237C43.0088 130.851 42.7038 131.587 42.7038 132.446C42.7038 133.31 43.0088 134.046 43.6178 134.655C44.2268 135.265 44.9638 135.569 45.8268 135.569ZM45.8268 128.251C46.9828 128.251 47.9708 128.661 48.7918 129.481C49.6118 130.302 50.0218 131.29 50.0218 132.446C50.0218 133.603 49.6118 134.591 48.7918 135.411C47.9708 136.231 46.9828 136.642 45.8268 136.642C44.6708 136.642 43.6818 136.231 42.8618 135.411C42.0418 134.591 41.6318 133.603 41.6318 132.446C41.6318 131.29 42.0418 130.302 42.8618 129.481C43.6818 128.661 44.6708 128.251 45.8268 128.251ZM56.3428 131.937C56.7058 131.937 57.0168 131.808 57.2748 131.55C57.5328 131.292 57.6608 130.983 57.6608 130.624C57.6608 130.261 57.5328 129.95 57.2748 129.692C57.0168 129.439 56.7058 129.312 56.3428 129.312H54.2508V131.937H56.3428ZM58.8388 136.53C58.8508 136.554 58.8488 136.579 58.8328 136.606C58.8218 136.63 58.7998 136.642 58.7688 136.642H57.7258C57.6948 136.642 57.6728 136.628 57.6608 136.601L55.6928 133.009L55.6988 133.003H54.2508V136.548C54.2508 136.599 54.2258 136.624 54.1748 136.624H53.2608C53.2098 136.624 53.1848 136.599 53.1848 136.548V128.321C53.1848 128.271 53.2098 128.245 53.2608 128.245H56.3428C57.0148 128.245 57.5848 128.485 58.0538 128.966C58.5228 129.446 58.7468 130.023 58.7278 130.694C58.7078 131.237 58.5228 131.718 58.1708 132.136C57.8228 132.542 57.3878 132.808 56.8648 132.933L58.8388 136.53ZM67.3048 128.251C67.3548 128.251 67.3808 128.276 67.3808 128.327V129.241C67.3808 129.292 67.3548 129.317 67.3048 129.317H62.8458V131.913H66.0738C66.1248 131.913 66.1498 131.939 66.1498 131.989V132.903C66.1498 132.954 66.1248 132.98 66.0738 132.98H62.8458V135.575H67.3048C67.3548 135.575 67.3808 135.601 67.3808 135.651V136.565C67.3808 136.616 67.3548 136.642 67.3048 136.642H61.8548C61.8048 136.642 61.7788 136.616 61.7788 136.565V128.327C61.7788 128.276 61.8048 128.251 61.8548 128.251H67.3048ZM70.9408 134.47H71.4808L71.6488 130.69V128.002H70.7728V130.69L70.9408 134.47ZM71.6488 135.586H70.7728V136.642H71.6488V135.586Z" stroke="white" stroke-width="0.25" stroke-miterlimit="4.78"/>
<path d="M41.6613 113.851C41.7123 113.851 41.7373 113.876 41.7373 113.927V122.165C41.7373 122.216 41.7123 122.242 41.6613 122.242H40.7413C40.6903 122.242 40.6653 122.216 40.6653 122.165V118.568H36.7453V122.154C36.7453 122.205 36.7203 122.23 36.6693 122.23H35.7493C35.6983 122.23 35.6733 122.205 35.6733 122.154V113.915C35.6733 113.865 35.6983 113.839 35.7493 113.839H36.6693C36.7203 113.839 36.7453 113.865 36.7453 113.915V117.496H40.6653V113.927C40.6653 113.876 40.6903 113.851 40.7413 113.851H41.6613ZM50.7893 113.851C50.8393 113.851 50.8653 113.876 50.8653 113.927V114.841C50.8653 114.892 50.8393 114.917 50.7893 114.917H46.3303V117.513H49.5583C49.6093 117.513 49.6343 117.539 49.6343 117.589V118.503C49.6343 118.554 49.6093 118.58 49.5583 118.58H46.3303V121.175H50.7893C50.8393 121.175 50.8653 121.201 50.8653 121.251V122.165C50.8653 122.216 50.8393 122.242 50.7893 122.242H45.3393C45.2883 122.242 45.2633 122.216 45.2633 122.165V113.927C45.2633 113.876 45.2883 113.851 45.3393 113.851H50.7893ZM57.7713 117.941L56.7173 115.392L55.6563 117.941H57.7713ZM57.1213 113.833C57.1563 113.833 57.1803 113.849 57.1913 113.88L60.6193 122.136C60.6313 122.16 60.6293 122.183 60.6133 122.206C60.5983 122.23 60.5763 122.242 60.5493 122.242H59.6113C59.5763 122.242 59.5533 122.226 59.5413 122.195L58.1993 118.96H55.2293L53.8873 122.195C53.8753 122.226 53.8523 122.242 53.8163 122.242H52.8793C52.8513 122.242 52.8303 122.23 52.8143 122.206C52.7993 122.183 52.7973 122.16 52.8093 122.136L56.2363 113.88C56.2523 113.849 56.2753 113.833 56.3073 113.833H57.1213ZM66.4013 117.537C66.7643 117.537 67.0753 117.408 67.3333 117.15C67.5903 116.892 67.7193 116.583 67.7193 116.224C67.7193 115.861 67.5903 115.55 67.3333 115.292C67.0753 115.039 66.7643 114.912 66.4013 114.912H64.3093V117.537H66.4013ZM68.8973 122.13C68.9093 122.154 68.9073 122.179 68.8913 122.206C68.8793 122.23 68.8583 122.242 68.8273 122.242H67.7843C67.7523 122.242 67.7313 122.228 67.7193 122.201L65.7513 118.609L65.7563 118.603H64.3093V122.148C64.3093 122.199 64.2843 122.224 64.2333 122.224H63.3193C63.2683 122.224 63.2433 122.199 63.2433 122.148V113.921C63.2433 113.871 63.2683 113.845 63.3193 113.845H66.4013C67.0733 113.845 67.6433 114.085 68.1123 114.566C68.5813 115.046 68.8053 115.623 68.7863 116.294C68.7663 116.837 68.5813 117.318 68.2293 117.736C67.8813 118.142 67.4463 118.408 66.9223 118.533L68.8973 122.13Z" fill="white"/>
<path d="M41.6613 113.851C41.7123 113.851 41.7373 113.876 41.7373 113.927V122.165C41.7373 122.216 41.7123 122.242 41.6613 122.242H40.7413C40.6903 122.242 40.6653 122.216 40.6653 122.165V118.568H36.7453V122.154C36.7453 122.205 36.7203 122.23 36.6693 122.23H35.7493C35.6983 122.23 35.6733 122.205 35.6733 122.154V113.915C35.6733 113.865 35.6983 113.839 35.7493 113.839H36.6693C36.7203 113.839 36.7453 113.865 36.7453 113.915V117.496H40.6653V113.927C40.6653 113.876 40.6903 113.851 40.7413 113.851H41.6613ZM50.7893 113.851C50.8393 113.851 50.8653 113.876 50.8653 113.927V114.841C50.8653 114.892 50.8393 114.917 50.7893 114.917H46.3303V117.513H49.5583C49.6093 117.513 49.6343 117.539 49.6343 117.589V118.503C49.6343 118.554 49.6093 118.58 49.5583 118.58H46.3303V121.175H50.7893C50.8393 121.175 50.8653 121.201 50.8653 121.251V122.165C50.8653 122.216 50.8393 122.242 50.7893 122.242H45.3393C45.2883 122.242 45.2633 122.216 45.2633 122.165V113.927C45.2633 113.876 45.2883 113.851 45.3393 113.851H50.7893ZM57.7713 117.941L56.7173 115.392L55.6563 117.941H57.7713ZM57.1213 113.833C57.1563 113.833 57.1803 113.849 57.1913 113.88L60.6193 122.136C60.6313 122.16 60.6293 122.183 60.6133 122.206C60.5983 122.23 60.5763 122.242 60.5493 122.242H59.6113C59.5763 122.242 59.5533 122.226 59.5413 122.195L58.1993 118.96H55.2293L53.8873 122.195C53.8753 122.226 53.8523 122.242 53.8163 122.242H52.8793C52.8513 122.242 52.8303 122.23 52.8143 122.206C52.7993 122.183 52.7973 122.16 52.8093 122.136L56.2363 113.88C56.2523 113.849 56.2753 113.833 56.3073 113.833H57.1213ZM66.4013 117.537C66.7643 117.537 67.0753 117.408 67.3333 117.15C67.5903 116.892 67.7193 116.583 67.7193 116.224C67.7193 115.861 67.5903 115.55 67.3333 115.292C67.0753 115.039 66.7643 114.912 66.4013 114.912H64.3093V117.537H66.4013ZM68.8973 122.13C68.9093 122.154 68.9073 122.179 68.8913 122.206C68.8793 122.23 68.8583 122.242 68.8273 122.242H67.7843C67.7523 122.242 67.7313 122.228 67.7193 122.201L65.7513 118.609L65.7563 118.603H64.3093V122.148C64.3093 122.199 64.2843 122.224 64.2333 122.224H63.3193C63.2683 122.224 63.2433 122.199 63.2433 122.148V113.921C63.2433 113.871 63.2683 113.845 63.3193 113.845H66.4013C67.0733 113.845 67.6433 114.085 68.1123 114.566C68.5813 115.046 68.8053 115.623 68.7863 116.294C68.7663 116.837 68.5813 117.318 68.2293 117.736C67.8813 118.142 67.4463 118.408 66.9223 118.533L68.8973 122.13Z" stroke="white" stroke-width="0.25" stroke-miterlimit="4.78"/>
<path d="M30.6919 99.4513C30.7429 99.4513 30.7679 99.4763 30.7679 99.5273V107.765C30.7679 107.816 30.7429 107.842 30.6919 107.842H29.7719C29.7209 107.842 29.6959 107.816 29.6959 107.765V104.168H25.7759V107.754C25.7759 107.805 25.7509 107.83 25.6999 107.83H24.7799C24.7289 107.83 24.7039 107.805 24.7039 107.754V99.5153C24.7039 99.4653 24.7289 99.4393 24.7799 99.4393H25.6999C25.7509 99.4393 25.7759 99.4653 25.7759 99.5153V103.096H29.6959V99.5273C29.6959 99.4763 29.7209 99.4513 29.7719 99.4513H30.6919ZM39.8199 99.4513C39.8699 99.4513 39.8959 99.4763 39.8959 99.5273V100.441C39.8959 100.492 39.8699 100.517 39.8199 100.517H35.3609V103.113H38.5889C38.6399 103.113 38.6649 103.139 38.6649 103.189V104.103C38.6649 104.154 38.6399 104.18 38.5889 104.18H35.3609V106.775H39.8199C39.8699 106.775 39.8959 106.801 39.8959 106.851V107.765C39.8959 107.816 39.8699 107.842 39.8199 107.842H34.3699C34.3199 107.842 34.2939 107.816 34.2939 107.765V99.5273C34.2939 99.4763 34.3199 99.4513 34.3699 99.4513H39.8199ZM45.9059 103.137C46.2689 103.137 46.5799 103.008 46.8379 102.75C47.0949 102.492 47.2239 102.183 47.2239 101.824C47.2239 101.461 47.0949 101.15 46.8379 100.892C46.5799 100.639 46.2689 100.512 45.9059 100.512H43.8139V103.137H45.9059ZM48.4019 107.73C48.4139 107.754 48.4119 107.779 48.3959 107.806C48.3849 107.83 48.3629 107.842 48.3319 107.842H47.2889C47.2569 107.842 47.2359 107.828 47.2239 107.801L45.2559 104.209L45.2609 104.203H43.8139V107.748C43.8139 107.799 43.7889 107.824 43.7379 107.824H42.8239C42.7729 107.824 42.7479 107.799 42.7479 107.748V99.5213C42.7479 99.4713 42.7729 99.4453 42.8239 99.4453H45.9059C46.5779 99.4453 47.1479 99.6853 47.6169 100.166C48.0859 100.646 48.3099 101.223 48.2909 101.894C48.2709 102.437 48.0859 102.918 47.7339 103.336C47.3859 103.742 46.9509 104.008 46.4269 104.133L48.4019 107.73ZM56.8669 99.4513C56.9179 99.4513 56.9439 99.4763 56.9439 99.5273V100.441C56.9439 100.492 56.9179 100.517 56.8669 100.517H52.4079V103.113H55.6369C55.6879 103.113 55.7129 103.139 55.7129 103.189V104.103C55.7129 104.154 55.6879 104.18 55.6369 104.18H52.4079V106.775H56.8669C56.9179 106.775 56.9439 106.801 56.9439 106.851V107.765C56.9439 107.816 56.9179 107.842 56.8669 107.842H51.4179C51.3669 107.842 51.3419 107.816 51.3419 107.765V99.5273C51.3419 99.4763 51.3669 99.4513 51.4179 99.4513H56.8669ZM69.0869 99.4513C69.1379 99.4513 69.1629 99.4763 69.1629 99.5273V100.441C69.1629 100.492 69.1379 100.517 69.0869 100.517H66.8899V107.765C66.8899 107.816 66.8649 107.842 66.8139 107.842H65.8999C65.8489 107.842 65.8239 107.816 65.8239 107.765V100.517H63.6209C63.5699 100.517 63.5439 100.492 63.5439 100.441V99.5273C63.5439 99.4763 63.5699 99.4513 63.6209 99.4513H69.0869ZM75.4489 106.769C76.3089 106.769 77.0449 106.465 77.6579 105.855C78.2679 105.246 78.5719 104.51 78.5719 103.646C78.5719 102.787 78.2679 102.051 77.6579 101.437C77.0449 100.828 76.3089 100.523 75.4489 100.523C74.5859 100.523 73.8499 100.828 73.2399 101.437C72.6309 102.051 72.3259 102.787 72.3259 103.646C72.3259 104.51 72.6309 105.246 73.2399 105.855C73.8499 106.465 74.5859 106.769 75.4489 106.769ZM75.4489 99.4513C76.6049 99.4513 77.5939 99.8613 78.4139 100.681C79.2339 101.502 79.6449 102.49 79.6449 103.646C79.6449 104.803 79.2339 105.791 78.4139 106.611C77.5939 107.431 76.6049 107.842 75.4489 107.842C74.2929 107.842 73.3049 107.431 72.4839 106.611C71.6639 105.791 71.2539 104.803 71.2539 103.646C71.2539 102.49 71.6639 101.502 72.4839 100.681C73.3049 99.8613 74.2929 99.4513 75.4489 99.4513Z" fill="white"/>
<path d="M30.6919 99.4513C30.7429 99.4513 30.7679 99.4763 30.7679 99.5273V107.765C30.7679 107.816 30.7429 107.842 30.6919 107.842H29.7719C29.7209 107.842 29.6959 107.816 29.6959 107.765V104.168H25.7759V107.754C25.7759 107.805 25.7509 107.83 25.6999 107.83H24.7799C24.7289 107.83 24.7039 107.805 24.7039 107.754V99.5153C24.7039 99.4653 24.7289 99.4393 24.7799 99.4393H25.6999C25.7509 99.4393 25.7759 99.4653 25.7759 99.5153V103.096H29.6959V99.5273C29.6959 99.4763 29.7209 99.4513 29.7719 99.4513H30.6919ZM39.8199 99.4513C39.8699 99.4513 39.8959 99.4763 39.8959 99.5273V100.441C39.8959 100.492 39.8699 100.517 39.8199 100.517H35.3609V103.113H38.5889C38.6399 103.113 38.6649 103.139 38.6649 103.189V104.103C38.6649 104.154 38.6399 104.18 38.5889 104.18H35.3609V106.775H39.8199C39.8699 106.775 39.8959 106.801 39.8959 106.851V107.765C39.8959 107.816 39.8699 107.842 39.8199 107.842H34.3699C34.3199 107.842 34.2939 107.816 34.2939 107.765V99.5273C34.2939 99.4763 34.3199 99.4513 34.3699 99.4513H39.8199ZM45.9059 103.137C46.2689 103.137 46.5799 103.008 46.8379 102.75C47.0949 102.492 47.2239 102.183 47.2239 101.824C47.2239 101.461 47.0949 101.15 46.8379 100.892C46.5799 100.639 46.2689 100.512 45.9059 100.512H43.8139V103.137H45.9059ZM48.4019 107.73C48.4139 107.754 48.4119 107.779 48.3959 107.806C48.3849 107.83 48.3629 107.842 48.3319 107.842H47.2889C47.2569 107.842 47.2359 107.828 47.2239 107.801L45.2559 104.209L45.2609 104.203H43.8139V107.748C43.8139 107.799 43.7889 107.824 43.7379 107.824H42.8239C42.7729 107.824 42.7479 107.799 42.7479 107.748V99.5213C42.7479 99.4713 42.7729 99.4453 42.8239 99.4453H45.9059C46.5779 99.4453 47.1479 99.6853 47.6169 100.166C48.0859 100.646 48.3099 101.223 48.2909 101.894C48.2709 102.437 48.0859 102.918 47.7339 103.336C47.3859 103.742 46.9509 104.008 46.4269 104.133L48.4019 107.73ZM56.8669 99.4513C56.9179 99.4513 56.9439 99.4763 56.9439 99.5273V100.441C56.9439 100.492 56.9179 100.517 56.8669 100.517H52.4079V103.113H55.6369C55.6879 103.113 55.7129 103.139 55.7129 103.189V104.103C55.7129 104.154 55.6879 104.18 55.6369 104.18H52.4079V106.775H56.8669C56.9179 106.775 56.9439 106.801 56.9439 106.851V107.765C56.9439 107.816 56.9179 107.842 56.8669 107.842H51.4179C51.3669 107.842 51.3419 107.816 51.3419 107.765V99.5273C51.3419 99.4763 51.3669 99.4513 51.4179 99.4513H56.8669ZM69.0869 99.4513C69.1379 99.4513 69.1629 99.4763 69.1629 99.5273V100.441C69.1629 100.492 69.1379 100.517 69.0869 100.517H66.8899V107.765C66.8899 107.816 66.8649 107.842 66.8139 107.842H65.8999C65.8489 107.842 65.8239 107.816 65.8239 107.765V100.517H63.6209C63.5699 100.517 63.5439 100.492 63.5439 100.441V99.5273C63.5439 99.4763 63.5699 99.4513 63.6209 99.4513H69.0869ZM75.4489 106.769C76.3089 106.769 77.0449 106.465 77.6579 105.855C78.2679 105.246 78.5719 104.51 78.5719 103.646C78.5719 102.787 78.2679 102.051 77.6579 101.437C77.0449 100.828 76.3089 100.523 75.4489 100.523C74.5859 100.523 73.8499 100.828 73.2399 101.437C72.6309 102.051 72.3259 102.787 72.3259 103.646C72.3259 104.51 72.6309 105.246 73.2399 105.855C73.8499 106.465 74.5859 106.769 75.4489 106.769ZM75.4489 99.4513C76.6049 99.4513 77.5939 99.8613 78.4139 100.681C79.2339 101.502 79.6449 102.49 79.6449 103.646C79.6449 104.803 79.2339 105.791 78.4139 106.611C77.5939 107.431 76.6049 107.842 75.4489 107.842C74.2929 107.842 73.3049 107.431 72.4839 106.611C71.6639 105.791 71.2539 104.803 71.2539 103.646C71.2539 102.49 71.6639 101.502 72.4839 100.681C73.3049 99.8613 74.2929 99.4513 75.4489 99.4513Z" stroke="white" stroke-width="0.25" stroke-miterlimit="4.78"/>
<path d="M40.7364 92.6566C40.7634 92.6996 40.7564 92.7346 40.7134 92.7616C40.0214 93.2156 39.2574 93.4416 38.4224 93.4416C37.8364 93.4416 37.2754 93.3246 36.7404 93.0906C36.2244 92.8636 35.7714 92.5436 35.3814 92.1296C34.5484 91.2546 34.1664 90.2136 34.2324 89.0066C34.2914 87.9676 34.6894 87.0706 35.4274 86.3166C36.1624 85.5626 37.0484 85.1446 38.0884 85.0626C39.0414 84.9886 39.9144 85.2096 40.7074 85.7246C40.7504 85.7526 40.7574 85.7876 40.7304 85.8306L40.2154 86.5866C40.1874 86.6296 40.1524 86.6366 40.1094 86.6096C39.5234 86.2306 38.8794 86.0686 38.1754 86.1236C37.3794 86.1856 36.7014 86.5136 36.1424 87.1076C35.5884 87.7016 35.3044 88.4006 35.2934 89.2056C35.2814 90.0766 35.5844 90.8226 36.2014 91.4436C36.8144 92.0646 37.5544 92.3756 38.4224 92.3756C39.0394 92.3756 39.6034 92.2096 40.1154 91.8776C40.1584 91.8496 40.1934 91.8576 40.2204 91.9006L40.7364 92.6566ZM48.1354 92.3696C48.1864 92.3696 48.2114 92.3946 48.2114 92.4456V93.3656C48.2114 93.4166 48.1864 93.4416 48.1354 93.4416H43.4714C43.4204 93.4416 43.3954 93.4166 43.3954 93.3656V85.1216C43.3954 85.0706 43.4204 85.0456 43.4714 85.0456H44.3914C44.4424 85.0456 44.4674 85.0706 44.4674 85.1216V92.3696H48.1354ZM51.9484 85.0516C51.9994 85.0516 52.0244 85.0766 52.0244 85.1276V93.3656C52.0244 93.4166 51.9994 93.4416 51.9484 93.4416H51.0284C50.9774 93.4416 50.9524 93.4166 50.9524 93.3656V85.1276C50.9524 85.0766 50.9774 85.0516 51.0284 85.0516H51.9484ZM61.5154 92.6566C61.5424 92.6996 61.5354 92.7346 61.4924 92.7616C60.8004 93.2156 60.0364 93.4416 59.2014 93.4416C58.6154 93.4416 58.0544 93.3246 57.5194 93.0906C57.0034 92.8636 56.5504 92.5436 56.1604 92.1296C55.3274 91.2546 54.9454 90.2136 55.0114 89.0066C55.0704 87.9676 55.4684 87.0706 56.2064 86.3166C56.9414 85.5626 57.8274 85.1446 58.8674 85.0626C59.8204 84.9886 60.6934 85.2096 61.4864 85.7246C61.5294 85.7526 61.5364 85.7876 61.5094 85.8306L60.9944 86.5866C60.9664 86.6296 60.9314 86.6366 60.8884 86.6096C60.3024 86.2306 59.6584 86.0686 58.9544 86.1236C58.1584 86.1856 57.4804 86.5136 56.9214 87.1076C56.3674 87.7016 56.0834 88.4006 56.0724 89.2056C56.0604 90.0766 56.3634 90.8226 56.9804 91.4436C57.5934 92.0646 58.3334 92.3756 59.2014 92.3756C59.8184 92.3756 60.3824 92.2096 60.8944 91.8776C60.9374 91.8496 60.9724 91.8576 60.9994 91.9006L61.5154 92.6566ZM70.1504 93.3126C70.1784 93.3366 70.1834 93.3636 70.1684 93.3946C70.1564 93.4266 70.1334 93.4416 70.0984 93.4416H68.7564C68.7324 93.4416 68.7154 93.4336 68.7034 93.4186L65.2464 90.1776V93.3656C65.2464 93.4166 65.2214 93.4416 65.1704 93.4416H64.2504C64.1994 93.4416 64.1744 93.4166 64.1744 93.3656V85.1216C64.1744 85.0706 64.1994 85.0456 64.2504 85.0456H65.1704C65.2214 85.0456 65.2464 85.0706 65.2464 85.1216V88.2386L68.4224 85.0746C68.4374 85.0586 68.4554 85.0516 68.4754 85.0516H69.7754C69.8104 85.0516 69.8344 85.0666 69.8464 85.0976C69.8614 85.1296 69.8574 85.1566 69.8344 85.1796L65.7854 89.2176L70.1504 93.3126Z" fill="white"/>
<path d="M40.7364 92.6566C40.7634 92.6996 40.7564 92.7346 40.7134 92.7616C40.0214 93.2156 39.2574 93.4416 38.4224 93.4416C37.8364 93.4416 37.2754 93.3246 36.7404 93.0906C36.2244 92.8636 35.7714 92.5436 35.3814 92.1296C34.5484 91.2546 34.1664 90.2136 34.2324 89.0066C34.2914 87.9676 34.6894 87.0706 35.4274 86.3166C36.1624 85.5626 37.0484 85.1446 38.0884 85.0626C39.0414 84.9886 39.9144 85.2096 40.7074 85.7246C40.7504 85.7526 40.7574 85.7876 40.7304 85.8306L40.2154 86.5866C40.1874 86.6296 40.1524 86.6366 40.1094 86.6096C39.5234 86.2306 38.8794 86.0686 38.1754 86.1236C37.3794 86.1856 36.7014 86.5136 36.1424 87.1076C35.5884 87.7016 35.3044 88.4006 35.2934 89.2056C35.2814 90.0766 35.5844 90.8226 36.2014 91.4436C36.8144 92.0646 37.5544 92.3756 38.4224 92.3756C39.0394 92.3756 39.6034 92.2096 40.1154 91.8776C40.1584 91.8496 40.1934 91.8576 40.2204 91.9006L40.7364 92.6566ZM48.1354 92.3696C48.1864 92.3696 48.2114 92.3946 48.2114 92.4456V93.3656C48.2114 93.4166 48.1864 93.4416 48.1354 93.4416H43.4714C43.4204 93.4416 43.3954 93.4166 43.3954 93.3656V85.1216C43.3954 85.0706 43.4204 85.0456 43.4714 85.0456H44.3914C44.4424 85.0456 44.4674 85.0706 44.4674 85.1216V92.3696H48.1354ZM51.9484 85.0516C51.9994 85.0516 52.0244 85.0766 52.0244 85.1276V93.3656C52.0244 93.4166 51.9994 93.4416 51.9484 93.4416H51.0284C50.9774 93.4416 50.9524 93.4166 50.9524 93.3656V85.1276C50.9524 85.0766 50.9774 85.0516 51.0284 85.0516H51.9484ZM61.5154 92.6566C61.5424 92.6996 61.5354 92.7346 61.4924 92.7616C60.8004 93.2156 60.0364 93.4416 59.2014 93.4416C58.6154 93.4416 58.0544 93.3246 57.5194 93.0906C57.0034 92.8636 56.5504 92.5436 56.1604 92.1296C55.3274 91.2546 54.9454 90.2136 55.0114 89.0066C55.0704 87.9676 55.4684 87.0706 56.2064 86.3166C56.9414 85.5626 57.8274 85.1446 58.8674 85.0626C59.8204 84.9886 60.6934 85.2096 61.4864 85.7246C61.5294 85.7526 61.5364 85.7876 61.5094 85.8306L60.9944 86.5866C60.9664 86.6296 60.9314 86.6366 60.8884 86.6096C60.3024 86.2306 59.6584 86.0686 58.9544 86.1236C58.1584 86.1856 57.4804 86.5136 56.9214 87.1076C56.3674 87.7016 56.0834 88.4006 56.0724 89.2056C56.0604 90.0766 56.3634 90.8226 56.9804 91.4436C57.5934 92.0646 58.3334 92.3756 59.2014 92.3756C59.8184 92.3756 60.3824 92.2096 60.8944 91.8776C60.9374 91.8496 60.9724 91.8576 60.9994 91.9006L61.5154 92.6566ZM70.1504 93.3126C70.1784 93.3366 70.1834 93.3636 70.1684 93.3946C70.1564 93.4266 70.1334 93.4416 70.0984 93.4416H68.7564C68.7324 93.4416 68.7154 93.4336 68.7034 93.4186L65.2464 90.1776V93.3656C65.2464 93.4166 65.2214 93.4416 65.1704 93.4416H64.2504C64.1994 93.4416 64.1744 93.4166 64.1744 93.3656V85.1216C64.1744 85.0706 64.1994 85.0456 64.2504 85.0456H65.1704C65.2214 85.0456 65.2464 85.0706 65.2464 85.1216V88.2386L68.4224 85.0746C68.4374 85.0586 68.4554 85.0516 68.4754 85.0516H69.7754C69.8104 85.0516 69.8344 85.0666 69.8464 85.0976C69.8614 85.1296 69.8574 85.1566 69.8344 85.1796L65.7854 89.2176L70.1504 93.3126Z" stroke="white" stroke-width="0.25" stroke-miterlimit="4.78"/>
<path d="M43.4963 27.747C46.6153 27.546 50.2113 27.684 53.5103 27.684C56.8443 27.684 60.4483 27.46 62.9563 28.125C65.4363 28.782 67.6163 30.129 69.0653 31.904C70.4353 33.581 71.6663 35.823 71.8363 39.02C72.0183 42.435 71.8363 45.224 71.8363 48.971C71.8363 52.333 72.0973 55.879 71.4583 58.48C70.2723 63.311 66.1873 66.933 60.5003 67.297C57.1703 67.51 53.9393 67.36 50.6123 67.36C47.5333 67.36 43.7343 67.662 41.1033 66.982C36.2993 65.742 32.5883 61.865 32.2233 56.087C32.0313 53.048 32.1603 49.369 32.1603 46.2C32.1603 42.889 31.9213 39.144 32.5383 36.69C33.4963 32.875 35.9393 30.196 39.4023 28.692C40.6533 28.148 41.9493 27.847 43.4963 27.747Z" fill="white"/>
<path d="M65.074 58.474H38.9561V36.591H65.074V58.474Z" fill="#003882"/>
<path d="M36.573 34.3264H67.364V56.2384C67.364 57.5754 67.672 61.1134 67.175 61.5274C66.814 61.8284 66.217 61.5274 64.909 61.5274C52.358 61.5274 48.148 61.6824 36.573 61.3384V34.3264ZM39.973 42.0704C39.393 43.8704 39.275 51.9014 40.162 53.7834C41.58 56.7944 46.135 56.0504 51.496 56.0504C57.326 56.0504 62.353 56.8864 63.587 53.4054C64.326 51.3184 64.077 43.2694 63.587 41.8814C62.356 38.3974 57.214 39.2374 52.441 39.2374C49.171 39.2374 45.485 38.9074 43.184 39.4264C41.332 39.8434 40.297 41.0634 39.973 42.0704Z" fill="white"/>
<path d="M49.6072 44.7156C51.7192 45.7086 52.8732 46.2746 55.4632 47.5496C53.5912 48.6366 51.6072 49.6116 49.6072 50.5716V44.7156Z" fill="white"/>
<path d="M0 0.157562V174.154L14.926 87.3376L0 0.157562Z" fill="#C7D886"/>
</svg>
