<svg width="94" height="175" viewBox="0 0 94 175" fill="none" xmlns="http://www.w3.org/2000/svg">
<path d="M0.708496 173.751H93.6845V0.000305176H0.708496V173.751Z" fill="#083783"/>
<path d="M38.8413 128.605C38.8923 128.605 38.9173 128.63 38.9173 128.681V136.919C38.9173 136.97 38.8923 136.996 38.8413 136.996H37.9743C37.9233 136.996 37.8983 136.97 37.8983 136.919V130.703L35.5363 133.339C35.4973 133.378 35.4603 133.378 35.4253 133.339L33.0703 130.709V136.919C33.0703 136.97 33.0443 136.996 32.9933 136.996H32.1263C32.0753 136.996 32.0503 136.97 32.0503 136.919V128.681C32.0503 128.63 32.0753 128.605 32.1263 128.605H32.4663C32.5253 128.605 32.5753 128.628 32.6183 128.675L35.4783 131.875L38.3433 128.675C38.3863 128.628 38.4373 128.605 38.4953 128.605H38.8413ZM46.0353 135.923C46.8943 135.923 47.6313 135.619 48.2443 135.009C48.8533 134.4 49.1583 133.664 49.1583 132.8C49.1583 131.941 48.8533 131.205 48.2443 130.591C47.6313 129.982 46.8943 129.677 46.0353 129.677C45.1723 129.677 44.4353 129.982 43.8263 130.591C43.2173 131.205 42.9123 131.941 42.9123 132.8C42.9123 133.664 43.2173 134.4 43.8263 135.009C44.4353 135.619 45.1723 135.923 46.0353 135.923ZM46.0353 128.605C47.1913 128.605 48.1793 129.015 49.0003 129.835C49.8203 130.656 50.2303 131.644 50.2303 132.8C50.2303 133.957 49.8203 134.945 49.0003 135.765C48.1793 136.585 47.1913 136.996 46.0353 136.996C44.8793 136.996 43.8903 136.585 43.0703 135.765C42.2503 134.945 41.8403 133.957 41.8403 132.8C41.8403 131.644 42.2503 130.656 43.0703 129.835C43.8903 129.015 44.8793 128.605 46.0353 128.605ZM56.5513 132.291C56.9143 132.291 57.2253 132.162 57.4833 131.904C57.7413 131.646 57.8693 131.337 57.8693 130.978C57.8693 130.615 57.7413 130.304 57.4833 130.046C57.2253 129.793 56.9143 129.666 56.5513 129.666H54.4593V132.291H56.5513ZM59.0473 136.884C59.0593 136.908 59.0573 136.933 59.0413 136.96C59.0303 136.984 59.0083 136.996 58.9773 136.996H57.9343C57.9033 136.996 57.8813 136.982 57.8693 136.955L55.9013 133.363L55.9073 133.357H54.4593V136.902C54.4593 136.953 54.4343 136.978 54.3833 136.978H53.4693C53.4183 136.978 53.3933 136.953 53.3933 136.902V128.675C53.3933 128.625 53.4183 128.599 53.4693 128.599H56.5513C57.2233 128.599 57.7933 128.839 58.2623 129.32C58.7313 129.8 58.9553 130.377 58.9363 131.048C58.9163 131.591 58.7313 132.072 58.3793 132.49C58.0313 132.896 57.5963 133.162 57.0733 133.287L59.0473 136.884ZM67.5133 128.605C67.5633 128.605 67.5893 128.63 67.5893 128.681V129.595C67.5893 129.646 67.5633 129.671 67.5133 129.671H63.0543V132.267H66.2823C66.3333 132.267 66.3583 132.293 66.3583 132.343V133.257C66.3583 133.308 66.3333 133.334 66.2823 133.334H63.0543V135.929H67.5133C67.5633 135.929 67.5893 135.955 67.5893 136.005V136.919C67.5893 136.97 67.5633 136.996 67.5133 136.996H62.0633C62.0133 136.996 61.9873 136.97 61.9873 136.919V128.681C61.9873 128.63 62.0133 128.605 62.0633 128.605H67.5133ZM71.1493 134.824H71.6893L71.8573 131.044V128.356H70.9813V131.044L71.1493 134.824ZM71.8573 135.94H70.9813V136.996H71.8573V135.94Z" fill="white"/>
<path d="M38.8413 128.605C38.8923 128.605 38.9173 128.63 38.9173 128.681V136.919C38.9173 136.97 38.8923 136.996 38.8413 136.996H37.9743C37.9233 136.996 37.8983 136.97 37.8983 136.919V130.703L35.5363 133.339C35.4973 133.378 35.4603 133.378 35.4253 133.339L33.0703 130.709V136.919C33.0703 136.97 33.0443 136.996 32.9933 136.996H32.1263C32.0753 136.996 32.0503 136.97 32.0503 136.919V128.681C32.0503 128.63 32.0753 128.605 32.1263 128.605H32.4663C32.5253 128.605 32.5753 128.628 32.6183 128.675L35.4783 131.875L38.3433 128.675C38.3863 128.628 38.4373 128.605 38.4953 128.605H38.8413ZM46.0353 135.923C46.8943 135.923 47.6313 135.619 48.2443 135.009C48.8533 134.4 49.1583 133.664 49.1583 132.8C49.1583 131.941 48.8533 131.205 48.2443 130.591C47.6313 129.982 46.8943 129.677 46.0353 129.677C45.1723 129.677 44.4353 129.982 43.8263 130.591C43.2173 131.205 42.9123 131.941 42.9123 132.8C42.9123 133.664 43.2173 134.4 43.8263 135.009C44.4353 135.619 45.1723 135.923 46.0353 135.923ZM46.0353 128.605C47.1913 128.605 48.1793 129.015 49.0003 129.835C49.8203 130.656 50.2303 131.644 50.2303 132.8C50.2303 133.957 49.8203 134.945 49.0003 135.765C48.1793 136.585 47.1913 136.996 46.0353 136.996C44.8793 136.996 43.8903 136.585 43.0703 135.765C42.2503 134.945 41.8403 133.957 41.8403 132.8C41.8403 131.644 42.2503 130.656 43.0703 129.835C43.8903 129.015 44.8793 128.605 46.0353 128.605ZM56.5513 132.291C56.9143 132.291 57.2253 132.162 57.4833 131.904C57.7413 131.646 57.8693 131.337 57.8693 130.978C57.8693 130.615 57.7413 130.304 57.4833 130.046C57.2253 129.793 56.9143 129.666 56.5513 129.666H54.4593V132.291H56.5513ZM59.0473 136.884C59.0593 136.908 59.0573 136.933 59.0413 136.96C59.0303 136.984 59.0083 136.996 58.9773 136.996H57.9343C57.9033 136.996 57.8813 136.982 57.8693 136.955L55.9013 133.363L55.9073 133.357H54.4593V136.902C54.4593 136.953 54.4343 136.978 54.3833 136.978H53.4693C53.4183 136.978 53.3933 136.953 53.3933 136.902V128.675C53.3933 128.625 53.4183 128.599 53.4693 128.599H56.5513C57.2233 128.599 57.7933 128.839 58.2623 129.32C58.7313 129.8 58.9553 130.377 58.9363 131.048C58.9163 131.591 58.7313 132.072 58.3793 132.49C58.0313 132.896 57.5963 133.162 57.0733 133.287L59.0473 136.884ZM67.5133 128.605C67.5633 128.605 67.5893 128.63 67.5893 128.681V129.595C67.5893 129.646 67.5633 129.671 67.5133 129.671H63.0543V132.267H66.2823C66.3333 132.267 66.3583 132.293 66.3583 132.343V133.257C66.3583 133.308 66.3333 133.334 66.2823 133.334H63.0543V135.929H67.5133C67.5633 135.929 67.5893 135.955 67.5893 136.005V136.919C67.5893 136.97 67.5633 136.996 67.5133 136.996H62.0633C62.0133 136.996 61.9873 136.97 61.9873 136.919V128.681C61.9873 128.63 62.0133 128.605 62.0633 128.605H67.5133ZM71.1493 134.824H71.6893L71.8573 131.044V128.356H70.9813V131.044L71.1493 134.824ZM71.8573 135.94H70.9813V136.996H71.8573V135.94Z" stroke="white" stroke-width="0.25" stroke-miterlimit="4.78"/>
<path d="M41.8698 114.205C41.9208 114.205 41.9458 114.23 41.9458 114.281V122.519C41.9458 122.57 41.9208 122.596 41.8698 122.596H40.9498C40.8988 122.596 40.8738 122.57 40.8738 122.519V118.922H36.9538V122.508C36.9538 122.559 36.9288 122.584 36.8778 122.584H35.9578C35.9068 122.584 35.8818 122.559 35.8818 122.508V114.269C35.8818 114.219 35.9068 114.193 35.9578 114.193H36.8778C36.9288 114.193 36.9538 114.219 36.9538 114.269V117.85H40.8738V114.281C40.8738 114.23 40.8988 114.205 40.9498 114.205H41.8698ZM50.9978 114.205C51.0478 114.205 51.0738 114.23 51.0738 114.281V115.195C51.0738 115.246 51.0478 115.271 50.9978 115.271H46.5388V117.867H49.7668C49.8178 117.867 49.8428 117.893 49.8428 117.943V118.857C49.8428 118.908 49.8178 118.934 49.7668 118.934H46.5388V121.529H50.9978C51.0478 121.529 51.0738 121.555 51.0738 121.605V122.519C51.0738 122.57 51.0478 122.596 50.9978 122.596H45.5478C45.4968 122.596 45.4718 122.57 45.4718 122.519V114.281C45.4718 114.23 45.4968 114.205 45.5478 114.205H50.9978ZM57.9798 118.295L56.9258 115.746L55.8648 118.295H57.9798ZM57.3298 114.187C57.3648 114.187 57.3888 114.203 57.3998 114.234L60.8278 122.49C60.8398 122.514 60.8378 122.537 60.8218 122.56C60.8068 122.584 60.7848 122.596 60.7578 122.596H59.8198C59.7848 122.596 59.7618 122.58 59.7498 122.549L58.4078 119.314H55.4378L54.0958 122.549C54.0838 122.58 54.0608 122.596 54.0248 122.596H53.0878C53.0598 122.596 53.0388 122.584 53.0228 122.56C53.0078 122.537 53.0058 122.514 53.0178 122.49L56.4448 114.234C56.4608 114.203 56.4838 114.187 56.5158 114.187H57.3298ZM66.6098 117.891C66.9728 117.891 67.2838 117.762 67.5418 117.504C67.7988 117.246 67.9278 116.937 67.9278 116.578C67.9278 116.215 67.7988 115.904 67.5418 115.646C67.2838 115.393 66.9728 115.266 66.6098 115.266H64.5178V117.891H66.6098ZM69.1058 122.484C69.1178 122.508 69.1158 122.533 69.0998 122.56C69.0878 122.584 69.0668 122.596 69.0358 122.596H67.9928C67.9608 122.596 67.9398 122.582 67.9278 122.555L65.9598 118.963L65.9648 118.957H64.5178V122.502C64.5178 122.553 64.4928 122.578 64.4418 122.578H63.5278C63.4768 122.578 63.4518 122.553 63.4518 122.502V114.275C63.4518 114.225 63.4768 114.199 63.5278 114.199H66.6098C67.2818 114.199 67.8518 114.439 68.3208 114.92C68.7898 115.4 69.0138 115.977 68.9948 116.648C68.9748 117.191 68.7898 117.672 68.4378 118.09C68.0898 118.496 67.6548 118.762 67.1308 118.887L69.1058 122.484Z" fill="white"/>
<path d="M41.8698 114.205C41.9208 114.205 41.9458 114.23 41.9458 114.281V122.519C41.9458 122.57 41.9208 122.596 41.8698 122.596H40.9498C40.8988 122.596 40.8738 122.57 40.8738 122.519V118.922H36.9538V122.508C36.9538 122.559 36.9288 122.584 36.8778 122.584H35.9578C35.9068 122.584 35.8818 122.559 35.8818 122.508V114.269C35.8818 114.219 35.9068 114.193 35.9578 114.193H36.8778C36.9288 114.193 36.9538 114.219 36.9538 114.269V117.85H40.8738V114.281C40.8738 114.23 40.8988 114.205 40.9498 114.205H41.8698ZM50.9978 114.205C51.0478 114.205 51.0738 114.23 51.0738 114.281V115.195C51.0738 115.246 51.0478 115.271 50.9978 115.271H46.5388V117.867H49.7668C49.8178 117.867 49.8428 117.893 49.8428 117.943V118.857C49.8428 118.908 49.8178 118.934 49.7668 118.934H46.5388V121.529H50.9978C51.0478 121.529 51.0738 121.555 51.0738 121.605V122.519C51.0738 122.57 51.0478 122.596 50.9978 122.596H45.5478C45.4968 122.596 45.4718 122.57 45.4718 122.519V114.281C45.4718 114.23 45.4968 114.205 45.5478 114.205H50.9978ZM57.9798 118.295L56.9258 115.746L55.8648 118.295H57.9798ZM57.3298 114.187C57.3648 114.187 57.3888 114.203 57.3998 114.234L60.8278 122.49C60.8398 122.514 60.8378 122.537 60.8218 122.56C60.8068 122.584 60.7848 122.596 60.7578 122.596H59.8198C59.7848 122.596 59.7618 122.58 59.7498 122.549L58.4078 119.314H55.4378L54.0958 122.549C54.0838 122.58 54.0608 122.596 54.0248 122.596H53.0878C53.0598 122.596 53.0388 122.584 53.0228 122.56C53.0078 122.537 53.0058 122.514 53.0178 122.49L56.4448 114.234C56.4608 114.203 56.4838 114.187 56.5158 114.187H57.3298ZM66.6098 117.891C66.9728 117.891 67.2838 117.762 67.5418 117.504C67.7988 117.246 67.9278 116.937 67.9278 116.578C67.9278 116.215 67.7988 115.904 67.5418 115.646C67.2838 115.393 66.9728 115.266 66.6098 115.266H64.5178V117.891H66.6098ZM69.1058 122.484C69.1178 122.508 69.1158 122.533 69.0998 122.56C69.0878 122.584 69.0668 122.596 69.0358 122.596H67.9928C67.9608 122.596 67.9398 122.582 67.9278 122.555L65.9598 118.963L65.9648 118.957H64.5178V122.502C64.5178 122.553 64.4928 122.578 64.4418 122.578H63.5278C63.4768 122.578 63.4518 122.553 63.4518 122.502V114.275C63.4518 114.225 63.4768 114.199 63.5278 114.199H66.6098C67.2818 114.199 67.8518 114.439 68.3208 114.92C68.7898 115.4 69.0138 115.977 68.9948 116.648C68.9748 117.191 68.7898 117.672 68.4378 118.09C68.0898 118.496 67.6548 118.762 67.1308 118.887L69.1058 122.484Z" stroke="white" stroke-width="0.25" stroke-miterlimit="4.78"/>
<path d="M30.9004 99.8054C30.9514 99.8054 30.9764 99.8304 30.9764 99.8814V108.119C30.9764 108.17 30.9514 108.196 30.9004 108.196H29.9804C29.9294 108.196 29.9044 108.17 29.9044 108.119V104.522H25.9844V108.108C25.9844 108.159 25.9594 108.184 25.9084 108.184H24.9884C24.9374 108.184 24.9124 108.159 24.9124 108.108V99.8694C24.9124 99.8194 24.9374 99.7934 24.9884 99.7934H25.9084C25.9594 99.7934 25.9844 99.8194 25.9844 99.8694V103.45H29.9044V99.8814C29.9044 99.8304 29.9294 99.8054 29.9804 99.8054H30.9004ZM40.0284 99.8054C40.0784 99.8054 40.1044 99.8304 40.1044 99.8814V100.795C40.1044 100.846 40.0784 100.871 40.0284 100.871H35.5694V103.467H38.7974C38.8484 103.467 38.8734 103.493 38.8734 103.543V104.457C38.8734 104.508 38.8484 104.534 38.7974 104.534H35.5694V107.129H40.0284C40.0784 107.129 40.1044 107.155 40.1044 107.205V108.119C40.1044 108.17 40.0784 108.196 40.0284 108.196H34.5784C34.5284 108.196 34.5024 108.17 34.5024 108.119V99.8814C34.5024 99.8304 34.5284 99.8054 34.5784 99.8054H40.0284ZM46.1144 103.491C46.4774 103.491 46.7884 103.362 47.0464 103.104C47.3034 102.846 47.4324 102.537 47.4324 102.178C47.4324 101.815 47.3034 101.504 47.0464 101.246C46.7884 100.993 46.4774 100.866 46.1144 100.866H44.0224V103.491H46.1144ZM48.6104 108.084C48.6224 108.108 48.6204 108.133 48.6044 108.16C48.5934 108.184 48.5714 108.196 48.5404 108.196H47.4974C47.4654 108.196 47.4444 108.182 47.4324 108.155L45.4644 104.563L45.4694 104.557H44.0224V108.102C44.0224 108.153 43.9974 108.178 43.9464 108.178H43.0324C42.9814 108.178 42.9564 108.153 42.9564 108.102V99.8754C42.9564 99.8254 42.9814 99.7994 43.0324 99.7994H46.1144C46.7864 99.7994 47.3564 100.039 47.8254 100.52C48.2944 101 48.5184 101.577 48.4994 102.248C48.4794 102.791 48.2944 103.272 47.9424 103.69C47.5944 104.096 47.1594 104.362 46.6354 104.487L48.6104 108.084ZM57.0754 99.8054C57.1264 99.8054 57.1524 99.8304 57.1524 99.8814V100.795C57.1524 100.846 57.1264 100.871 57.0754 100.871H52.6164V103.467H55.8454C55.8964 103.467 55.9214 103.493 55.9214 103.543V104.457C55.9214 104.508 55.8964 104.534 55.8454 104.534H52.6164V107.129H57.0754C57.1264 107.129 57.1524 107.155 57.1524 107.205V108.119C57.1524 108.17 57.1264 108.196 57.0754 108.196H51.6264C51.5754 108.196 51.5504 108.17 51.5504 108.119V99.8814C51.5504 99.8304 51.5754 99.8054 51.6264 99.8054H57.0754ZM69.2954 99.8054C69.3464 99.8054 69.3714 99.8304 69.3714 99.8814V100.795C69.3714 100.846 69.3464 100.871 69.2954 100.871H67.0984V108.119C67.0984 108.17 67.0734 108.196 67.0224 108.196H66.1084C66.0574 108.196 66.0324 108.17 66.0324 108.119V100.871H63.8294C63.7784 100.871 63.7524 100.846 63.7524 100.795V99.8814C63.7524 99.8304 63.7784 99.8054 63.8294 99.8054H69.2954ZM75.6574 107.123C76.5174 107.123 77.2534 106.819 77.8664 106.209C78.4764 105.6 78.7804 104.864 78.7804 104C78.7804 103.141 78.4764 102.405 77.8664 101.791C77.2534 101.182 76.5174 100.877 75.6574 100.877C74.7944 100.877 74.0584 101.182 73.4484 101.791C72.8394 102.405 72.5344 103.141 72.5344 104C72.5344 104.864 72.8394 105.6 73.4484 106.209C74.0584 106.819 74.7944 107.123 75.6574 107.123ZM75.6574 99.8054C76.8134 99.8054 77.8024 100.215 78.6224 101.035C79.4424 101.856 79.8534 102.844 79.8534 104C79.8534 105.157 79.4424 106.145 78.6224 106.965C77.8024 107.785 76.8134 108.196 75.6574 108.196C74.5014 108.196 73.5134 107.785 72.6924 106.965C71.8724 106.145 71.4624 105.157 71.4624 104C71.4624 102.844 71.8724 101.856 72.6924 101.035C73.5134 100.215 74.5014 99.8054 75.6574 99.8054Z" fill="white"/>
<path d="M30.9004 99.8054C30.9514 99.8054 30.9764 99.8304 30.9764 99.8814V108.119C30.9764 108.17 30.9514 108.196 30.9004 108.196H29.9804C29.9294 108.196 29.9044 108.17 29.9044 108.119V104.522H25.9844V108.108C25.9844 108.159 25.9594 108.184 25.9084 108.184H24.9884C24.9374 108.184 24.9124 108.159 24.9124 108.108V99.8694C24.9124 99.8194 24.9374 99.7934 24.9884 99.7934H25.9084C25.9594 99.7934 25.9844 99.8194 25.9844 99.8694V103.45H29.9044V99.8814C29.9044 99.8304 29.9294 99.8054 29.9804 99.8054H30.9004ZM40.0284 99.8054C40.0784 99.8054 40.1044 99.8304 40.1044 99.8814V100.795C40.1044 100.846 40.0784 100.871 40.0284 100.871H35.5694V103.467H38.7974C38.8484 103.467 38.8734 103.493 38.8734 103.543V104.457C38.8734 104.508 38.8484 104.534 38.7974 104.534H35.5694V107.129H40.0284C40.0784 107.129 40.1044 107.155 40.1044 107.205V108.119C40.1044 108.17 40.0784 108.196 40.0284 108.196H34.5784C34.5284 108.196 34.5024 108.17 34.5024 108.119V99.8814C34.5024 99.8304 34.5284 99.8054 34.5784 99.8054H40.0284ZM46.1144 103.491C46.4774 103.491 46.7884 103.362 47.0464 103.104C47.3034 102.846 47.4324 102.537 47.4324 102.178C47.4324 101.815 47.3034 101.504 47.0464 101.246C46.7884 100.993 46.4774 100.866 46.1144 100.866H44.0224V103.491H46.1144ZM48.6104 108.084C48.6224 108.108 48.6204 108.133 48.6044 108.16C48.5934 108.184 48.5714 108.196 48.5404 108.196H47.4974C47.4654 108.196 47.4444 108.182 47.4324 108.155L45.4644 104.563L45.4694 104.557H44.0224V108.102C44.0224 108.153 43.9974 108.178 43.9464 108.178H43.0324C42.9814 108.178 42.9564 108.153 42.9564 108.102V99.8754C42.9564 99.8254 42.9814 99.7994 43.0324 99.7994H46.1144C46.7864 99.7994 47.3564 100.039 47.8254 100.52C48.2944 101 48.5184 101.577 48.4994 102.248C48.4794 102.791 48.2944 103.272 47.9424 103.69C47.5944 104.096 47.1594 104.362 46.6354 104.487L48.6104 108.084ZM57.0754 99.8054C57.1264 99.8054 57.1524 99.8304 57.1524 99.8814V100.795C57.1524 100.846 57.1264 100.871 57.0754 100.871H52.6164V103.467H55.8454C55.8964 103.467 55.9214 103.493 55.9214 103.543V104.457C55.9214 104.508 55.8964 104.534 55.8454 104.534H52.6164V107.129H57.0754C57.1264 107.129 57.1524 107.155 57.1524 107.205V108.119C57.1524 108.17 57.1264 108.196 57.0754 108.196H51.6264C51.5754 108.196 51.5504 108.17 51.5504 108.119V99.8814C51.5504 99.8304 51.5754 99.8054 51.6264 99.8054H57.0754ZM69.2954 99.8054C69.3464 99.8054 69.3714 99.8304 69.3714 99.8814V100.795C69.3714 100.846 69.3464 100.871 69.2954 100.871H67.0984V108.119C67.0984 108.17 67.0734 108.196 67.0224 108.196H66.1084C66.0574 108.196 66.0324 108.17 66.0324 108.119V100.871H63.8294C63.7784 100.871 63.7524 100.846 63.7524 100.795V99.8814C63.7524 99.8304 63.7784 99.8054 63.8294 99.8054H69.2954ZM75.6574 107.123C76.5174 107.123 77.2534 106.819 77.8664 106.209C78.4764 105.6 78.7804 104.864 78.7804 104C78.7804 103.141 78.4764 102.405 77.8664 101.791C77.2534 101.182 76.5174 100.877 75.6574 100.877C74.7944 100.877 74.0584 101.182 73.4484 101.791C72.8394 102.405 72.5344 103.141 72.5344 104C72.5344 104.864 72.8394 105.6 73.4484 106.209C74.0584 106.819 74.7944 107.123 75.6574 107.123ZM75.6574 99.8054C76.8134 99.8054 77.8024 100.215 78.6224 101.035C79.4424 101.856 79.8534 102.844 79.8534 104C79.8534 105.157 79.4424 106.145 78.6224 106.965C77.8024 107.785 76.8134 108.196 75.6574 108.196C74.5014 108.196 73.5134 107.785 72.6924 106.965C71.8724 106.145 71.4624 105.157 71.4624 104C71.4624 102.844 71.8724 101.856 72.6924 101.035C73.5134 100.215 74.5014 99.8054 75.6574 99.8054Z" stroke="white" stroke-width="0.25" stroke-miterlimit="4.78"/>
<path d="M40.9449 93.0109C40.9719 93.0539 40.9649 93.0889 40.9219 93.1159C40.2299 93.5699 39.4659 93.7959 38.6309 93.7959C38.0449 93.7959 37.4839 93.6789 36.9489 93.4449C36.4329 93.2179 35.9799 92.8979 35.5899 92.4839C34.7569 91.6089 34.3749 90.5679 34.4409 89.3609C34.4999 88.3219 34.8979 87.4249 35.6359 86.6709C36.3709 85.9169 37.2569 85.4989 38.2969 85.4169C39.2499 85.3429 40.1229 85.5639 40.9159 86.0789C40.9589 86.1069 40.9659 86.1419 40.9389 86.1849L40.4239 86.9409C40.3959 86.9839 40.3609 86.9919 40.3179 86.9639C39.7319 86.5849 39.0879 86.4229 38.3839 86.4779C37.5879 86.5399 36.9099 86.8679 36.3509 87.4619C35.7969 88.0559 35.5129 88.7549 35.5019 89.5599C35.4899 90.4309 35.7929 91.1769 36.4099 91.7979C37.0229 92.4189 37.7629 92.7299 38.6309 92.7299C39.2479 92.7299 39.8119 92.5639 40.3239 92.2319C40.3669 92.2039 40.4019 92.2119 40.4289 92.2549L40.9449 93.0109ZM48.3439 92.7239C48.3949 92.7239 48.4199 92.7489 48.4199 92.7999V93.7199C48.4199 93.7709 48.3949 93.7959 48.3439 93.7959H43.6799C43.6289 93.7959 43.6039 93.7709 43.6039 93.7199V85.4759C43.6039 85.4249 43.6289 85.3999 43.6799 85.3999H44.5999C44.6509 85.3999 44.6759 85.4249 44.6759 85.4759V92.7239H48.3439ZM52.1569 85.4059C52.2079 85.4059 52.2329 85.4309 52.2329 85.4819V93.7199C52.2329 93.7709 52.2079 93.7959 52.1569 93.7959H51.2369C51.1859 93.7959 51.1609 93.7709 51.1609 93.7199V85.4819C51.1609 85.4309 51.1859 85.4059 51.2369 85.4059H52.1569ZM61.7239 93.0109C61.7509 93.0539 61.7439 93.0889 61.7009 93.1159C61.0089 93.5699 60.2449 93.7959 59.4099 93.7959C58.8239 93.7959 58.2629 93.6789 57.7279 93.4449C57.2119 93.2179 56.7589 92.8979 56.3689 92.4839C55.5359 91.6089 55.1539 90.5679 55.2199 89.3609C55.2789 88.3219 55.6769 87.4249 56.4149 86.6709C57.1499 85.9169 58.0359 85.4989 59.0759 85.4169C60.0289 85.3429 60.9019 85.5639 61.6949 86.0789C61.7379 86.1069 61.7449 86.1419 61.7179 86.1849L61.2029 86.9409C61.1749 86.9839 61.1399 86.9919 61.0969 86.9639C60.5109 86.5849 59.8669 86.4229 59.1629 86.4779C58.3669 86.5399 57.6889 86.8679 57.1299 87.4619C56.5759 88.0559 56.2919 88.7549 56.2809 89.5599C56.2689 90.4309 56.5719 91.1769 57.1889 91.7979C57.8019 92.4189 58.5419 92.7299 59.4099 92.7299C60.0269 92.7299 60.5909 92.5639 61.1029 92.2319C61.1459 92.2039 61.1809 92.2119 61.2079 92.2549L61.7239 93.0109ZM70.3589 93.6669C70.3869 93.6909 70.3919 93.7179 70.3769 93.7489C70.3649 93.7809 70.3419 93.7959 70.3069 93.7959H68.9649C68.9409 93.7959 68.9239 93.7879 68.9119 93.7729L65.4549 90.5319V93.7199C65.4549 93.7709 65.4299 93.7959 65.3789 93.7959H64.4589C64.4079 93.7959 64.3829 93.7709 64.3829 93.7199V85.4759C64.3829 85.4249 64.4079 85.3999 64.4589 85.3999H65.3789C65.4299 85.3999 65.4549 85.4249 65.4549 85.4759V88.5929L68.6309 85.4289C68.6459 85.4129 68.6639 85.4059 68.6839 85.4059H69.9839C70.0189 85.4059 70.0429 85.4209 70.0549 85.4519C70.0699 85.4839 70.0659 85.5109 70.0429 85.5339L65.9939 89.5719L70.3589 93.6669Z" fill="white"/>
<path d="M40.9449 93.0109C40.9719 93.0539 40.9649 93.0889 40.9219 93.1159C40.2299 93.5699 39.4659 93.7959 38.6309 93.7959C38.0449 93.7959 37.4839 93.6789 36.9489 93.4449C36.4329 93.2179 35.9799 92.8979 35.5899 92.4839C34.7569 91.6089 34.3749 90.5679 34.4409 89.3609C34.4999 88.3219 34.8979 87.4249 35.6359 86.6709C36.3709 85.9169 37.2569 85.4989 38.2969 85.4169C39.2499 85.3429 40.1229 85.5639 40.9159 86.0789C40.9589 86.1069 40.9659 86.1419 40.9389 86.1849L40.4239 86.9409C40.3959 86.9839 40.3609 86.9919 40.3179 86.9639C39.7319 86.5849 39.0879 86.4229 38.3839 86.4779C37.5879 86.5399 36.9099 86.8679 36.3509 87.4619C35.7969 88.0559 35.5129 88.7549 35.5019 89.5599C35.4899 90.4309 35.7929 91.1769 36.4099 91.7979C37.0229 92.4189 37.7629 92.7299 38.6309 92.7299C39.2479 92.7299 39.8119 92.5639 40.3239 92.2319C40.3669 92.2039 40.4019 92.2119 40.4289 92.2549L40.9449 93.0109ZM48.3439 92.7239C48.3949 92.7239 48.4199 92.7489 48.4199 92.7999V93.7199C48.4199 93.7709 48.3949 93.7959 48.3439 93.7959H43.6799C43.6289 93.7959 43.6039 93.7709 43.6039 93.7199V85.4759C43.6039 85.4249 43.6289 85.3999 43.6799 85.3999H44.5999C44.6509 85.3999 44.6759 85.4249 44.6759 85.4759V92.7239H48.3439ZM52.1569 85.4059C52.2079 85.4059 52.2329 85.4309 52.2329 85.4819V93.7199C52.2329 93.7709 52.2079 93.7959 52.1569 93.7959H51.2369C51.1859 93.7959 51.1609 93.7709 51.1609 93.7199V85.4819C51.1609 85.4309 51.1859 85.4059 51.2369 85.4059H52.1569ZM61.7239 93.0109C61.7509 93.0539 61.7439 93.0889 61.7009 93.1159C61.0089 93.5699 60.2449 93.7959 59.4099 93.7959C58.8239 93.7959 58.2629 93.6789 57.7279 93.4449C57.2119 93.2179 56.7589 92.8979 56.3689 92.4839C55.5359 91.6089 55.1539 90.5679 55.2199 89.3609C55.2789 88.3219 55.6769 87.4249 56.4149 86.6709C57.1499 85.9169 58.0359 85.4989 59.0759 85.4169C60.0289 85.3429 60.9019 85.5639 61.6949 86.0789C61.7379 86.1069 61.7449 86.1419 61.7179 86.1849L61.2029 86.9409C61.1749 86.9839 61.1399 86.9919 61.0969 86.9639C60.5109 86.5849 59.8669 86.4229 59.1629 86.4779C58.3669 86.5399 57.6889 86.8679 57.1299 87.4619C56.5759 88.0559 56.2919 88.7549 56.2809 89.5599C56.2689 90.4309 56.5719 91.1769 57.1889 91.7979C57.8019 92.4189 58.5419 92.7299 59.4099 92.7299C60.0269 92.7299 60.5909 92.5639 61.1029 92.2319C61.1459 92.2039 61.1809 92.2119 61.2079 92.2549L61.7239 93.0109ZM70.3589 93.6669C70.3869 93.6909 70.3919 93.7179 70.3769 93.7489C70.3649 93.7809 70.3419 93.7959 70.3069 93.7959H68.9649C68.9409 93.7959 68.9239 93.7879 68.9119 93.7729L65.4549 90.5319V93.7199C65.4549 93.7709 65.4299 93.7959 65.3789 93.7959H64.4589C64.4079 93.7959 64.3829 93.7709 64.3829 93.7199V85.4759C64.3829 85.4249 64.4079 85.3999 64.4589 85.3999H65.3789C65.4299 85.3999 65.4549 85.4249 65.4549 85.4759V88.5929L68.6309 85.4289C68.6459 85.4129 68.6639 85.4059 68.6839 85.4059H69.9839C70.0189 85.4059 70.0429 85.4209 70.0549 85.4519C70.0699 85.4839 70.0659 85.5109 70.0429 85.5339L65.9939 89.5719L70.3589 93.6669Z" stroke="white" stroke-width="0.25" stroke-miterlimit="4.78"/>
<path d="M43.7048 28.1012C46.8238 27.9002 50.4198 28.0382 53.7188 28.0382C57.0528 28.0382 60.6568 27.8142 63.1648 28.4792C65.6448 29.1362 67.8248 30.4832 69.2738 32.2582C70.6438 33.9352 71.8748 36.1772 72.0448 39.3742C72.2268 42.7892 72.0448 45.5782 72.0448 49.3252C72.0448 52.6872 72.3058 56.2332 71.6668 58.8342C70.4808 63.6652 66.3958 67.2872 60.7088 67.6512C57.3788 67.8652 54.1478 67.7142 50.8208 67.7142C47.7418 67.7142 43.9428 68.0162 41.3118 67.3362C36.5078 66.0962 32.7968 62.2192 32.4318 56.4412C32.2398 53.4032 32.3688 49.7232 32.3688 46.5542C32.3688 43.2432 32.1298 39.4982 32.7468 37.0442C33.7048 33.2292 36.1478 30.5502 39.6108 29.0462C40.8618 28.5022 42.1578 28.2012 43.7048 28.1012Z" fill="white"/>
<path d="M65.2825 58.8284H39.1646V36.9454H65.2825V58.8284Z" fill="#003882"/>
<path d="M36.7815 34.6805H67.5725V56.5925C67.5725 57.9295 67.8805 61.4675 67.3835 61.8815C67.0225 62.1825 66.4255 61.8815 65.1175 61.8815C52.5665 61.8815 48.3565 62.0365 36.7815 61.6925V34.6805ZM40.1815 42.4245C39.6015 44.2245 39.4835 52.2555 40.3705 54.1375C41.7885 57.1485 46.3435 56.4045 51.7045 56.4045C57.5345 56.4045 62.5615 57.2405 63.7955 53.7595C64.5345 51.6725 64.2855 43.6235 63.7955 42.2355C62.5645 38.7515 57.4225 39.5915 52.6495 39.5915C49.3795 39.5915 45.6935 39.2615 43.3925 39.7805C41.5405 40.1975 40.5055 41.4175 40.1815 42.4245Z" fill="white"/>
<path d="M49.8157 45.0698C51.9277 46.0628 53.0817 46.6288 55.6717 47.9038C53.7997 48.9908 51.8157 49.9658 49.8157 50.9258V45.0698Z" fill="white"/>
<path d="M0 4.57764e-05V174.154L14.926 87.259L0 4.57764e-05Z" fill="#4FB29E"/>
</svg>
