<svg width="94" height="330" viewBox="0 0 94 330" fill="none" xmlns="http://www.w3.org/2000/svg">
<path d="M0.709229 329.237H93.6852V-9.18434e-05H0.709229V329.237Z" fill="#4FB29E"/>
<path d="M38.6328 243.02C38.6838 243.02 38.7088 243.068 38.7088 243.164V258.775C38.7088 258.871 38.6838 258.92 38.6328 258.92H37.7658C37.7148 258.92 37.6898 258.871 37.6898 258.775V246.996L35.3278 251.991C35.2888 252.065 35.2518 252.065 35.2168 251.991L32.8618 247.007V258.775C32.8618 258.871 32.8358 258.92 32.7848 258.92H31.9178C31.8668 258.92 31.8418 258.871 31.8418 258.775V243.164C31.8418 243.068 31.8668 243.02 31.9178 243.02H32.2578C32.3168 243.02 32.3668 243.064 32.4098 243.153L35.2698 249.217L38.1348 243.153C38.1778 243.064 38.2288 243.02 38.2868 243.02H38.6328ZM45.8268 256.887C46.6858 256.887 47.4228 256.311 48.0358 255.155C48.6448 254.001 48.9498 252.607 48.9498 250.969C48.9498 249.342 48.6448 247.947 48.0358 246.784C47.4228 245.63 46.6858 245.052 45.8268 245.052C44.9638 245.052 44.2268 245.63 43.6178 246.784C43.0088 247.947 42.7038 249.342 42.7038 250.969C42.7038 252.607 43.0088 254.001 43.6178 255.155C44.2268 256.311 44.9638 256.887 45.8268 256.887ZM45.8268 243.02C46.9828 243.02 47.9708 243.797 48.7918 245.351C49.6118 246.907 50.0218 248.779 50.0218 250.969C50.0218 253.162 49.6118 255.034 48.7918 256.588C47.9708 258.142 46.9828 258.92 45.8268 258.92C44.6708 258.92 43.6818 258.142 42.8618 256.588C42.0418 255.034 41.6318 253.162 41.6318 250.969C41.6318 248.779 42.0418 246.907 42.8618 245.351C43.6818 243.797 44.6708 243.02 45.8268 243.02ZM56.3428 250.005C56.7058 250.005 57.0168 249.761 57.2748 249.272C57.5328 248.783 57.6608 248.197 57.6608 247.517C57.6608 246.829 57.5328 246.24 57.2748 245.751C57.0168 245.272 56.7058 245.031 56.3428 245.031H54.2508V250.005H56.3428ZM58.8388 258.708C58.8508 258.754 58.8488 258.801 58.8328 258.852C58.8218 258.898 58.7998 258.92 58.7688 258.92H57.7258C57.6948 258.92 57.6728 258.894 57.6608 258.843L55.6928 252.036L55.6988 252.025H54.2508V258.742C54.2508 258.839 54.2258 258.886 54.1748 258.886H53.2608C53.2098 258.886 53.1848 258.839 53.1848 258.742V243.153C53.1848 243.058 53.2098 243.009 53.2608 243.009H56.3428C57.0148 243.009 57.5848 243.464 58.0538 244.375C58.5228 245.285 58.7468 246.378 58.7278 247.65C58.7078 248.679 58.5228 249.59 58.1708 250.382C57.8228 251.151 57.3878 251.655 56.8648 251.892L58.8388 258.708ZM67.3048 243.02C67.3548 243.02 67.3808 243.068 67.3808 243.164V244.896C67.3808 244.993 67.3548 245.04 67.3048 245.04H62.8458V249.96H66.0738C66.1248 249.96 66.1498 250.009 66.1498 250.104V251.835C66.1498 251.932 66.1248 251.981 66.0738 251.981H62.8458V256.899H67.3048C67.3548 256.899 67.3808 256.948 67.3808 257.043V258.775C67.3808 258.871 67.3548 258.92 67.3048 258.92H61.8548C61.8048 258.92 61.7788 258.871 61.7788 258.775V243.164C61.7788 243.068 61.8048 243.02 61.8548 243.02H67.3048ZM70.9408 254.805H71.4808L71.6488 247.642V242.549H70.7728V247.642L70.9408 254.805ZM71.6488 256.919H70.7728V258.92H71.6488V256.919Z" fill="white"/>
<path d="M38.6328 243.02C38.6838 243.02 38.7088 243.068 38.7088 243.164V258.775C38.7088 258.871 38.6838 258.92 38.6328 258.92H37.7658C37.7148 258.92 37.6898 258.871 37.6898 258.775V246.996L35.3278 251.991C35.2888 252.065 35.2518 252.065 35.2168 251.991L32.8618 247.007V258.775C32.8618 258.871 32.8358 258.92 32.7848 258.92H31.9178C31.8668 258.92 31.8418 258.871 31.8418 258.775V243.164C31.8418 243.068 31.8668 243.02 31.9178 243.02H32.2578C32.3168 243.02 32.3668 243.064 32.4098 243.153L35.2698 249.217L38.1348 243.153C38.1778 243.064 38.2288 243.02 38.2868 243.02H38.6328ZM45.8268 256.887C46.6858 256.887 47.4228 256.311 48.0358 255.155C48.6448 254.001 48.9498 252.607 48.9498 250.969C48.9498 249.342 48.6448 247.947 48.0358 246.784C47.4228 245.63 46.6858 245.052 45.8268 245.052C44.9638 245.052 44.2268 245.63 43.6178 246.784C43.0088 247.947 42.7038 249.342 42.7038 250.969C42.7038 252.607 43.0088 254.001 43.6178 255.155C44.2268 256.311 44.9638 256.887 45.8268 256.887ZM45.8268 243.02C46.9828 243.02 47.9708 243.797 48.7918 245.351C49.6118 246.907 50.0218 248.779 50.0218 250.969C50.0218 253.162 49.6118 255.034 48.7918 256.588C47.9708 258.142 46.9828 258.92 45.8268 258.92C44.6708 258.92 43.6818 258.142 42.8618 256.588C42.0418 255.034 41.6318 253.162 41.6318 250.969C41.6318 248.779 42.0418 246.907 42.8618 245.351C43.6818 243.797 44.6708 243.02 45.8268 243.02ZM56.3428 250.005C56.7058 250.005 57.0168 249.761 57.2748 249.272C57.5328 248.783 57.6608 248.197 57.6608 247.517C57.6608 246.829 57.5328 246.24 57.2748 245.751C57.0168 245.272 56.7058 245.031 56.3428 245.031H54.2508V250.005H56.3428ZM58.8388 258.708C58.8508 258.754 58.8488 258.801 58.8328 258.852C58.8218 258.898 58.7998 258.92 58.7688 258.92H57.7258C57.6948 258.92 57.6728 258.894 57.6608 258.843L55.6928 252.036L55.6988 252.025H54.2508V258.742C54.2508 258.839 54.2258 258.886 54.1748 258.886H53.2608C53.2098 258.886 53.1848 258.839 53.1848 258.742V243.153C53.1848 243.058 53.2098 243.009 53.2608 243.009H56.3428C57.0148 243.009 57.5848 243.464 58.0538 244.375C58.5228 245.285 58.7468 246.378 58.7278 247.65C58.7078 248.679 58.5228 249.59 58.1708 250.382C57.8228 251.151 57.3878 251.655 56.8648 251.892L58.8388 258.708ZM67.3048 243.02C67.3548 243.02 67.3808 243.068 67.3808 243.164V244.896C67.3808 244.993 67.3548 245.04 67.3048 245.04H62.8458V249.96H66.0738C66.1248 249.96 66.1498 250.009 66.1498 250.104V251.835C66.1498 251.932 66.1248 251.981 66.0738 251.981H62.8458V256.899H67.3048C67.3548 256.899 67.3808 256.948 67.3808 257.043V258.775C67.3808 258.871 67.3548 258.92 67.3048 258.92H61.8548C61.8048 258.92 61.7788 258.871 61.7788 258.775V243.164C61.7788 243.068 61.8048 243.02 61.8548 243.02H67.3048ZM70.9408 254.805H71.4808L71.6488 247.642V242.549H70.7728V247.642L70.9408 254.805ZM71.6488 256.919H70.7728V258.92H71.6488V256.919Z" stroke="white" stroke-width="0.25" stroke-miterlimit="4.78"/>
<path d="M41.6613 215.734C41.7123 215.734 41.7373 215.782 41.7373 215.878V231.488C41.7373 231.585 41.7123 231.634 41.6613 231.634H40.7413C40.6903 231.634 40.6653 231.585 40.6653 231.488V224.673H36.7453V231.468C36.7453 231.564 36.7203 231.612 36.6693 231.612H35.7493C35.6983 231.612 35.6733 231.564 35.6733 231.468V215.856C35.6733 215.761 35.6983 215.712 35.7493 215.712H36.6693C36.7203 215.712 36.7453 215.761 36.7453 215.856V222.641H40.6653V215.878C40.6653 215.782 40.6903 215.734 40.7413 215.734H41.6613ZM50.7893 215.734C50.8393 215.734 50.8653 215.782 50.8653 215.878V217.61C50.8653 217.707 50.8393 217.754 50.7893 217.754H46.3303V222.674H49.5583C49.6093 222.674 49.6343 222.723 49.6343 222.818V224.549C49.6343 224.646 49.6093 224.695 49.5583 224.695H46.3303V229.613H50.7893C50.8393 229.613 50.8653 229.662 50.8653 229.757V231.488C50.8653 231.585 50.8393 231.634 50.7893 231.634H45.3393C45.2883 231.634 45.2633 231.585 45.2633 231.488V215.878C45.2633 215.782 45.2883 215.734 45.3393 215.734H50.7893ZM57.7713 223.485L56.7173 218.654L55.6563 223.485H57.7713ZM57.1213 215.7C57.1563 215.7 57.1803 215.731 57.1913 215.789L60.6193 231.434C60.6313 231.479 60.6293 231.523 60.6133 231.566C60.5983 231.612 60.5763 231.634 60.5493 231.634H59.6113C59.5763 231.634 59.5533 231.604 59.5413 231.545L58.1993 225.415H55.2293L53.8873 231.545C53.8753 231.604 53.8523 231.634 53.8163 231.634H52.8793C52.8513 231.634 52.8303 231.612 52.8143 231.566C52.7993 231.523 52.7973 231.479 52.8093 231.434L56.2363 215.789C56.2523 215.731 56.2753 215.7 56.3073 215.7H57.1213ZM66.4013 222.719C66.7643 222.719 67.0753 222.475 67.3333 221.986C67.5903 221.497 67.7193 220.911 67.7193 220.231C67.7193 219.543 67.5903 218.954 67.3333 218.465C67.0753 217.986 66.7643 217.745 66.4013 217.745H64.3093V222.719H66.4013ZM68.8973 231.422C68.9093 231.468 68.9073 231.515 68.8913 231.566C68.8793 231.612 68.8583 231.634 68.8273 231.634H67.7843C67.7523 231.634 67.7313 231.608 67.7193 231.557L65.7513 224.75L65.7563 224.739H64.3093V231.456C64.3093 231.553 64.2843 231.6 64.2333 231.6H63.3193C63.2683 231.6 63.2433 231.553 63.2433 231.456V215.867C63.2433 215.772 63.2683 215.723 63.3193 215.723H66.4013C67.0733 215.723 67.6433 216.178 68.1123 217.089C68.5813 217.999 68.8053 219.092 68.7863 220.364C68.7663 221.393 68.5813 222.304 68.2293 223.096C67.8813 223.865 67.4463 224.369 66.9223 224.606L68.8973 231.422Z" fill="white"/>
<path d="M41.6613 215.734C41.7123 215.734 41.7373 215.782 41.7373 215.878V231.488C41.7373 231.585 41.7123 231.634 41.6613 231.634H40.7413C40.6903 231.634 40.6653 231.585 40.6653 231.488V224.673H36.7453V231.468C36.7453 231.564 36.7203 231.612 36.6693 231.612H35.7493C35.6983 231.612 35.6733 231.564 35.6733 231.468V215.856C35.6733 215.761 35.6983 215.712 35.7493 215.712H36.6693C36.7203 215.712 36.7453 215.761 36.7453 215.856V222.641H40.6653V215.878C40.6653 215.782 40.6903 215.734 40.7413 215.734H41.6613ZM50.7893 215.734C50.8393 215.734 50.8653 215.782 50.8653 215.878V217.61C50.8653 217.707 50.8393 217.754 50.7893 217.754H46.3303V222.674H49.5583C49.6093 222.674 49.6343 222.723 49.6343 222.818V224.549C49.6343 224.646 49.6093 224.695 49.5583 224.695H46.3303V229.613H50.7893C50.8393 229.613 50.8653 229.662 50.8653 229.757V231.488C50.8653 231.585 50.8393 231.634 50.7893 231.634H45.3393C45.2883 231.634 45.2633 231.585 45.2633 231.488V215.878C45.2633 215.782 45.2883 215.734 45.3393 215.734H50.7893ZM57.7713 223.485L56.7173 218.654L55.6563 223.485H57.7713ZM57.1213 215.7C57.1563 215.7 57.1803 215.731 57.1913 215.789L60.6193 231.434C60.6313 231.479 60.6293 231.523 60.6133 231.566C60.5983 231.612 60.5763 231.634 60.5493 231.634H59.6113C59.5763 231.634 59.5533 231.604 59.5413 231.545L58.1993 225.415H55.2293L53.8873 231.545C53.8753 231.604 53.8523 231.634 53.8163 231.634H52.8793C52.8513 231.634 52.8303 231.612 52.8143 231.566C52.7993 231.523 52.7973 231.479 52.8093 231.434L56.2363 215.789C56.2523 215.731 56.2753 215.7 56.3073 215.7H57.1213ZM66.4013 222.719C66.7643 222.719 67.0753 222.475 67.3333 221.986C67.5903 221.497 67.7193 220.911 67.7193 220.231C67.7193 219.543 67.5903 218.954 67.3333 218.465C67.0753 217.986 66.7643 217.745 66.4013 217.745H64.3093V222.719H66.4013ZM68.8973 231.422C68.9093 231.468 68.9073 231.515 68.8913 231.566C68.8793 231.612 68.8583 231.634 68.8273 231.634H67.7843C67.7523 231.634 67.7313 231.608 67.7193 231.557L65.7513 224.75L65.7563 224.739H64.3093V231.456C64.3093 231.553 64.2843 231.6 64.2333 231.6H63.3193C63.2683 231.6 63.2433 231.553 63.2433 231.456V215.867C63.2433 215.772 63.2683 215.723 63.3193 215.723H66.4013C67.0733 215.723 67.6433 216.178 68.1123 217.089C68.5813 217.999 68.8053 219.092 68.7863 220.364C68.7663 221.393 68.5813 222.304 68.2293 223.096C67.8813 223.865 67.4463 224.369 66.9223 224.606L68.8973 231.422Z" stroke="white" stroke-width="0.25" stroke-miterlimit="4.78"/>
<path d="M30.6919 188.448C30.7429 188.448 30.7679 188.496 30.7679 188.592V204.202C30.7679 204.299 30.7429 204.348 30.6919 204.348H29.7719C29.7209 204.348 29.6959 204.299 29.6959 204.202V197.386H25.7759V204.181C25.7759 204.278 25.7509 204.325 25.6999 204.325H24.7799C24.7289 204.325 24.7039 204.278 24.7039 204.181V188.569C24.7039 188.475 24.7289 188.425 24.7799 188.425H25.6999C25.7509 188.425 25.7759 188.475 25.7759 188.569V195.355H29.6959V188.592C29.6959 188.496 29.7209 188.448 29.7719 188.448H30.6919ZM39.8199 188.448C39.8699 188.448 39.8959 188.496 39.8959 188.592V190.324C39.8959 190.421 39.8699 190.468 39.8199 190.468H35.3609V195.387H38.5889C38.6399 195.387 38.6649 195.437 38.6649 195.531V197.263C38.6649 197.36 38.6399 197.409 38.5889 197.409H35.3609V202.326H39.8199C39.8699 202.326 39.8959 202.376 39.8959 202.47V204.202C39.8959 204.299 39.8699 204.348 39.8199 204.348H34.3699C34.3199 204.348 34.2939 204.299 34.2939 204.202V188.592C34.2939 188.496 34.3199 188.448 34.3699 188.448H39.8199ZM45.9059 195.433C46.2689 195.433 46.5799 195.188 46.8379 194.699C47.0949 194.211 47.2239 193.625 47.2239 192.945C47.2239 192.257 47.0949 191.668 46.8379 191.179C46.5799 190.699 46.2689 190.459 45.9059 190.459H43.8139V195.433H45.9059ZM48.4019 204.136C48.4139 204.181 48.4119 204.229 48.3959 204.28C48.3849 204.325 48.3629 204.348 48.3319 204.348H47.2889C47.2569 204.348 47.2359 204.322 47.2239 204.27L45.2559 197.464L45.2609 197.453H43.8139V204.17C43.8139 204.267 43.7889 204.314 43.7379 204.314H42.8239C42.7729 204.314 42.7479 204.267 42.7479 204.17V188.581C42.7479 188.486 42.7729 188.437 42.8239 188.437H45.9059C46.5779 188.437 47.1479 188.892 47.6169 189.803C48.0859 190.713 48.3099 191.806 48.2909 193.077C48.2709 194.106 48.0859 195.018 47.7339 195.81C47.3859 196.579 46.9509 197.083 46.4269 197.32L48.4019 204.136ZM56.8669 188.448C56.9179 188.448 56.9439 188.496 56.9439 188.592V190.324C56.9439 190.421 56.9179 190.468 56.8669 190.468H52.4079V195.387H55.6369C55.6879 195.387 55.7129 195.437 55.7129 195.531V197.263C55.7129 197.36 55.6879 197.409 55.6369 197.409H52.4079V202.326H56.8669C56.9179 202.326 56.9439 202.376 56.9439 202.47V204.202C56.9439 204.299 56.9179 204.348 56.8669 204.348H51.4179C51.3669 204.348 51.3419 204.299 51.3419 204.202V188.592C51.3419 188.496 51.3669 188.448 51.4179 188.448H56.8669ZM69.0869 188.448C69.1379 188.448 69.1629 188.496 69.1629 188.592V190.324C69.1629 190.421 69.1379 190.468 69.0869 190.468H66.8899V204.202C66.8899 204.299 66.8649 204.348 66.8139 204.348H65.8999C65.8489 204.348 65.8239 204.299 65.8239 204.202V190.468H63.6209C63.5699 190.468 63.5439 190.421 63.5439 190.324V188.592C63.5439 188.496 63.5699 188.448 63.6209 188.448H69.0869ZM75.4489 202.315C76.3089 202.315 77.0449 201.739 77.6579 200.583C78.2679 199.429 78.5719 198.034 78.5719 196.397C78.5719 194.77 78.2679 193.375 77.6579 192.211C77.0449 191.057 76.3089 190.48 75.4489 190.48C74.5859 190.48 73.8499 191.057 73.2399 192.211C72.6309 193.375 72.3259 194.77 72.3259 196.397C72.3259 198.034 72.6309 199.429 73.2399 200.583C73.8499 201.739 74.5859 202.315 75.4489 202.315ZM75.4489 188.448C76.6049 188.448 77.5939 189.225 78.4139 190.779C79.2339 192.335 79.6449 194.207 79.6449 196.397C79.6449 198.59 79.2339 200.462 78.4139 202.016C77.5939 203.569 76.6049 204.348 75.4489 204.348C74.2929 204.348 73.3049 203.569 72.4839 202.016C71.6639 200.462 71.2539 198.59 71.2539 196.397C71.2539 194.207 71.6639 192.335 72.4839 190.779C73.3049 189.225 74.2929 188.448 75.4489 188.448Z" fill="white"/>
<path d="M30.6919 188.448C30.7429 188.448 30.7679 188.496 30.7679 188.592V204.202C30.7679 204.299 30.7429 204.348 30.6919 204.348H29.7719C29.7209 204.348 29.6959 204.299 29.6959 204.202V197.386H25.7759V204.181C25.7759 204.278 25.7509 204.325 25.6999 204.325H24.7799C24.7289 204.325 24.7039 204.278 24.7039 204.181V188.569C24.7039 188.475 24.7289 188.425 24.7799 188.425H25.6999C25.7509 188.425 25.7759 188.475 25.7759 188.569V195.355H29.6959V188.592C29.6959 188.496 29.7209 188.448 29.7719 188.448H30.6919ZM39.8199 188.448C39.8699 188.448 39.8959 188.496 39.8959 188.592V190.324C39.8959 190.421 39.8699 190.468 39.8199 190.468H35.3609V195.387H38.5889C38.6399 195.387 38.6649 195.437 38.6649 195.531V197.263C38.6649 197.36 38.6399 197.409 38.5889 197.409H35.3609V202.326H39.8199C39.8699 202.326 39.8959 202.376 39.8959 202.47V204.202C39.8959 204.299 39.8699 204.348 39.8199 204.348H34.3699C34.3199 204.348 34.2939 204.299 34.2939 204.202V188.592C34.2939 188.496 34.3199 188.448 34.3699 188.448H39.8199ZM45.9059 195.433C46.2689 195.433 46.5799 195.188 46.8379 194.699C47.0949 194.211 47.2239 193.625 47.2239 192.945C47.2239 192.257 47.0949 191.668 46.8379 191.179C46.5799 190.699 46.2689 190.459 45.9059 190.459H43.8139V195.433H45.9059ZM48.4019 204.136C48.4139 204.181 48.4119 204.229 48.3959 204.28C48.3849 204.325 48.3629 204.348 48.3319 204.348H47.2889C47.2569 204.348 47.2359 204.322 47.2239 204.27L45.2559 197.464L45.2609 197.453H43.8139V204.17C43.8139 204.267 43.7889 204.314 43.7379 204.314H42.8239C42.7729 204.314 42.7479 204.267 42.7479 204.17V188.581C42.7479 188.486 42.7729 188.437 42.8239 188.437H45.9059C46.5779 188.437 47.1479 188.892 47.6169 189.803C48.0859 190.713 48.3099 191.806 48.2909 193.077C48.2709 194.106 48.0859 195.018 47.7339 195.81C47.3859 196.579 46.9509 197.083 46.4269 197.32L48.4019 204.136ZM56.8669 188.448C56.9179 188.448 56.9439 188.496 56.9439 188.592V190.324C56.9439 190.421 56.9179 190.468 56.8669 190.468H52.4079V195.387H55.6369C55.6879 195.387 55.7129 195.437 55.7129 195.531V197.263C55.7129 197.36 55.6879 197.409 55.6369 197.409H52.4079V202.326H56.8669C56.9179 202.326 56.9439 202.376 56.9439 202.47V204.202C56.9439 204.299 56.9179 204.348 56.8669 204.348H51.4179C51.3669 204.348 51.3419 204.299 51.3419 204.202V188.592C51.3419 188.496 51.3669 188.448 51.4179 188.448H56.8669ZM69.0869 188.448C69.1379 188.448 69.1629 188.496 69.1629 188.592V190.324C69.1629 190.421 69.1379 190.468 69.0869 190.468H66.8899V204.202C66.8899 204.299 66.8649 204.348 66.8139 204.348H65.8999C65.8489 204.348 65.8239 204.299 65.8239 204.202V190.468H63.6209C63.5699 190.468 63.5439 190.421 63.5439 190.324V188.592C63.5439 188.496 63.5699 188.448 63.6209 188.448H69.0869ZM75.4489 202.315C76.3089 202.315 77.0449 201.739 77.6579 200.583C78.2679 199.429 78.5719 198.034 78.5719 196.397C78.5719 194.77 78.2679 193.375 77.6579 192.211C77.0449 191.057 76.3089 190.48 75.4489 190.48C74.5859 190.48 73.8499 191.057 73.2399 192.211C72.6309 193.375 72.3259 194.77 72.3259 196.397C72.3259 198.034 72.6309 199.429 73.2399 200.583C73.8499 201.739 74.5859 202.315 75.4489 202.315ZM75.4489 188.448C76.6049 188.448 77.5939 189.225 78.4139 190.779C79.2339 192.335 79.6449 194.207 79.6449 196.397C79.6449 198.59 79.2339 200.462 78.4139 202.016C77.5939 203.569 76.6049 204.348 75.4489 204.348C74.2929 204.348 73.3049 203.569 72.4839 202.016C71.6639 200.462 71.2539 198.59 71.2539 196.397C71.2539 194.207 71.6639 192.335 72.4839 190.779C73.3049 189.225 74.2929 188.448 75.4489 188.448Z" stroke="white" stroke-width="0.25" stroke-miterlimit="4.78"/>
<path d="M40.7364 175.573C40.7634 175.655 40.7564 175.721 40.7134 175.772C40.0214 176.632 39.2574 177.061 38.4224 177.061C37.8364 177.061 37.2754 176.839 36.7404 176.396C36.2244 175.965 35.7714 175.359 35.3814 174.575C34.5484 172.917 34.1664 170.944 34.2324 168.657C34.2914 166.688 34.6894 164.988 35.4274 163.56C36.1624 162.131 37.0484 161.339 38.0884 161.183C39.0414 161.043 39.9144 161.462 40.7074 162.438C40.7504 162.491 40.7574 162.557 40.7304 162.639L40.2154 164.071C40.1874 164.153 40.1524 164.166 40.1094 164.115C39.5234 163.397 38.8794 163.09 38.1754 163.194C37.3794 163.311 36.7014 163.933 36.1424 165.059C35.5884 166.184 35.3044 167.509 35.2934 169.034C35.2814 170.684 35.5844 172.098 36.2014 173.275C36.8144 174.451 37.5544 175.041 38.4224 175.041C39.0394 175.041 39.6034 174.726 40.1154 174.097C40.1584 174.044 40.1934 174.059 40.2204 174.141L40.7364 175.573ZM48.1354 175.029C48.1864 175.029 48.2114 175.077 48.2114 175.173V176.917C48.2114 177.013 48.1864 177.061 48.1354 177.061H43.4714C43.4204 177.061 43.3954 177.013 43.3954 176.917V161.295C43.3954 161.199 43.4204 161.151 43.4714 161.151H44.3914C44.4424 161.151 44.4674 161.199 44.4674 161.295V175.029H48.1354ZM51.9484 161.163C51.9994 161.163 52.0244 161.21 52.0244 161.307V176.917C52.0244 177.013 51.9994 177.061 51.9484 177.061H51.0284C50.9774 177.061 50.9524 177.013 50.9524 176.917V161.307C50.9524 161.21 50.9774 161.163 51.0284 161.163H51.9484ZM61.5154 175.573C61.5424 175.655 61.5354 175.721 61.4924 175.772C60.8004 176.632 60.0364 177.061 59.2014 177.061C58.6154 177.061 58.0544 176.839 57.5194 176.396C57.0034 175.965 56.5504 175.359 56.1604 174.575C55.3274 172.917 54.9454 170.944 55.0114 168.657C55.0704 166.688 55.4684 164.988 56.2064 163.56C56.9414 162.131 57.8274 161.339 58.8674 161.183C59.8204 161.043 60.6934 161.462 61.4864 162.438C61.5294 162.491 61.5364 162.557 61.5094 162.639L60.9944 164.071C60.9664 164.153 60.9314 164.166 60.8884 164.115C60.3024 163.397 59.6584 163.09 58.9544 163.194C58.1584 163.311 57.4804 163.933 56.9214 165.059C56.3674 166.184 56.0834 167.509 56.0724 169.034C56.0604 170.684 56.3634 172.098 56.9804 173.275C57.5934 174.451 58.3334 175.041 59.2014 175.041C59.8184 175.041 60.3824 174.726 60.8944 174.097C60.9374 174.044 60.9724 174.059 60.9994 174.141L61.5154 175.573ZM70.1504 176.816C70.1784 176.862 70.1834 176.913 70.1684 176.972C70.1564 177.032 70.1334 177.061 70.0984 177.061H68.7564C68.7324 177.061 68.7154 177.046 68.7034 177.017L65.2464 170.876V176.917C65.2464 177.013 65.2214 177.061 65.1704 177.061H64.2504C64.1994 177.061 64.1744 177.013 64.1744 176.917V161.295C64.1744 161.199 64.1994 161.151 64.2504 161.151H65.1704C65.2214 161.151 65.2464 161.199 65.2464 161.295V167.202L68.4224 161.206C68.4374 161.176 68.4554 161.163 68.4754 161.163H69.7754C69.8104 161.163 69.8344 161.191 69.8464 161.25C69.8614 161.31 69.8574 161.362 69.8344 161.405L65.7854 169.057L70.1504 176.816Z" fill="white"/>
<path d="M40.7364 175.573C40.7634 175.655 40.7564 175.721 40.7134 175.772C40.0214 176.632 39.2574 177.061 38.4224 177.061C37.8364 177.061 37.2754 176.839 36.7404 176.396C36.2244 175.965 35.7714 175.359 35.3814 174.575C34.5484 172.917 34.1664 170.944 34.2324 168.657C34.2914 166.688 34.6894 164.988 35.4274 163.56C36.1624 162.131 37.0484 161.339 38.0884 161.183C39.0414 161.043 39.9144 161.462 40.7074 162.438C40.7504 162.491 40.7574 162.557 40.7304 162.639L40.2154 164.071C40.1874 164.153 40.1524 164.166 40.1094 164.115C39.5234 163.397 38.8794 163.09 38.1754 163.194C37.3794 163.311 36.7014 163.933 36.1424 165.059C35.5884 166.184 35.3044 167.509 35.2934 169.034C35.2814 170.684 35.5844 172.098 36.2014 173.275C36.8144 174.451 37.5544 175.041 38.4224 175.041C39.0394 175.041 39.6034 174.726 40.1154 174.097C40.1584 174.044 40.1934 174.059 40.2204 174.141L40.7364 175.573ZM48.1354 175.029C48.1864 175.029 48.2114 175.077 48.2114 175.173V176.917C48.2114 177.013 48.1864 177.061 48.1354 177.061H43.4714C43.4204 177.061 43.3954 177.013 43.3954 176.917V161.295C43.3954 161.199 43.4204 161.151 43.4714 161.151H44.3914C44.4424 161.151 44.4674 161.199 44.4674 161.295V175.029H48.1354ZM51.9484 161.163C51.9994 161.163 52.0244 161.21 52.0244 161.307V176.917C52.0244 177.013 51.9994 177.061 51.9484 177.061H51.0284C50.9774 177.061 50.9524 177.013 50.9524 176.917V161.307C50.9524 161.21 50.9774 161.163 51.0284 161.163H51.9484ZM61.5154 175.573C61.5424 175.655 61.5354 175.721 61.4924 175.772C60.8004 176.632 60.0364 177.061 59.2014 177.061C58.6154 177.061 58.0544 176.839 57.5194 176.396C57.0034 175.965 56.5504 175.359 56.1604 174.575C55.3274 172.917 54.9454 170.944 55.0114 168.657C55.0704 166.688 55.4684 164.988 56.2064 163.56C56.9414 162.131 57.8274 161.339 58.8674 161.183C59.8204 161.043 60.6934 161.462 61.4864 162.438C61.5294 162.491 61.5364 162.557 61.5094 162.639L60.9944 164.071C60.9664 164.153 60.9314 164.166 60.8884 164.115C60.3024 163.397 59.6584 163.09 58.9544 163.194C58.1584 163.311 57.4804 163.933 56.9214 165.059C56.3674 166.184 56.0834 167.509 56.0724 169.034C56.0604 170.684 56.3634 172.098 56.9804 173.275C57.5934 174.451 58.3334 175.041 59.2014 175.041C59.8184 175.041 60.3824 174.726 60.8944 174.097C60.9374 174.044 60.9724 174.059 60.9994 174.141L61.5154 175.573ZM70.1504 176.816C70.1784 176.862 70.1834 176.913 70.1684 176.972C70.1564 177.032 70.1334 177.061 70.0984 177.061H68.7564C68.7324 177.061 68.7154 177.046 68.7034 177.017L65.2464 170.876V176.917C65.2464 177.013 65.2214 177.061 65.1704 177.061H64.2504C64.1994 177.061 64.1744 177.013 64.1744 176.917V161.295C64.1744 161.199 64.1994 161.151 64.2504 161.151H65.1704C65.2214 161.151 65.2464 161.199 65.2464 161.295V167.202L68.4224 161.206C68.4374 161.176 68.4554 161.163 68.4754 161.163H69.7754C69.8104 161.163 69.8344 161.191 69.8464 161.25C69.8614 161.31 69.8574 161.362 69.8344 161.405L65.7854 169.057L70.1504 176.816Z" stroke="white" stroke-width="0.25" stroke-miterlimit="4.78"/>
<path d="M43.4963 52.5773C46.6153 52.1964 50.2113 52.4579 53.5103 52.4579C56.8443 52.4579 60.4483 52.0334 62.9563 53.2935C65.4363 54.5385 67.6163 57.0909 69.0653 60.4543C70.4353 63.632 71.6663 67.8803 71.8363 73.9382C72.0183 80.4093 71.8363 85.6941 71.8363 92.7942C71.8363 99.1648 72.0973 105.884 71.4583 110.813C70.2723 119.967 66.1873 126.83 60.5003 127.52C57.1703 127.923 53.9393 127.639 50.6123 127.639C47.5333 127.639 43.7343 128.211 41.1033 126.923C36.2993 124.573 32.5883 117.227 32.2233 106.278C32.0313 100.52 32.1603 93.5483 32.1603 87.5435C32.1603 81.2695 31.9213 74.1732 32.5383 69.5232C33.4963 62.2942 35.9393 57.2178 39.4023 54.3679C40.6533 53.3371 41.9493 52.7668 43.4963 52.5773Z" fill="white"/>
<path d="M65.074 110.801H38.9561V69.3355H65.074V110.801Z" fill="#003882"/>
<path d="M36.573 65.0442H67.364V106.565C67.364 109.098 67.672 115.802 67.175 116.587C66.814 117.157 66.217 116.587 64.909 116.587C52.358 116.587 48.148 116.881 36.573 116.229V65.0442ZM39.973 79.7182C39.393 83.129 39.275 98.3467 40.162 101.913C41.58 107.618 46.135 106.209 51.496 106.209C57.326 106.209 62.353 107.793 63.587 101.197C64.326 97.242 64.077 81.9901 63.587 79.36C62.356 72.7583 57.214 74.35 52.441 74.35C49.171 74.35 45.485 73.7247 43.184 74.7081C41.332 75.4983 40.297 77.81 39.973 79.7182Z" fill="white"/>
<path d="M49.6072 84.7305C51.7192 86.6121 52.8732 87.6846 55.4632 90.1006C53.5912 92.1603 51.6072 94.0078 49.6072 95.8269V84.7305Z" fill="white"/>
<path d="M0 0.298611V330L14.926 165.494L0 0.298611Z" fill="#C7D886"/>
</svg>
