<svg width="94" height="330" viewBox="0 0 94 330" fill="none" xmlns="http://www.w3.org/2000/svg">
<path d="M0.708496 329.237H93.6845V0.000617804H0.708496V329.237Z" fill="#083783"/>
<path d="M38.8413 243.691C38.8923 243.691 38.9173 243.739 38.9173 243.835V259.445C38.9173 259.542 38.8923 259.591 38.8413 259.591H37.9743C37.9233 259.591 37.8983 259.542 37.8983 259.445V247.667L35.5363 252.662C35.4973 252.736 35.4603 252.736 35.4253 252.662L33.0703 247.678V259.445C33.0703 259.542 33.0443 259.591 32.9933 259.591H32.1263C32.0753 259.591 32.0503 259.542 32.0503 259.445V243.835C32.0503 243.739 32.0753 243.691 32.1263 243.691H32.4663C32.5253 243.691 32.5753 243.735 32.6183 243.824L35.4783 249.888L38.3433 243.824C38.3863 243.735 38.4373 243.691 38.4953 243.691H38.8413ZM46.0353 257.558C46.8943 257.558 47.6313 256.982 48.2443 255.826C48.8533 254.672 49.1583 253.277 49.1583 251.64C49.1583 250.013 48.8533 248.618 48.2443 247.455C47.6313 246.301 46.8943 245.723 46.0353 245.723C45.1723 245.723 44.4353 246.301 43.8263 247.455C43.2173 248.618 42.9123 250.013 42.9123 251.64C42.9123 253.277 43.2173 254.672 43.8263 255.826C44.4353 256.982 45.1723 257.558 46.0353 257.558ZM46.0353 243.691C47.1913 243.691 48.1793 244.468 49.0003 246.022C49.8203 247.578 50.2303 249.45 50.2303 251.64C50.2303 253.833 49.8203 255.705 49.0003 257.259C48.1793 258.812 47.1913 259.591 46.0353 259.591C44.8793 259.591 43.8903 258.812 43.0703 257.259C42.2503 255.705 41.8403 253.833 41.8403 251.64C41.8403 249.45 42.2503 247.578 43.0703 246.022C43.8903 244.468 44.8793 243.691 46.0353 243.691ZM56.5513 250.676C56.9143 250.676 57.2253 250.431 57.4833 249.943C57.7413 249.454 57.8693 248.868 57.8693 248.188C57.8693 247.5 57.7413 246.911 57.4833 246.422C57.2253 245.942 56.9143 245.702 56.5513 245.702H54.4593V250.676H56.5513ZM59.0473 259.379C59.0593 259.424 59.0573 259.472 59.0413 259.523C59.0303 259.568 59.0083 259.591 58.9773 259.591H57.9343C57.9033 259.591 57.8813 259.565 57.8693 259.514L55.9013 252.707L55.9073 252.696H54.4593V259.413C54.4593 259.51 54.4343 259.557 54.3833 259.557H53.4693C53.4183 259.557 53.3933 259.51 53.3933 259.413V243.824C53.3933 243.729 53.4183 243.68 53.4693 243.68H56.5513C57.2233 243.68 57.7933 244.135 58.2623 245.046C58.7313 245.956 58.9553 247.049 58.9363 248.321C58.9163 249.349 58.7313 250.261 58.3793 251.053C58.0313 251.822 57.5963 252.326 57.0733 252.563L59.0473 259.379ZM67.5133 243.691C67.5633 243.691 67.5893 243.739 67.5893 243.835V245.567C67.5893 245.664 67.5633 245.711 67.5133 245.711H63.0543V250.63H66.2823C66.3333 250.63 66.3583 250.68 66.3583 250.774V252.506C66.3583 252.603 66.3333 252.652 66.2823 252.652H63.0543V257.569H67.5133C67.5633 257.569 67.5893 257.619 67.5893 257.713V259.445C67.5893 259.542 67.5633 259.591 67.5133 259.591H62.0633C62.0133 259.591 61.9873 259.542 61.9873 259.445V243.835C61.9873 243.739 62.0133 243.691 62.0633 243.691H67.5133ZM71.1493 255.476H71.6893L71.8573 248.313V243.219H70.9813V248.313L71.1493 255.476ZM71.8573 257.59H70.9813V259.591H71.8573V257.59Z" fill="white"/>
<path d="M38.8413 243.691C38.8923 243.691 38.9173 243.739 38.9173 243.835V259.445C38.9173 259.542 38.8923 259.591 38.8413 259.591H37.9743C37.9233 259.591 37.8983 259.542 37.8983 259.445V247.667L35.5363 252.662C35.4973 252.736 35.4603 252.736 35.4253 252.662L33.0703 247.678V259.445C33.0703 259.542 33.0443 259.591 32.9933 259.591H32.1263C32.0753 259.591 32.0503 259.542 32.0503 259.445V243.835C32.0503 243.739 32.0753 243.691 32.1263 243.691H32.4663C32.5253 243.691 32.5753 243.735 32.6183 243.824L35.4783 249.888L38.3433 243.824C38.3863 243.735 38.4373 243.691 38.4953 243.691H38.8413ZM46.0353 257.558C46.8943 257.558 47.6313 256.982 48.2443 255.826C48.8533 254.672 49.1583 253.277 49.1583 251.64C49.1583 250.013 48.8533 248.618 48.2443 247.455C47.6313 246.301 46.8943 245.723 46.0353 245.723C45.1723 245.723 44.4353 246.301 43.8263 247.455C43.2173 248.618 42.9123 250.013 42.9123 251.64C42.9123 253.277 43.2173 254.672 43.8263 255.826C44.4353 256.982 45.1723 257.558 46.0353 257.558ZM46.0353 243.691C47.1913 243.691 48.1793 244.468 49.0003 246.022C49.8203 247.578 50.2303 249.45 50.2303 251.64C50.2303 253.833 49.8203 255.705 49.0003 257.259C48.1793 258.812 47.1913 259.591 46.0353 259.591C44.8793 259.591 43.8903 258.812 43.0703 257.259C42.2503 255.705 41.8403 253.833 41.8403 251.64C41.8403 249.45 42.2503 247.578 43.0703 246.022C43.8903 244.468 44.8793 243.691 46.0353 243.691ZM56.5513 250.676C56.9143 250.676 57.2253 250.431 57.4833 249.943C57.7413 249.454 57.8693 248.868 57.8693 248.188C57.8693 247.5 57.7413 246.911 57.4833 246.422C57.2253 245.942 56.9143 245.702 56.5513 245.702H54.4593V250.676H56.5513ZM59.0473 259.379C59.0593 259.424 59.0573 259.472 59.0413 259.523C59.0303 259.568 59.0083 259.591 58.9773 259.591H57.9343C57.9033 259.591 57.8813 259.565 57.8693 259.514L55.9013 252.707L55.9073 252.696H54.4593V259.413C54.4593 259.51 54.4343 259.557 54.3833 259.557H53.4693C53.4183 259.557 53.3933 259.51 53.3933 259.413V243.824C53.3933 243.729 53.4183 243.68 53.4693 243.68H56.5513C57.2233 243.68 57.7933 244.135 58.2623 245.046C58.7313 245.956 58.9553 247.049 58.9363 248.321C58.9163 249.349 58.7313 250.261 58.3793 251.053C58.0313 251.822 57.5963 252.326 57.0733 252.563L59.0473 259.379ZM67.5133 243.691C67.5633 243.691 67.5893 243.739 67.5893 243.835V245.567C67.5893 245.664 67.5633 245.711 67.5133 245.711H63.0543V250.63H66.2823C66.3333 250.63 66.3583 250.68 66.3583 250.774V252.506C66.3583 252.603 66.3333 252.652 66.2823 252.652H63.0543V257.569H67.5133C67.5633 257.569 67.5893 257.619 67.5893 257.713V259.445C67.5893 259.542 67.5633 259.591 67.5133 259.591H62.0633C62.0133 259.591 61.9873 259.542 61.9873 259.445V243.835C61.9873 243.739 62.0133 243.691 62.0633 243.691H67.5133ZM71.1493 255.476H71.6893L71.8573 248.313V243.219H70.9813V248.313L71.1493 255.476ZM71.8573 257.59H70.9813V259.591H71.8573V257.59Z" stroke="white" stroke-width="0.25" stroke-miterlimit="4.78"/>
<path d="M41.8698 216.405C41.9208 216.405 41.9458 216.452 41.9458 216.549V232.159C41.9458 232.256 41.9208 232.305 41.8698 232.305H40.9498C40.8988 232.305 40.8738 232.256 40.8738 232.159V225.343H36.9538V232.138C36.9538 232.235 36.9288 232.282 36.8778 232.282H35.9578C35.9068 232.282 35.8818 232.235 35.8818 232.138V216.526C35.8818 216.432 35.9068 216.382 35.9578 216.382H36.8778C36.9288 216.382 36.9538 216.432 36.9538 216.526V223.312H40.8738V216.549C40.8738 216.452 40.8988 216.405 40.9498 216.405H41.8698ZM50.9978 216.405C51.0478 216.405 51.0738 216.452 51.0738 216.549V218.281C51.0738 218.378 51.0478 218.425 50.9978 218.425H46.5388V223.344H49.7668C49.8178 223.344 49.8428 223.393 49.8428 223.488V225.22C49.8428 225.317 49.8178 225.366 49.7668 225.366H46.5388V230.283H50.9978C51.0478 230.283 51.0738 230.332 51.0738 230.427V232.159C51.0738 232.256 51.0478 232.305 50.9978 232.305H45.5478C45.4968 232.305 45.4718 232.256 45.4718 232.159V216.549C45.4718 216.452 45.4968 216.405 45.5478 216.405H50.9978ZM57.9798 224.155L56.9258 219.325L55.8648 224.155H57.9798ZM57.3298 216.371C57.3648 216.371 57.3888 216.401 57.3998 216.46L60.8278 232.104C60.8398 232.15 60.8378 232.193 60.8218 232.237C60.8068 232.282 60.7848 232.305 60.7578 232.305H59.8198C59.7848 232.305 59.7618 232.275 59.7498 232.216L58.4078 226.086H55.4378L54.0958 232.216C54.0838 232.275 54.0608 232.305 54.0248 232.305H53.0878C53.0598 232.305 53.0388 232.282 53.0228 232.237C53.0078 232.193 53.0058 232.15 53.0178 232.104L56.4448 216.46C56.4608 216.401 56.4838 216.371 56.5158 216.371H57.3298ZM66.6098 223.39C66.9728 223.39 67.2838 223.145 67.5418 222.656C67.7988 222.167 67.9278 221.582 67.9278 220.902C67.9278 220.214 67.7988 219.624 67.5418 219.136C67.2838 218.656 66.9728 218.415 66.6098 218.415H64.5178V223.39H66.6098ZM69.1058 232.093C69.1178 232.138 69.1158 232.186 69.0998 232.237C69.0878 232.282 69.0668 232.305 69.0358 232.305H67.9928C67.9608 232.305 67.9398 232.278 67.9278 232.227L65.9598 225.421L65.9648 225.409H64.5178V232.127C64.5178 232.223 64.4928 232.271 64.4418 232.271H63.5278C63.4768 232.271 63.4518 232.223 63.4518 232.127V216.538C63.4518 216.443 63.4768 216.394 63.5278 216.394H66.6098C67.2818 216.394 67.8518 216.848 68.3208 217.76C68.7898 218.669 69.0138 219.763 68.9948 221.034C68.9748 222.063 68.7898 222.975 68.4378 223.767C68.0898 224.536 67.6548 225.04 67.1308 225.277L69.1058 232.093Z" fill="white"/>
<path d="M41.8698 216.405C41.9208 216.405 41.9458 216.452 41.9458 216.549V232.159C41.9458 232.256 41.9208 232.305 41.8698 232.305H40.9498C40.8988 232.305 40.8738 232.256 40.8738 232.159V225.343H36.9538V232.138C36.9538 232.235 36.9288 232.282 36.8778 232.282H35.9578C35.9068 232.282 35.8818 232.235 35.8818 232.138V216.526C35.8818 216.432 35.9068 216.382 35.9578 216.382H36.8778C36.9288 216.382 36.9538 216.432 36.9538 216.526V223.312H40.8738V216.549C40.8738 216.452 40.8988 216.405 40.9498 216.405H41.8698ZM50.9978 216.405C51.0478 216.405 51.0738 216.452 51.0738 216.549V218.281C51.0738 218.378 51.0478 218.425 50.9978 218.425H46.5388V223.344H49.7668C49.8178 223.344 49.8428 223.393 49.8428 223.488V225.22C49.8428 225.317 49.8178 225.366 49.7668 225.366H46.5388V230.283H50.9978C51.0478 230.283 51.0738 230.332 51.0738 230.427V232.159C51.0738 232.256 51.0478 232.305 50.9978 232.305H45.5478C45.4968 232.305 45.4718 232.256 45.4718 232.159V216.549C45.4718 216.452 45.4968 216.405 45.5478 216.405H50.9978ZM57.9798 224.155L56.9258 219.325L55.8648 224.155H57.9798ZM57.3298 216.371C57.3648 216.371 57.3888 216.401 57.3998 216.46L60.8278 232.104C60.8398 232.15 60.8378 232.193 60.8218 232.237C60.8068 232.282 60.7848 232.305 60.7578 232.305H59.8198C59.7848 232.305 59.7618 232.275 59.7498 232.216L58.4078 226.086H55.4378L54.0958 232.216C54.0838 232.275 54.0608 232.305 54.0248 232.305H53.0878C53.0598 232.305 53.0388 232.282 53.0228 232.237C53.0078 232.193 53.0058 232.15 53.0178 232.104L56.4448 216.46C56.4608 216.401 56.4838 216.371 56.5158 216.371H57.3298ZM66.6098 223.39C66.9728 223.39 67.2838 223.145 67.5418 222.656C67.7988 222.167 67.9278 221.582 67.9278 220.902C67.9278 220.214 67.7988 219.624 67.5418 219.136C67.2838 218.656 66.9728 218.415 66.6098 218.415H64.5178V223.39H66.6098ZM69.1058 232.093C69.1178 232.138 69.1158 232.186 69.0998 232.237C69.0878 232.282 69.0668 232.305 69.0358 232.305H67.9928C67.9608 232.305 67.9398 232.278 67.9278 232.227L65.9598 225.421L65.9648 225.409H64.5178V232.127C64.5178 232.223 64.4928 232.271 64.4418 232.271H63.5278C63.4768 232.271 63.4518 232.223 63.4518 232.127V216.538C63.4518 216.443 63.4768 216.394 63.5278 216.394H66.6098C67.2818 216.394 67.8518 216.848 68.3208 217.76C68.7898 218.669 69.0138 219.763 68.9948 221.034C68.9748 222.063 68.7898 222.975 68.4378 223.767C68.0898 224.536 67.6548 225.04 67.1308 225.277L69.1058 232.093Z" stroke="white" stroke-width="0.25" stroke-miterlimit="4.78"/>
<path d="M30.9004 189.119C30.9514 189.119 30.9764 189.166 30.9764 189.263V204.873C30.9764 204.969 30.9514 205.019 30.9004 205.019H29.9804C29.9294 205.019 29.9044 204.969 29.9044 204.873V198.057H25.9844V204.852C25.9844 204.949 25.9594 204.996 25.9084 204.996H24.9884C24.9374 204.996 24.9124 204.949 24.9124 204.852V189.24C24.9124 189.145 24.9374 189.096 24.9884 189.096H25.9084C25.9594 189.096 25.9844 189.145 25.9844 189.24V196.026H29.9044V189.263C29.9044 189.166 29.9294 189.119 29.9804 189.119H30.9004ZM40.0284 189.119C40.0784 189.119 40.1044 189.166 40.1044 189.263V190.995C40.1044 191.091 40.0784 191.139 40.0284 191.139H35.5694V196.058H38.7974C38.8484 196.058 38.8734 196.107 38.8734 196.202V197.934C38.8734 198.03 38.8484 198.08 38.7974 198.08H35.5694V202.997H40.0284C40.0784 202.997 40.1044 203.046 40.1044 203.141V204.873C40.1044 204.969 40.0784 205.019 40.0284 205.019H34.5784C34.5284 205.019 34.5024 204.969 34.5024 204.873V189.263C34.5024 189.166 34.5284 189.119 34.5784 189.119H40.0284ZM46.1144 196.103C46.4774 196.103 46.7884 195.859 47.0464 195.37C47.3034 194.881 47.4324 194.296 47.4324 193.615C47.4324 192.928 47.3034 192.338 47.0464 191.849C46.7884 191.37 46.4774 191.129 46.1144 191.129H44.0224V196.103H46.1144ZM48.6104 204.806C48.6224 204.852 48.6204 204.899 48.6044 204.95C48.5934 204.996 48.5714 205.019 48.5404 205.019H47.4974C47.4654 205.019 47.4444 204.992 47.4324 204.941L45.4644 198.135L45.4694 198.123H44.0224V204.841C44.0224 204.937 43.9974 204.985 43.9464 204.985H43.0324C42.9814 204.985 42.9564 204.937 42.9564 204.841V189.251C42.9564 189.157 42.9814 189.107 43.0324 189.107H46.1144C46.7864 189.107 47.3564 189.562 47.8254 190.474C48.2944 191.383 48.5184 192.477 48.4994 193.748C48.4794 194.777 48.2944 195.688 47.9424 196.48C47.5944 197.25 47.1594 197.754 46.6354 197.991L48.6104 204.806ZM57.0754 189.119C57.1264 189.119 57.1524 189.166 57.1524 189.263V190.995C57.1524 191.091 57.1264 191.139 57.0754 191.139H52.6164V196.058H55.8454C55.8964 196.058 55.9214 196.107 55.9214 196.202V197.934C55.9214 198.03 55.8964 198.08 55.8454 198.08H52.6164V202.997H57.0754C57.1264 202.997 57.1524 203.046 57.1524 203.141V204.873C57.1524 204.969 57.1264 205.019 57.0754 205.019H51.6264C51.5754 205.019 51.5504 204.969 51.5504 204.873V189.263C51.5504 189.166 51.5754 189.119 51.6264 189.119H57.0754ZM69.2954 189.119C69.3464 189.119 69.3714 189.166 69.3714 189.263V190.995C69.3714 191.091 69.3464 191.139 69.2954 191.139H67.0984V204.873C67.0984 204.969 67.0734 205.019 67.0224 205.019H66.1084C66.0574 205.019 66.0324 204.969 66.0324 204.873V191.139H63.8294C63.7784 191.139 63.7524 191.091 63.7524 190.995V189.263C63.7524 189.166 63.7784 189.119 63.8294 189.119H69.2954ZM75.6574 202.986C76.5174 202.986 77.2534 202.409 77.8664 201.254C78.4764 200.1 78.7804 198.705 78.7804 197.068C78.7804 195.44 78.4764 194.045 77.8664 192.882C77.2534 191.728 76.5174 191.15 75.6574 191.15C74.7944 191.15 74.0584 191.728 73.4484 192.882C72.8394 194.045 72.5344 195.44 72.5344 197.068C72.5344 198.705 72.8394 200.1 73.4484 201.254C74.0584 202.409 74.7944 202.986 75.6574 202.986ZM75.6574 189.119C76.8134 189.119 77.8024 189.896 78.6224 191.45C79.4424 193.005 79.8534 194.877 79.8534 197.068C79.8534 199.26 79.4424 201.132 78.6224 202.686C77.8024 204.24 76.8134 205.019 75.6574 205.019C74.5014 205.019 73.5134 204.24 72.6924 202.686C71.8724 201.132 71.4624 199.26 71.4624 197.068C71.4624 194.877 71.8724 193.005 72.6924 191.45C73.5134 189.896 74.5014 189.119 75.6574 189.119Z" fill="white"/>
<path d="M30.9004 189.119C30.9514 189.119 30.9764 189.166 30.9764 189.263V204.873C30.9764 204.969 30.9514 205.019 30.9004 205.019H29.9804C29.9294 205.019 29.9044 204.969 29.9044 204.873V198.057H25.9844V204.852C25.9844 204.949 25.9594 204.996 25.9084 204.996H24.9884C24.9374 204.996 24.9124 204.949 24.9124 204.852V189.24C24.9124 189.145 24.9374 189.096 24.9884 189.096H25.9084C25.9594 189.096 25.9844 189.145 25.9844 189.24V196.026H29.9044V189.263C29.9044 189.166 29.9294 189.119 29.9804 189.119H30.9004ZM40.0284 189.119C40.0784 189.119 40.1044 189.166 40.1044 189.263V190.995C40.1044 191.091 40.0784 191.139 40.0284 191.139H35.5694V196.058H38.7974C38.8484 196.058 38.8734 196.107 38.8734 196.202V197.934C38.8734 198.03 38.8484 198.08 38.7974 198.08H35.5694V202.997H40.0284C40.0784 202.997 40.1044 203.046 40.1044 203.141V204.873C40.1044 204.969 40.0784 205.019 40.0284 205.019H34.5784C34.5284 205.019 34.5024 204.969 34.5024 204.873V189.263C34.5024 189.166 34.5284 189.119 34.5784 189.119H40.0284ZM46.1144 196.103C46.4774 196.103 46.7884 195.859 47.0464 195.37C47.3034 194.881 47.4324 194.296 47.4324 193.615C47.4324 192.928 47.3034 192.338 47.0464 191.849C46.7884 191.37 46.4774 191.129 46.1144 191.129H44.0224V196.103H46.1144ZM48.6104 204.806C48.6224 204.852 48.6204 204.899 48.6044 204.95C48.5934 204.996 48.5714 205.019 48.5404 205.019H47.4974C47.4654 205.019 47.4444 204.992 47.4324 204.941L45.4644 198.135L45.4694 198.123H44.0224V204.841C44.0224 204.937 43.9974 204.985 43.9464 204.985H43.0324C42.9814 204.985 42.9564 204.937 42.9564 204.841V189.251C42.9564 189.157 42.9814 189.107 43.0324 189.107H46.1144C46.7864 189.107 47.3564 189.562 47.8254 190.474C48.2944 191.383 48.5184 192.477 48.4994 193.748C48.4794 194.777 48.2944 195.688 47.9424 196.48C47.5944 197.25 47.1594 197.754 46.6354 197.991L48.6104 204.806ZM57.0754 189.119C57.1264 189.119 57.1524 189.166 57.1524 189.263V190.995C57.1524 191.091 57.1264 191.139 57.0754 191.139H52.6164V196.058H55.8454C55.8964 196.058 55.9214 196.107 55.9214 196.202V197.934C55.9214 198.03 55.8964 198.08 55.8454 198.08H52.6164V202.997H57.0754C57.1264 202.997 57.1524 203.046 57.1524 203.141V204.873C57.1524 204.969 57.1264 205.019 57.0754 205.019H51.6264C51.5754 205.019 51.5504 204.969 51.5504 204.873V189.263C51.5504 189.166 51.5754 189.119 51.6264 189.119H57.0754ZM69.2954 189.119C69.3464 189.119 69.3714 189.166 69.3714 189.263V190.995C69.3714 191.091 69.3464 191.139 69.2954 191.139H67.0984V204.873C67.0984 204.969 67.0734 205.019 67.0224 205.019H66.1084C66.0574 205.019 66.0324 204.969 66.0324 204.873V191.139H63.8294C63.7784 191.139 63.7524 191.091 63.7524 190.995V189.263C63.7524 189.166 63.7784 189.119 63.8294 189.119H69.2954ZM75.6574 202.986C76.5174 202.986 77.2534 202.409 77.8664 201.254C78.4764 200.1 78.7804 198.705 78.7804 197.068C78.7804 195.44 78.4764 194.045 77.8664 192.882C77.2534 191.728 76.5174 191.15 75.6574 191.15C74.7944 191.15 74.0584 191.728 73.4484 192.882C72.8394 194.045 72.5344 195.44 72.5344 197.068C72.5344 198.705 72.8394 200.1 73.4484 201.254C74.0584 202.409 74.7944 202.986 75.6574 202.986ZM75.6574 189.119C76.8134 189.119 77.8024 189.896 78.6224 191.45C79.4424 193.005 79.8534 194.877 79.8534 197.068C79.8534 199.26 79.4424 201.132 78.6224 202.686C77.8024 204.24 76.8134 205.019 75.6574 205.019C74.5014 205.019 73.5134 204.24 72.6924 202.686C71.8724 201.132 71.4624 199.26 71.4624 197.068C71.4624 194.877 71.8724 193.005 72.6924 191.45C73.5134 189.896 74.5014 189.119 75.6574 189.119Z" stroke="white" stroke-width="0.25" stroke-miterlimit="4.78"/>
<path d="M40.9449 176.244C40.9719 176.325 40.9649 176.392 40.9219 176.443C40.2299 177.303 39.4659 177.731 38.6309 177.731C38.0449 177.731 37.4839 177.51 36.9489 177.066C36.4329 176.636 35.9799 176.03 35.5899 175.245C34.7569 173.587 34.3749 171.615 34.4409 169.328C34.4999 167.359 34.8979 165.659 35.6359 164.23C36.3709 162.802 37.2569 162.01 38.2969 161.854C39.2499 161.714 40.1229 162.133 40.9159 163.109C40.9589 163.162 40.9659 163.228 40.9389 163.31L40.4239 164.742C40.3959 164.824 40.3609 164.839 40.3179 164.786C39.7319 164.068 39.0879 163.761 38.3839 163.865C37.5879 163.982 36.9099 164.604 36.3509 165.729C35.7969 166.855 35.5129 168.179 35.5019 169.705C35.4899 171.355 35.7929 172.769 36.4099 173.945C37.0229 175.122 37.7629 175.712 38.6309 175.712C39.2479 175.712 39.8119 175.397 40.3239 174.768C40.3669 174.715 40.4019 174.73 40.4289 174.811L40.9449 176.244ZM48.3439 175.7C48.3949 175.7 48.4199 175.748 48.4199 175.844V177.587C48.4199 177.684 48.3949 177.731 48.3439 177.731H43.6799C43.6289 177.731 43.6039 177.684 43.6039 177.587V161.966C43.6039 161.869 43.6289 161.822 43.6799 161.822H44.5999C44.6509 161.822 44.6759 161.869 44.6759 161.966V175.7H48.3439ZM52.1569 161.833C52.2079 161.833 52.2329 161.881 52.2329 161.977V177.587C52.2329 177.684 52.2079 177.731 52.1569 177.731H51.2369C51.1859 177.731 51.1609 177.684 51.1609 177.587V161.977C51.1609 161.881 51.1859 161.833 51.2369 161.833H52.1569ZM61.7239 176.244C61.7509 176.325 61.7439 176.392 61.7009 176.443C61.0089 177.303 60.2449 177.731 59.4099 177.731C58.8239 177.731 58.2629 177.51 57.7279 177.066C57.2119 176.636 56.7589 176.03 56.3689 175.245C55.5359 173.587 55.1539 171.615 55.2199 169.328C55.2789 167.359 55.6769 165.659 56.4149 164.23C57.1499 162.802 58.0359 162.01 59.0759 161.854C60.0289 161.714 60.9019 162.133 61.6949 163.109C61.7379 163.162 61.7449 163.228 61.7179 163.31L61.2029 164.742C61.1749 164.824 61.1399 164.839 61.0969 164.786C60.5109 164.068 59.8669 163.761 59.1629 163.865C58.3669 163.982 57.6889 164.604 57.1299 165.729C56.5759 166.855 56.2919 168.179 56.2809 169.705C56.2689 171.355 56.5719 172.769 57.1889 173.945C57.8019 175.122 58.5419 175.712 59.4099 175.712C60.0269 175.712 60.5909 175.397 61.1029 174.768C61.1459 174.715 61.1809 174.73 61.2079 174.811L61.7239 176.244ZM70.3589 177.487C70.3869 177.532 70.3919 177.584 70.3769 177.642C70.3649 177.703 70.3419 177.731 70.3069 177.731H68.9649C68.9409 177.731 68.9239 177.716 68.9119 177.688L65.4549 171.547V177.587C65.4549 177.684 65.4299 177.731 65.3789 177.731H64.4589C64.4079 177.731 64.3829 177.684 64.3829 177.587V161.966C64.3829 161.869 64.4079 161.822 64.4589 161.822H65.3789C65.4299 161.822 65.4549 161.869 65.4549 161.966V167.872L68.6309 161.877C68.6459 161.847 68.6639 161.833 68.6839 161.833H69.9839C70.0189 161.833 70.0429 161.862 70.0549 161.921C70.0699 161.981 70.0659 162.032 70.0429 162.076L65.9939 169.727L70.3589 177.487Z" fill="white"/>
<path d="M40.9449 176.244C40.9719 176.325 40.9649 176.392 40.9219 176.443C40.2299 177.303 39.4659 177.731 38.6309 177.731C38.0449 177.731 37.4839 177.51 36.9489 177.066C36.4329 176.636 35.9799 176.03 35.5899 175.245C34.7569 173.587 34.3749 171.615 34.4409 169.328C34.4999 167.359 34.8979 165.659 35.6359 164.23C36.3709 162.802 37.2569 162.01 38.2969 161.854C39.2499 161.714 40.1229 162.133 40.9159 163.109C40.9589 163.162 40.9659 163.228 40.9389 163.31L40.4239 164.742C40.3959 164.824 40.3609 164.839 40.3179 164.786C39.7319 164.068 39.0879 163.761 38.3839 163.865C37.5879 163.982 36.9099 164.604 36.3509 165.729C35.7969 166.855 35.5129 168.179 35.5019 169.705C35.4899 171.355 35.7929 172.769 36.4099 173.945C37.0229 175.122 37.7629 175.712 38.6309 175.712C39.2479 175.712 39.8119 175.397 40.3239 174.768C40.3669 174.715 40.4019 174.73 40.4289 174.811L40.9449 176.244ZM48.3439 175.7C48.3949 175.7 48.4199 175.748 48.4199 175.844V177.587C48.4199 177.684 48.3949 177.731 48.3439 177.731H43.6799C43.6289 177.731 43.6039 177.684 43.6039 177.587V161.966C43.6039 161.869 43.6289 161.822 43.6799 161.822H44.5999C44.6509 161.822 44.6759 161.869 44.6759 161.966V175.7H48.3439ZM52.1569 161.833C52.2079 161.833 52.2329 161.881 52.2329 161.977V177.587C52.2329 177.684 52.2079 177.731 52.1569 177.731H51.2369C51.1859 177.731 51.1609 177.684 51.1609 177.587V161.977C51.1609 161.881 51.1859 161.833 51.2369 161.833H52.1569ZM61.7239 176.244C61.7509 176.325 61.7439 176.392 61.7009 176.443C61.0089 177.303 60.2449 177.731 59.4099 177.731C58.8239 177.731 58.2629 177.51 57.7279 177.066C57.2119 176.636 56.7589 176.03 56.3689 175.245C55.5359 173.587 55.1539 171.615 55.2199 169.328C55.2789 167.359 55.6769 165.659 56.4149 164.23C57.1499 162.802 58.0359 162.01 59.0759 161.854C60.0289 161.714 60.9019 162.133 61.6949 163.109C61.7379 163.162 61.7449 163.228 61.7179 163.31L61.2029 164.742C61.1749 164.824 61.1399 164.839 61.0969 164.786C60.5109 164.068 59.8669 163.761 59.1629 163.865C58.3669 163.982 57.6889 164.604 57.1299 165.729C56.5759 166.855 56.2919 168.179 56.2809 169.705C56.2689 171.355 56.5719 172.769 57.1889 173.945C57.8019 175.122 58.5419 175.712 59.4099 175.712C60.0269 175.712 60.5909 175.397 61.1029 174.768C61.1459 174.715 61.1809 174.73 61.2079 174.811L61.7239 176.244ZM70.3589 177.487C70.3869 177.532 70.3919 177.584 70.3769 177.642C70.3649 177.703 70.3419 177.731 70.3069 177.731H68.9649C68.9409 177.731 68.9239 177.716 68.9119 177.688L65.4549 171.547V177.587C65.4549 177.684 65.4299 177.731 65.3789 177.731H64.4589C64.4079 177.731 64.3829 177.684 64.3829 177.587V161.966C64.3829 161.869 64.4079 161.822 64.4589 161.822H65.3789C65.4299 161.822 65.4549 161.869 65.4549 161.966V167.872L68.6309 161.877C68.6459 161.847 68.6639 161.833 68.6839 161.833H69.9839C70.0189 161.833 70.0429 161.862 70.0549 161.921C70.0699 161.981 70.0659 162.032 70.0429 162.076L65.9939 169.727L70.3589 177.487Z" stroke="white" stroke-width="0.25" stroke-miterlimit="4.78"/>
<path d="M43.7048 53.2482C46.8238 52.8674 50.4198 53.1289 53.7188 53.1289C57.0528 53.1289 60.6568 52.7044 63.1648 53.9645C65.6448 55.2094 67.8248 57.7618 69.2738 61.1252C70.6438 64.3029 71.8748 68.5513 72.0448 74.6092C72.2268 81.0802 72.0448 86.365 72.0448 93.4651C72.0448 99.8356 72.3058 106.555 71.6668 111.483C70.4808 120.638 66.3958 127.501 60.7088 128.191C57.3788 128.596 54.1478 128.31 50.8208 128.31C47.7418 128.31 43.9428 128.882 41.3118 127.594C36.5078 125.244 32.7968 117.898 32.4318 106.949C32.2398 101.192 32.3688 94.2192 32.3688 88.2144C32.3688 81.9404 32.1298 74.8441 32.7468 70.1941C33.7048 62.9652 36.1478 57.8888 39.6108 55.0389C40.8618 54.0081 42.1578 53.4377 43.7048 53.2482Z" fill="white"/>
<path d="M65.2825 111.472H39.1646V70.0068H65.2825V111.472Z" fill="#003882"/>
<path d="M36.7815 65.7151H67.5725V107.236C67.5725 109.769 67.8805 116.473 67.3835 117.258C67.0225 117.828 66.4255 117.258 65.1175 117.258C52.5665 117.258 48.3565 117.551 36.7815 116.899V65.7151ZM40.1815 80.389C39.6015 83.7998 39.4835 99.0176 40.3705 102.584C41.7885 108.289 46.3435 106.879 51.7045 106.879C57.5345 106.879 62.5615 108.464 63.7955 101.867C64.5345 97.9128 64.2855 82.661 63.7955 80.0309C62.5645 73.4292 57.4225 75.0209 52.6495 75.0209C49.3795 75.0209 45.6935 74.3956 43.3925 75.379C41.5405 76.1692 40.5055 78.4809 40.1815 80.389Z" fill="white"/>
<path d="M49.8157 85.4016C51.9277 87.2832 53.0817 88.3557 55.6717 90.7716C53.7997 92.8314 51.8157 94.6789 49.8157 96.498V85.4016Z" fill="white"/>
<path d="M0 4.72064e-07V330L14.926 165.345L0 4.72064e-07Z" fill="#4FB29E"/>
</svg>
