<svg width="94" height="175" viewBox="0 0 94 175" fill="none" xmlns="http://www.w3.org/2000/svg">
<path d="M0 174.311H92.976V0.000183105H0V174.311Z" fill="#C7D886"/>
<path d="M30.8379 128.409C30.8889 128.409 30.9139 128.434 30.9139 128.485V136.723C30.9139 136.774 30.8889 136.8 30.8379 136.8H29.9709C29.9199 136.8 29.8949 136.774 29.8949 136.723V130.507L27.5329 133.143C27.4939 133.182 27.4569 133.182 27.4219 133.143L25.0669 130.513V136.723C25.0669 136.774 25.0409 136.8 24.9899 136.8H24.1229C24.0719 136.8 24.0469 136.774 24.0469 136.723V128.485C24.0469 128.434 24.0719 128.409 24.1229 128.409H24.4629C24.5219 128.409 24.5719 128.432 24.6149 128.479L27.4749 131.679L30.3399 128.479C30.3829 128.432 30.4339 128.409 30.4919 128.409H30.8379ZM38.0319 135.727C38.8909 135.727 39.6279 135.423 40.2409 134.813C40.8499 134.204 41.1549 133.468 41.1549 132.604C41.1549 131.745 40.8499 131.009 40.2409 130.395C39.6279 129.786 38.8909 129.481 38.0319 129.481C37.1689 129.481 36.4319 129.786 35.8229 130.395C35.2139 131.009 34.9089 131.745 34.9089 132.604C34.9089 133.468 35.2139 134.204 35.8229 134.813C36.4319 135.423 37.1689 135.727 38.0319 135.727ZM38.0319 128.409C39.1879 128.409 40.1759 128.819 40.9969 129.639C41.8169 130.46 42.2269 131.448 42.2269 132.604C42.2269 133.761 41.8169 134.749 40.9969 135.569C40.1759 136.389 39.1879 136.8 38.0319 136.8C36.8759 136.8 35.8869 136.389 35.0669 135.569C34.2469 134.749 33.8369 133.761 33.8369 132.604C33.8369 131.448 34.2469 130.46 35.0669 129.639C35.8869 128.819 36.8759 128.409 38.0319 128.409ZM48.5479 132.095C48.9109 132.095 49.2219 131.966 49.4799 131.708C49.7379 131.45 49.8659 131.141 49.8659 130.782C49.8659 130.419 49.7379 130.108 49.4799 129.85C49.2219 129.597 48.9109 129.47 48.5479 129.47H46.4559V132.095H48.5479ZM51.0439 136.688C51.0559 136.712 51.0539 136.737 51.0379 136.764C51.0269 136.788 51.0049 136.8 50.9739 136.8H49.9309C49.8999 136.8 49.8779 136.786 49.8659 136.759L47.8979 133.167L47.9039 133.161H46.4559V136.706C46.4559 136.757 46.4309 136.782 46.3799 136.782H45.4659C45.4149 136.782 45.3899 136.757 45.3899 136.706V128.479C45.3899 128.429 45.4149 128.403 45.4659 128.403H48.5479C49.2199 128.403 49.7899 128.643 50.2589 129.124C50.7279 129.604 50.9519 130.181 50.9329 130.852C50.9129 131.395 50.7279 131.876 50.3759 132.294C50.0279 132.7 49.5929 132.966 49.0699 133.091L51.0439 136.688ZM59.5099 128.409C59.5599 128.409 59.5859 128.434 59.5859 128.485V129.399C59.5859 129.45 59.5599 129.475 59.5099 129.475H55.0509V132.071H58.2789C58.3299 132.071 58.3549 132.097 58.3549 132.147V133.061C58.3549 133.112 58.3299 133.138 58.2789 133.138H55.0509V135.733H59.5099C59.5599 135.733 59.5859 135.759 59.5859 135.809V136.723C59.5859 136.774 59.5599 136.8 59.5099 136.8H54.0599C54.0099 136.8 53.9839 136.774 53.9839 136.723V128.485C53.9839 128.434 54.0099 128.409 54.0599 128.409H59.5099ZM63.1459 134.628H63.6859L63.8539 130.848V128.16H62.9779V130.848L63.1459 134.628ZM63.8539 135.744H62.9779V136.8H63.8539V135.744Z" fill="#083783"/>
<path d="M30.8379 128.409C30.8889 128.409 30.9139 128.434 30.9139 128.485V136.723C30.9139 136.774 30.8889 136.8 30.8379 136.8H29.9709C29.9199 136.8 29.8949 136.774 29.8949 136.723V130.507L27.5329 133.143C27.4939 133.182 27.4569 133.182 27.4219 133.143L25.0669 130.513V136.723C25.0669 136.774 25.0409 136.8 24.9899 136.8H24.1229C24.0719 136.8 24.0469 136.774 24.0469 136.723V128.485C24.0469 128.434 24.0719 128.409 24.1229 128.409H24.4629C24.5219 128.409 24.5719 128.432 24.6149 128.479L27.4749 131.679L30.3399 128.479C30.3829 128.432 30.4339 128.409 30.4919 128.409H30.8379ZM38.0319 135.727C38.8909 135.727 39.6279 135.423 40.2409 134.813C40.8499 134.204 41.1549 133.468 41.1549 132.604C41.1549 131.745 40.8499 131.009 40.2409 130.395C39.6279 129.786 38.8909 129.481 38.0319 129.481C37.1689 129.481 36.4319 129.786 35.8229 130.395C35.2139 131.009 34.9089 131.745 34.9089 132.604C34.9089 133.468 35.2139 134.204 35.8229 134.813C36.4319 135.423 37.1689 135.727 38.0319 135.727ZM38.0319 128.409C39.1879 128.409 40.1759 128.819 40.9969 129.639C41.8169 130.46 42.2269 131.448 42.2269 132.604C42.2269 133.761 41.8169 134.749 40.9969 135.569C40.1759 136.389 39.1879 136.8 38.0319 136.8C36.8759 136.8 35.8869 136.389 35.0669 135.569C34.2469 134.749 33.8369 133.761 33.8369 132.604C33.8369 131.448 34.2469 130.46 35.0669 129.639C35.8869 128.819 36.8759 128.409 38.0319 128.409ZM48.5479 132.095C48.9109 132.095 49.2219 131.966 49.4799 131.708C49.7379 131.45 49.8659 131.141 49.8659 130.782C49.8659 130.419 49.7379 130.108 49.4799 129.85C49.2219 129.597 48.9109 129.47 48.5479 129.47H46.4559V132.095H48.5479ZM51.0439 136.688C51.0559 136.712 51.0539 136.737 51.0379 136.764C51.0269 136.788 51.0049 136.8 50.9739 136.8H49.9309C49.8999 136.8 49.8779 136.786 49.8659 136.759L47.8979 133.167L47.9039 133.161H46.4559V136.706C46.4559 136.757 46.4309 136.782 46.3799 136.782H45.4659C45.4149 136.782 45.3899 136.757 45.3899 136.706V128.479C45.3899 128.429 45.4149 128.403 45.4659 128.403H48.5479C49.2199 128.403 49.7899 128.643 50.2589 129.124C50.7279 129.604 50.9519 130.181 50.9329 130.852C50.9129 131.395 50.7279 131.876 50.3759 132.294C50.0279 132.7 49.5929 132.966 49.0699 133.091L51.0439 136.688ZM59.5099 128.409C59.5599 128.409 59.5859 128.434 59.5859 128.485V129.399C59.5859 129.45 59.5599 129.475 59.5099 129.475H55.0509V132.071H58.2789C58.3299 132.071 58.3549 132.097 58.3549 132.147V133.061C58.3549 133.112 58.3299 133.138 58.2789 133.138H55.0509V135.733H59.5099C59.5599 135.733 59.5859 135.759 59.5859 135.809V136.723C59.5859 136.774 59.5599 136.8 59.5099 136.8H54.0599C54.0099 136.8 53.9839 136.774 53.9839 136.723V128.485C53.9839 128.434 54.0099 128.409 54.0599 128.409H59.5099ZM63.1459 134.628H63.6859L63.8539 130.848V128.16H62.9779V130.848L63.1459 134.628ZM63.8539 135.744H62.9779V136.8H63.8539V135.744Z" stroke="#083783" stroke-width="0.25" stroke-miterlimit="4.78"/>
<path d="M33.8664 114.009C33.9174 114.009 33.9424 114.034 33.9424 114.085V122.323C33.9424 122.374 33.9174 122.4 33.8664 122.4H32.9464C32.8954 122.4 32.8704 122.374 32.8704 122.323V118.726H28.9504V122.312C28.9504 122.363 28.9254 122.388 28.8744 122.388H27.9544C27.9034 122.388 27.8784 122.363 27.8784 122.312V114.073C27.8784 114.023 27.9034 113.997 27.9544 113.997H28.8744C28.9254 113.997 28.9504 114.023 28.9504 114.073V117.654H32.8704V114.085C32.8704 114.034 32.8954 114.009 32.9464 114.009H33.8664ZM42.9944 114.009C43.0444 114.009 43.0704 114.034 43.0704 114.085V114.999C43.0704 115.05 43.0444 115.075 42.9944 115.075H38.5354V117.671H41.7634C41.8144 117.671 41.8394 117.697 41.8394 117.747V118.661C41.8394 118.712 41.8144 118.738 41.7634 118.738H38.5354V121.333H42.9944C43.0444 121.333 43.0704 121.359 43.0704 121.409V122.323C43.0704 122.374 43.0444 122.4 42.9944 122.4H37.5444C37.4934 122.4 37.4684 122.374 37.4684 122.323V114.085C37.4684 114.034 37.4934 114.009 37.5444 114.009H42.9944ZM49.9764 118.099L48.9224 115.55L47.8614 118.099H49.9764ZM49.3264 113.991C49.3614 113.991 49.3854 114.007 49.3964 114.038L52.8244 122.294C52.8364 122.318 52.8344 122.341 52.8184 122.364C52.8034 122.388 52.7814 122.4 52.7544 122.4H51.8164C51.7814 122.4 51.7584 122.384 51.7464 122.353L50.4044 119.118H47.4344L46.0924 122.353C46.0804 122.384 46.0574 122.4 46.0214 122.4H45.0844C45.0574 122.4 45.0354 122.388 45.0194 122.364C45.0044 122.341 45.0024 122.318 45.0144 122.294L48.4414 114.038C48.4574 114.007 48.4804 113.991 48.5124 113.991H49.3264ZM58.6064 117.695C58.9694 117.695 59.2804 117.566 59.5384 117.308C59.7954 117.05 59.9244 116.741 59.9244 116.382C59.9244 116.019 59.7954 115.708 59.5384 115.45C59.2804 115.197 58.9694 115.07 58.6064 115.07H56.5144V117.695H58.6064ZM61.1024 122.288C61.1144 122.312 61.1124 122.337 61.0964 122.364C61.0844 122.388 61.0634 122.4 61.0324 122.4H59.9894C59.9574 122.4 59.9364 122.386 59.9244 122.359L57.9564 118.767L57.9614 118.761H56.5144V122.306C56.5144 122.357 56.4894 122.382 56.4384 122.382H55.5244C55.4734 122.382 55.4484 122.357 55.4484 122.306V114.079C55.4484 114.029 55.4734 114.003 55.5244 114.003H58.6064C59.2784 114.003 59.8484 114.243 60.3174 114.724C60.7864 115.204 61.0104 115.781 60.9914 116.452C60.9714 116.995 60.7864 117.476 60.4344 117.894C60.0864 118.3 59.6514 118.566 59.1274 118.691L61.1024 122.288Z" fill="#083783"/>
<path d="M33.8664 114.009C33.9174 114.009 33.9424 114.034 33.9424 114.085V122.323C33.9424 122.374 33.9174 122.4 33.8664 122.4H32.9464C32.8954 122.4 32.8704 122.374 32.8704 122.323V118.726H28.9504V122.312C28.9504 122.363 28.9254 122.388 28.8744 122.388H27.9544C27.9034 122.388 27.8784 122.363 27.8784 122.312V114.073C27.8784 114.023 27.9034 113.997 27.9544 113.997H28.8744C28.9254 113.997 28.9504 114.023 28.9504 114.073V117.654H32.8704V114.085C32.8704 114.034 32.8954 114.009 32.9464 114.009H33.8664ZM42.9944 114.009C43.0444 114.009 43.0704 114.034 43.0704 114.085V114.999C43.0704 115.05 43.0444 115.075 42.9944 115.075H38.5354V117.671H41.7634C41.8144 117.671 41.8394 117.697 41.8394 117.747V118.661C41.8394 118.712 41.8144 118.738 41.7634 118.738H38.5354V121.333H42.9944C43.0444 121.333 43.0704 121.359 43.0704 121.409V122.323C43.0704 122.374 43.0444 122.4 42.9944 122.4H37.5444C37.4934 122.4 37.4684 122.374 37.4684 122.323V114.085C37.4684 114.034 37.4934 114.009 37.5444 114.009H42.9944ZM49.9764 118.099L48.9224 115.55L47.8614 118.099H49.9764ZM49.3264 113.991C49.3614 113.991 49.3854 114.007 49.3964 114.038L52.8244 122.294C52.8364 122.318 52.8344 122.341 52.8184 122.364C52.8034 122.388 52.7814 122.4 52.7544 122.4H51.8164C51.7814 122.4 51.7584 122.384 51.7464 122.353L50.4044 119.118H47.4344L46.0924 122.353C46.0804 122.384 46.0574 122.4 46.0214 122.4H45.0844C45.0574 122.4 45.0354 122.388 45.0194 122.364C45.0044 122.341 45.0024 122.318 45.0144 122.294L48.4414 114.038C48.4574 114.007 48.4804 113.991 48.5124 113.991H49.3264ZM58.6064 117.695C58.9694 117.695 59.2804 117.566 59.5384 117.308C59.7954 117.05 59.9244 116.741 59.9244 116.382C59.9244 116.019 59.7954 115.708 59.5384 115.45C59.2804 115.197 58.9694 115.07 58.6064 115.07H56.5144V117.695H58.6064ZM61.1024 122.288C61.1144 122.312 61.1124 122.337 61.0964 122.364C61.0844 122.388 61.0634 122.4 61.0324 122.4H59.9894C59.9574 122.4 59.9364 122.386 59.9244 122.359L57.9564 118.767L57.9614 118.761H56.5144V122.306C56.5144 122.357 56.4894 122.382 56.4384 122.382H55.5244C55.4734 122.382 55.4484 122.357 55.4484 122.306V114.079C55.4484 114.029 55.4734 114.003 55.5244 114.003H58.6064C59.2784 114.003 59.8484 114.243 60.3174 114.724C60.7864 115.204 61.0104 115.781 60.9914 116.452C60.9714 116.995 60.7864 117.476 60.4344 117.894C60.0864 118.3 59.6514 118.566 59.1274 118.691L61.1024 122.288Z" stroke="#083783" stroke-width="0.25" stroke-miterlimit="4.78"/>
<path d="M22.8969 99.6086C22.9479 99.6086 22.9729 99.6336 22.9729 99.6846V107.923C22.9729 107.974 22.9479 108 22.8969 108H21.9769C21.9259 108 21.9009 107.974 21.9009 107.923V104.326H17.9809V107.912C17.9809 107.963 17.9559 107.988 17.9049 107.988H16.9849C16.9339 107.988 16.9089 107.963 16.9089 107.912V99.6726C16.9089 99.6226 16.9339 99.5966 16.9849 99.5966H17.9049C17.9559 99.5966 17.9809 99.6226 17.9809 99.6726V103.254H21.9009V99.6846C21.9009 99.6336 21.9259 99.6086 21.9769 99.6086H22.8969ZM32.0249 99.6086C32.0749 99.6086 32.1009 99.6336 32.1009 99.6846V100.599C32.1009 100.65 32.0749 100.675 32.0249 100.675H27.5659V103.271H30.7939C30.8449 103.271 30.8699 103.297 30.8699 103.347V104.261C30.8699 104.312 30.8449 104.338 30.7939 104.338H27.5659V106.933H32.0249C32.0749 106.933 32.1009 106.959 32.1009 107.009V107.923C32.1009 107.974 32.0749 108 32.0249 108H26.5749C26.5239 108 26.4989 107.974 26.4989 107.923V99.6846C26.4989 99.6336 26.5239 99.6086 26.5749 99.6086H32.0249ZM38.1109 103.295C38.4739 103.295 38.7849 103.166 39.0429 102.908C39.2999 102.65 39.4289 102.341 39.4289 101.982C39.4289 101.619 39.2999 101.308 39.0429 101.05C38.7849 100.797 38.4739 100.67 38.1109 100.67H36.0189V103.295H38.1109ZM40.6069 107.888C40.6189 107.912 40.6169 107.937 40.6009 107.964C40.5899 107.988 40.5679 108 40.5369 108H39.4939C39.4619 108 39.4409 107.986 39.4289 107.959L37.4609 104.367L37.4659 104.361H36.0189V107.906C36.0189 107.957 35.9939 107.982 35.9429 107.982H35.0289C34.9779 107.982 34.9529 107.957 34.9529 107.906V99.6786C34.9529 99.6286 34.9779 99.6026 35.0289 99.6026H38.1109C38.7829 99.6026 39.3529 99.8426 39.8219 100.324C40.2909 100.804 40.5149 101.381 40.4959 102.052C40.4759 102.595 40.2909 103.076 39.9389 103.494C39.5909 103.9 39.1559 104.166 38.6319 104.291L40.6069 107.888ZM49.0719 99.6086C49.1229 99.6086 49.1489 99.6336 49.1489 99.6846V100.599C49.1489 100.65 49.1229 100.675 49.0719 100.675H44.6129V103.271H47.8419C47.8929 103.271 47.9179 103.297 47.9179 103.347V104.261C47.9179 104.312 47.8929 104.338 47.8419 104.338H44.6129V106.933H49.0719C49.1229 106.933 49.1489 106.959 49.1489 107.009V107.923C49.1489 107.974 49.1229 108 49.0719 108H43.6229C43.5719 108 43.5469 107.974 43.5469 107.923V99.6846C43.5469 99.6336 43.5719 99.6086 43.6229 99.6086H49.0719ZM61.2919 99.6086C61.3429 99.6086 61.3679 99.6336 61.3679 99.6846V100.599C61.3679 100.65 61.3429 100.675 61.2919 100.675H59.0949V107.923C59.0949 107.974 59.0699 108 59.0189 108H58.1049C58.0539 108 58.0289 107.974 58.0289 107.923V100.675H55.8259C55.7749 100.675 55.7489 100.65 55.7489 100.599V99.6846C55.7489 99.6336 55.7749 99.6086 55.8259 99.6086H61.2919ZM67.6539 106.927C68.5139 106.927 69.2499 106.623 69.8629 106.013C70.4729 105.404 70.7769 104.668 70.7769 103.804C70.7769 102.945 70.4729 102.209 69.8629 101.595C69.2499 100.986 68.5139 100.681 67.6539 100.681C66.7909 100.681 66.0549 100.986 65.4449 101.595C64.8359 102.209 64.5309 102.945 64.5309 103.804C64.5309 104.668 64.8359 105.404 65.4449 106.013C66.0549 106.623 66.7909 106.927 67.6539 106.927ZM67.6539 99.6086C68.8099 99.6086 69.7989 100.019 70.6189 100.839C71.4389 101.66 71.8489 102.648 71.8489 103.804C71.8489 104.961 71.4389 105.949 70.6189 106.769C69.7989 107.589 68.8099 108 67.6539 108C66.4979 108 65.5099 107.589 64.6889 106.769C63.8689 105.949 63.4589 104.961 63.4589 103.804C63.4589 102.648 63.8689 101.66 64.6889 100.839C65.5099 100.019 66.4979 99.6086 67.6539 99.6086Z" fill="#083783"/>
<path d="M22.8969 99.6086C22.9479 99.6086 22.9729 99.6336 22.9729 99.6846V107.923C22.9729 107.974 22.9479 108 22.8969 108H21.9769C21.9259 108 21.9009 107.974 21.9009 107.923V104.326H17.9809V107.912C17.9809 107.963 17.9559 107.988 17.9049 107.988H16.9849C16.9339 107.988 16.9089 107.963 16.9089 107.912V99.6726C16.9089 99.6226 16.9339 99.5966 16.9849 99.5966H17.9049C17.9559 99.5966 17.9809 99.6226 17.9809 99.6726V103.254H21.9009V99.6846C21.9009 99.6336 21.9259 99.6086 21.9769 99.6086H22.8969ZM32.0249 99.6086C32.0749 99.6086 32.1009 99.6336 32.1009 99.6846V100.599C32.1009 100.65 32.0749 100.675 32.0249 100.675H27.5659V103.271H30.7939C30.8449 103.271 30.8699 103.297 30.8699 103.347V104.261C30.8699 104.312 30.8449 104.338 30.7939 104.338H27.5659V106.933H32.0249C32.0749 106.933 32.1009 106.959 32.1009 107.009V107.923C32.1009 107.974 32.0749 108 32.0249 108H26.5749C26.5239 108 26.4989 107.974 26.4989 107.923V99.6846C26.4989 99.6336 26.5239 99.6086 26.5749 99.6086H32.0249ZM38.1109 103.295C38.4739 103.295 38.7849 103.166 39.0429 102.908C39.2999 102.65 39.4289 102.341 39.4289 101.982C39.4289 101.619 39.2999 101.308 39.0429 101.05C38.7849 100.797 38.4739 100.67 38.1109 100.67H36.0189V103.295H38.1109ZM40.6069 107.888C40.6189 107.912 40.6169 107.937 40.6009 107.964C40.5899 107.988 40.5679 108 40.5369 108H39.4939C39.4619 108 39.4409 107.986 39.4289 107.959L37.4609 104.367L37.4659 104.361H36.0189V107.906C36.0189 107.957 35.9939 107.982 35.9429 107.982H35.0289C34.9779 107.982 34.9529 107.957 34.9529 107.906V99.6786C34.9529 99.6286 34.9779 99.6026 35.0289 99.6026H38.1109C38.7829 99.6026 39.3529 99.8426 39.8219 100.324C40.2909 100.804 40.5149 101.381 40.4959 102.052C40.4759 102.595 40.2909 103.076 39.9389 103.494C39.5909 103.9 39.1559 104.166 38.6319 104.291L40.6069 107.888ZM49.0719 99.6086C49.1229 99.6086 49.1489 99.6336 49.1489 99.6846V100.599C49.1489 100.65 49.1229 100.675 49.0719 100.675H44.6129V103.271H47.8419C47.8929 103.271 47.9179 103.297 47.9179 103.347V104.261C47.9179 104.312 47.8929 104.338 47.8419 104.338H44.6129V106.933H49.0719C49.1229 106.933 49.1489 106.959 49.1489 107.009V107.923C49.1489 107.974 49.1229 108 49.0719 108H43.6229C43.5719 108 43.5469 107.974 43.5469 107.923V99.6846C43.5469 99.6336 43.5719 99.6086 43.6229 99.6086H49.0719ZM61.2919 99.6086C61.3429 99.6086 61.3679 99.6336 61.3679 99.6846V100.599C61.3679 100.65 61.3429 100.675 61.2919 100.675H59.0949V107.923C59.0949 107.974 59.0699 108 59.0189 108H58.1049C58.0539 108 58.0289 107.974 58.0289 107.923V100.675H55.8259C55.7749 100.675 55.7489 100.65 55.7489 100.599V99.6846C55.7489 99.6336 55.7749 99.6086 55.8259 99.6086H61.2919ZM67.6539 106.927C68.5139 106.927 69.2499 106.623 69.8629 106.013C70.4729 105.404 70.7769 104.668 70.7769 103.804C70.7769 102.945 70.4729 102.209 69.8629 101.595C69.2499 100.986 68.5139 100.681 67.6539 100.681C66.7909 100.681 66.0549 100.986 65.4449 101.595C64.8359 102.209 64.5309 102.945 64.5309 103.804C64.5309 104.668 64.8359 105.404 65.4449 106.013C66.0549 106.623 66.7909 106.927 67.6539 106.927ZM67.6539 99.6086C68.8099 99.6086 69.7989 100.019 70.6189 100.839C71.4389 101.66 71.8489 102.648 71.8489 103.804C71.8489 104.961 71.4389 105.949 70.6189 106.769C69.7989 107.589 68.8099 108 67.6539 108C66.4979 108 65.5099 107.589 64.6889 106.769C63.8689 105.949 63.4589 104.961 63.4589 103.804C63.4589 102.648 63.8689 101.66 64.6889 100.839C65.5099 100.019 66.4979 99.6086 67.6539 99.6086Z" stroke="#083783" stroke-width="0.25" stroke-miterlimit="4.78"/>
<path d="M32.9412 92.814C32.9682 92.857 32.9612 92.892 32.9182 92.919C32.2262 93.373 31.4622 93.599 30.6272 93.599C30.0412 93.599 29.4802 93.482 28.9452 93.248C28.4292 93.021 27.9762 92.701 27.5862 92.287C26.7532 91.412 26.3712 90.371 26.4372 89.164C26.4962 88.125 26.8942 87.228 27.6322 86.474C28.3672 85.72 29.2532 85.302 30.2932 85.22C31.2462 85.146 32.1192 85.367 32.9122 85.882C32.9552 85.91 32.9622 85.945 32.9352 85.988L32.4202 86.744C32.3922 86.787 32.3572 86.794 32.3142 86.767C31.7282 86.388 31.0842 86.226 30.3802 86.281C29.5842 86.343 28.9062 86.671 28.3472 87.265C27.7932 87.859 27.5092 88.558 27.4982 89.363C27.4862 90.234 27.7892 90.98 28.4062 91.601C29.0192 92.222 29.7592 92.533 30.6272 92.533C31.2442 92.533 31.8082 92.367 32.3202 92.035C32.3632 92.007 32.3982 92.015 32.4252 92.058L32.9412 92.814ZM40.3402 92.527C40.3912 92.527 40.4162 92.552 40.4162 92.603V93.523C40.4162 93.574 40.3912 93.599 40.3402 93.599H35.6762C35.6252 93.599 35.6002 93.574 35.6002 93.523V85.279C35.6002 85.228 35.6252 85.203 35.6762 85.203H36.5962C36.6472 85.203 36.6722 85.228 36.6722 85.279V92.527H40.3402ZM44.1532 85.209C44.2042 85.209 44.2292 85.234 44.2292 85.285V93.523C44.2292 93.574 44.2042 93.599 44.1532 93.599H43.2332C43.1822 93.599 43.1572 93.574 43.1572 93.523V85.285C43.1572 85.234 43.1822 85.209 43.2332 85.209H44.1532ZM53.7202 92.814C53.7472 92.857 53.7392 92.892 53.6972 92.919C53.0052 93.373 52.2412 93.599 51.4062 93.599C50.8202 93.599 50.2592 93.482 49.7242 93.248C49.2082 93.021 48.7552 92.701 48.3652 92.287C47.5322 91.412 47.1502 90.371 47.2162 89.164C47.2752 88.125 47.6732 87.228 48.4112 86.474C49.1462 85.72 50.0322 85.302 51.0722 85.22C52.0252 85.146 52.8982 85.367 53.6912 85.882C53.7342 85.91 53.7412 85.945 53.7142 85.988L53.1992 86.744C53.1712 86.787 53.1362 86.794 53.0932 86.767C52.5072 86.388 51.8632 86.226 51.1592 86.281C50.3632 86.343 49.6852 86.671 49.1262 87.265C48.5722 87.859 48.2882 88.558 48.2772 89.363C48.2652 90.234 48.5682 90.98 49.1852 91.601C49.7982 92.222 50.5382 92.533 51.4062 92.533C52.0232 92.533 52.5872 92.367 53.0992 92.035C53.1422 92.007 53.1772 92.015 53.2042 92.058L53.7202 92.814ZM62.3552 93.47C62.3832 93.494 62.3882 93.521 62.3732 93.552C62.3612 93.584 62.3382 93.599 62.3032 93.599H60.9612C60.9372 93.599 60.9202 93.591 60.9082 93.576L57.4512 90.335V93.523C57.4512 93.574 57.4262 93.599 57.3752 93.599H56.4552C56.4042 93.599 56.3792 93.574 56.3792 93.523V85.279C56.3792 85.228 56.4042 85.203 56.4552 85.203H57.3752C57.4262 85.203 57.4512 85.228 57.4512 85.279V88.396L60.6272 85.232C60.6422 85.216 60.6602 85.209 60.6802 85.209H61.9802C62.0152 85.209 62.0392 85.224 62.0512 85.255C62.0662 85.287 62.0622 85.314 62.0392 85.337L57.9902 89.375L62.3552 93.47Z" fill="#083783"/>
<path d="M32.9412 92.814C32.9682 92.857 32.9612 92.892 32.9182 92.919C32.2262 93.373 31.4622 93.599 30.6272 93.599C30.0412 93.599 29.4802 93.482 28.9452 93.248C28.4292 93.021 27.9762 92.701 27.5862 92.287C26.7532 91.412 26.3712 90.371 26.4372 89.164C26.4962 88.125 26.8942 87.228 27.6322 86.474C28.3672 85.72 29.2532 85.302 30.2932 85.22C31.2462 85.146 32.1192 85.367 32.9122 85.882C32.9552 85.91 32.9622 85.945 32.9352 85.988L32.4202 86.744C32.3922 86.787 32.3572 86.794 32.3142 86.767C31.7282 86.388 31.0842 86.226 30.3802 86.281C29.5842 86.343 28.9062 86.671 28.3472 87.265C27.7932 87.859 27.5092 88.558 27.4982 89.363C27.4862 90.234 27.7892 90.98 28.4062 91.601C29.0192 92.222 29.7592 92.533 30.6272 92.533C31.2442 92.533 31.8082 92.367 32.3202 92.035C32.3632 92.007 32.3982 92.015 32.4252 92.058L32.9412 92.814ZM40.3402 92.527C40.3912 92.527 40.4162 92.552 40.4162 92.603V93.523C40.4162 93.574 40.3912 93.599 40.3402 93.599H35.6762C35.6252 93.599 35.6002 93.574 35.6002 93.523V85.279C35.6002 85.228 35.6252 85.203 35.6762 85.203H36.5962C36.6472 85.203 36.6722 85.228 36.6722 85.279V92.527H40.3402ZM44.1532 85.209C44.2042 85.209 44.2292 85.234 44.2292 85.285V93.523C44.2292 93.574 44.2042 93.599 44.1532 93.599H43.2332C43.1822 93.599 43.1572 93.574 43.1572 93.523V85.285C43.1572 85.234 43.1822 85.209 43.2332 85.209H44.1532ZM53.7202 92.814C53.7472 92.857 53.7392 92.892 53.6972 92.919C53.0052 93.373 52.2412 93.599 51.4062 93.599C50.8202 93.599 50.2592 93.482 49.7242 93.248C49.2082 93.021 48.7552 92.701 48.3652 92.287C47.5322 91.412 47.1502 90.371 47.2162 89.164C47.2752 88.125 47.6732 87.228 48.4112 86.474C49.1462 85.72 50.0322 85.302 51.0722 85.22C52.0252 85.146 52.8982 85.367 53.6912 85.882C53.7342 85.91 53.7412 85.945 53.7142 85.988L53.1992 86.744C53.1712 86.787 53.1362 86.794 53.0932 86.767C52.5072 86.388 51.8632 86.226 51.1592 86.281C50.3632 86.343 49.6852 86.671 49.1262 87.265C48.5722 87.859 48.2882 88.558 48.2772 89.363C48.2652 90.234 48.5682 90.98 49.1852 91.601C49.7982 92.222 50.5382 92.533 51.4062 92.533C52.0232 92.533 52.5872 92.367 53.0992 92.035C53.1422 92.007 53.1772 92.015 53.2042 92.058L53.7202 92.814ZM62.3552 93.47C62.3832 93.494 62.3882 93.521 62.3732 93.552C62.3612 93.584 62.3382 93.599 62.3032 93.599H60.9612C60.9372 93.599 60.9202 93.591 60.9082 93.576L57.4512 90.335V93.523C57.4512 93.574 57.4262 93.599 57.3752 93.599H56.4552C56.4042 93.599 56.3792 93.574 56.3792 93.523V85.279C56.3792 85.228 56.4042 85.203 56.4552 85.203H57.3752C57.4262 85.203 57.4512 85.228 57.4512 85.279V88.396L60.6272 85.232C60.6422 85.216 60.6602 85.209 60.6802 85.209H61.9802C62.0152 85.209 62.0392 85.224 62.0512 85.255C62.0662 85.287 62.0622 85.314 62.0392 85.337L57.9902 89.375L62.3552 93.47Z" stroke="#083783" stroke-width="0.25" stroke-miterlimit="4.78"/>
<path d="M35.7011 27.9044C38.8201 27.7034 42.4161 27.8414 45.7151 27.8414C49.0491 27.8414 52.6531 27.6174 55.1611 28.2824C57.6411 28.9394 59.8211 30.2864 61.2701 32.0614C62.6401 33.7384 63.8711 35.9804 64.0411 39.1774C64.2231 42.5924 64.0411 45.3814 64.0411 49.1284C64.0411 52.4904 64.3021 56.0364 63.6631 58.6374C62.4771 63.4684 58.3921 67.0904 52.7051 67.4544C49.3751 67.6684 46.1441 67.5174 42.8171 67.5174C39.7381 67.5174 35.9391 67.8194 33.3081 67.1394C28.5041 65.8994 24.7931 62.0224 24.4281 56.2444C24.2361 53.2064 24.3651 49.5264 24.3651 46.3574C24.3651 43.0464 24.1261 39.3014 24.7431 36.8474C25.7011 33.0324 28.1441 30.3534 31.6071 28.8494C32.8581 28.3054 34.1541 28.0044 35.7011 27.9044Z" fill="white"/>
<path d="M57.2799 58.6311H31.1619V36.7481H57.2799V58.6311Z" fill="#003882"/>
<path d="M28.7778 34.4838H59.5688V56.3958C59.5688 57.7328 59.8768 61.2708 59.3798 61.6848C59.0188 61.9858 58.4218 61.6848 57.1138 61.6848C44.5628 61.6848 40.3528 61.8398 28.7778 61.4958V34.4838ZM32.1778 42.2278C31.5978 44.0278 31.4798 52.0588 32.3658 53.9408C33.7848 56.9518 38.3398 56.2078 43.7008 56.2078C49.5308 56.2078 54.5578 57.0438 55.7908 53.5628C56.5308 51.4758 56.2818 43.4268 55.7908 42.0388C54.5608 38.5548 49.4188 39.3948 44.6458 39.3948C41.3758 39.3948 37.6898 39.0648 35.3888 39.5838C33.5368 40.0008 32.5018 41.2208 32.1778 42.2278Z" fill="white"/>
<path d="M41.812 44.8731C43.924 45.8661 45.078 46.4321 47.668 47.7071C45.796 48.7941 43.812 49.7691 41.812 50.7291V44.8731Z" fill="white"/>
<path d="M93.6853 3.05176e-05V174.488L78.7593 87.427L93.6853 3.05176e-05Z" fill="#083783"/>
</svg>
