<svg width="94" height="174" viewBox="0 0 94 174" fill="none" xmlns="http://www.w3.org/2000/svg">
<path d="M0.709106 173.751H93.6851V0.000457764H0.709106V173.751Z" fill="#4FB29E"/>
<path d="M38.6327 128.252C38.6837 128.252 38.7087 128.277 38.7087 128.328V136.566C38.7087 136.617 38.6837 136.643 38.6327 136.643H37.7657C37.7147 136.643 37.6897 136.617 37.6897 136.566V130.35L35.3277 132.986C35.2887 133.025 35.2517 133.025 35.2167 132.986L32.8617 130.356V136.566C32.8617 136.617 32.8357 136.643 32.7847 136.643H31.9177C31.8667 136.643 31.8417 136.617 31.8417 136.566V128.328C31.8417 128.277 31.8667 128.252 31.9177 128.252H32.2577C32.3167 128.252 32.3667 128.275 32.4097 128.322L35.2697 131.522L38.1347 128.322C38.1777 128.275 38.2287 128.252 38.2867 128.252H38.6327ZM45.8267 135.57C46.6857 135.57 47.4227 135.266 48.0357 134.656C48.6447 134.047 48.9497 133.311 48.9497 132.447C48.9497 131.588 48.6447 130.852 48.0357 130.238C47.4227 129.629 46.6857 129.324 45.8267 129.324C44.9637 129.324 44.2267 129.629 43.6177 130.238C43.0087 130.852 42.7037 131.588 42.7037 132.447C42.7037 133.311 43.0087 134.047 43.6177 134.656C44.2267 135.266 44.9637 135.57 45.8267 135.57ZM45.8267 128.252C46.9827 128.252 47.9707 128.662 48.7917 129.482C49.6117 130.303 50.0217 131.291 50.0217 132.447C50.0217 133.604 49.6117 134.592 48.7917 135.412C47.9707 136.232 46.9827 136.643 45.8267 136.643C44.6707 136.643 43.6817 136.232 42.8617 135.412C42.0417 134.592 41.6317 133.604 41.6317 132.447C41.6317 131.291 42.0417 130.303 42.8617 129.482C43.6817 128.662 44.6707 128.252 45.8267 128.252ZM56.3427 131.938C56.7057 131.938 57.0167 131.809 57.2747 131.551C57.5327 131.293 57.6607 130.984 57.6607 130.625C57.6607 130.262 57.5327 129.951 57.2747 129.693C57.0167 129.44 56.7057 129.313 56.3427 129.313H54.2507V131.938H56.3427ZM58.8387 136.531C58.8507 136.555 58.8487 136.58 58.8327 136.607C58.8217 136.631 58.7997 136.643 58.7687 136.643H57.7257C57.6947 136.643 57.6727 136.629 57.6607 136.602L55.6927 133.01L55.6987 133.004H54.2507V136.549C54.2507 136.6 54.2257 136.625 54.1747 136.625H53.2607C53.2097 136.625 53.1847 136.6 53.1847 136.549V128.322C53.1847 128.272 53.2097 128.246 53.2607 128.246H56.3427C57.0147 128.246 57.5847 128.486 58.0537 128.967C58.5227 129.447 58.7467 130.024 58.7277 130.695C58.7077 131.238 58.5227 131.719 58.1707 132.137C57.8227 132.543 57.3877 132.809 56.8647 132.934L58.8387 136.531ZM67.3047 128.252C67.3547 128.252 67.3807 128.277 67.3807 128.328V129.242C67.3807 129.293 67.3547 129.318 67.3047 129.318H62.8457V131.914H66.0737C66.1247 131.914 66.1497 131.94 66.1497 131.99V132.904C66.1497 132.955 66.1247 132.981 66.0737 132.981H62.8457V135.576H67.3047C67.3547 135.576 67.3807 135.602 67.3807 135.652V136.566C67.3807 136.617 67.3547 136.643 67.3047 136.643H61.8547C61.8047 136.643 61.7787 136.617 61.7787 136.566V128.328C61.7787 128.277 61.8047 128.252 61.8547 128.252H67.3047ZM70.9407 134.471H71.4807L71.6487 130.691V128.003H70.7727V130.691L70.9407 134.471ZM71.6487 135.587H70.7727V136.643H71.6487V135.587Z" fill="white"/>
<path d="M38.6327 128.252C38.6837 128.252 38.7087 128.277 38.7087 128.328V136.566C38.7087 136.617 38.6837 136.643 38.6327 136.643H37.7657C37.7147 136.643 37.6897 136.617 37.6897 136.566V130.35L35.3277 132.986C35.2887 133.025 35.2517 133.025 35.2167 132.986L32.8617 130.356V136.566C32.8617 136.617 32.8357 136.643 32.7847 136.643H31.9177C31.8667 136.643 31.8417 136.617 31.8417 136.566V128.328C31.8417 128.277 31.8667 128.252 31.9177 128.252H32.2577C32.3167 128.252 32.3667 128.275 32.4097 128.322L35.2697 131.522L38.1347 128.322C38.1777 128.275 38.2287 128.252 38.2867 128.252H38.6327ZM45.8267 135.57C46.6857 135.57 47.4227 135.266 48.0357 134.656C48.6447 134.047 48.9497 133.311 48.9497 132.447C48.9497 131.588 48.6447 130.852 48.0357 130.238C47.4227 129.629 46.6857 129.324 45.8267 129.324C44.9637 129.324 44.2267 129.629 43.6177 130.238C43.0087 130.852 42.7037 131.588 42.7037 132.447C42.7037 133.311 43.0087 134.047 43.6177 134.656C44.2267 135.266 44.9637 135.57 45.8267 135.57ZM45.8267 128.252C46.9827 128.252 47.9707 128.662 48.7917 129.482C49.6117 130.303 50.0217 131.291 50.0217 132.447C50.0217 133.604 49.6117 134.592 48.7917 135.412C47.9707 136.232 46.9827 136.643 45.8267 136.643C44.6707 136.643 43.6817 136.232 42.8617 135.412C42.0417 134.592 41.6317 133.604 41.6317 132.447C41.6317 131.291 42.0417 130.303 42.8617 129.482C43.6817 128.662 44.6707 128.252 45.8267 128.252ZM56.3427 131.938C56.7057 131.938 57.0167 131.809 57.2747 131.551C57.5327 131.293 57.6607 130.984 57.6607 130.625C57.6607 130.262 57.5327 129.951 57.2747 129.693C57.0167 129.44 56.7057 129.313 56.3427 129.313H54.2507V131.938H56.3427ZM58.8387 136.531C58.8507 136.555 58.8487 136.58 58.8327 136.607C58.8217 136.631 58.7997 136.643 58.7687 136.643H57.7257C57.6947 136.643 57.6727 136.629 57.6607 136.602L55.6927 133.01L55.6987 133.004H54.2507V136.549C54.2507 136.6 54.2257 136.625 54.1747 136.625H53.2607C53.2097 136.625 53.1847 136.6 53.1847 136.549V128.322C53.1847 128.272 53.2097 128.246 53.2607 128.246H56.3427C57.0147 128.246 57.5847 128.486 58.0537 128.967C58.5227 129.447 58.7467 130.024 58.7277 130.695C58.7077 131.238 58.5227 131.719 58.1707 132.137C57.8227 132.543 57.3877 132.809 56.8647 132.934L58.8387 136.531ZM67.3047 128.252C67.3547 128.252 67.3807 128.277 67.3807 128.328V129.242C67.3807 129.293 67.3547 129.318 67.3047 129.318H62.8457V131.914H66.0737C66.1247 131.914 66.1497 131.94 66.1497 131.99V132.904C66.1497 132.955 66.1247 132.981 66.0737 132.981H62.8457V135.576H67.3047C67.3547 135.576 67.3807 135.602 67.3807 135.652V136.566C67.3807 136.617 67.3547 136.643 67.3047 136.643H61.8547C61.8047 136.643 61.7787 136.617 61.7787 136.566V128.328C61.7787 128.277 61.8047 128.252 61.8547 128.252H67.3047ZM70.9407 134.471H71.4807L71.6487 130.691V128.003H70.7727V130.691L70.9407 134.471ZM71.6487 135.587H70.7727V136.643H71.6487V135.587Z" stroke="white" stroke-width="0.25" stroke-miterlimit="4.78"/>
<path d="M41.6612 113.852C41.7122 113.852 41.7372 113.877 41.7372 113.928V122.166C41.7372 122.217 41.7122 122.243 41.6612 122.243H40.7412C40.6902 122.243 40.6652 122.217 40.6652 122.166V118.569H36.7452V122.155C36.7452 122.206 36.7202 122.231 36.6692 122.231H35.7492C35.6982 122.231 35.6732 122.206 35.6732 122.155V113.916C35.6732 113.866 35.6982 113.84 35.7492 113.84H36.6692C36.7202 113.84 36.7452 113.866 36.7452 113.916V117.497H40.6652V113.928C40.6652 113.877 40.6902 113.852 40.7412 113.852H41.6612ZM50.7892 113.852C50.8392 113.852 50.8652 113.877 50.8652 113.928V114.842C50.8652 114.893 50.8392 114.918 50.7892 114.918H46.3302V117.514H49.5582C49.6092 117.514 49.6342 117.54 49.6342 117.59V118.504C49.6342 118.555 49.6092 118.581 49.5582 118.581H46.3302V121.176H50.7892C50.8392 121.176 50.8652 121.202 50.8652 121.252V122.166C50.8652 122.217 50.8392 122.243 50.7892 122.243H45.3392C45.2882 122.243 45.2632 122.217 45.2632 122.166V113.928C45.2632 113.877 45.2882 113.852 45.3392 113.852H50.7892ZM57.7712 117.942L56.7172 115.393L55.6562 117.942H57.7712ZM57.1212 113.834C57.1562 113.834 57.1802 113.85 57.1912 113.881L60.6192 122.137C60.6312 122.161 60.6292 122.184 60.6132 122.207C60.5982 122.231 60.5762 122.243 60.5492 122.243H59.6112C59.5762 122.243 59.5532 122.227 59.5412 122.196L58.1992 118.961H55.2292L53.8872 122.196C53.8752 122.227 53.8522 122.243 53.8162 122.243H52.8792C52.8512 122.243 52.8302 122.231 52.8142 122.207C52.7992 122.184 52.7972 122.161 52.8092 122.137L56.2362 113.881C56.2522 113.85 56.2752 113.834 56.3072 113.834H57.1212ZM66.4012 117.538C66.7642 117.538 67.0752 117.409 67.3332 117.151C67.5902 116.893 67.7192 116.584 67.7192 116.225C67.7192 115.862 67.5902 115.551 67.3332 115.293C67.0752 115.04 66.7642 114.913 66.4012 114.913H64.3092V117.538H66.4012ZM68.8972 122.131C68.9092 122.155 68.9072 122.18 68.8912 122.207C68.8792 122.231 68.8582 122.243 68.8272 122.243H67.7842C67.7522 122.243 67.7312 122.229 67.7192 122.202L65.7512 118.61L65.7562 118.604H64.3092V122.149C64.3092 122.2 64.2842 122.225 64.2332 122.225H63.3192C63.2682 122.225 63.2432 122.2 63.2432 122.149V113.922C63.2432 113.872 63.2682 113.846 63.3192 113.846H66.4012C67.0732 113.846 67.6432 114.086 68.1122 114.567C68.5812 115.047 68.8052 115.624 68.7862 116.295C68.7662 116.838 68.5812 117.319 68.2292 117.737C67.8812 118.143 67.4462 118.409 66.9222 118.534L68.8972 122.131Z" fill="white"/>
<path d="M41.6612 113.852C41.7122 113.852 41.7372 113.877 41.7372 113.928V122.166C41.7372 122.217 41.7122 122.243 41.6612 122.243H40.7412C40.6902 122.243 40.6652 122.217 40.6652 122.166V118.569H36.7452V122.155C36.7452 122.206 36.7202 122.231 36.6692 122.231H35.7492C35.6982 122.231 35.6732 122.206 35.6732 122.155V113.916C35.6732 113.866 35.6982 113.84 35.7492 113.84H36.6692C36.7202 113.84 36.7452 113.866 36.7452 113.916V117.497H40.6652V113.928C40.6652 113.877 40.6902 113.852 40.7412 113.852H41.6612ZM50.7892 113.852C50.8392 113.852 50.8652 113.877 50.8652 113.928V114.842C50.8652 114.893 50.8392 114.918 50.7892 114.918H46.3302V117.514H49.5582C49.6092 117.514 49.6342 117.54 49.6342 117.59V118.504C49.6342 118.555 49.6092 118.581 49.5582 118.581H46.3302V121.176H50.7892C50.8392 121.176 50.8652 121.202 50.8652 121.252V122.166C50.8652 122.217 50.8392 122.243 50.7892 122.243H45.3392C45.2882 122.243 45.2632 122.217 45.2632 122.166V113.928C45.2632 113.877 45.2882 113.852 45.3392 113.852H50.7892ZM57.7712 117.942L56.7172 115.393L55.6562 117.942H57.7712ZM57.1212 113.834C57.1562 113.834 57.1802 113.85 57.1912 113.881L60.6192 122.137C60.6312 122.161 60.6292 122.184 60.6132 122.207C60.5982 122.231 60.5762 122.243 60.5492 122.243H59.6112C59.5762 122.243 59.5532 122.227 59.5412 122.196L58.1992 118.961H55.2292L53.8872 122.196C53.8752 122.227 53.8522 122.243 53.8162 122.243H52.8792C52.8512 122.243 52.8302 122.231 52.8142 122.207C52.7992 122.184 52.7972 122.161 52.8092 122.137L56.2362 113.881C56.2522 113.85 56.2752 113.834 56.3072 113.834H57.1212ZM66.4012 117.538C66.7642 117.538 67.0752 117.409 67.3332 117.151C67.5902 116.893 67.7192 116.584 67.7192 116.225C67.7192 115.862 67.5902 115.551 67.3332 115.293C67.0752 115.04 66.7642 114.913 66.4012 114.913H64.3092V117.538H66.4012ZM68.8972 122.131C68.9092 122.155 68.9072 122.18 68.8912 122.207C68.8792 122.231 68.8582 122.243 68.8272 122.243H67.7842C67.7522 122.243 67.7312 122.229 67.7192 122.202L65.7512 118.61L65.7562 118.604H64.3092V122.149C64.3092 122.2 64.2842 122.225 64.2332 122.225H63.3192C63.2682 122.225 63.2432 122.2 63.2432 122.149V113.922C63.2432 113.872 63.2682 113.846 63.3192 113.846H66.4012C67.0732 113.846 67.6432 114.086 68.1122 114.567C68.5812 115.047 68.8052 115.624 68.7862 116.295C68.7662 116.838 68.5812 117.319 68.2292 117.737C67.8812 118.143 67.4462 118.409 66.9222 118.534L68.8972 122.131Z" stroke="white" stroke-width="0.25" stroke-miterlimit="4.78"/>
<path d="M30.6917 99.4518C30.7427 99.4518 30.7677 99.4768 30.7677 99.5278V107.766C30.7677 107.817 30.7427 107.843 30.6917 107.843H29.7717C29.7207 107.843 29.6957 107.817 29.6957 107.766V104.169H25.7757V107.755C25.7757 107.806 25.7507 107.831 25.6997 107.831H24.7797C24.7287 107.831 24.7037 107.806 24.7037 107.755V99.5158C24.7037 99.4658 24.7287 99.4398 24.7797 99.4398H25.6997C25.7507 99.4398 25.7757 99.4658 25.7757 99.5158V103.097H29.6957V99.5278C29.6957 99.4768 29.7207 99.4518 29.7717 99.4518H30.6917ZM39.8197 99.4518C39.8697 99.4518 39.8957 99.4768 39.8957 99.5278V100.442C39.8957 100.493 39.8697 100.518 39.8197 100.518H35.3607V103.114H38.5887C38.6397 103.114 38.6647 103.14 38.6647 103.19V104.104C38.6647 104.155 38.6397 104.181 38.5887 104.181H35.3607V106.776H39.8197C39.8697 106.776 39.8957 106.802 39.8957 106.852V107.766C39.8957 107.817 39.8697 107.843 39.8197 107.843H34.3697C34.3197 107.843 34.2937 107.817 34.2937 107.766V99.5278C34.2937 99.4768 34.3197 99.4518 34.3697 99.4518H39.8197ZM45.9057 103.138C46.2687 103.138 46.5797 103.009 46.8377 102.751C47.0947 102.493 47.2237 102.184 47.2237 101.825C47.2237 101.462 47.0947 101.151 46.8377 100.893C46.5797 100.64 46.2687 100.513 45.9057 100.513H43.8137V103.138H45.9057ZM48.4017 107.731C48.4137 107.755 48.4117 107.78 48.3957 107.807C48.3847 107.831 48.3627 107.843 48.3317 107.843H47.2887C47.2567 107.843 47.2357 107.829 47.2237 107.802L45.2557 104.21L45.2607 104.204H43.8137V107.749C43.8137 107.8 43.7887 107.825 43.7377 107.825H42.8237C42.7727 107.825 42.7477 107.8 42.7477 107.749V99.5218C42.7477 99.4718 42.7727 99.4458 42.8237 99.4458H45.9057C46.5777 99.4458 47.1477 99.6858 47.6167 100.167C48.0857 100.647 48.3097 101.224 48.2907 101.895C48.2707 102.438 48.0857 102.919 47.7337 103.337C47.3857 103.743 46.9507 104.009 46.4267 104.134L48.4017 107.731ZM56.8667 99.4518C56.9177 99.4518 56.9437 99.4768 56.9437 99.5278V100.442C56.9437 100.493 56.9177 100.518 56.8667 100.518H52.4077V103.114H55.6367C55.6877 103.114 55.7127 103.14 55.7127 103.19V104.104C55.7127 104.155 55.6877 104.181 55.6367 104.181H52.4077V106.776H56.8667C56.9177 106.776 56.9437 106.802 56.9437 106.852V107.766C56.9437 107.817 56.9177 107.843 56.8667 107.843H51.4177C51.3667 107.843 51.3417 107.817 51.3417 107.766V99.5278C51.3417 99.4768 51.3667 99.4518 51.4177 99.4518H56.8667ZM69.0867 99.4518C69.1377 99.4518 69.1627 99.4768 69.1627 99.5278V100.442C69.1627 100.493 69.1377 100.518 69.0867 100.518H66.8897V107.766C66.8897 107.817 66.8647 107.843 66.8137 107.843H65.8997C65.8487 107.843 65.8237 107.817 65.8237 107.766V100.518H63.6207C63.5697 100.518 63.5437 100.493 63.5437 100.442V99.5278C63.5437 99.4768 63.5697 99.4518 63.6207 99.4518H69.0867ZM75.4487 106.77C76.3087 106.77 77.0447 106.466 77.6577 105.856C78.2677 105.247 78.5717 104.511 78.5717 103.647C78.5717 102.788 78.2677 102.052 77.6577 101.438C77.0447 100.829 76.3087 100.524 75.4487 100.524C74.5857 100.524 73.8497 100.829 73.2397 101.438C72.6307 102.052 72.3257 102.788 72.3257 103.647C72.3257 104.511 72.6307 105.247 73.2397 105.856C73.8497 106.466 74.5857 106.77 75.4487 106.77ZM75.4487 99.4518C76.6047 99.4518 77.5937 99.8618 78.4137 100.682C79.2337 101.503 79.6447 102.491 79.6447 103.647C79.6447 104.804 79.2337 105.792 78.4137 106.612C77.5937 107.432 76.6047 107.843 75.4487 107.843C74.2927 107.843 73.3047 107.432 72.4837 106.612C71.6637 105.792 71.2537 104.804 71.2537 103.647C71.2537 102.491 71.6637 101.503 72.4837 100.682C73.3047 99.8618 74.2927 99.4518 75.4487 99.4518Z" fill="white"/>
<path d="M30.6917 99.4518C30.7427 99.4518 30.7677 99.4768 30.7677 99.5278V107.766C30.7677 107.817 30.7427 107.843 30.6917 107.843H29.7717C29.7207 107.843 29.6957 107.817 29.6957 107.766V104.169H25.7757V107.755C25.7757 107.806 25.7507 107.831 25.6997 107.831H24.7797C24.7287 107.831 24.7037 107.806 24.7037 107.755V99.5158C24.7037 99.4658 24.7287 99.4398 24.7797 99.4398H25.6997C25.7507 99.4398 25.7757 99.4658 25.7757 99.5158V103.097H29.6957V99.5278C29.6957 99.4768 29.7207 99.4518 29.7717 99.4518H30.6917ZM39.8197 99.4518C39.8697 99.4518 39.8957 99.4768 39.8957 99.5278V100.442C39.8957 100.493 39.8697 100.518 39.8197 100.518H35.3607V103.114H38.5887C38.6397 103.114 38.6647 103.14 38.6647 103.19V104.104C38.6647 104.155 38.6397 104.181 38.5887 104.181H35.3607V106.776H39.8197C39.8697 106.776 39.8957 106.802 39.8957 106.852V107.766C39.8957 107.817 39.8697 107.843 39.8197 107.843H34.3697C34.3197 107.843 34.2937 107.817 34.2937 107.766V99.5278C34.2937 99.4768 34.3197 99.4518 34.3697 99.4518H39.8197ZM45.9057 103.138C46.2687 103.138 46.5797 103.009 46.8377 102.751C47.0947 102.493 47.2237 102.184 47.2237 101.825C47.2237 101.462 47.0947 101.151 46.8377 100.893C46.5797 100.64 46.2687 100.513 45.9057 100.513H43.8137V103.138H45.9057ZM48.4017 107.731C48.4137 107.755 48.4117 107.78 48.3957 107.807C48.3847 107.831 48.3627 107.843 48.3317 107.843H47.2887C47.2567 107.843 47.2357 107.829 47.2237 107.802L45.2557 104.21L45.2607 104.204H43.8137V107.749C43.8137 107.8 43.7887 107.825 43.7377 107.825H42.8237C42.7727 107.825 42.7477 107.8 42.7477 107.749V99.5218C42.7477 99.4718 42.7727 99.4458 42.8237 99.4458H45.9057C46.5777 99.4458 47.1477 99.6858 47.6167 100.167C48.0857 100.647 48.3097 101.224 48.2907 101.895C48.2707 102.438 48.0857 102.919 47.7337 103.337C47.3857 103.743 46.9507 104.009 46.4267 104.134L48.4017 107.731ZM56.8667 99.4518C56.9177 99.4518 56.9437 99.4768 56.9437 99.5278V100.442C56.9437 100.493 56.9177 100.518 56.8667 100.518H52.4077V103.114H55.6367C55.6877 103.114 55.7127 103.14 55.7127 103.19V104.104C55.7127 104.155 55.6877 104.181 55.6367 104.181H52.4077V106.776H56.8667C56.9177 106.776 56.9437 106.802 56.9437 106.852V107.766C56.9437 107.817 56.9177 107.843 56.8667 107.843H51.4177C51.3667 107.843 51.3417 107.817 51.3417 107.766V99.5278C51.3417 99.4768 51.3667 99.4518 51.4177 99.4518H56.8667ZM69.0867 99.4518C69.1377 99.4518 69.1627 99.4768 69.1627 99.5278V100.442C69.1627 100.493 69.1377 100.518 69.0867 100.518H66.8897V107.766C66.8897 107.817 66.8647 107.843 66.8137 107.843H65.8997C65.8487 107.843 65.8237 107.817 65.8237 107.766V100.518H63.6207C63.5697 100.518 63.5437 100.493 63.5437 100.442V99.5278C63.5437 99.4768 63.5697 99.4518 63.6207 99.4518H69.0867ZM75.4487 106.77C76.3087 106.77 77.0447 106.466 77.6577 105.856C78.2677 105.247 78.5717 104.511 78.5717 103.647C78.5717 102.788 78.2677 102.052 77.6577 101.438C77.0447 100.829 76.3087 100.524 75.4487 100.524C74.5857 100.524 73.8497 100.829 73.2397 101.438C72.6307 102.052 72.3257 102.788 72.3257 103.647C72.3257 104.511 72.6307 105.247 73.2397 105.856C73.8497 106.466 74.5857 106.77 75.4487 106.77ZM75.4487 99.4518C76.6047 99.4518 77.5937 99.8618 78.4137 100.682C79.2337 101.503 79.6447 102.491 79.6447 103.647C79.6447 104.804 79.2337 105.792 78.4137 106.612C77.5937 107.432 76.6047 107.843 75.4487 107.843C74.2927 107.843 73.3047 107.432 72.4837 106.612C71.6637 105.792 71.2537 104.804 71.2537 103.647C71.2537 102.491 71.6637 101.503 72.4837 100.682C73.3047 99.8618 74.2927 99.4518 75.4487 99.4518Z" stroke="white" stroke-width="0.25" stroke-miterlimit="4.78"/>
<path d="M40.7363 92.6571C40.7633 92.7001 40.7563 92.7351 40.7133 92.7621C40.0213 93.2161 39.2573 93.4421 38.4223 93.4421C37.8363 93.4421 37.2753 93.3251 36.7403 93.0911C36.2243 92.8641 35.7713 92.5441 35.3813 92.1301C34.5483 91.2551 34.1663 90.2141 34.2323 89.0071C34.2913 87.9681 34.6893 87.0711 35.4273 86.3171C36.1623 85.5631 37.0483 85.1451 38.0883 85.0631C39.0413 84.9891 39.9143 85.2101 40.7073 85.7251C40.7503 85.7531 40.7573 85.7881 40.7303 85.8311L40.2153 86.5871C40.1873 86.6301 40.1523 86.6371 40.1093 86.6101C39.5233 86.2311 38.8793 86.0691 38.1753 86.1241C37.3793 86.1861 36.7013 86.5141 36.1423 87.1081C35.5883 87.7021 35.3043 88.4011 35.2933 89.2061C35.2813 90.0771 35.5843 90.8231 36.2013 91.4441C36.8143 92.0651 37.5543 92.3761 38.4223 92.3761C39.0393 92.3761 39.6033 92.2101 40.1153 91.8781C40.1583 91.8501 40.1933 91.8581 40.2203 91.9011L40.7363 92.6571ZM48.1353 92.3701C48.1863 92.3701 48.2113 92.3951 48.2113 92.4461V93.3661C48.2113 93.4171 48.1863 93.4421 48.1353 93.4421H43.4713C43.4203 93.4421 43.3953 93.4171 43.3953 93.3661V85.1221C43.3953 85.0711 43.4203 85.0461 43.4713 85.0461H44.3913C44.4423 85.0461 44.4673 85.0711 44.4673 85.1221V92.3701H48.1353ZM51.9483 85.0521C51.9993 85.0521 52.0243 85.0771 52.0243 85.1281V93.3661C52.0243 93.4171 51.9993 93.4421 51.9483 93.4421H51.0283C50.9773 93.4421 50.9523 93.4171 50.9523 93.3661V85.1281C50.9523 85.0771 50.9773 85.0521 51.0283 85.0521H51.9483ZM61.5153 92.6571C61.5423 92.7001 61.5353 92.7351 61.4923 92.7621C60.8003 93.2161 60.0363 93.4421 59.2013 93.4421C58.6153 93.4421 58.0543 93.3251 57.5193 93.0911C57.0033 92.8641 56.5503 92.5441 56.1603 92.1301C55.3273 91.2551 54.9453 90.2141 55.0113 89.0071C55.0703 87.9681 55.4683 87.0711 56.2063 86.3171C56.9413 85.5631 57.8273 85.1451 58.8673 85.0631C59.8203 84.9891 60.6933 85.2101 61.4863 85.7251C61.5293 85.7531 61.5363 85.7881 61.5093 85.8311L60.9943 86.5871C60.9663 86.6301 60.9313 86.6371 60.8883 86.6101C60.3023 86.2311 59.6583 86.0691 58.9543 86.1241C58.1583 86.1861 57.4803 86.5141 56.9213 87.1081C56.3673 87.7021 56.0833 88.4011 56.0723 89.2061C56.0603 90.0771 56.3633 90.8231 56.9803 91.4441C57.5933 92.0651 58.3333 92.3761 59.2013 92.3761C59.8183 92.3761 60.3823 92.2101 60.8943 91.8781C60.9373 91.8501 60.9723 91.8581 60.9993 91.9011L61.5153 92.6571ZM70.1503 93.3131C70.1783 93.3371 70.1833 93.3641 70.1683 93.3951C70.1563 93.4271 70.1333 93.4421 70.0983 93.4421H68.7563C68.7323 93.4421 68.7153 93.4341 68.7033 93.4191L65.2463 90.1781V93.3661C65.2463 93.4171 65.2213 93.4421 65.1703 93.4421H64.2503C64.1993 93.4421 64.1743 93.4171 64.1743 93.3661V85.1221C64.1743 85.0711 64.1993 85.0461 64.2503 85.0461H65.1703C65.2213 85.0461 65.2463 85.0711 65.2463 85.1221V88.2391L68.4223 85.0751C68.4373 85.0591 68.4553 85.0521 68.4753 85.0521H69.7753C69.8103 85.0521 69.8343 85.0671 69.8463 85.0981C69.8613 85.1301 69.8573 85.1571 69.8343 85.1801L65.7853 89.2181L70.1503 93.3131Z" fill="white"/>
<path d="M40.7363 92.6571C40.7633 92.7001 40.7563 92.7351 40.7133 92.7621C40.0213 93.2161 39.2573 93.4421 38.4223 93.4421C37.8363 93.4421 37.2753 93.3251 36.7403 93.0911C36.2243 92.8641 35.7713 92.5441 35.3813 92.1301C34.5483 91.2551 34.1663 90.2141 34.2323 89.0071C34.2913 87.9681 34.6893 87.0711 35.4273 86.3171C36.1623 85.5631 37.0483 85.1451 38.0883 85.0631C39.0413 84.9891 39.9143 85.2101 40.7073 85.7251C40.7503 85.7531 40.7573 85.7881 40.7303 85.8311L40.2153 86.5871C40.1873 86.6301 40.1523 86.6371 40.1093 86.6101C39.5233 86.2311 38.8793 86.0691 38.1753 86.1241C37.3793 86.1861 36.7013 86.5141 36.1423 87.1081C35.5883 87.7021 35.3043 88.4011 35.2933 89.2061C35.2813 90.0771 35.5843 90.8231 36.2013 91.4441C36.8143 92.0651 37.5543 92.3761 38.4223 92.3761C39.0393 92.3761 39.6033 92.2101 40.1153 91.8781C40.1583 91.8501 40.1933 91.8581 40.2203 91.9011L40.7363 92.6571ZM48.1353 92.3701C48.1863 92.3701 48.2113 92.3951 48.2113 92.4461V93.3661C48.2113 93.4171 48.1863 93.4421 48.1353 93.4421H43.4713C43.4203 93.4421 43.3953 93.4171 43.3953 93.3661V85.1221C43.3953 85.0711 43.4203 85.0461 43.4713 85.0461H44.3913C44.4423 85.0461 44.4673 85.0711 44.4673 85.1221V92.3701H48.1353ZM51.9483 85.0521C51.9993 85.0521 52.0243 85.0771 52.0243 85.1281V93.3661C52.0243 93.4171 51.9993 93.4421 51.9483 93.4421H51.0283C50.9773 93.4421 50.9523 93.4171 50.9523 93.3661V85.1281C50.9523 85.0771 50.9773 85.0521 51.0283 85.0521H51.9483ZM61.5153 92.6571C61.5423 92.7001 61.5353 92.7351 61.4923 92.7621C60.8003 93.2161 60.0363 93.4421 59.2013 93.4421C58.6153 93.4421 58.0543 93.3251 57.5193 93.0911C57.0033 92.8641 56.5503 92.5441 56.1603 92.1301C55.3273 91.2551 54.9453 90.2141 55.0113 89.0071C55.0703 87.9681 55.4683 87.0711 56.2063 86.3171C56.9413 85.5631 57.8273 85.1451 58.8673 85.0631C59.8203 84.9891 60.6933 85.2101 61.4863 85.7251C61.5293 85.7531 61.5363 85.7881 61.5093 85.8311L60.9943 86.5871C60.9663 86.6301 60.9313 86.6371 60.8883 86.6101C60.3023 86.2311 59.6583 86.0691 58.9543 86.1241C58.1583 86.1861 57.4803 86.5141 56.9213 87.1081C56.3673 87.7021 56.0833 88.4011 56.0723 89.2061C56.0603 90.0771 56.3633 90.8231 56.9803 91.4441C57.5933 92.0651 58.3333 92.3761 59.2013 92.3761C59.8183 92.3761 60.3823 92.2101 60.8943 91.8781C60.9373 91.8501 60.9723 91.8581 60.9993 91.9011L61.5153 92.6571ZM70.1503 93.3131C70.1783 93.3371 70.1833 93.3641 70.1683 93.3951C70.1563 93.4271 70.1333 93.4421 70.0983 93.4421H68.7563C68.7323 93.4421 68.7153 93.4341 68.7033 93.4191L65.2463 90.1781V93.3661C65.2463 93.4171 65.2213 93.4421 65.1703 93.4421H64.2503C64.1993 93.4421 64.1743 93.4171 64.1743 93.3661V85.1221C64.1743 85.0711 64.1993 85.0461 64.2503 85.0461H65.1703C65.2213 85.0461 65.2463 85.0711 65.2463 85.1221V88.2391L68.4223 85.0751C68.4373 85.0591 68.4553 85.0521 68.4753 85.0521H69.7753C69.8103 85.0521 69.8343 85.0671 69.8463 85.0981C69.8613 85.1301 69.8573 85.1571 69.8343 85.1801L65.7853 89.2181L70.1503 93.3131Z" stroke="white" stroke-width="0.25" stroke-miterlimit="4.78"/>
<path d="M43.4962 27.7475C46.6152 27.5465 50.2112 27.6845 53.5102 27.6845C56.8442 27.6845 60.4482 27.4605 62.9562 28.1255C65.4362 28.7825 67.6162 30.1295 69.0652 31.9045C70.4352 33.5815 71.6662 35.8235 71.8362 39.0205C72.0182 42.4355 71.8362 45.2245 71.8362 48.9715C71.8362 52.3335 72.0972 55.8795 71.4582 58.4805C70.2722 63.3115 66.1872 66.9335 60.5002 67.2975C57.1702 67.5105 53.9392 67.3605 50.6122 67.3605C47.5332 67.3605 43.7342 67.6625 41.1032 66.9825C36.2992 65.7425 32.5882 61.8655 32.2232 56.0875C32.0312 53.0485 32.1602 49.3695 32.1602 46.2005C32.1602 42.8895 31.9212 39.1445 32.5382 36.6905C33.4962 32.8755 35.9392 30.1965 39.4022 28.6925C40.6532 28.1485 41.9492 27.8475 43.4962 27.7475Z" fill="white"/>
<path d="M65.0739 58.4746H38.9559V36.5916H65.0739V58.4746Z" fill="#003882"/>
<path d="M36.5729 34.3268H67.3639V56.2388C67.3639 57.5758 67.6719 61.1138 67.1749 61.5278C66.8139 61.8288 66.2169 61.5278 64.9089 61.5278C52.3579 61.5278 48.1479 61.6828 36.5729 61.3388V34.3268ZM39.9729 42.0708C39.3929 43.8708 39.2749 51.9018 40.1619 53.7838C41.5799 56.7948 46.1349 56.0508 51.4959 56.0508C57.3259 56.0508 62.3529 56.8868 63.5869 53.4058C64.3259 51.3188 64.0769 43.2698 63.5869 41.8818C62.3559 38.3978 57.2139 39.2378 52.4409 39.2378C49.1709 39.2378 45.4849 38.9078 43.1839 39.4268C41.3319 39.8438 40.2969 41.0638 39.9729 42.0708Z" fill="white"/>
<path d="M49.6071 44.716C51.7191 45.709 52.8731 46.275 55.4631 47.55C53.5911 48.637 51.6071 49.612 49.6071 50.572V44.716Z" fill="white"/>
<path d="M0 -1.2517e-06L0 174L17 87.182L0 -1.2517e-06Z" fill="#C7D886"/>
</svg>
