<svg width="93" height="176" viewBox="0 0 93 176" fill="none" xmlns="http://www.w3.org/2000/svg">
<path d="M0 175.061H92.976V0.750305H0V175.061Z" fill="#C7D886"/>
<path d="M30.8379 129.159C30.8889 129.159 30.9139 129.184 30.9139 129.235V137.473C30.9139 137.524 30.8889 137.55 30.8379 137.55H29.9709C29.9199 137.55 29.8949 137.524 29.8949 137.473V131.257L27.5329 133.893C27.4939 133.932 27.4569 133.932 27.4219 133.893L25.0669 131.263V137.473C25.0669 137.524 25.0409 137.55 24.9899 137.55H24.1229C24.0719 137.55 24.0469 137.524 24.0469 137.473V129.235C24.0469 129.184 24.0719 129.159 24.1229 129.159H24.4629C24.5219 129.159 24.5719 129.182 24.6149 129.229L27.4749 132.429L30.3399 129.229C30.3829 129.182 30.4339 129.159 30.4919 129.159H30.8379ZM38.0319 136.477C38.8909 136.477 39.6279 136.173 40.2409 135.563C40.8499 134.954 41.1549 134.218 41.1549 133.354C41.1549 132.495 40.8499 131.759 40.2409 131.145C39.6279 130.536 38.8909 130.231 38.0319 130.231C37.1689 130.231 36.4319 130.536 35.8229 131.145C35.2139 131.759 34.9089 132.495 34.9089 133.354C34.9089 134.218 35.2139 134.954 35.8229 135.563C36.4319 136.173 37.1689 136.477 38.0319 136.477ZM38.0319 129.159C39.1879 129.159 40.1759 129.569 40.9969 130.389C41.8169 131.21 42.2269 132.198 42.2269 133.354C42.2269 134.511 41.8169 135.499 40.9969 136.319C40.1759 137.139 39.1879 137.55 38.0319 137.55C36.8759 137.55 35.8869 137.139 35.0669 136.319C34.2469 135.499 33.8369 134.511 33.8369 133.354C33.8369 132.198 34.2469 131.21 35.0669 130.389C35.8869 129.569 36.8759 129.159 38.0319 129.159ZM48.5479 132.845C48.9109 132.845 49.2219 132.716 49.4799 132.458C49.7379 132.2 49.8659 131.891 49.8659 131.532C49.8659 131.169 49.7379 130.858 49.4799 130.6C49.2219 130.347 48.9109 130.22 48.5479 130.22H46.4559V132.845H48.5479ZM51.0439 137.438C51.0559 137.462 51.0539 137.487 51.0379 137.514C51.0269 137.538 51.0049 137.55 50.9739 137.55H49.9309C49.8999 137.55 49.8779 137.536 49.8659 137.509L47.8979 133.917L47.9039 133.911H46.4559V137.456C46.4559 137.507 46.4309 137.532 46.3799 137.532H45.4659C45.4149 137.532 45.3899 137.507 45.3899 137.456V129.229C45.3899 129.179 45.4149 129.153 45.4659 129.153H48.5479C49.2199 129.153 49.7899 129.393 50.2589 129.874C50.7279 130.354 50.9519 130.931 50.9329 131.602C50.9129 132.145 50.7279 132.626 50.3759 133.044C50.0279 133.45 49.5929 133.716 49.0699 133.841L51.0439 137.438ZM59.5099 129.159C59.5599 129.159 59.5859 129.184 59.5859 129.235V130.149C59.5859 130.2 59.5599 130.225 59.5099 130.225H55.0509V132.821H58.2789C58.3299 132.821 58.3549 132.847 58.3549 132.897V133.811C58.3549 133.862 58.3299 133.888 58.2789 133.888H55.0509V136.483H59.5099C59.5599 136.483 59.5859 136.509 59.5859 136.559V137.473C59.5859 137.524 59.5599 137.55 59.5099 137.55H54.0599C54.0099 137.55 53.9839 137.524 53.9839 137.473V129.235C53.9839 129.184 54.0099 129.159 54.0599 129.159H59.5099ZM63.1459 135.378H63.6859L63.8539 131.598V128.91H62.9779V131.598L63.1459 135.378ZM63.8539 136.494H62.9779V137.55H63.8539V136.494Z" fill="#083783"/>
<path d="M30.8379 129.159C30.8889 129.159 30.9139 129.184 30.9139 129.235V137.473C30.9139 137.524 30.8889 137.55 30.8379 137.55H29.9709C29.9199 137.55 29.8949 137.524 29.8949 137.473V131.257L27.5329 133.893C27.4939 133.932 27.4569 133.932 27.4219 133.893L25.0669 131.263V137.473C25.0669 137.524 25.0409 137.55 24.9899 137.55H24.1229C24.0719 137.55 24.0469 137.524 24.0469 137.473V129.235C24.0469 129.184 24.0719 129.159 24.1229 129.159H24.4629C24.5219 129.159 24.5719 129.182 24.6149 129.229L27.4749 132.429L30.3399 129.229C30.3829 129.182 30.4339 129.159 30.4919 129.159H30.8379ZM38.0319 136.477C38.8909 136.477 39.6279 136.173 40.2409 135.563C40.8499 134.954 41.1549 134.218 41.1549 133.354C41.1549 132.495 40.8499 131.759 40.2409 131.145C39.6279 130.536 38.8909 130.231 38.0319 130.231C37.1689 130.231 36.4319 130.536 35.8229 131.145C35.2139 131.759 34.9089 132.495 34.9089 133.354C34.9089 134.218 35.2139 134.954 35.8229 135.563C36.4319 136.173 37.1689 136.477 38.0319 136.477ZM38.0319 129.159C39.1879 129.159 40.1759 129.569 40.9969 130.389C41.8169 131.21 42.2269 132.198 42.2269 133.354C42.2269 134.511 41.8169 135.499 40.9969 136.319C40.1759 137.139 39.1879 137.55 38.0319 137.55C36.8759 137.55 35.8869 137.139 35.0669 136.319C34.2469 135.499 33.8369 134.511 33.8369 133.354C33.8369 132.198 34.2469 131.21 35.0669 130.389C35.8869 129.569 36.8759 129.159 38.0319 129.159ZM48.5479 132.845C48.9109 132.845 49.2219 132.716 49.4799 132.458C49.7379 132.2 49.8659 131.891 49.8659 131.532C49.8659 131.169 49.7379 130.858 49.4799 130.6C49.2219 130.347 48.9109 130.22 48.5479 130.22H46.4559V132.845H48.5479ZM51.0439 137.438C51.0559 137.462 51.0539 137.487 51.0379 137.514C51.0269 137.538 51.0049 137.55 50.9739 137.55H49.9309C49.8999 137.55 49.8779 137.536 49.8659 137.509L47.8979 133.917L47.9039 133.911H46.4559V137.456C46.4559 137.507 46.4309 137.532 46.3799 137.532H45.4659C45.4149 137.532 45.3899 137.507 45.3899 137.456V129.229C45.3899 129.179 45.4149 129.153 45.4659 129.153H48.5479C49.2199 129.153 49.7899 129.393 50.2589 129.874C50.7279 130.354 50.9519 130.931 50.9329 131.602C50.9129 132.145 50.7279 132.626 50.3759 133.044C50.0279 133.45 49.5929 133.716 49.0699 133.841L51.0439 137.438ZM59.5099 129.159C59.5599 129.159 59.5859 129.184 59.5859 129.235V130.149C59.5859 130.2 59.5599 130.225 59.5099 130.225H55.0509V132.821H58.2789C58.3299 132.821 58.3549 132.847 58.3549 132.897V133.811C58.3549 133.862 58.3299 133.888 58.2789 133.888H55.0509V136.483H59.5099C59.5599 136.483 59.5859 136.509 59.5859 136.559V137.473C59.5859 137.524 59.5599 137.55 59.5099 137.55H54.0599C54.0099 137.55 53.9839 137.524 53.9839 137.473V129.235C53.9839 129.184 54.0099 129.159 54.0599 129.159H59.5099ZM63.1459 135.378H63.6859L63.8539 131.598V128.91H62.9779V131.598L63.1459 135.378ZM63.8539 136.494H62.9779V137.55H63.8539V136.494Z" stroke="#083783" stroke-width="0.25" stroke-miterlimit="4.78"/>
<path d="M33.8664 114.759C33.9174 114.759 33.9424 114.784 33.9424 114.835V123.073C33.9424 123.124 33.9174 123.15 33.8664 123.15H32.9464C32.8954 123.15 32.8704 123.124 32.8704 123.073V119.476H28.9504V123.062C28.9504 123.113 28.9254 123.138 28.8744 123.138H27.9544C27.9034 123.138 27.8784 123.113 27.8784 123.062V114.823C27.8784 114.773 27.9034 114.747 27.9544 114.747H28.8744C28.9254 114.747 28.9504 114.773 28.9504 114.823V118.404H32.8704V114.835C32.8704 114.784 32.8954 114.759 32.9464 114.759H33.8664ZM42.9944 114.759C43.0444 114.759 43.0704 114.784 43.0704 114.835V115.749C43.0704 115.8 43.0444 115.825 42.9944 115.825H38.5354V118.421H41.7634C41.8144 118.421 41.8394 118.447 41.8394 118.497V119.411C41.8394 119.462 41.8144 119.488 41.7634 119.488H38.5354V122.083H42.9944C43.0444 122.083 43.0704 122.109 43.0704 122.159V123.073C43.0704 123.124 43.0444 123.15 42.9944 123.15H37.5444C37.4934 123.15 37.4684 123.124 37.4684 123.073V114.835C37.4684 114.784 37.4934 114.759 37.5444 114.759H42.9944ZM49.9764 118.849L48.9224 116.3L47.8614 118.849H49.9764ZM49.3264 114.741C49.3614 114.741 49.3854 114.757 49.3964 114.788L52.8244 123.044C52.8364 123.068 52.8344 123.091 52.8184 123.114C52.8034 123.138 52.7814 123.15 52.7544 123.15H51.8164C51.7814 123.15 51.7584 123.134 51.7464 123.103L50.4044 119.868H47.4344L46.0924 123.103C46.0804 123.134 46.0574 123.15 46.0214 123.15H45.0844C45.0574 123.15 45.0354 123.138 45.0194 123.114C45.0044 123.091 45.0024 123.068 45.0144 123.044L48.4414 114.788C48.4574 114.757 48.4804 114.741 48.5124 114.741H49.3264ZM58.6064 118.445C58.9694 118.445 59.2804 118.316 59.5384 118.058C59.7954 117.8 59.9244 117.491 59.9244 117.132C59.9244 116.769 59.7954 116.458 59.5384 116.2C59.2804 115.947 58.9694 115.82 58.6064 115.82H56.5144V118.445H58.6064ZM61.1024 123.038C61.1144 123.062 61.1124 123.087 61.0964 123.114C61.0844 123.138 61.0634 123.15 61.0324 123.15H59.9894C59.9574 123.15 59.9364 123.136 59.9244 123.109L57.9564 119.517L57.9614 119.511H56.5144V123.056C56.5144 123.107 56.4894 123.132 56.4384 123.132H55.5244C55.4734 123.132 55.4484 123.107 55.4484 123.056V114.829C55.4484 114.779 55.4734 114.753 55.5244 114.753H58.6064C59.2784 114.753 59.8484 114.993 60.3174 115.474C60.7864 115.954 61.0104 116.531 60.9914 117.202C60.9714 117.745 60.7864 118.226 60.4344 118.644C60.0864 119.05 59.6514 119.316 59.1274 119.441L61.1024 123.038Z" fill="#083783"/>
<path d="M33.8664 114.759C33.9174 114.759 33.9424 114.784 33.9424 114.835V123.073C33.9424 123.124 33.9174 123.15 33.8664 123.15H32.9464C32.8954 123.15 32.8704 123.124 32.8704 123.073V119.476H28.9504V123.062C28.9504 123.113 28.9254 123.138 28.8744 123.138H27.9544C27.9034 123.138 27.8784 123.113 27.8784 123.062V114.823C27.8784 114.773 27.9034 114.747 27.9544 114.747H28.8744C28.9254 114.747 28.9504 114.773 28.9504 114.823V118.404H32.8704V114.835C32.8704 114.784 32.8954 114.759 32.9464 114.759H33.8664ZM42.9944 114.759C43.0444 114.759 43.0704 114.784 43.0704 114.835V115.749C43.0704 115.8 43.0444 115.825 42.9944 115.825H38.5354V118.421H41.7634C41.8144 118.421 41.8394 118.447 41.8394 118.497V119.411C41.8394 119.462 41.8144 119.488 41.7634 119.488H38.5354V122.083H42.9944C43.0444 122.083 43.0704 122.109 43.0704 122.159V123.073C43.0704 123.124 43.0444 123.15 42.9944 123.15H37.5444C37.4934 123.15 37.4684 123.124 37.4684 123.073V114.835C37.4684 114.784 37.4934 114.759 37.5444 114.759H42.9944ZM49.9764 118.849L48.9224 116.3L47.8614 118.849H49.9764ZM49.3264 114.741C49.3614 114.741 49.3854 114.757 49.3964 114.788L52.8244 123.044C52.8364 123.068 52.8344 123.091 52.8184 123.114C52.8034 123.138 52.7814 123.15 52.7544 123.15H51.8164C51.7814 123.15 51.7584 123.134 51.7464 123.103L50.4044 119.868H47.4344L46.0924 123.103C46.0804 123.134 46.0574 123.15 46.0214 123.15H45.0844C45.0574 123.15 45.0354 123.138 45.0194 123.114C45.0044 123.091 45.0024 123.068 45.0144 123.044L48.4414 114.788C48.4574 114.757 48.4804 114.741 48.5124 114.741H49.3264ZM58.6064 118.445C58.9694 118.445 59.2804 118.316 59.5384 118.058C59.7954 117.8 59.9244 117.491 59.9244 117.132C59.9244 116.769 59.7954 116.458 59.5384 116.2C59.2804 115.947 58.9694 115.82 58.6064 115.82H56.5144V118.445H58.6064ZM61.1024 123.038C61.1144 123.062 61.1124 123.087 61.0964 123.114C61.0844 123.138 61.0634 123.15 61.0324 123.15H59.9894C59.9574 123.15 59.9364 123.136 59.9244 123.109L57.9564 119.517L57.9614 119.511H56.5144V123.056C56.5144 123.107 56.4894 123.132 56.4384 123.132H55.5244C55.4734 123.132 55.4484 123.107 55.4484 123.056V114.829C55.4484 114.779 55.4734 114.753 55.5244 114.753H58.6064C59.2784 114.753 59.8484 114.993 60.3174 115.474C60.7864 115.954 61.0104 116.531 60.9914 117.202C60.9714 117.745 60.7864 118.226 60.4344 118.644C60.0864 119.05 59.6514 119.316 59.1274 119.441L61.1024 123.038Z" stroke="#083783" stroke-width="0.25" stroke-miterlimit="4.78"/>
<path d="M22.8969 100.359C22.9479 100.359 22.9729 100.384 22.9729 100.435V108.673C22.9729 108.724 22.9479 108.75 22.8969 108.75H21.9769C21.9259 108.75 21.9009 108.724 21.9009 108.673V105.076H17.9809V108.662C17.9809 108.713 17.9559 108.738 17.9049 108.738H16.9849C16.9339 108.738 16.9089 108.713 16.9089 108.662V100.423C16.9089 100.373 16.9339 100.347 16.9849 100.347H17.9049C17.9559 100.347 17.9809 100.373 17.9809 100.423V104.004H21.9009V100.435C21.9009 100.384 21.9259 100.359 21.9769 100.359H22.8969ZM32.0249 100.359C32.0749 100.359 32.1009 100.384 32.1009 100.435V101.349C32.1009 101.4 32.0749 101.425 32.0249 101.425H27.5659V104.021H30.7939C30.8449 104.021 30.8699 104.047 30.8699 104.097V105.011C30.8699 105.062 30.8449 105.088 30.7939 105.088H27.5659V107.683H32.0249C32.0749 107.683 32.1009 107.709 32.1009 107.759V108.673C32.1009 108.724 32.0749 108.75 32.0249 108.75H26.5749C26.5239 108.75 26.4989 108.724 26.4989 108.673V100.435C26.4989 100.384 26.5239 100.359 26.5749 100.359H32.0249ZM38.1109 104.045C38.4739 104.045 38.7849 103.916 39.0429 103.658C39.2999 103.4 39.4289 103.091 39.4289 102.732C39.4289 102.369 39.2999 102.058 39.0429 101.8C38.7849 101.547 38.4739 101.42 38.1109 101.42H36.0189V104.045H38.1109ZM40.6069 108.638C40.6189 108.662 40.6169 108.687 40.6009 108.714C40.5899 108.738 40.5679 108.75 40.5369 108.75H39.4939C39.4619 108.75 39.4409 108.736 39.4289 108.709L37.4609 105.117L37.4659 105.111H36.0189V108.656C36.0189 108.707 35.9939 108.732 35.9429 108.732H35.0289C34.9779 108.732 34.9529 108.707 34.9529 108.656V100.429C34.9529 100.379 34.9779 100.353 35.0289 100.353H38.1109C38.7829 100.353 39.3529 100.593 39.8219 101.074C40.2909 101.554 40.5149 102.131 40.4959 102.802C40.4759 103.345 40.2909 103.826 39.9389 104.244C39.5909 104.65 39.1559 104.916 38.6319 105.041L40.6069 108.638ZM49.0719 100.359C49.1229 100.359 49.1489 100.384 49.1489 100.435V101.349C49.1489 101.4 49.1229 101.425 49.0719 101.425H44.6129V104.021H47.8419C47.8929 104.021 47.9179 104.047 47.9179 104.097V105.011C47.9179 105.062 47.8929 105.088 47.8419 105.088H44.6129V107.683H49.0719C49.1229 107.683 49.1489 107.709 49.1489 107.759V108.673C49.1489 108.724 49.1229 108.75 49.0719 108.75H43.6229C43.5719 108.75 43.5469 108.724 43.5469 108.673V100.435C43.5469 100.384 43.5719 100.359 43.6229 100.359H49.0719ZM61.2919 100.359C61.3429 100.359 61.3679 100.384 61.3679 100.435V101.349C61.3679 101.4 61.3429 101.425 61.2919 101.425H59.0949V108.673C59.0949 108.724 59.0699 108.75 59.0189 108.75H58.1049C58.0539 108.75 58.0289 108.724 58.0289 108.673V101.425H55.8259C55.7749 101.425 55.7489 101.4 55.7489 101.349V100.435C55.7489 100.384 55.7749 100.359 55.8259 100.359H61.2919ZM67.6539 107.677C68.5139 107.677 69.2499 107.373 69.8629 106.763C70.4729 106.154 70.7769 105.418 70.7769 104.554C70.7769 103.695 70.4729 102.959 69.8629 102.345C69.2499 101.736 68.5139 101.431 67.6539 101.431C66.7909 101.431 66.0549 101.736 65.4449 102.345C64.8359 102.959 64.5309 103.695 64.5309 104.554C64.5309 105.418 64.8359 106.154 65.4449 106.763C66.0549 107.373 66.7909 107.677 67.6539 107.677ZM67.6539 100.359C68.8099 100.359 69.7989 100.769 70.6189 101.589C71.4389 102.41 71.8489 103.398 71.8489 104.554C71.8489 105.711 71.4389 106.699 70.6189 107.519C69.7989 108.339 68.8099 108.75 67.6539 108.75C66.4979 108.75 65.5099 108.339 64.6889 107.519C63.8689 106.699 63.4589 105.711 63.4589 104.554C63.4589 103.398 63.8689 102.41 64.6889 101.589C65.5099 100.769 66.4979 100.359 67.6539 100.359Z" fill="#083783"/>
<path d="M22.8969 100.359C22.9479 100.359 22.9729 100.384 22.9729 100.435V108.673C22.9729 108.724 22.9479 108.75 22.8969 108.75H21.9769C21.9259 108.75 21.9009 108.724 21.9009 108.673V105.076H17.9809V108.662C17.9809 108.713 17.9559 108.738 17.9049 108.738H16.9849C16.9339 108.738 16.9089 108.713 16.9089 108.662V100.423C16.9089 100.373 16.9339 100.347 16.9849 100.347H17.9049C17.9559 100.347 17.9809 100.373 17.9809 100.423V104.004H21.9009V100.435C21.9009 100.384 21.9259 100.359 21.9769 100.359H22.8969ZM32.0249 100.359C32.0749 100.359 32.1009 100.384 32.1009 100.435V101.349C32.1009 101.4 32.0749 101.425 32.0249 101.425H27.5659V104.021H30.7939C30.8449 104.021 30.8699 104.047 30.8699 104.097V105.011C30.8699 105.062 30.8449 105.088 30.7939 105.088H27.5659V107.683H32.0249C32.0749 107.683 32.1009 107.709 32.1009 107.759V108.673C32.1009 108.724 32.0749 108.75 32.0249 108.75H26.5749C26.5239 108.75 26.4989 108.724 26.4989 108.673V100.435C26.4989 100.384 26.5239 100.359 26.5749 100.359H32.0249ZM38.1109 104.045C38.4739 104.045 38.7849 103.916 39.0429 103.658C39.2999 103.4 39.4289 103.091 39.4289 102.732C39.4289 102.369 39.2999 102.058 39.0429 101.8C38.7849 101.547 38.4739 101.42 38.1109 101.42H36.0189V104.045H38.1109ZM40.6069 108.638C40.6189 108.662 40.6169 108.687 40.6009 108.714C40.5899 108.738 40.5679 108.75 40.5369 108.75H39.4939C39.4619 108.75 39.4409 108.736 39.4289 108.709L37.4609 105.117L37.4659 105.111H36.0189V108.656C36.0189 108.707 35.9939 108.732 35.9429 108.732H35.0289C34.9779 108.732 34.9529 108.707 34.9529 108.656V100.429C34.9529 100.379 34.9779 100.353 35.0289 100.353H38.1109C38.7829 100.353 39.3529 100.593 39.8219 101.074C40.2909 101.554 40.5149 102.131 40.4959 102.802C40.4759 103.345 40.2909 103.826 39.9389 104.244C39.5909 104.65 39.1559 104.916 38.6319 105.041L40.6069 108.638ZM49.0719 100.359C49.1229 100.359 49.1489 100.384 49.1489 100.435V101.349C49.1489 101.4 49.1229 101.425 49.0719 101.425H44.6129V104.021H47.8419C47.8929 104.021 47.9179 104.047 47.9179 104.097V105.011C47.9179 105.062 47.8929 105.088 47.8419 105.088H44.6129V107.683H49.0719C49.1229 107.683 49.1489 107.709 49.1489 107.759V108.673C49.1489 108.724 49.1229 108.75 49.0719 108.75H43.6229C43.5719 108.75 43.5469 108.724 43.5469 108.673V100.435C43.5469 100.384 43.5719 100.359 43.6229 100.359H49.0719ZM61.2919 100.359C61.3429 100.359 61.3679 100.384 61.3679 100.435V101.349C61.3679 101.4 61.3429 101.425 61.2919 101.425H59.0949V108.673C59.0949 108.724 59.0699 108.75 59.0189 108.75H58.1049C58.0539 108.75 58.0289 108.724 58.0289 108.673V101.425H55.8259C55.7749 101.425 55.7489 101.4 55.7489 101.349V100.435C55.7489 100.384 55.7749 100.359 55.8259 100.359H61.2919ZM67.6539 107.677C68.5139 107.677 69.2499 107.373 69.8629 106.763C70.4729 106.154 70.7769 105.418 70.7769 104.554C70.7769 103.695 70.4729 102.959 69.8629 102.345C69.2499 101.736 68.5139 101.431 67.6539 101.431C66.7909 101.431 66.0549 101.736 65.4449 102.345C64.8359 102.959 64.5309 103.695 64.5309 104.554C64.5309 105.418 64.8359 106.154 65.4449 106.763C66.0549 107.373 66.7909 107.677 67.6539 107.677ZM67.6539 100.359C68.8099 100.359 69.7989 100.769 70.6189 101.589C71.4389 102.41 71.8489 103.398 71.8489 104.554C71.8489 105.711 71.4389 106.699 70.6189 107.519C69.7989 108.339 68.8099 108.75 67.6539 108.75C66.4979 108.75 65.5099 108.339 64.6889 107.519C63.8689 106.699 63.4589 105.711 63.4589 104.554C63.4589 103.398 63.8689 102.41 64.6889 101.589C65.5099 100.769 66.4979 100.359 67.6539 100.359Z" stroke="#083783" stroke-width="0.25" stroke-miterlimit="4.78"/>
<path d="M32.9412 93.5641C32.9682 93.6071 32.9612 93.6421 32.9182 93.6691C32.2262 94.1231 31.4622 94.3491 30.6272 94.3491C30.0412 94.3491 29.4802 94.2321 28.9452 93.9981C28.4292 93.7711 27.9762 93.4511 27.5862 93.0371C26.7532 92.1621 26.3712 91.1211 26.4372 89.9141C26.4962 88.8751 26.8942 87.9781 27.6322 87.2241C28.3672 86.4701 29.2532 86.0521 30.2932 85.9701C31.2462 85.8961 32.1192 86.1171 32.9122 86.6321C32.9552 86.6601 32.9622 86.6951 32.9352 86.7381L32.4202 87.4941C32.3922 87.5371 32.3572 87.5441 32.3142 87.5171C31.7282 87.1381 31.0842 86.9761 30.3802 87.0311C29.5842 87.0931 28.9062 87.4211 28.3472 88.0151C27.7932 88.6091 27.5092 89.3081 27.4982 90.1131C27.4862 90.9841 27.7892 91.7301 28.4062 92.3511C29.0192 92.9721 29.7592 93.2831 30.6272 93.2831C31.2442 93.2831 31.8082 93.1171 32.3202 92.7851C32.3632 92.7571 32.3982 92.7651 32.4252 92.8081L32.9412 93.5641ZM40.3402 93.2771C40.3912 93.2771 40.4162 93.3021 40.4162 93.3531V94.2731C40.4162 94.3241 40.3912 94.3491 40.3402 94.3491H35.6762C35.6252 94.3491 35.6002 94.3241 35.6002 94.2731V86.0291C35.6002 85.9781 35.6252 85.9531 35.6762 85.9531H36.5962C36.6472 85.9531 36.6722 85.9781 36.6722 86.0291V93.2771H40.3402ZM44.1532 85.9591C44.2042 85.9591 44.2292 85.9841 44.2292 86.0351V94.2731C44.2292 94.3241 44.2042 94.3491 44.1532 94.3491H43.2332C43.1822 94.3491 43.1572 94.3241 43.1572 94.2731V86.0351C43.1572 85.9841 43.1822 85.9591 43.2332 85.9591H44.1532ZM53.7202 93.5641C53.7472 93.6071 53.7392 93.6421 53.6972 93.6691C53.0052 94.1231 52.2412 94.3491 51.4062 94.3491C50.8202 94.3491 50.2592 94.2321 49.7242 93.9981C49.2082 93.7711 48.7552 93.4511 48.3652 93.0371C47.5322 92.1621 47.1502 91.1211 47.2162 89.9141C47.2752 88.8751 47.6732 87.9781 48.4112 87.2241C49.1462 86.4701 50.0322 86.0521 51.0722 85.9701C52.0252 85.8961 52.8982 86.1171 53.6912 86.6321C53.7342 86.6601 53.7412 86.6951 53.7142 86.7381L53.1992 87.4941C53.1712 87.5371 53.1362 87.5441 53.0932 87.5171C52.5072 87.1381 51.8632 86.9761 51.1592 87.0311C50.3632 87.0931 49.6852 87.4211 49.1262 88.0151C48.5722 88.6091 48.2882 89.3081 48.2772 90.1131C48.2652 90.9841 48.5682 91.7301 49.1852 92.3511C49.7982 92.9721 50.5382 93.2831 51.4062 93.2831C52.0232 93.2831 52.5872 93.1171 53.0992 92.7851C53.1422 92.7571 53.1772 92.7651 53.2042 92.8081L53.7202 93.5641ZM62.3552 94.2201C62.3832 94.2441 62.3882 94.2711 62.3732 94.3021C62.3612 94.3341 62.3382 94.3491 62.3032 94.3491H60.9612C60.9372 94.3491 60.9202 94.3411 60.9082 94.3261L57.4512 91.0851V94.2731C57.4512 94.3241 57.4262 94.3491 57.3752 94.3491H56.4552C56.4042 94.3491 56.3792 94.3241 56.3792 94.2731V86.0291C56.3792 85.9781 56.4042 85.9531 56.4552 85.9531H57.3752C57.4262 85.9531 57.4512 85.9781 57.4512 86.0291V89.1461L60.6272 85.9821C60.6422 85.9661 60.6602 85.9591 60.6802 85.9591H61.9802C62.0152 85.9591 62.0392 85.9741 62.0512 86.0051C62.0662 86.0371 62.0622 86.0641 62.0392 86.0871L57.9902 90.1251L62.3552 94.2201Z" fill="#083783"/>
<path d="M32.9412 93.5641C32.9682 93.6071 32.9612 93.6421 32.9182 93.6691C32.2262 94.1231 31.4622 94.3491 30.6272 94.3491C30.0412 94.3491 29.4802 94.2321 28.9452 93.9981C28.4292 93.7711 27.9762 93.4511 27.5862 93.0371C26.7532 92.1621 26.3712 91.1211 26.4372 89.9141C26.4962 88.8751 26.8942 87.9781 27.6322 87.2241C28.3672 86.4701 29.2532 86.0521 30.2932 85.9701C31.2462 85.8961 32.1192 86.1171 32.9122 86.6321C32.9552 86.6601 32.9622 86.6951 32.9352 86.7381L32.4202 87.4941C32.3922 87.5371 32.3572 87.5441 32.3142 87.5171C31.7282 87.1381 31.0842 86.9761 30.3802 87.0311C29.5842 87.0931 28.9062 87.4211 28.3472 88.0151C27.7932 88.6091 27.5092 89.3081 27.4982 90.1131C27.4862 90.9841 27.7892 91.7301 28.4062 92.3511C29.0192 92.9721 29.7592 93.2831 30.6272 93.2831C31.2442 93.2831 31.8082 93.1171 32.3202 92.7851C32.3632 92.7571 32.3982 92.7651 32.4252 92.8081L32.9412 93.5641ZM40.3402 93.2771C40.3912 93.2771 40.4162 93.3021 40.4162 93.3531V94.2731C40.4162 94.3241 40.3912 94.3491 40.3402 94.3491H35.6762C35.6252 94.3491 35.6002 94.3241 35.6002 94.2731V86.0291C35.6002 85.9781 35.6252 85.9531 35.6762 85.9531H36.5962C36.6472 85.9531 36.6722 85.9781 36.6722 86.0291V93.2771H40.3402ZM44.1532 85.9591C44.2042 85.9591 44.2292 85.9841 44.2292 86.0351V94.2731C44.2292 94.3241 44.2042 94.3491 44.1532 94.3491H43.2332C43.1822 94.3491 43.1572 94.3241 43.1572 94.2731V86.0351C43.1572 85.9841 43.1822 85.9591 43.2332 85.9591H44.1532ZM53.7202 93.5641C53.7472 93.6071 53.7392 93.6421 53.6972 93.6691C53.0052 94.1231 52.2412 94.3491 51.4062 94.3491C50.8202 94.3491 50.2592 94.2321 49.7242 93.9981C49.2082 93.7711 48.7552 93.4511 48.3652 93.0371C47.5322 92.1621 47.1502 91.1211 47.2162 89.9141C47.2752 88.8751 47.6732 87.9781 48.4112 87.2241C49.1462 86.4701 50.0322 86.0521 51.0722 85.9701C52.0252 85.8961 52.8982 86.1171 53.6912 86.6321C53.7342 86.6601 53.7412 86.6951 53.7142 86.7381L53.1992 87.4941C53.1712 87.5371 53.1362 87.5441 53.0932 87.5171C52.5072 87.1381 51.8632 86.9761 51.1592 87.0311C50.3632 87.0931 49.6852 87.4211 49.1262 88.0151C48.5722 88.6091 48.2882 89.3081 48.2772 90.1131C48.2652 90.9841 48.5682 91.7301 49.1852 92.3511C49.7982 92.9721 50.5382 93.2831 51.4062 93.2831C52.0232 93.2831 52.5872 93.1171 53.0992 92.7851C53.1422 92.7571 53.1772 92.7651 53.2042 92.8081L53.7202 93.5641ZM62.3552 94.2201C62.3832 94.2441 62.3882 94.2711 62.3732 94.3021C62.3612 94.3341 62.3382 94.3491 62.3032 94.3491H60.9612C60.9372 94.3491 60.9202 94.3411 60.9082 94.3261L57.4512 91.0851V94.2731C57.4512 94.3241 57.4262 94.3491 57.3752 94.3491H56.4552C56.4042 94.3491 56.3792 94.3241 56.3792 94.2731V86.0291C56.3792 85.9781 56.4042 85.9531 56.4552 85.9531H57.3752C57.4262 85.9531 57.4512 85.9781 57.4512 86.0291V89.1461L60.6272 85.9821C60.6422 85.9661 60.6602 85.9591 60.6802 85.9591H61.9802C62.0152 85.9591 62.0392 85.9741 62.0512 86.0051C62.0662 86.0371 62.0622 86.0641 62.0392 86.0871L57.9902 90.1251L62.3552 94.2201Z" stroke="#083783" stroke-width="0.25" stroke-miterlimit="4.78"/>
<path d="M35.7011 28.6546C38.8201 28.4536 42.4161 28.5916 45.7151 28.5916C49.0491 28.5916 52.6531 28.3676 55.1611 29.0326C57.6411 29.6896 59.8211 31.0366 61.2701 32.8116C62.6401 34.4886 63.8711 36.7306 64.0411 39.9276C64.2231 43.3426 64.0411 46.1316 64.0411 49.8786C64.0411 53.2406 64.3021 56.7866 63.6631 59.3876C62.4771 64.2186 58.3921 67.8406 52.7051 68.2046C49.3751 68.4186 46.1441 68.2676 42.8171 68.2676C39.7381 68.2676 35.9391 68.5696 33.3081 67.8896C28.5041 66.6496 24.7931 62.7726 24.4281 56.9946C24.2361 53.9566 24.3651 50.2766 24.3651 47.1076C24.3651 43.7966 24.1261 40.0516 24.7431 37.5976C25.7011 33.7826 28.1441 31.1036 31.6071 29.5996C32.8581 29.0556 34.1541 28.7546 35.7011 28.6546Z" fill="white"/>
<path d="M57.2799 59.3813H31.1619V37.4984H57.2799V59.3813Z" fill="#003882"/>
<path d="M28.7778 35.2339H59.5688V57.1459C59.5688 58.4829 59.8768 62.0209 59.3798 62.4349C59.0188 62.7359 58.4218 62.4349 57.1138 62.4349C44.5628 62.4349 40.3528 62.5899 28.7778 62.2459V35.2339ZM32.1778 42.9779C31.5978 44.7779 31.4798 52.8089 32.3658 54.6909C33.7848 57.7019 38.3398 56.9579 43.7008 56.9579C49.5308 56.9579 54.5578 57.7939 55.7908 54.3129C56.5308 52.2259 56.2818 44.1769 55.7908 42.7889C54.5608 39.3049 49.4188 40.1449 44.6458 40.1449C41.3758 40.1449 37.6898 39.8149 35.3888 40.3339C33.5368 40.7509 32.5018 41.9709 32.1778 42.9779Z" fill="white"/>
<path d="M41.812 45.6232C43.924 46.6162 45.078 47.1822 47.668 48.4572C45.796 49.5442 43.812 50.5192 41.812 51.4792V45.6232Z" fill="white"/>
<path d="M93 -1.61244e-06V173.75L78 87.0572L93 -1.61244e-06Z" fill="#083783"/>
</svg>
