<svg width="76" height="44" viewBox="0 0 76 44" fill="none" xmlns="http://www.w3.org/2000/svg">
<path d="M12.3866 0.11911C15.7816 -0.0998899 19.6946 0.0501099 23.2846 0.0501099C26.9126 0.0501099 63.5226 -0.192891 66.2526 0.530109C68.9506 1.24511 71.3226 2.71111 72.9006 4.64311C74.3916 6.46811 75.7306 8.90811 75.9166 12.3871C76.1136 16.1041 75.9166 19.1391 75.9166 23.2171C75.9166 26.8761 76.2006 30.7351 75.5046 33.5661C74.2136 38.8231 69.7686 42.7651 63.5796 43.1611C59.9556 43.3931 23.7526 43.2301 20.1316 43.2301C16.7796 43.2301 12.6456 43.5581 9.78156 42.8191C4.55456 41.4691 0.515563 37.2501 0.117563 30.9621C-0.0914374 27.6541 0.0495628 23.6501 0.0495628 20.2011C0.0495628 16.5981 -0.210437 12.5231 0.460563 9.85211C1.50456 5.70011 4.16256 2.78411 7.93156 1.14711C9.29256 0.55611 10.7026 0.22711 12.3866 0.11911Z" fill="#0E3692"/>
<path d="M9.98982 10.23C11.7178 10.23 13.1178 8.82901 13.1178 7.10201C13.1178 5.37401 11.7178 3.97401 9.98982 3.97401C8.26182 3.97401 6.86182 5.37401 6.86182 7.10201C6.86182 8.82901 8.26182 10.23 9.98982 10.23Z" fill="#1E4299"/>
<path d="M20.452 10.23C22.18 10.23 23.58 8.82901 23.58 7.10201C23.58 5.37401 22.18 3.97401 20.452 3.97401C18.724 3.97401 17.324 5.37401 17.324 7.10201C17.324 8.82901 18.724 10.23 20.452 10.23Z" fill="#1E4299"/>
<path d="M30.914 10.23C32.642 10.23 34.042 8.82901 34.042 7.10201C34.042 5.37401 32.642 3.97401 30.914 3.97401C29.186 3.97401 27.786 5.37401 27.786 7.10201C27.786 8.82901 29.186 10.23 30.914 10.23Z" fill="#1E4299"/>
<path d="M41.3759 10.23C43.1039 10.23 44.5039 8.82901 44.5039 7.10201C44.5039 5.37401 43.1039 3.97401 41.3759 3.97401C39.6479 3.97401 38.2479 5.37401 38.2479 7.10201C38.2479 8.82901 39.6479 10.23 41.3759 10.23Z" fill="#1E4299"/>
<path d="M51.838 10.23C53.566 10.23 54.966 8.82901 54.966 7.10201C54.966 5.37401 53.566 3.97401 51.838 3.97401C50.11 3.97401 48.71 5.37401 48.71 7.10201C48.71 8.82901 50.11 10.23 51.838 10.23Z" fill="#1E4299"/>
<path d="M62.3 10.23C64.028 10.23 65.428 8.82901 65.428 7.10201C65.428 5.37401 64.028 3.97401 62.3 3.97401C60.572 3.97401 59.172 5.37401 59.172 7.10201C59.172 8.82901 60.572 10.23 62.3 10.23Z" fill="#1E4299"/>
<path d="M9.98982 24.7798C11.7178 24.7798 13.1178 23.3788 13.1178 21.6518C13.1178 19.9238 11.7178 18.5238 9.98982 18.5238C8.26182 18.5238 6.86182 19.9238 6.86182 21.6518C6.86182 23.3788 8.26182 24.7798 9.98982 24.7798Z" fill="#1E4299"/>
<path d="M20.452 24.7798C22.18 24.7798 23.58 23.3788 23.58 21.6518C23.58 19.9238 22.18 18.5238 20.452 18.5238C18.724 18.5238 17.324 19.9238 17.324 21.6518C17.324 23.3788 18.724 24.7798 20.452 24.7798Z" fill="#1E4299"/>
<path d="M30.914 24.7798C32.642 24.7798 34.042 23.3788 34.042 21.6518C34.042 19.9238 32.642 18.5238 30.914 18.5238C29.186 18.5238 27.786 19.9238 27.786 21.6518C27.786 23.3788 29.186 24.7798 30.914 24.7798Z" fill="#1E4299"/>
<path d="M41.3759 24.7798C43.1039 24.7798 44.5039 23.3788 44.5039 21.6518C44.5039 19.9238 43.1039 18.5238 41.3759 18.5238C39.6479 18.5238 38.2479 19.9238 38.2479 21.6518C38.2479 23.3788 39.6479 24.7798 41.3759 24.7798Z" fill="#1E4299"/>
<path d="M51.838 24.7798C53.566 24.7798 54.966 23.3788 54.966 21.6518C54.966 19.9238 53.566 18.5238 51.838 18.5238C50.11 18.5238 48.71 19.9238 48.71 21.6518C48.71 23.3788 50.11 24.7798 51.838 24.7798Z" fill="#1E4299"/>
<path d="M62.3 24.7798C64.028 24.7798 65.428 23.3788 65.428 21.6518C65.428 19.9238 64.028 18.5238 62.3 18.5238C60.572 18.5238 59.172 19.9238 59.172 21.6518C59.172 23.3788 60.572 24.7798 62.3 24.7798Z" fill="#1E4299"/>
<path d="M9.98982 39.3294C11.7178 39.3294 13.1178 37.9284 13.1178 36.2014C13.1178 34.4734 11.7178 33.0734 9.98982 33.0734C8.26182 33.0734 6.86182 34.4734 6.86182 36.2014C6.86182 37.9284 8.26182 39.3294 9.98982 39.3294Z" fill="#1E4299"/>
<path d="M20.452 39.3294C22.18 39.3294 23.58 37.9284 23.58 36.2014C23.58 34.4734 22.18 33.0734 20.452 33.0734C18.724 33.0734 17.324 34.4734 17.324 36.2014C17.324 37.9284 18.724 39.3294 20.452 39.3294Z" fill="#1E4299"/>
<path d="M30.914 39.3294C32.642 39.3294 34.042 37.9284 34.042 36.2014C34.042 34.4734 32.642 33.0734 30.914 33.0734C29.186 33.0734 27.786 34.4734 27.786 36.2014C27.786 37.9284 29.186 39.3294 30.914 39.3294Z" fill="#1E4299"/>
<path d="M41.3759 39.3294C43.1039 39.3294 44.5039 37.9284 44.5039 36.2014C44.5039 34.4734 43.1039 33.0734 41.3759 33.0734C39.6479 33.0734 38.2479 34.4734 38.2479 36.2014C38.2479 37.9284 39.6479 39.3294 41.3759 39.3294Z" fill="#1E4299"/>
<path d="M51.838 39.3294C53.566 39.3294 54.966 37.9284 54.966 36.2014C54.966 34.4734 53.566 33.0734 51.838 33.0734C50.11 33.0734 48.71 34.4734 48.71 36.2014C48.71 37.9284 50.11 39.3294 51.838 39.3294Z" fill="#1E4299"/>
<path d="M62.3 39.3294C64.028 39.3294 65.428 37.9284 65.428 36.2014C65.428 34.4734 64.028 33.0734 62.3 33.0734C60.572 33.0734 59.172 34.4734 59.172 36.2014C59.172 37.9284 60.572 39.3294 62.3 39.3294Z" fill="#1E4299"/>
<path d="M15.121 17.9919C16.849 17.9919 18.249 16.5909 18.249 14.8639C18.249 13.1359 16.849 11.7359 15.121 11.7359C13.393 11.7359 11.993 13.1359 11.993 14.8639C11.993 16.5909 13.393 17.9919 15.121 17.9919Z" fill="#1E4299"/>
<path d="M25.5831 17.9919C27.3111 17.9919 28.7111 16.5909 28.7111 14.8639C28.7111 13.1359 27.3111 11.7359 25.5831 11.7359C23.8551 11.7359 22.4551 13.1359 22.4551 14.8639C22.4551 16.5909 23.8551 17.9919 25.5831 17.9919Z" fill="#1E4299"/>
<path d="M36.0451 17.9919C37.7731 17.9919 39.1731 16.5909 39.1731 14.8639C39.1731 13.1359 37.7731 11.7359 36.0451 11.7359C34.3171 11.7359 32.9171 13.1359 32.9171 14.8639C32.9171 16.5909 34.3171 17.9919 36.0451 17.9919Z" fill="#1E4299"/>
<path d="M46.5072 17.9919C48.2352 17.9919 49.6352 16.5909 49.6352 14.8639C49.6352 13.1359 48.2352 11.7359 46.5072 11.7359C44.7792 11.7359 43.3792 13.1359 43.3792 14.8639C43.3792 16.5909 44.7792 17.9919 46.5072 17.9919Z" fill="#1E4299"/>
<path d="M56.9692 17.9919C58.6972 17.9919 60.0972 16.5909 60.0972 14.8639C60.0972 13.1359 58.6972 11.7359 56.9692 11.7359C55.2412 11.7359 53.8412 13.1359 53.8412 14.8639C53.8412 16.5909 55.2412 17.9919 56.9692 17.9919Z" fill="#1E4299"/>
<path d="M67.4312 17.9919C69.1592 17.9919 70.5592 16.5909 70.5592 14.8639C70.5592 13.1359 69.1592 11.7359 67.4312 11.7359C65.7032 11.7359 64.3032 13.1359 64.3032 14.8639C64.3032 16.5909 65.7032 17.9919 67.4312 17.9919Z" fill="#1E4299"/>
<path d="M15.121 32.2931C16.849 32.2931 18.249 30.8921 18.249 29.1651C18.249 27.4371 16.849 26.0371 15.121 26.0371C13.393 26.0371 11.993 27.4371 11.993 29.1651C11.993 30.8921 13.393 32.2931 15.121 32.2931Z" fill="#1E4299"/>
<path d="M25.5831 32.2931C27.3111 32.2931 28.7111 30.8921 28.7111 29.1651C28.7111 27.4371 27.3111 26.0371 25.5831 26.0371C23.8551 26.0371 22.4551 27.4371 22.4551 29.1651C22.4551 30.8921 23.8551 32.2931 25.5831 32.2931Z" fill="#1E4299"/>
<path d="M36.0451 32.2931C37.7731 32.2931 39.1731 30.8921 39.1731 29.1651C39.1731 27.4371 37.7731 26.0371 36.0451 26.0371C34.3171 26.0371 32.9171 27.4371 32.9171 29.1651C32.9171 30.8921 34.3171 32.2931 36.0451 32.2931Z" fill="#1E4299"/>
<path d="M46.5072 32.2931C48.2352 32.2931 49.6352 30.8921 49.6352 29.1651C49.6352 27.4371 48.2352 26.0371 46.5072 26.0371C44.7792 26.0371 43.3792 27.4371 43.3792 29.1651C43.3792 30.8921 44.7792 32.2931 46.5072 32.2931Z" fill="#1E4299"/>
<path d="M56.9692 32.2931C58.6972 32.2931 60.0972 30.8921 60.0972 29.1651C60.0972 27.4371 58.6972 26.0371 56.9692 26.0371C55.2412 26.0371 53.8412 27.4371 53.8412 29.1651C53.8412 30.8921 55.2412 32.2931 56.9692 32.2931Z" fill="#1E4299"/>
<path d="M67.4312 32.2931C69.1592 32.2931 70.5592 30.8921 70.5592 29.1651C70.5592 27.4371 69.1592 26.0371 67.4312 26.0371C65.7032 26.0371 64.3032 27.4371 64.3032 29.1651C64.3032 30.8921 65.7032 32.2931 67.4312 32.2931Z" fill="#1E4299"/>
<path d="M50.1987 26.5547C50.1987 28.4227 48.6647 29.9367 46.7727 29.9367H29.2307C27.3387 29.9367 25.8047 28.4227 25.8047 26.5547V16.7487C25.8047 14.8807 27.3387 13.3667 29.2307 13.3667H46.7727C48.6647 13.3667 50.1987 14.8807 50.1987 16.7487V26.5547Z" fill="#FF2D16"/>
<path d="M35.0737 18.7234C37.1857 19.7164 38.3397 20.2824 40.9297 21.5574C39.0577 22.6444 37.0737 23.6194 35.0737 24.5794V18.7234Z" fill="white"/>
</svg>
