<svg width="59" height="34" viewBox="0 0 59 34" fill="none" xmlns="http://www.w3.org/2000/svg">
<path d="M5.36932 29.8456C4.51231 29.8456 3.74527 29.6255 3.06818 29.1851C2.3911 28.7448 1.85606 28.1056 1.46307 27.2675C1.07008 26.4295 0.87358 25.4115 0.87358 24.2135C0.87358 23.0014 1.07244 21.9787 1.47017 21.1454C1.87263 20.3073 2.41477 19.6752 3.09659 19.2491C3.77841 18.8182 4.53835 18.6027 5.37642 18.6027C6.01563 18.6027 6.54119 18.7116 6.95312 18.9295C7.36506 19.1425 7.69176 19.4006 7.93324 19.7036C8.17472 20.0019 8.36174 20.2836 8.49432 20.5488H8.60085V15.1084H11.179V29.6539H8.65057V27.9351H8.49432C8.36174 28.2003 8.16998 28.482 7.91903 28.7803C7.66809 29.0739 7.33665 29.3248 6.92472 29.5331C6.51278 29.7415 5.99432 29.8456 5.36932 29.8456ZM6.08665 27.7363C6.63116 27.7363 7.09517 27.5895 7.47869 27.2959C7.86222 26.9976 8.15341 26.5833 8.35227 26.053C8.55114 25.5227 8.65057 24.9048 8.65057 24.1993C8.65057 23.4938 8.55114 22.8807 8.35227 22.3599C8.15814 21.839 7.86932 21.4342 7.4858 21.1454C7.10701 20.8565 6.64063 20.7121 6.08665 20.7121C5.51373 20.7121 5.03551 20.8613 4.65199 21.1596C4.26847 21.4579 3.97964 21.8698 3.78551 22.3954C3.59138 22.9209 3.49432 23.5223 3.49432 24.1993C3.49432 24.8812 3.59138 25.4896 3.78551 26.0246C3.98438 26.5549 4.27557 26.974 4.65909 27.2817C5.04735 27.5848 5.5232 27.7363 6.08665 27.7363ZM16.8022 29.867C15.7369 29.867 14.8136 29.6326 14.0323 29.1638C13.2511 28.6951 12.645 28.0393 12.2141 27.1965C11.788 26.3537 11.5749 25.3688 11.5749 24.242C11.5749 23.1151 11.788 22.1278 12.2141 21.2803C12.645 20.4328 13.2511 19.7746 14.0323 19.3059C14.8136 18.8371 15.7369 18.6027 16.8022 18.6027C17.8675 18.6027 18.7908 18.8371 19.5721 19.3059C20.3533 19.7746 20.957 20.4328 21.3832 21.2803C21.814 22.1278 22.0295 23.1151 22.0295 24.242C22.0295 25.3688 21.814 26.3537 21.3832 27.1965C20.957 28.0393 20.3533 28.6951 19.5721 29.1638C18.7908 29.6326 17.8675 29.867 16.8022 29.867ZM16.8164 27.8073C17.3941 27.8073 17.877 27.6487 18.2653 27.3314C18.6535 27.0095 18.9424 26.5786 19.1317 26.0388C19.3259 25.4991 19.4229 24.8977 19.4229 24.2349C19.4229 23.5672 19.3259 22.9635 19.1317 22.4238C18.9424 21.8793 18.6535 21.446 18.2653 21.1241C17.877 20.8021 17.3941 20.6411 16.8164 20.6411C16.2246 20.6411 15.7321 20.8021 15.3391 21.1241C14.9509 21.446 14.6597 21.8793 14.4656 22.4238C14.2762 22.9635 14.1815 23.5672 14.1815 24.2349C14.1815 24.8977 14.2762 25.4991 14.4656 26.0388C14.6597 26.5786 14.9509 27.0095 15.3391 27.3314C15.7321 27.6487 16.2246 27.8073 16.8164 27.8073ZM24.9077 23.2618V29.6539H22.3366V18.7448H24.794V20.5985H24.9219C25.1728 19.9877 25.5729 19.5024 26.1222 19.1425C26.6761 18.7827 27.3603 18.6027 28.1747 18.6027C28.9276 18.6027 29.5833 18.7637 30.142 19.0857C30.7055 19.4077 31.1411 19.8741 31.4489 20.4849C31.7614 21.0956 31.9152 21.8366 31.9105 22.7079V29.6539H29.3395V23.1056C29.3395 22.3764 29.1501 21.8059 28.7713 21.3939C28.3973 20.982 27.8788 20.776 27.2159 20.776C26.7661 20.776 26.366 20.8755 26.0156 21.0743C25.67 21.2685 25.3977 21.5502 25.1989 21.9195C25.0047 22.2888 24.9077 22.7363 24.9077 23.2618ZM35.7884 29.8741C35.0971 29.8741 34.4744 29.7509 33.9205 29.5047C33.3712 29.2538 32.9356 28.8845 32.6136 28.3968C32.2964 27.9091 32.1378 27.3078 32.1378 26.5928C32.1378 25.9773 32.2514 25.4683 32.4787 25.0658C32.706 24.6634 33.0161 24.3414 33.4091 24.0999C33.8021 23.8584 34.2448 23.6761 34.7372 23.553C35.2344 23.4252 35.7481 23.3329 36.2784 23.276C36.9176 23.2098 37.4361 23.1506 37.8338 23.0985C38.2315 23.0417 38.5204 22.9564 38.7003 22.8428C38.8849 22.7244 38.9773 22.5421 38.9773 22.2959V22.2533C38.9773 21.7183 38.8187 21.304 38.5014 21.0104C38.1842 20.7169 37.7273 20.5701 37.1307 20.5701C36.5009 20.5701 36.0014 20.7074 35.6321 20.982C35.2675 21.2566 35.0213 21.581 34.8935 21.955L32.4929 21.6141C32.6823 20.9512 32.9948 20.3973 33.4304 19.9522C33.866 19.5024 34.3987 19.1662 35.0284 18.9437C35.6581 18.7164 36.3542 18.6027 37.1165 18.6027C37.642 18.6027 38.1652 18.6643 38.6861 18.7874C39.2069 18.9105 39.6828 19.1141 40.1136 19.3982C40.5445 19.6776 40.8902 20.0587 41.1506 20.5417C41.4157 21.0246 41.5483 21.6283 41.5483 22.3527V29.6539H39.0767V28.1553H38.9915C38.8352 28.4583 38.6151 28.7424 38.331 29.0076C38.0516 29.268 37.6989 29.4787 37.2727 29.6397C36.8513 29.7959 36.3565 29.8741 35.7884 29.8741ZM36.456 27.9849C36.9721 27.9849 37.4195 27.8831 37.7983 27.6795C38.1771 27.4711 38.4683 27.1965 38.6719 26.8556C38.8802 26.5147 38.9844 26.143 38.9844 25.7405V24.455C38.9039 24.5213 38.7666 24.5829 38.5724 24.6397C38.383 24.6965 38.17 24.7462 37.9332 24.7888C37.6965 24.8314 37.4621 24.8693 37.2301 24.9025C36.9981 24.9356 36.7969 24.964 36.6264 24.9877C36.2429 25.0398 35.8996 25.125 35.5966 25.2434C35.2936 25.3617 35.0545 25.5275 34.8793 25.7405C34.7041 25.9489 34.6165 26.2188 34.6165 26.5502C34.6165 27.0237 34.7893 27.3812 35.1349 27.6226C35.4806 27.8641 35.9209 27.9849 36.456 27.9849ZM47.706 18.7448V20.7334H41.4347V18.7448H47.706ZM42.983 16.1312H45.554V26.3726C45.554 26.7183 45.6061 26.9834 45.7102 27.1681C45.8191 27.348 45.9612 27.4711 46.1364 27.5374C46.3116 27.6037 46.5057 27.6368 46.7188 27.6368C46.8797 27.6368 47.0265 27.625 47.1591 27.6013C47.2964 27.5777 47.4006 27.5563 47.4716 27.5374L47.9048 29.5474C47.7675 29.5947 47.571 29.6468 47.3153 29.7036C47.0644 29.7604 46.7566 29.7936 46.392 29.803C45.7481 29.822 45.1681 29.7249 44.652 29.5118C44.1359 29.294 43.7263 28.9579 43.4233 28.5033C43.125 28.0488 42.9782 27.4806 42.983 26.7988V16.1312ZM52.6935 29.867C51.5998 29.867 50.6552 29.6397 49.8597 29.1851C49.069 28.7259 48.4606 28.0772 48.0344 27.2391C47.6083 26.3963 47.3952 25.4044 47.3952 24.2633C47.3952 23.1411 47.6083 22.1563 48.0344 21.3087C48.4653 20.4564 49.0666 19.7936 49.8384 19.3201C50.6102 18.8419 51.5169 18.6027 52.5586 18.6027C53.2309 18.6027 53.8654 18.7116 54.462 18.9295C55.0633 19.1425 55.5936 19.474 56.0529 19.9238C56.5169 20.3736 56.8815 20.9465 57.1467 21.6425C57.4118 22.3338 57.5444 23.1577 57.5444 24.1141V24.9025H48.6026V23.1695H55.0799C55.0752 22.6771 54.9686 22.2391 54.7603 21.8556C54.552 21.4673 54.2608 21.1619 53.8867 20.9394C53.5174 20.7169 53.0865 20.6056 52.5941 20.6056C52.0685 20.6056 51.6069 20.7334 51.2092 20.9891C50.8114 21.2401 50.5013 21.5715 50.2788 21.9834C50.061 22.3906 49.9497 22.8381 49.945 23.3258V24.8385C49.945 25.473 50.061 26.0175 50.293 26.4721C50.525 26.9219 50.8493 27.2675 51.266 27.509C51.6826 27.7457 52.1703 27.8641 52.729 27.8641C53.1031 27.8641 53.4416 27.812 53.7447 27.7079C54.0477 27.599 54.3105 27.4403 54.533 27.232C54.7556 27.0237 54.9237 26.7656 55.0373 26.4579L57.4379 26.7277C57.2863 27.3622 56.9975 27.9162 56.5714 28.3897C56.15 28.8584 55.6102 29.223 54.9521 29.4834C54.2939 29.7391 53.5411 29.867 52.6935 29.867Z" fill="#0E3692"/>
<path d="M55.2383 2.6132C55.2483 1.9152 55.4823 2.2142 55.2413 1.5452C55.2243 1.6562 55.0373 1.3912 54.8923 1.2782C54.7863 1.1362 54.5113 1.0672 54.3693 0.9772C54.2573 0.9332 54.2553 1.0392 54.4533 1.1482C55.1173 1.1612 55.2293 2.0432 55.2383 2.6132Z" fill="#0E3692"/>
<path d="M55.4304 3.4062C55.5964 3.0042 55.3664 3.0982 55.4914 2.7082C55.3654 2.8582 55.4834 2.9392 55.3494 3.3012L55.4634 3.1092L55.4304 3.4062Z" fill="#0E3692"/>
<path d="M54.3335 0.814491C54.1265 0.747491 53.6145 0.777491 53.6135 0.869491C53.5835 0.880491 53.6385 0.924491 53.5205 0.932491C53.6995 0.873491 54.2265 0.918491 54.3335 0.814491Z" fill="#0E3692"/>
<path d="M55.3901 1.0745C55.3151 0.942504 55.1971 0.764504 54.9971 0.675504C55.1231 0.742504 55.2511 0.928504 55.3901 1.0745Z" fill="#0E3692"/>
<path d="M54.0772 0.576704C54.1312 0.502704 53.8802 0.538704 53.8152 0.532704L53.6772 0.553704C53.8072 0.584704 53.9672 0.609704 54.0772 0.576704Z" fill="#0E3692"/>
<path d="M52.2129 1.24009C51.9199 1.41209 52.5619 1.18309 52.2069 1.36509L52.4169 1.27809L52.4549 1.12909L52.2129 1.24009Z" fill="#0E3692"/>
<path d="M52.0856 1.1199C51.9236 1.1649 51.9736 1.2249 51.8916 1.3029C51.9526 1.2839 52.2396 1.0539 52.0856 1.1199Z" fill="#0E3692"/>
<path d="M50.7517 16.5833L50.6707 16.5863C50.7517 16.5833 50.8677 16.5953 50.9427 16.6073C50.9517 16.5743 50.8137 16.5143 50.6597 16.5043C50.6877 16.5363 50.8377 16.5623 50.7517 16.5833Z" fill="#0E3692"/>
<path d="M54.2614 14.061C54.4414 13.663 54.2364 13.74 54.4144 13.357C54.2854 13.494 54.3384 13.58 54.1904 13.943L54.3164 13.758L54.2614 14.061Z" fill="#0E3692"/>
<path d="M54.9588 11.7744C54.9698 11.6104 54.9658 11.4424 54.9598 11.1914C54.9498 11.3574 54.9168 11.5584 54.9588 11.7744Z" fill="#0E3692"/>
<path d="M55.4034 4.66341C55.2834 4.68841 55.2094 4.89941 55.0874 5.05241C55.2104 4.89841 55.2914 4.86041 55.4034 4.66341Z" fill="#0E3692"/>
<path d="M54.4482 4.22889C54.4772 4.13189 54.5552 4.05789 54.6082 4.02289L54.6042 4.08389L54.4482 4.22889Z" fill="#0E3692"/>
<path d="M53.4287 14.3993C53.3197 14.5873 53.1187 14.9093 53.1997 14.9053L53.2017 14.9703C53.3297 14.8213 53.7007 14.1163 53.4287 14.3993Z" fill="#0E3692"/>
<path d="M53.2319 14.1817C53.1619 14.3517 53.2419 14.2427 53.2759 14.2297L53.3869 14.0057C53.3959 13.9207 53.2929 14.1007 53.2319 14.1817Z" fill="#0E3692"/>
<path d="M52.4797 15.6953C52.6737 15.6473 53.0407 15.3333 52.9947 15.2333C53.0137 15.2103 52.9497 15.1943 53.0457 15.1473C52.9337 15.2933 52.5207 15.5543 52.4797 15.6953Z" fill="#0E3692"/>
<path d="M51.6492 16.2877C51.7712 16.2977 51.8982 16.3197 52.0822 16.2667C51.9582 16.2867 51.8092 16.2447 51.6492 16.2877Z" fill="#0E3692"/>
<path d="M52.7829 15.7646C52.7769 15.8626 52.9499 15.6966 52.9949 15.6516L53.0859 15.5466C52.9759 15.5966 52.8589 15.6956 52.7829 15.7646Z" fill="#0E3692"/>
<path d="M53.902 14.2354C54.03 13.9354 53.671 14.4724 53.844 14.1334L53.729 14.3134L53.773 14.4534L53.902 14.2354Z" fill="#0E3692"/>
<path d="M54.033 13.7311C54.086 13.6551 54.128 13.5681 54.168 13.4031L54.101 13.4701C54.066 13.5201 54.08 13.6101 54.033 13.7311Z" fill="#0E3692"/>
<path d="M54.0558 14.2582C54.1448 14.1232 54.0898 14.1142 54.1148 14.0082C54.0638 14.0452 53.9788 14.4022 54.0558 14.2582Z" fill="#0E3692"/>
<path d="M55.1984 12.8803C55.0814 13.0253 55.0404 13.3823 54.9124 13.6933C55.0364 13.3833 55.1214 13.2613 55.1984 12.8803Z" fill="#0E3692"/>
<path d="M53.7355 14.0511C53.5755 14.1501 53.7535 13.9121 53.7945 13.5811C53.9275 13.1881 54.1105 12.7971 54.1935 12.3841L54.2935 12.1461C54.2505 12.6551 54.0365 13.5311 53.7355 14.0511Z" fill="#0E3692"/>
<path d="M53.1879 14.0397C53.2809 13.7667 53.4809 13.4637 53.5509 13.2627C53.4489 13.6037 53.2639 14.0207 53.1419 14.2297C53.1089 14.2417 53.1659 14.1107 53.1879 14.0397Z" fill="#0E3692"/>
<path d="M44.8604 9.1631C44.8604 9.1631 51.5204 -1.8059 55.0274 0.895097C55.0274 0.895097 56.2394 1.7791 55.2454 3.9141C55.2454 3.9141 53.3074 6.6811 53.2704 8.3411L44.8604 9.1631Z" fill="#4FB29E"/>
<path d="M53.0257 7.49709C53.1037 7.24809 53.2217 6.83309 53.1457 6.87209L53.1287 6.80609C53.0427 6.99609 52.8177 7.92309 53.0257 7.49709Z" fill="#0E3692"/>
<path d="M53.2637 7.64439C53.2997 7.43439 53.2417 7.58339 53.2107 7.61239L53.1577 7.90739C53.1687 8.00239 53.2317 7.76139 53.2637 7.64439Z" fill="#0E3692"/>
<path d="M53.8309 7.72759L53.8249 7.80259C53.8309 7.72759 53.8539 7.62159 53.8729 7.55459C53.8469 7.53659 53.7819 7.65659 53.7549 7.80159C53.7849 7.77959 53.8239 7.64359 53.8309 7.72759Z" fill="#0E3692"/>
<path d="M55.0488 3.9075C55.1508 3.9265 55.1078 4.2355 55.0058 4.5685L55.1878 4.5735C55.2528 4.3845 55.5868 3.8925 55.7068 3.4635C55.7928 3.3205 55.6148 3.8605 55.7908 3.4755C55.7878 3.4205 55.7408 3.4385 55.7578 3.3495C55.8678 2.9825 56.0028 3.2365 56.0258 2.3025L55.9418 1.9965C55.7488 0.172503 53.8228 -0.314497 52.8238 0.183503C52.5918 0.130503 52.0608 0.449503 51.7108 0.558503L51.7228 0.610503C51.5138 0.647503 51.2608 0.945503 51.0418 1.0805L50.8738 1.2575C50.8358 1.3715 51.4388 0.920503 51.3208 1.1465C50.9398 1.4665 50.6098 1.5505 50.3238 1.8905C50.0188 2.1695 50.0328 2.1025 49.8308 2.2555C49.7558 2.2595 49.8638 2.1555 49.8128 2.1265C49.1188 2.7485 49.2438 2.9985 48.6788 3.5855C48.6338 3.5735 48.1248 3.9805 48.5018 3.4805L48.7308 3.3055L48.8318 3.1145C48.6778 3.2795 48.3988 3.5905 48.3968 3.5105C48.3118 3.8735 47.2758 4.5705 47.8608 4.3005C48.0808 3.9685 48.1598 3.8895 48.3688 3.7555C47.8098 4.4315 47.3778 5.0885 46.9408 5.6635L46.7588 5.7745C46.8038 5.8455 46.6308 6.1675 46.4408 6.4605C46.3388 6.5655 46.2358 6.7305 46.2338 6.6635C46.1538 6.6785 46.9608 5.6265 46.4928 6.0225C46.0328 6.6935 45.6028 7.4555 45.3958 7.9645C45.6238 7.6655 45.7558 7.4205 46.0628 7.1725C46.9088 6.1435 47.7368 4.9305 48.6598 4.0665C48.6558 3.9875 48.8718 3.7215 48.7678 3.7505C48.8238 3.6315 49.0708 3.4245 49.0828 3.2945C49.8018 2.6305 50.6158 1.8075 51.3338 1.3095C51.2018 1.5825 51.8048 1.0955 52.0338 1.0405C52.2088 0.887503 52.5618 0.741503 52.8178 0.639503C52.8528 0.658503 53.0198 0.631503 52.9878 0.682503C52.7878 0.696503 52.7308 0.775503 52.5468 0.878503C52.6508 0.929503 52.9478 0.692503 53.2498 0.644503L53.0858 0.617503C53.5498 0.472503 54.2328 0.265503 54.6378 0.631503C54.5008 0.616503 54.3818 0.546503 54.2458 0.584503C54.7608 0.756503 55.4878 1.1145 55.4668 1.7295C55.3508 1.3055 54.9018 0.800503 54.8188 0.993503C54.8348 1.0445 55.1138 1.2885 55.2268 1.4775C55.7738 2.3025 55.2068 3.1545 55.0488 3.9075Z" fill="#0E3692"/>
<path d="M51.8045 1.61079C51.7115 1.64179 51.6235 1.69079 51.4885 1.80979L51.5875 1.79479C51.6485 1.77379 51.6905 1.68679 51.8045 1.61079Z" fill="#0E3692"/>
<path d="M50.332 1.5213C50.516 1.4983 50.739 1.2043 51.032 1.0473C50.74 1.2043 50.622 1.2723 50.332 1.5213Z" fill="#0E3692"/>
<path d="M51.3884 7.99499C51.2504 8.04199 51.0834 8.02999 50.9844 8.01299L51.0554 7.97099L51.3884 7.99499Z" fill="#0E3692"/>
<path d="M52.8106 8.03919C52.8696 7.93419 52.8776 7.97919 52.8756 8.09919L52.8746 8.20319L52.8736 8.26419V8.29619L52.8726 8.31319V8.32119V8.32519L52.8736 8.32719L52.8726 8.32819C52.7936 8.42819 53.5636 7.45619 53.2376 7.86819L53.0376 7.93019C52.6636 7.98919 52.2656 7.93619 51.8926 7.97719L51.6616 7.93619C51.8836 7.89419 52.1896 7.84619 52.5066 7.80819L52.9826 7.76219L53.2106 7.75019L53.2246 7.74919H53.2276H53.2296C53.0256 8.00619 53.6856 7.17419 52.7736 8.32519V8.32319L52.7746 8.31319L52.7796 8.27219L52.7896 8.19219L52.8106 8.03919Z" fill="#0E3692"/>
<path d="M53.3426 7.7786L53.2726 8.3086C53.1716 8.3656 52.9936 8.3166 52.9036 8.3386C53.4076 8.4756 53.1926 7.8346 53.3436 7.5556C53.3746 7.5296 53.3406 7.6916 53.3426 7.7786Z" fill="#0E3692"/>
<path d="M47.7755 8.28419C48.2485 8.24319 48.8985 8.08919 49.4275 8.18419C49.1885 8.23119 49.1855 8.26719 48.8115 8.32619C49.1035 8.45019 49.3885 8.24919 49.7265 8.21919C49.4525 8.27819 49.8195 8.30819 50.0555 8.29619C50.4985 8.21419 51.2075 8.16019 51.8155 8.10719C52.0815 8.13719 52.9345 7.96619 52.8205 8.12519C53.0055 8.11319 53.1095 8.07819 53.2005 8.03819C52.7975 8.63219 53.0555 7.99519 52.9745 7.96019C53.3015 6.95719 53.2935 6.04719 53.9315 5.21319C53.8385 5.22119 54.0975 4.77519 54.1965 4.60119C54.4065 4.21719 54.9745 3.36019 54.9585 3.65119C54.8615 3.96619 54.4245 4.35119 54.2715 4.80919C54.0005 5.57919 54.7285 4.14919 54.8455 4.24019C54.7685 4.31919 54.8205 4.44719 54.6135 4.70919C55.0345 4.13619 54.5695 5.05919 54.8235 4.79819C54.4675 5.55019 54.5105 5.49119 54.4505 5.95319C54.2085 6.36819 54.1785 6.18419 54.0625 6.27319C53.7825 6.71419 53.7565 7.17719 53.6065 7.58919C53.7495 7.46419 53.7155 7.66019 53.6775 7.93119L53.6465 8.14519L53.6375 8.25519L53.6315 8.31019L53.6285 8.33819L53.6275 8.35219H53.6265C52.9725 9.17819 53.4455 8.58119 53.2995 8.76519H53.2985L53.2965 8.76619H53.2925H53.2855C53.1325 8.77919 52.9835 8.79019 52.8645 8.80019C52.2555 8.87119 52.6455 8.61719 52.0005 8.69919C51.6875 8.84119 52.6645 8.78219 52.2495 8.94219L51.9485 8.92419C51.7535 8.85319 51.5945 8.75219 51.3625 8.71119C51.2275 8.72319 51.0245 8.74019 51.0215 8.77619C51.2895 8.78819 51.2145 8.88319 50.9395 8.95919C50.8065 8.93619 50.7745 8.93019 50.7095 8.90019C51.2375 8.59919 50.1355 8.94219 49.7425 8.83519C48.6095 8.74019 49.1765 9.18419 48.0695 9.18419C48.3915 8.93519 47.3345 9.14219 46.9695 9.09519C46.6645 9.13119 46.5585 9.20119 46.3495 9.29019C46.2645 9.27519 46.0275 9.28619 45.9885 9.24719C46.1395 8.94219 46.8285 8.60019 47.7285 8.27219C47.7535 8.27519 47.7755 8.27819 47.7755 8.28419Z" fill="#0E3692"/>
<path d="M44.843 9.23429C44.843 9.23429 54.857 2.24129 54.826 11.9973C54.826 11.9973 54.347 16.9493 50.675 16.0223C50.675 16.0223 47.013 15.2423 44.843 9.23429Z" fill="#4FB29E"/>
<path d="M50.8446 15.6049C51.0286 15.6539 51.3496 15.6769 51.3006 15.5969L51.3396 15.5599C51.1876 15.5379 50.5406 15.4379 50.8446 15.6049Z" fill="#0E3692"/>
<path d="M50.7484 15.9075C50.9224 15.9115 50.7954 15.8715 50.7704 15.8405L50.5424 15.7895C50.4684 15.7985 50.6474 15.8855 50.7484 15.9075Z" fill="#0E3692"/>
<path d="M53.8253 14.5532C53.9313 14.5692 53.9063 14.8782 53.7553 15.2182L53.9423 15.2342C54.0593 14.9742 54.3613 14.5452 54.5303 14.1542C54.6253 14.0222 54.4073 14.5412 54.6123 14.1772C54.6113 14.1222 54.5673 14.1342 54.5863 14.0452C54.7453 13.7132 54.8153 13.9632 55.0163 13.1472L55.0143 12.8552C55.3063 11.3592 55.2133 9.8752 54.6203 8.5802C54.6143 8.2952 54.2083 7.6932 53.9463 7.3392L53.9103 7.3712C53.7853 7.1282 53.4193 6.9482 53.1783 6.8032L52.9393 6.7322C52.8373 6.7442 53.5373 7.1342 53.2923 7.1302C52.8423 6.8952 52.5573 6.6172 52.1263 6.5912C51.7223 6.5472 51.7753 6.4832 51.5253 6.4412C51.4633 6.3842 51.6103 6.3942 51.5873 6.3312C50.6613 6.2632 50.6343 6.5692 49.8673 6.6732C49.8343 6.6282 49.2033 6.6712 49.7653 6.4682L50.0483 6.4732L50.2303 6.3802C50.0143 6.4142 49.6233 6.4952 49.6593 6.4302C49.4103 6.6642 48.1873 6.6682 48.8243 6.7742C49.1673 6.6232 49.2733 6.5972 49.5193 6.6232C48.7143 6.8402 48.0523 7.1822 47.4303 7.4632H47.2203C47.2323 7.5502 46.9493 7.7462 46.6653 7.9162C46.5343 7.9632 46.3753 8.0542 46.3993 7.9942C46.3203 7.9682 47.4583 7.4272 46.8813 7.5452C46.2003 7.9142 45.5233 8.3982 45.1553 8.7762C45.4683 8.6022 45.6833 8.4502 46.0533 8.3702C47.2033 7.8572 48.4363 7.2102 49.6273 7.0732C49.6603 7.0012 49.9663 6.9082 49.8643 6.8682C49.9693 6.8082 50.2773 6.7952 50.3523 6.7012C51.2773 6.6562 52.4143 6.6832 53.1773 7.2252C52.9143 7.2112 53.5863 7.6082 53.6923 7.8842C53.8933 8.0092 54.1143 8.3892 54.2413 8.6792C54.2363 8.7252 54.3063 8.9102 54.2553 8.8862C54.1783 8.6632 54.1233 8.5982 53.9883 8.4142C53.9673 8.5502 54.2273 8.8442 54.3553 9.1822L54.3373 8.9832C54.5473 9.5292 54.8753 10.2232 54.8173 10.8052L54.6743 10.3502C54.7013 11.0212 54.9313 11.8992 54.6993 12.3672C54.7863 11.9262 54.7383 11.1712 54.6443 11.1892C54.5783 11.2222 54.5973 11.7432 54.6323 11.9912C54.6133 13.0252 54.0943 13.7312 53.8253 14.5532Z" fill="#0E3692"/>
<path d="M54.1831 13.1928C54.4071 12.3938 54.4861 12.8498 54.6111 12.0328C54.5491 12.1128 54.4931 11.8028 54.4741 11.4848C54.5141 11.2098 54.4481 10.8948 54.4251 10.6618C54.3951 10.5048 54.3171 10.5438 54.3471 10.8508C54.5941 11.6438 54.3241 12.4488 54.1831 13.1928Z" fill="#0E3692"/>
<path d="M54.525 10.5475C54.501 10.2705 54.339 9.6535 54.237 9.6805C54.219 9.6455 54.195 9.7245 54.168 9.5795C54.277 9.7765 54.403 10.4635 54.525 10.5475Z" fill="#0E3692"/>
<path d="M54.6299 10.1509C54.7049 10.1889 54.5999 9.90989 54.5849 9.83089L54.5239 9.67489C54.5429 9.83489 54.5689 10.0339 54.6299 10.1509Z" fill="#0E3692"/>
<path d="M53.6008 8.1503C53.3618 7.9043 53.7678 8.4973 53.4998 8.1903L53.6418 8.3773L53.7678 8.3753C53.7248 8.2873 53.6558 8.2263 53.6008 8.1503Z" fill="#0E3692"/>
<path d="M53.1789 7.85989C53.1259 7.76789 53.0459 7.71089 52.8979 7.64289L52.9549 7.73089C52.9959 7.78189 53.0859 7.76389 53.1789 7.85989Z" fill="#0E3692"/>
<path d="M53.6495 7.9696C53.5525 7.8086 53.5345 7.8736 53.4395 7.8216C53.4785 7.8746 53.7535 8.1206 53.6495 7.9696Z" fill="#0E3692"/>
<path d="M52.375 6.3551C52.528 6.4931 52.889 6.5591 53.197 6.7751C52.891 6.5781 52.762 6.4491 52.375 6.3551Z" fill="#0E3692"/>
<path d="M48.7535 14.3861C48.6275 14.3191 48.5105 14.1851 48.4475 14.0981L48.5225 14.1191L48.7535 14.3861Z" fill="#0E3692"/>
<path d="M50.502 15.3711C50.607 15.5281 50.391 15.4021 50.112 15.3611C49.765 15.2291 49.46 14.9351 49.149 14.7241L48.991 14.5321C49.366 14.7861 50.047 15.1511 50.502 15.3711Z" fill="#0E3692"/>
<path d="M50.6416 16.0104C50.3526 15.9844 50.0266 15.7524 49.8406 15.6554C50.1626 15.8054 50.5886 15.9684 50.8306 15.9844C50.8566 16.0144 50.7156 16.0104 50.6416 16.0104Z" fill="#0E3692"/>
<path d="M46.3682 11.3508C46.6132 11.8238 47.0652 12.3608 47.3202 12.8958C47.1512 12.7008 47.1142 12.7318 46.8682 12.4038C46.9422 12.7618 47.2572 12.9028 47.4782 13.1918C47.2672 12.9868 47.4782 13.3328 47.6432 13.5308C47.9782 13.8718 48.5142 14.4058 49.0252 14.7768C49.2142 15.0058 50.0072 15.3538 49.8492 15.4218C50.1842 15.5978 50.2662 15.5118 50.5222 15.5718C51.2752 15.9428 51.9002 15.5138 52.6092 15.3718C52.5452 15.3308 52.8662 15.1218 52.9832 15.0228C53.2542 14.8228 53.7082 14.0608 53.7152 14.3128C53.6662 14.6348 53.2312 14.9168 53.0052 15.2328C52.5722 15.7928 53.5792 14.8718 53.6232 14.8688C53.5432 14.9328 53.5962 15.0848 53.3392 15.2728C53.8622 14.8308 53.2262 15.6038 53.5262 15.4188C52.9562 16.0518 52.9902 15.9628 52.6682 16.3308C52.1852 16.4808 52.2902 16.2748 52.1482 16.2498C51.6602 16.2808 51.2652 16.4168 50.8422 16.2968C51.1452 16.6078 50.0682 16.3448 49.6232 16.0428C49.0262 15.7208 49.4922 15.7568 48.8882 15.3908C48.5442 15.2868 49.4352 15.9198 48.9942 15.7638L48.7352 15.5348C48.6042 15.3258 48.5132 15.1428 48.3552 14.9198C48.2412 14.8208 48.0712 14.6728 48.0492 14.6968C48.2552 14.9178 48.1432 14.9358 47.8812 14.7628C47.7942 14.6298 47.7722 14.5968 47.7412 14.5198C48.3102 14.7628 47.2802 14.0578 47.0922 13.6028C46.4462 12.4468 46.4852 13.2718 45.8592 12.1058C46.2082 12.3248 45.4972 11.3048 45.3982 10.8598C45.2422 10.5338 45.1312 10.4508 44.9902 10.2398C44.9702 10.1348 44.8752 9.8658 44.8912 9.8088C45.1822 9.8768 45.6902 10.5428 46.3552 11.2968C46.3652 11.3238 46.3732 11.3478 46.3682 11.3508Z" fill="#0E3692"/>
<path d="M53.9309 0.472395C54.3199 0.500395 54.6889 0.633395 55.0269 0.895395C55.0269 0.895395 56.2389 1.7794 55.2449 3.9134C55.2449 3.9134 53.3069 6.6814 53.2699 8.3414L52.5239 7.0034C53.0239 5.4274 54.3029 3.6004 54.3029 3.6004C55.2969 1.4664 54.0859 0.582396 54.0859 0.582396C54.0349 0.542396 53.9829 0.506395 53.9309 0.472395Z" fill="#0E3692"/>
<path d="M53.5572 5.59019C53.4822 5.69919 53.3992 5.92019 53.4682 5.92319L53.4872 5.96919C53.5332 5.86519 53.7482 5.44319 53.5572 5.59019Z" fill="#0E3692"/>
<path d="M53.3486 5.3925C53.3116 5.5115 53.3666 5.4405 53.3946 5.4365L53.4666 5.2895C53.4656 5.2275 53.3856 5.3355 53.3486 5.3925Z" fill="#0E3692"/>
<path d="M52.842 5.09869L52.853 5.04469L52.791 5.21069C52.815 5.23269 52.883 5.16969 52.916 5.07369C52.888 5.07769 52.843 5.16369 52.842 5.09869Z" fill="#0E3692"/>
<path d="M52.9674 7.4635C52.9104 7.5535 52.7264 7.5035 52.5584 7.3875L52.4714 7.5505C52.6034 7.6335 52.7154 7.9205 52.8264 8.1255C52.8444 8.2245 52.6804 7.9695 52.7644 8.1905C52.7954 8.1985 52.8174 8.1575 52.8524 8.1915C52.8864 8.2935 52.8654 8.3405 52.8674 8.4075C52.8674 8.4415 52.8744 8.4805 52.8954 8.5345L52.9144 8.5775L52.9264 8.6015L52.9294 8.6075L52.9304 8.6105C54.4224 8.0975 53.3444 8.4685 53.6774 8.3535L53.6784 8.3515L53.6794 8.3385L53.6854 8.2215L53.6244 8.0855C53.7434 7.3855 54.1744 6.7265 54.4304 6.0575C54.5524 5.9915 54.7034 5.6555 54.8514 5.4965L54.8184 5.4625C54.9444 5.4045 54.9744 5.1555 55.0654 5.0285L55.1034 4.8785C55.0734 4.7805 54.8664 5.1985 54.8434 5.0145C54.9514 4.7105 55.1934 4.6525 55.2714 4.3805C55.4064 4.1245 55.3944 4.2945 55.5494 4.0405C55.6044 4.0225 55.5664 4.1195 55.6184 4.1325C55.8664 3.5115 55.7114 3.4145 55.8154 2.8425C55.8554 2.8375 56.0274 2.3615 56.0064 2.8245L55.9234 3.0315L55.9464 3.1935C55.9794 3.0245 56.0274 2.7125 56.0714 2.7555C55.9834 2.5405 56.1804 1.4735 55.9854 2.0235C56.0374 2.3205 56.0384 2.4245 55.9624 2.6065C55.9864 1.9295 55.7544 1.3505 55.4514 0.9505L55.4124 0.7665C55.3584 0.8235 55.1484 0.6615 54.9534 0.6065C54.8824 0.5445 54.7774 0.4935 54.8174 0.4675C54.7864 0.3485 55.5334 0.910499 55.2404 0.504499C54.7894 0.218499 54.2454 0.1545 53.9424 0.2505C54.1534 0.3155 54.3184 0.328499 54.5114 0.490499C55.2284 0.780499 55.8094 1.7375 55.5704 2.5845C55.6154 2.6195 55.5964 2.8435 55.6594 2.7875C55.6814 2.8755 55.6054 3.0815 55.6644 3.1665C55.4364 3.8045 55.0424 4.4365 54.7624 4.8955C54.7354 4.6715 54.5194 5.1245 54.4004 5.2255C54.3744 5.3915 54.2324 5.5955 54.1444 5.7605C54.1164 5.7645 54.0544 5.8625 54.0364 5.8145C54.1154 5.7025 54.1144 5.6395 54.1704 5.5045C54.0624 5.4955 54.0264 5.7765 53.9394 5.9715L54.0334 5.9045C53.8734 6.2235 53.8504 6.6975 53.6524 6.9435L53.6714 6.6435C53.4704 6.9935 53.4394 7.5185 53.2714 7.7795C53.2894 7.4905 53.5054 7.0935 53.3884 7.0455C53.3194 7.0265 53.2194 7.3395 53.2094 7.5035C53.1904 7.6745 53.1764 7.8395 53.1394 7.9885L53.1044 8.2225C53.2494 8.2065 52.7514 8.4195 53.4244 8.2165L53.3844 8.1225C53.2804 7.8715 53.1744 7.6365 52.9674 7.4635Z" fill="#0E3692"/>
<path d="M53.5592 8.05541L53.5702 8.07641L53.5752 8.08641L53.5782 8.09141L53.5792 8.09341L53.5802 8.09441C52.2182 8.56341 53.2022 8.22441 52.8992 8.32841L52.9052 8.27541L52.9192 8.18641L52.9512 8.05941C52.9752 7.99341 52.9972 7.95841 53.0262 7.92941C53.0832 7.86941 53.1272 7.81041 53.1822 7.54441C53.1002 7.58841 53.1152 7.30941 53.1652 7.13241C53.2592 6.98741 53.2982 6.77741 53.3592 6.64341C53.3852 6.54241 53.3072 6.51141 53.2292 6.69741C53.2012 6.96541 53.0922 7.22341 52.9982 7.50341L52.8892 7.93941L52.8772 8.16941L52.8812 8.27941L52.8832 8.30641L52.8852 8.31941L52.8862 8.32641V8.32841C54.2942 7.84441 53.2762 8.19441 53.5902 8.08641L53.5882 8.08441L53.5592 8.05541Z" fill="#0E3692"/>
<path d="M53.0356 7.91369C53.1516 8.14369 53.2336 7.95569 53.3226 8.20169C53.3396 8.05469 53.2566 8.07869 53.1456 7.87369L53.1726 8.02069L53.0356 7.91369Z" fill="#0E3692"/>
<path d="M53.4815 6.64509C53.5495 6.48909 53.6805 6.11409 53.6075 6.05009C53.6125 6.02309 53.5545 6.03509 53.6105 5.95809C53.5685 6.11009 53.3965 6.52209 53.4815 6.64509Z" fill="#0E3692"/>
<path d="M53.5599 7.5054C53.5969 7.4234 53.6269 7.3364 53.6759 7.2064C53.6309 7.2844 53.5569 7.3744 53.5599 7.5054Z" fill="#0E3692"/>
<path d="M53.7122 6.52949C53.7572 6.59449 53.7842 6.41149 53.8042 6.36849L53.8202 6.26249C53.7682 6.33849 53.7112 6.44049 53.7122 6.52949Z" fill="#0E3692"/>
<path d="M54.1844 5.1354C54.2794 4.9074 53.9924 5.2984 54.1224 5.0404L54.0344 5.1794L54.0904 5.2994L54.1844 5.1354Z" fill="#0E3692"/>
<path d="M54.2922 4.7556C54.3452 4.7126 54.3872 4.6576 54.4332 4.5406L54.3682 4.5706C54.3322 4.5986 54.3402 4.6746 54.2922 4.7556Z" fill="#0E3692"/>
<path d="M54.3269 5.18299C54.4019 5.09899 54.3519 5.07899 54.3709 5.00199C54.3229 5.01799 54.2629 5.27899 54.3269 5.18299Z" fill="#0E3692"/>
<path d="M53.7856 5.41799C53.6556 5.44199 53.7796 5.32099 53.8136 5.10699C53.9206 4.87399 54.1226 4.70499 54.2486 4.49099L54.3716 4.40299C54.2366 4.67299 53.9966 5.13999 53.7856 5.41799Z" fill="#0E3692"/>
<path d="M53.2894 5.2738C53.3454 5.0778 53.5274 4.9088 53.5954 4.7888C53.4924 5.0018 53.3414 5.2638 53.2754 5.4158C53.2474 5.4198 53.2794 5.3258 53.2894 5.2738Z" fill="#0E3692"/>
<path d="M55.0858 1.297C55.2228 1.72 55.2638 2.376 55.0478 2.77C55.0618 2.562 55.0408 2.553 55.0628 2.238C54.9088 2.454 55.0058 2.712 54.9518 2.998C54.9708 2.766 54.8638 3.042 54.7808 3.196C54.7218 3.56 54.4068 4.117 54.1978 4.369C54.0638 4.483 53.8288 5.031 53.7698 4.874C53.6378 5.086 53.6998 5.18 53.6318 5.359C53.2438 5.759 53.4038 6.393 53.0448 6.83C53.1248 6.833 53.0178 7.093 52.9848 7.198L52.9808 7.209C52.9578 6.973 53.0308 7.737 52.9308 6.68L52.9318 6.683L52.9338 6.686L52.9368 6.691L52.9498 6.714L52.9788 6.765L53.0428 6.879L53.1648 7.123C53.2338 7.279 53.2638 7.404 53.1738 7.391C53.0548 7.457 52.8668 6.54 52.8558 7.069C52.8648 6.827 52.8108 6.928 52.7398 7.089C52.7538 6.764 52.9078 7.331 52.8438 7.267C52.8298 7.193 52.7208 7.233 52.6538 7.028C52.8188 7.447 52.4508 6.962 52.4968 7.208C52.3378 6.46 52.5138 6.669 52.4048 6.283C52.5508 6 52.6168 6.146 52.7048 6.096C52.8898 5.831 52.8788 5.516 53.0398 5.286C52.7718 5.352 53.1338 4.768 53.3058 4.486C53.5178 4.113 53.5188 4.48 53.7378 4.087C53.7808 3.829 53.4008 4.388 53.4748 4.065L53.6158 3.916C53.7478 3.859 53.8788 3.84 54.0068 3.749C54.0598 3.672 54.1378 3.558 54.1178 3.532C53.9918 3.66 53.9628 3.562 54.0428 3.366C54.0378 3.427 54.0948 3.324 54.1218 3.329C54.1808 3.782 54.2668 2.983 54.4638 2.792C54.7568 2.071 54.3338 2.348 54.3798 1.705C54.6078 1.865 54.3818 1.23 54.2918 1.011C54.1818 0.856998 54.0928 0.845998 53.9848 0.829998C53.9658 0.782998 53.8528 0.693998 53.8548 0.643998C54.0178 0.428998 54.6498 0.451998 55.0888 1.249L55.0858 1.297Z" fill="#0E3692"/>
<path d="M51.9187 6.86999C53.5617 7.15899 54.8377 8.50498 54.8267 11.997C54.8267 11.997 54.3477 16.949 50.6747 16.022C50.6747 16.022 50.4687 15.978 50.1257 15.831L49.9697 15.762C53.4267 16.42 53.8847 11.684 53.8847 11.684C53.8927 8.89699 53.0817 7.47699 51.9187 6.86999Z" fill="#0E3692"/>
<path d="M52.7169 13.8984L52.7349 13.8344L52.6489 14.0354C52.6699 14.0614 52.7509 13.9784 52.7999 13.8614C52.7689 13.8694 52.7089 13.9744 52.7169 13.8984Z" fill="#0E3692"/>
<path d="M50.505 16.0022C50.461 15.9012 50.671 15.7502 50.901 15.6172L50.801 15.4482C50.716 15.4962 50.585 15.5322 50.438 15.5032L50.213 15.4712L50.102 15.4552L50.048 15.4482L50.021 15.4442H50.015H50.013C50.135 14.8902 49.846 16.1972 49.876 16.0632L49.881 16.0652L49.894 16.0712C49.918 16.0912 49.913 16.0982 49.895 16.0992L49.88 16.0982L49.872 16.0972L49.867 16.0962L49.866 16.0972L49.865 16.0962C49.729 16.7122 50.051 15.2582 50.018 15.4082L50.02 15.4072L50.056 15.4002C50.078 15.3942 50.095 15.3892 50.09 15.3802L50.064 15.3652L50.035 15.3562L50.026 15.3532C50.184 14.6412 49.81 16.3222 49.849 16.1492L49.85 16.1502L49.853 16.1512L49.858 16.1552L49.881 16.1692C49.919 16.1582 49.91 16.1072 49.973 16.1172C50.228 16.2602 50.033 16.3752 50.664 16.5052L50.881 16.4552C51.892 16.7172 53.224 16.4542 53.915 15.4202C54.104 15.3242 54.432 14.8002 54.616 14.4852L54.582 14.4512C54.745 14.3032 54.793 13.9152 54.886 13.6742L54.916 13.4322C54.883 13.3222 54.674 14.0472 54.639 13.7982C54.746 13.3182 54.988 13.0522 54.998 12.6102C55.053 12.1792 55.099 12.3062 55.146 11.9512C55.19 11.8422 55.191 12.0912 55.24 12.0652C55.215 11.0152 55.045 11.0712 54.923 10.2492C54.955 10.2162 54.94 9.5372 55.092 10.1322V10.4322L55.173 10.6222C55.14 10.3952 55.069 9.9822 55.126 10.0172C54.976 9.7692 54.842 8.4172 54.811 9.1372C54.963 9.4942 55.006 9.6092 54.97 9.8762C54.778 9.0272 54.432 8.3242 53.997 7.8002L53.923 7.5792C53.87 7.6162 53.619 7.4162 53.356 7.2642C53.261 7.1652 53.123 7.0642 53.172 7.0532C53.148 6.9522 54.081 7.7582 53.722 7.2652C53.134 6.7232 52.366 6.6282 51.946 6.6502C52.239 6.7682 52.481 6.7472 52.742 7.0252C53.758 7.5382 54.518 8.7752 54.596 10.0172C54.652 10.0462 54.723 10.3632 54.759 10.2552C54.812 10.3612 54.824 10.6812 54.91 10.7552C54.958 11.7222 54.878 12.8872 54.546 13.6822C54.511 13.4022 54.29 14.1232 54.133 14.2912C54.083 14.5162 53.876 14.8262 53.707 15.0272C53.673 15.0332 53.569 15.1572 53.567 15.0942C53.694 14.9522 53.716 14.8722 53.822 14.7042C53.693 14.6872 53.594 15.0642 53.381 15.2592L53.521 15.1992C53.226 15.5812 52.781 16.0432 52.351 16.0722C52.46 16.0212 52.552 15.9112 52.647 15.8352C52.191 16.0332 51.567 16.2092 51.208 16.0242C51.533 16.0302 52.085 16.0562 52.052 15.8882C52.025 15.8362 51.668 15.8672 51.492 15.8942C51.12 15.9522 50.754 15.8512 50.468 15.7162L50.243 15.6062L50.132 15.5522L50.074 15.5252L50.06 15.5182L50.052 15.5152L50.049 15.5132C49.998 15.7412 50.161 15.0042 49.935 16.0232H49.937H49.939L49.972 16.0272C50.147 16.0422 50.326 16.0392 50.505 16.0022Z" fill="#0E3692"/>
<path d="M50.5815 15.5362C51.1585 15.6722 50.8455 15.8262 51.4385 15.8772C51.3685 15.7992 51.6515 15.7242 51.8385 15.7152C52.0205 15.7262 52.2355 15.6522 52.3845 15.5982C52.4785 15.5292 52.4405 15.4642 52.2455 15.5252C51.7735 15.8772 51.0775 15.5142 50.5815 15.5362Z" fill="#0E3692"/>
<path d="M49.9969 15.7678C50.1999 15.8738 50.2069 15.6788 50.4719 15.8278C50.3679 15.6898 50.3069 15.7688 50.0299 15.6438L50.1739 15.7658C50.1219 15.7718 49.9709 15.7318 49.9969 15.7678Z" fill="#0E3692"/>
<path d="M54.3149 11.8242C54.3099 11.5262 54.3069 11.4472 54.3329 11.3052L54.3639 11.3862C54.3459 11.5412 54.3549 11.5602 54.3149 11.8242Z" fill="#0E3692"/>
<path d="M53.5572 7.7655C53.8502 8.2285 54.1432 8.9565 54.1432 9.5705C54.0612 9.3095 54.0372 9.3115 53.9152 8.9095C53.8672 9.2615 54.0962 9.5315 54.1482 9.9105C54.0832 9.6125 54.0802 10.0245 54.1012 10.2825C54.1772 10.7315 54.2802 11.5835 54.1132 12.2625C54.0302 12.5365 53.8292 13.4645 53.7462 13.2785C53.6032 13.6475 53.6682 13.7465 53.5662 14.0365C53.0912 14.7075 52.9132 15.6845 51.9752 15.9855C52.0602 16.0495 51.6342 16.2445 51.4592 16.2775C51.0822 16.4435 50.1932 16.4015 50.3992 16.2375C50.6342 16.1535 51.1582 16.3105 51.5132 16.0625C52.1002 15.7105 50.8402 16.1975 50.8182 15.9755C50.9102 15.9875 50.9502 15.8745 51.2202 15.8665C50.6522 15.8975 51.4252 15.6645 51.1292 15.6305C51.7052 15.3795 51.6382 15.3495 51.8352 15.0515C52.1322 14.8675 52.1132 15.0285 52.2342 15.0225C52.5882 14.7985 52.6922 14.4035 52.9032 14.1035C52.6102 14.2165 53.0952 13.4795 53.2202 13.0255C53.3822 12.4525 53.4522 12.9065 53.5872 12.2685C53.5692 11.9325 53.3212 12.8615 53.3212 12.4205L53.4232 12.1505C53.5332 12.0005 53.6572 11.8415 53.7312 11.6685C53.7272 11.5285 53.7212 11.3185 53.6922 11.3145C53.6702 11.5895 53.5942 11.5035 53.5422 11.2235C53.5682 11.0905 53.5752 11.0565 53.6022 10.9915C53.8402 11.5335 53.5952 10.4035 53.6382 9.9965C53.5612 8.8255 53.3222 9.4675 53.0182 8.4755C53.3312 8.6425 52.7862 7.7975 52.5762 7.5295C52.3652 7.3495 52.2712 7.3105 52.0832 7.2825C52.0332 7.2245 51.8662 7.1035 51.8542 7.0475C52.0492 6.8705 52.8252 6.8885 53.5432 7.7085C53.5532 7.7375 53.5622 7.7625 53.5572 7.7655Z" fill="#0E3692"/>
<path d="M33.8764 2.6132C33.8664 1.9152 33.6324 2.2142 33.8744 1.5452C33.8904 1.6572 34.0774 1.3912 34.2224 1.2782C34.3284 1.1362 34.6034 1.0672 34.7454 0.9772C34.8574 0.9332 34.8594 1.0392 34.6614 1.1482C33.9974 1.1612 33.8854 2.0432 33.8764 2.6132Z" fill="#0E3692"/>
<path d="M33.6844 3.4062C33.5184 3.0042 33.7484 3.0982 33.6234 2.7082C33.7494 2.8582 33.6314 2.9392 33.7654 3.3012L33.6514 3.1092L33.6844 3.4062Z" fill="#0E3692"/>
<path d="M34.7812 0.814384C34.9883 0.747384 35.5003 0.777384 35.5013 0.869384C35.5313 0.880384 35.4763 0.924384 35.5943 0.932384C35.4153 0.873384 34.8883 0.918384 34.7812 0.814384Z" fill="#0E3692"/>
<path d="M33.7249 1.0745C33.7999 0.942504 33.9179 0.764504 34.1179 0.675504C33.9919 0.742504 33.8639 0.928504 33.7249 1.0745Z" fill="#0E3692"/>
<path d="M35.0376 0.576704C34.9836 0.502704 35.2346 0.538704 35.2996 0.532704L35.4376 0.553704C35.3076 0.584704 35.1476 0.609704 35.0376 0.576704Z" fill="#0E3692"/>
<path d="M36.9017 1.24009C37.1947 1.41209 36.5527 1.18409 36.9077 1.36509L36.6977 1.27809L36.6597 1.12909L36.9017 1.24009Z" fill="#0E3692"/>
<path d="M37.0291 1.1199C37.1911 1.1649 37.1411 1.2249 37.2231 1.3029C37.1621 1.2839 36.8741 1.0539 37.0291 1.1199Z" fill="#0E3692"/>
<path d="M38.3633 16.5832L38.4443 16.5862C38.3633 16.5832 38.2473 16.5952 38.1723 16.6082C38.1633 16.5742 38.3013 16.5142 38.4553 16.5042C38.4273 16.5362 38.2773 16.5632 38.3633 16.5832Z" fill="#0E3692"/>
<path d="M34.8534 14.061C34.6734 13.663 34.8784 13.74 34.7004 13.357C34.8294 13.494 34.7764 13.58 34.9244 13.943L34.7984 13.758L34.8534 14.061Z" fill="#0E3692"/>
<path d="M34.1561 11.7744C34.1451 11.6104 34.1491 11.4424 34.1551 11.1914C34.1651 11.3574 34.1981 11.5584 34.1561 11.7744Z" fill="#0E3692"/>
<path d="M33.7117 4.66341C33.8317 4.68841 33.9057 4.89941 34.0277 5.05241C33.9047 4.89841 33.8237 4.86041 33.7117 4.66341Z" fill="#0E3692"/>
<path d="M34.6663 4.2288C34.6373 4.1318 34.5593 4.0578 34.5063 4.0228L34.5103 4.0838L34.6663 4.2288Z" fill="#0E3692"/>
<path d="M35.6862 14.3993C35.7952 14.5873 35.9962 14.9093 35.9152 14.9053L35.9132 14.9703C35.7852 14.8213 35.4142 14.1163 35.6862 14.3993Z" fill="#0E3692"/>
<path d="M35.8828 14.1818C35.9528 14.3518 35.8728 14.2428 35.8388 14.2298L35.7278 14.0048C35.7188 13.9208 35.8218 14.1008 35.8828 14.1818Z" fill="#0E3692"/>
<path d="M36.6353 15.6953C36.4413 15.6473 36.0743 15.3333 36.1203 15.2333C36.1013 15.2103 36.1653 15.1943 36.0693 15.1473C36.1813 15.2933 36.5943 15.5543 36.6353 15.6953Z" fill="#0E3692"/>
<path d="M37.4657 16.2877C37.3437 16.2977 37.2167 16.3197 37.0327 16.2667C37.1567 16.2867 37.3057 16.2447 37.4657 16.2877Z" fill="#0E3692"/>
<path d="M36.3321 15.7646C36.3381 15.8626 36.1651 15.6966 36.1191 15.6516L36.0291 15.5466C36.1391 15.5966 36.2561 15.6956 36.3321 15.7646Z" fill="#0E3692"/>
<path d="M35.2128 14.2354C35.0848 13.9354 35.4438 14.4724 35.2708 14.1334L35.3858 14.3134L35.3418 14.4534L35.2128 14.2354Z" fill="#0E3692"/>
<path d="M35.0818 13.7312C35.0288 13.6552 34.9868 13.5682 34.9468 13.4032L35.0138 13.4702C35.0488 13.5202 35.0348 13.6102 35.0818 13.7312Z" fill="#0E3692"/>
<path d="M35.0592 14.2582C34.9702 14.1232 35.0252 14.1142 35.0002 14.0082C35.0512 14.0452 35.1362 14.4022 35.0592 14.2582Z" fill="#0E3692"/>
<path d="M33.9165 12.8804C34.0335 13.0254 34.0745 13.3824 34.2025 13.6934C34.0785 13.3834 33.9935 13.2614 33.9165 12.8804Z" fill="#0E3692"/>
<path d="M35.3793 14.0512C35.5393 14.1502 35.3613 13.9122 35.3203 13.5812C35.1873 13.1882 35.0043 12.7972 34.9213 12.3842L34.8213 12.1452C34.8643 12.6552 35.0783 13.5312 35.3793 14.0512Z" fill="#0E3692"/>
<path d="M35.927 14.0397C35.834 13.7667 35.634 13.4637 35.564 13.2627C35.666 13.6037 35.851 14.0207 35.973 14.2297C36.006 14.2417 35.949 14.1107 35.927 14.0397Z" fill="#0E3692"/>
<path d="M44.2546 9.1631C44.2546 9.1631 37.5946 -1.8059 34.0876 0.895097C34.0876 0.895097 32.8756 1.7791 33.8696 3.9141C33.8696 3.9141 35.8076 6.6811 35.8446 8.3411L44.2546 9.1631Z" fill="#4FB29E"/>
<path d="M36.0891 7.4971C36.0111 7.2481 35.8931 6.8331 35.9691 6.8721L35.9861 6.8071C36.0721 6.9961 36.2971 7.9231 36.0891 7.4971Z" fill="#0E3692"/>
<path d="M35.8512 7.64439C35.8152 7.43439 35.8732 7.58339 35.9042 7.61239L35.9572 7.90739C35.9462 8.00239 35.8832 7.76139 35.8512 7.64439Z" fill="#0E3692"/>
<path d="M35.2839 7.72759L35.2899 7.80259C35.2839 7.72759 35.2609 7.62159 35.2419 7.55459C35.2679 7.53659 35.3329 7.65659 35.3599 7.80159C35.3299 7.77959 35.2909 7.64359 35.2839 7.72759Z" fill="#0E3692"/>
<path d="M34.0661 3.9075C33.9641 3.9265 34.0071 4.2355 34.1091 4.5685L33.9271 4.5735C33.8621 4.3845 33.5281 3.8925 33.4081 3.4635C33.3221 3.3205 33.5001 3.8605 33.3241 3.4755C33.3271 3.4205 33.3741 3.4385 33.3571 3.3495C33.2471 2.9825 33.1121 3.2365 33.0891 2.3025L33.1731 1.9965C33.3661 0.172503 35.2921 -0.314497 36.2911 0.183503C36.5231 0.130503 37.0541 0.449503 37.4041 0.558503L37.3921 0.610503C37.6011 0.647503 37.8541 0.945503 38.0731 1.0805L38.2411 1.2575C38.2791 1.3715 37.6761 0.920503 37.7941 1.1465C38.1751 1.4665 38.5051 1.5505 38.7911 1.8905C39.0961 2.1705 39.0821 2.1025 39.2841 2.2555C39.3591 2.2595 39.2511 2.1565 39.3021 2.1265C39.9961 2.7485 39.8711 2.9985 40.4361 3.5855C40.4811 3.5735 40.9901 3.9805 40.6131 3.4805L40.3841 3.3055L40.2831 3.1145C40.4371 3.2795 40.7161 3.5905 40.7181 3.5105C40.8031 3.8735 41.8391 4.5705 41.2541 4.3005C41.0341 3.9685 40.9551 3.8895 40.7461 3.7555C41.3051 4.4315 41.7371 5.0885 42.1741 5.6635L42.3561 5.7745C42.3111 5.8455 42.4841 6.1675 42.6741 6.4605C42.7761 6.5655 42.8791 6.7305 42.8811 6.6635C42.9611 6.6785 42.1541 5.6265 42.6221 6.0225C43.0821 6.6935 43.5121 7.4555 43.7191 7.9645C43.4911 7.6655 43.3591 7.4205 43.0521 7.1725C42.2061 6.1445 41.3781 4.9305 40.4551 4.0665C40.4591 3.9875 40.2431 3.7215 40.3471 3.7505C40.2911 3.6315 40.0441 3.4245 40.0321 3.2945C39.3131 2.6305 38.4991 1.8075 37.7811 1.3095C37.9131 1.5825 37.3101 1.0955 37.0811 1.0405C36.9061 0.887503 36.5531 0.741503 36.2971 0.639503C36.2621 0.658503 36.0951 0.631503 36.1271 0.682503C36.3271 0.696503 36.3841 0.775503 36.5681 0.878503C36.4641 0.929503 36.1671 0.692503 35.8651 0.644503L36.0291 0.617503C35.5651 0.472503 34.8821 0.265503 34.4771 0.631503C34.6141 0.616503 34.7331 0.546503 34.8691 0.584503C34.3541 0.756503 33.6271 1.1145 33.6481 1.7295C33.7641 1.3055 34.2131 0.800503 34.2961 0.993503C34.2801 1.0445 34.0011 1.2885 33.8881 1.4765C33.3411 2.3025 33.9081 3.1545 34.0661 3.9075Z" fill="#0E3692"/>
<path d="M37.3105 1.61079C37.4035 1.64179 37.4915 1.69079 37.6265 1.80979L37.5275 1.79479C37.4665 1.77379 37.4245 1.68679 37.3105 1.61079Z" fill="#0E3692"/>
<path d="M38.783 1.5213C38.599 1.4983 38.376 1.2043 38.083 1.0473C38.375 1.2043 38.493 1.2723 38.783 1.5213Z" fill="#0E3692"/>
<path d="M37.7263 7.99499C37.8643 8.04199 38.0313 8.02999 38.1303 8.01299L38.0593 7.97099L37.7263 7.99499Z" fill="#0E3692"/>
<path d="M36.3043 8.03919C36.2453 7.93419 36.2373 7.97919 36.2393 8.09919L36.2403 8.20319L36.2413 8.26419V8.29619L36.2423 8.31319V8.32119V8.32519L36.2413 8.32719L36.2423 8.32819C36.3213 8.42819 35.5513 7.45619 35.8773 7.86819L36.0773 7.93019C36.4513 7.98919 36.8493 7.93619 37.2223 7.97719L37.4533 7.93619C37.2313 7.89419 36.9253 7.84519 36.6083 7.80819L36.1323 7.76219L35.9043 7.75019L35.8903 7.74919H35.8873H35.8853C36.0893 8.00619 35.4293 7.17419 36.3413 8.32519V8.32319L36.3403 8.31319L36.3353 8.27219L36.3253 8.19219L36.3043 8.03919Z" fill="#0E3692"/>
<path d="M35.7724 7.7786L35.8424 8.3086C35.9434 8.3656 36.1214 8.3166 36.2114 8.3386C35.7074 8.4756 35.9224 7.8346 35.7714 7.5556C35.7404 7.5296 35.7744 7.6916 35.7724 7.7786Z" fill="#0E3692"/>
<path d="M41.3393 8.28419C40.8663 8.24319 40.2163 8.08919 39.6873 8.18419C39.9263 8.23119 39.9293 8.26719 40.3033 8.32619C40.0113 8.45019 39.7263 8.24919 39.3883 8.21919C39.6623 8.27819 39.2953 8.30819 39.0593 8.29619C38.6163 8.21419 37.9073 8.16019 37.2993 8.10719C37.0333 8.13719 36.1803 7.96619 36.2943 8.12519C36.1093 8.11319 36.0053 8.07819 35.9143 8.03819C36.3173 8.63219 36.0593 7.99519 36.1403 7.96019C35.8133 6.95719 35.8213 6.04719 35.1833 5.21319C35.2763 5.22119 35.0173 4.77519 34.9183 4.60119C34.7083 4.21719 34.1403 3.36019 34.1563 3.65119C34.2533 3.96619 34.6903 4.35119 34.8433 4.80919C35.1143 5.57919 34.3863 4.14919 34.2693 4.24019C34.3463 4.31919 34.2943 4.44719 34.5013 4.70919C34.0803 4.13619 34.5453 5.05919 34.2913 4.79819C34.6473 5.55019 34.6043 5.49119 34.6633 5.95319C34.9063 6.36819 34.9363 6.18419 35.0523 6.27319C35.3323 6.71419 35.3583 7.17719 35.5083 7.58919C35.3653 7.46419 35.3993 7.66019 35.4373 7.93119L35.4683 8.14519L35.4773 8.25519L35.4833 8.31019L35.4863 8.33819L35.4873 8.35219H35.4883C36.1423 9.17819 35.6693 8.58119 35.8153 8.76519H35.8163L35.8183 8.76619H35.8223H35.8293C35.9823 8.77919 36.1313 8.79019 36.2503 8.80019C36.8593 8.87119 36.4693 8.61719 37.1143 8.69919C37.4273 8.84119 36.4503 8.78219 36.8653 8.94219L37.1663 8.92419C37.3613 8.85319 37.5203 8.75219 37.7523 8.71119C37.8873 8.72319 38.0903 8.74019 38.0933 8.77619C37.8253 8.78819 37.9003 8.88319 38.1753 8.95919C38.3073 8.93619 38.3403 8.93019 38.4053 8.90019C37.8773 8.59919 38.9793 8.94219 39.3723 8.83519C40.5053 8.74019 39.9383 9.18419 41.0453 9.18419C40.7233 8.93519 41.7803 9.14219 42.1453 9.09519C42.4503 9.13019 42.5563 9.20119 42.7653 9.29019C42.8503 9.27519 43.0873 9.28619 43.1263 9.24719C42.9753 8.94219 42.2863 8.60019 41.3863 8.27219C41.3613 8.27519 41.3393 8.27819 41.3393 8.28419Z" fill="#0E3692"/>
<path d="M44.2719 9.23429C44.2719 9.23429 34.2579 2.24129 34.2889 11.9973C34.2889 11.9973 34.7679 16.9493 38.4399 16.0223C38.4399 16.0223 42.1019 15.2423 44.2719 9.23429Z" fill="#4FB29E"/>
<path d="M38.2701 15.6049C38.0861 15.6539 37.7651 15.6769 37.8141 15.5969L37.7751 15.5599C37.9271 15.5379 38.5741 15.4379 38.2701 15.6049Z" fill="#0E3692"/>
<path d="M38.3665 15.9075C38.1925 15.9115 38.3195 15.8715 38.3445 15.8405L38.5725 15.7895C38.6465 15.7985 38.4675 15.8855 38.3665 15.9075Z" fill="#0E3692"/>
<path d="M35.2897 14.5532C35.1837 14.5692 35.2087 14.8782 35.3597 15.2182L35.1727 15.2342C35.0557 14.9742 34.7537 14.5452 34.5847 14.1542C34.4897 14.0222 34.7077 14.5412 34.5027 14.1772C34.5037 14.1222 34.5477 14.1342 34.5287 14.0452C34.3697 13.7132 34.2997 13.9632 34.0987 13.1472L34.1007 12.8552C33.8087 11.3592 33.9017 9.8752 34.4947 8.5802C34.5007 8.2952 34.9067 7.6932 35.1687 7.3392L35.2047 7.3712C35.3297 7.1282 35.6957 6.9482 35.9367 6.8032L36.1757 6.7322C36.2777 6.7442 35.5777 7.1342 35.8227 7.1302C36.2727 6.8952 36.5577 6.6172 36.9887 6.5912C37.3927 6.5472 37.3397 6.4832 37.5897 6.4412C37.6517 6.3842 37.5047 6.3942 37.5277 6.3312C38.4537 6.2632 38.4807 6.5692 39.2477 6.6732C39.2807 6.6282 39.9117 6.6712 39.3497 6.4682L39.0667 6.4732L38.8847 6.3802C39.1007 6.4142 39.4917 6.4952 39.4557 6.4302C39.7047 6.6642 40.9277 6.6682 40.2917 6.7742C39.9477 6.6232 39.8417 6.5972 39.5957 6.6232C40.4007 6.8402 41.0627 7.1822 41.6847 7.4632H41.8947C41.8827 7.5502 42.1657 7.7462 42.4497 7.9162C42.5817 7.9632 42.7397 8.0542 42.7157 7.9942C42.7947 7.9682 41.6567 7.4272 42.2337 7.5452C42.9147 7.9142 43.5917 8.3982 43.9597 8.7762C43.6467 8.6022 43.4317 8.4502 43.0617 8.3702C41.9117 7.8572 40.6787 7.2102 39.4877 7.0732C39.4557 7.0012 39.1487 6.9082 39.2507 6.8682C39.1457 6.8082 38.8377 6.7952 38.7627 6.7012C37.8377 6.6562 36.7007 6.6832 35.9377 7.2252C36.2007 7.2112 35.5287 7.6082 35.4227 7.8842C35.2217 8.0092 35.0007 8.3892 34.8737 8.6792C34.8787 8.7252 34.8087 8.9102 34.8597 8.8862C34.9367 8.6632 34.9917 8.5982 35.1267 8.4142C35.1477 8.5502 34.8877 8.8442 34.7597 9.1822L34.7777 8.9832C34.5677 9.5292 34.2397 10.2232 34.2977 10.8052L34.4407 10.3502C34.4137 11.0212 34.1837 11.8992 34.4157 12.3672C34.3287 11.9262 34.3767 11.1712 34.4707 11.1892C34.5367 11.2222 34.5177 11.7432 34.4827 11.9912C34.5017 13.0252 35.0207 13.7312 35.2897 14.5532Z" fill="#0E3692"/>
<path d="M34.9319 13.1928C34.7079 12.3938 34.6289 12.8498 34.5039 12.0328C34.5659 12.1128 34.6219 11.8028 34.6409 11.4848C34.6009 11.2098 34.6669 10.8948 34.6899 10.6618C34.7199 10.5048 34.7979 10.5438 34.7679 10.8508C34.5209 11.6438 34.7909 12.4488 34.9319 13.1928Z" fill="#0E3692"/>
<path d="M34.5898 10.5474C34.6138 10.2704 34.7758 9.65339 34.8778 9.68039C34.8958 9.64539 34.9198 9.72439 34.9468 9.57939C34.8378 9.77639 34.7108 10.4634 34.5898 10.5474Z" fill="#0E3692"/>
<path d="M34.485 10.1509C34.41 10.1889 34.515 9.90989 34.53 9.83089L34.591 9.67489C34.572 9.83489 34.546 10.0339 34.485 10.1509Z" fill="#0E3692"/>
<path d="M35.5142 8.1503C35.7532 7.9043 35.3472 8.4973 35.6152 8.1903L35.4732 8.3773L35.3472 8.3753C35.3902 8.2873 35.4592 8.2263 35.5142 8.1503Z" fill="#0E3692"/>
<path d="M35.9358 7.86C35.9888 7.768 36.0688 7.711 36.2168 7.643L36.1598 7.731C36.1188 7.782 36.0288 7.764 35.9358 7.86Z" fill="#0E3692"/>
<path d="M35.4655 7.9696C35.5625 7.8086 35.5805 7.8736 35.6755 7.8216C35.6365 7.8746 35.3615 8.1206 35.4655 7.9696Z" fill="#0E3692"/>
<path d="M36.74 6.3551C36.587 6.4931 36.226 6.5591 35.918 6.7751C36.224 6.5781 36.353 6.4491 36.74 6.3551Z" fill="#0E3692"/>
<path d="M40.3613 14.3861C40.4873 14.3191 40.6043 14.1851 40.6673 14.0981L40.5923 14.1191L40.3613 14.3861Z" fill="#0E3692"/>
<path d="M38.613 15.3711C38.508 15.5281 38.724 15.4021 39.003 15.3611C39.35 15.2291 39.655 14.9351 39.966 14.7241L40.124 14.5321C39.749 14.7861 39.068 15.1511 38.613 15.3711Z" fill="#0E3692"/>
<path d="M38.4734 16.0104C38.7624 15.9844 39.0884 15.7524 39.2744 15.6554C38.9524 15.8054 38.5264 15.9684 38.2844 15.9844C38.2584 16.0144 38.3994 16.0104 38.4734 16.0104Z" fill="#0E3692"/>
<path d="M42.7464 11.3508C42.5014 11.8238 42.0494 12.3608 41.7944 12.8958C41.9634 12.7008 42.0004 12.7318 42.2464 12.4038C42.1724 12.7618 41.8574 12.9028 41.6364 13.1918C41.8474 12.9868 41.6364 13.3328 41.4714 13.5308C41.1364 13.8718 40.6004 14.4058 40.0894 14.7768C39.9014 15.0058 39.1074 15.3538 39.2654 15.4218C38.9304 15.5978 38.8484 15.5118 38.5924 15.5718C37.8394 15.9428 37.2144 15.5138 36.5054 15.3718C36.5694 15.3308 36.2484 15.1218 36.1314 15.0228C35.8604 14.8228 35.4064 14.0608 35.3994 14.3128C35.4484 14.6348 35.8834 14.9168 36.1094 15.2328C36.5424 15.7928 35.5354 14.8718 35.4914 14.8688C35.5714 14.9328 35.5194 15.0848 35.7754 15.2728C35.2524 14.8308 35.8884 15.6038 35.5884 15.4188C36.1584 16.0518 36.1244 15.9628 36.4464 16.3308C36.9294 16.4808 36.8244 16.2748 36.9664 16.2498C37.4544 16.2808 37.8494 16.4168 38.2724 16.2968C37.9694 16.6078 39.0464 16.3448 39.4914 16.0428C40.0884 15.7208 39.6224 15.7568 40.2264 15.3908C40.5714 15.2868 39.6794 15.9198 40.1204 15.7638L40.3794 15.5348C40.5104 15.3258 40.6014 15.1428 40.7594 14.9198C40.8734 14.8208 41.0434 14.6728 41.0654 14.6968C40.8594 14.9178 40.9714 14.9358 41.2334 14.7628C41.3204 14.6298 41.3424 14.5968 41.3734 14.5198C40.8044 14.7628 41.8344 14.0578 42.0224 13.6028C42.6684 12.4468 42.6294 13.2718 43.2564 12.1058C42.9064 12.3248 43.6174 11.3048 43.7164 10.8598C43.8724 10.5338 43.9834 10.4508 44.1244 10.2398C44.1444 10.1348 44.2394 9.8658 44.2234 9.8088C43.9324 9.8768 43.4244 10.5428 42.7594 11.2968C42.7494 11.3238 42.7414 11.3478 42.7464 11.3508Z" fill="#0E3692"/>
<path d="M35.1838 0.472395C34.7948 0.500395 34.4258 0.633395 34.0878 0.895395C34.0878 0.895395 32.8758 1.7794 33.8698 3.9134C33.8698 3.9134 35.8078 6.6814 35.8448 8.3414L36.5908 7.0034C36.0908 5.4274 34.8118 3.6004 34.8118 3.6004C33.8178 1.4664 35.0288 0.582396 35.0288 0.582396C35.0798 0.542396 35.1318 0.506395 35.1838 0.472395Z" fill="#0E3692"/>
<path d="M35.5575 5.59029C35.6325 5.69929 35.7155 5.92029 35.6465 5.92329L35.6275 5.96929C35.5815 5.86529 35.3665 5.44329 35.5575 5.59029Z" fill="#0E3692"/>
<path d="M35.7664 5.3925C35.8034 5.5115 35.7484 5.4405 35.7204 5.4365L35.6484 5.2895C35.6494 5.2275 35.7294 5.3355 35.7664 5.3925Z" fill="#0E3692"/>
<path d="M36.273 5.09869L36.262 5.04469L36.324 5.21069C36.3 5.23269 36.232 5.16969 36.199 5.07369C36.227 5.07769 36.272 5.16369 36.273 5.09869Z" fill="#0E3692"/>
<path d="M36.1473 7.4635C36.2043 7.5535 36.3883 7.5035 36.5563 7.3875L36.6433 7.5505C36.5113 7.6335 36.3993 7.9205 36.2883 8.1255C36.2703 8.2245 36.4343 7.9695 36.3503 8.1905C36.3193 8.1985 36.2973 8.1585 36.2623 8.1915C36.2283 8.2935 36.2493 8.3405 36.2473 8.4075C36.2473 8.4415 36.2403 8.4805 36.2193 8.5345L36.2003 8.5775L36.1883 8.6015L36.1853 8.6075L36.1833 8.6105C34.6913 8.0975 35.7703 8.4685 35.4373 8.3535L35.4363 8.3515L35.4353 8.3385L35.4293 8.2215L35.4903 8.0855C35.3713 7.3855 34.9403 6.7265 34.6843 6.0575C34.5623 5.9915 34.4113 5.6555 34.2623 5.4965L34.2963 5.4625C34.1703 5.4045 34.1403 5.1555 34.0493 5.0285L34.0113 4.8785C34.0413 4.7805 34.2483 5.1985 34.2713 5.0145C34.1633 4.7105 33.9213 4.6525 33.8433 4.3805C33.7083 4.1245 33.7203 4.2945 33.5653 4.0405C33.5103 4.0225 33.5483 4.1195 33.4963 4.1325C33.2483 3.5115 33.4033 3.4145 33.2993 2.8425C33.2593 2.8375 33.0873 2.3615 33.1083 2.8245L33.1913 3.0315L33.1683 3.1935C33.1353 3.0245 33.0873 2.7125 33.0433 2.7555C33.1313 2.5405 32.9343 1.4735 33.1293 2.0235C33.0773 2.3205 33.0763 2.4245 33.1523 2.6065C33.1283 1.9295 33.3603 1.3505 33.6633 0.9505L33.7013 0.7665C33.7563 0.8235 33.9663 0.6615 34.1613 0.6065C34.2323 0.5445 34.3373 0.4935 34.2973 0.4675C34.3283 0.3485 33.5813 0.910499 33.8743 0.504499C34.3253 0.218499 34.8693 0.1545 35.1723 0.2505C34.9613 0.3155 34.7963 0.327499 34.6033 0.490499C33.8863 0.780499 33.3053 1.7375 33.5443 2.5845C33.4993 2.6195 33.5183 2.8435 33.4553 2.7875C33.4333 2.8755 33.5093 3.0815 33.4503 3.1665C33.6783 3.8045 34.0723 4.4365 34.3523 4.8955C34.3793 4.6715 34.5953 5.1245 34.7143 5.2255C34.7403 5.3915 34.8823 5.5955 34.9703 5.7605C34.9983 5.7645 35.0603 5.8625 35.0783 5.8145C34.9993 5.7015 35.0003 5.6395 34.9443 5.5045C35.0523 5.4955 35.0883 5.7765 35.1753 5.9715L35.0813 5.9045C35.2413 6.2235 35.2643 6.6975 35.4623 6.9435L35.4433 6.6435C35.6443 6.9935 35.6753 7.5185 35.8433 7.7795C35.8253 7.4905 35.6103 7.0935 35.7263 7.0455C35.7953 7.0265 35.8953 7.3395 35.9053 7.5035C35.9243 7.6745 35.9383 7.8395 35.9753 7.9885L36.0103 8.2225C35.8653 8.2065 36.3633 8.4195 35.6903 8.2165L35.7303 8.1225C35.8343 7.8715 35.9403 7.6365 36.1473 7.4635Z" fill="#0E3692"/>
<path d="M35.5556 8.05541L35.5446 8.07641L35.5396 8.08641L35.5366 8.09141L35.5356 8.09341L35.5346 8.09441C36.8966 8.56341 35.9116 8.22441 36.2156 8.32841L36.2096 8.27541L36.1956 8.18741L36.1636 8.05941C36.1396 7.99341 36.1176 7.95841 36.0886 7.92941C36.0316 7.86941 35.9876 7.81041 35.9326 7.54441C36.0146 7.58841 35.9996 7.30941 35.9496 7.13241C35.8556 6.98741 35.8166 6.77741 35.7556 6.64341C35.7296 6.54241 35.8076 6.51141 35.8856 6.69741C35.9136 6.96541 36.0226 7.22341 36.1166 7.50341L36.2256 7.93941L36.2376 8.16941L36.2336 8.27941L36.2316 8.30641L36.2296 8.31941L36.2286 8.32641V8.32841C34.8206 7.84441 35.8386 8.19441 35.5246 8.08641L35.5266 8.08441L35.5556 8.05541Z" fill="#0E3692"/>
<path d="M36.079 7.91369C35.963 8.14369 35.881 7.95569 35.792 8.20169C35.775 8.05469 35.858 8.07869 35.969 7.87369L35.942 8.02069L36.079 7.91369Z" fill="#0E3692"/>
<path d="M35.6333 6.64509C35.5653 6.48909 35.4343 6.11409 35.5073 6.05009C35.5023 6.02309 35.5603 6.03509 35.5043 5.95809C35.5463 6.11009 35.7183 6.52209 35.6333 6.64509Z" fill="#0E3692"/>
<path d="M35.555 7.5054C35.518 7.4234 35.488 7.3364 35.439 7.2064C35.484 7.2844 35.558 7.3744 35.555 7.5054Z" fill="#0E3692"/>
<path d="M35.4027 6.52949C35.3577 6.59449 35.3307 6.41149 35.3107 6.36849L35.2947 6.26249C35.3467 6.33849 35.4037 6.44049 35.4027 6.52949Z" fill="#0E3692"/>
<path d="M34.9303 5.13549C34.8353 4.90749 35.1223 5.29849 34.9923 5.04049L35.0803 5.17949L35.0243 5.29949L34.9303 5.13549Z" fill="#0E3692"/>
<path d="M34.8226 4.7556C34.7696 4.7116 34.7276 4.6576 34.6816 4.5406L34.7466 4.5706C34.7826 4.5986 34.7746 4.6746 34.8226 4.7556Z" fill="#0E3692"/>
<path d="M34.7881 5.1829C34.7131 5.0989 34.7631 5.0789 34.7441 5.0019C34.7921 5.0179 34.8521 5.2789 34.7881 5.1829Z" fill="#0E3692"/>
<path d="M35.3292 5.41799C35.4592 5.44199 35.3352 5.32099 35.3012 5.10699C35.1942 4.87399 34.9922 4.70499 34.8662 4.49099L34.7432 4.40299C34.8782 4.67299 35.1182 5.13999 35.3292 5.41799Z" fill="#0E3692"/>
<path d="M35.8255 5.2738C35.7695 5.0778 35.5875 4.9088 35.5195 4.7888C35.6225 5.0018 35.7735 5.2638 35.8395 5.4158C35.8675 5.4198 35.8355 5.3258 35.8255 5.2738Z" fill="#0E3692"/>
<path d="M34.0291 1.297C33.8921 1.72 33.8511 2.376 34.0671 2.77C34.0531 2.562 34.0741 2.553 34.0521 2.238C34.2061 2.454 34.1091 2.712 34.1631 2.998C34.1441 2.766 34.2511 3.042 34.3341 3.196C34.3931 3.56 34.7081 4.117 34.9171 4.369C35.0511 4.483 35.2861 5.031 35.3451 4.874C35.4771 5.086 35.4151 5.18 35.4831 5.359C35.8711 5.759 35.7111 6.393 36.0701 6.83C35.9901 6.833 36.0971 7.093 36.1301 7.198L36.1341 7.209C36.1571 6.973 36.0841 7.737 36.1841 6.68L36.1831 6.683L36.1811 6.686L36.1781 6.691L36.1651 6.714L36.1361 6.765L36.0721 6.879L35.9501 7.123C35.8811 7.279 35.8511 7.404 35.9411 7.391C36.0601 7.457 36.2481 6.54 36.2591 7.069C36.2511 6.827 36.3041 6.928 36.3751 7.089C36.3611 6.764 36.2071 7.331 36.2711 7.267C36.2851 7.193 36.3941 7.233 36.4611 7.028C36.2961 7.447 36.6641 6.962 36.6181 7.208C36.7771 6.46 36.6011 6.669 36.7101 6.283C36.5641 6 36.4981 6.146 36.4101 6.096C36.2251 5.831 36.2361 5.516 36.0751 5.286C36.3431 5.352 35.9811 4.768 35.8091 4.486C35.5971 4.113 35.5961 4.48 35.3771 4.087C35.3341 3.829 35.7141 4.388 35.6401 4.065L35.4991 3.916C35.3671 3.859 35.2361 3.84 35.1081 3.749C35.0551 3.672 34.9771 3.558 34.9971 3.532C35.1231 3.66 35.1521 3.562 35.0721 3.366C35.0771 3.427 35.0201 3.324 34.9931 3.329C34.9341 3.782 34.8481 2.983 34.6511 2.792C34.3581 2.071 34.7811 2.348 34.7351 1.705C34.5071 1.865 34.7331 1.23 34.8231 1.011C34.9331 0.856998 35.0221 0.845998 35.1301 0.829998C35.1491 0.782998 35.2621 0.693998 35.2601 0.643998C35.0971 0.428998 34.4651 0.451998 34.0261 1.249L34.0291 1.297Z" fill="#0E3692"/>
<path d="M37.1962 6.86999C35.5532 7.15899 34.2772 8.50498 34.2882 11.997C34.2882 11.997 34.7672 16.949 38.4402 16.022C38.4402 16.022 38.6462 15.978 38.9892 15.831L39.1442 15.762C35.6882 16.42 35.2302 11.684 35.2302 11.684C35.2222 8.89699 36.0332 7.47699 37.1962 6.86999Z" fill="#0E3692"/>
<path d="M36.3979 13.8983L36.3789 13.8343L36.4659 14.0353C36.4449 14.0613 36.3639 13.9783 36.3149 13.8613C36.3459 13.8693 36.4059 13.9743 36.3979 13.8983Z" fill="#0E3692"/>
<path d="M38.6098 16.0022C38.6538 15.9012 38.4438 15.7502 38.2138 15.6172L38.3138 15.4482C38.3988 15.4962 38.5298 15.5322 38.6768 15.5032L38.9018 15.4712L39.0128 15.4552L39.0668 15.4482L39.0938 15.4442H39.0998H39.1018C38.9798 14.8902 39.2688 16.1972 39.2388 16.0632H39.2378L39.2348 16.0652L39.2208 16.0712C39.1968 16.0912 39.2018 16.0982 39.2198 16.0992L39.2348 16.0982L39.2428 16.0972H39.2478L39.2498 16.0962C39.3858 16.7122 39.0638 15.2582 39.0968 15.4082L39.0948 15.4072L39.0588 15.4002C39.0368 15.3942 39.0198 15.3892 39.0248 15.3802L39.0508 15.3652L39.0798 15.3562L39.0888 15.3532C38.9308 14.6412 39.3048 16.3222 39.2658 16.1492L39.2648 16.1502L39.2618 16.1512L39.2568 16.1552L39.2338 16.1692C39.1958 16.1582 39.2048 16.1072 39.1418 16.1172C38.8868 16.2602 39.0818 16.3752 38.4518 16.5052L38.2338 16.4552C37.2228 16.7172 35.8908 16.4542 35.1998 15.4202C35.0108 15.3242 34.6828 14.8002 34.4988 14.4852L34.5328 14.4512C34.3698 14.3032 34.3218 13.9152 34.2288 13.6742L34.1988 13.4322C34.2318 13.3222 34.4408 14.0472 34.4758 13.7982C34.3688 13.3182 34.1268 13.0522 34.1168 12.6102C34.0618 12.1792 34.0158 12.3062 33.9688 11.9512C33.9248 11.8422 33.9238 12.0912 33.8748 12.0652C33.8998 11.0152 34.0698 11.0712 34.1928 10.2492C34.1598 10.2162 34.1748 9.5372 34.0228 10.1322V10.4322L33.9418 10.6222C33.9748 10.3952 34.0458 9.9822 33.9888 10.0172C34.1388 9.7692 34.2728 8.4172 34.3038 9.1372C34.1518 9.4942 34.1088 9.6092 34.1448 9.8762C34.3368 9.0272 34.6828 8.3242 35.1178 7.8002L35.1918 7.5792C35.2448 7.6162 35.4958 7.4162 35.7588 7.2642C35.8538 7.1652 35.9918 7.0642 35.9428 7.0532C35.9668 6.9522 35.0338 7.7582 35.3938 7.2652C35.9808 6.7232 36.7488 6.6282 37.1688 6.6502C36.8758 6.7682 36.6338 6.7472 36.3728 7.0252C35.3568 7.5382 34.5968 8.7752 34.5188 10.0172C34.4628 10.0462 34.3918 10.3632 34.3558 10.2552C34.3028 10.3612 34.2908 10.6812 34.2048 10.7552C34.1568 11.7222 34.2368 12.8872 34.5688 13.6822C34.6038 13.4022 34.8248 14.1232 34.9818 14.2912C35.0318 14.5162 35.2388 14.8262 35.4078 15.0272C35.4418 15.0332 35.5458 15.1572 35.5478 15.0942C35.4208 14.9522 35.3988 14.8722 35.2928 14.7042C35.4218 14.6872 35.5208 15.0642 35.7338 15.2592L35.5928 15.1992C35.8888 15.5812 36.3338 16.0432 36.7638 16.0722C36.6548 16.0212 36.5628 15.9112 36.4678 15.8352C36.9238 16.0332 37.5478 16.2092 37.9068 16.0242C37.5818 16.0302 37.0298 16.0562 37.0628 15.8882C37.0898 15.8362 37.4468 15.8672 37.6228 15.8942C37.9948 15.9522 38.3608 15.8512 38.6468 15.7162L38.8718 15.6062L38.9828 15.5522L39.0408 15.5252L39.0548 15.5182L39.0628 15.5152L39.0658 15.5132C39.1168 15.7412 38.9538 15.0042 39.1798 16.0232H39.1788H39.1758L39.1428 16.0262C38.9678 16.0422 38.7888 16.0392 38.6098 16.0022Z" fill="#0E3692"/>
<path d="M38.5335 15.5362C37.9565 15.6722 38.2695 15.8262 37.6765 15.8772C37.7465 15.7992 37.4635 15.7242 37.2765 15.7152C37.0945 15.7262 36.8795 15.6522 36.7305 15.5982C36.6365 15.5292 36.6745 15.4642 36.8695 15.5252C37.3415 15.8772 38.0375 15.5142 38.5335 15.5362Z" fill="#0E3692"/>
<path d="M39.1181 15.7678C38.9151 15.8738 38.9081 15.6788 38.6431 15.8278C38.7471 15.6898 38.8081 15.7688 39.0851 15.6438L38.9411 15.7658C38.9931 15.7718 39.1441 15.7318 39.1181 15.7678Z" fill="#0E3692"/>
<path d="M34.8 11.8242C34.805 11.5262 34.808 11.4472 34.782 11.3052L34.751 11.3862C34.769 11.5412 34.76 11.5602 34.8 11.8242Z" fill="#0E3692"/>
<path d="M35.5579 7.7655C35.2649 8.2285 34.9719 8.9565 34.9719 9.5705C35.0539 9.3095 35.0779 9.3115 35.1999 8.9095C35.2479 9.2615 35.0189 9.5315 34.9669 9.9105C35.0319 9.6125 35.0349 10.0245 35.0139 10.2825C34.9379 10.7315 34.8349 11.5835 35.0019 12.2625C35.0849 12.5365 35.2859 13.4645 35.3689 13.2785C35.5119 13.6475 35.4469 13.7455 35.5489 14.0365C36.0239 14.7075 36.2019 15.6845 37.1399 15.9855C37.0549 16.0495 37.4809 16.2445 37.6559 16.2775C38.0329 16.4435 38.9219 16.4015 38.7159 16.2375C38.4809 16.1535 37.9569 16.3105 37.6019 16.0625C37.0149 15.7105 38.2749 16.1975 38.2969 15.9755C38.2049 15.9875 38.1649 15.8745 37.8949 15.8665C38.4629 15.8975 37.6899 15.6645 37.9859 15.6305C37.4099 15.3795 37.4769 15.3495 37.2799 15.0515C36.9829 14.8675 37.0009 15.0285 36.8809 15.0225C36.5269 14.7985 36.4229 14.4035 36.2119 14.1035C36.5049 14.2165 36.0199 13.4795 35.8949 13.0255C35.7329 12.4525 35.6629 12.9065 35.5279 12.2685C35.5459 11.9325 35.7939 12.8615 35.7939 12.4205L35.6919 12.1505C35.5819 12.0005 35.4579 11.8415 35.3839 11.6685C35.3879 11.5285 35.3939 11.3185 35.4229 11.3145C35.4449 11.5895 35.5209 11.5035 35.5729 11.2235C35.5469 11.0905 35.5399 11.0565 35.5129 10.9915C35.2749 11.5335 35.5199 10.4035 35.4769 9.9965C35.5539 8.8255 35.7929 9.4675 36.0969 8.4755C35.7839 8.6425 36.3289 7.7975 36.5389 7.5295C36.7499 7.3495 36.8439 7.3105 37.0319 7.2825C37.0819 7.2245 37.2489 7.1035 37.2609 7.0475C37.0659 6.8705 36.2889 6.8885 35.5719 7.7085C35.5619 7.7375 35.5529 7.7625 35.5579 7.7655Z" fill="#0E3692"/>
</svg>
