<svg width="100" height="34" viewBox="0 0 100 34" fill="none" xmlns="http://www.w3.org/2000/svg">
<path d="M8.46417 25.4529V25.3196C8.44366 24.5403 8.15656 23.8773 7.60284 23.3304C7.0423 22.7835 6.37238 22.5101 5.59308 22.5101C4.80011 22.5101 4.12335 22.7903 3.56281 23.3509C3.00226 23.9114 2.72198 24.5882 2.72198 25.3812C2.72198 26.1741 3.00226 26.8543 3.56281 27.4217C4.12335 27.9822 4.80011 28.2625 5.59308 28.2625C6.37238 28.2625 7.0423 27.9891 7.60284 27.4422C8.15656 26.8953 8.44366 26.2322 8.46417 25.4529ZM8.46417 21.7923V15.4246C8.46417 15.3358 8.50861 15.2913 8.59747 15.2913H10.0843C10.1732 15.2913 10.2176 15.3358 10.2176 15.4246V29.8314C10.2176 29.9202 10.1732 29.9647 10.0843 29.9647H8.59747C8.50861 29.9647 8.46417 29.9202 8.46417 29.8314V28.9803C7.62335 29.6502 6.66632 29.9852 5.59308 29.9852C4.94366 29.9852 4.32501 29.8553 3.73712 29.5955C3.16974 29.3426 2.67413 28.9905 2.25031 28.5394C1.33429 27.5687 0.917297 26.4168 0.999329 25.0838C1.07452 23.9217 1.53595 22.9271 2.38361 22.0999C3.23126 21.2728 4.23956 20.8353 5.40851 20.7874C6.55011 20.7396 7.56866 21.0745 8.46417 21.7923ZM14.637 27.3807C15.1976 27.9481 15.8743 28.2318 16.6673 28.2318C17.4671 28.2318 18.1473 27.9481 18.7078 27.3807C19.2752 26.8201 19.5589 26.14 19.5589 25.3401C19.5589 24.5472 19.2752 23.8704 18.7078 23.3099C18.1473 22.7425 17.4671 22.4588 16.6673 22.4588C15.8743 22.4588 15.1976 22.7425 14.637 23.3099C14.0696 23.8704 13.7859 24.5472 13.7859 25.3401C13.7859 26.14 14.0696 26.8201 14.637 27.3807ZM13.4066 22.0794C14.3089 21.1839 15.3958 20.7361 16.6673 20.7361C17.9456 20.7361 19.0325 21.1839 19.928 22.0794C20.8304 22.9818 21.2816 24.0687 21.2816 25.3401C21.2816 26.6185 20.8304 27.7088 19.928 28.6111C19.0325 29.5067 17.9456 29.9544 16.6673 29.9544C15.3958 29.9544 14.3089 29.5067 13.4066 28.6111C12.5042 27.7088 12.053 26.6185 12.053 25.3401C12.053 24.0687 12.5042 22.9818 13.4066 22.0794ZM31.3919 25.9554C31.3919 26.4134 31.3919 26.7552 31.3919 26.9808C31.3987 27.8284 31.4022 28.5359 31.4022 29.1033L31.4124 29.8314C31.4124 29.9202 31.368 29.9647 31.2791 29.9647H29.8026C29.7137 29.9647 29.6693 29.9202 29.6693 29.8314L29.6795 29.1033C29.6795 28.5359 29.6829 27.8284 29.6898 26.9808C29.6898 26.7552 29.6932 26.4134 29.7 25.9554V25.6785V25.3914C29.7 25.1795 29.7 24.9847 29.7 24.8069V24.5096L29.6898 24.2943C29.6761 24.1439 29.6487 24.0003 29.6077 23.8636C29.512 23.5765 29.3582 23.3201 29.1463 23.0945C28.9412 22.8758 28.6917 22.7117 28.3978 22.6024C28.2679 22.5477 28.1277 22.5101 27.9774 22.4896L27.9158 22.4793C27.8953 22.4725 27.8817 22.4691 27.8748 22.4691H27.8441H27.8235C27.8099 22.4691 27.7894 22.4691 27.762 22.4691L27.6902 22.4588H27.6697H27.6492H27.5877L27.5364 22.4691C26.9896 22.4896 26.5281 22.7049 26.1522 23.1151C26.0018 23.2654 25.8821 23.4363 25.7933 23.6277C25.7181 23.7781 25.6634 23.9319 25.6292 24.0892C25.6087 24.1644 25.595 24.2225 25.5882 24.2635V24.3045V24.3353L25.5779 24.3865C25.5779 24.4481 25.5745 24.4959 25.5677 24.5301V24.6531V29.8519C25.5677 29.9407 25.5233 29.9852 25.4344 29.9852H23.9373C23.8484 29.9852 23.804 29.9407 23.804 29.8519V20.8489C23.804 20.7601 23.8484 20.7156 23.9373 20.7156H25.4344C25.5233 20.7156 25.5677 20.7601 25.5677 20.8489V21.5462C25.7249 21.43 25.8787 21.3343 26.0291 21.2591C26.4666 21.0335 26.9349 20.9002 27.4339 20.8592L27.5262 20.8489H27.6185H27.6697H27.7108H27.7313H27.803C27.8235 20.8489 27.8543 20.8489 27.8953 20.8489L27.9466 20.8592H27.9979C28.032 20.8592 28.0662 20.8626 28.1004 20.8694L28.2029 20.8797C28.4695 20.9207 28.7259 20.9857 28.972 21.0745C29.4984 21.2659 29.9495 21.5599 30.3255 21.9564C30.7151 22.3528 30.9988 22.8109 31.1766 23.3304C31.2654 23.5833 31.3235 23.8431 31.3509 24.1097C31.3714 24.2396 31.3817 24.3729 31.3817 24.5096V24.8069C31.3817 24.9847 31.3817 25.1795 31.3817 25.3914V25.6785L31.3919 25.9554ZM35.6165 27.8934C35.8284 28.1326 36.2249 28.2523 36.806 28.2523C37.0042 28.2523 37.199 28.2283 37.3904 28.1805C37.6434 28.1121 37.8724 28.0062 38.0775 27.8626C38.6243 27.4661 38.9525 26.803 39.0618 25.8734C38.7542 25.8528 38.4603 25.8426 38.18 25.8426C36.9427 25.8426 36.1087 26.034 35.678 26.4168C35.4935 26.5809 35.4012 26.8065 35.4012 27.0936C35.4012 27.4627 35.473 27.7293 35.6165 27.8934ZM40.8255 25.1658C40.8255 25.2752 40.8221 25.388 40.8152 25.5042C40.8084 25.7435 40.805 25.9212 40.805 26.0374C40.805 26.6321 40.846 27.3465 40.928 28.1805C40.9554 28.4881 40.9896 28.8026 41.0306 29.1238C41.0579 29.3631 41.0887 29.5989 41.1229 29.8314C41.1365 29.9339 41.0921 29.9852 40.9896 29.9852H39.513C39.4378 29.9852 39.3934 29.9476 39.3797 29.8724C39.3455 29.6194 39.3148 29.3631 39.2874 29.1033C38.5901 29.6844 37.763 29.9749 36.806 29.9749C35.8216 29.9749 35.0526 29.722 34.4988 29.2161C33.9451 28.7034 33.6683 27.9959 33.6683 27.0936C33.6683 26.2869 33.9588 25.6273 34.5399 25.1146C35.4217 24.3284 36.9324 24.0037 39.0721 24.1404C39.0242 23.532 38.8841 23.1082 38.6517 22.869C38.4124 22.616 37.992 22.4896 37.3904 22.4896C36.9393 22.4896 36.5257 22.5682 36.1497 22.7254C36.013 22.7801 35.8831 22.845 35.7601 22.9202C35.6712 22.9749 35.5926 23.0296 35.5242 23.0843C35.4627 23.139 35.4046 23.139 35.3499 23.0843L34.263 22.0897C34.1946 22.0213 34.1946 21.9564 34.263 21.8948C34.3109 21.847 34.3621 21.8026 34.4168 21.7615C34.4852 21.7 34.5604 21.6419 34.6424 21.5872C34.8406 21.4505 35.056 21.3275 35.2884 21.2181C35.9241 20.9173 36.6248 20.7669 37.3904 20.7669C38.4774 20.7669 39.3113 21.0643 39.8924 21.659C40.2957 22.076 40.5657 22.6297 40.7025 23.3201C40.7982 23.7781 40.8392 24.3934 40.8255 25.1658ZM45.9422 27.3602C45.9422 27.7908 46.0721 28.0711 46.3318 28.201C46.5506 28.3104 46.8069 28.2728 47.1009 28.0882C47.1693 28.0472 47.2274 28.0609 47.2752 28.1292L48.1468 29.2982C48.2083 29.3734 48.1981 29.4349 48.116 29.4827C47.6307 29.8177 47.1214 29.9852 46.5882 29.9852C46.2259 29.9852 45.8807 29.9031 45.5526 29.7391C45.1356 29.534 44.8074 29.2195 44.5682 28.7957C44.3358 28.3719 44.2195 27.8934 44.2195 27.3602V22.4691H42.8148C42.7259 22.4691 42.6815 22.4246 42.6815 22.3358V20.8797C42.6815 20.7908 42.7259 20.7464 42.8148 20.7464H44.2195L44.2093 18.8084C44.2093 18.7195 44.2537 18.6751 44.3426 18.6751H45.8089C45.8978 18.6751 45.9422 18.7195 45.9422 18.8084V20.7464H47.347C47.4359 20.7464 47.4803 20.7908 47.4803 20.8797V22.3358C47.4803 22.4246 47.4359 22.4691 47.347 22.4691H45.9422V27.3602ZM51.0179 24.8992L56.3294 24.4378C56.179 23.8499 55.868 23.3817 55.3963 23.033C54.9246 22.6776 54.3607 22.4998 53.7044 22.4998C53.014 22.4998 52.4193 22.7254 51.9202 23.1766C51.4212 23.6209 51.1204 24.1951 51.0179 24.8992ZM50.5565 22.0999C51.4246 21.2112 52.4842 20.7703 53.7352 20.7772C54.9588 20.784 56.0013 21.2352 56.8626 22.1307C57.7239 23.0193 58.1546 24.0789 58.1546 25.3094V25.8939C58.1546 25.9759 58.1136 26.0203 58.0316 26.0272L51.264 26.6116C51.4964 27.1038 51.845 27.5003 52.3099 27.8011C52.7816 28.1019 53.2977 28.2523 53.8582 28.2523C54.3504 28.2523 54.8118 28.136 55.2425 27.9036C55.68 27.6644 56.0286 27.3397 56.2884 26.9295C56.3362 26.8543 56.3978 26.8372 56.473 26.8782L57.7342 27.6165C57.8162 27.6575 57.8333 27.7191 57.7855 27.8011C57.3685 28.4778 56.8079 29.011 56.1038 29.4007C55.4066 29.7903 54.658 29.9852 53.8582 29.9852C52.5936 29.9852 51.5101 29.534 50.6077 28.6317C49.7054 27.7361 49.2542 26.6526 49.2542 25.3812C49.2542 24.0823 49.6883 22.9886 50.5565 22.0999Z" fill="#083783"/>
<path d="M55.6429 3.54608C55.6529 2.84808 55.8869 3.14708 55.6459 2.47808C55.6289 2.58908 55.4419 2.32408 55.2969 2.21108C55.1909 2.06908 54.9159 2.00008 54.7739 1.91008C54.6619 1.86608 54.6599 1.97208 54.8579 2.08108C55.5219 2.09408 55.6339 2.97608 55.6429 3.54608Z" fill="#083783"/>
<path d="M55.835 4.33911C56.001 3.93711 55.771 4.03111 55.896 3.64111C55.77 3.79111 55.888 3.87211 55.754 4.23411L55.868 4.04211L55.835 4.33911Z" fill="#083783"/>
<path d="M54.7382 1.74742C54.5312 1.68042 54.0192 1.71042 54.0182 1.80242C53.9882 1.81342 54.0432 1.85742 53.9252 1.86542C54.1042 1.80542 54.6312 1.85142 54.7382 1.74742Z" fill="#083783"/>
<path d="M55.7946 2.00739C55.7196 1.87539 55.6016 1.69739 55.4016 1.60839C55.5276 1.67539 55.6556 1.86139 55.7946 2.00739Z" fill="#083783"/>
<path d="M54.482 1.50961C54.536 1.43561 54.285 1.47161 54.22 1.46561L54.082 1.48661C54.212 1.51761 54.372 1.54261 54.482 1.50961Z" fill="#083783"/>
<path d="M52.6176 2.17291C52.3246 2.34491 52.9666 2.11691 52.6116 2.29791L52.8216 2.21091L52.8596 2.06191L52.6176 2.17291Z" fill="#083783"/>
<path d="M52.4903 2.05272C52.3283 2.09772 52.3783 2.15772 52.2963 2.23572C52.3573 2.21672 52.6443 1.98672 52.4903 2.05272Z" fill="#083783"/>
<path d="M51.1563 17.5162L51.0753 17.5192C51.1563 17.5162 51.2723 17.5272 51.3473 17.5402C51.3563 17.5072 51.2183 17.4472 51.0643 17.4372C51.0923 17.4692 51.2423 17.4952 51.1563 17.5162Z" fill="#083783"/>
<path d="M54.6661 14.9938C54.8461 14.5958 54.6411 14.6728 54.8191 14.2908C54.6901 14.4268 54.7431 14.5128 54.5951 14.8758L54.7211 14.6908L54.6661 14.9938Z" fill="#083783"/>
<path d="M55.3634 12.7072C55.3744 12.5432 55.3704 12.3752 55.3644 12.1242C55.3544 12.2902 55.3214 12.4912 55.3634 12.7072Z" fill="#083783"/>
<path d="M55.8079 5.59629C55.6879 5.62129 55.6139 5.83229 55.4919 5.98529C55.6149 5.83129 55.6959 5.79329 55.8079 5.59629Z" fill="#083783"/>
<path d="M54.853 5.16168C54.882 5.06468 54.96 4.99068 55.013 4.95568L55.009 5.01668L54.853 5.16168Z" fill="#083783"/>
<path d="M53.8333 15.3322C53.7243 15.5202 53.5233 15.8422 53.6043 15.8372L53.6063 15.9032C53.7343 15.7542 54.1053 15.0492 53.8333 15.3322Z" fill="#083783"/>
<path d="M53.6366 15.1146C53.5666 15.2846 53.6466 15.1766 53.6806 15.1626L53.7916 14.9376C53.8006 14.8536 53.6976 15.0336 53.6366 15.1146Z" fill="#083783"/>
<path d="M52.8843 16.6282C53.0783 16.5802 53.4453 16.2662 53.3993 16.1662C53.4183 16.1432 53.3543 16.1272 53.4503 16.0802C53.3383 16.2262 52.9253 16.4872 52.8843 16.6282Z" fill="#083783"/>
<path d="M52.0537 17.2205C52.1757 17.2305 52.3027 17.2525 52.4867 17.1995C52.3627 17.2195 52.2137 17.1775 52.0537 17.2205Z" fill="#083783"/>
<path d="M53.1874 16.6975C53.1814 16.7955 53.3544 16.6295 53.3994 16.5845L53.4904 16.4795C53.3804 16.5295 53.2634 16.6285 53.1874 16.6975Z" fill="#083783"/>
<path d="M54.3067 15.1683C54.4347 14.8683 54.0757 15.4053 54.2487 15.0663L54.1337 15.2463L54.1777 15.3863L54.3067 15.1683Z" fill="#083783"/>
<path d="M54.4375 14.664C54.4905 14.588 54.5325 14.501 54.5725 14.336L54.5055 14.403C54.4705 14.453 54.4845 14.543 54.4375 14.664Z" fill="#083783"/>
<path d="M54.4603 15.1911C54.5493 15.0561 54.4943 15.0471 54.5193 14.9411C54.4683 14.9781 54.3833 15.3351 54.4603 15.1911Z" fill="#083783"/>
<path d="M55.6029 13.8132C55.4859 13.9582 55.4449 14.3152 55.3169 14.6262C55.4409 14.3162 55.5259 14.1942 55.6029 13.8132Z" fill="#083783"/>
<path d="M54.14 14.984C53.98 15.083 54.158 14.845 54.199 14.514C54.332 14.121 54.515 13.73 54.598 13.317L54.698 13.078C54.655 13.588 54.441 14.463 54.14 14.984Z" fill="#083783"/>
<path d="M53.5926 14.9725C53.6856 14.6995 53.8856 14.3975 53.9556 14.1955C53.8536 14.5365 53.6686 14.9535 53.5466 15.1625C53.5136 15.1745 53.5706 15.0435 53.5926 14.9725Z" fill="#083783"/>
<path d="M53.4304 8.43002C53.5084 8.18102 53.6264 7.76602 53.5504 7.80502L53.5334 7.73902C53.4474 7.92902 53.2224 8.85602 53.4304 8.43002Z" fill="#083783"/>
<path d="M53.6684 8.5772C53.7044 8.3672 53.6464 8.5162 53.6154 8.5452L53.5624 8.8402C53.5734 8.9352 53.6364 8.6942 53.6684 8.5772Z" fill="#083783"/>
<path d="M54.2354 8.66047L54.2294 8.73547C54.2354 8.66047 54.2584 8.55447 54.2774 8.48747C54.2514 8.46947 54.1864 8.58947 54.1594 8.73447C54.1894 8.71247 54.2284 8.57647 54.2354 8.66047Z" fill="#083783"/>
<path d="M52.2091 2.5438C52.1161 2.5748 52.0281 2.6238 51.8931 2.7428L51.9921 2.7278C52.0531 2.7068 52.0951 2.6188 52.2091 2.5438Z" fill="#083783"/>
<path d="M50.7366 2.45422C50.9206 2.43122 51.1436 2.13722 51.4366 1.98022C51.1446 2.13722 51.0266 2.20522 50.7366 2.45422Z" fill="#083783"/>
<path d="M51.793 8.92788C51.655 8.97488 51.488 8.96288 51.389 8.94588L51.46 8.90388L51.793 8.92788Z" fill="#083783"/>
<path d="M53.2153 8.97203C53.2743 8.86703 53.2823 8.91203 53.2803 9.03203L53.2793 9.13603L53.2783 9.19703V9.22903L53.2773 9.24603V9.25403V9.25803L53.2783 9.26003L53.2773 9.26103C53.1983 9.36203 53.9683 8.38903 53.6423 8.80103L53.4423 8.86303C53.0683 8.92203 52.6703 8.86903 52.2973 8.91003L52.0663 8.86903C52.2883 8.82703 52.5943 8.77903 52.9113 8.74103L53.3873 8.69503L53.6153 8.68303L53.6293 8.68203H53.6323H53.6343C53.4303 8.93903 54.0903 8.10703 53.1783 9.25803V9.25603L53.1793 9.24603L53.1843 9.20503L53.1943 9.12503L53.2153 8.97203Z" fill="#083783"/>
<path d="M53.7471 8.71151L53.6771 9.24151C53.5761 9.29851 53.3981 9.24951 53.3081 9.27151C53.8121 9.40851 53.5971 8.76751 53.7481 8.48851C53.7791 8.46151 53.7451 8.62351 53.7471 8.71151Z" fill="#083783"/>
<path d="M48.1801 9.21708C48.6531 9.17508 49.3031 9.02208 49.8321 9.11708C49.5931 9.16408 49.5901 9.20008 49.2161 9.25908C49.5081 9.38308 49.7931 9.18208 50.1311 9.15208C49.8571 9.21108 50.2241 9.24108 50.4601 9.22908C50.9031 9.14708 51.6121 9.09308 52.2201 9.04008C52.4861 9.07008 53.3391 8.89908 53.2251 9.05808C53.4101 9.04608 53.5141 9.01108 53.6051 8.97108C53.2021 9.56508 53.4601 8.92808 53.3791 8.89308C53.7061 7.88908 53.6981 6.98008 54.3361 6.14608C54.2431 6.15408 54.5021 5.70808 54.6011 5.53408C54.8111 5.15008 55.3791 4.29208 55.3631 4.58408C55.2661 4.89908 54.8291 5.28408 54.6761 5.74208C54.4051 6.51208 55.1331 5.08208 55.2501 5.17308C55.1731 5.25208 55.2251 5.38008 55.0181 5.64208C55.4391 5.06908 54.9741 5.99208 55.2281 5.73108C54.8721 6.48308 54.9151 6.42408 54.8551 6.88608C54.6131 7.30108 54.5831 7.11708 54.4671 7.20608C54.1871 7.64708 54.1611 8.11008 54.0111 8.52208C54.1541 8.39708 54.1201 8.59308 54.0821 8.86408L54.0511 9.07808L54.0421 9.18808L54.0361 9.24308L54.0331 9.27108L54.0321 9.28508H54.0311C53.3771 10.1111 53.8501 9.51408 53.7041 9.69808H53.7031H53.7011L53.6971 9.69908H53.6901C53.5371 9.71208 53.3881 9.72308 53.2691 9.73308C52.6601 9.80408 53.0501 9.55008 52.4051 9.63208C52.0921 9.77408 53.0691 9.71508 52.6541 9.87508L52.3531 9.85708C52.1581 9.78608 51.9991 9.68508 51.7671 9.64408C51.6321 9.65608 51.4291 9.67308 51.4261 9.70908C51.6941 9.72108 51.6191 9.81608 51.3441 9.89208C51.2111 9.86908 51.1791 9.86308 51.1141 9.83308C51.6421 9.53108 50.5401 9.87508 50.1471 9.76808C49.0141 9.67308 49.5811 10.1171 48.4741 10.1171C48.7961 9.86808 47.7391 10.0751 47.3741 10.0281C47.0691 10.0631 46.9631 10.1341 46.7541 10.2231C46.6691 10.2081 46.4321 10.2191 46.3931 10.1801C46.5441 9.87508 47.2331 9.53308 48.1331 9.20508C48.1581 9.20808 48.1801 9.21108 48.1801 9.21708Z" fill="#083783"/>
<path d="M51.2493 16.5378C51.4333 16.5868 51.7543 16.6098 51.7053 16.5298L51.7443 16.4928C51.5923 16.4708 50.9453 16.3708 51.2493 16.5378Z" fill="#083783"/>
<path d="M51.1531 16.8404C51.3271 16.8444 51.2001 16.8044 51.1751 16.7734L50.9471 16.7224C50.8731 16.7314 51.0521 16.8184 51.1531 16.8404Z" fill="#083783"/>
<path d="M54.5876 14.1256C54.8116 13.3266 54.8906 13.7826 55.0156 12.9666C54.9536 13.0456 54.8976 12.7356 54.8786 12.4176C54.9186 12.1426 54.8526 11.8276 54.8296 11.5946C54.7996 11.4376 54.7216 11.4766 54.7516 11.7836C54.9986 12.5766 54.7286 13.3826 54.5876 14.1256Z" fill="#083783"/>
<path d="M54.9296 11.4803C54.9056 11.2033 54.7436 10.5863 54.6416 10.6133C54.6236 10.5783 54.5996 10.6573 54.5726 10.5123C54.6816 10.7093 54.8076 11.3963 54.9296 11.4803Z" fill="#083783"/>
<path d="M55.0345 11.0838C55.1095 11.1218 55.0045 10.8428 54.9895 10.7638L54.9285 10.6078C54.9475 10.7678 54.9735 10.9668 55.0345 11.0838Z" fill="#083783"/>
<path d="M54.0054 9.08312C53.7664 8.83712 54.1724 9.43012 53.9044 9.12312L54.0464 9.31012L54.1724 9.30812C54.1294 9.22012 54.0604 9.15912 54.0054 9.08312Z" fill="#083783"/>
<path d="M53.5836 8.79279C53.5306 8.70079 53.4506 8.64379 53.3026 8.57579L53.3596 8.66379C53.4006 8.71479 53.4906 8.69679 53.5836 8.79279Z" fill="#083783"/>
<path d="M54.054 8.90244C53.957 8.74144 53.939 8.80644 53.844 8.75444C53.883 8.80744 54.158 9.05344 54.054 8.90244Z" fill="#083783"/>
<path d="M52.7796 7.28789C52.9326 7.42589 53.2936 7.49189 53.6016 7.70789C53.2956 7.51089 53.1666 7.38189 52.7796 7.28789Z" fill="#083783"/>
<path d="M49.1582 15.3189C49.0322 15.2519 48.9152 15.1179 48.8522 15.0309L48.9272 15.0519L49.1582 15.3189Z" fill="#083783"/>
<path d="M50.9065 16.304C51.0115 16.461 50.7955 16.335 50.5165 16.294C50.1695 16.162 49.8645 15.868 49.5535 15.657L49.3955 15.465C49.7705 15.719 50.4515 16.084 50.9065 16.304Z" fill="#083783"/>
<path d="M51.0461 16.9433C50.7571 16.9173 50.4311 16.6853 50.2451 16.5883C50.5671 16.7383 50.9931 16.9013 51.2351 16.9173C51.2611 16.9473 51.1201 16.9433 51.0461 16.9433Z" fill="#083783"/>
<path d="M54.3356 1.40517C54.7246 1.43317 55.0936 1.56617 55.4316 1.82817C55.4316 1.82817 56.6436 2.71217 55.6496 4.84617C55.6496 4.84617 53.7116 7.61417 53.6746 9.27417L52.9286 7.93617C53.4286 6.36017 54.7076 4.53317 54.7076 4.53317C55.7016 2.39917 54.4906 1.51517 54.4906 1.51517C54.4396 1.47517 54.3876 1.43917 54.3356 1.40517Z" fill="#083783"/>
<path d="M53.9619 6.52298C53.8869 6.63198 53.8039 6.85398 53.8729 6.85598L53.8919 6.90198C53.9379 6.79798 54.1529 6.37698 53.9619 6.52298Z" fill="#083783"/>
<path d="M53.7531 6.3254C53.7161 6.4444 53.7711 6.3734 53.7991 6.3694L53.8711 6.2224C53.8701 6.1604 53.7901 6.2684 53.7531 6.3254Z" fill="#083783"/>
<path d="M53.2466 6.03162L53.2576 5.97762L53.1956 6.14362C53.2196 6.16562 53.2876 6.10262 53.3206 6.00662C53.2926 6.01062 53.2476 6.09662 53.2466 6.03162Z" fill="#083783"/>
<path d="M53.3721 8.39634C53.3151 8.48634 53.1311 8.43634 52.9631 8.32034L52.8761 8.48334C53.0081 8.56634 53.1201 8.85334 53.2311 9.05834C53.2491 9.15734 53.0851 8.90234 53.1691 9.12334C53.2001 9.13134 53.2221 9.09133 53.2571 9.12433C53.2911 9.22633 53.2701 9.27334 53.2721 9.34034C53.2721 9.37534 53.2791 9.41333 53.3001 9.46733L53.3191 9.51033L53.3311 9.53434L53.3341 9.54034L53.3351 9.54333C54.8271 9.03033 53.7491 9.40133 54.0821 9.28633L54.0831 9.28434L54.0841 9.27134L54.0901 9.15434L54.0291 9.01833C54.1481 8.31833 54.5791 7.65934 54.8351 6.99033C54.9571 6.92433 55.1081 6.58834 55.2561 6.42934L55.2231 6.39534C55.3491 6.33734 55.3791 6.08834 55.4701 5.96134L55.5081 5.81134C55.4781 5.71334 55.2711 6.13134 55.2481 5.94834C55.3561 5.64334 55.5981 5.58533 55.6761 5.31333C55.8111 5.05733 55.7991 5.22733 55.9541 4.97333C56.0091 4.95533 55.9711 5.05233 56.0231 5.06533C56.2711 4.44433 56.1161 4.34734 56.2201 3.77534C56.2601 3.77034 56.4321 3.29434 56.4111 3.75734L56.3281 3.96433L56.3511 4.12634C56.3841 3.95834 56.4321 3.64533 56.4761 3.68833C56.3881 3.47333 56.5851 2.40634 56.3901 2.95634C56.4421 3.25334 56.4431 3.35734 56.3671 3.53934C56.3911 2.86334 56.1591 2.28334 55.8561 1.88334L55.8171 1.69934C55.7631 1.75634 55.5531 1.59434 55.3581 1.53934C55.2871 1.47734 55.1821 1.42634 55.2221 1.40034C55.1911 1.28134 55.9381 1.84334 55.6451 1.43734C55.1941 1.15134 54.6501 1.08734 54.3471 1.18334C54.5581 1.24834 54.7231 1.26134 54.9161 1.42334C55.6331 1.71334 56.2141 2.67033 55.9751 3.51733C56.0201 3.55233 56.0011 3.77634 56.0641 3.72034C56.0861 3.80834 56.0101 4.01434 56.0691 4.09934C55.8411 4.73834 55.4471 5.36933 55.1671 5.82833C55.1401 5.60433 54.9241 6.05734 54.8051 6.15834C54.7791 6.32434 54.6371 6.52834 54.5491 6.69334C54.5211 6.69734 54.4591 6.79533 54.4411 6.74733C54.5201 6.63533 54.5191 6.57234 54.5751 6.43734C54.4671 6.42834 54.4311 6.70934 54.3441 6.90434L54.4381 6.83734C54.2781 7.15634 54.2551 7.63034 54.0571 7.87734L54.0761 7.57633C53.8751 7.92633 53.8441 8.45133 53.6761 8.71233C53.6941 8.42333 53.9101 8.02634 53.7931 7.97834C53.7241 7.95934 53.6241 8.27233 53.6141 8.43633C53.5951 8.60733 53.5811 8.77234 53.5441 8.92234L53.5091 9.15534C53.6541 9.13934 53.1561 9.35234 53.8291 9.14934L53.7891 9.05533C53.6851 8.80433 53.5791 8.56933 53.3721 8.39634Z" fill="#083783"/>
<path d="M53.9637 8.98819L53.9747 9.00919L53.9797 9.01919L53.9827 9.02419L53.9837 9.02619L53.9847 9.02719C52.6227 9.49619 53.6067 9.15719 53.3037 9.26219V9.26019L53.3097 9.20819L53.3237 9.11919L53.3557 8.99219C53.3797 8.92619 53.4017 8.89119 53.4307 8.86219C53.4877 8.80219 53.5317 8.74319 53.5867 8.47719C53.5047 8.52119 53.5197 8.24219 53.5697 8.06519C53.6637 7.92019 53.7027 7.71019 53.7637 7.57619C53.7897 7.47519 53.7117 7.44419 53.6337 7.63019C53.6057 7.89819 53.4967 8.15619 53.4027 8.43619L53.2937 8.87219L53.2817 9.10219L53.2857 9.21219L53.2877 9.23919L53.2897 9.25219L53.2907 9.25919V9.26119C54.6987 8.77719 53.6807 9.12719 53.9947 9.01919L53.9927 9.01719L53.9637 8.98819Z" fill="#083783"/>
<path d="M53.4404 8.84658C53.5564 9.07658 53.6384 8.88858 53.7274 9.13458C53.7444 8.98758 53.6614 9.01158 53.5504 8.80658L53.5774 8.95358L53.4404 8.84658Z" fill="#083783"/>
<path d="M53.886 7.57788C53.954 7.42188 54.085 7.04688 54.012 6.98288C54.017 6.95588 53.959 6.96788 54.015 6.89088C53.973 7.04288 53.801 7.45488 53.886 7.57788Z" fill="#083783"/>
<path d="M53.9645 8.43829C54.0015 8.35629 54.0315 8.26929 54.0805 8.13929C54.0355 8.21729 53.9615 8.30729 53.9645 8.43829Z" fill="#083783"/>
<path d="M54.1168 7.4623C54.1618 7.5283 54.1888 7.3443 54.2088 7.3013L54.2248 7.1953C54.1728 7.2703 54.1158 7.3733 54.1168 7.4623Z" fill="#083783"/>
<path d="M54.5891 6.0683C54.6841 5.8403 54.3971 6.2313 54.5271 5.9733L54.4391 6.1123L54.4951 6.2323L54.5891 6.0683Z" fill="#083783"/>
<path d="M54.6968 5.68848C54.7498 5.64448 54.7918 5.59048 54.8378 5.47348L54.7728 5.50348C54.7368 5.53148 54.7448 5.60748 54.6968 5.68848Z" fill="#083783"/>
<path d="M54.7315 6.11581C54.8065 6.03181 54.7565 6.01181 54.7755 5.93481C54.7275 5.95081 54.6675 6.21181 54.7315 6.11581Z" fill="#083783"/>
<path d="M54.1902 6.35087C54.0602 6.37487 54.1842 6.25387 54.2182 6.03987C54.3252 5.80687 54.5272 5.63787 54.6532 5.42387L54.7762 5.33587C54.6412 5.60587 54.4012 6.07287 54.1902 6.35087Z" fill="#083783"/>
<path d="M53.6939 6.20663C53.7499 6.01063 53.9319 5.84163 53.9999 5.72163C53.8969 5.93463 53.7459 6.19663 53.6799 6.34863C53.6519 6.35263 53.6839 6.25863 53.6939 6.20663Z" fill="#083783"/>
<path d="M52.3234 7.80288C53.9664 8.09188 55.2424 9.43788 55.2314 12.9299C55.2314 12.9299 54.7524 17.8819 51.0794 16.9549C51.0794 16.9549 50.8734 16.9109 50.5304 16.7639L50.3744 16.6939C53.8314 17.3529 54.2894 12.6169 54.2894 12.6169C54.2974 9.82988 53.4864 8.40988 52.3234 7.80288Z" fill="#083783"/>
<path d="M53.1216 14.8312L53.1396 14.7672L53.0536 14.9682C53.0746 14.9932 53.1556 14.9112 53.2046 14.7942C53.1736 14.8022 53.1136 14.9072 53.1216 14.8312Z" fill="#083783"/>
<path d="M50.986 16.4691C51.563 16.6051 51.25 16.7591 51.843 16.8101C51.773 16.7321 52.056 16.6571 52.243 16.6481C52.425 16.6581 52.64 16.5851 52.789 16.5311C52.883 16.4621 52.845 16.3971 52.65 16.4581C52.178 16.8101 51.482 16.4471 50.986 16.4691Z" fill="#083783"/>
<path d="M54.7195 12.757C54.7145 12.459 54.7115 12.38 54.7375 12.238L54.7685 12.319C54.7505 12.474 54.7595 12.493 54.7195 12.757Z" fill="#083783"/>
<path d="M53.9617 8.69828C54.2547 9.16128 54.5477 9.88928 54.5477 10.5033C54.4657 10.2423 54.4417 10.2443 54.3197 9.84228C54.2717 10.1943 54.5007 10.4643 54.5527 10.8433C54.4877 10.5453 54.4847 10.9573 54.5057 11.2153C54.5817 11.6643 54.6847 12.5163 54.5177 13.1953C54.4347 13.4693 54.2337 14.3973 54.1507 14.2113C54.0077 14.5803 54.0727 14.6793 53.9707 14.9693C53.4957 15.6403 53.3177 16.6173 52.3797 16.9183C52.4647 16.9823 52.0387 17.1773 51.8637 17.2103C51.4867 17.3763 50.5977 17.3343 50.8037 17.1703C51.0387 17.0863 51.5627 17.2433 51.9177 16.9953C52.5047 16.6433 51.2447 17.1303 51.2227 16.9083C51.3147 16.9203 51.3547 16.8073 51.6247 16.7993C51.0567 16.8303 51.8297 16.5973 51.5337 16.5633C52.1097 16.3123 52.0427 16.2823 52.2397 15.9843C52.5367 15.8003 52.5177 15.9613 52.6387 15.9553C52.9927 15.7313 53.0967 15.3363 53.3077 15.0363C53.0147 15.1493 53.4997 14.4123 53.6247 13.9583C53.7867 13.3863 53.8567 13.8393 53.9917 13.2013C53.9737 12.8653 53.7257 13.7943 53.7257 13.3533L53.8277 13.0833C53.9377 12.9333 54.0617 12.7743 54.1357 12.6013C54.1317 12.4613 54.1257 12.2513 54.0967 12.2473C54.0747 12.5223 53.9987 12.4373 53.9467 12.1563C53.9727 12.0233 53.9797 11.9903 54.0067 11.9243C54.2447 12.4673 53.9997 11.3363 54.0427 10.9293C53.9657 9.75828 53.7267 10.4003 53.4227 9.40828C53.7357 9.57528 53.1907 8.73028 52.9807 8.46228C52.7697 8.28228 52.6757 8.24328 52.4877 8.21628C52.4377 8.15728 52.2707 8.03628 52.2587 7.98028C52.4537 7.80328 53.2297 7.82128 53.9477 8.64128C53.9577 8.67028 53.9667 8.69528 53.9617 8.69828Z" fill="#083783"/>
<path d="M34.2811 3.54608C34.2711 2.84808 34.0371 3.14708 34.2791 2.47808C34.2951 2.58908 34.4821 2.32408 34.6271 2.21108C34.7331 2.06908 35.0081 2.00008 35.1501 1.91008C35.2621 1.86608 35.2641 1.97208 35.0661 2.08108C34.4021 2.09408 34.2901 2.97608 34.2811 3.54608Z" fill="#083783"/>
<path d="M34.0891 4.33911C33.9231 3.93711 34.1531 4.03111 34.0281 3.64111C34.1541 3.79111 34.0361 3.87211 34.1701 4.23411L34.0561 4.04211L34.0891 4.33911Z" fill="#083783"/>
<path d="M35.1859 1.74733C35.3929 1.68033 35.9049 1.71033 35.9059 1.80233C35.9359 1.81333 35.8809 1.85733 35.9989 1.86633C35.8199 1.80633 35.2929 1.85133 35.1859 1.74733Z" fill="#083783"/>
<path d="M34.1295 2.00739C34.2045 1.87539 34.3225 1.69739 34.5225 1.60839C34.3965 1.67539 34.2685 1.86139 34.1295 2.00739Z" fill="#083783"/>
<path d="M35.4421 1.50961C35.3881 1.43561 35.6391 1.47161 35.7041 1.46561L35.8421 1.48661C35.7121 1.51761 35.5521 1.54261 35.4421 1.50961Z" fill="#083783"/>
<path d="M37.3065 2.17291C37.5995 2.34491 36.9575 2.11691 37.3125 2.29791L37.1025 2.21091L37.0645 2.06191L37.3065 2.17291Z" fill="#083783"/>
<path d="M37.4337 2.0528C37.5957 2.0978 37.5457 2.1578 37.6277 2.2348C37.5667 2.2168 37.2787 1.9868 37.4337 2.0528Z" fill="#083783"/>
<path d="M38.7678 17.5161L38.8488 17.5191C38.7678 17.5161 38.6518 17.5281 38.5768 17.5411C38.5678 17.5071 38.7058 17.4471 38.8598 17.4371C38.8318 17.4691 38.6818 17.4961 38.7678 17.5161Z" fill="#083783"/>
<path d="M35.258 14.9938C35.078 14.5958 35.283 14.6728 35.105 14.2908C35.234 14.4268 35.181 14.5128 35.329 14.8758L35.203 14.6908L35.258 14.9938Z" fill="#083783"/>
<path d="M34.5607 12.7072C34.5497 12.5432 34.5537 12.3752 34.5597 12.1242C34.5697 12.2902 34.6027 12.4912 34.5607 12.7072Z" fill="#083783"/>
<path d="M34.1162 5.59629C34.2362 5.62129 34.3102 5.83229 34.4322 5.98529C34.3092 5.83129 34.2282 5.79329 34.1162 5.59629Z" fill="#083783"/>
<path d="M35.071 5.16168C35.042 5.06468 34.964 4.99068 34.911 4.95568L34.915 5.01668L35.071 5.16168Z" fill="#083783"/>
<path d="M36.0909 15.3322C36.1999 15.5202 36.4009 15.8422 36.3199 15.8372L36.3179 15.9032C36.1899 15.7542 35.8189 15.0492 36.0909 15.3322Z" fill="#083783"/>
<path d="M36.2875 15.1146C36.3575 15.2846 36.2775 15.1766 36.2435 15.1626L36.1325 14.9376C36.1235 14.8536 36.2265 15.0336 36.2875 15.1146Z" fill="#083783"/>
<path d="M37.0398 16.6281C36.8458 16.5801 36.4788 16.2661 36.5248 16.1661C36.5058 16.1431 36.5698 16.1271 36.4738 16.0801C36.5858 16.2261 36.9988 16.4871 37.0398 16.6281Z" fill="#083783"/>
<path d="M37.8704 17.2205C37.7484 17.2305 37.6214 17.2525 37.4374 17.1995C37.5614 17.2195 37.7104 17.1775 37.8704 17.2205Z" fill="#083783"/>
<path d="M36.7367 16.6975C36.7427 16.7955 36.5697 16.6295 36.5237 16.5845L36.4337 16.4795C36.5437 16.5295 36.6607 16.6285 36.7367 16.6975Z" fill="#083783"/>
<path d="M35.6174 15.1683C35.4894 14.8683 35.8484 15.4053 35.6754 15.0663L35.7904 15.2463L35.7464 15.3863L35.6174 15.1683Z" fill="#083783"/>
<path d="M35.4865 14.664C35.4335 14.588 35.3915 14.501 35.3515 14.336L35.4185 14.403C35.4535 14.453 35.4395 14.543 35.4865 14.664Z" fill="#083783"/>
<path d="M35.4638 15.1911C35.3748 15.0561 35.4298 15.0471 35.4048 14.9411C35.4558 14.9781 35.5408 15.3351 35.4638 15.1911Z" fill="#083783"/>
<path d="M34.3212 13.8132C34.4382 13.9582 34.4792 14.3152 34.6072 14.6262C34.4832 14.3162 34.3982 14.1942 34.3212 13.8132Z" fill="#083783"/>
<path d="M35.7841 14.984C35.9441 15.083 35.7661 14.845 35.7251 14.514C35.5921 14.121 35.4091 13.73 35.3261 13.317L35.2261 13.078C35.2691 13.588 35.4831 14.464 35.7841 14.984Z" fill="#083783"/>
<path d="M36.3315 14.9725C36.2385 14.6995 36.0385 14.3965 35.9685 14.1955C36.0705 14.5365 36.2555 14.9535 36.3775 15.1625C36.4105 15.1745 36.3535 15.0435 36.3315 14.9725Z" fill="#083783"/>
<path d="M36.4937 8.43002C36.4157 8.18102 36.2977 7.76602 36.3737 7.80502L36.3907 7.73902C36.4767 7.92902 36.7017 8.85602 36.4937 8.43002Z" fill="#083783"/>
<path d="M36.2557 8.5772C36.2197 8.3672 36.2777 8.5162 36.3087 8.5452L36.3617 8.8402C36.3507 8.9352 36.2877 8.6942 36.2557 8.5772Z" fill="#083783"/>
<path d="M35.6887 8.66047L35.6947 8.73547C35.6887 8.66047 35.6657 8.55447 35.6467 8.48747C35.6727 8.46947 35.7377 8.58947 35.7647 8.73447C35.7347 8.71247 35.6957 8.57647 35.6887 8.66047Z" fill="#083783"/>
<path d="M37.715 2.54382C37.808 2.57482 37.896 2.62382 38.031 2.74182L37.932 2.72782C37.871 2.70682 37.829 2.61882 37.715 2.54382Z" fill="#083783"/>
<path d="M39.1875 2.45422C39.0035 2.43122 38.7805 2.13722 38.4875 1.98022C38.7795 2.13722 38.8975 2.20522 39.1875 2.45422Z" fill="#083783"/>
<path d="M38.131 8.92776C38.269 8.97476 38.436 8.96276 38.535 8.94576L38.464 8.90376L38.131 8.92776Z" fill="#083783"/>
<path d="M36.7088 8.97203C36.6498 8.86703 36.6418 8.91203 36.6438 9.03203L36.6448 9.13603L36.6458 9.19703V9.22903L36.6468 9.24603V9.25403V9.25803L36.6458 9.26003L36.6468 9.26103C36.7258 9.36203 35.9558 8.38903 36.2818 8.80103L36.4818 8.86303C36.8558 8.92203 37.2538 8.86903 37.6268 8.91003L37.8578 8.86903C37.6358 8.82703 37.3298 8.77903 37.0128 8.74103L36.5368 8.69503L36.3088 8.68303L36.2948 8.68203H36.2918H36.2898C36.4938 8.93903 35.8338 8.10703 36.7458 9.25803V9.25603L36.7448 9.24603L36.7398 9.20503L36.7298 9.12503L36.7088 8.97203Z" fill="#083783"/>
<path d="M36.1769 8.71151L36.2469 9.24151C36.3479 9.29851 36.5259 9.24951 36.6159 9.27151C36.1119 9.40851 36.3269 8.76751 36.1759 8.48851C36.1449 8.46151 36.1789 8.62351 36.1769 8.71151Z" fill="#083783"/>
<path d="M41.744 9.21708C41.271 9.17508 40.621 9.02208 40.092 9.11708C40.331 9.16408 40.334 9.20008 40.708 9.25908C40.416 9.38308 40.131 9.18208 39.793 9.15208C40.067 9.21108 39.7 9.24108 39.464 9.22908C39.021 9.14708 38.312 9.09308 37.704 9.04008C37.438 9.07008 36.585 8.89908 36.699 9.05808C36.514 9.04608 36.41 9.01108 36.319 8.97108C36.722 9.56508 36.464 8.92808 36.545 8.89308C36.218 7.88908 36.226 6.98008 35.588 6.14608C35.681 6.15408 35.422 5.70808 35.323 5.53408C35.113 5.15008 34.545 4.29208 34.561 4.58408C34.658 4.89908 35.095 5.28408 35.248 5.74208C35.519 6.51208 34.791 5.08208 34.674 5.17308C34.751 5.25208 34.699 5.38008 34.906 5.64208C34.485 5.06908 34.95 5.99208 34.696 5.73108C35.052 6.48308 35.009 6.42408 35.068 6.88608C35.311 7.30108 35.341 7.11708 35.457 7.20608C35.737 7.64708 35.763 8.11008 35.913 8.52208C35.77 8.39708 35.804 8.59308 35.842 8.86408L35.873 9.07808L35.882 9.18808L35.888 9.24308L35.891 9.27108L35.892 9.28508H35.893C36.547 10.1111 36.074 9.51408 36.22 9.69808H36.221H36.223L36.227 9.69908H36.234C36.387 9.71208 36.536 9.72308 36.655 9.73308C37.264 9.80408 36.874 9.55008 37.519 9.63208C37.832 9.77408 36.855 9.71508 37.27 9.87508L37.571 9.85708C37.766 9.78608 37.925 9.68508 38.157 9.64408C38.292 9.65608 38.495 9.67308 38.498 9.70908C38.23 9.72108 38.305 9.81608 38.58 9.89208C38.712 9.86908 38.745 9.86308 38.81 9.83308C38.282 9.53108 39.384 9.87508 39.777 9.76808C40.91 9.67308 40.343 10.1171 41.45 10.1171C41.128 9.86808 42.185 10.0751 42.55 10.0281C42.855 10.0631 42.961 10.1341 43.17 10.2231C43.255 10.2081 43.492 10.2191 43.531 10.1801C43.38 9.87508 42.691 9.53308 41.791 9.20508C41.766 9.20808 41.744 9.21108 41.744 9.21708Z" fill="#083783"/>
<path d="M38.6747 16.5378C38.4907 16.5868 38.1697 16.6098 38.2187 16.5298L38.1797 16.4928C38.3317 16.4708 38.9787 16.3708 38.6747 16.5378Z" fill="#083783"/>
<path d="M38.771 16.8404C38.597 16.8444 38.724 16.8044 38.749 16.7734L38.977 16.7224C39.051 16.7314 38.872 16.8184 38.771 16.8404Z" fill="#083783"/>
<path d="M35.3365 14.1256C35.1125 13.3266 35.0335 13.7826 34.9085 12.9666C34.9705 13.0456 35.0265 12.7356 35.0455 12.4176C35.0055 12.1426 35.0715 11.8276 35.0945 11.5946C35.1245 11.4376 35.2025 11.4766 35.1725 11.7836C34.9255 12.5766 35.1955 13.3826 35.3365 14.1256Z" fill="#083783"/>
<path d="M34.9945 11.4803C35.0185 11.2033 35.1805 10.5863 35.2825 10.6133C35.3005 10.5783 35.3245 10.6573 35.3515 10.5123C35.2425 10.7093 35.1155 11.3963 34.9945 11.4803Z" fill="#083783"/>
<path d="M34.8896 11.0838C34.8146 11.1218 34.9196 10.8428 34.9346 10.7638L34.9956 10.6078C34.9766 10.7678 34.9506 10.9668 34.8896 11.0838Z" fill="#083783"/>
<path d="M35.9187 9.08318C36.1577 8.83718 35.7517 9.43018 36.0197 9.12318L35.8777 9.31018L35.7517 9.30818C35.7947 9.22018 35.8637 9.15818 35.9187 9.08318Z" fill="#083783"/>
<path d="M36.3405 8.79279C36.3935 8.70079 36.4735 8.64379 36.6215 8.57479L36.5645 8.66379C36.5235 8.71479 36.4335 8.69679 36.3405 8.79279Z" fill="#083783"/>
<path d="M35.8701 8.9025C35.9671 8.7415 35.9851 8.8065 36.0801 8.7545C36.0411 8.8075 35.7661 9.0535 35.8701 8.9025Z" fill="#083783"/>
<path d="M37.1445 7.28789C36.9915 7.42589 36.6305 7.49189 36.3225 7.70789C36.6285 7.51089 36.7575 7.38189 37.1445 7.28789Z" fill="#083783"/>
<path d="M40.7659 15.3189C40.8919 15.2519 41.0089 15.1179 41.0719 15.0309L40.9969 15.0519L40.7659 15.3189Z" fill="#083783"/>
<path d="M39.0176 16.304C38.9126 16.461 39.1286 16.335 39.4076 16.294C39.7546 16.162 40.0596 15.868 40.3706 15.657L40.5286 15.465C40.1536 15.719 39.4726 16.084 39.0176 16.304Z" fill="#083783"/>
<path d="M38.8779 16.9433C39.1669 16.9173 39.4929 16.6853 39.6789 16.5883C39.3569 16.7383 38.9309 16.9013 38.6889 16.9173C38.6629 16.9473 38.8039 16.9433 38.8779 16.9433Z" fill="#083783"/>
<path d="M35.5884 1.40517C35.1994 1.43317 34.8304 1.56617 34.4924 1.82817C34.4924 1.82817 33.2804 2.71217 34.2744 4.84617C34.2744 4.84617 36.2124 7.61417 36.2494 9.27417L36.9954 7.93617C36.4954 6.36017 35.2164 4.53317 35.2164 4.53317C34.2224 2.39917 35.4334 1.51517 35.4334 1.51517C35.4844 1.47517 35.5364 1.43917 35.5884 1.40517Z" fill="#083783"/>
<path d="M35.9622 6.5231C36.0372 6.6321 36.1202 6.8531 36.0512 6.8561L36.0322 6.9021C35.9862 6.7981 35.7712 6.3761 35.9622 6.5231Z" fill="#083783"/>
<path d="M36.171 6.3254C36.208 6.4444 36.153 6.3734 36.125 6.3694L36.053 6.2224C36.054 6.1604 36.134 6.2684 36.171 6.3254Z" fill="#083783"/>
<path d="M36.6775 6.03162L36.6665 5.97762L36.7285 6.14362C36.7045 6.16662 36.6365 6.10262 36.6035 6.00662C36.6315 6.01062 36.6765 6.09662 36.6775 6.03162Z" fill="#083783"/>
<path d="M36.552 8.39634C36.609 8.48634 36.793 8.43634 36.961 8.32034L37.048 8.48334C36.916 8.56634 36.804 8.85334 36.693 9.05834C36.675 9.15734 36.839 8.90234 36.755 9.12334C36.724 9.13134 36.702 9.09133 36.667 9.12433C36.633 9.22633 36.654 9.27334 36.652 9.34034C36.652 9.37434 36.645 9.41333 36.624 9.46733L36.605 9.51033L36.593 9.53434L36.59 9.54034L36.588 9.54333C35.096 9.03033 36.175 9.40133 35.842 9.28633L35.841 9.28434L35.84 9.27134L35.834 9.15434L35.895 9.01833C35.776 8.31833 35.345 7.65934 35.089 6.99033C34.967 6.92433 34.816 6.58834 34.667 6.42934L34.701 6.39534C34.575 6.33734 34.545 6.08834 34.454 5.96134L34.416 5.81134C34.446 5.71334 34.653 6.13134 34.676 5.94834C34.568 5.64334 34.326 5.58533 34.248 5.31333C34.113 5.05733 34.125 5.22733 33.97 4.97333C33.915 4.95533 33.953 5.05233 33.901 5.06533C33.653 4.44433 33.808 4.34734 33.704 3.77534C33.664 3.77034 33.492 3.29434 33.513 3.75734L33.596 3.96433L33.573 4.12634C33.54 3.95834 33.492 3.64533 33.448 3.68833C33.536 3.47333 33.339 2.40634 33.534 2.95634C33.482 3.25334 33.481 3.35734 33.557 3.53934C33.533 2.86334 33.765 2.28334 34.068 1.88334L34.106 1.69934C34.161 1.75634 34.371 1.59434 34.566 1.53934C34.637 1.47734 34.742 1.42634 34.702 1.40034C34.733 1.28134 33.986 1.84334 34.279 1.43734C34.73 1.15134 35.274 1.08734 35.577 1.18334C35.366 1.24834 35.201 1.26134 35.008 1.42334C34.291 1.71334 33.71 2.67033 33.949 3.51733C33.904 3.55233 33.923 3.77634 33.86 3.72034C33.838 3.80834 33.914 4.01434 33.855 4.09934C34.083 4.73734 34.477 5.36933 34.757 5.82833C34.784 5.60433 35 6.05734 35.119 6.15834C35.145 6.32434 35.287 6.52834 35.375 6.69334C35.403 6.69734 35.465 6.79533 35.483 6.74733C35.404 6.63533 35.405 6.57234 35.349 6.43734C35.457 6.42834 35.493 6.70934 35.58 6.90434L35.486 6.83734C35.646 7.15634 35.669 7.63034 35.867 7.87734L35.848 7.57633C36.049 7.92633 36.08 8.45133 36.248 8.71233C36.23 8.42333 36.015 8.02634 36.131 7.97834C36.2 7.95934 36.3 8.27233 36.31 8.43633C36.329 8.60733 36.343 8.77234 36.38 8.92234L36.415 9.15534C36.27 9.13934 36.768 9.35234 36.095 9.14934L36.135 9.05533C36.239 8.80533 36.345 8.56933 36.552 8.39634Z" fill="#083783"/>
<path d="M35.9604 8.98821L35.9494 9.00921L35.9444 9.01921L35.9414 9.02421L35.9404 9.02621L35.9394 9.02721C37.3014 9.49621 36.3164 9.15721 36.6204 9.26121L36.6144 9.20821L36.6004 9.11921L36.5684 8.99221C36.5444 8.92621 36.5224 8.89121 36.4934 8.86221C36.4364 8.80221 36.3924 8.74321 36.3374 8.47721C36.4194 8.52121 36.4044 8.24221 36.3544 8.06521C36.2604 7.92021 36.2214 7.71021 36.1604 7.57621C36.1344 7.47521 36.2124 7.44421 36.2904 7.63021C36.3184 7.89821 36.4274 8.15621 36.5214 8.43621L36.6304 8.87221L36.6424 9.10221L36.6384 9.21221L36.6364 9.23921L36.6344 9.25221L36.6334 9.25921V9.26121C35.2254 8.77721 36.2434 9.12721 35.9294 9.01921L35.9314 9.01721L35.9604 8.98821Z" fill="#083783"/>
<path d="M36.4837 8.84652C36.3677 9.07652 36.2857 8.88852 36.1967 9.13452C36.1797 8.98752 36.2627 9.01152 36.3737 8.80652L36.3467 8.95352L36.4837 8.84652Z" fill="#083783"/>
<path d="M36.038 7.57788C35.97 7.42188 35.839 7.04688 35.912 6.98288C35.907 6.95588 35.965 6.96788 35.909 6.89088C35.951 7.04288 36.123 7.45488 36.038 7.57788Z" fill="#083783"/>
<path d="M35.9597 8.43829C35.9227 8.35629 35.8927 8.26929 35.8437 8.13929C35.8887 8.21729 35.9627 8.30729 35.9597 8.43829Z" fill="#083783"/>
<path d="M35.8073 7.4623C35.7623 7.5283 35.7353 7.3443 35.7153 7.3013L35.6993 7.1953C35.7513 7.2703 35.8083 7.3733 35.8073 7.4623Z" fill="#083783"/>
<path d="M35.335 6.0683C35.24 5.8403 35.527 6.2313 35.397 5.9733L35.485 6.1123L35.429 6.2323L35.335 6.0683Z" fill="#083783"/>
<path d="M35.2273 5.68848C35.1743 5.64448 35.1323 5.59048 35.0863 5.47348L35.1513 5.50348C35.1873 5.53148 35.1793 5.60748 35.2273 5.68848Z" fill="#083783"/>
<path d="M35.1926 6.11581C35.1176 6.03181 35.1676 6.01181 35.1486 5.93481C35.1966 5.95081 35.2566 6.21181 35.1926 6.11581Z" fill="#083783"/>
<path d="M35.7339 6.35087C35.8639 6.37487 35.7399 6.25387 35.7059 6.03987C35.5989 5.80687 35.3969 5.63787 35.2709 5.42387L35.1479 5.33587C35.2829 5.60587 35.5229 6.07287 35.7339 6.35087Z" fill="#083783"/>
<path d="M36.2302 6.20671C36.1742 6.01071 35.9922 5.84171 35.9242 5.72171C36.0272 5.93471 36.1782 6.19671 36.2442 6.34771C36.2722 6.35271 36.2402 6.25871 36.2302 6.20671Z" fill="#083783"/>
<path d="M37.6007 7.80282C35.9577 8.09182 34.6817 9.43782 34.6927 12.9298C34.6927 12.9298 35.1717 17.8818 38.8447 16.9548C38.8447 16.9548 39.0507 16.9108 39.3937 16.7638L39.5487 16.6948C36.0927 17.3538 35.6347 12.6168 35.6347 12.6168C35.6267 9.82982 36.4377 8.40982 37.6007 7.80282Z" fill="#083783"/>
<path d="M36.8025 14.8311L36.7835 14.7671L36.8705 14.9681C36.8495 14.9941 36.7685 14.9121 36.7195 14.7941C36.7505 14.8021 36.8105 14.9071 36.8025 14.8311Z" fill="#083783"/>
<path d="M39.0144 16.9351C39.0584 16.8341 38.8484 16.6831 38.6184 16.5501L38.7184 16.3811C38.8034 16.4291 38.9344 16.4651 39.0814 16.4351L39.3064 16.4041L39.4174 16.3881L39.4714 16.3811L39.4984 16.3771L39.5044 16.3761L39.5064 16.3771C39.3844 15.8231 39.6734 17.1301 39.6434 16.9961H39.6424L39.6394 16.9981L39.6254 17.0041C39.6014 17.0241 39.6064 17.0311 39.6244 17.0321L39.6394 17.0311L39.6474 17.0301L39.6524 17.0291H39.6544C39.7904 17.6441 39.4684 16.1911 39.5014 16.3411L39.4994 16.3401L39.4634 16.3331C39.4414 16.3271 39.4244 16.3211 39.4294 16.3131L39.4554 16.2981L39.4844 16.2891L39.4934 16.2861L39.4944 16.2851C39.3364 15.5731 39.7094 17.2551 39.6704 17.0821L39.6694 17.0831L39.6664 17.0841L39.6614 17.0881L39.6384 17.1021C39.6004 17.0911 39.6094 17.0401 39.5464 17.0501C39.2914 17.1931 39.4864 17.3081 38.8564 17.4371L38.6384 17.3871C37.6274 17.6501 36.2954 17.3871 35.6044 16.3531C35.4154 16.2571 35.0874 15.7321 34.9034 15.4181L34.9374 15.3841C34.7744 15.2361 34.7264 14.8481 34.6334 14.6071L34.6034 14.3651C34.6364 14.2551 34.8454 14.9801 34.8804 14.7311C34.7734 14.2511 34.5314 13.9851 34.5214 13.5431C34.4664 13.1121 34.4204 13.2391 34.3734 12.8841C34.3294 12.7751 34.3284 13.0241 34.2794 12.9981C34.3044 11.9481 34.4744 12.0041 34.5974 11.1821C34.5644 11.1491 34.5794 10.4701 34.4274 11.0651V11.3651L34.3464 11.5551C34.3794 11.3281 34.4504 10.9151 34.3934 10.9501C34.5434 10.7021 34.6774 9.35008 34.7084 10.0701C34.5564 10.4271 34.5134 10.5421 34.5494 10.8091C34.7414 9.96008 35.0874 9.25708 35.5224 8.73308L35.5964 8.51208C35.6494 8.54908 35.9004 8.34908 36.1634 8.19708C36.2584 8.09808 36.3964 7.99708 36.3474 7.98608C36.3714 7.88508 35.4384 8.69108 35.7984 8.19808C36.3854 7.65508 37.1534 7.56108 37.5734 7.58308C37.2804 7.70108 37.0384 7.68008 36.7774 7.95808C35.7614 8.47108 35.0014 9.70808 34.9234 10.9501C34.8674 10.9791 34.7964 11.2961 34.7604 11.1881C34.7074 11.2941 34.6954 11.6131 34.6094 11.6881C34.5614 12.6551 34.6414 13.8201 34.9734 14.6151C35.0084 14.3351 35.2294 15.0551 35.3864 15.2241C35.4364 15.4491 35.6434 15.7591 35.8124 15.9601C35.8464 15.9661 35.9504 16.0901 35.9524 16.0271C35.8254 15.8851 35.8034 15.8051 35.6974 15.6371C35.8264 15.6201 35.9254 15.9971 36.1384 16.1921L35.9974 16.1321C36.2934 16.5141 36.7384 16.9761 37.1684 17.0051C37.0594 16.9541 36.9674 16.8441 36.8724 16.7681C37.3284 16.9661 37.9524 17.1421 38.3114 16.9571C37.9864 16.9631 37.4344 16.9891 37.4674 16.8211C37.4944 16.7691 37.8514 16.8001 38.0274 16.8271C38.3994 16.8851 38.7654 16.7841 39.0514 16.6491L39.2764 16.5391L39.3874 16.4851L39.4454 16.4581L39.4594 16.4511L39.4674 16.4481L39.4704 16.4461C39.5214 16.6741 39.3584 15.9371 39.5844 16.9561H39.5834H39.5804L39.5474 16.9591C39.3724 16.9751 39.1934 16.9721 39.0144 16.9351Z" fill="#083783"/>
<path d="M38.9381 16.4691C38.3611 16.6051 38.6741 16.7591 38.0811 16.8101C38.1511 16.7321 37.8681 16.6571 37.6811 16.6481C37.4991 16.6581 37.2841 16.5851 37.1351 16.5311C37.0411 16.4621 37.0791 16.3971 37.2741 16.4581C37.7461 16.8101 38.4421 16.4471 38.9381 16.4691Z" fill="#083783"/>
<path d="M39.5227 16.7008C39.3197 16.8068 39.3127 16.6118 39.0477 16.7608C39.1517 16.6228 39.2127 16.7018 39.4897 16.5768L39.3457 16.6988C39.3977 16.7048 39.5487 16.6648 39.5227 16.7008Z" fill="#083783"/>
<path d="M35.2046 12.757C35.2096 12.459 35.2126 12.38 35.1866 12.238L35.1556 12.319C35.1736 12.474 35.1646 12.493 35.2046 12.757Z" fill="#083783"/>
<path d="M45.265 10.096C45.265 10.096 51.925 -0.872991 55.432 1.82801C55.432 1.82801 56.644 2.71201 55.65 4.84701C55.65 4.84701 53.712 7.61401 53.675 9.27401L45.265 10.096Z" fill="#4FB29E"/>
<path d="M55.4534 4.8404C55.5554 4.8594 55.5124 5.1684 55.4104 5.5014L55.5924 5.5064C55.6574 5.3174 55.9914 4.8254 56.1114 4.3964C56.1974 4.2534 56.0194 4.7934 56.1954 4.4084C56.1924 4.3534 56.1454 4.3714 56.1624 4.2824C56.2724 3.9154 56.4074 4.1694 56.4304 3.2354L56.3464 2.9294C56.1534 1.1054 54.2274 0.6184 53.2284 1.1164C52.9964 1.0634 52.4654 1.3824 52.1154 1.4914L52.1274 1.5434C51.9184 1.5804 51.6654 1.8784 51.4464 2.0134L51.2784 2.1904C51.2404 2.3044 51.8434 1.8534 51.7254 2.0794C51.3444 2.3994 51.0144 2.4834 50.7284 2.8234C50.4234 3.1024 50.4374 3.0354 50.2354 3.1884C50.1604 3.1924 50.2684 3.0884 50.2174 3.0594C49.5234 3.6814 49.6484 3.9314 49.0834 4.5184C49.0384 4.5064 48.5294 4.9134 48.9064 4.4134L49.1354 4.2384L49.2364 4.0474C49.0824 4.2124 48.8034 4.5224 48.8014 4.4434C48.7164 4.8064 47.6804 5.5034 48.2654 5.2334C48.4854 4.9014 48.5644 4.8224 48.7734 4.6884C48.2144 5.3644 47.7824 6.0214 47.3454 6.5964L47.1634 6.7074C47.2084 6.7784 47.0354 7.1004 46.8454 7.3934C46.7434 7.4984 46.6404 7.6634 46.6384 7.5964C46.5584 7.6114 47.3654 6.5594 46.8974 6.9554C46.4374 7.6264 46.0074 8.3884 45.8004 8.8974C46.0284 8.5984 46.1604 8.3534 46.4674 8.1054C47.3134 7.0764 48.1414 5.8634 49.0644 4.9994C49.0604 4.9204 49.2764 4.6544 49.1724 4.6834C49.2284 4.5644 49.4754 4.3574 49.4874 4.2274C50.2064 3.5634 51.0204 2.7404 51.7384 2.2424C51.6064 2.5154 52.2094 2.0284 52.4384 1.9734C52.6134 1.8204 52.9664 1.6744 53.2224 1.5724C53.2574 1.5914 53.4244 1.5644 53.3924 1.6154C53.1924 1.6294 53.1354 1.7084 52.9514 1.8114C53.0554 1.8624 53.3524 1.6254 53.6544 1.5774L53.4904 1.5504C53.9544 1.4054 54.6374 1.1984 55.0424 1.5644C54.9054 1.5494 54.7864 1.4794 54.6504 1.5174C55.1654 1.6894 55.8924 2.0484 55.8714 2.6624C55.7554 2.2384 55.3064 1.7334 55.2234 1.9264C55.2394 1.9774 55.5184 2.2214 55.6314 2.4094C56.1784 3.2354 55.6114 4.0874 55.4534 4.8404Z" fill="#083783"/>
<path d="M45.2476 10.1672C45.2476 10.1672 55.2616 3.17422 55.2306 12.9302C55.2306 12.9302 54.7516 17.8822 51.0796 16.9542C51.0796 16.9542 47.4176 16.1752 45.2476 10.1672Z" fill="#4FB29E"/>
<path d="M54.2298 15.4862C54.3358 15.5022 54.3108 15.8112 54.1598 16.1512L54.3468 16.1672C54.4638 15.9072 54.7658 15.4782 54.9348 15.0872C55.0298 14.9552 54.8118 15.4742 55.0168 15.1102C55.0158 15.0542 54.9718 15.0672 54.9908 14.9782C55.1498 14.6462 55.2198 14.8962 55.4208 14.0802L55.4188 13.7882C55.7108 12.2922 55.6178 10.8082 55.0248 9.51324C55.0188 9.22824 54.6128 8.62624 54.3508 8.27224L54.3148 8.30424C54.1898 8.06124 53.8238 7.88124 53.5828 7.73624L53.3438 7.66424C53.2418 7.67724 53.9418 8.06724 53.6968 8.06324C53.2468 7.82824 52.9618 7.55024 52.5308 7.52424C52.1268 7.48024 52.1798 7.41624 51.9298 7.37424C51.8678 7.31724 52.0148 7.32724 51.9918 7.26424C51.0658 7.19624 51.0388 7.50224 50.2718 7.60624C50.2388 7.56124 49.6078 7.60424 50.1698 7.40124L50.4528 7.40624L50.6348 7.31324C50.4188 7.34724 50.0278 7.42824 50.0638 7.36324C49.8148 7.59724 48.5918 7.60124 49.2288 7.70724C49.5718 7.55624 49.6778 7.53024 49.9238 7.55624C49.1188 7.77324 48.4568 8.11524 47.8348 8.39624H47.6248C47.6368 8.48324 47.3538 8.67924 47.0698 8.84924C46.9388 8.89624 46.7798 8.98724 46.8038 8.92724C46.7248 8.90124 47.8628 8.36024 47.2858 8.47824C46.6048 8.84724 45.9278 9.33124 45.5598 9.70924C45.8728 9.53524 46.0878 9.38324 46.4578 9.30324C47.6078 8.78924 48.8408 8.14324 50.0318 8.00624C50.0648 7.93424 50.3708 7.84124 50.2688 7.80124C50.3738 7.74124 50.6818 7.72724 50.7568 7.63424C51.6818 7.58924 52.8188 7.61624 53.5818 8.15724C53.3188 8.14424 53.9908 8.54124 54.0968 8.81724C54.2978 8.94224 54.5188 9.32224 54.6458 9.61224C54.6408 9.65824 54.7108 9.84324 54.6598 9.81924C54.5828 9.59624 54.5278 9.53124 54.3928 9.34724C54.3718 9.48324 54.6318 9.77724 54.7598 10.1152L54.7418 9.91524C54.9518 10.4622 55.2798 11.1562 55.2218 11.7382L55.0788 11.2832C55.1058 11.9542 55.3358 12.8322 55.1038 13.3002C55.1908 12.8582 55.1428 12.1042 55.0488 12.1222C54.9828 12.1552 55.0018 12.6762 55.0368 12.9242C55.0178 13.9582 54.4988 14.6642 54.2298 15.4862Z" fill="#083783"/>
<path d="M46.7729 12.2836C47.0179 12.7566 47.4699 13.2936 47.7249 13.8286C47.5559 13.6336 47.5189 13.6646 47.2729 13.3366C47.3469 13.6946 47.6619 13.8356 47.8829 14.1246C47.6719 13.9196 47.8829 14.2656 48.0479 14.4636C48.3829 14.8046 48.9189 15.3386 49.4299 15.7096C49.6189 15.9386 50.4119 16.2866 50.2539 16.3546C50.5889 16.5306 50.6709 16.4446 50.9269 16.5046C51.6799 16.8756 52.3049 16.4466 53.0139 16.3046C52.9499 16.2636 53.2709 16.0546 53.3879 15.9556C53.6589 15.7556 54.1129 14.9936 54.1199 15.2456C54.0709 15.5676 53.6359 15.8496 53.4099 16.1656C52.9769 16.7256 53.9839 15.8046 54.0279 15.8016C53.9479 15.8656 54.0009 16.0176 53.7439 16.2056C54.2669 15.7636 53.6309 16.5366 53.9309 16.3516C53.3609 16.9846 53.3949 16.8956 53.0729 17.2636C52.5899 17.4136 52.6949 17.2076 52.5529 17.1826C52.0649 17.2136 51.6699 17.3506 51.2469 17.2296C51.5499 17.5406 50.4729 17.2776 50.0279 16.9756C49.4309 16.6536 49.8969 16.6896 49.2929 16.3236C48.9489 16.2196 49.8399 16.8526 49.3989 16.6966L49.1399 16.4676C49.0089 16.2586 48.9179 16.0756 48.7599 15.8526C48.6459 15.7536 48.4759 15.6056 48.4539 15.6296C48.6599 15.8506 48.5479 15.8686 48.2859 15.6956C48.1989 15.5626 48.1769 15.5296 48.1459 15.4526C48.7149 15.6956 47.6849 14.9906 47.4969 14.5356C46.8509 13.3796 46.8899 14.2046 46.2639 13.0386C46.6129 13.2576 45.9019 12.2376 45.8029 11.7926C45.6469 11.4666 45.5359 11.3836 45.3949 11.1726C45.3749 11.0676 45.2799 10.7986 45.2959 10.7416C45.5869 10.8096 46.0949 11.4756 46.7599 12.2296C46.7699 12.2566 46.7779 12.2806 46.7729 12.2836Z" fill="#083783"/>
<path d="M55.4904 2.22979C55.6274 2.65279 55.6684 3.30879 55.4524 3.70379C55.4664 3.49479 55.4454 3.48579 55.4674 3.17079C55.3134 3.38679 55.4104 3.64479 55.3564 3.93079C55.3754 3.69879 55.2684 3.97479 55.1854 4.12879C55.1264 4.49279 54.8114 5.04979 54.6024 5.30179C54.4684 5.41579 54.2334 5.96379 54.1744 5.80679C54.0424 6.01879 54.1044 6.11279 54.0364 6.29179C53.6484 6.69179 53.8084 7.32579 53.4494 7.76279C53.5294 7.76579 53.4224 8.02579 53.3894 8.13079L53.3854 8.14179C53.3624 7.90579 53.4354 8.66979 53.3354 7.61279V7.61479L53.3364 7.61579L53.3384 7.61879L53.3414 7.62379L53.3544 7.64679L53.3834 7.69779L53.4474 7.81179L53.5694 8.05579C53.6384 8.21179 53.6684 8.33679 53.5784 8.32379C53.4594 8.38979 53.2714 7.47279 53.2604 8.00179C53.2694 7.75979 53.2154 7.86079 53.1444 8.02179C53.1584 7.69679 53.3124 8.26379 53.2484 8.19979C53.2344 8.12579 53.1254 8.16579 53.0584 7.96079C53.2234 8.37979 52.8554 7.89479 52.9014 8.14079C52.7424 7.39279 52.9184 7.60179 52.8094 7.21579C52.9554 6.93279 53.0214 7.07879 53.1094 7.02979C53.2944 6.76379 53.2834 6.44879 53.4444 6.21879C53.1764 6.28479 53.5384 5.70079 53.7104 5.41879C53.9224 5.04679 53.9234 5.41279 54.1424 5.01979C54.1854 4.76179 53.8054 5.32079 53.8794 4.99879L54.0204 4.84879C54.1524 4.79179 54.2834 4.77279 54.4114 4.68179C54.4644 4.60479 54.5424 4.49079 54.5224 4.46479C54.3964 4.59279 54.3674 4.49479 54.4474 4.29879C54.4424 4.35979 54.4994 4.25679 54.5264 4.26179C54.5854 4.71479 54.6714 3.91579 54.8684 3.72479C55.1614 3.00379 54.7384 3.28079 54.7844 2.63779C55.0124 2.79779 54.7864 2.16279 54.6964 1.94379C54.5864 1.78979 54.4974 1.77879 54.3894 1.76279C54.3704 1.71579 54.2574 1.62679 54.2594 1.57679C54.4224 1.36179 55.0544 1.38479 55.4934 2.18179L55.4904 2.22979Z" fill="#083783"/>
<path d="M50.9096 16.9351C50.8656 16.8341 51.0756 16.6831 51.3056 16.5501L51.2056 16.3811C51.1206 16.4291 50.9896 16.4651 50.8426 16.4351L50.6176 16.4041L50.5066 16.3881L50.4526 16.3811L50.4256 16.3771L50.4196 16.3761L50.4176 16.3771C50.5396 15.8231 50.2506 17.1301 50.2806 16.9961L50.2856 16.9981L50.2986 17.0041C50.3226 17.0241 50.3176 17.0311 50.2996 17.0321L50.2846 17.0311L50.2766 17.0301L50.2716 17.0291H50.2696C50.1336 17.6441 50.4556 16.1911 50.4226 16.3411L50.4246 16.3401L50.4606 16.3331C50.4826 16.3271 50.4996 16.3211 50.4946 16.3131L50.4686 16.2981L50.4396 16.2891L50.4306 16.2861L50.4296 16.2851C50.5876 15.5731 50.2146 17.2551 50.2536 17.0821L50.2546 17.0831L50.2576 17.0841L50.2626 17.0881L50.2856 17.1021C50.3236 17.0911 50.3146 17.0401 50.3776 17.0501C50.6326 17.1931 50.4376 17.3081 51.0686 17.4371L51.2856 17.3871C52.2966 17.6501 53.6286 17.3871 54.3196 16.3531C54.5086 16.2571 54.8366 15.7321 55.0206 15.4181L54.9866 15.3841C55.1496 15.2361 55.1976 14.8481 55.2906 14.6071L55.3206 14.3651C55.2876 14.2551 55.0786 14.9801 55.0436 14.7311C55.1506 14.2511 55.3926 13.9851 55.4026 13.5431C55.4576 13.1121 55.5036 13.2391 55.5506 12.8841C55.5946 12.7751 55.5956 13.0241 55.6446 12.9981C55.6196 11.9481 55.4496 12.0041 55.3276 11.1821C55.3596 11.1491 55.3446 10.4701 55.4966 11.0651V11.3651L55.5776 11.5541C55.5446 11.3281 55.4736 10.9151 55.5306 10.9501C55.3806 10.7021 55.2466 9.35008 55.2156 10.0701C55.3676 10.4271 55.4106 10.5421 55.3746 10.8091C55.1826 9.96008 54.8366 9.25708 54.4016 8.73308L54.3276 8.51208C54.2746 8.54908 54.0236 8.34908 53.7606 8.19708C53.6656 8.09808 53.5276 7.99708 53.5766 7.98608C53.5526 7.88508 54.4856 8.69108 54.1266 8.19808C53.5386 7.65508 52.7706 7.56108 52.3506 7.58308C52.6436 7.70108 52.8856 7.68008 53.1466 7.95808C54.1626 8.47108 54.9226 9.70808 55.0006 10.9501C55.0566 10.9791 55.1276 11.2961 55.1636 11.1881C55.2166 11.2941 55.2286 11.6131 55.3146 11.6881C55.3626 12.6551 55.2826 13.8201 54.9506 14.6151C54.9156 14.3351 54.6946 15.0551 54.5376 15.2231C54.4876 15.4491 54.2806 15.7591 54.1116 15.9601C54.0776 15.9661 53.9736 16.0901 53.9716 16.0271C54.0986 15.8851 54.1206 15.8051 54.2266 15.6371C54.0976 15.6201 53.9986 15.9971 53.7856 16.1921L53.9256 16.1321C53.6306 16.5141 53.1856 16.9761 52.7556 17.0051C52.8646 16.9541 52.9566 16.8431 53.0516 16.7681C52.5956 16.9661 51.9716 17.1421 51.6126 16.9571C51.9376 16.9631 52.4896 16.9891 52.4566 16.8211C52.4296 16.7691 52.0726 16.8001 51.8966 16.8271C51.5246 16.8851 51.1586 16.7841 50.8726 16.6491L50.6476 16.5391L50.5366 16.4851L50.4786 16.4581L50.4646 16.4511L50.4566 16.4481L50.4536 16.4461C50.4026 16.6741 50.5656 15.9371 50.3396 16.9561H50.3416H50.3436L50.3766 16.9591C50.5516 16.9751 50.7306 16.9721 50.9096 16.9351Z" fill="#083783"/>
<path d="M50.4014 16.7008C50.6044 16.8068 50.6114 16.6118 50.8764 16.7608C50.7724 16.6228 50.7114 16.7018 50.4344 16.5768L50.5784 16.6988C50.5264 16.7048 50.3754 16.6648 50.4014 16.7008Z" fill="#083783"/>
<path d="M44.6591 10.096C44.6591 10.096 37.9991 -0.872991 34.4921 1.82801C34.4921 1.82801 33.2801 2.71201 34.2741 4.84601C34.2741 4.84601 36.2121 7.61401 36.2491 9.27401L44.6591 10.096Z" fill="#4FB29E"/>
<path d="M34.4707 4.8404C34.3687 4.8594 34.4117 5.1684 34.5137 5.5014L34.3317 5.5064C34.2667 5.3174 33.9327 4.8254 33.8127 4.3964C33.7267 4.2534 33.9047 4.7934 33.7287 4.4084C33.7317 4.3534 33.7787 4.3714 33.7617 4.2824C33.6517 3.9154 33.5167 4.1694 33.4937 3.2354L33.5777 2.9294C33.7707 1.1054 35.6967 0.6184 36.6957 1.1164C36.9277 1.0634 37.4587 1.3824 37.8087 1.4914L37.7967 1.5434C38.0057 1.5804 38.2587 1.8784 38.4777 2.0134L38.6457 2.1904C38.6837 2.3044 38.0807 1.8534 38.1987 2.0794C38.5797 2.3994 38.9097 2.4834 39.1957 2.8234C39.5007 3.1024 39.4867 3.0354 39.6887 3.1884C39.7637 3.1924 39.6557 3.0894 39.7067 3.0594C40.4007 3.6814 40.2757 3.9314 40.8407 4.5184C40.8857 4.5064 41.3947 4.9134 41.0177 4.4134L40.7887 4.2384L40.6877 4.0474C40.8417 4.2124 41.1207 4.5224 41.1227 4.4434C41.2077 4.8064 42.2437 5.5034 41.6587 5.2334C41.4387 4.9014 41.3597 4.8224 41.1507 4.6884C41.7097 5.3644 42.1417 6.0214 42.5787 6.5964L42.7607 6.7074C42.7157 6.7784 42.8887 7.1004 43.0787 7.3934C43.1807 7.4984 43.2837 7.6634 43.2857 7.5964C43.3657 7.6114 42.5587 6.5594 43.0267 6.9554C43.4867 7.6264 43.9167 8.3884 44.1237 8.8974C43.8957 8.5984 43.7637 8.3534 43.4567 8.1054C42.6107 7.0764 41.7827 5.8634 40.8597 4.9994C40.8637 4.9204 40.6477 4.6544 40.7517 4.6834C40.6957 4.5644 40.4487 4.3574 40.4367 4.2274C39.7177 3.5634 38.9037 2.7404 38.1857 2.2424C38.3177 2.5154 37.7147 2.0284 37.4857 1.9734C37.3107 1.8204 36.9577 1.6744 36.7017 1.5724C36.6667 1.5914 36.4997 1.5644 36.5317 1.6154C36.7317 1.6294 36.7887 1.7084 36.9727 1.8114C36.8687 1.8624 36.5717 1.6254 36.2697 1.5774L36.4337 1.5504C35.9697 1.4054 35.2867 1.1984 34.8817 1.5644C35.0187 1.5494 35.1377 1.4794 35.2737 1.5174C34.7587 1.6894 34.0317 2.0474 34.0527 2.6624C34.1687 2.2384 34.6177 1.7334 34.7007 1.9264C34.6847 1.9774 34.4057 2.2214 34.2927 2.4094C33.7457 3.2354 34.3127 4.0874 34.4707 4.8404Z" fill="#083783"/>
<path d="M44.6765 10.1672C44.6765 10.1672 34.6625 3.17422 34.6935 12.9302C34.6935 12.9302 35.1725 17.8822 38.8445 16.9542C38.8445 16.9542 42.5065 16.1752 44.6765 10.1672Z" fill="#4FB29E"/>
<path d="M35.6942 15.4862C35.5882 15.5022 35.6132 15.8112 35.7642 16.1512L35.5772 16.1672C35.4602 15.9072 35.1582 15.4782 34.9892 15.0872C34.8942 14.9552 35.1122 15.4742 34.9072 15.1102C34.9082 15.0552 34.9522 15.0672 34.9332 14.9782C34.7742 14.6462 34.7042 14.8962 34.5032 14.0802L34.5052 13.7882C34.2132 12.2922 34.3062 10.8082 34.8992 9.51324C34.9052 9.22824 35.3112 8.62624 35.5732 8.27224L35.6092 8.30424C35.7342 8.06124 36.1002 7.88124 36.3412 7.73624L36.5802 7.66424C36.6822 7.67724 35.9822 8.06724 36.2272 8.06324C36.6772 7.82724 36.9622 7.55024 37.3932 7.52424C37.7972 7.48024 37.7442 7.41624 37.9942 7.37424C38.0562 7.31724 37.9092 7.32724 37.9322 7.26424C38.8582 7.19624 38.8852 7.50224 39.6522 7.60624C39.6852 7.56124 40.3162 7.60424 39.7542 7.40124L39.4712 7.40624L39.2892 7.31324C39.5052 7.34724 39.8962 7.42824 39.8602 7.36324C40.1092 7.59724 41.3322 7.60124 40.6962 7.70724C40.3522 7.55624 40.2462 7.53024 40.0002 7.55624C40.8052 7.77324 41.4672 8.11524 42.0892 8.39624H42.2992C42.2872 8.48324 42.5702 8.67924 42.8542 8.84924C42.9862 8.89624 43.1442 8.98724 43.1202 8.92724C43.1992 8.90124 42.0612 8.36024 42.6382 8.47824C43.3192 8.84724 43.9962 9.33124 44.3642 9.70924C44.0512 9.53524 43.8362 9.38324 43.4662 9.30324C42.3162 8.78924 41.0832 8.14324 39.8922 8.00624C39.8602 7.93424 39.5532 7.84124 39.6552 7.80124C39.5502 7.74124 39.2422 7.72724 39.1672 7.63424C38.2422 7.58924 37.1052 7.61624 36.3422 8.15724C36.6052 8.14424 35.9332 8.54124 35.8272 8.81724C35.6262 8.94224 35.4052 9.32224 35.2782 9.61224C35.2832 9.65824 35.2132 9.84324 35.2642 9.81924C35.3412 9.59624 35.3962 9.53124 35.5312 9.34724C35.5522 9.48324 35.2922 9.77724 35.1642 10.1152L35.1822 9.91524C34.9722 10.4622 34.6442 11.1562 34.7022 11.7382L34.8452 11.2832C34.8182 11.9542 34.5882 12.8322 34.8202 13.3002C34.7332 12.8592 34.7812 12.1042 34.8752 12.1222C34.9412 12.1552 34.9222 12.6762 34.8872 12.9242C34.9062 13.9582 35.4252 14.6642 35.6942 15.4862Z" fill="#083783"/>
<path d="M43.1511 12.2836C42.9061 12.7566 42.4541 13.2936 42.1991 13.8286C42.3681 13.6336 42.4051 13.6646 42.6511 13.3366C42.5771 13.6946 42.2621 13.8356 42.0411 14.1246C42.2521 13.9196 42.0411 14.2656 41.8761 14.4636C41.5411 14.8046 41.0051 15.3386 40.4941 15.7096C40.3061 15.9386 39.5121 16.2866 39.6701 16.3546C39.3351 16.5306 39.2531 16.4446 38.9971 16.5046C38.2441 16.8756 37.6191 16.4466 36.9101 16.3046C36.9741 16.2636 36.6531 16.0546 36.5361 15.9556C36.2651 15.7556 35.8111 14.9936 35.8041 15.2456C35.8531 15.5676 36.2881 15.8496 36.5141 16.1656C36.9471 16.7256 35.9401 15.8046 35.8961 15.8016C35.9761 15.8656 35.9241 16.0176 36.1801 16.2056C35.6571 15.7636 36.2931 16.5366 35.9931 16.3516C36.5631 16.9846 36.5291 16.8956 36.8511 17.2636C37.3341 17.4136 37.2291 17.2076 37.3711 17.1826C37.8591 17.2136 38.2541 17.3506 38.6771 17.2296C38.3741 17.5406 39.4511 17.2776 39.8961 16.9756C40.4931 16.6536 40.0271 16.6896 40.6311 16.3236C40.9761 16.2196 40.0841 16.8526 40.5251 16.6966L40.7841 16.4676C40.9151 16.2586 41.0061 16.0756 41.1641 15.8526C41.2781 15.7536 41.4481 15.6056 41.4701 15.6296C41.2641 15.8506 41.3761 15.8686 41.6381 15.6956C41.7251 15.5626 41.7471 15.5296 41.7781 15.4526C41.2091 15.6956 42.2391 14.9906 42.4271 14.5356C43.0731 13.3796 43.0341 14.2046 43.6611 13.0386C43.3111 13.2576 44.0221 12.2376 44.1211 11.7926C44.2771 11.4666 44.3881 11.3836 44.5291 11.1726C44.5491 11.0676 44.6441 10.7986 44.6281 10.7416C44.3371 10.8096 43.8291 11.4756 43.1641 12.2296C43.1541 12.2566 43.1461 12.2806 43.1511 12.2836Z" fill="#083783"/>
<path d="M34.4337 2.22979C34.2967 2.65279 34.2557 3.30879 34.4717 3.70379C34.4577 3.49479 34.4787 3.48579 34.4567 3.17079C34.6107 3.38679 34.5137 3.64479 34.5677 3.93079C34.5487 3.69879 34.6557 3.97479 34.7387 4.12879C34.7977 4.49279 35.1127 5.04979 35.3217 5.30179C35.4557 5.41579 35.6907 5.96379 35.7497 5.80679C35.8817 6.01879 35.8197 6.11279 35.8877 6.29179C36.2757 6.69179 36.1157 7.32579 36.4747 7.76279C36.3947 7.76579 36.5017 8.02579 36.5347 8.13079L36.5387 8.14179C36.5617 7.90579 36.4887 8.66979 36.5887 7.61279V7.61479L36.5877 7.61579L36.5857 7.61879L36.5827 7.62379L36.5697 7.64679L36.5407 7.69779L36.4767 7.81179L36.3547 8.05579C36.2857 8.21179 36.2557 8.33679 36.3457 8.32379C36.4647 8.38979 36.6527 7.47279 36.6637 8.00179C36.6557 7.75979 36.7087 7.86079 36.7797 8.02179C36.7657 7.69679 36.6117 8.26379 36.6757 8.19979C36.6897 8.12579 36.7987 8.16579 36.8657 7.96079C36.7007 8.37979 37.0687 7.89479 37.0227 8.14079C37.1817 7.39279 37.0057 7.60179 37.1147 7.21579C36.9687 6.93279 36.9027 7.07879 36.8147 7.02979C36.6297 6.76379 36.6407 6.44879 36.4797 6.21879C36.7477 6.28479 36.3857 5.70079 36.2137 5.41879C36.0017 5.04679 36.0007 5.41279 35.7817 5.01979C35.7387 4.76179 36.1187 5.32079 36.0447 4.99879L35.9037 4.84879C35.7717 4.79179 35.6407 4.77279 35.5127 4.68179C35.4597 4.60479 35.3817 4.49079 35.4017 4.46479C35.5277 4.59279 35.5567 4.49479 35.4767 4.29879C35.4817 4.35979 35.4247 4.25679 35.3977 4.26179C35.3387 4.71479 35.2527 3.91579 35.0557 3.72479C34.7627 3.00379 35.1857 3.28079 35.1397 2.63779C34.9117 2.79779 35.1377 2.16279 35.2277 1.94379C35.3377 1.78979 35.4267 1.77879 35.5347 1.76279C35.5537 1.71579 35.6667 1.62679 35.6647 1.57679C35.5017 1.36179 34.8697 1.38479 34.4307 2.18179L34.4337 2.22979Z" fill="#083783"/>
<path d="M35.9624 8.69828C35.6694 9.16128 35.3764 9.88928 35.3764 10.5033C35.4584 10.2423 35.4824 10.2443 35.6044 9.84228C35.6524 10.1943 35.4234 10.4643 35.3714 10.8433C35.4364 10.5453 35.4394 10.9573 35.4184 11.2153C35.3424 11.6643 35.2394 12.5163 35.4064 13.1953C35.4894 13.4693 35.6904 14.3973 35.7734 14.2113C35.9164 14.5803 35.8514 14.6783 35.9534 14.9693C36.4284 15.6403 36.6064 16.6173 37.5444 16.9183C37.4594 16.9823 37.8854 17.1773 38.0604 17.2103C38.4374 17.3763 39.3264 17.3343 39.1204 17.1703C38.8854 17.0863 38.3614 17.2433 38.0064 16.9953C37.4194 16.6433 38.6794 17.1303 38.7014 16.9083C38.6094 16.9203 38.5694 16.8073 38.2994 16.7993C38.8674 16.8303 38.0944 16.5973 38.3904 16.5633C37.8144 16.3123 37.8814 16.2823 37.6844 15.9843C37.3874 15.8003 37.4054 15.9613 37.2854 15.9553C36.9314 15.7313 36.8274 15.3363 36.6164 15.0363C36.9094 15.1493 36.4244 14.4123 36.2994 13.9583C36.1374 13.3863 36.0674 13.8393 35.9324 13.2013C35.9504 12.8653 36.1984 13.7943 36.1984 13.3533L36.0964 13.0833C35.9864 12.9333 35.8624 12.7743 35.7884 12.6013C35.7924 12.4613 35.7984 12.2513 35.8274 12.2473C35.8494 12.5223 35.9254 12.4373 35.9774 12.1563C35.9514 12.0233 35.9444 11.9893 35.9174 11.9243C35.6794 12.4663 35.9244 11.3363 35.8814 10.9293C35.9584 9.75828 36.1974 10.4003 36.5014 9.40828C36.1884 9.57528 36.7334 8.73028 36.9434 8.46228C37.1544 8.28228 37.2484 8.24328 37.4364 8.21628C37.4864 8.15728 37.6534 8.03628 37.6654 7.98028C37.4704 7.80328 36.6934 7.82128 35.9764 8.64128C35.9664 8.67028 35.9574 8.69528 35.9624 8.69828Z" fill="#083783"/>
</svg>
