<svg width="599" height="31" viewBox="0 0 599 31" fill="none" xmlns="http://www.w3.org/2000/svg">
<path d="M0 27.2151L339.903 27.5331" stroke="#4FB29E" stroke-width="3"/>
<path d="M338.407 27.6448L482.199 27.4168C482.199 27.4168 495.34 5.03877 500.09 2.70477C500.09 2.70477 502.956 0.00177336 506.596 5.18277C506.596 5.18277 517.013 21.5378 518.445 23.2858C518.445 23.2858 522.23 28.9938 527.816 28.9938C527.816 28.9938 530.973 28.5358 533.471 27.7908C533.471 27.7908 552.213 22.3838 555.234 22.3838C555.234 22.3838 558 22.1118 564.605 24.1008C564.605 24.1008 571.559 26.2598 581.335 27.1168C581.335 27.1168 591.713 27.5658 596.902 21.6328" stroke="#4FB29E" stroke-width="3"/>
</svg>
