<svg width="596" height="29" viewBox="0 0 596 29" fill="none" xmlns="http://www.w3.org/2000/svg">
<path d="M0.0697937 25.7315L339.973 26.0495M338.477 26.1613L482.269 25.9333C482.269 25.9333 495.41 3.55532 500.16 1.22132C500.16 1.22132 503.026 -1.48168 506.666 3.69932C506.666 3.69932 517.083 20.0543 518.515 21.8023C518.515 21.8023 522.3 27.5103 527.886 27.5103C527.886 27.5103 531.043 27.0523 533.541 26.3073C533.541 26.3073 552.283 20.9003 555.304 20.9003C555.304 20.9003 558.07 20.6283 564.675 22.6173C564.675 22.6173 571.629 24.7763 581.405 25.6333C581.405 25.6333 591.783 26.0823 596.972 20.1493" stroke="#4FB29E"/>
</svg>
