<svg width="132" height="16" viewBox="0 0 132 16" fill="none" xmlns="http://www.w3.org/2000/svg">
<path d="M131.766 14.4085L59.2044 14.2935C59.2044 14.2935 52.5724 2.99251 50.1754 1.81351C50.1754 1.81351 48.7294 0.448514 46.8924 3.06551C46.8924 3.06551 41.6354 11.3245 40.9134 12.2065C40.9134 12.2065 39.0034 15.0905 36.1834 15.0905C36.1834 15.0905 34.5914 14.8585 33.3304 14.4825C33.3304 14.4825 23.8724 11.7515 22.3484 11.7515C22.3484 11.7515 20.9524 11.6145 17.6194 12.6185C17.6194 12.6185 14.1094 13.7095 9.17644 14.1415C9.17644 14.1415 3.93943 14.3685 1.32143 11.3725" stroke="#4FB29E" stroke-width="1.01"/>
</svg>
