<svg width="511" height="27" viewBox="0 0 511 27" fill="none" xmlns="http://www.w3.org/2000/svg">
<path d="M233.983 19L510.408 19.521" stroke="white" stroke-width="1.555"/>
<path d="M0 24.1819L130.497 23.9759C130.497 23.9759 142.423 3.74686 146.734 1.63686C146.734 1.63686 149.336 -0.806144 152.639 3.87686C152.639 3.87686 162.093 18.6609 163.392 20.2409C163.392 20.2409 166.828 25.4019 171.897 25.4019C171.897 25.4019 174.762 24.9869 177.029 24.3139C177.029 24.3139 194.038 19.4269 196.78 19.4269C196.78 19.4269 199.29 19.1809 205.285 20.9789C205.285 20.9789 211.596 22.9299 220.468 23.7039C220.468 23.7039 229.886 24.1099 234.596 18.7469" stroke="white" stroke-width="1.555"/>
</svg>
