<svg width="511" height="27" viewBox="0 0 511 27" fill="none" xmlns="http://www.w3.org/2000/svg">
<g clip-path="url(#clip0_527_9)">
<path d="M233.983 19L510.408 19.521" stroke="white" stroke-width="1.555"/>
<path d="M0 24.182L130.497 23.976C130.497 23.976 142.423 3.74694 146.734 1.63694C146.734 1.63694 149.336 -0.806064 152.639 3.87694C152.639 3.87694 162.093 18.661 163.392 20.241C163.392 20.241 166.828 25.402 171.897 25.402C171.897 25.402 174.762 24.987 177.029 24.314C177.029 24.314 194.038 19.427 196.78 19.427C196.78 19.427 199.29 19.181 205.285 20.979C205.285 20.979 211.596 22.93 220.468 23.704C220.468 23.704 229.886 24.11 234.596 18.747" stroke="white" stroke-width="1.555"/>
</g>
<defs>
<clipPath id="clip0_527_9">
<rect width="511" height="27" fill="white"/>
</clipPath>
</defs>
</svg>
