<svg width="81" height="68" viewBox="0 0 81 68" fill="none" xmlns="http://www.w3.org/2000/svg">
<path d="M31.7771 18.7041H48.2431V2.2381H31.7771V18.7041Z" stroke="white" stroke-width="3.068"/>
<path d="M0.370605 66.0269H21.2666H80.0406" stroke="white" stroke-width="3.068"/>
<path d="M20.5381 66.4272V36.0632V10.6992H32.2501" stroke="white" stroke-width="3.068"/>
<path d="M20.9387 36.302H9.60266V66.21" stroke="white" stroke-width="3.068"/>
<path d="M59.7485 36.5031H71.0845V66.4111" stroke="white" stroke-width="3.068"/>
<path d="M31.9941 66.4272V53.6592H48.6341V66.2032" stroke="white" stroke-width="3.068"/>
<path d="M29.925 33.5369H37.1481V26.3138H29.925V33.5369Z" stroke="white" stroke-width="3.068"/>
<path d="M29.925 47.0239H37.1481V39.8009H29.925V47.0239Z" stroke="white" stroke-width="3.068"/>
<path d="M43.3911 47.0239H50.6141V39.8009H43.3911V47.0239Z" stroke="white" stroke-width="3.068"/>
<path d="M43.3911 33.5369H50.6141V26.3138H43.3911V33.5369Z" stroke="white" stroke-width="3.068"/>
<path d="M47.5969 10.6993H59.2659V66.6443" stroke="white" stroke-width="3.068"/>
<path d="M39.8413 6.54339V15.1504" stroke="white" stroke-width="3.068"/>
<path d="M35.9385 10.4463H44.5445" stroke="white" stroke-width="3.068"/>
</svg>
