<svg width="1753" height="50" viewBox="0 0 1753 50" fill="none" xmlns="http://www.w3.org/2000/svg">
<g clip-path="url(#clip0_527_9)">
<path d="M229.983 31.4816L506.408 32.4464" stroke="white" stroke-width="5"/>
<path d="M-4 41.0776L126.497 40.6961C126.497 40.6961 138.423 3.23488 142.734 -0.672532C142.734 -0.672532 145.336 -5.19662 148.639 3.47562C148.639 3.47562 158.093 30.8535 159.392 33.7794C159.392 33.7794 162.828 43.3368 167.897 43.3368C167.897 43.3368 170.762 42.5683 173.029 41.322C173.029 41.322 190.038 32.272 192.78 32.272C192.78 32.272 195.29 31.8165 201.285 35.1461C201.285 35.1461 207.596 38.7591 216.468 40.1924C216.468 40.1924 225.886 40.9443 230.596 31.0128" stroke="white" stroke-width="5"/>
</g>
<line x1="453.014" y1="32.5" x2="1752.99" y2="39.6822" stroke="white" stroke-width="5"/>
<defs>
<clipPath id="clip0_527_9">
<rect width="511" height="50" fill="white"/>
</clipPath>
</defs>
</svg>
