<svg width="511" height="26" viewBox="0 0 511 26" fill="none" xmlns="http://www.w3.org/2000/svg">
<path d="M233.985 18.7777L510.41 19.2987" stroke="white" stroke-width="1.555"/>
<path d="M0.00146484 23.9594L130.498 23.7534C130.498 23.7534 142.424 3.52444 146.735 1.41444C146.735 1.41444 149.337 -1.02856 152.64 3.65444C152.64 3.65444 162.094 18.4384 163.393 20.0184C163.393 20.0184 166.829 25.1794 171.898 25.1794C171.898 25.1794 174.763 24.7644 177.03 24.0914C177.03 24.0914 194.039 19.2044 196.781 19.2044C196.781 19.2044 199.291 18.9584 205.286 20.7564C205.286 20.7564 211.597 22.7074 220.469 23.4814C220.469 23.4814 229.887 23.8874 234.597 18.5244" stroke="white" stroke-width="1.555"/>
</svg>
