<svg width="139" height="172" viewBox="0 0 139 172" fill="none" xmlns="http://www.w3.org/2000/svg">
<path d="M35.9713 0.382721H41.4563C46.6753 1.79172 50.3373 4.75673 53.1113 8.60973C61.9663 5.27673 76.6163 4.75173 85.3333 8.60973C89.1093 5.52973 91.9853 1.54972 97.6743 0.382721H103.159C119.202 0.458721 125.187 27.6907 108.643 31.9197C112.535 41.7977 110.545 56.7797 105.215 63.4567C120.272 72.3967 133.989 82.6747 138.809 101.851V107.335C139.083 119.733 122.871 122.754 114.128 116.248C114.76 123.669 119.998 121.656 123.726 125.846C137.189 140.972 125.288 169.521 105.901 171.095H100.416C91.9033 168.869 85.3153 164.715 83.2763 156.012C76.4883 158.214 65.0053 157.55 57.2243 156.698C52.6203 162.835 48.5833 169.539 39.3993 171.095H33.9143C13.9423 170.672 0.0942612 137.106 18.1463 123.104C20.4333 121.33 25.5733 121.856 25.0023 116.934C17.4033 121.421 -0.252739 120.676 0.320261 107.335V101.851C5.30326 83.0657 18.0943 72.0907 33.9143 64.1427C29.5223 57.2297 25.9263 42.8847 30.4863 33.2907C15.3453 27.5827 18.6933 1.15672 35.9713 0.382721ZM32.5433 27.1207C36.3603 20.1967 42.1573 15.2527 48.3123 10.6667C37.4023 -5.32828 13.1973 20.4787 32.5433 27.1207ZM90.8183 11.3517C98.2223 14.6887 102.26 21.3917 107.272 27.1207C125.953 19.3807 100.367 -5.57528 90.8183 11.3517ZM94.2463 19.5797C80.7623 8.06773 57.7983 8.55373 44.8843 19.5797C29.4113 32.7897 29.7173 63.2947 51.0543 73.0557C48.9603 68.0457 46.3423 65.8597 46.9403 59.3437C48.9273 37.7077 91.0543 39.9357 92.1893 60.0287C92.5403 66.2267 89.5413 68.2337 88.7613 73.0557C108.548 63.9097 109.766 32.8297 94.2463 19.5797ZM49.6833 58.6577C45.6733 85.8967 94.2553 84.3347 89.4473 57.9727C87.9333 49.6717 79.2933 45.8437 66.8233 47.0027C56.4423 47.9677 50.7183 51.6227 49.6833 58.6577ZM35.9713 68.2567C27.4443 73.5477 0.719262 90.6327 5.80526 109.392C8.10426 117.87 20.5093 114.813 24.3163 109.392C25.8703 92.8917 33.6023 82.5697 42.1413 73.0557C39.5813 71.9587 39.0943 68.7907 35.9713 68.2567ZM102.473 79.2257C109.638 88.3617 113.42 97.3927 114.814 109.392C119.269 115.407 131.201 117.225 133.325 109.392C138.62 89.8637 112.149 74.0687 102.473 68.2567C95.3883 72.6417 98.2713 73.8667 102.473 79.2257ZM46.9403 77.1687C37.1313 84.2717 27.9363 97.9287 29.8013 118.99C47.6543 121.019 57.3623 131.193 57.2243 151.213C64.2143 153.084 74.9153 153.084 81.9053 151.213C81.6563 131.081 91.0673 120.611 109.329 118.99C110.925 97.5127 102.715 85.8397 92.1893 76.4837C82.3743 84.9337 57.7173 84.2507 46.9403 77.1687ZM31.8573 165.611C62.6643 171.519 55.2993 118.558 27.0583 125.161C5.56526 130.186 16.3263 162.632 31.8573 165.611ZM98.3603 164.925C127.727 172.937 133.731 119.03 103.844 125.161C86.7093 128.676 78.2643 159.443 98.3603 164.925Z" fill="#7DC6B7"/>
</svg>
