<svg width="260" height="30" viewBox="0 0 260 30" fill="none" xmlns="http://www.w3.org/2000/svg">
<path d="M0 27.5659L143.792 27.3379C143.792 27.3379 156.933 4.95989 161.683 2.62589C161.683 2.62589 164.549 -0.0771146 168.189 5.10389C168.189 5.10389 178.606 21.4589 180.038 23.2069C180.038 23.2069 183.823 28.9149 189.409 28.9149C189.409 28.9149 192.566 28.4569 195.064 27.7119C195.064 27.7119 213.806 22.3049 216.827 22.3049C216.827 22.3049 219.593 22.0329 226.198 24.0219C226.198 24.0219 233.152 26.1809 242.928 27.0379C242.928 27.0379 253.306 27.4869 258.495 21.5539" stroke="white" stroke-width="2"/>
</svg>
