<svg width="271" height="19" viewBox="0 0 271 19" fill="none" xmlns="http://www.w3.org/2000/svg">
<path d="M0.74 2.95412H4.158C4.788 2.95412 5.326 3.17712 5.772 3.62312C6.219 4.07512 6.442 4.61612 6.442 5.24612C6.442 5.87612 6.219 6.41412 5.772 6.86012C5.326 7.30612 4.788 7.53012 4.158 7.53012H0.74V2.95412ZM4.087 8.27812C4.938 8.27812 5.67 7.97612 6.284 7.37212C6.898 6.76312 7.2 6.03612 7.19 5.19112C7.174 4.36612 6.872 3.66312 6.284 3.08012C5.691 2.50312 4.982 2.21412 4.158 2.21412H0.11C0.036 2.21412 0 2.25112 0 2.32412V8.27812H4.087ZM0.638 13.4911C0.706 13.4911 0.74 13.4541 0.74 13.3811V6.64812H0V13.3811C0 13.4541 0.036 13.4911 0.11 13.4911H0.638ZM6.835 13.4911C6.877 13.4911 6.909 13.4731 6.93 13.4361C6.951 13.3991 6.951 13.3651 6.93 13.3341L3.922 7.82912L3.268 8.18312L6.142 13.4361C6.163 13.4731 6.195 13.4911 6.237 13.4911H6.835ZM13.433 7.38812C14.11 7.38812 14.683 7.59513 15.15 8.01013C15.617 8.41913 15.887 8.95012 15.961 9.60112L10.881 10.0421C10.887 9.28612 11.133 8.65312 11.622 8.14412C12.105 7.64012 12.709 7.38812 13.433 7.38812ZM13.559 13.4911C14.152 13.4911 14.706 13.3471 15.221 13.0581C15.741 12.7691 16.158 12.3761 16.473 11.8771C16.51 11.8141 16.497 11.7611 16.434 11.7191L15.977 11.4591C15.914 11.4231 15.864 11.4361 15.827 11.4991C15.58 11.8871 15.257 12.1921 14.858 12.4121C14.454 12.6381 14.021 12.7511 13.559 12.7511C12.95 12.7511 12.404 12.5651 11.921 12.1921C11.448 11.8241 11.133 11.3541 10.976 10.7821L16.63 10.2861C16.693 10.2811 16.725 10.2471 16.725 10.1831V10.0101C16.725 9.09213 16.407 8.30412 15.772 7.64812C15.131 6.98612 14.36 6.65312 13.457 6.64812C12.527 6.64212 11.742 6.97012 11.102 7.63212C10.456 8.29312 10.133 9.10512 10.133 10.0651C10.133 11.0101 10.469 11.8191 11.141 12.4911C11.808 13.1581 12.614 13.4911 13.559 13.4911ZM24.023 7.46712C24.081 7.41412 24.081 7.36212 24.023 7.30912C23.997 7.28312 23.976 7.26412 23.96 7.25412C23.903 7.20712 23.845 7.16212 23.787 7.12012C23.708 7.06812 23.624 7.01812 23.535 6.97012C23.299 6.84412 23.052 6.75312 22.795 6.69512C22.611 6.65812 22.451 6.63712 22.315 6.63212H22.181H22.055C22.023 6.63212 21.981 6.63412 21.929 6.64012L21.858 6.64812H21.779C21.558 6.67912 21.364 6.72612 21.196 6.78912C20.965 6.88412 20.771 7.01012 20.613 7.16712C20.435 7.34612 20.311 7.56413 20.243 7.82113L20.22 7.91512L20.204 8.01013C20.193 8.08413 20.188 8.14412 20.188 8.19112L20.18 8.28613V8.29313V8.31712V8.32512V8.34912L20.188 8.38812V8.45912L20.204 8.56913C20.214 8.62713 20.233 8.69812 20.259 8.78212C20.264 8.80812 20.275 8.84012 20.291 8.87612L20.338 8.97112C20.359 9.01812 20.393 9.07812 20.44 9.15212L20.503 9.23112C20.524 9.26212 20.545 9.28812 20.566 9.30912C20.718 9.47712 20.915 9.63213 21.157 9.77413C21.314 9.86813 21.522 9.97412 21.779 10.0891L21.858 10.1211L21.921 10.1521L22.07 10.2231L22.378 10.3571C22.839 10.5721 23.16 10.7851 23.338 10.9951C23.443 11.1211 23.512 11.2601 23.543 11.4121L23.551 11.4671C23.556 11.4941 23.559 11.5141 23.559 11.5301V11.5851L23.567 11.6171V11.6011V11.6091V11.6171L23.559 11.6401V11.6801V11.7191C23.559 11.7511 23.556 11.7741 23.551 11.7901L23.543 11.8371L23.535 11.8921C23.477 12.1971 23.307 12.4201 23.023 12.5621C22.908 12.6251 22.766 12.6751 22.598 12.7111C22.419 12.7381 22.27 12.7511 22.149 12.7511L22.094 12.7591H22.063H22.047L21.929 12.7511C21.892 12.7511 21.855 12.7481 21.818 12.7431H21.771L21.724 12.7351C21.619 12.7191 21.498 12.6931 21.362 12.6561C21.173 12.6041 20.989 12.5281 20.81 12.4281C20.737 12.3861 20.669 12.3411 20.606 12.2941C20.558 12.2631 20.516 12.2291 20.48 12.1921C20.427 12.1501 20.377 12.1521 20.33 12.2001L19.952 12.5621C19.894 12.6201 19.894 12.6751 19.952 12.7271C20.01 12.7741 20.073 12.8241 20.141 12.8771C20.23 12.9451 20.33 13.0081 20.44 13.0661C20.671 13.1971 20.913 13.3001 21.165 13.3731C21.338 13.4151 21.498 13.4471 21.645 13.4671L21.708 13.4751H21.779C21.831 13.4811 21.873 13.4831 21.905 13.4831L22.023 13.4911H22.039H22.07H22.102H22.173C22.335 13.4861 22.527 13.4621 22.748 13.4201C22.979 13.3731 23.183 13.3021 23.362 13.2081C23.588 13.0921 23.777 12.9371 23.929 12.7431C24.086 12.5381 24.191 12.3051 24.244 12.0421L24.26 11.9401L24.275 11.8371C24.275 11.8111 24.278 11.7821 24.283 11.7511V11.7111V11.6721V11.6481V11.6171V11.5621L24.275 11.4671C24.275 11.4411 24.273 11.4071 24.268 11.3651L24.244 11.2621C24.191 10.9951 24.071 10.7531 23.882 10.5381C23.735 10.3591 23.54 10.1941 23.299 10.0421C23.131 9.93712 22.924 9.82712 22.677 9.71112L22.378 9.58512L22.228 9.51412L22.141 9.47512L22.063 9.44312C21.831 9.33812 21.648 9.24613 21.511 9.16813C21.333 9.06313 21.194 8.95513 21.094 8.84513L21.054 8.79712L21.015 8.75012L20.984 8.70312L20.96 8.65613L20.936 8.60812L20.921 8.56112L20.905 8.50612C20.9 8.49012 20.897 8.47712 20.897 8.46712L20.881 8.41912V8.34912V8.30912L20.873 8.28613V8.27812V8.29313L20.881 8.23012C20.881 8.20412 20.884 8.16512 20.889 8.11212L20.897 8.05713L20.913 8.00212C20.949 7.86012 21.015 7.74512 21.11 7.65612C21.194 7.56112 21.306 7.48812 21.448 7.43512C21.558 7.38812 21.698 7.35412 21.866 7.33312L21.913 7.32512H21.96C22.002 7.32012 22.041 7.31712 22.078 7.31712H22.181H22.283C22.383 7.32212 22.506 7.33812 22.653 7.36412C22.847 7.40612 23.034 7.47412 23.212 7.56912C23.275 7.60012 23.338 7.64012 23.401 7.68712C23.454 7.71912 23.504 7.75512 23.551 7.79712C23.603 7.83412 23.653 7.83212 23.701 7.78912L24.023 7.46712ZM30.865 12.9951C30.912 13.0581 30.905 13.1081 30.842 13.1451C30.5 13.3761 30.149 13.4911 29.786 13.4911C29.539 13.4911 29.308 13.4361 29.093 13.3261C28.81 13.1841 28.587 12.9691 28.424 12.6801C28.266 12.3861 28.188 12.0531 28.188 11.6801V7.39612H27.235C27.161 7.39612 27.124 7.35912 27.124 7.28512V6.75812C27.124 6.68412 27.161 6.64812 27.235 6.64812H28.188L28.18 4.70212C28.18 4.62912 28.216 4.59212 28.29 4.59212H28.818C28.891 4.59212 28.928 4.62912 28.928 4.70212V6.64812H30.007C30.08 6.64812 30.117 6.68412 30.117 6.75812V7.28512C30.117 7.35912 30.08 7.39612 30.007 7.39612H28.928V11.6801C28.928 12.1681 29.093 12.4961 29.424 12.6641C29.723 12.8171 30.049 12.7771 30.401 12.5461C30.464 12.5091 30.513 12.5171 30.55 12.5701L30.865 12.9951ZM36.919 7.39612C37.654 7.39612 38.284 7.65812 38.809 8.18312C39.334 8.70312 39.597 9.33312 39.597 10.0731C39.597 10.8081 39.334 11.4381 38.809 11.9631C38.284 12.4881 37.654 12.7511 36.919 12.7511C36.179 12.7511 35.546 12.4881 35.021 11.9631C34.502 11.4381 34.242 10.8081 34.242 10.0731C34.242 9.33312 34.502 8.70312 35.021 8.18312C35.546 7.65812 36.179 7.39612 36.919 7.39612ZM36.919 13.4911C37.859 13.4911 38.662 13.1581 39.329 12.4911C40.001 11.8191 40.337 11.0131 40.337 10.0731C40.337 9.12812 40.001 8.32212 39.329 7.65612C38.662 6.98912 37.859 6.65512 36.919 6.65512C35.974 6.65512 35.168 6.98912 34.502 7.65612C33.835 8.32212 33.502 9.12812 33.502 10.0731C33.502 11.0131 33.835 11.8191 34.502 12.4911C35.168 13.1581 35.974 13.4911 36.919 13.4911ZM47.25 6.71112C47.323 6.72612 47.352 6.77112 47.336 6.84412L47.234 7.35612C47.218 7.42512 47.176 7.45312 47.108 7.44312C47.014 7.42712 46.916 7.41912 46.817 7.41912C46.276 7.41912 45.814 7.61112 45.431 7.99412C45.047 8.37712 44.856 8.84013 44.856 9.38013V13.3811C44.856 13.4541 44.822 13.4911 44.753 13.4911H44.226C44.152 13.4911 44.115 13.4541 44.115 13.3811V6.74212C44.115 6.66912 44.152 6.63212 44.226 6.63212H44.753C44.822 6.63212 44.856 6.66912 44.856 6.74212V7.53012C45.391 6.96312 46.045 6.67912 46.817 6.67912C46.964 6.67912 47.108 6.69012 47.25 6.71112ZM50.823 13.4911C50.897 13.4911 50.934 13.4541 50.934 13.3811V6.77312C50.934 6.70012 50.897 6.66312 50.823 6.66312H50.296C50.227 6.66312 50.193 6.70012 50.193 6.77312V13.3811C50.193 13.4541 50.227 13.4911 50.296 13.4911H50.823ZM51.099 4.47412C51.099 4.32712 51.046 4.20112 50.941 4.09612C50.836 3.99112 50.71 3.93812 50.563 3.93812C50.411 3.93812 50.285 3.99112 50.185 4.09612C50.08 4.20112 50.028 4.32712 50.028 4.47412C50.028 4.62112 50.08 4.74712 50.185 4.85212C50.285 4.95712 50.411 5.00912 50.563 5.00912C50.71 5.00912 50.836 4.95712 50.941 4.85212C51.046 4.74712 51.099 4.62112 51.099 4.47412ZM60.831 13.3811C60.831 13.4541 60.794 13.4911 60.721 13.4911H60.193C60.119 13.4911 60.083 13.4541 60.083 13.3811V13.1211C60.088 12.6591 60.091 12.0811 60.091 11.3881V11.1921V10.9791V10.5461C60.096 10.2101 60.099 9.90013 60.099 9.61613V9.37212C60.099 9.29412 60.096 9.22312 60.091 9.16012C60.075 9.01812 60.043 8.87912 59.996 8.74212C59.902 8.45912 59.752 8.21012 59.547 7.99412C59.348 7.78412 59.106 7.62412 58.823 7.51412C58.691 7.46712 58.552 7.43212 58.405 7.41112L58.35 7.40412L58.303 7.39612L58.256 7.38812H58.201H58.138H58.114H58.09H58.035H57.988C57.715 7.40412 57.46 7.47212 57.224 7.59312C57.004 7.70312 56.812 7.84712 56.649 8.02612C56.513 8.17312 56.4 8.33813 56.31 8.52213C56.242 8.66913 56.19 8.81613 56.153 8.96313C56.142 9.02113 56.135 9.07812 56.129 9.13612L56.122 9.20712L56.114 9.26213V9.38013L56.106 9.55312V13.3811C56.106 13.4541 56.069 13.4911 55.995 13.4911H55.468C55.4 13.4911 55.365 13.4541 55.365 13.3811V6.73412C55.365 6.66112 55.4 6.62412 55.468 6.62412H55.995C56.069 6.62412 56.106 6.66112 56.106 6.73412V7.63212L56.153 7.56912C56.374 7.33312 56.626 7.13812 56.909 6.98612C57.235 6.82312 57.578 6.72913 57.941 6.70312L58.012 6.69512H58.082H58.153H58.216H58.287L58.358 6.70312L58.437 6.71112L58.508 6.71812C58.702 6.74512 58.888 6.79212 59.067 6.86012C59.45 7.00212 59.781 7.21712 60.059 7.50612C60.343 7.79512 60.547 8.13112 60.673 8.51412C60.736 8.69812 60.778 8.88713 60.799 9.08113C60.81 9.17013 60.818 9.26513 60.823 9.36413V9.61613V10.0891V10.5461V10.7661V10.9791V11.3881C60.828 12.0811 60.831 12.6591 60.831 13.1211V13.3811ZM67.657 7.38012C68.397 7.38012 69.03 7.64212 69.555 8.16712C70.08 8.69212 70.342 9.32812 70.342 10.0731C70.342 10.8141 70.08 11.4461 69.555 11.9711C69.03 12.4961 68.397 12.7591 67.657 12.7591C66.917 12.7591 66.281 12.4961 65.751 11.9711C65.226 11.4461 64.964 10.8141 64.964 10.0731C64.964 9.32812 65.226 8.69212 65.751 8.16712C66.281 7.64212 66.917 7.38012 67.657 7.38012ZM70.39 13.6571C70.39 14.2761 70.206 14.8331 69.838 15.3261C69.471 15.8301 68.993 16.1611 68.405 16.3181C67.827 16.4761 67.26 16.4441 66.704 16.2241C66.158 16.0091 65.73 15.6541 65.42 15.1611C65.384 15.0981 65.334 15.0851 65.271 15.1211L64.814 15.3891C64.751 15.4261 64.738 15.4761 64.775 15.5391C65.09 16.0431 65.507 16.4391 66.027 16.7281C66.546 17.0171 67.103 17.1611 67.696 17.1611C68.641 17.1611 69.45 16.8251 70.122 16.1531C70.794 15.4811 71.13 14.6721 71.13 13.7271V6.75812C71.13 6.68412 71.093 6.64812 71.02 6.64812H70.492C70.424 6.64812 70.39 6.68412 70.39 6.75812V7.98612C70.295 7.86612 70.193 7.75012 70.082 7.64012C69.41 6.96812 68.602 6.63212 67.657 6.63212C66.707 6.63212 65.895 6.96812 65.223 7.64012C64.557 8.31212 64.223 9.12312 64.223 10.0731C64.223 11.0181 64.557 11.8271 65.223 12.4991C65.895 13.1711 66.707 13.5071 67.657 13.5071C68.602 13.5071 69.41 13.1711 70.082 12.4991C70.193 12.3891 70.295 12.2731 70.39 12.1521V13.6571ZM81.293 13.4911C81.22 13.4911 81.183 13.4541 81.183 13.3811V2.30012C81.183 2.23212 81.22 2.19812 81.293 2.19812H81.821C81.889 2.19812 81.923 2.23212 81.923 2.30012V13.3811C81.923 13.4541 81.889 13.4911 81.821 13.4911H81.293ZM86.418 13.4911C86.491 13.4911 86.528 13.4541 86.528 13.3811V6.77312C86.528 6.70012 86.491 6.66312 86.418 6.66312H85.89C85.822 6.66312 85.788 6.70012 85.788 6.77312V13.3811C85.788 13.4541 85.822 13.4911 85.89 13.4911H86.418ZM86.694 4.47412C86.694 4.32712 86.641 4.20112 86.536 4.09612C86.431 3.99112 86.305 3.93812 86.158 3.93812C86.006 3.93812 85.88 3.99112 85.78 4.09612C85.675 4.20112 85.623 4.32712 85.623 4.47412C85.623 4.62112 85.675 4.74712 85.78 4.85212C85.88 4.95712 86.006 5.00912 86.158 5.00912C86.305 5.00912 86.431 4.95712 86.536 4.85212C86.641 4.74712 86.694 4.62112 86.694 4.47412ZM101.127 13.3651C101.127 13.4391 101.09 13.4751 101.017 13.4751H100.489C100.416 13.4751 100.379 13.4391 100.379 13.3651V13.1051C100.384 12.6431 100.387 12.0681 100.387 11.3811V11.1761V10.9711V10.5381C100.392 10.2021 100.395 9.89213 100.395 9.60913V9.36413C100.395 9.28613 100.389 9.21512 100.379 9.15212C100.368 9.01012 100.34 8.87113 100.292 8.73413C100.198 8.45613 100.048 8.21012 99.844 7.99412C99.644 7.78412 99.402 7.62412 99.119 7.51412C98.988 7.46112 98.851 7.42512 98.709 7.40412H98.654L98.607 7.39612L98.552 7.38812H98.497H98.434H98.426H98.418H98.394H98.339H98.284C98.016 7.40412 97.762 7.47212 97.52 7.59312C97.305 7.70312 97.116 7.84512 96.953 8.01812C96.817 8.17012 96.704 8.33813 96.615 8.52213C96.546 8.66413 96.497 8.81113 96.465 8.96313C96.449 9.01513 96.439 9.07312 96.434 9.13612C96.434 9.15712 96.431 9.17812 96.426 9.19912V9.25412C96.42 9.30712 96.418 9.34612 96.418 9.37212L96.41 9.60112V9.60913V10.0811V10.5381V10.7581L96.418 10.9711V11.3811V13.1051V13.3651C96.423 13.4391 96.389 13.4751 96.315 13.4751H95.788C95.714 13.4751 95.677 13.4391 95.677 13.3651V13.1051C95.677 12.6431 95.68 12.0681 95.685 11.3811V10.5381V10.0811V9.60913L95.693 9.36413C95.688 9.28613 95.683 9.21512 95.677 9.15212C95.662 9.01012 95.633 8.87113 95.591 8.73413C95.496 8.45613 95.347 8.21012 95.142 7.99412C94.942 7.78412 94.701 7.62412 94.417 7.51412C94.286 7.46112 94.147 7.42512 94 7.40412H93.953L93.898 7.39612L93.85 7.38812H93.795H93.732H93.717H93.685H93.583C93.315 7.40412 93.06 7.47212 92.819 7.59312C92.603 7.70312 92.414 7.84512 92.252 8.01812C92.11 8.17012 91.997 8.33813 91.913 8.52213C91.839 8.66413 91.787 8.81113 91.756 8.96313C91.745 9.01513 91.737 9.07312 91.732 9.13612L91.724 9.19912L91.716 9.25412V9.37212L91.7 9.69512V13.3651C91.7 13.4391 91.664 13.4751 91.59 13.4751H91.07C90.997 13.4751 90.96 13.4391 90.96 13.3651V6.73412C90.96 6.66112 90.997 6.62412 91.07 6.62412H91.59C91.664 6.62412 91.7 6.66112 91.7 6.73412V7.64012L91.756 7.56912C91.971 7.33312 92.223 7.13812 92.512 6.98612C92.832 6.82312 93.173 6.72913 93.535 6.70312L93.606 6.69512H93.677H93.709H93.748H93.811H93.882L93.953 6.70312L94.032 6.71112L94.102 6.71812C94.297 6.74512 94.483 6.79212 94.662 6.86012C95.045 7.00212 95.373 7.21712 95.646 7.50612C95.819 7.68412 95.966 7.88413 96.087 8.10413C96.192 7.91013 96.318 7.73212 96.465 7.56912C96.68 7.33312 96.93 7.13812 97.213 6.98612C97.533 6.82312 97.875 6.72913 98.237 6.70312L98.308 6.69512H98.379H98.418H98.457H98.52H98.583L98.662 6.70312L98.733 6.71112L98.804 6.71812C98.998 6.74512 99.185 6.79212 99.363 6.86012C99.746 7.00212 100.077 7.21712 100.355 7.50612C100.634 7.79512 100.838 8.12812 100.97 8.50612C101.033 8.69012 101.075 8.87912 101.096 9.07312C101.106 9.16212 101.111 9.26013 101.111 9.36413V9.60913C101.111 9.83413 101.114 10.1441 101.119 10.5381V10.7581V10.9711V11.3811C101.119 12.0681 101.122 12.6431 101.127 13.1051V13.3651ZM108.638 12.7511C109.379 12.7511 110.011 12.4881 110.536 11.9631C111.061 11.4381 111.324 10.8081 111.324 10.0731C111.324 9.33312 111.061 8.70013 110.536 8.17513C110.011 7.65013 109.379 7.38812 108.638 7.38812C107.903 7.38812 107.273 7.65013 106.748 8.17513C106.223 8.70013 105.961 9.33312 105.961 10.0731C105.961 10.8081 106.223 11.4381 106.748 11.9631C107.273 12.4881 107.903 12.7511 108.638 12.7511ZM109.008 6.67112C109.796 6.75012 110.476 7.07312 111.048 7.64012C111.62 8.20712 111.951 8.88412 112.04 9.67212C112.098 10.1761 112.048 10.6671 111.891 11.1441C111.744 11.5961 111.507 12.0001 111.182 12.3571C110.862 12.7141 110.486 12.9901 110.056 13.1841C109.61 13.3891 109.137 13.4911 108.638 13.4911C108.108 13.4911 107.607 13.3731 107.134 13.1371C106.672 12.9111 106.281 12.5961 105.961 12.1921V13.3811C105.961 13.4541 105.924 13.4911 105.85 13.4911H105.331C105.257 13.4911 105.22 13.4541 105.22 13.3811V2.31612C105.22 2.24312 105.257 2.20612 105.331 2.20612H105.85C105.924 2.20612 105.961 2.24312 105.961 2.31612V7.94712C106.318 7.49512 106.759 7.15712 107.284 6.93112C107.83 6.69512 108.405 6.60812 109.008 6.67112ZM119.3 7.46712C119.357 7.41412 119.357 7.36212 119.3 7.30912C119.273 7.28312 119.252 7.26412 119.237 7.25412C119.179 7.20712 119.121 7.16212 119.063 7.12012C118.985 7.06812 118.9 7.01812 118.811 6.97012C118.575 6.84412 118.328 6.75312 118.071 6.69512C117.887 6.65812 117.727 6.63712 117.591 6.63212H117.457H117.331C117.299 6.63212 117.257 6.63412 117.205 6.64012L117.134 6.64812H117.055C116.835 6.67912 116.64 6.72612 116.472 6.78912C116.241 6.88412 116.047 7.01012 115.89 7.16712C115.711 7.34612 115.588 7.56413 115.519 7.82113L115.496 7.91512L115.48 8.01013C115.469 8.08413 115.464 8.14412 115.464 8.19112L115.456 8.28613V8.29313V8.31712V8.32512V8.34912L115.464 8.38812V8.45912L115.48 8.56913C115.49 8.62713 115.509 8.69812 115.535 8.78212C115.54 8.80812 115.551 8.84012 115.567 8.87612L115.614 8.97112C115.635 9.01812 115.669 9.07812 115.716 9.15212L115.779 9.23112C115.8 9.26212 115.821 9.28812 115.842 9.30912C115.995 9.47712 116.191 9.63213 116.433 9.77413C116.59 9.86813 116.798 9.97412 117.055 10.0891L117.134 10.1211L117.197 10.1521L117.346 10.2231L117.654 10.3571C118.116 10.5721 118.436 10.7851 118.614 10.9951C118.719 11.1211 118.788 11.2601 118.819 11.4121L118.827 11.4671C118.832 11.4941 118.835 11.5141 118.835 11.5301V11.5851L118.843 11.6171V11.6011V11.6091V11.6171L118.835 11.6401V11.6801V11.7191C118.835 11.7511 118.832 11.7741 118.827 11.7901L118.819 11.8371L118.811 11.8921C118.753 12.1971 118.583 12.4201 118.299 12.5621C118.184 12.6251 118.042 12.6751 117.874 12.7111C117.696 12.7381 117.546 12.7511 117.425 12.7511L117.37 12.7591H117.339H117.323L117.205 12.7511C117.168 12.7511 117.131 12.7481 117.094 12.7431H117.047L117 12.7351C116.895 12.7191 116.774 12.6931 116.638 12.6561C116.449 12.6041 116.265 12.5281 116.086 12.4281C116.013 12.3861 115.945 12.3411 115.882 12.2941C115.834 12.2631 115.792 12.2291 115.756 12.1921C115.703 12.1501 115.653 12.1521 115.606 12.2001L115.228 12.5621C115.17 12.6201 115.17 12.6751 115.228 12.7271C115.286 12.7741 115.349 12.8241 115.417 12.8771C115.506 12.9451 115.606 13.0081 115.716 13.0661C115.947 13.1971 116.189 13.3001 116.441 13.3731C116.614 13.4151 116.774 13.4471 116.921 13.4671L116.984 13.4751H117.055C117.107 13.4811 117.15 13.4831 117.181 13.4831L117.299 13.4911H117.315H117.346H117.378H117.449C117.612 13.4861 117.803 13.4621 118.024 13.4201C118.255 13.3731 118.459 13.3021 118.638 13.2081C118.864 13.0921 119.053 12.9371 119.205 12.7431C119.363 12.5381 119.468 12.3051 119.52 12.0421L119.536 11.9401L119.552 11.8371C119.552 11.8111 119.554 11.7821 119.559 11.7511V11.7111V11.6721V11.6481V11.6171V11.5621L119.552 11.4671C119.552 11.4411 119.549 11.4071 119.544 11.3651L119.52 11.2621C119.468 10.9951 119.347 10.7531 119.158 10.5381C119.011 10.3591 118.816 10.1941 118.575 10.0421C118.407 9.93712 118.2 9.82712 117.953 9.71112L117.654 9.58512L117.504 9.51412L117.417 9.47512L117.339 9.44312C117.107 9.33812 116.924 9.24613 116.787 9.16813C116.609 9.06313 116.47 8.95513 116.37 8.84513L116.331 8.79712L116.291 8.75012L116.26 8.70312L116.236 8.65613L116.212 8.60812L116.197 8.56112L116.181 8.50612C116.176 8.49012 116.173 8.47712 116.173 8.46712L116.157 8.41912V8.34912V8.30912L116.149 8.28613V8.27812V8.29313L116.157 8.23012C116.157 8.20412 116.16 8.16512 116.165 8.11212L116.173 8.05713L116.189 8.00212C116.225 7.86012 116.291 7.74512 116.386 7.65612C116.47 7.56112 116.583 7.48812 116.724 7.43512C116.835 7.38812 116.974 7.35412 117.142 7.33312L117.189 7.32512H117.236C117.278 7.32012 117.318 7.31712 117.354 7.31712H117.457H117.559C117.659 7.32212 117.782 7.33812 117.929 7.36412C118.123 7.40612 118.31 7.47412 118.488 7.56912C118.551 7.60012 118.614 7.64012 118.677 7.68712C118.73 7.71912 118.78 7.75512 118.827 7.79712C118.879 7.83412 118.929 7.83212 118.977 7.78912L119.3 7.46712ZM145.493 7.16712C145.981 7.16712 146.399 6.99412 146.745 6.64812C147.092 6.30112 147.265 5.88612 147.265 5.40312C147.265 4.91512 147.092 4.49812 146.745 4.15112C146.399 3.81012 145.981 3.63912 145.493 3.63912H142.682V7.16712H145.493ZM148.848 13.3421C148.864 13.3731 148.861 13.4071 148.84 13.4441C148.824 13.4751 148.795 13.4911 148.753 13.4911H147.352C147.31 13.4911 147.281 13.4731 147.265 13.4361L144.619 8.60812L144.627 8.60112H142.682V13.3651C142.682 13.4331 142.647 13.4671 142.579 13.4671H141.351C141.282 13.4671 141.248 13.4331 141.248 13.3651V2.30812C141.248 2.24012 141.282 2.20612 141.351 2.20612H145.493C146.396 2.20612 147.163 2.52912 147.793 3.17412C148.423 3.82012 148.724 4.59512 148.698 5.49812C148.672 6.22812 148.423 6.87312 147.95 7.43512C147.483 7.98112 146.897 8.33812 146.194 8.50612L148.848 13.3421ZM157.225 9.23112C157.11 8.77912 156.871 8.41912 156.509 8.15212C156.146 7.87912 155.713 7.74212 155.209 7.74212C154.679 7.74212 154.222 7.91513 153.839 8.26213C153.456 8.60313 153.225 9.04412 153.146 9.58512L157.225 9.23112ZM155.233 6.41912C156.173 6.42412 156.973 6.77112 157.635 7.45912C158.296 8.14112 158.627 8.95512 158.627 9.90012V10.3491C158.627 10.4121 158.596 10.4461 158.533 10.4511L153.335 10.9001C153.513 11.2781 153.781 11.5831 154.138 11.8141C154.5 12.0451 154.897 12.1601 155.327 12.1601C155.705 12.1601 156.06 12.0711 156.391 11.8921C156.726 11.7091 156.994 11.4591 157.194 11.1441C157.23 11.0871 157.278 11.0731 157.336 11.1051L158.304 11.6721C158.367 11.7031 158.38 11.7511 158.344 11.8141C158.023 12.3331 157.593 12.7431 157.052 13.0421C156.517 13.3421 155.942 13.4911 155.327 13.4911C154.356 13.4911 153.524 13.1451 152.831 12.4521C152.138 11.7641 151.791 10.9321 151.791 9.95512C151.791 8.95812 152.125 8.11812 152.792 7.43512C153.458 6.75312 154.272 6.41412 155.233 6.41912ZM166.201 12.1601C166.81 12.1601 167.333 11.9451 167.768 11.5141C168.199 11.0841 168.414 10.5641 168.414 9.95512C168.414 9.34612 168.199 8.82412 167.768 8.38812C167.333 7.95812 166.81 7.74212 166.201 7.74212C165.603 7.74212 165.088 7.95212 164.658 8.37212C164.232 8.79212 164.012 9.30112 163.996 9.90012V10.0021C164.012 10.6011 164.232 11.1101 164.658 11.5301C165.088 11.9501 165.603 12.1601 166.201 12.1601ZM166.351 6.41912C167.249 6.45612 168.023 6.79212 168.674 7.42712C169.325 8.06212 169.679 8.82612 169.737 9.71912C169.769 10.2231 169.698 10.7091 169.525 11.1761C169.357 11.6271 169.107 12.0261 168.776 12.3731C168.078 13.1181 167.22 13.4911 166.201 13.4911C165.377 13.4911 164.642 13.2311 163.996 12.7111V13.3651C163.996 13.4331 163.962 13.4671 163.894 13.4671H162.752C162.684 13.4671 162.649 13.4331 162.649 13.3651V2.29212C162.649 2.22412 162.684 2.19012 162.752 2.19012H163.894C163.962 2.19012 163.996 2.22412 163.996 2.29212V7.19112C164.684 6.64012 165.469 6.38212 166.351 6.41912ZM178.012 6.43512C178.012 6.36712 178.046 6.33212 178.115 6.33212H179.257C179.325 6.33212 179.359 6.36712 179.359 6.43512V13.3341C179.359 13.4021 179.325 13.4361 179.257 13.4361H178.115C178.046 13.4361 178.012 13.4021 178.012 13.3341V12.9561C177.881 13.0501 177.752 13.1291 177.626 13.1921C177.28 13.3651 176.915 13.4621 176.532 13.4831L176.461 13.4911H176.421H176.406H176.366H176.248L176.162 13.4831L176.083 13.4751L176.004 13.4671L175.933 13.4601C175.728 13.4231 175.529 13.3681 175.335 13.2941C174.941 13.1421 174.597 12.9061 174.303 12.5851C174.009 12.2651 173.799 11.9031 173.673 11.4991C173.615 11.2991 173.579 11.0941 173.563 10.8841C173.557 10.7951 173.552 10.7011 173.547 10.6011V10.4831V10.3731V9.48312V9.27012L173.539 9.06512V8.68713C173.534 8.02613 173.531 7.47712 173.531 7.04112V6.48212C173.531 6.40912 173.565 6.37212 173.634 6.37212H174.76C174.828 6.37212 174.862 6.40912 174.862 6.48212L174.854 7.04112C174.854 7.47712 174.852 8.02613 174.846 8.68713V9.48312L174.839 9.69512V9.91612V10.3731V10.4911V10.6011V10.7901C174.849 10.9051 174.87 11.0181 174.902 11.1291C174.965 11.3541 175.075 11.5571 175.232 11.7351C175.395 11.9131 175.584 12.0471 175.799 12.1371C175.91 12.1791 176.02 12.2101 176.13 12.2311L176.177 12.2391L176.217 12.2471H176.288L176.39 12.2551H176.429H176.469C176.899 12.2391 177.261 12.0761 177.556 11.7661C177.671 11.6511 177.765 11.5171 177.839 11.3651C177.891 11.2551 177.934 11.1361 177.965 11.0101C177.976 10.9531 177.983 10.9051 177.989 10.8691L177.997 10.8451V10.8211V10.7821L178.004 10.6641L178.012 10.5771V6.43512ZM184.862 6.41912C184.93 6.41912 184.964 6.45312 184.964 6.52212V13.3891C184.964 13.4571 184.93 13.4911 184.862 13.4911H183.744C183.675 13.4911 183.641 13.4571 183.641 13.3891V6.52212C183.641 6.45312 183.675 6.41912 183.744 6.41912H184.862ZM184.303 5.12012C184.093 5.12012 183.914 5.04612 183.767 4.89912C183.615 4.74712 183.539 4.56612 183.539 4.35612C183.539 4.14612 183.615 3.96712 183.767 3.82012C183.914 3.67312 184.093 3.60012 184.303 3.60012C184.513 3.60012 184.691 3.67312 184.838 3.82012C184.985 3.96712 185.059 4.14612 185.059 4.35612C185.059 4.56612 184.985 4.74712 184.838 4.89912C184.691 5.04612 184.513 5.12012 184.303 5.12012ZM189.191 13.4911C189.123 13.4911 189.089 13.4571 189.089 13.3891V2.29212C189.089 2.22412 189.123 2.19012 189.191 2.19012H190.341C190.409 2.19012 190.444 2.22412 190.444 2.29212V13.3891C190.444 13.4571 190.409 13.4911 190.341 13.4911H189.191ZM199.609 9.90812C199.593 9.30912 199.372 8.80013 198.947 8.38013C198.516 7.96013 198.002 7.75012 197.403 7.75012C196.794 7.75012 196.275 7.96512 195.844 8.39612C195.414 8.82612 195.198 9.34612 195.198 9.95512C195.198 10.5641 195.414 11.0871 195.844 11.5221C196.275 11.9531 196.794 12.1681 197.403 12.1681C198.002 12.1681 198.516 11.9581 198.947 11.5381C199.372 11.1181 199.593 10.6091 199.609 10.0101V9.90812ZM199.609 2.30812C199.609 2.24012 199.643 2.20612 199.711 2.20612H200.853C200.921 2.20612 200.955 2.24012 200.955 2.30812V13.3731C200.955 13.4411 200.921 13.4751 200.853 13.4751H199.711C199.643 13.4751 199.609 13.4411 199.609 13.3731V12.7191C198.963 13.2341 198.228 13.4911 197.403 13.4911C196.905 13.4911 196.43 13.3911 195.978 13.1921C195.542 12.9981 195.162 12.7271 194.836 12.3811C194.133 11.6351 193.812 10.7511 193.875 9.72713C193.933 8.83413 194.287 8.07012 194.938 7.43512C195.589 6.80012 196.364 6.46412 197.262 6.42712C198.138 6.39012 198.921 6.64812 199.609 7.19912V2.30812ZM206.458 6.41912C206.526 6.41912 206.561 6.45312 206.561 6.52212V13.3891C206.561 13.4571 206.526 13.4911 206.458 13.4911H205.34C205.272 13.4911 205.237 13.4571 205.237 13.3891V6.52212C205.237 6.45312 205.272 6.41912 205.34 6.41912H206.458ZM205.899 5.12012C205.689 5.12012 205.51 5.04612 205.363 4.89912C205.211 4.74712 205.135 4.56612 205.135 4.35612C205.135 4.14612 205.211 3.96712 205.363 3.82012C205.51 3.67312 205.689 3.60012 205.899 3.60012C206.109 3.60012 206.287 3.67312 206.435 3.82012C206.581 3.96712 206.655 4.14612 206.655 4.35612C206.655 4.56612 206.581 4.74712 206.435 4.89912C206.287 5.04612 206.109 5.12012 205.899 5.12012ZM216.356 11.1841C216.361 11.8351 216.363 12.3781 216.363 12.8141L216.371 13.3731C216.371 13.4411 216.337 13.4751 216.269 13.4751H215.135C215.067 13.4751 215.032 13.4411 215.032 13.3731L215.04 12.8141C215.04 12.3781 215.043 11.8351 215.048 11.1841C215.048 11.0101 215.051 10.7481 215.056 10.3961V10.1831V9.96313V9.51412V9.28613L215.048 9.12012C215.038 9.00512 215.017 8.89512 214.985 8.79012C214.912 8.56912 214.793 8.37212 214.631 8.19912C214.473 8.03112 214.282 7.90513 214.056 7.82113C213.956 7.77913 213.848 7.75012 213.733 7.73412L213.686 7.72612C213.67 7.72112 213.659 7.71912 213.654 7.71912H213.631H213.615H213.568L213.513 7.71112H213.497H213.481H213.434L213.394 7.71912C212.974 7.73412 212.62 7.90013 212.331 8.21513C212.216 8.33013 212.124 8.46212 212.056 8.60812C211.998 8.72412 211.956 8.84213 211.93 8.96313C211.914 9.02113 211.903 9.06513 211.898 9.09713V9.12813V9.15212L211.89 9.19112C211.89 9.23812 211.887 9.27512 211.882 9.30112V9.39612V13.3891C211.882 13.4571 211.848 13.4911 211.78 13.4911H210.63C210.562 13.4911 210.528 13.4571 210.528 13.3891V6.47412C210.528 6.40612 210.562 6.37212 210.63 6.37212H211.78C211.848 6.37212 211.882 6.40612 211.882 6.47412V7.01012C212.003 6.92112 212.121 6.84712 212.237 6.78912C212.573 6.61612 212.932 6.51412 213.316 6.48212L213.387 6.47412H213.457H213.497H213.528H213.544H213.599H213.67L213.709 6.48212H213.749C213.775 6.48212 213.801 6.48512 213.828 6.49012L213.906 6.49812C214.111 6.52912 214.308 6.57912 214.497 6.64812C214.901 6.79512 215.248 7.02012 215.536 7.32512C215.836 7.62912 216.054 7.98113 216.19 8.38013C216.258 8.57413 216.303 8.77413 216.324 8.97913C216.34 9.07813 216.348 9.18113 216.348 9.28613V9.51412V9.96313V10.1831L216.356 10.3961V11.1841ZM223.347 12.1681C223.956 12.1681 224.478 11.9531 224.914 11.5221C225.344 11.0871 225.56 10.5641 225.56 9.95512C225.56 9.34612 225.344 8.82412 224.914 8.38812C224.478 7.95812 223.956 7.74212 223.347 7.74212C222.733 7.74212 222.21 7.95812 221.78 8.38812C221.344 8.82412 221.126 9.34612 221.126 9.95512C221.126 10.5641 221.344 11.0871 221.78 11.5221C222.21 11.9531 222.733 12.1681 223.347 12.1681ZM225.599 6.49812C225.599 6.43012 225.633 6.39512 225.702 6.39512H226.828C226.896 6.39512 226.93 6.43012 226.93 6.49812V13.3971C226.93 14.3731 226.584 15.2081 225.891 15.9011C225.198 16.5941 224.363 16.9411 223.386 16.9411C222.772 16.9411 222.194 16.7911 221.654 16.4921C221.118 16.1871 220.69 15.7751 220.37 15.2551C220.333 15.1971 220.344 15.1501 220.401 15.1131L221.378 14.5541C221.436 14.5181 221.483 14.5281 221.52 14.5861C221.782 15.0001 222.142 15.2951 222.599 15.4681C223.071 15.6461 223.549 15.6621 224.032 15.5151C224.499 15.3731 224.88 15.0981 225.174 14.6881C225.457 14.2841 225.599 13.8321 225.599 13.3341V12.6881C224.943 13.2291 224.192 13.4991 223.347 13.4991C222.848 13.4991 222.37 13.3991 221.914 13.2001C221.478 13.0061 221.095 12.7331 220.764 12.3811C220.06 11.6351 219.743 10.7481 219.811 9.71912C219.869 8.82112 220.226 8.05212 220.882 7.41112C221.543 6.77612 222.326 6.44312 223.229 6.41112C224.121 6.38012 224.911 6.65012 225.599 7.22212V6.49812ZM237.259 13.4911C237.19 13.4911 237.156 13.4571 237.156 13.3891V2.29212C237.156 2.22412 237.19 2.19012 237.259 2.19012H238.409C238.477 2.19012 238.511 2.22412 238.511 2.29212V13.3891C238.511 13.4571 238.477 13.4911 238.409 13.4911H237.259ZM244.014 6.41912C244.082 6.41912 244.116 6.45312 244.116 6.52212V13.3891C244.116 13.4571 244.082 13.4911 244.014 13.4911H242.896C242.827 13.4911 242.793 13.4571 242.793 13.3891V6.52212C242.793 6.45312 242.827 6.41912 242.896 6.41912H244.014ZM243.455 5.12012C243.245 5.12012 243.066 5.04612 242.919 4.89912C242.767 4.74712 242.691 4.56612 242.691 4.35612C242.691 4.14612 242.767 3.96712 242.919 3.82012C243.066 3.67312 243.245 3.60012 243.455 3.60012C243.665 3.60012 243.843 3.67312 243.99 3.82012C244.137 3.96712 244.211 4.14612 244.211 4.35612C244.211 4.56612 244.137 4.74712 243.99 4.89912C243.843 5.04612 243.665 5.12012 243.455 5.12012ZM252.037 6.41112C252.053 6.36912 252.084 6.34812 252.131 6.34812H253.352C253.389 6.34812 253.418 6.36112 253.439 6.38812C253.46 6.41912 253.462 6.45112 253.446 6.48212L250.887 13.3971C250.871 13.4441 250.837 13.4671 250.785 13.4671H249.887C249.84 13.4671 249.808 13.4441 249.792 13.3971L247.225 6.48212C247.214 6.45112 247.22 6.41912 247.241 6.38812C247.257 6.36112 247.283 6.34812 247.32 6.34812H248.54C248.593 6.34812 248.627 6.36912 248.643 6.41112L250.336 10.9871L252.037 6.41112ZM261.399 9.23112C261.283 8.77912 261.044 8.41912 260.682 8.15212C260.32 7.87912 259.887 7.74212 259.383 7.74212C258.852 7.74212 258.395 7.91513 258.012 8.26213C257.629 8.60313 257.398 9.04412 257.319 9.58512L261.399 9.23112ZM259.406 6.41912C260.346 6.42412 261.147 6.77112 261.808 7.45912C262.47 8.14112 262.8 8.95512 262.8 9.90012V10.3491C262.8 10.4121 262.769 10.4461 262.706 10.4511L257.508 10.9001C257.687 11.2781 257.954 11.5831 258.312 11.8141C258.674 12.0451 259.07 12.1601 259.501 12.1601C259.879 12.1601 260.233 12.0711 260.564 11.8921C260.9 11.7091 261.168 11.4591 261.367 11.1441C261.404 11.0871 261.451 11.0731 261.509 11.1051L262.478 11.6721C262.541 11.7031 262.554 11.7511 262.517 11.8141C262.197 12.3331 261.766 12.7431 261.225 13.0421C260.69 13.3421 260.115 13.4911 259.501 13.4911C258.529 13.4911 257.697 13.1451 257.004 12.4521C256.311 11.7641 255.965 10.9321 255.965 9.95512C255.965 8.95812 256.298 8.11812 256.965 7.43512C257.632 6.75312 258.445 6.41412 259.406 6.41912ZM270.768 11.3571V11.4121V11.4831V11.5541V11.5771L270.76 11.5931V11.6401L270.745 11.7591L270.729 11.8771C270.671 12.1711 270.553 12.4331 270.375 12.6641C270.206 12.8851 269.997 13.0581 269.745 13.1841C269.55 13.2841 269.33 13.3631 269.083 13.4201C268.857 13.4621 268.658 13.4861 268.485 13.4911H268.414H268.382H268.343H268.327L268.217 13.4831H268.091C268.054 13.4781 268.007 13.4731 267.949 13.4671C267.791 13.4471 267.623 13.4121 267.445 13.3651C267.182 13.2971 266.933 13.1951 266.697 13.0581C266.576 12.9901 266.463 12.9161 266.358 12.8371C266.285 12.7851 266.219 12.7301 266.161 12.6721C266.109 12.6251 266.109 12.5751 266.161 12.5221L266.98 11.7431C267.022 11.7061 267.067 11.7031 267.114 11.7351C267.156 11.7721 267.196 11.8031 267.232 11.8291C267.28 11.8611 267.319 11.8871 267.35 11.9081C267.497 11.9921 267.65 12.0551 267.807 12.0971L267.878 12.1211L267.949 12.1371L267.988 12.1441L268.028 12.1521C268.059 12.1581 268.083 12.1601 268.099 12.1601L268.13 12.1681H268.162C268.193 12.1731 268.227 12.1761 268.264 12.1761L268.374 12.1841L268.445 12.1761C268.545 12.1761 268.668 12.1651 268.815 12.1441C268.946 12.1131 269.054 12.0761 269.138 12.0341C269.311 11.9401 269.419 11.8011 269.461 11.6171L269.469 11.5851L269.477 11.5621V11.5381V11.5141V11.4991L269.485 11.4281V11.4121V11.3961L269.477 11.3571C269.482 11.3461 269.482 11.3361 269.477 11.3251L269.469 11.2861C269.453 11.1971 269.411 11.1101 269.343 11.0261C269.206 10.8631 268.941 10.6901 268.548 10.5061L268.256 10.3731L268.114 10.3091L268.083 10.2941L268.059 10.2861V10.2781L267.988 10.2541C267.736 10.1391 267.532 10.0341 267.374 9.93913C267.117 9.78713 266.907 9.62212 266.744 9.44312C266.723 9.42212 266.699 9.39312 266.673 9.35712L266.61 9.26213C266.558 9.18913 266.518 9.12312 266.492 9.06512L266.437 8.95512C266.421 8.91312 266.408 8.87613 266.398 8.84513L266.366 8.72713L266.35 8.66412L266.342 8.60112C266.332 8.55312 266.324 8.50912 266.319 8.46712V8.39612L266.311 8.35612V8.34112V8.33313V8.30112V8.28613L266.319 8.18312C266.319 8.12512 266.324 8.05712 266.335 7.97812C266.34 7.93112 266.355 7.86312 266.382 7.77412C266.461 7.48012 266.602 7.23312 266.807 7.03312C266.98 6.85012 267.196 6.70812 267.453 6.60812C267.637 6.54012 267.844 6.49012 268.075 6.45812C268.217 6.44812 268.311 6.44312 268.359 6.44312L268.492 6.43512L268.626 6.44312C268.773 6.44812 268.939 6.46912 269.122 6.50612C269.39 6.56912 269.647 6.66612 269.894 6.79712C269.989 6.84412 270.075 6.89712 270.154 6.95512C270.222 6.99712 270.285 7.04112 270.343 7.08912C270.359 7.10412 270.385 7.13112 270.422 7.16712C270.48 7.21512 270.482 7.26412 270.43 7.31712L269.705 8.01812C269.663 8.06012 269.619 8.06212 269.571 8.02612C269.529 7.99412 269.49 7.96512 269.453 7.93912C269.401 7.90812 269.359 7.88112 269.327 7.86012C269.18 7.78712 269.028 7.73212 268.87 7.69512C268.75 7.67412 268.65 7.66312 268.571 7.66312L268.485 7.65612L268.398 7.66312H268.295L268.256 7.67112H268.225C268.093 7.69212 267.986 7.71912 267.902 7.75012C267.812 7.79212 267.742 7.83912 267.689 7.89212C267.637 7.94412 267.6 8.01313 267.579 8.09713L267.571 8.12813L267.563 8.16712L267.555 8.20712V8.24613V8.28613V8.32512L267.563 8.39612V8.40413H267.571V8.41212V8.41912L267.579 8.45113L267.587 8.47512L267.602 8.49813L267.634 8.55312L267.658 8.58512L267.681 8.61613C267.755 8.69513 267.862 8.77712 268.004 8.86012C268.125 8.92912 268.29 9.00713 268.5 9.09713L268.563 9.12813L268.658 9.16813L268.8 9.23812L269.075 9.35712C269.322 9.46712 269.529 9.57713 269.697 9.68713C269.954 9.84513 270.162 10.0181 270.319 10.2071C270.529 10.4491 270.666 10.7221 270.729 11.0261L270.745 11.1361C270.755 11.1841 270.76 11.2201 270.76 11.2471L270.768 11.3571Z" fill="#003683"/>
<path d="M130.741 0V18.024" stroke="#003683" stroke-width="0.7"/>
</svg>
