<svg width="274" height="19" viewBox="0 0 274 19" fill="none" xmlns="http://www.w3.org/2000/svg">
<path d="M1.47784 14V2.87273H5.06921C5.85884 2.87273 6.51808 3.0158 7.04691 3.30195C7.57937 3.58448 7.97962 3.97749 8.24766 4.48097C8.51932 4.98082 8.65515 5.55494 8.65515 6.2033C8.65515 6.85167 8.51932 7.42397 8.24766 7.92021C7.97962 8.41644 7.58118 8.80401 7.05234 9.08292C6.52351 9.36183 5.8679 9.50128 5.08551 9.50128H2.0266V8.57219H5.05835C5.63789 8.57219 6.11964 8.47621 6.50359 8.28423C6.89116 8.09226 7.17912 7.81879 7.36747 7.46381C7.55945 7.10884 7.65543 6.68867 7.65543 6.2033C7.65543 5.71793 7.55945 5.29414 7.36747 4.93192C7.1755 4.56609 6.88572 4.28356 6.49815 4.08434C6.1142 3.88512 5.62884 3.78551 5.04205 3.78551H2.49386V14H1.47784ZM6.38406 8.97969L9.12241 14H7.94883L5.23764 8.97969H6.38406ZM15.5581 14.1739C14.7793 14.1739 14.1056 13.9928 13.5369 13.6305C12.9682 13.2647 12.5281 12.7594 12.2166 12.1147C11.9088 11.4663 11.7548 10.7201 11.7548 9.87617C11.7548 9.03583 11.9088 8.28967 12.2166 7.63768C12.5281 6.98207 12.9574 6.46953 13.5043 6.10007C14.0549 5.72699 14.6906 5.54045 15.4114 5.54045C15.8642 5.54045 16.3006 5.62376 16.7208 5.79038C17.141 5.95337 17.5177 6.20511 17.8509 6.5456C18.1878 6.88246 18.454 7.30806 18.6496 7.82241C18.8452 8.33313 18.943 8.93803 18.943 9.63711V10.1152H12.4231V9.26222H17.9541C17.9541 8.72614 17.8455 8.24439 17.6281 7.81697C17.4144 7.38594 17.1156 7.04545 16.7317 6.79553C16.3513 6.5456 15.9112 6.42063 15.4114 6.42063C14.8825 6.42063 14.4171 6.5619 14.015 6.84442C13.613 7.12695 13.2979 7.50004 13.0697 7.96367C12.8451 8.42731 12.731 8.93441 12.7274 9.48498V9.9957C12.7274 10.6586 12.8415 11.2381 13.0697 11.7343C13.3015 12.227 13.6293 12.6091 14.0531 12.8808C14.4769 13.1524 14.9785 13.2882 15.5581 13.2882C15.9529 13.2882 16.2988 13.2267 16.5958 13.1035C16.8965 12.9804 17.1482 12.8156 17.351 12.6091C17.5575 12.399 17.7133 12.169 17.8183 11.9191L18.7365 12.2179C18.6097 12.5692 18.4015 12.8934 18.1117 13.1904C17.8256 13.4875 17.467 13.7265 17.0359 13.9076C16.6085 14.0851 16.1159 14.1739 15.5581 14.1739ZM27.9364 7.48555L27.0507 7.73548C26.9638 7.48555 26.8407 7.25916 26.6813 7.05632C26.5219 6.85348 26.3136 6.69229 26.0565 6.57276C25.8029 6.45323 25.4878 6.39347 25.1111 6.39347C24.546 6.39347 24.0824 6.52749 23.7202 6.79553C23.3579 7.06357 23.1768 7.40948 23.1768 7.83327C23.1768 8.19187 23.3 8.48345 23.5463 8.70803C23.7962 8.92898 24.1802 9.10465 24.6981 9.23505L25.9587 9.54474C26.6577 9.71499 27.1811 9.98484 27.5289 10.3543C27.8802 10.7238 28.0559 11.1874 28.0559 11.7452C28.0559 12.2161 27.9255 12.6344 27.6647 13.0003C27.4039 13.3661 27.0399 13.6541 26.5726 13.8642C26.109 14.0706 25.5711 14.1739 24.9589 14.1739C24.144 14.1739 23.472 13.9909 22.9432 13.6251C22.4144 13.2556 22.0757 12.7232 21.9272 12.0277L22.8563 11.7995C22.9758 12.2958 23.2094 12.6707 23.5572 12.9242C23.9085 13.1778 24.3703 13.3045 24.9426 13.3045C25.5838 13.3045 26.0963 13.1615 26.4802 12.8753C26.8642 12.5855 27.0562 12.2233 27.0562 11.7887C27.0562 11.4518 26.9439 11.1693 26.7193 10.9411C26.4947 10.7093 26.1543 10.539 25.6979 10.4304L24.3341 10.1044C23.6097 9.9305 23.0736 9.65522 22.7259 9.27852C22.3782 8.90181 22.2043 8.43455 22.2043 7.87674C22.2043 7.41673 22.3293 7.01285 22.5792 6.66513C22.8291 6.31378 23.1732 6.03849 23.6115 5.83928C24.0498 5.64006 24.5496 5.54045 25.1111 5.54045C25.8753 5.54045 26.4857 5.71431 26.9421 6.06204C27.4021 6.40614 27.7335 6.88065 27.9364 7.48555ZM34.7157 5.65455V6.4967H30.7331V5.65455H34.7157ZM31.9773 3.65511H32.9499V11.8213C32.9499 12.169 33.0096 12.4425 33.1292 12.6417C33.2487 12.8373 33.4045 12.9767 33.5964 13.06C33.7884 13.1397 33.9931 13.1796 34.2104 13.1796C34.3372 13.1796 34.4458 13.1723 34.5364 13.1578C34.6269 13.1397 34.7066 13.1216 34.7754 13.1035L34.9819 13.9783C34.8877 14.0145 34.7718 14.0471 34.6342 14.0761C34.4965 14.1087 34.3263 14.125 34.1235 14.125C33.7685 14.125 33.4262 14.0471 33.0966 13.8913C32.7706 13.7356 32.5025 13.5038 32.2925 13.1959C32.0824 12.888 31.9773 12.5059 31.9773 12.0495V3.65511ZM41.4108 14.1739C40.69 14.1739 40.0525 13.9909 39.4983 13.6251C38.9477 13.2593 38.5167 12.754 38.2052 12.1092C37.8937 11.4609 37.7379 10.7129 37.7379 9.86531C37.7379 9.01048 37.8937 8.25888 38.2052 7.61051C38.5167 6.95852 38.9477 6.45142 39.4983 6.0892C40.0525 5.72337 40.69 5.54045 41.4108 5.54045C42.1316 5.54045 42.7673 5.72337 43.3179 6.0892C43.8684 6.45504 44.2995 6.96214 44.611 7.61051C44.9261 8.25888 45.0837 9.01048 45.0837 9.86531C45.0837 10.7129 44.9279 11.4609 44.6164 12.1092C44.3049 12.754 43.872 13.2593 43.3179 13.6251C42.7673 13.9909 42.1316 14.1739 41.4108 14.1739ZM41.4108 13.2882C41.9903 13.2882 42.4811 13.1325 42.8832 12.821C43.2853 12.5095 43.5895 12.0947 43.796 11.5768C44.0061 11.0588 44.1111 10.4883 44.1111 9.86531C44.1111 9.24229 44.0061 8.66999 43.796 8.1484C43.5895 7.62681 43.2853 7.20845 42.8832 6.89332C42.4811 6.5782 41.9903 6.42063 41.4108 6.42063C40.8349 6.42063 40.3441 6.5782 39.9384 6.89332C39.5363 7.20845 39.2302 7.62681 39.0202 8.1484C38.8137 8.66999 38.7105 9.24229 38.7105 9.86531C38.7105 10.4883 38.8137 11.0588 39.0202 11.5768C39.2302 12.0947 39.5363 12.5095 39.9384 12.821C40.3404 13.1325 40.8312 13.2882 41.4108 13.2882ZM48.4618 14V5.65455H49.4017V6.93679H49.4724C49.639 6.51662 49.9287 6.17795 50.3417 5.92077C50.7582 5.65998 51.2291 5.52958 51.7543 5.52958C51.834 5.52958 51.9227 5.53139 52.0205 5.53501C52.1183 5.53864 52.1998 5.54226 52.265 5.54588V6.5293C52.2216 6.52205 52.1455 6.51119 52.0368 6.4967C51.9282 6.48221 51.8105 6.47496 51.6837 6.47496C51.249 6.47496 50.8615 6.56733 50.521 6.75206C50.1841 6.93317 49.9179 7.18491 49.7223 7.50728C49.5267 7.82965 49.4289 8.1973 49.4289 8.61023V14H48.4618ZM55.1813 14V5.65455H56.1539V14H55.1813ZM55.6758 4.22017C55.4765 4.22017 55.3063 4.15316 55.165 4.01914C55.0238 3.8815 54.9531 3.71669 54.9531 3.52472C54.9531 3.33274 55.0238 3.16974 55.165 3.03572C55.3063 2.89808 55.4765 2.82926 55.6758 2.82926C55.875 2.82926 56.0452 2.89808 56.1865 3.03572C56.3277 3.16974 56.3984 3.33274 56.3984 3.52472C56.3984 3.71669 56.3277 3.8815 56.1865 4.01914C56.0452 4.15316 55.875 4.22017 55.6758 4.22017ZM60.9338 8.78409V14H59.9667V5.65455H60.9066V6.96396H60.9935C61.1891 6.53654 61.4934 6.19425 61.9063 5.93707C62.3229 5.67628 62.8372 5.54588 63.4494 5.54588C64.0108 5.54588 64.5034 5.6636 64.9272 5.89904C65.3546 6.13086 65.686 6.47315 65.9215 6.92592C66.1605 7.37869 66.2801 7.93469 66.2801 8.59393V14H65.313V8.65369C65.313 7.9691 65.121 7.42759 64.737 7.02915C64.3567 6.63072 63.846 6.4315 63.2049 6.4315C62.7666 6.4315 62.3772 6.52567 62.0367 6.71403C61.6962 6.90238 61.4264 7.17404 61.2272 7.52901C61.0316 7.88036 60.9338 8.29872 60.9338 8.78409ZM73.2659 17.3034C72.6972 17.3034 72.1991 17.2292 71.7717 17.0806C71.3443 16.9358 70.9839 16.7365 70.6905 16.483C70.3971 16.2294 70.1689 15.9451 70.0059 15.63L70.7992 15.1084C70.9187 15.3185 71.0781 15.5249 71.2773 15.7278C71.4801 15.9306 71.7427 16.099 72.0651 16.2331C72.3911 16.3671 72.7914 16.4341 73.2659 16.4341C74.0048 16.4341 74.6006 16.2494 75.0534 15.8799C75.5098 15.5104 75.738 14.9363 75.738 14.1576V12.2777H75.6511C75.5388 12.5312 75.3776 12.7848 75.1675 13.0383C74.9574 13.2882 74.6821 13.4965 74.3416 13.6631C74.0048 13.8298 73.5864 13.9131 73.0866 13.9131C72.4201 13.9131 71.8279 13.7483 71.3099 13.4186C70.7956 13.089 70.3899 12.6181 70.0929 12.006C69.7995 11.3902 69.6528 10.6567 69.6528 9.80554C69.6528 8.96158 69.7958 8.21903 70.082 7.57791C70.3718 6.93679 70.7756 6.43693 71.2936 6.07834C71.8116 5.71974 72.4147 5.54045 73.1029 5.54045C73.6136 5.54045 74.0374 5.631 74.3742 5.81211C74.7111 5.9896 74.981 6.21055 75.1838 6.47496C75.3903 6.73938 75.5514 6.99656 75.6674 7.24648H75.7652V5.65455H76.7105V14.2173C76.7105 14.9237 76.5602 15.505 76.2596 15.9614C75.9589 16.4178 75.5496 16.7547 75.0317 16.972C74.5137 17.1929 73.9251 17.3034 73.2659 17.3034ZM73.2007 13.0275C73.7367 13.0275 74.1949 12.8989 74.5753 12.6417C74.9556 12.3809 75.2472 12.0078 75.45 11.5224C75.6529 11.0371 75.7543 10.4593 75.7543 9.78924C75.7543 9.13725 75.6547 8.55952 75.4555 8.05604C75.2562 7.54893 74.9665 7.1505 74.5861 6.86072C74.2094 6.56733 73.7476 6.42063 73.2007 6.42063C72.6429 6.42063 72.172 6.57095 71.788 6.87159C71.4041 7.17223 71.1143 7.57791 70.9187 8.08864C70.7231 8.59574 70.6253 9.16261 70.6253 9.78924C70.6253 10.4267 70.7249 10.99 70.9241 11.479C71.1234 11.9643 71.4149 12.3447 71.7989 12.62C72.1828 12.8916 72.6501 13.0275 73.2007 13.0275ZM81.4931 2.87273V14H80.526V2.87273H81.4931ZM85.3181 14V5.65455H86.2907V14H85.3181ZM85.8126 4.22017C85.6134 4.22017 85.4431 4.15316 85.3018 4.01914C85.1606 3.8815 85.09 3.71669 85.09 3.52472C85.09 3.33274 85.1606 3.16974 85.3018 3.03572C85.4431 2.89808 85.6134 2.82926 85.8126 2.82926C86.0118 2.82926 86.182 2.89808 86.3233 3.03572C86.4646 3.16974 86.5352 3.33274 86.5352 3.52472C86.5352 3.71669 86.4646 3.8815 86.3233 4.01914C86.182 4.15316 86.0118 4.22017 85.8126 4.22017ZM90.1035 14V5.65455H91.0434V6.93679H91.1304C91.297 6.50575 91.5741 6.16708 91.9616 5.92077C92.3528 5.67085 92.8219 5.54588 93.3688 5.54588C93.9448 5.54588 94.4175 5.68171 94.7869 5.95337C95.16 6.22141 95.4389 6.59087 95.6236 7.06175H95.6943C95.8826 6.59812 96.1887 6.23047 96.6125 5.95881C97.0399 5.68352 97.5579 5.54588 98.1664 5.54588C98.9415 5.54588 99.5537 5.79038 100.003 6.27937C100.452 6.76474 100.677 7.47468 100.677 8.4092V14H99.7094V8.4092C99.7094 7.74996 99.541 7.25554 99.2041 6.92592C98.8673 6.59631 98.4236 6.4315 97.873 6.4315C97.2355 6.4315 96.7447 6.62709 96.4006 7.01829C96.0565 7.40948 95.8844 7.90572 95.8844 8.507V14H94.8956V8.32227C94.8956 7.75721 94.738 7.30082 94.4229 6.95309C94.1078 6.60536 93.6641 6.4315 93.0918 6.4315C92.7078 6.4315 92.3619 6.52567 92.054 6.71403C91.7497 6.90238 91.5089 7.16499 91.3314 7.50185C91.1575 7.83508 91.0706 8.21903 91.0706 8.65369V14H90.1035ZM104.693 14V2.87273H105.666V7.24648H105.753C105.861 6.99656 106.017 6.73938 106.22 6.47496C106.426 6.21055 106.696 5.9896 107.029 5.81211C107.366 5.631 107.79 5.54045 108.301 5.54045C108.985 5.54045 109.587 5.72156 110.105 6.08377C110.623 6.44236 111.026 6.94584 111.316 7.59421C111.606 8.23896 111.751 8.99055 111.751 9.84901C111.751 10.7111 111.606 11.4663 111.316 12.1147C111.03 12.763 110.628 13.2683 110.11 13.6305C109.596 13.9928 108.998 14.1739 108.317 14.1739C107.81 14.1739 107.386 14.0833 107.046 13.9022C106.709 13.7211 106.437 13.4983 106.231 13.2339C106.024 12.9659 105.865 12.7051 105.753 12.4515H105.633V14H104.693ZM105.649 9.83271C105.649 10.5064 105.749 11.1041 105.948 11.6257C106.151 12.1436 106.441 12.5511 106.817 12.8482C107.198 13.1415 107.658 13.2882 108.198 13.2882C108.752 13.2882 109.221 13.1361 109.605 12.8319C109.989 12.524 110.28 12.1092 110.479 11.5876C110.679 11.0661 110.778 10.4811 110.778 9.83271C110.778 9.19158 110.679 8.61385 110.479 8.0995C110.284 7.58516 109.994 7.17766 109.61 6.87702C109.226 6.57276 108.755 6.42063 108.198 6.42063C107.654 6.42063 107.192 6.56733 106.812 6.86072C106.435 7.1505 106.147 7.55256 105.948 8.0669C105.749 8.57763 105.649 9.16623 105.649 9.83271ZM120.737 7.48555L119.852 7.73548C119.765 7.48555 119.642 7.25916 119.482 7.05632C119.323 6.85348 119.115 6.69229 118.858 6.57276C118.604 6.45323 118.289 6.39347 117.912 6.39347C117.347 6.39347 116.883 6.52749 116.521 6.79553C116.159 7.06357 115.978 7.40948 115.978 7.83327C115.978 8.19187 116.101 8.48345 116.347 8.70803C116.597 8.92898 116.981 9.10465 117.499 9.23505L118.76 9.54474C119.459 9.71499 119.982 9.98484 120.33 10.3543C120.681 10.7238 120.857 11.1874 120.857 11.7452C120.857 12.2161 120.727 12.6344 120.466 13.0003C120.205 13.3661 119.841 13.6541 119.374 13.8642C118.91 14.0706 118.372 14.1739 117.76 14.1739C116.945 14.1739 116.273 13.9909 115.744 13.6251C115.215 13.2556 114.877 12.7232 114.728 12.0277L115.657 11.7995C115.777 12.2958 116.011 12.6707 116.358 12.9242C116.71 13.1778 117.171 13.3045 117.744 13.3045C118.385 13.3045 118.897 13.1615 119.281 12.8753C119.665 12.5855 119.857 12.2233 119.857 11.7887C119.857 11.4518 119.745 11.1693 119.52 10.9411C119.296 10.7093 118.955 10.539 118.499 10.4304L117.135 10.1044C116.411 9.9305 115.875 9.65522 115.527 9.27852C115.179 8.90181 115.005 8.43455 115.005 7.87674C115.005 7.41673 115.13 7.01285 115.38 6.66513C115.63 6.31378 115.974 6.03849 116.413 5.83928C116.851 5.64006 117.351 5.54045 117.912 5.54045C118.676 5.54045 119.287 5.71431 119.743 6.06204C120.203 6.40614 120.535 6.88065 120.737 7.48555Z" fill="#003683"/>
<path d="M142.076 14V2.87273H146.466C147.307 2.87273 148.024 3.02305 148.618 3.32369C149.216 3.6207 149.67 4.04268 149.982 4.58963C150.297 5.13295 150.454 5.77227 150.454 6.50756C150.454 7.24648 150.295 7.88217 149.976 8.41463C149.657 8.94347 149.196 9.34915 148.591 9.63168C147.989 9.9142 147.261 10.0555 146.407 10.0555H143.467V8.1647H146.026C146.475 8.1647 146.848 8.10312 147.145 7.97997C147.442 7.85682 147.663 7.67209 147.808 7.42578C147.957 7.17947 148.031 6.8734 148.031 6.50756C148.031 6.1381 147.957 5.8266 147.808 5.57305C147.663 5.3195 147.441 5.12752 147.14 4.99712C146.843 4.8631 146.468 4.79609 146.015 4.79609H144.429V14H142.076ZM148.085 8.93622L150.851 14H148.254L145.548 8.93622H148.085ZM157.027 14.163C156.169 14.163 155.43 13.9891 154.81 13.6414C154.195 13.2901 153.72 12.7938 153.387 12.1527C153.054 11.508 152.887 10.7455 152.887 9.86531C152.887 9.00685 153.054 8.25344 153.387 7.60508C153.72 6.95671 154.189 6.45142 154.794 6.0892C155.403 5.72699 156.116 5.54588 156.935 5.54588C157.485 5.54588 157.998 5.63462 158.472 5.81211C158.951 5.98597 159.367 6.24858 159.722 6.59993C160.081 6.95128 160.36 7.39318 160.559 7.92564C160.758 8.45447 160.858 9.07386 160.858 9.78381V10.4195H153.811V8.98512H158.679C158.679 8.65188 158.606 8.35668 158.462 8.0995C158.317 7.84233 158.116 7.6413 157.858 7.49641C157.605 7.3479 157.31 7.27365 156.973 7.27365C156.621 7.27365 156.31 7.35515 156.038 7.51815C155.77 7.67752 155.56 7.89304 155.408 8.1647C155.256 8.43274 155.178 8.73157 155.174 9.06119V10.4249C155.174 10.8379 155.25 11.1946 155.403 11.4953C155.558 11.7959 155.778 12.0277 156.06 12.1907C156.343 12.3537 156.678 12.4352 157.065 12.4352C157.322 12.4352 157.558 12.399 157.772 12.3266C157.985 12.2541 158.168 12.1455 158.32 12.0006C158.472 11.8557 158.588 11.6782 158.668 11.4681L160.809 11.6094C160.7 12.1237 160.477 12.5729 160.14 12.9568C159.807 13.3371 159.376 13.6342 158.847 13.8479C158.322 14.058 157.715 14.163 157.027 14.163ZM163.562 14V2.87273H165.877V7.05632H165.947C166.049 6.83175 166.195 6.60355 166.387 6.37173C166.583 6.13629 166.836 5.9407 167.148 5.78494C167.463 5.62557 167.854 5.54588 168.322 5.54588C168.93 5.54588 169.491 5.70526 170.006 6.02401C170.52 6.33913 170.931 6.81545 171.239 7.45295C171.547 8.08683 171.701 8.88189 171.701 9.83814C171.701 10.769 171.551 11.555 171.25 12.1962C170.953 12.8337 170.547 13.3172 170.033 13.6468C169.522 13.9728 168.95 14.1358 168.316 14.1358C167.867 14.1358 167.485 14.0616 167.17 13.9131C166.858 13.7646 166.603 13.578 166.404 13.3534C166.204 13.1252 166.052 12.8952 165.947 12.6634H165.844V14H163.562ZM165.828 9.82727C165.828 10.3235 165.896 10.7564 166.034 11.1258C166.172 11.4953 166.371 11.7832 166.632 11.9897C166.893 12.1925 167.21 12.294 167.583 12.294C167.959 12.294 168.278 12.1907 168.539 11.9843C168.8 11.7742 168.997 11.4844 169.131 11.115C169.269 10.7419 169.338 10.3126 169.338 9.82727C169.338 9.34553 169.271 8.92173 169.136 8.55589C169.002 8.19006 168.805 7.90391 168.544 7.69744C168.283 7.49098 167.963 7.38775 167.583 7.38775C167.206 7.38775 166.887 7.48736 166.626 7.68658C166.369 7.8858 166.172 8.16832 166.034 8.53416C165.896 8.9 165.828 9.33104 165.828 9.82727ZM179.748 10.4467V5.65455H182.062V14H179.84V12.4841H179.753C179.565 12.9731 179.251 13.3661 178.813 13.6631C178.378 13.9602 177.848 14.1087 177.221 14.1087C176.663 14.1087 176.173 13.9819 175.749 13.7283C175.325 13.4748 174.994 13.1144 174.754 12.6471C174.519 12.1799 174.399 11.6202 174.396 10.9683V5.65455H176.71V10.5553C176.714 11.0479 176.846 11.4373 177.107 11.7235C177.368 12.0096 177.717 12.1527 178.156 12.1527C178.435 12.1527 178.695 12.0893 178.938 11.9625C179.181 11.8321 179.376 11.6402 179.525 11.3866C179.677 11.1331 179.751 10.8197 179.748 10.4467ZM185.064 14V5.65455H187.379V14H185.064ZM186.227 4.57876C185.883 4.57876 185.587 4.46467 185.341 4.23647C185.098 4.00465 184.977 3.72756 184.977 3.40518C184.977 3.08643 185.098 2.81296 185.341 2.58477C185.587 2.35295 185.883 2.23704 186.227 2.23704C186.571 2.23704 186.864 2.35295 187.107 2.58477C187.353 2.81296 187.476 3.08643 187.476 3.40518C187.476 3.72756 187.353 4.00465 187.107 4.23647C186.864 4.46467 186.571 4.57876 186.227 4.57876ZM192.698 2.87273V14H190.383V2.87273H192.698ZM198.778 14.1358C198.144 14.1358 197.57 13.9728 197.055 13.6468C196.544 13.3172 196.139 12.8337 195.838 12.1962C195.541 11.555 195.393 10.769 195.393 9.83814C195.393 8.88189 195.547 8.08683 195.854 7.45295C196.162 6.81545 196.572 6.33913 197.082 6.02401C197.597 5.70526 198.16 5.54588 198.772 5.54588C199.239 5.54588 199.629 5.62557 199.94 5.78494C200.255 5.9407 200.509 6.13629 200.701 6.37173C200.896 6.60355 201.045 6.83175 201.146 7.05632H201.217V2.87273H203.526V14H201.244V12.6634H201.146C201.038 12.8952 200.884 13.1252 200.685 13.3534C200.489 13.578 200.234 13.7646 199.919 13.9131C199.607 14.0616 199.227 14.1358 198.778 14.1358ZM199.511 12.294C199.884 12.294 200.199 12.1925 200.456 11.9897C200.717 11.7832 200.916 11.4953 201.054 11.1258C201.195 10.7564 201.266 10.3235 201.266 9.82727C201.266 9.33104 201.197 8.9 201.059 8.53416C200.922 8.16832 200.723 7.8858 200.462 7.68658C200.201 7.48736 199.884 7.38775 199.511 7.38775C199.131 7.38775 198.81 7.49098 198.549 7.69744C198.289 7.90391 198.091 8.19006 197.957 8.55589C197.823 8.92173 197.756 9.34553 197.756 9.82727C197.756 10.3126 197.823 10.7419 197.957 11.115C198.095 11.4844 198.292 11.7742 198.549 11.9843C198.81 12.1907 199.131 12.294 199.511 12.294ZM206.58 14V5.65455H208.894V14H206.58ZM207.742 4.57876C207.398 4.57876 207.103 4.46467 206.857 4.23647C206.614 4.00465 206.493 3.72756 206.493 3.40518C206.493 3.08643 206.614 2.81296 206.857 2.58477C207.103 2.35295 207.398 2.23704 207.742 2.23704C208.086 2.23704 208.38 2.35295 208.623 2.58477C208.869 2.81296 208.992 3.08643 208.992 3.40518C208.992 3.72756 208.869 4.00465 208.623 4.23647C208.38 4.46467 208.086 4.57876 207.742 4.57876ZM214.213 9.17528V14H211.899V5.65455H214.105V7.12695H214.202C214.387 6.64158 214.697 6.25763 215.132 5.97511C215.566 5.68896 216.093 5.54588 216.713 5.54588C217.292 5.54588 217.797 5.67266 218.229 5.92621C218.66 6.17976 218.995 6.54197 219.234 7.01285C219.473 7.48011 219.592 8.03793 219.592 8.68629V14H217.278V9.09922C217.281 8.58849 217.151 8.19006 216.887 7.90391C216.622 7.61413 216.258 7.46925 215.794 7.46925C215.483 7.46925 215.208 7.53626 214.969 7.67028C214.733 7.8043 214.548 7.99989 214.414 8.25707C214.284 8.51062 214.217 8.81669 214.213 9.17528ZM226.327 17.3034C225.577 17.3034 224.934 17.2002 224.398 16.9937C223.866 16.7909 223.442 16.5138 223.127 16.1624C222.811 15.8111 222.607 15.4163 222.513 14.978L224.653 14.69C224.719 14.8566 224.822 15.0124 224.963 15.1573C225.104 15.3022 225.291 15.4181 225.523 15.505C225.758 15.5956 226.044 15.6408 226.381 15.6408C226.885 15.6408 227.299 15.5177 227.625 15.2714C227.955 15.0287 228.12 14.6212 228.12 14.0489V12.5222H228.022C227.921 12.754 227.768 12.9731 227.566 13.1796C227.363 13.386 227.102 13.5545 226.783 13.6849C226.464 13.8153 226.084 13.8805 225.642 13.8805C225.016 13.8805 224.445 13.7356 223.931 13.4458C223.42 13.1524 223.012 12.7051 222.708 12.1038C222.408 11.4989 222.257 10.7346 222.257 9.81097C222.257 8.86559 222.411 8.07596 222.719 7.44208C223.027 6.8082 223.436 6.3337 223.947 6.01857C224.461 5.70344 225.025 5.54588 225.637 5.54588C226.104 5.54588 226.495 5.62557 226.81 5.78494C227.125 5.9407 227.379 6.13629 227.571 6.37173C227.767 6.60355 227.917 6.83175 228.022 7.05632H228.109V5.65455H230.407V14.0815C230.407 14.7914 230.233 15.3855 229.886 15.8636C229.538 16.3417 229.056 16.7003 228.44 16.9394C227.828 17.1821 227.124 17.3034 226.327 17.3034ZM226.376 12.1418C226.749 12.1418 227.064 12.0495 227.321 11.8647C227.582 11.6764 227.781 11.4083 227.919 11.0606C228.06 10.7093 228.131 10.2891 228.131 9.80011C228.131 9.31111 228.062 8.88732 227.924 8.52873C227.786 8.16651 227.587 7.8858 227.326 7.68658C227.066 7.48736 226.749 7.38775 226.376 7.38775C225.995 7.38775 225.675 7.49098 225.414 7.69744C225.153 7.90028 224.956 8.18281 224.822 8.54503C224.688 8.90724 224.621 9.3256 224.621 9.80011C224.621 10.2819 224.688 10.6984 224.822 11.0498C224.959 11.3975 225.157 11.6673 225.414 11.8593C225.675 12.0477 225.995 12.1418 226.376 12.1418ZM235.714 2.87273V14H233.399V2.87273H235.714ZM238.719 14V5.65455H241.033V14H238.719ZM239.881 4.57876C239.537 4.57876 239.242 4.46467 238.996 4.23647C238.753 4.00465 238.632 3.72756 238.632 3.40518C238.632 3.08643 238.753 2.81296 238.996 2.58477C239.242 2.35295 239.537 2.23704 239.881 2.23704C240.225 2.23704 240.519 2.35295 240.762 2.58477C241.008 2.81296 241.131 3.08643 241.131 3.40518C241.131 3.72756 241.008 4.00465 240.762 4.23647C240.519 4.46467 240.225 4.57876 239.881 4.57876ZM251.818 5.65455L248.901 14H246.293L243.375 5.65455H245.82L247.553 11.6257H247.64L249.368 5.65455H251.818ZM257.956 14.163C257.098 14.163 256.359 13.9891 255.74 13.6414C255.124 13.2901 254.649 12.7938 254.316 12.1527C253.983 11.508 253.816 10.7455 253.816 9.86531C253.816 9.00685 253.983 8.25344 254.316 7.60508C254.649 6.95671 255.118 6.45142 255.723 6.0892C256.332 5.72699 257.045 5.54588 257.864 5.54588C258.415 5.54588 258.927 5.63462 259.402 5.81211C259.88 5.98597 260.296 6.24858 260.651 6.59993C261.01 6.95128 261.289 7.39318 261.488 7.92564C261.687 8.45447 261.787 9.07386 261.787 9.78381V10.4195H254.74V8.98512H259.608C259.608 8.65188 259.536 8.35668 259.391 8.0995C259.246 7.84233 259.045 7.6413 258.788 7.49641C258.534 7.3479 258.239 7.27365 257.902 7.27365C257.551 7.27365 257.239 7.35515 256.968 7.51815C256.699 7.67752 256.489 7.89304 256.337 8.1647C256.185 8.43274 256.107 8.73157 256.104 9.06119V10.4249C256.104 10.8379 256.18 11.1946 256.332 11.4953C256.488 11.7959 256.707 12.0277 256.989 12.1907C257.272 12.3537 257.607 12.4352 257.994 12.4352C258.252 12.4352 258.487 12.399 258.701 12.3266C258.914 12.2541 259.097 12.1455 259.249 12.0006C259.402 11.8557 259.518 11.6782 259.597 11.4681L261.738 11.6094C261.629 12.1237 261.406 12.5729 261.07 12.9568C260.736 13.3371 260.305 13.6342 259.776 13.8479C259.251 14.058 258.645 14.163 257.956 14.163ZM271.391 8.0343L269.272 8.1647C269.236 7.98359 269.158 7.8206 269.039 7.67571C268.919 7.5272 268.762 7.40948 268.566 7.32255C268.374 7.232 268.144 7.18672 267.876 7.18672C267.518 7.18672 267.215 7.26278 266.969 7.41491C266.722 7.56342 266.599 7.76264 266.599 8.01257C266.599 8.21179 266.679 8.38022 266.838 8.51786C266.998 8.6555 267.271 8.76598 267.659 8.84929L269.169 9.15355C269.981 9.32017 270.585 9.58821 270.984 9.95767C271.382 10.3271 271.582 10.8125 271.582 11.4138C271.582 11.9607 271.42 12.4407 271.098 12.8536C270.779 13.2665 270.341 13.5889 269.783 13.8207C269.229 14.0489 268.59 14.163 267.865 14.163C266.76 14.163 265.88 13.933 265.225 13.473C264.573 13.0093 264.191 12.3791 264.078 11.5822L266.355 11.4627C266.424 11.7995 266.59 12.0567 266.855 12.2342C267.119 12.4081 267.458 12.495 267.871 12.495C268.276 12.495 268.602 12.4171 268.849 12.2614C269.099 12.102 269.225 11.8973 269.229 11.6474C269.225 11.4373 269.137 11.2653 268.963 11.1312C268.789 10.9936 268.521 10.8886 268.159 10.8161L266.713 10.5282C265.898 10.3652 265.292 10.0826 264.893 9.68058C264.498 9.27852 264.301 8.76598 264.301 8.14297C264.301 7.60689 264.446 7.14506 264.736 6.75749C265.029 6.36992 265.44 6.07109 265.969 5.86101C266.501 5.65092 267.125 5.54588 267.838 5.54588C268.892 5.54588 269.722 5.76864 270.326 6.21417C270.935 6.65969 271.29 7.26641 271.391 8.0343Z" fill="#003683"/>
<path d="M131.969 0.508608V18.5326" stroke="#003683" stroke-width="0.62"/>
</svg>
