<svg width="271" height="19" viewBox="0 0 271 19" fill="none" xmlns="http://www.w3.org/2000/svg">
<path d="M0.74 2.9541H4.158C4.788 2.9541 5.326 3.1771 5.772 3.6231C6.219 4.0751 6.442 4.6161 6.442 5.2461C6.442 5.8761 6.219 6.4141 5.772 6.8601C5.326 7.3061 4.788 7.5301 4.158 7.5301H0.74V2.9541ZM4.087 8.2781C4.938 8.2781 5.67 7.9761 6.284 7.3721C6.898 6.7631 7.2 6.0361 7.19 5.1911C7.174 4.3661 6.872 3.6631 6.284 3.0801C5.691 2.5031 4.982 2.2141 4.158 2.2141H0.11C0.036 2.2141 0 2.2511 0 2.3241V8.2781H4.087ZM0.638 13.4911C0.706 13.4911 0.74 13.4541 0.74 13.3811V6.6481H0V13.3811C0 13.4541 0.036 13.4911 0.11 13.4911H0.638ZM6.835 13.4911C6.877 13.4911 6.909 13.4731 6.93 13.4361C6.951 13.3991 6.951 13.3651 6.93 13.3341L3.922 7.8291L3.268 8.1831L6.142 13.4361C6.163 13.4731 6.195 13.4911 6.237 13.4911H6.835ZM13.433 7.3881C14.11 7.3881 14.683 7.5951 15.15 8.0101C15.617 8.4191 15.887 8.9501 15.961 9.6011L10.881 10.0421C10.887 9.2861 11.133 8.6531 11.622 8.1441C12.105 7.6401 12.709 7.3881 13.433 7.3881ZM13.559 13.4911C14.152 13.4911 14.706 13.3471 15.221 13.0581C15.741 12.7691 16.158 12.3761 16.473 11.8771C16.51 11.8141 16.497 11.7611 16.434 11.7191L15.977 11.4591C15.914 11.4231 15.864 11.4361 15.827 11.4991C15.58 11.8871 15.257 12.1921 14.858 12.4121C14.454 12.6381 14.021 12.7511 13.559 12.7511C12.95 12.7511 12.404 12.5651 11.921 12.1921C11.448 11.8241 11.133 11.3541 10.976 10.7821L16.63 10.2861C16.693 10.2811 16.725 10.2471 16.725 10.1831V10.0101C16.725 9.0921 16.407 8.3041 15.772 7.6481C15.131 6.9861 14.36 6.6531 13.457 6.6481C12.527 6.6421 11.742 6.9701 11.102 7.6321C10.456 8.2931 10.133 9.1051 10.133 10.0651C10.133 11.0101 10.469 11.8191 11.141 12.4911C11.808 13.1581 12.614 13.4911 13.559 13.4911ZM24.023 7.4671C24.081 7.4141 24.081 7.3621 24.023 7.3091C23.997 7.2831 23.976 7.2641 23.96 7.2541C23.903 7.2071 23.845 7.1621 23.787 7.1201C23.708 7.0681 23.624 7.0181 23.535 6.9701C23.299 6.8441 23.052 6.7531 22.795 6.6951C22.611 6.6581 22.451 6.6371 22.315 6.6321H22.181H22.055C22.023 6.6321 21.981 6.6341 21.929 6.6401L21.858 6.6481H21.779C21.558 6.6791 21.364 6.7261 21.196 6.7891C20.965 6.8841 20.771 7.0101 20.613 7.1671C20.435 7.3461 20.311 7.5641 20.243 7.8211L20.22 7.9151L20.204 8.0101C20.193 8.0841 20.188 8.1441 20.188 8.1911L20.18 8.2861V8.2931V8.3171V8.3251V8.3491L20.188 8.3881V8.4591L20.204 8.5691C20.214 8.6271 20.233 8.6981 20.259 8.7821C20.264 8.8081 20.275 8.8401 20.291 8.8761L20.338 8.9711C20.359 9.0181 20.393 9.0781 20.44 9.1521L20.503 9.2311C20.524 9.2621 20.545 9.2881 20.566 9.3091C20.718 9.4771 20.915 9.6321 21.157 9.7741C21.314 9.8681 21.522 9.9741 21.779 10.0891L21.858 10.1211L21.921 10.1521L22.07 10.2231L22.378 10.3571C22.839 10.5721 23.16 10.7851 23.338 10.9951C23.443 11.1211 23.512 11.2601 23.543 11.4121L23.551 11.4671C23.556 11.4941 23.559 11.5141 23.559 11.5301V11.5851L23.567 11.6171V11.6011V11.6091V11.6171L23.559 11.6401V11.6801V11.7191C23.559 11.7511 23.556 11.7741 23.551 11.7901L23.543 11.8371L23.535 11.8921C23.477 12.1971 23.307 12.4201 23.023 12.5621C22.908 12.6251 22.766 12.6751 22.598 12.7111C22.419 12.7381 22.27 12.7511 22.149 12.7511L22.094 12.7591H22.063H22.047L21.929 12.7511C21.892 12.7511 21.855 12.7481 21.818 12.7431H21.771L21.724 12.7351C21.619 12.7191 21.498 12.6931 21.362 12.6561C21.173 12.6041 20.989 12.5281 20.81 12.4281C20.737 12.3861 20.669 12.3411 20.606 12.2941C20.558 12.2631 20.516 12.2291 20.48 12.1921C20.427 12.1501 20.377 12.1521 20.33 12.2001L19.952 12.5621C19.894 12.6201 19.894 12.6751 19.952 12.7271C20.01 12.7741 20.073 12.8241 20.141 12.8771C20.23 12.9451 20.33 13.0081 20.44 13.0661C20.671 13.1971 20.913 13.3001 21.165 13.3731C21.338 13.4151 21.498 13.4471 21.645 13.4671L21.708 13.4751H21.779C21.831 13.4811 21.873 13.4831 21.905 13.4831L22.023 13.4911H22.039H22.07H22.102H22.173C22.335 13.4861 22.527 13.4621 22.748 13.4201C22.979 13.3731 23.183 13.3021 23.362 13.2081C23.588 13.0921 23.777 12.9371 23.929 12.7431C24.086 12.5381 24.191 12.3051 24.244 12.0421L24.26 11.9401L24.275 11.8371C24.275 11.8111 24.278 11.7821 24.283 11.7511V11.7111V11.6721V11.6481V11.6171V11.5621L24.275 11.4671C24.275 11.4411 24.273 11.4071 24.268 11.3651L24.244 11.2621C24.191 10.9951 24.071 10.7531 23.882 10.5381C23.735 10.3591 23.54 10.1941 23.299 10.0421C23.131 9.9371 22.924 9.8271 22.677 9.7111L22.378 9.5851L22.228 9.5141L22.141 9.4751L22.063 9.4431C21.831 9.3381 21.648 9.2461 21.511 9.1681C21.333 9.0631 21.194 8.9551 21.094 8.8451L21.054 8.7971L21.015 8.7501L20.984 8.7031L20.96 8.6561L20.936 8.6081L20.921 8.5611L20.905 8.5061C20.9 8.4901 20.897 8.4771 20.897 8.4671L20.881 8.4191V8.3491V8.3091L20.873 8.2861V8.2781V8.2931L20.881 8.2301C20.881 8.2041 20.884 8.1651 20.889 8.1121L20.897 8.0571L20.913 8.0021C20.949 7.8601 21.015 7.7451 21.11 7.6561C21.194 7.5611 21.306 7.4881 21.448 7.4351C21.558 7.3881 21.698 7.3541 21.866 7.3331L21.913 7.3251H21.96C22.002 7.3201 22.041 7.3171 22.078 7.3171H22.181H22.283C22.383 7.3221 22.506 7.3381 22.653 7.3641C22.847 7.4061 23.034 7.4741 23.212 7.5691C23.275 7.6001 23.338 7.6401 23.401 7.6871C23.454 7.7191 23.504 7.7551 23.551 7.7971C23.603 7.8341 23.653 7.8321 23.701 7.7891L24.023 7.4671ZM30.865 12.9951C30.912 13.0581 30.905 13.1081 30.842 13.1451C30.5 13.3761 30.149 13.4911 29.786 13.4911C29.539 13.4911 29.308 13.4361 29.093 13.3261C28.81 13.1841 28.587 12.9691 28.424 12.6801C28.266 12.3861 28.188 12.0531 28.188 11.6801V7.3961H27.235C27.161 7.3961 27.124 7.3591 27.124 7.2851V6.7581C27.124 6.6841 27.161 6.6481 27.235 6.6481H28.188L28.18 4.7021C28.18 4.6291 28.216 4.5921 28.29 4.5921H28.818C28.891 4.5921 28.928 4.6291 28.928 4.7021V6.6481H30.007C30.08 6.6481 30.117 6.6841 30.117 6.7581V7.2851C30.117 7.3591 30.08 7.3961 30.007 7.3961H28.928V11.6801C28.928 12.1681 29.093 12.4961 29.424 12.6641C29.723 12.8171 30.049 12.7771 30.401 12.5461C30.464 12.5091 30.513 12.5171 30.55 12.5701L30.865 12.9951ZM36.919 7.3961C37.654 7.3961 38.284 7.6581 38.809 8.1831C39.334 8.7031 39.597 9.3331 39.597 10.0731C39.597 10.8081 39.334 11.4381 38.809 11.9631C38.284 12.4881 37.654 12.7511 36.919 12.7511C36.179 12.7511 35.546 12.4881 35.021 11.9631C34.502 11.4381 34.242 10.8081 34.242 10.0731C34.242 9.3331 34.502 8.7031 35.021 8.1831C35.546 7.6581 36.179 7.3961 36.919 7.3961ZM36.919 13.4911C37.859 13.4911 38.662 13.1581 39.329 12.4911C40.001 11.8191 40.337 11.0131 40.337 10.0731C40.337 9.1281 40.001 8.3221 39.329 7.6561C38.662 6.9891 37.859 6.6551 36.919 6.6551C35.974 6.6551 35.168 6.9891 34.502 7.6561C33.835 8.3221 33.502 9.1281 33.502 10.0731C33.502 11.0131 33.835 11.8191 34.502 12.4911C35.168 13.1581 35.974 13.4911 36.919 13.4911ZM47.25 6.7111C47.323 6.7261 47.352 6.7711 47.336 6.8441L47.234 7.3561C47.218 7.4251 47.176 7.4531 47.108 7.4431C47.014 7.4271 46.916 7.4191 46.817 7.4191C46.276 7.4191 45.814 7.6111 45.431 7.9941C45.047 8.3771 44.856 8.8401 44.856 9.3801V13.3811C44.856 13.4541 44.822 13.4911 44.753 13.4911H44.226C44.152 13.4911 44.115 13.4541 44.115 13.3811V6.7421C44.115 6.6691 44.152 6.6321 44.226 6.6321H44.753C44.822 6.6321 44.856 6.6691 44.856 6.7421V7.5301C45.391 6.9631 46.045 6.6791 46.817 6.6791C46.964 6.6791 47.108 6.6901 47.25 6.7111ZM50.823 13.4911C50.897 13.4911 50.934 13.4541 50.934 13.3811V6.7731C50.934 6.7001 50.897 6.6631 50.823 6.6631H50.296C50.227 6.6631 50.193 6.7001 50.193 6.7731V13.3811C50.193 13.4541 50.227 13.4911 50.296 13.4911H50.823ZM51.099 4.4741C51.099 4.3271 51.046 4.2011 50.941 4.0961C50.836 3.9911 50.71 3.9381 50.563 3.9381C50.411 3.9381 50.285 3.9911 50.185 4.0961C50.08 4.2011 50.028 4.3271 50.028 4.4741C50.028 4.6211 50.08 4.7471 50.185 4.8521C50.285 4.9571 50.411 5.0091 50.563 5.0091C50.71 5.0091 50.836 4.9571 50.941 4.8521C51.046 4.7471 51.099 4.6211 51.099 4.4741ZM60.831 13.3811C60.831 13.4541 60.794 13.4911 60.721 13.4911H60.193C60.119 13.4911 60.083 13.4541 60.083 13.3811V13.1211C60.088 12.6591 60.091 12.0811 60.091 11.3881V11.1921V10.9791V10.5461C60.096 10.2101 60.099 9.9001 60.099 9.6161V9.3721C60.099 9.2941 60.096 9.2231 60.091 9.1601C60.075 9.0181 60.043 8.8791 59.996 8.7421C59.902 8.4591 59.752 8.2101 59.547 7.9941C59.348 7.7841 59.106 7.6241 58.823 7.5141C58.691 7.4671 58.552 7.4321 58.405 7.4111L58.35 7.4041L58.303 7.3961L58.256 7.3881H58.201H58.138H58.114H58.09H58.035H57.988C57.715 7.4041 57.46 7.4721 57.224 7.5931C57.004 7.7031 56.812 7.8471 56.649 8.0261C56.513 8.1731 56.4 8.3381 56.31 8.5221C56.242 8.6691 56.19 8.8161 56.153 8.9631C56.142 9.0211 56.135 9.0781 56.129 9.1361L56.122 9.2071L56.114 9.2621V9.3801L56.106 9.5531V13.3811C56.106 13.4541 56.069 13.4911 55.995 13.4911H55.468C55.4 13.4911 55.365 13.4541 55.365 13.3811V6.7341C55.365 6.6611 55.4 6.6241 55.468 6.6241H55.995C56.069 6.6241 56.106 6.6611 56.106 6.7341V7.6321L56.153 7.5691C56.374 7.3331 56.626 7.1381 56.909 6.9861C57.235 6.8231 57.578 6.7291 57.941 6.7031L58.012 6.6951H58.082H58.153H58.216H58.287L58.358 6.7031L58.437 6.7111L58.508 6.7181C58.702 6.7451 58.888 6.7921 59.067 6.8601C59.45 7.0021 59.781 7.2171 60.059 7.5061C60.343 7.7951 60.547 8.1311 60.673 8.5141C60.736 8.6981 60.778 8.8871 60.799 9.0811C60.81 9.1701 60.818 9.2651 60.823 9.3641V9.6161V10.0891V10.5461V10.7661V10.9791V11.3881C60.828 12.0811 60.831 12.6591 60.831 13.1211V13.3811ZM67.657 7.3801C68.397 7.3801 69.03 7.6421 69.555 8.1671C70.08 8.6921 70.342 9.3281 70.342 10.0731C70.342 10.8141 70.08 11.4461 69.555 11.9711C69.03 12.4961 68.397 12.7591 67.657 12.7591C66.917 12.7591 66.281 12.4961 65.751 11.9711C65.226 11.4461 64.964 10.8141 64.964 10.0731C64.964 9.3281 65.226 8.6921 65.751 8.1671C66.281 7.6421 66.917 7.3801 67.657 7.3801ZM70.39 13.6571C70.39 14.2761 70.206 14.8331 69.838 15.3261C69.471 15.8301 68.993 16.1611 68.405 16.3181C67.827 16.4761 67.26 16.4441 66.704 16.2241C66.158 16.0091 65.73 15.6541 65.42 15.1611C65.384 15.0981 65.334 15.0851 65.271 15.1211L64.814 15.3891C64.751 15.4261 64.738 15.4761 64.775 15.5391C65.09 16.0431 65.507 16.4391 66.027 16.7281C66.546 17.0171 67.103 17.1611 67.696 17.1611C68.641 17.1611 69.45 16.8251 70.122 16.1531C70.794 15.4811 71.13 14.6721 71.13 13.7271V6.7581C71.13 6.6841 71.093 6.6481 71.02 6.6481H70.492C70.424 6.6481 70.39 6.6841 70.39 6.7581V7.9861C70.295 7.8661 70.193 7.7501 70.082 7.6401C69.41 6.9681 68.602 6.6321 67.657 6.6321C66.707 6.6321 65.895 6.9681 65.223 7.6401C64.557 8.3121 64.223 9.1231 64.223 10.0731C64.223 11.0181 64.557 11.8271 65.223 12.4991C65.895 13.1711 66.707 13.5071 67.657 13.5071C68.602 13.5071 69.41 13.1711 70.082 12.4991C70.193 12.3891 70.295 12.2731 70.39 12.1521V13.6571ZM81.293 13.4911C81.22 13.4911 81.183 13.4541 81.183 13.3811V2.3001C81.183 2.2321 81.22 2.1981 81.293 2.1981H81.821C81.889 2.1981 81.923 2.2321 81.923 2.3001V13.3811C81.923 13.4541 81.889 13.4911 81.821 13.4911H81.293ZM86.418 13.4911C86.491 13.4911 86.528 13.4541 86.528 13.3811V6.7731C86.528 6.7001 86.491 6.6631 86.418 6.6631H85.89C85.822 6.6631 85.788 6.7001 85.788 6.7731V13.3811C85.788 13.4541 85.822 13.4911 85.89 13.4911H86.418ZM86.694 4.4741C86.694 4.3271 86.641 4.2011 86.536 4.0961C86.431 3.9911 86.305 3.9381 86.158 3.9381C86.006 3.9381 85.88 3.9911 85.78 4.0961C85.675 4.2011 85.623 4.3271 85.623 4.4741C85.623 4.6211 85.675 4.7471 85.78 4.8521C85.88 4.9571 86.006 5.0091 86.158 5.0091C86.305 5.0091 86.431 4.9571 86.536 4.8521C86.641 4.7471 86.694 4.6211 86.694 4.4741ZM101.127 13.3651C101.127 13.4391 101.09 13.4751 101.017 13.4751H100.489C100.416 13.4751 100.379 13.4391 100.379 13.3651V13.1051C100.384 12.6431 100.387 12.0681 100.387 11.3811V11.1761V10.9711V10.5381C100.392 10.2021 100.395 9.8921 100.395 9.6091V9.3641C100.395 9.2861 100.389 9.2151 100.379 9.1521C100.368 9.0101 100.34 8.8711 100.292 8.7341C100.198 8.4561 100.048 8.2101 99.844 7.9941C99.644 7.7841 99.402 7.6241 99.119 7.5141C98.988 7.4611 98.851 7.4251 98.709 7.4041H98.654L98.607 7.3961L98.552 7.3881H98.497H98.434H98.426H98.418H98.394H98.339H98.284C98.016 7.4041 97.762 7.4721 97.52 7.5931C97.305 7.7031 97.116 7.8451 96.953 8.0181C96.817 8.1701 96.704 8.3381 96.615 8.5221C96.546 8.6641 96.497 8.8111 96.465 8.9631C96.449 9.0151 96.439 9.0731 96.434 9.1361C96.434 9.1571 96.431 9.1781 96.426 9.1991V9.2541C96.42 9.3071 96.418 9.3461 96.418 9.3721L96.41 9.6011V9.6091V10.0811V10.5381V10.7581L96.418 10.9711V11.3811V13.1051V13.3651C96.423 13.4391 96.389 13.4751 96.315 13.4751H95.788C95.714 13.4751 95.677 13.4391 95.677 13.3651V13.1051C95.677 12.6431 95.68 12.0681 95.685 11.3811V10.5381V10.0811V9.6091L95.693 9.3641C95.688 9.2861 95.683 9.2151 95.677 9.1521C95.662 9.0101 95.633 8.8711 95.591 8.7341C95.496 8.4561 95.347 8.2101 95.142 7.9941C94.942 7.7841 94.701 7.6241 94.417 7.5141C94.286 7.4611 94.147 7.4251 94 7.4041H93.953L93.898 7.3961L93.85 7.3881H93.795H93.732H93.717H93.685H93.583C93.315 7.4041 93.06 7.4721 92.819 7.5931C92.603 7.7031 92.414 7.8451 92.252 8.0181C92.11 8.1701 91.997 8.3381 91.913 8.5221C91.839 8.6641 91.787 8.8111 91.756 8.9631C91.745 9.0151 91.737 9.0731 91.732 9.1361L91.724 9.1991L91.716 9.2541V9.3721L91.7 9.6951V13.3651C91.7 13.4391 91.664 13.4751 91.59 13.4751H91.07C90.997 13.4751 90.96 13.4391 90.96 13.3651V6.7341C90.96 6.6611 90.997 6.6241 91.07 6.6241H91.59C91.664 6.6241 91.7 6.6611 91.7 6.7341V7.6401L91.756 7.5691C91.971 7.3331 92.223 7.1381 92.512 6.9861C92.832 6.8231 93.173 6.7291 93.535 6.7031L93.606 6.6951H93.677H93.709H93.748H93.811H93.882L93.953 6.7031L94.032 6.7111L94.102 6.7181C94.297 6.7451 94.483 6.7921 94.662 6.8601C95.045 7.0021 95.373 7.2171 95.646 7.5061C95.819 7.6841 95.966 7.8841 96.087 8.1041C96.192 7.9101 96.318 7.7321 96.465 7.5691C96.68 7.3331 96.93 7.1381 97.213 6.9861C97.533 6.8231 97.875 6.7291 98.237 6.7031L98.308 6.6951H98.379H98.418H98.457H98.52H98.583L98.662 6.7031L98.733 6.7111L98.804 6.7181C98.998 6.7451 99.185 6.7921 99.363 6.8601C99.746 7.0021 100.077 7.2171 100.355 7.5061C100.634 7.7951 100.838 8.1281 100.97 8.5061C101.033 8.6901 101.075 8.8791 101.096 9.0731C101.106 9.1621 101.111 9.2601 101.111 9.3641V9.6091C101.111 9.8341 101.114 10.1441 101.119 10.5381V10.7581V10.9711V11.3811C101.119 12.0681 101.122 12.6431 101.127 13.1051V13.3651ZM108.638 12.7511C109.379 12.7511 110.011 12.4881 110.536 11.9631C111.061 11.4381 111.324 10.8081 111.324 10.0731C111.324 9.3331 111.061 8.7001 110.536 8.1751C110.011 7.6501 109.379 7.3881 108.638 7.3881C107.903 7.3881 107.273 7.6501 106.748 8.1751C106.223 8.7001 105.961 9.3331 105.961 10.0731C105.961 10.8081 106.223 11.4381 106.748 11.9631C107.273 12.4881 107.903 12.7511 108.638 12.7511ZM109.008 6.6711C109.796 6.7501 110.476 7.0731 111.048 7.6401C111.62 8.2071 111.951 8.8841 112.04 9.6721C112.098 10.1761 112.048 10.6671 111.891 11.1441C111.744 11.5961 111.507 12.0001 111.182 12.3571C110.862 12.7141 110.486 12.9901 110.056 13.1841C109.61 13.3891 109.137 13.4911 108.638 13.4911C108.108 13.4911 107.607 13.3731 107.134 13.1371C106.672 12.9111 106.281 12.5961 105.961 12.1921V13.3811C105.961 13.4541 105.924 13.4911 105.85 13.4911H105.331C105.257 13.4911 105.22 13.4541 105.22 13.3811V2.3161C105.22 2.2431 105.257 2.2061 105.331 2.2061H105.85C105.924 2.2061 105.961 2.2431 105.961 2.3161V7.9471C106.318 7.4951 106.759 7.1571 107.284 6.9311C107.83 6.6951 108.405 6.6081 109.008 6.6711ZM119.3 7.4671C119.357 7.4141 119.357 7.3621 119.3 7.3091C119.273 7.2831 119.252 7.2641 119.237 7.2541C119.179 7.2071 119.121 7.1621 119.063 7.1201C118.985 7.0681 118.9 7.0181 118.811 6.9701C118.575 6.8441 118.328 6.7531 118.071 6.6951C117.887 6.6581 117.727 6.6371 117.591 6.6321H117.457H117.331C117.299 6.6321 117.257 6.6341 117.205 6.6401L117.134 6.6481H117.055C116.835 6.6791 116.64 6.7261 116.472 6.7891C116.241 6.8841 116.047 7.0101 115.89 7.1671C115.711 7.3461 115.588 7.5641 115.519 7.8211L115.496 7.9151L115.48 8.0101C115.469 8.0841 115.464 8.1441 115.464 8.1911L115.456 8.2861V8.2931V8.3171V8.3251V8.3491L115.464 8.3881V8.4591L115.48 8.5691C115.49 8.6271 115.509 8.6981 115.535 8.7821C115.54 8.8081 115.551 8.8401 115.567 8.8761L115.614 8.9711C115.635 9.0181 115.669 9.0781 115.716 9.1521L115.779 9.2311C115.8 9.2621 115.821 9.2881 115.842 9.3091C115.995 9.4771 116.191 9.6321 116.433 9.7741C116.59 9.8681 116.798 9.9741 117.055 10.0891L117.134 10.1211L117.197 10.1521L117.346 10.2231L117.654 10.3571C118.116 10.5721 118.436 10.7851 118.614 10.9951C118.719 11.1211 118.788 11.2601 118.819 11.4121L118.827 11.4671C118.832 11.4941 118.835 11.5141 118.835 11.5301V11.5851L118.843 11.6171V11.6011V11.6091V11.6171L118.835 11.6401V11.6801V11.7191C118.835 11.7511 118.832 11.7741 118.827 11.7901L118.819 11.8371L118.811 11.8921C118.753 12.1971 118.583 12.4201 118.299 12.5621C118.184 12.6251 118.042 12.6751 117.874 12.7111C117.696 12.7381 117.546 12.7511 117.425 12.7511L117.37 12.7591H117.339H117.323L117.205 12.7511C117.168 12.7511 117.131 12.7481 117.094 12.7431H117.047L117 12.7351C116.895 12.7191 116.774 12.6931 116.638 12.6561C116.449 12.6041 116.265 12.5281 116.086 12.4281C116.013 12.3861 115.945 12.3411 115.882 12.2941C115.834 12.2631 115.792 12.2291 115.756 12.1921C115.703 12.1501 115.653 12.1521 115.606 12.2001L115.228 12.5621C115.17 12.6201 115.17 12.6751 115.228 12.7271C115.286 12.7741 115.349 12.8241 115.417 12.8771C115.506 12.9451 115.606 13.0081 115.716 13.0661C115.947 13.1971 116.189 13.3001 116.441 13.3731C116.614 13.4151 116.774 13.4471 116.921 13.4671L116.984 13.4751H117.055C117.107 13.4811 117.15 13.4831 117.181 13.4831L117.299 13.4911H117.315H117.346H117.378H117.449C117.612 13.4861 117.803 13.4621 118.024 13.4201C118.255 13.3731 118.459 13.3021 118.638 13.2081C118.864 13.0921 119.053 12.9371 119.205 12.7431C119.363 12.5381 119.468 12.3051 119.52 12.0421L119.536 11.9401L119.552 11.8371C119.552 11.8111 119.554 11.7821 119.559 11.7511V11.7111V11.6721V11.6481V11.6171V11.5621L119.552 11.4671C119.552 11.4411 119.549 11.4071 119.544 11.3651L119.52 11.2621C119.468 10.9951 119.347 10.7531 119.158 10.5381C119.011 10.3591 118.816 10.1941 118.575 10.0421C118.407 9.9371 118.2 9.8271 117.953 9.7111L117.654 9.5851L117.504 9.5141L117.417 9.4751L117.339 9.4431C117.107 9.3381 116.924 9.2461 116.787 9.1681C116.609 9.0631 116.47 8.9551 116.37 8.8451L116.331 8.7971L116.291 8.7501L116.26 8.7031L116.236 8.6561L116.212 8.6081L116.197 8.5611L116.181 8.5061C116.176 8.4901 116.173 8.4771 116.173 8.4671L116.157 8.4191V8.3491V8.3091L116.149 8.2861V8.2781V8.2931L116.157 8.2301C116.157 8.2041 116.16 8.1651 116.165 8.1121L116.173 8.0571L116.189 8.0021C116.225 7.8601 116.291 7.7451 116.386 7.6561C116.47 7.5611 116.583 7.4881 116.724 7.4351C116.835 7.3881 116.974 7.3541 117.142 7.3331L117.189 7.3251H117.236C117.278 7.3201 117.318 7.3171 117.354 7.3171H117.457H117.559C117.659 7.3221 117.782 7.3381 117.929 7.3641C118.123 7.4061 118.31 7.4741 118.488 7.5691C118.551 7.6001 118.614 7.6401 118.677 7.6871C118.73 7.7191 118.78 7.7551 118.827 7.7971C118.879 7.8341 118.929 7.8321 118.977 7.7891L119.3 7.4671ZM145.493 7.1671C145.981 7.1671 146.399 6.9941 146.745 6.6481C147.092 6.3011 147.265 5.8861 147.265 5.4031C147.265 4.9151 147.092 4.4981 146.745 4.1511C146.399 3.8101 145.981 3.6391 145.493 3.6391H142.682V7.1671H145.493ZM148.848 13.3421C148.864 13.3731 148.861 13.4071 148.84 13.4441C148.824 13.4751 148.795 13.4911 148.753 13.4911H147.352C147.31 13.4911 147.281 13.4731 147.265 13.4361L144.619 8.6081L144.627 8.6011H142.682V13.3651C142.682 13.4331 142.647 13.4671 142.579 13.4671H141.351C141.282 13.4671 141.248 13.4331 141.248 13.3651V2.3081C141.248 2.2401 141.282 2.2061 141.351 2.2061H145.493C146.396 2.2061 147.163 2.5291 147.793 3.1741C148.423 3.8201 148.724 4.5951 148.698 5.4981C148.672 6.2281 148.423 6.8731 147.95 7.4351C147.483 7.9811 146.897 8.3381 146.194 8.5061L148.848 13.3421ZM157.225 9.2311C157.11 8.7791 156.871 8.4191 156.509 8.1521C156.146 7.8791 155.713 7.7421 155.209 7.7421C154.679 7.7421 154.222 7.9151 153.839 8.2621C153.456 8.6031 153.225 9.0441 153.146 9.5851L157.225 9.2311ZM155.233 6.4191C156.173 6.4241 156.973 6.7711 157.635 7.4591C158.296 8.1411 158.627 8.9551 158.627 9.9001V10.3491C158.627 10.4121 158.596 10.4461 158.533 10.4511L153.335 10.9001C153.513 11.2781 153.781 11.5831 154.138 11.8141C154.5 12.0451 154.897 12.1601 155.327 12.1601C155.705 12.1601 156.06 12.0711 156.391 11.8921C156.726 11.7091 156.994 11.4591 157.194 11.1441C157.23 11.0871 157.278 11.0731 157.336 11.1051L158.304 11.6721C158.367 11.7031 158.38 11.7511 158.344 11.8141C158.023 12.3331 157.593 12.7431 157.052 13.0421C156.517 13.3421 155.942 13.4911 155.327 13.4911C154.356 13.4911 153.524 13.1451 152.831 12.4521C152.138 11.7641 151.791 10.9321 151.791 9.9551C151.791 8.9581 152.125 8.1181 152.792 7.4351C153.458 6.7531 154.272 6.4141 155.233 6.4191ZM166.201 12.1601C166.81 12.1601 167.333 11.9451 167.768 11.5141C168.199 11.0841 168.414 10.5641 168.414 9.9551C168.414 9.3461 168.199 8.8241 167.768 8.3881C167.333 7.9581 166.81 7.7421 166.201 7.7421C165.603 7.7421 165.088 7.9521 164.658 8.3721C164.232 8.7921 164.012 9.3011 163.996 9.9001V10.0021C164.012 10.6011 164.232 11.1101 164.658 11.5301C165.088 11.9501 165.603 12.1601 166.201 12.1601ZM166.351 6.4191C167.249 6.4561 168.023 6.7921 168.674 7.4271C169.325 8.0621 169.679 8.8261 169.737 9.7191C169.769 10.2231 169.698 10.7091 169.525 11.1761C169.357 11.6271 169.107 12.0261 168.776 12.3731C168.078 13.1181 167.22 13.4911 166.201 13.4911C165.377 13.4911 164.642 13.2311 163.996 12.7111V13.3651C163.996 13.4331 163.962 13.4671 163.894 13.4671H162.752C162.684 13.4671 162.649 13.4331 162.649 13.3651V2.2921C162.649 2.2241 162.684 2.1901 162.752 2.1901H163.894C163.962 2.1901 163.996 2.2241 163.996 2.2921V7.1911C164.684 6.6401 165.469 6.3821 166.351 6.4191ZM178.012 6.4351C178.012 6.3671 178.046 6.3321 178.115 6.3321H179.257C179.325 6.3321 179.359 6.3671 179.359 6.4351V13.3341C179.359 13.4021 179.325 13.4361 179.257 13.4361H178.115C178.046 13.4361 178.012 13.4021 178.012 13.3341V12.9561C177.881 13.0501 177.752 13.1291 177.626 13.1921C177.28 13.3651 176.915 13.4621 176.532 13.4831L176.461 13.4911H176.421H176.406H176.366H176.248L176.162 13.4831L176.083 13.4751L176.004 13.4671L175.933 13.4601C175.728 13.4231 175.529 13.3681 175.335 13.2941C174.941 13.1421 174.597 12.9061 174.303 12.5851C174.009 12.2651 173.799 11.9031 173.673 11.4991C173.615 11.2991 173.579 11.0941 173.563 10.8841C173.557 10.7951 173.552 10.7011 173.547 10.6011V10.4831V10.3731V9.4831V9.2701L173.539 9.0651V8.6871C173.534 8.0261 173.531 7.4771 173.531 7.0411V6.4821C173.531 6.4091 173.565 6.3721 173.634 6.3721H174.76C174.828 6.3721 174.862 6.4091 174.862 6.4821L174.854 7.0411C174.854 7.4771 174.852 8.0261 174.846 8.6871V9.4831L174.839 9.6951V9.9161V10.3731V10.4911V10.6011V10.7901C174.849 10.9051 174.87 11.0181 174.902 11.1291C174.965 11.3541 175.075 11.5571 175.232 11.7351C175.395 11.9131 175.584 12.0471 175.799 12.1371C175.91 12.1791 176.02 12.2101 176.13 12.2311L176.177 12.2391L176.217 12.2471H176.288L176.39 12.2551H176.429H176.469C176.899 12.2391 177.261 12.0761 177.556 11.7661C177.671 11.6511 177.765 11.5171 177.839 11.3651C177.891 11.2551 177.934 11.1361 177.965 11.0101C177.976 10.9531 177.983 10.9051 177.989 10.8691L177.997 10.8451V10.8211V10.7821L178.004 10.6641L178.012 10.5771V6.4351ZM184.862 6.4191C184.93 6.4191 184.964 6.4531 184.964 6.5221V13.3891C184.964 13.4571 184.93 13.4911 184.862 13.4911H183.744C183.675 13.4911 183.641 13.4571 183.641 13.3891V6.5221C183.641 6.4531 183.675 6.4191 183.744 6.4191H184.862ZM184.303 5.1201C184.093 5.1201 183.914 5.0461 183.767 4.8991C183.615 4.7471 183.539 4.5661 183.539 4.3561C183.539 4.1461 183.615 3.9671 183.767 3.8201C183.914 3.6731 184.093 3.6001 184.303 3.6001C184.513 3.6001 184.691 3.6731 184.838 3.8201C184.985 3.9671 185.059 4.1461 185.059 4.3561C185.059 4.5661 184.985 4.7471 184.838 4.8991C184.691 5.0461 184.513 5.1201 184.303 5.1201ZM189.191 13.4911C189.123 13.4911 189.089 13.4571 189.089 13.3891V2.2921C189.089 2.2241 189.123 2.1901 189.191 2.1901H190.341C190.409 2.1901 190.444 2.2241 190.444 2.2921V13.3891C190.444 13.4571 190.409 13.4911 190.341 13.4911H189.191ZM199.609 9.9081C199.593 9.3091 199.372 8.8001 198.947 8.3801C198.516 7.9601 198.002 7.7501 197.403 7.7501C196.794 7.7501 196.275 7.9651 195.844 8.3961C195.414 8.8261 195.198 9.3461 195.198 9.9551C195.198 10.5641 195.414 11.0871 195.844 11.5221C196.275 11.9531 196.794 12.1681 197.403 12.1681C198.002 12.1681 198.516 11.9581 198.947 11.5381C199.372 11.1181 199.593 10.6091 199.609 10.0101V9.9081ZM199.609 2.3081C199.609 2.2401 199.643 2.2061 199.711 2.2061H200.853C200.921 2.2061 200.955 2.2401 200.955 2.3081V13.3731C200.955 13.4411 200.921 13.4751 200.853 13.4751H199.711C199.643 13.4751 199.609 13.4411 199.609 13.3731V12.7191C198.963 13.2341 198.228 13.4911 197.403 13.4911C196.905 13.4911 196.43 13.3911 195.978 13.1921C195.542 12.9981 195.162 12.7271 194.836 12.3811C194.133 11.6351 193.812 10.7511 193.875 9.7271C193.933 8.8341 194.287 8.0701 194.938 7.4351C195.589 6.8001 196.364 6.4641 197.262 6.4271C198.138 6.3901 198.921 6.6481 199.609 7.1991V2.3081ZM206.458 6.4191C206.526 6.4191 206.561 6.4531 206.561 6.5221V13.3891C206.561 13.4571 206.526 13.4911 206.458 13.4911H205.34C205.272 13.4911 205.237 13.4571 205.237 13.3891V6.5221C205.237 6.4531 205.272 6.4191 205.34 6.4191H206.458ZM205.899 5.1201C205.689 5.1201 205.51 5.0461 205.363 4.8991C205.211 4.7471 205.135 4.5661 205.135 4.3561C205.135 4.1461 205.211 3.9671 205.363 3.8201C205.51 3.6731 205.689 3.6001 205.899 3.6001C206.109 3.6001 206.287 3.6731 206.435 3.8201C206.581 3.9671 206.655 4.1461 206.655 4.3561C206.655 4.5661 206.581 4.7471 206.435 4.8991C206.287 5.0461 206.109 5.1201 205.899 5.1201ZM216.356 11.1841C216.361 11.8351 216.363 12.3781 216.363 12.8141L216.371 13.3731C216.371 13.4411 216.337 13.4751 216.269 13.4751H215.135C215.067 13.4751 215.032 13.4411 215.032 13.3731L215.04 12.8141C215.04 12.3781 215.043 11.8351 215.048 11.1841C215.048 11.0101 215.051 10.7481 215.056 10.3961V10.1831V9.9631V9.5141V9.2861L215.048 9.1201C215.038 9.0051 215.017 8.8951 214.985 8.7901C214.912 8.5691 214.793 8.3721 214.631 8.1991C214.473 8.0311 214.282 7.9051 214.056 7.8211C213.956 7.7791 213.848 7.7501 213.733 7.7341L213.686 7.7261C213.67 7.7211 213.659 7.7191 213.654 7.7191H213.631H213.615H213.568L213.513 7.7111H213.497H213.481H213.434L213.394 7.7191C212.974 7.7341 212.62 7.9001 212.331 8.2151C212.216 8.3301 212.124 8.4621 212.056 8.6081C211.998 8.7241 211.956 8.8421 211.93 8.9631C211.914 9.0211 211.903 9.0651 211.898 9.0971V9.1281V9.1521L211.89 9.1911C211.89 9.2381 211.887 9.2751 211.882 9.3011V9.3961V13.3891C211.882 13.4571 211.848 13.4911 211.78 13.4911H210.63C210.562 13.4911 210.528 13.4571 210.528 13.3891V6.4741C210.528 6.4061 210.562 6.3721 210.63 6.3721H211.78C211.848 6.3721 211.882 6.4061 211.882 6.4741V7.0101C212.003 6.9211 212.121 6.8471 212.237 6.7891C212.573 6.6161 212.932 6.5141 213.316 6.4821L213.387 6.4741H213.457H213.497H213.528H213.544H213.599H213.67L213.709 6.4821H213.749C213.775 6.4821 213.801 6.4851 213.828 6.4901L213.906 6.4981C214.111 6.5291 214.308 6.5791 214.497 6.6481C214.901 6.7951 215.248 7.0201 215.536 7.3251C215.836 7.6291 216.054 7.9811 216.19 8.3801C216.258 8.5741 216.303 8.7741 216.324 8.9791C216.34 9.0781 216.348 9.1811 216.348 9.2861V9.5141V9.9631V10.1831L216.356 10.3961V11.1841ZM223.347 12.1681C223.956 12.1681 224.478 11.9531 224.914 11.5221C225.344 11.0871 225.56 10.5641 225.56 9.9551C225.56 9.3461 225.344 8.8241 224.914 8.3881C224.478 7.9581 223.956 7.7421 223.347 7.7421C222.733 7.7421 222.21 7.9581 221.78 8.3881C221.344 8.8241 221.126 9.3461 221.126 9.9551C221.126 10.5641 221.344 11.0871 221.78 11.5221C222.21 11.9531 222.733 12.1681 223.347 12.1681ZM225.599 6.4981C225.599 6.4301 225.633 6.3951 225.702 6.3951H226.828C226.896 6.3951 226.93 6.4301 226.93 6.4981V13.3971C226.93 14.3731 226.584 15.2081 225.891 15.9011C225.198 16.5941 224.363 16.9411 223.386 16.9411C222.772 16.9411 222.194 16.7911 221.654 16.4921C221.118 16.1871 220.69 15.7751 220.37 15.2551C220.333 15.1971 220.344 15.1501 220.401 15.1131L221.378 14.5541C221.436 14.5181 221.483 14.5281 221.52 14.5861C221.782 15.0001 222.142 15.2951 222.599 15.4681C223.071 15.6461 223.549 15.6621 224.032 15.5151C224.499 15.3731 224.88 15.0981 225.174 14.6881C225.457 14.2841 225.599 13.8321 225.599 13.3341V12.6881C224.943 13.2291 224.192 13.4991 223.347 13.4991C222.848 13.4991 222.37 13.3991 221.914 13.2001C221.478 13.0061 221.095 12.7331 220.764 12.3811C220.06 11.6351 219.743 10.7481 219.811 9.7191C219.869 8.8211 220.226 8.0521 220.882 7.4111C221.543 6.7761 222.326 6.4431 223.229 6.4111C224.121 6.3801 224.911 6.6501 225.599 7.2221V6.4981ZM237.259 13.4911C237.19 13.4911 237.156 13.4571 237.156 13.3891V2.2921C237.156 2.2241 237.19 2.1901 237.259 2.1901H238.409C238.477 2.1901 238.511 2.2241 238.511 2.2921V13.3891C238.511 13.4571 238.477 13.4911 238.409 13.4911H237.259ZM244.014 6.4191C244.082 6.4191 244.116 6.4531 244.116 6.5221V13.3891C244.116 13.4571 244.082 13.4911 244.014 13.4911H242.896C242.827 13.4911 242.793 13.4571 242.793 13.3891V6.5221C242.793 6.4531 242.827 6.4191 242.896 6.4191H244.014ZM243.455 5.1201C243.245 5.1201 243.066 5.0461 242.919 4.8991C242.767 4.7471 242.691 4.5661 242.691 4.3561C242.691 4.1461 242.767 3.9671 242.919 3.8201C243.066 3.6731 243.245 3.6001 243.455 3.6001C243.665 3.6001 243.843 3.6731 243.99 3.8201C244.137 3.9671 244.211 4.1461 244.211 4.3561C244.211 4.5661 244.137 4.7471 243.99 4.8991C243.843 5.0461 243.665 5.1201 243.455 5.1201ZM252.037 6.4111C252.053 6.3691 252.084 6.3481 252.131 6.3481H253.352C253.389 6.3481 253.418 6.3611 253.439 6.3881C253.46 6.4191 253.462 6.4511 253.446 6.4821L250.887 13.3971C250.871 13.4441 250.837 13.4671 250.785 13.4671H249.887C249.84 13.4671 249.808 13.4441 249.792 13.3971L247.225 6.4821C247.214 6.4511 247.22 6.4191 247.241 6.3881C247.257 6.3611 247.283 6.3481 247.32 6.3481H248.54C248.593 6.3481 248.627 6.3691 248.643 6.4111L250.336 10.9871L252.037 6.4111ZM261.399 9.2311C261.283 8.7791 261.044 8.4191 260.682 8.1521C260.32 7.8791 259.887 7.7421 259.383 7.7421C258.852 7.7421 258.395 7.9151 258.012 8.2621C257.629 8.6031 257.398 9.0441 257.319 9.5851L261.399 9.2311ZM259.406 6.4191C260.346 6.4241 261.147 6.7711 261.808 7.4591C262.47 8.1411 262.8 8.9551 262.8 9.9001V10.3491C262.8 10.4121 262.769 10.4461 262.706 10.4511L257.508 10.9001C257.687 11.2781 257.954 11.5831 258.312 11.8141C258.674 12.0451 259.07 12.1601 259.501 12.1601C259.879 12.1601 260.233 12.0711 260.564 11.8921C260.9 11.7091 261.168 11.4591 261.367 11.1441C261.404 11.0871 261.451 11.0731 261.509 11.1051L262.478 11.6721C262.541 11.7031 262.554 11.7511 262.517 11.8141C262.197 12.3331 261.766 12.7431 261.225 13.0421C260.69 13.3421 260.115 13.4911 259.501 13.4911C258.529 13.4911 257.697 13.1451 257.004 12.4521C256.311 11.7641 255.965 10.9321 255.965 9.9551C255.965 8.9581 256.298 8.1181 256.965 7.4351C257.632 6.7531 258.445 6.4141 259.406 6.4191ZM270.768 11.3571V11.4121V11.4831V11.5541V11.5771L270.76 11.5931V11.6401L270.745 11.7591L270.729 11.8771C270.671 12.1711 270.553 12.4331 270.375 12.6641C270.206 12.8851 269.997 13.0581 269.745 13.1841C269.55 13.2841 269.33 13.3631 269.083 13.4201C268.857 13.4621 268.658 13.4861 268.485 13.4911H268.414H268.382H268.343H268.327L268.217 13.4831H268.091C268.054 13.4781 268.007 13.4731 267.949 13.4671C267.791 13.4471 267.623 13.4121 267.445 13.3651C267.182 13.2971 266.933 13.1951 266.697 13.0581C266.576 12.9901 266.463 12.9161 266.358 12.8371C266.285 12.7851 266.219 12.7301 266.161 12.6721C266.109 12.6251 266.109 12.5751 266.161 12.5221L266.98 11.7431C267.022 11.7061 267.067 11.7031 267.114 11.7351C267.156 11.7721 267.196 11.8031 267.232 11.8291C267.28 11.8611 267.319 11.8871 267.35 11.9081C267.497 11.9921 267.65 12.0551 267.807 12.0971L267.878 12.1211L267.949 12.1371L267.988 12.1441L268.028 12.1521C268.059 12.1581 268.083 12.1601 268.099 12.1601L268.13 12.1681H268.162C268.193 12.1731 268.227 12.1761 268.264 12.1761L268.374 12.1841L268.445 12.1761C268.545 12.1761 268.668 12.1651 268.815 12.1441C268.946 12.1131 269.054 12.0761 269.138 12.0341C269.311 11.9401 269.419 11.8011 269.461 11.6171L269.469 11.5851L269.477 11.5621V11.5381V11.5141V11.4991L269.485 11.4281V11.4121V11.3961L269.477 11.3571C269.482 11.3461 269.482 11.3361 269.477 11.3251L269.469 11.2861C269.453 11.1971 269.411 11.1101 269.343 11.0261C269.206 10.8631 268.941 10.6901 268.548 10.5061L268.256 10.3731L268.114 10.3091L268.083 10.2941L268.059 10.2861V10.2781L267.988 10.2541C267.736 10.1391 267.532 10.0341 267.374 9.9391C267.117 9.7871 266.907 9.6221 266.744 9.4431C266.723 9.4221 266.699 9.3931 266.673 9.3571L266.61 9.2621C266.558 9.1891 266.518 9.1231 266.492 9.0651L266.437 8.9551C266.421 8.9131 266.408 8.8761 266.398 8.8451L266.366 8.7271L266.35 8.6641L266.342 8.6011C266.332 8.5531 266.324 8.5091 266.319 8.4671V8.3961L266.311 8.3561V8.3411V8.3331V8.3011V8.2861L266.319 8.1831C266.319 8.1251 266.324 8.0571 266.335 7.9781C266.34 7.9311 266.355 7.8631 266.382 7.7741C266.461 7.4801 266.602 7.2331 266.807 7.0331C266.98 6.8501 267.196 6.7081 267.453 6.6081C267.637 6.5401 267.844 6.4901 268.075 6.4581C268.217 6.4481 268.311 6.4431 268.359 6.4431L268.492 6.4351L268.626 6.4431C268.773 6.4481 268.939 6.4691 269.122 6.5061C269.39 6.5691 269.647 6.6661 269.894 6.7971C269.989 6.8441 270.075 6.8971 270.154 6.9551C270.222 6.9971 270.285 7.0411 270.343 7.0891C270.359 7.1041 270.385 7.1311 270.422 7.1671C270.48 7.2151 270.482 7.2641 270.43 7.3171L269.705 8.0181C269.663 8.0601 269.619 8.0621 269.571 8.0261C269.529 7.9941 269.49 7.9651 269.453 7.9391C269.401 7.9081 269.359 7.8811 269.327 7.8601C269.18 7.7871 269.028 7.7321 268.87 7.6951C268.75 7.6741 268.65 7.6631 268.571 7.6631L268.485 7.6561L268.398 7.6631H268.295L268.256 7.6711H268.225C268.093 7.6921 267.986 7.7191 267.902 7.7501C267.812 7.7921 267.742 7.8391 267.689 7.8921C267.637 7.9441 267.6 8.0131 267.579 8.0971L267.571 8.1281L267.563 8.1671L267.555 8.2071V8.2461V8.2861V8.3251L267.563 8.3961V8.4041H267.571V8.4121V8.4191L267.579 8.4511L267.587 8.4751L267.602 8.4981L267.634 8.5531L267.658 8.5851L267.681 8.6161C267.755 8.6951 267.862 8.7771 268.004 8.8601C268.125 8.9291 268.29 9.0071 268.5 9.0971L268.563 9.1281L268.658 9.1681L268.8 9.2381L269.075 9.3571C269.322 9.4671 269.529 9.5771 269.697 9.6871C269.954 9.8451 270.162 10.0181 270.319 10.2071C270.529 10.4491 270.666 10.7221 270.729 11.0261L270.745 11.1361C270.755 11.1841 270.76 11.2201 270.76 11.2471L270.768 11.3571Z" fill="#003683"/>
<path d="M130.741 1.90735e-06V18.024" stroke="#003683" stroke-width="0.62"/>
</svg>
