<svg width="596" height="16" viewBox="0 0 596 16" fill="none" xmlns="http://www.w3.org/2000/svg">
<g clip-path="url(#clip0_770_2)">
<path d="M595.581 14.2681L276.758 14.4121" stroke="#4FB29E" stroke-width="1.01"/>
<path d="M276.766 14.4088L204.204 14.2938C204.204 14.2938 197.572 2.99283 195.175 1.81383C195.175 1.81383 193.729 0.448834 191.892 3.06583C191.892 3.06583 186.635 11.3248 185.913 12.2068C185.913 12.2068 184.003 15.0908 181.183 15.0908C181.183 15.0908 179.591 14.8588 178.33 14.4828C178.33 14.4828 168.872 11.7518 167.348 11.7518C167.348 11.7518 165.952 11.6148 162.619 12.6188C162.619 12.6188 159.109 13.7098 154.176 14.1418C154.176 14.1418 148.939 14.3688 146.321 11.3728" stroke="#4FB29E" stroke-width="1.01"/>
<path d="M146.707 11.4575L-0.694336 11.5235" stroke="#4FB29E" stroke-width="1.01"/>
</g>
<defs>
<clipPath id="clip0_770_2">
<rect width="596" height="16" fill="white"/>
</clipPath>
</defs>
</svg>
