<svg width="766" height="15" viewBox="0 0 766 15" fill="none" xmlns="http://www.w3.org/2000/svg">
<path d="M447.004 13.4558L375.444 13.3408C375.444 13.3408 368.904 2.03984 366.54 0.860836C366.54 0.860836 365.114 -0.504164 363.302 2.11284C363.302 2.11284 358.118 10.3718 357.406 11.2538C357.406 11.2538 355.522 14.1378 352.742 14.1378C352.742 14.1378 351.171 13.9058 349.928 13.5298C349.928 13.5298 340.601 10.7988 339.097 10.7988C339.097 10.7988 337.721 10.6618 334.433 11.6658C334.433 11.6658 330.973 12.7568 326.107 13.1888C326.107 13.1888 320.943 13.4158 318.36 10.4198" stroke="#4FB29E" stroke-width="1.01"/>
<path d="M318.823 10.5403L0 10.6843" stroke="#4FB29E" stroke-width="1.01"/>
<path d="M765.819 13.3149L446.996 13.4589" stroke="#4FB29E" stroke-width="1.01"/>
</svg>
