<svg width="164" height="63" viewBox="0 0 164 63" fill="none" xmlns="http://www.w3.org/2000/svg">
<path d="M20.9801 57.5771C21.3041 57.3731 21.6551 57.2711 22.0341 57.2711C22.1471 57.2711 22.2561 57.2801 22.3611 57.2991C22.4091 57.3061 22.4291 57.3331 22.4211 57.3801L22.2631 58.1451C22.2521 58.1881 22.2251 58.2071 22.1811 58.1991C22.1341 58.1921 22.0851 58.1881 22.0341 58.1881C21.7651 58.1881 21.5301 58.2791 21.3291 58.4611C21.1291 58.6401 21.0131 58.8621 20.9801 59.1271V62.0871C20.9801 62.1341 20.9561 62.1581 20.9091 62.1581H20.1171C20.0701 62.1581 20.0461 62.1341 20.0461 62.0871V57.3041C20.0461 57.2571 20.0701 57.2331 20.1171 57.2331H20.9091C20.9561 57.2331 20.9801 57.2571 20.9801 57.3041V57.5771Z" fill="#083783"/>
<path d="M27.0621 57.255C27.7141 57.258 28.2691 57.499 28.7271 57.976C29.1861 58.449 29.4151 59.013 29.4151 59.668V59.979C29.4151 60.023 29.3931 60.047 29.3501 60.05L25.7461 60.361C25.8701 60.623 26.0561 60.835 26.3031 60.995C26.5541 61.155 26.8291 61.235 27.1281 61.235C27.3891 61.235 27.6351 61.173 27.8641 61.049C28.0971 60.922 28.2831 60.749 28.4211 60.531C28.4471 60.491 28.4801 60.481 28.5201 60.503L29.1911 60.896C29.2351 60.918 29.2441 60.951 29.2191 60.995C28.9961 61.355 28.6981 61.639 28.3231 61.846C27.9521 62.054 27.5531 62.158 27.1281 62.158C26.4541 62.158 25.8771 61.917 25.3971 61.437C24.9161 60.96 24.6761 60.383 24.6761 59.706C24.6761 59.015 24.9071 58.432 25.3701 57.959C25.8321 57.486 26.3961 57.251 27.0621 57.255ZM28.4431 59.204C28.3631 58.891 28.1981 58.642 27.9461 58.456C27.6951 58.267 27.3951 58.172 27.0461 58.172C26.6781 58.172 26.3611 58.292 26.0961 58.532C25.8301 58.769 25.6701 59.075 25.6151 59.45L28.4431 59.204Z" fill="#083783"/>
<path d="M34.5908 61.2405C34.8818 61.2405 35.1488 61.1635 35.3928 61.0115C35.4338 60.9895 35.4658 60.9965 35.4918 61.0335L35.9278 61.6775C35.9578 61.7175 35.9498 61.7505 35.9068 61.7755C35.5058 62.0305 35.0678 62.1575 34.5908 62.1575C33.8958 62.1575 33.3058 61.9065 32.8218 61.4045C32.3378 60.8985 32.1118 60.2945 32.1448 59.5915C32.1708 58.9805 32.3998 58.4505 32.8328 58.0025C33.2658 57.5555 33.7868 57.3075 34.3938 57.2605C34.9398 57.2165 35.4428 57.3405 35.9008 57.6315C35.9448 57.6575 35.9518 57.6915 35.9228 57.7355L35.4858 58.3795C35.4608 58.4165 35.4298 58.4215 35.3928 58.3965C35.0838 58.2105 34.7468 58.1415 34.3828 58.1885C34.0378 58.2325 33.7408 58.3835 33.4928 58.6415C33.2458 58.9005 33.1038 59.2045 33.0678 59.5535C33.0238 60.0085 33.1548 60.4035 33.4608 60.7385C33.7668 61.0735 34.1428 61.2405 34.5908 61.2405Z" fill="#083783"/>
<path d="M40.9673 57.2331C41.6483 57.2331 42.2263 57.4711 42.7033 57.9481C43.1843 58.4281 43.4243 59.0071 43.4243 59.6841C43.4243 60.3651 43.1843 60.9461 42.7033 61.4261C42.2263 61.9031 41.6483 62.1411 40.9673 62.1411C40.2903 62.1411 39.7113 61.9031 39.2313 61.4261C38.7503 60.9461 38.5103 60.3651 38.5103 59.6841C38.5103 59.0071 38.7503 58.4281 39.2313 57.9481C39.7113 57.4711 40.2903 57.2331 40.9673 57.2331ZM40.9673 61.2241C41.3933 61.2241 41.7553 61.0731 42.0543 60.7711C42.3563 60.4721 42.5073 60.1101 42.5073 59.6841C42.5073 59.2621 42.3563 58.9021 42.0543 58.6031C41.7553 58.3011 41.3933 58.1501 40.9673 58.1501C40.5453 58.1501 40.1853 58.3011 39.8863 58.6031C39.5843 58.9021 39.4333 59.2621 39.4333 59.6841C39.4333 60.1101 39.5843 60.4721 39.8863 60.7711C40.1853 61.0731 40.5453 61.2241 40.9673 61.2241Z" fill="#083783"/>
<path d="M50.6578 60.558C50.6618 61.009 50.6638 61.386 50.6638 61.688L50.6688 62.076C50.6688 62.123 50.6448 62.147 50.5978 62.147H49.8118C49.7648 62.147 49.7408 62.123 49.7408 62.076L49.7458 61.688C49.7458 61.386 49.7478 61.009 49.7518 60.558C49.7518 60.438 49.7538 60.256 49.7568 60.012V59.865V59.712V59.401V59.242L49.7518 59.128C49.7448 59.047 49.7298 58.971 49.7078 58.898C49.6568 58.745 49.5748 58.609 49.4618 58.489C49.3528 58.372 49.2198 58.285 49.0638 58.227C48.9948 58.198 48.9198 58.178 48.8398 58.167L48.8068 58.161C48.7958 58.158 48.7888 58.156 48.7858 58.156H48.7688H48.7578H48.7248L48.6868 58.15H48.6758H48.6648H48.6328L48.6048 58.156C48.3138 58.167 48.0678 58.281 47.8678 58.5C47.7878 58.58 47.7238 58.671 47.6768 58.773C47.6368 58.853 47.6078 58.935 47.5898 59.018C47.5788 59.058 47.5708 59.089 47.5678 59.111V59.133V59.149L47.5618 59.177C47.5618 59.209 47.5598 59.235 47.5568 59.253V59.319V62.087C47.5568 62.134 47.5328 62.158 47.4858 62.158H46.6888C46.6418 62.158 46.6178 62.134 46.6178 62.087V57.293C46.6178 57.246 46.6418 57.222 46.6888 57.222H47.4858C47.5328 57.222 47.5568 57.246 47.5568 57.293V57.664C47.6408 57.602 47.7228 57.552 47.8028 57.511C48.0358 57.391 48.2848 57.32 48.5508 57.299L48.5998 57.293H48.6488H48.6758H48.6978H48.7088H48.7468H48.7958L48.8238 57.299H48.8508C48.8688 57.299 48.8868 57.3 48.9048 57.304L48.9598 57.309C49.1018 57.331 49.2388 57.366 49.3698 57.413C49.6498 57.515 49.8898 57.672 50.0898 57.883C50.2978 58.094 50.4488 58.338 50.5438 58.614C50.5908 58.749 50.6218 58.887 50.6358 59.029C50.6468 59.099 50.6528 59.169 50.6528 59.242V59.401V59.712V59.865L50.6578 60.012V60.558Z" fill="#083783"/>
<path d="M56.8546 60.678V60.716V60.766V60.815V60.831L56.8486 60.842V60.875L56.8386 60.957L56.8276 61.038C56.7876 61.242 56.7056 61.424 56.5816 61.584C56.4646 61.737 56.3196 61.857 56.1446 61.945C56.0106 62.014 55.8576 62.069 55.6866 62.109C55.5296 62.138 55.3916 62.154 55.2716 62.158H55.2216H55.2006H55.1726H55.1626L55.0856 62.152H54.9986C54.9726 62.149 54.9396 62.145 54.8996 62.141C54.7906 62.127 54.6746 62.103 54.5506 62.07C54.3686 62.023 54.1956 61.952 54.0316 61.857C53.9486 61.81 53.8696 61.759 53.7976 61.704C53.7466 61.668 53.7006 61.63 53.6606 61.59C53.6246 61.557 53.6246 61.523 53.6606 61.486L54.2286 60.946C54.2576 60.92 54.2886 60.918 54.3216 60.94C54.3506 60.966 54.3776 60.988 54.4036 61.006C54.4356 61.027 54.4636 61.046 54.4856 61.06C54.5866 61.118 54.6926 61.162 54.8016 61.191L54.8506 61.208L54.8996 61.219L54.9276 61.224L54.9546 61.23C54.9766 61.233 54.9926 61.235 55.0036 61.235L55.0256 61.24H55.0476C55.0696 61.244 55.0926 61.246 55.1186 61.246L55.1946 61.251L55.2436 61.246C55.3126 61.246 55.3986 61.239 55.5006 61.224C55.5916 61.202 55.6666 61.177 55.7246 61.148C55.8446 61.082 55.9196 60.986 55.9486 60.858L55.9536 60.836L55.9596 60.82V60.804V60.787V60.776L55.9646 60.727V60.716V60.705L55.9596 60.678C55.9626 60.671 55.9626 60.663 55.9596 60.656L55.9536 60.629C55.9426 60.567 55.9136 60.507 55.8666 60.449C55.7716 60.336 55.5876 60.216 55.3146 60.088L55.1126 59.996L55.0146 59.952L54.9926 59.941L54.9766 59.936V59.93L54.9276 59.914C54.7526 59.834 54.6106 59.761 54.5016 59.695C54.3226 59.59 54.1776 59.475 54.0646 59.352C54.0506 59.337 54.0336 59.317 54.0156 59.291L53.9716 59.226C53.9356 59.175 53.9086 59.13 53.8896 59.089L53.8516 59.013C53.8406 58.984 53.8316 58.958 53.8246 58.936L53.8026 58.855L53.7916 58.811L53.7866 58.767C53.7786 58.734 53.7736 58.703 53.7696 58.674V58.625L53.7646 58.598V58.587V58.582V58.56V58.549L53.7696 58.478C53.7696 58.438 53.7736 58.39 53.7806 58.336C53.7846 58.303 53.7956 58.256 53.8136 58.194C53.8686 57.99 53.9666 57.819 54.1086 57.681C54.2286 57.553 54.3776 57.455 54.5556 57.386C54.6836 57.339 54.8276 57.304 54.9876 57.282C55.0856 57.275 55.1516 57.271 55.1836 57.271L55.2766 57.266L55.3696 57.271C55.4716 57.275 55.5856 57.289 55.7136 57.315C55.8996 57.359 56.0776 57.426 56.2486 57.517C56.3136 57.55 56.3746 57.586 56.4286 57.626C56.4756 57.655 56.5196 57.686 56.5596 57.719C56.5706 57.73 56.5886 57.748 56.6146 57.774C56.6546 57.806 56.6556 57.841 56.6196 57.877L56.1176 58.363C56.0886 58.392 56.0576 58.394 56.0246 58.369C55.9956 58.347 55.9686 58.327 55.9426 58.309C55.9066 58.287 55.8776 58.269 55.8556 58.254C55.7536 58.203 55.6486 58.165 55.5386 58.139C55.4546 58.125 55.3856 58.118 55.3316 58.118L55.2716 58.112L55.2116 58.118H55.1406L55.1126 58.123H55.0906C54.9996 58.138 54.9256 58.156 54.8676 58.178C54.8056 58.207 54.7566 58.24 54.7196 58.276C54.6836 58.312 54.6576 58.36 54.6436 58.418L54.6376 58.44L54.6326 58.467L54.6276 58.494V58.522V58.549V58.576L54.6326 58.625V58.631H54.6376V58.636V58.642L54.6436 58.664L54.6486 58.68L54.6596 58.696L54.6816 58.734L54.6976 58.756L54.7146 58.778C54.7656 58.833 54.8396 58.889 54.9386 58.947C55.0216 58.995 55.1366 59.049 55.2826 59.111L55.3256 59.133L55.3916 59.16L55.4896 59.209L55.6806 59.291C55.8516 59.368 55.9956 59.444 56.1116 59.521C56.2906 59.63 56.4346 59.75 56.5436 59.881C56.6886 60.048 56.7836 60.238 56.8276 60.449L56.8386 60.525C56.8456 60.558 56.8486 60.583 56.8486 60.602L56.8546 60.678Z" fill="#083783"/>
<path d="M61.2875 61.2076C61.4045 61.2656 61.5405 61.2456 61.6975 61.1476C61.7335 61.1256 61.7645 61.1336 61.7895 61.1696L62.2535 61.7916C62.2865 61.8316 62.2815 61.8646 62.2375 61.8896C61.9785 62.0686 61.7075 62.1576 61.4235 62.1576C61.2315 62.1576 61.0475 62.1136 60.8725 62.0266C60.6505 61.9176 60.4755 61.7506 60.3485 61.5246C60.2245 61.2986 60.1625 61.0436 60.1625 60.7596V58.1556H59.4155C59.3675 58.1556 59.3435 58.1316 59.3435 58.0846V57.3096C59.3435 57.2626 59.3675 57.2386 59.4155 57.2386H60.1625L60.1575 56.2066C60.1575 56.1596 60.1815 56.1356 60.2285 56.1356H61.0095C61.0565 56.1356 61.0805 56.1596 61.0805 56.2066V57.2386H61.8285C61.8755 57.2386 61.8995 57.2626 61.8995 57.3096V58.0846C61.8995 58.1316 61.8755 58.1556 61.8285 58.1556H61.0805V60.7596C61.0805 60.9896 61.1495 61.1386 61.2875 61.2076Z" fill="#083783"/>
<path d="M66.1463 57.5771C66.4703 57.3731 66.8213 57.2711 67.2003 57.2711C67.3133 57.2711 67.4223 57.2801 67.5273 57.2991C67.5743 57.3061 67.5953 57.3331 67.5873 57.3801L67.4293 58.1451C67.4183 58.1881 67.3913 58.2071 67.3473 58.1991C67.3003 58.1921 67.2513 58.1881 67.2003 58.1881C66.9303 58.1881 66.6953 58.2791 66.4953 58.4611C66.2953 58.6401 66.1793 58.8621 66.1463 59.1271V62.0871C66.1463 62.1341 66.1223 62.1581 66.0753 62.1581H65.2833C65.2363 62.1581 65.2123 62.1341 65.2123 62.0871V57.3041C65.2123 57.2571 65.2363 57.2331 65.2833 57.2331H66.0753C66.1223 57.2331 66.1463 57.2571 66.1463 57.3041V57.5771Z" fill="#083783"/>
<path d="M73.3801 57.2657C73.3801 57.2187 73.4041 57.1947 73.4511 57.1947H74.2431C74.2901 57.1947 74.3141 57.2187 74.3141 57.2657V62.0487C74.3141 62.0957 74.2901 62.1197 74.2431 62.1197H73.4511C73.4041 62.1197 73.3801 62.0957 73.3801 62.0487V61.7867C73.2891 61.8517 73.2001 61.9067 73.1131 61.9497C72.8721 62.0707 72.6191 62.1377 72.3541 62.1517L72.3041 62.1577H72.2771H72.2661H72.2391H72.1571L72.0971 62.1517L72.0431 62.1467L71.9881 62.1407L71.9391 62.1357C71.7971 62.1107 71.6581 62.0717 71.5241 62.0217C71.2511 61.9157 71.0121 61.7517 70.8091 61.5297C70.6051 61.3077 70.4591 61.0567 70.3721 60.7767C70.3321 60.6377 70.3061 60.4957 70.2951 60.3507C70.2921 60.2887 70.2881 60.2227 70.2841 60.1537V60.0717V59.9957V59.3787V59.2317L70.2791 59.0897V58.8267C70.2751 58.3687 70.2741 57.9887 70.2741 57.6867V57.2987C70.2741 57.2477 70.2971 57.2217 70.3451 57.2217H71.1251C71.1721 57.2217 71.1961 57.2477 71.1961 57.2987L71.1911 57.6867C71.1911 57.9887 71.1891 58.3687 71.1851 58.8267V59.3787L71.1801 59.5257V59.6787V59.9957V60.0777V60.1537V60.2847C71.1871 60.3657 71.2021 60.4437 71.2241 60.5197C71.2671 60.6767 71.3441 60.8167 71.4531 60.9397C71.5661 61.0637 71.6971 61.1567 71.8461 61.2187C71.9221 61.2477 71.9991 61.2697 72.0751 61.2837L72.1081 61.2897L72.1351 61.2947H72.1841L72.2551 61.3007H72.2831H72.3101C72.6081 61.2897 72.8591 61.1767 73.0631 60.9617C73.1441 60.8817 73.2091 60.7887 73.2601 60.6837C73.2961 60.6067 73.3251 60.5247 73.3471 60.4377C73.3551 60.3977 73.3601 60.3657 73.3641 60.3397L73.3691 60.3237V60.3067V60.2797L73.3751 60.1977L73.3801 60.1377V57.2657Z" fill="#083783"/>
<path d="M79.6369 61.2405C79.9279 61.2405 80.1949 61.1635 80.4389 61.0115C80.4799 60.9895 80.5119 60.9965 80.5379 61.0335L80.9739 61.6775C81.0039 61.7175 80.9959 61.7505 80.9529 61.7755C80.5519 62.0305 80.1139 62.1575 79.6369 62.1575C78.9419 62.1575 78.3519 61.9065 77.8679 61.4045C77.3839 60.8985 77.1579 60.2945 77.1909 59.5915C77.2169 58.9805 77.4459 58.4505 77.8789 58.0025C78.3119 57.5555 78.8329 57.3075 79.4399 57.2605C79.9859 57.2165 80.4889 57.3405 80.9469 57.6315C80.9909 57.6575 80.9979 57.6915 80.9689 57.7355L80.5319 58.3795C80.5069 58.4165 80.4759 58.4215 80.4389 58.3965C80.1299 58.2105 79.7929 58.1415 79.4289 58.1885C79.0829 58.2325 78.7869 58.3835 78.5399 58.6415C78.2919 58.9005 78.1499 59.2045 78.1139 59.5535C78.0699 60.0085 78.2009 60.4035 78.5069 60.7385C78.8129 61.0735 79.1889 61.2405 79.6369 61.2405Z" fill="#083783"/>
<path d="M85.4944 61.2076C85.6114 61.2656 85.7474 61.2456 85.9044 61.1476C85.9404 61.1256 85.9714 61.1336 85.9964 61.1696L86.4604 61.7916C86.4934 61.8316 86.4884 61.8646 86.4444 61.8896C86.1854 62.0686 85.9154 62.1576 85.6314 62.1576C85.4384 62.1576 85.2544 62.1136 85.0794 62.0266C84.8574 61.9176 84.6824 61.7506 84.5554 61.5246C84.4314 61.2986 84.3704 61.0436 84.3704 60.7596V58.1556H83.6224C83.5744 58.1556 83.5504 58.1316 83.5504 58.0846V57.3096C83.5504 57.2626 83.5744 57.2386 83.6224 57.2386H84.3704L84.3644 56.2066C84.3644 56.1596 84.3874 56.1356 84.4354 56.1356H85.2164C85.2634 56.1356 85.2864 56.1596 85.2864 56.2066V57.2386H86.0354C86.0824 57.2386 86.1064 57.2626 86.1064 57.3096V58.0846C86.1064 58.1316 86.0824 58.1556 86.0354 58.1556H85.2864V60.7596C85.2864 60.9896 85.3564 61.1386 85.4944 61.2076Z" fill="#083783"/>
<path d="M90.0206 56.354C89.8746 56.354 89.7516 56.303 89.6496 56.201C89.5436 56.096 89.4906 55.97 89.4906 55.824C89.4906 55.679 89.5436 55.555 89.6496 55.453C89.7516 55.351 89.8746 55.3 90.0206 55.3C90.1656 55.3 90.2896 55.351 90.3916 55.453C90.4936 55.555 90.5446 55.679 90.5446 55.824C90.5446 55.97 90.4936 56.096 90.3916 56.201C90.2896 56.303 90.1656 56.354 90.0206 56.354ZM90.4086 57.255C90.4556 57.255 90.4786 57.279 90.4786 57.326V62.087C90.4786 62.134 90.4556 62.158 90.4086 62.158H89.6326C89.5856 62.158 89.5616 62.134 89.5616 62.087V57.326C89.5616 57.279 89.5856 57.255 89.6326 57.255H90.4086Z" fill="#083783"/>
<path d="M95.6873 57.2331C96.3683 57.2331 96.9473 57.4711 97.4243 57.9481C97.9043 58.4281 98.1443 59.0071 98.1443 59.6841C98.1443 60.3651 97.9043 60.9461 97.4243 61.4261C96.9473 61.9031 96.3683 62.1411 95.6873 62.1411C95.0103 62.1411 94.4313 61.9031 93.9513 61.4261C93.4713 60.9461 93.2313 60.3651 93.2313 59.6841C93.2313 59.0071 93.4713 58.4281 93.9513 57.9481C94.4313 57.4711 95.0103 57.2331 95.6873 57.2331ZM95.6873 61.2241C96.1133 61.2241 96.4753 61.0731 96.7743 60.7711C97.0763 60.4721 97.2273 60.1101 97.2273 59.6841C97.2273 59.2621 97.0763 58.9021 96.7743 58.6031C96.4753 58.3011 96.1133 58.1501 95.6873 58.1501C95.2653 58.1501 94.9053 58.3011 94.6063 58.6031C94.3043 58.9021 94.1533 59.2621 94.1533 59.6841C94.1533 60.1101 94.3043 60.4721 94.6063 60.7711C94.9053 61.0731 95.2653 61.2241 95.6873 61.2241Z" fill="#083783"/>
<path d="M105.378 60.558C105.382 61.009 105.383 61.386 105.383 61.688L105.389 62.076C105.389 62.123 105.366 62.147 105.318 62.147H104.532C104.485 62.147 104.461 62.123 104.461 62.076L104.467 61.688C104.467 61.386 104.468 61.009 104.472 60.558C104.472 60.438 104.474 60.256 104.478 60.012V59.865V59.712V59.401V59.242L104.472 59.128C104.465 59.047 104.45 58.971 104.428 58.898C104.377 58.745 104.295 58.609 104.183 58.489C104.073 58.372 103.94 58.285 103.784 58.227C103.715 58.198 103.64 58.178 103.56 58.167L103.527 58.161C103.517 58.158 103.509 58.156 103.506 58.156H103.489H103.478H103.445L103.407 58.15H103.396H103.386H103.353L103.326 58.156C103.034 58.167 102.788 58.281 102.588 58.5C102.508 58.58 102.445 58.671 102.397 58.773C102.357 58.853 102.328 58.935 102.31 59.018C102.299 59.058 102.291 59.089 102.288 59.111V59.133V59.149L102.282 59.177C102.282 59.209 102.28 59.235 102.277 59.253V59.319V62.087C102.277 62.134 102.254 62.158 102.206 62.158H101.409C101.362 62.158 101.338 62.134 101.338 62.087V57.293C101.338 57.246 101.362 57.222 101.409 57.222H102.206C102.254 57.222 102.277 57.246 102.277 57.293V57.664C102.361 57.602 102.443 57.552 102.523 57.511C102.756 57.391 103.005 57.32 103.271 57.299L103.32 57.293H103.369H103.396H103.418H103.429H103.467H103.517L103.544 57.299H103.571C103.589 57.299 103.608 57.3 103.625 57.304L103.68 57.309C103.822 57.331 103.959 57.366 104.09 57.413C104.37 57.515 104.61 57.672 104.81 57.883C105.018 58.094 105.169 58.338 105.264 58.614C105.311 58.749 105.342 58.887 105.357 59.029C105.368 59.099 105.373 59.169 105.373 59.242V59.401V59.712V59.865L105.378 60.012V60.558Z" fill="#083783"/>
<path d="M116.384 57.2657C116.384 57.2187 116.407 57.1947 116.455 57.1947H117.247C117.294 57.1947 117.317 57.2187 117.317 57.2657V62.0487C117.317 62.0957 117.294 62.1197 117.247 62.1197H116.455C116.407 62.1197 116.384 62.0957 116.384 62.0487V61.7867C116.293 61.8517 116.204 61.9067 116.117 61.9497C115.876 62.0707 115.623 62.1377 115.357 62.1517L115.308 62.1577H115.281H115.27H115.243H115.161L115.101 62.1517L115.047 62.1467L114.992 62.1407L114.943 62.1357C114.801 62.1107 114.662 62.0717 114.528 62.0217C114.255 61.9157 114.016 61.7517 113.812 61.5297C113.609 61.3077 113.463 61.0567 113.376 60.7767C113.335 60.6377 113.31 60.4957 113.299 60.3507C113.295 60.2887 113.292 60.2227 113.289 60.1537V60.0717V59.9957V59.3787V59.2317L113.283 59.0897V58.8267C113.279 58.3687 113.278 57.9887 113.278 57.6867V57.2987C113.278 57.2477 113.301 57.2217 113.348 57.2217H114.129C114.177 57.2217 114.2 57.2477 114.2 57.2987L114.194 57.6867C114.194 57.9887 114.193 58.3687 114.189 58.8267V59.3787L114.183 59.5257V59.6787V59.9957V60.0777V60.1537V60.2847C114.191 60.3657 114.205 60.4437 114.227 60.5197C114.271 60.6767 114.348 60.8167 114.457 60.9397C114.57 61.0637 114.7 61.1567 114.85 61.2187C114.926 61.2477 115.003 61.2697 115.079 61.2837L115.112 61.2897L115.139 61.2947H115.188L115.259 61.3007H115.286H115.314C115.612 61.2897 115.863 61.1767 116.067 60.9617C116.148 60.8817 116.213 60.7887 116.264 60.6837C116.3 60.6067 116.329 60.5247 116.351 60.4377C116.359 60.3977 116.364 60.3657 116.368 60.3397L116.373 60.3237V60.3067V60.2797L116.379 60.1977L116.384 60.1377V57.2657Z" fill="#083783"/>
<path d="M124.699 60.558C124.702 61.009 124.704 61.386 124.704 61.688L124.71 62.076C124.71 62.123 124.686 62.147 124.639 62.147H123.853C123.805 62.147 123.782 62.123 123.782 62.076L123.787 61.688C123.787 61.386 123.789 61.009 123.793 60.558C123.793 60.438 123.795 60.256 123.798 60.012V59.865V59.712V59.401V59.242L123.793 59.128C123.786 59.047 123.771 58.971 123.749 58.898C123.698 58.745 123.616 58.609 123.503 58.489C123.394 58.372 123.261 58.285 123.105 58.227C123.036 58.198 122.961 58.178 122.881 58.167L122.848 58.161C122.837 58.158 122.83 58.156 122.826 58.156H122.81H122.799H122.766L122.728 58.15H122.717H122.706H122.674L122.646 58.156C122.355 58.167 122.109 58.281 121.909 58.5C121.829 58.58 121.765 58.671 121.718 58.773C121.678 58.853 121.649 58.935 121.63 59.018C121.62 59.058 121.613 59.089 121.609 59.111V59.133V59.149L121.604 59.177C121.604 59.209 121.602 59.235 121.598 59.253V59.319V62.087C121.598 62.134 121.574 62.158 121.527 62.158H120.73C120.683 62.158 120.659 62.134 120.659 62.087V57.293C120.659 57.246 120.683 57.222 120.73 57.222H121.527C121.574 57.222 121.598 57.246 121.598 57.293V57.664C121.682 57.602 121.764 57.552 121.843 57.511C122.076 57.391 122.326 57.32 122.592 57.299L122.641 57.293H122.69H122.717H122.739H122.75H122.788H122.837L122.865 57.299H122.892C122.91 57.299 122.928 57.3 122.946 57.304L123.001 57.309C123.143 57.331 123.28 57.366 123.41 57.413C123.691 57.515 123.931 57.672 124.131 57.883C124.339 58.094 124.489 58.338 124.584 58.614C124.632 58.749 124.663 58.887 124.677 59.029C124.688 59.099 124.694 59.169 124.694 59.242V59.401V59.712V59.865L124.699 60.012V60.558Z" fill="#083783"/>
<path d="M128.652 56.354C128.506 56.354 128.383 56.303 128.281 56.201C128.175 56.096 128.122 55.97 128.122 55.824C128.122 55.679 128.175 55.555 128.281 55.453C128.383 55.351 128.506 55.3 128.652 55.3C128.798 55.3 128.921 55.351 129.023 55.453C129.125 55.555 129.176 55.679 129.176 55.824C129.176 55.97 129.125 56.096 129.023 56.201C128.921 56.303 128.798 56.354 128.652 56.354ZM129.04 57.255C129.087 57.255 129.11 57.279 129.11 57.326V62.087C129.11 62.134 129.087 62.158 129.04 62.158H128.264C128.217 62.158 128.194 62.134 128.194 62.087V57.326C128.194 57.279 128.217 57.255 128.264 57.255H129.04Z" fill="#083783"/>
<path d="M133.8 61.2076C133.916 61.2656 134.053 61.2456 134.209 61.1476C134.245 61.1256 134.276 61.1336 134.302 61.1696L134.766 61.7916C134.799 61.8316 134.793 61.8646 134.75 61.8896C134.491 62.0686 134.22 62.1576 133.936 62.1576C133.743 62.1576 133.56 62.1136 133.385 62.0266C133.163 61.9176 132.988 61.7506 132.861 61.5246C132.737 61.2986 132.675 61.0436 132.675 60.7596V58.1556H131.927C131.88 58.1556 131.856 58.1316 131.856 58.0846V57.3096C131.856 57.2626 131.88 57.2386 131.927 57.2386H132.675L132.67 56.2066C132.67 56.1596 132.694 56.1356 132.74 56.1356H133.521C133.569 56.1356 133.593 56.1596 133.593 56.2066V57.2386H134.34C134.388 57.2386 134.411 57.2626 134.411 57.3096V58.0846C134.411 58.1316 134.388 58.1556 134.34 58.1556H133.593V60.7596C133.593 60.9896 133.661 61.1386 133.8 61.2076Z" fill="#083783"/>
<path d="M104.681 39.2533V39.3743C104.627 39.3743 104.58 39.4683 104.54 39.6553C104.5 39.8433 104.453 39.9773 104.399 40.0573C104.212 40.2183 104.118 40.6073 104.118 41.2233C103.822 41.9473 103.581 42.8593 103.394 43.9583C103.206 45.0583 103.139 45.8753 103.193 46.4113C103.3 47.2963 104.037 48.0063 105.405 48.5423C106.021 48.7843 106.476 48.9043 106.772 48.9043C107.388 49.0393 108.622 48.8513 110.471 48.3413C110.766 48.2613 111.115 48.1943 111.517 48.1403C111.919 48.0873 112.335 47.9793 112.764 47.8193C113.863 47.5243 114.493 47.4303 114.654 47.5373C114.948 47.7783 115.029 48.1003 114.895 48.5023C114.814 48.7173 114.385 49.0393 113.608 49.4673C112.83 49.8963 112.08 50.2183 111.356 50.4323C110.525 50.8083 109.52 51.0493 108.34 51.1563C107.16 51.2633 106.262 51.2103 105.646 50.9953C104.6 50.7273 103.648 50.1973 102.791 49.4073C101.932 48.6173 101.383 47.7783 101.142 46.8943C101.062 46.3043 101.014 45.5803 101.001 44.7223C100.987 43.8653 101.021 43.3293 101.102 43.1143C101.182 43.0603 101.215 42.9263 101.202 42.7113C101.188 42.4973 101.283 42.0883 101.484 41.4853C101.685 40.8823 101.745 40.4063 101.665 40.0573C101.799 39.7633 101.932 39.5483 102.067 39.4143C102.254 39.2003 102.321 38.9653 102.268 38.7103C102.214 38.4563 102.321 38.1413 102.59 37.7653L102.951 37.1623C102.978 36.9753 103.186 36.3783 103.575 35.3733C103.963 34.3673 104.225 33.7583 104.359 33.5433V33.4623C104.466 33.1953 104.614 32.9133 104.801 32.6183C104.962 31.5463 105.807 29.7903 107.335 27.3503C109.533 23.7853 110.967 21.9753 111.638 21.9213C111.933 21.8953 112.227 22.0293 112.522 22.3233C112.817 22.6183 113.005 22.9003 113.085 23.1683C113.273 23.8113 113.246 24.1603 113.005 24.2133C112.656 24.4553 111.96 25.3263 110.914 26.8273C109.868 28.3293 109.024 29.6693 108.381 30.8493L106.812 34.1063C106.169 35.4733 105.566 36.9483 105.002 38.5293C104.788 38.7443 104.681 38.9853 104.681 39.2533Z" fill="#4FB29E"/>
<path d="M118.555 45.6072L118.716 44.7622C118.689 44.6022 118.796 44.1592 119.037 43.4352C119.52 42.3642 120.164 40.4732 120.968 37.7652C120.968 37.4442 121.182 37.2702 121.611 37.2432C121.933 37.1362 122.174 37.1292 122.335 37.2232C122.496 37.3172 122.71 37.5782 122.978 38.0072C123.381 38.4092 123.347 39.1332 122.878 40.1782C122.409 41.2242 122.12 42.0282 122.014 42.5912C121.611 43.4762 121.31 44.3202 121.109 45.1242C120.908 45.9292 120.727 46.4652 120.566 46.7332C120.324 47.8332 120.103 48.4762 119.902 48.6632C119.701 48.8512 119.406 48.7372 119.017 48.3212C118.629 47.9062 118.407 47.4302 118.354 46.8942C118.3 46.3582 118.367 45.9292 118.555 45.6072ZM123.863 27.9132C124.48 27.4852 125.083 27.7392 125.673 28.6772C125.887 29.2142 125.954 29.6362 125.874 29.9442C125.794 30.2522 125.498 30.7152 124.989 31.3312C124.266 32.2962 123.542 32.4712 122.818 31.8542C122.496 31.5862 122.321 31.2512 122.295 30.8492C122.268 30.4472 122.281 30.2322 122.335 30.2052C122.549 30.1792 122.797 29.9442 123.079 29.5022C123.361 29.0592 123.494 28.6972 123.481 28.4162C123.467 28.1342 123.595 27.9672 123.863 27.9132Z" fill="#4FB29E"/>
<path d="M128.025 37.0415C128.306 36.3175 128.447 35.7685 128.447 35.3935C128.447 35.0175 128.601 34.7235 128.91 34.5085C129.217 34.2945 129.519 34.2135 129.814 34.2665C130.565 34.4275 130.953 34.9105 130.98 35.7145C131.007 36.1435 130.9 36.6665 130.659 37.2835C129.479 40.1785 128.89 41.7605 128.89 42.0285C128.916 42.1355 129.157 41.9945 129.613 41.6055C130.069 41.2175 130.544 40.7955 131.041 40.3395C131.537 39.8835 132.341 39.3075 133.454 38.6095C134.566 37.9135 135.417 37.4705 136.007 37.2835C136.168 37.2835 136.302 37.2965 136.409 37.3235C136.516 37.3505 136.604 37.3705 136.671 37.3835C136.737 37.3975 136.832 37.4505 136.952 37.5445C137.073 37.6385 137.16 37.6985 137.214 37.7255C137.428 37.9665 137.676 38.2275 137.957 38.5095C138.239 38.7905 138.299 39.2805 138.139 39.9775L137.334 42.5105C139.345 40.7955 140.685 39.7625 141.356 39.4145C142.669 38.7445 143.648 38.8915 144.291 39.8565C144.613 40.1785 144.78 40.4735 144.794 40.7415C144.807 41.0095 144.814 41.1835 144.814 41.2645V42.6315C144.975 44.7225 145.102 45.8285 145.196 45.9485C145.29 46.0695 145.639 46.1775 146.242 46.2705C146.845 46.3645 147.173 46.5585 147.227 46.8535C147.28 47.1495 147.106 47.4305 146.704 47.6985C145.98 48.1275 145.095 48.1475 144.05 47.7585C143.005 47.3705 142.495 46.1435 142.522 44.0795C142.575 43.2745 142.595 42.6455 142.582 42.1885C142.569 41.7335 142.468 41.5055 142.281 41.5055C141.932 41.5055 141.181 41.9615 140.029 42.8725C138.607 44.0255 137.347 45.2315 136.248 46.4915C136.114 46.6795 136.007 46.8075 135.927 46.8735C135.846 46.9415 135.739 47.0345 135.605 47.1555C135.471 47.2765 135.364 47.3505 135.284 47.3765C135.203 47.4035 135.095 47.4305 134.962 47.4565C134.774 47.5115 134.385 47.2965 133.795 46.8135C133.554 46.5995 133.487 46.2905 133.594 45.8885L134.519 43.2345C135.377 41.1705 135.712 40.1385 135.525 40.1385C135.284 40.1655 134.948 40.2925 134.519 40.5205C134.09 40.7485 133.822 40.9695 133.715 41.1835C133.635 41.1835 133.447 41.3315 133.152 41.6255C132.857 41.9215 132.616 42.1225 132.428 42.2295C132.294 42.4445 131.851 42.9195 131.101 43.6565C130.35 44.3945 129.848 44.8775 129.593 45.1045C129.338 45.3325 129.03 45.6745 128.668 46.1295C128.306 46.5865 128.011 46.9685 127.784 47.2765C127.556 47.5845 127.415 47.7385 127.362 47.7385C126.53 47.7385 126.007 47.3365 125.793 46.5325C125.605 46.1295 125.592 45.5535 125.753 44.8025C125.914 44.0525 126.06 43.4095 126.195 42.8725C126.329 42.3365 126.43 41.9015 126.497 41.5655C126.563 41.2305 126.624 40.9425 126.678 40.7005C126.731 40.4595 126.771 40.2925 126.798 40.1985C126.825 40.1045 126.885 39.9235 126.979 39.6555C127.073 39.3875 127.2 39.0665 127.362 38.6905C127.522 38.3155 127.743 37.7655 128.025 37.0415Z" fill="#4FB29E"/>
<path d="M151.771 35.7547L152.214 34.3877C152.347 34.2807 152.596 33.6977 152.957 32.6387C153.32 31.5797 153.661 30.7017 153.983 30.0047C154.948 27.8597 155.618 26.2647 155.993 25.2187C156.155 24.9777 156.329 24.6957 156.516 24.3747C156.891 23.6777 157.146 23.3027 157.281 23.2487C157.495 23.1947 157.769 23.2357 158.105 23.3687C158.44 23.5037 158.694 23.7047 158.869 23.9717C159.043 24.2407 159.09 24.4947 159.01 24.7367C158.929 24.9777 158.399 26.1307 157.421 28.1947C156.442 30.2597 155.698 31.9487 155.189 33.2617C154.68 34.5757 154.224 35.8217 153.822 37.0017C153.42 38.1817 153.151 38.9457 153.018 39.2937L152.817 40.1787L153.822 39.2127C154.144 38.9717 154.652 38.5437 155.35 37.9267C156.047 37.3097 156.482 36.9477 156.657 36.8407C156.831 36.7337 157.226 36.5457 157.843 36.2777C158.889 35.8217 159.908 35.5937 160.9 35.5937C161.891 35.5937 162.722 36.1567 163.393 37.2827C164.036 38.4897 163.942 39.7897 163.111 41.1837C162.709 41.4787 162.494 41.7867 162.468 42.1087C162.441 42.4307 161.757 43.3287 160.417 44.8027C159.72 45.5267 158.802 46.2507 157.663 46.9747C156.523 47.6977 155.739 48.1347 155.31 48.2817C154.881 48.4287 154.532 48.5297 154.264 48.5827C153.594 48.6637 153.165 48.7307 152.978 48.7837C152.441 48.7307 152.113 48.6637 151.992 48.5827C151.872 48.5027 151.731 48.2887 151.57 47.9397C151.248 47.5917 151.114 47.2827 151.168 47.0147C151.49 47.0147 151.677 46.9617 151.731 46.8537C151.731 46.6927 151.986 46.6397 152.495 46.6927C153.004 46.7467 153.943 46.3707 155.31 45.5667C156.677 44.7627 158.044 43.7307 159.412 42.4707C160.403 41.1837 161.027 40.2457 161.281 39.6557C161.536 39.0667 161.569 38.5697 161.382 38.1677C161.328 37.8997 160.933 37.8057 160.196 37.8857C159.458 37.9667 158.714 38.2617 157.964 38.7707C155.069 40.5677 153.124 42.5777 152.133 44.8027L151.932 45.2047C151.932 45.3127 151.778 45.4467 151.47 45.6067C151.161 45.7677 150.9 45.8487 150.685 45.8487C150.256 45.6617 150.001 45.3657 149.921 44.9637C149.546 44.6957 149.358 44.4607 149.358 44.2597C149.358 44.0587 149.546 43.2887 149.921 41.9477C150.136 40.9297 150.41 39.8707 150.746 38.7707C151.081 37.6717 151.315 37.0687 151.449 36.9617C151.664 36.5857 151.771 36.1837 151.771 35.7547Z" fill="#4FB29E"/>
<path d="M13.1183 48.0401C13.1763 48.0891 13.1893 48.1481 13.1563 48.2141C13.1313 48.2801 13.0813 48.3131 13.0063 48.3131H10.1493C10.0993 48.3131 10.0623 48.2971 10.0373 48.2631L2.67732 41.3991V48.1521C2.67732 48.2591 2.62332 48.3131 2.51532 48.3131H0.557318C0.448318 48.3131 0.394318 48.2591 0.394318 48.1521V30.6861C0.394318 30.5791 0.448318 30.5251 0.557318 30.5251H2.51532C2.62332 30.5251 2.67732 30.5791 2.67732 30.6861V37.2901L9.43832 30.5871C9.47132 30.5541 9.50932 30.5371 9.55032 30.5371H12.3203C12.3953 30.5371 12.4443 30.5711 12.4703 30.6371C12.5033 30.7031 12.4943 30.7611 12.4443 30.8111L3.82532 39.3631L13.1183 48.0401Z" fill="#083783"/>
<path d="M13.1183 48.0401C13.1763 48.0891 13.1893 48.1481 13.1563 48.2141C13.1313 48.2801 13.0813 48.3131 13.0063 48.3131H10.1493C10.0993 48.3131 10.0623 48.2971 10.0373 48.2631L2.67732 41.3991V48.1521C2.67732 48.2591 2.62332 48.3131 2.51532 48.3131H0.557318C0.448318 48.3131 0.394318 48.2591 0.394318 48.1521V30.6861C0.394318 30.5791 0.448318 30.5251 0.557318 30.5251H2.51532C2.62332 30.5251 2.67732 30.5791 2.67732 30.6861V37.2901L9.43832 30.5871C9.47132 30.5541 9.50932 30.5371 9.55032 30.5371H12.3203C12.3953 30.5371 12.4443 30.5711 12.4703 30.6371C12.5033 30.7031 12.4943 30.7611 12.4443 30.8111L3.82532 39.3631L13.1183 48.0401Z" stroke="#003683" stroke-width="0.762"/>
<path d="M17.5911 30.5373C17.7081 30.5373 17.7661 30.5913 17.7661 30.6983V48.1523C17.7661 48.2593 17.7081 48.3133 17.5911 48.3133H15.4781C15.3611 48.3133 15.3031 48.2593 15.3031 48.1523V30.6983C15.3031 30.5913 15.3611 30.5373 15.4781 30.5373H17.5911Z" fill="#083783"/>
<path d="M17.5911 30.5373C17.7081 30.5373 17.7661 30.5913 17.7661 30.6983V48.1523C17.7661 48.2593 17.7081 48.3133 17.5911 48.3133H15.4781C15.3611 48.3133 15.3031 48.2593 15.3031 48.1523V30.6983C15.3031 30.5913 15.3611 30.5373 15.4781 30.5373H17.5911Z" stroke="#003683" stroke-width="0.762"/>
<path d="M30.17 30.5005C30.279 30.5005 30.333 30.5545 30.333 30.6615V42.6775C30.333 44.2335 29.778 45.5615 28.668 46.6625C27.549 47.7625 26.209 48.3135 24.649 48.3135C23.664 48.3135 22.737 48.0735 21.869 47.5935C21.009 47.1135 20.321 46.4595 19.803 45.6315C19.745 45.5405 19.762 45.4665 19.854 45.4085L21.556 44.4275C21.648 44.3785 21.723 44.3985 21.782 44.4895C22.09 44.9695 22.499 45.3505 23.008 45.6315C23.518 45.9055 24.064 46.0415 24.649 46.0415C25.583 46.0415 26.38 45.7145 27.04 45.0605C27.708 44.3985 28.042 43.6045 28.042 42.6775V30.6615C28.042 30.5545 28.096 30.5005 28.204 30.5005H30.17Z" fill="#083783"/>
<path d="M30.17 30.5005C30.279 30.5005 30.333 30.5545 30.333 30.6615V42.6775C30.333 44.2335 29.778 45.5615 28.668 46.6625C27.549 47.7625 26.209 48.3135 24.649 48.3135C23.664 48.3135 22.737 48.0735 21.869 47.5935C21.009 47.1135 20.321 46.4595 19.803 45.6315C19.745 45.5405 19.762 45.4665 19.854 45.4085L21.556 44.4275C21.648 44.3785 21.723 44.3985 21.782 44.4895C22.09 44.9695 22.499 45.3505 23.008 45.6315C23.518 45.9055 24.064 46.0415 24.649 46.0415C25.583 46.0415 26.38 45.7145 27.04 45.0605C27.708 44.3985 28.042 43.6045 28.042 42.6775V30.6615C28.042 30.5545 28.096 30.5005 28.204 30.5005H30.17Z" stroke="#003683" stroke-width="0.762"/>
<path d="M41.5387 30.5005C41.6137 30.5005 41.6627 30.5335 41.6877 30.5995L48.9557 48.0895C48.9807 48.1395 48.9767 48.1885 48.9437 48.2385C48.9107 48.2885 48.8647 48.3135 48.8067 48.3135H46.8187C46.7447 48.3135 46.6947 48.2805 46.6697 48.2135L43.8247 41.3615H37.5257L34.6807 48.2135C34.6557 48.2805 34.6057 48.3135 34.5317 48.3135H32.5437C32.4857 48.3135 32.4397 48.2885 32.4067 48.2385C32.3737 48.1885 32.3697 48.1395 32.3947 48.0895L39.6627 30.5995C39.6957 30.5335 39.7457 30.5005 39.8117 30.5005H41.5387ZM42.9177 39.2015L40.6817 33.8025L38.4327 39.2015H42.9177Z" fill="#083783"/>
<path d="M41.5387 30.5005C41.6137 30.5005 41.6627 30.5335 41.6877 30.5995L48.9557 48.0895C48.9807 48.1395 48.9767 48.1885 48.9437 48.2385C48.9107 48.2885 48.8647 48.3135 48.8067 48.3135H46.8187C46.7447 48.3135 46.6947 48.2805 46.6697 48.2135L43.8247 41.3615H37.5257L34.6807 48.2135C34.6557 48.2805 34.6057 48.3135 34.5317 48.3135H32.5437C32.4857 48.3135 32.4397 48.2885 32.4067 48.2385C32.3737 48.1885 32.3697 48.1395 32.3947 48.0895L39.6627 30.5995C39.6957 30.5335 39.7457 30.5005 39.8117 30.5005H41.5387ZM42.9177 39.2015L40.6817 33.8025L38.4327 39.2015H42.9177Z" stroke="#003683" stroke-width="0.762"/>
<path d="M61.1976 38.6307C61.9716 39.1187 62.5786 39.7647 63.0196 40.5677C63.4686 41.3867 63.6806 42.2717 63.6566 43.2237C63.6146 44.6467 63.0656 45.8517 62.0086 46.8357C60.9606 47.8207 59.7126 48.3127 58.2646 48.3127H51.3756C51.2676 48.3127 51.2136 48.2597 51.2136 48.1517V30.6987C51.2136 30.5917 51.2676 30.5377 51.3756 30.5377H57.8156C59.1216 30.5377 60.2406 30.9967 61.1726 31.9147C62.1046 32.8257 62.5826 33.9307 62.6076 35.2297C62.6326 36.5457 62.1626 37.6797 61.1976 38.6307ZM53.4846 37.8117H57.8156C58.5056 37.8117 59.0966 37.5677 59.5876 37.0787C60.0866 36.5907 60.3366 35.9987 60.3366 35.3037C60.3366 34.6177 60.0866 34.0297 59.5876 33.5417C59.0966 33.0447 58.5056 32.7967 57.8156 32.7967H53.4846V37.8117ZM58.3776 46.0537C59.2086 46.0537 59.9166 45.7607 60.4986 45.1727C61.0896 44.5937 61.3846 43.8897 61.3846 43.0627C61.3846 42.2427 61.0896 41.5397 60.4986 40.9517C59.9166 40.3727 59.2086 40.0827 58.3776 40.0827H53.4846V46.0537H58.3776Z" fill="#083783"/>
<path d="M61.1976 38.6307C61.9716 39.1187 62.5786 39.7647 63.0196 40.5677C63.4686 41.3867 63.6806 42.2717 63.6566 43.2237C63.6146 44.6467 63.0656 45.8517 62.0086 46.8357C60.9606 47.8207 59.7126 48.3127 58.2646 48.3127H51.3756C51.2676 48.3127 51.2136 48.2597 51.2136 48.1517V30.6987C51.2136 30.5917 51.2676 30.5377 51.3756 30.5377H57.8156C59.1216 30.5377 60.2406 30.9967 61.1726 31.9147C62.1046 32.8257 62.5826 33.9307 62.6076 35.2297C62.6326 36.5457 62.1626 37.6797 61.1976 38.6307ZM53.4846 37.8117H57.8156C58.5056 37.8117 59.0966 37.5677 59.5876 37.0787C60.0866 36.5907 60.3366 35.9987 60.3366 35.3037C60.3366 34.6177 60.0866 34.0297 59.5876 33.5417C59.0966 33.0447 58.5056 32.7967 57.8156 32.7967H53.4846V37.8117ZM58.3776 46.0537C59.2086 46.0537 59.9166 45.7607 60.4986 45.1727C61.0896 44.5937 61.3846 43.8897 61.3846 43.0627C61.3846 42.2427 61.0896 41.5397 60.4986 40.9517C59.9166 40.3727 59.2086 40.0827 58.3776 40.0827H53.4846V46.0537H58.3776Z" stroke="#003683" stroke-width="0.762"/>
<path d="M79.0029 30.5373C79.1109 30.5373 79.1649 30.5913 79.1649 30.6983V32.6353C79.1649 32.7423 79.1109 32.7963 79.0029 32.7963H69.4979V38.2953H76.3799C76.4879 38.2953 76.5429 38.3493 76.5429 38.4573V40.3933C76.5429 40.5013 76.4879 40.5553 76.3799 40.5553H69.4979V46.0543H79.0029C79.1109 46.0543 79.1649 46.1083 79.1649 46.2153V48.1523C79.1649 48.2593 79.1109 48.3133 79.0029 48.3133H67.3879C67.2789 48.3133 67.2249 48.2593 67.2249 48.1523V30.6983C67.2249 30.5913 67.2789 30.5373 67.3879 30.5373H79.0029Z" fill="#083783"/>
<path d="M79.0029 30.5373C79.1109 30.5373 79.1649 30.5913 79.1649 30.6983V32.6353C79.1649 32.7423 79.1109 32.7963 79.0029 32.7963H69.4979V38.2953H76.3799C76.4879 38.2953 76.5429 38.3493 76.5429 38.4573V40.3933C76.5429 40.5013 76.4879 40.5553 76.3799 40.5553H69.4979V46.0543H79.0029C79.1109 46.0543 79.1649 46.1083 79.1649 46.2153V48.1523C79.1649 48.2593 79.1109 48.3133 79.0029 48.3133H67.3879C67.2789 48.3133 67.2249 48.2593 67.2249 48.1523V30.6983C67.2249 30.5913 67.2789 30.5373 67.3879 30.5373H79.0029Z" stroke="#003683" stroke-width="0.762"/>
<path d="M89.0688 45.5301L89.0658 45.5421C89.4168 43.6141 88.5438 41.7341 88.1158 40.1171C87.4008 39.5841 86.2288 39.5061 85.2828 39.2031C85.2768 38.8911 85.6218 38.9321 85.9228 38.9291C85.8158 38.7921 85.8088 38.5551 85.6488 38.4721C86.1198 38.3681 86.7998 38.8421 87.3848 38.9291C87.1478 37.9461 86.5508 36.5341 86.5628 34.9991C86.5908 34.7571 86.3718 34.7631 86.1968 34.7251C86.3298 34.5831 86.5538 34.5321 86.8368 34.5421C86.8668 33.9311 87.0808 33.5071 87.1108 32.8961C86.2608 32.4971 84.9668 32.5421 84.1868 32.0741C84.7598 32.1061 86.9718 33.0131 87.4768 31.9831C86.7118 31.7031 85.5378 31.4771 84.6438 31.6171C85.0798 31.0481 86.5128 31.4751 87.3848 31.3431C87.5358 31.3021 87.2388 30.9491 87.1108 30.8861C88.4738 30.3111 88.8128 27.0721 87.9328 25.6761C87.7658 25.5401 87.6238 25.4311 87.4768 25.6761C87.4248 24.1631 85.8358 23.4241 84.0948 23.3001C83.2118 22.8791 82.5958 21.2041 81.8098 20.3751C81.4608 20.0071 79.9728 20.1181 79.2508 19.8271C77.8128 19.2481 76.3218 17.3701 74.9548 17.1761C74.5168 17.1141 74.0888 17.3491 73.6748 17.3591C72.4528 17.3891 71.3568 16.7471 70.1108 16.9021C70.1278 17.2811 70.7658 17.0381 70.7498 17.4511C67.5298 17.4131 63.8828 17.7011 61.7938 19.0961C61.8568 19.4281 62.1638 19.5171 62.1588 19.9181C61.8148 19.9771 61.1948 20.1191 60.8798 19.9181C61.1038 19.0691 60.5648 19.0061 60.7878 18.2731C59.5478 18.0201 57.7398 18.3361 56.4928 18.0901C56.7028 17.8261 56.1808 17.5091 56.2178 17.1761C56.2988 16.4511 58.7038 15.2751 59.5078 14.7081C60.7248 13.8531 61.9228 13.1221 62.8898 12.4231C63.3548 12.0881 63.6288 11.3831 63.9868 11.2351C64.7158 10.9351 66.0198 11.4191 66.4548 10.9611C66.6528 10.9101 66.1448 10.6081 66.4548 10.4131C67.0738 9.8431 68.4138 9.9961 68.9218 9.3161C68.6208 8.7641 67.3878 9.1451 67.0948 8.5851C67.1368 8.0811 67.5748 8.1931 67.9168 7.9451C68.3768 7.6111 68.7058 7.0271 69.1968 6.7571C70.3218 6.1381 72.3888 5.7181 74.3148 5.2941C76.1358 4.8951 78.1828 4.3391 79.7978 4.1981C80.8818 4.1031 81.8078 4.2271 82.6328 3.8321C82.6608 4.04309 82.3678 3.9341 82.3588 4.1061C85.8348 4.7501 89.0988 3.7731 92.0458 2.5521C94.2318 1.6481 96.8958 1.1591 99.2658 0.9991C101.121 0.8741 102.746 1.71609 104.751 1.5471C105.152 1.5141 105.747 1.2581 106.304 1.3641C105.071 2.2101 102.97 2.6951 101.003 2.8271C99.8458 2.9041 98.6538 2.6391 97.5298 2.8271C95.9178 3.0951 94.8438 3.9601 93.6918 4.4721C97.3448 4.1041 101.256 3.2011 105.756 3.3751C105.969 2.8531 107.044 3.4461 107.858 3.5581C108.533 3.6511 109.61 3.4921 110.418 3.5581C112.794 3.7531 115.653 5.2411 118.642 6.0261C119.984 6.3781 121.159 6.7991 122.665 7.3971C123.611 7.7721 125.924 8.6621 125.955 9.4071C125.99 10.2391 125.117 10.1571 124.218 10.1391C125.482 12.4341 121.827 13.2511 119.1 12.9721C117.839 12.8431 116.576 11.9681 115.17 11.7841C112.721 11.4631 110.351 11.3551 108.864 12.5151C109.683 12.4551 110.784 12.1841 110.783 13.1551C109.247 14.4951 106.995 14.0721 105.207 14.8911C104.449 15.2391 104.138 16.1791 103.38 16.5361C102.902 16.7621 102.256 16.6711 101.735 16.9021C100.785 17.3221 99.9198 18.7311 98.9928 19.4611C98.2578 20.0401 96.4588 19.8961 95.4278 20.3751C94.5418 20.7871 94.0338 21.9161 93.0508 22.1121C92.5078 23.5041 91.1078 24.7571 90.4928 26.1331C89.8018 27.6771 90.0168 29.5171 89.3958 31.3431C90.6418 31.5831 92.0908 31.2351 93.4178 31.2521C94.6078 29.6061 93.5348 26.1241 93.9658 23.8481C94.6218 24.3471 95.6518 23.9701 96.5248 24.3051C96.0218 26.3471 96.1568 29.1081 96.5248 31.2521C97.3968 31.2471 98.2798 30.9481 99.0838 31.1601C98.6928 31.7121 97.6578 31.6231 96.7988 31.7081C96.5148 31.9401 97.3178 31.8531 97.2558 32.1651C97.0468 32.2611 96.7048 32.2231 96.5248 32.3481C96.5308 35.6031 96.4778 38.9151 97.0728 41.5791C97.7538 41.6601 98.7568 41.4191 98.7178 42.2191C98.0888 42.1481 97.5938 41.9431 96.9818 41.8531C97.3178 42.3711 98.4178 42.1231 98.8098 42.5851C98.4978 42.9431 97.5778 42.6931 96.9818 42.7671C96.1418 43.6421 97.4588 48.4641 96.4338 48.7091C95.8208 48.8541 95.8698 48.2731 95.7018 47.7941C95.1818 48.0651 95.5198 49.1961 94.9718 49.4391C94.7008 49.2231 94.5568 48.8791 94.0568 48.8911C94.1378 46.5691 94.5658 44.5131 94.3318 42.1281C93.1918 41.4991 91.6688 41.2561 90.4008 40.7571C91.0868 42.7721 90.4838 45.8191 91.2238 47.6121C91.4188 48.0841 92.1568 48.7451 92.1378 49.2571C92.1038 50.1801 91.0648 50.0531 90.4008 50.3531C89.6838 50.6781 89.6238 51.3631 88.8478 51.3591C89.0518 50.2781 89.2248 48.3881 89.1208 46.6971M86.0148 5.3861C86.1078 6.0671 86.9378 5.7421 87.3848 5.6601C88.9408 5.3771 91.1538 5.10509 92.1378 4.3801C92.1278 4.2691 92.1108 4.1641 91.9548 4.1981C90.2938 4.9131 87.9638 4.9591 86.0148 5.3861ZM78.7018 7.5801C78.3148 8.3801 77.0988 8.3521 76.3258 8.7671C78.9678 8.9191 81.2388 8.1421 83.6378 8.0371C84.2138 8.0111 85.3108 8.2621 85.7408 7.7621C83.5878 7.5231 80.7338 7.3761 78.7018 7.5801ZM86.5628 8.0371C86.9148 8.1981 87.5628 7.9691 87.6588 7.5801C87.2978 7.7361 86.8388 7.7941 86.5628 8.0371ZM100.455 8.0371C100.839 7.9941 101.306 8.0351 101.461 7.7621C101.081 7.5741 100.628 7.7531 100.455 8.0371ZM93.5078 8.8591C94.6138 8.8331 97.2918 8.8061 98.1698 7.9451C96.4308 8.0651 94.9108 8.4021 93.5078 8.8591ZM70.9328 8.4931C70.2888 8.6811 69.1218 8.7151 69.1048 9.5901C70.5428 9.0781 72.3108 8.8961 73.4918 8.1281C72.5968 8.0141 71.6788 8.2771 70.9328 8.4931ZM105.847 9.3161C107.67 9.0971 109.933 9.3191 111.423 8.7671C110.088 8.1291 106.833 8.2551 105.847 9.3161ZM113.251 8.5851C112.917 8.5231 112.586 8.4571 112.154 8.4931C112.155 9.0011 113.062 8.7231 113.251 8.5851ZM77.0568 9.2241C78.4068 9.8451 80.6098 9.5091 82.2668 9.4071C83.7218 9.3181 85.4048 9.3691 86.1058 8.6761C82.8478 8.2091 79.9148 9.2861 77.0568 9.2241ZM122.757 9.1321C123.184 9.0741 123.851 9.2521 124.127 9.0421C123.689 8.7471 122.991 8.4681 122.757 9.1321ZM113.708 9.1321C114.446 8.9871 115.789 9.4471 116.084 8.8591C115.246 8.90409 114.197 8.7391 113.708 9.1321ZM70.2938 10.2301C71.5868 10.0611 72.7318 9.7431 74.0408 9.5901C72.9428 9.2291 71.1678 9.7591 70.2938 10.2301ZM82.3588 9.5901C82.7778 10.0231 83.5398 9.9141 84.1868 10.0471C84.8028 10.1741 85.4878 10.4731 86.1058 10.2301C85.8848 8.8111 83.6608 9.6991 82.3588 9.5901ZM88.2988 10.1391C89.5848 11.0231 91.7178 9.9591 93.2348 9.6821C91.6758 9.5621 89.1988 9.1171 88.2988 10.1391ZM98.7178 11.5101C99.2998 11.3841 99.2718 11.8701 99.7238 11.8751C101.006 11.2691 102.553 10.9261 104.02 10.5041C102.274 9.7071 100.218 10.9371 98.7178 11.5101ZM103.289 11.1441C103.728 11.2291 104.374 11.2481 104.111 10.7781C103.953 11.0161 103.305 10.7651 103.289 11.1441ZM73.2178 12.6971C71.5408 13.0961 69.7828 13.7771 68.1918 13.8861C67.4228 13.9381 66.5998 13.6321 65.8148 13.7941C64.9338 13.9781 64.3028 14.8821 63.4388 15.2571C64.8578 15.2931 66.3908 14.9961 67.9168 14.7081C69.7098 14.3701 72.2438 14.0271 73.4008 13.2461C73.5538 13.3671 73.7078 13.4881 74.0408 13.4291C76.4758 12.6651 79.7438 12.7341 81.7178 11.5101C78.2828 11.1751 75.9028 12.0611 73.2178 12.6971ZM82.9978 12.2411C83.5998 12.3631 84.4698 11.8531 84.1868 11.6921C83.8508 11.9371 83.2928 11.9571 82.9978 12.2411ZM121.476 12.1491C120.198 12.2091 118.799 11.9031 117.73 12.0581C118.585 12.5461 120.562 12.7531 121.476 12.1491ZM82.3588 14.0681C83.9608 14.1481 84.9928 13.6581 86.2888 13.4291C86.3898 12.7991 86.9018 12.5811 87.2938 12.2411C85.1518 12.3541 83.5998 13.0561 82.3588 14.0681ZM93.4178 13.2461C94.2038 13.0691 94.2368 13.6451 94.7888 13.7031C95.7498 13.1421 97.3378 13.2061 98.1698 12.5151C96.6208 12.7941 94.7188 12.7201 93.4178 13.2461ZM79.8898 13.3371C80.8818 13.2331 81.8938 13.1481 82.4498 12.6061C81.3048 12.5591 80.6238 12.9741 79.8898 13.3371ZM99.7238 13.4291C100.79 13.6561 101.894 13.3391 102.283 12.6061C101.384 12.8341 100.435 13.0131 99.7238 13.4291ZM64.0778 12.6971C62.6778 13.3061 60.9428 15.0461 59.3258 15.8961C58.5748 16.2911 57.7968 16.2831 57.6808 17.0851C60.8268 16.3931 63.7118 15.4391 65.5408 13.4291C65.1698 13.2871 64.5728 12.4831 64.0778 12.6971ZM105.117 12.8811H103.928C104.054 13.2901 104.898 12.9731 105.117 12.8811ZM72.9438 14.7081C74.5358 14.8031 75.9288 13.9181 77.0568 13.2461C77.0378 13.1431 76.9548 13.1041 76.8738 13.0631C75.7288 13.7761 73.3548 13.2611 72.9438 14.7081ZM91.4058 13.7031C91.9228 13.6101 92.5128 13.5901 92.7768 13.2461C92.2608 13.3381 91.6718 13.3581 91.4058 13.7031ZM75.8688 15.0741C77.3338 15.5591 79.0008 15.4061 80.4388 14.9831C80.2508 14.4741 80.9048 13.7461 80.7128 13.6121C78.9928 13.9941 76.9898 14.0931 75.8688 15.0741ZM71.3908 14.2511C71.5398 14.6201 72.1308 14.5461 72.5788 14.6171C72.5758 14.4021 72.7358 14.3481 72.6698 14.0681C72.1948 14.0811 71.8648 14.2391 71.3908 14.2511ZM92.5958 16.5361C94.4978 15.7281 97.4778 15.9971 98.8098 14.6171C98.2828 14.0951 97.2568 14.2041 96.7078 14.3431C96.7058 14.2091 97.0928 14.0531 96.7078 14.0681C95.3748 14.8681 92.4998 14.6131 92.5958 16.5361ZM69.4708 15.4401C70.4108 15.1921 71.9518 15.5441 72.3958 14.8001C71.2678 14.5181 70.2378 15.0611 69.4708 15.4401ZM86.4708 15.0741C87.7798 15.5871 87.2068 17.1711 88.2068 18.1811C88.3318 17.7271 88.2108 17.0281 88.5728 16.8111C88.3918 18.8241 87.9728 21.6521 88.7558 23.3001C88.9748 23.3551 89.1728 23.4311 89.4868 23.3911C89.4598 23.7241 89.5018 23.9861 89.5788 24.2141C90.3718 23.6661 89.8838 21.8371 90.5848 21.1971C90.4548 20.2161 90.7398 19.6471 91.0408 19.0961C90.9378 17.8131 90.9198 16.7251 91.4978 15.5311C90.0788 15.3911 89.7838 16.3761 88.4818 16.3531C87.9478 15.4591 89.3688 14.9951 89.1208 14.7081C88.3668 14.9591 87.0518 14.6491 86.4708 15.0741ZM85.4658 14.8911C83.2818 15.3271 80.9528 15.6191 78.7018 15.9881C80.0578 17.9831 85.9398 15.4521 85.2828 19.4611C86.3538 19.4751 86.4218 18.0011 87.2938 18.3641C86.7138 17.1771 86.1638 15.9601 85.4658 14.8911ZM102.192 16.5361C103.028 16.3361 103.455 15.7281 104.02 15.2571C103.07 15.2831 102.123 15.7971 102.192 16.5361ZM98.6268 17.2671C98.4388 17.2421 98.5408 16.9271 98.3518 16.9021C97.7838 17.7651 96.9718 18.3841 96.4338 19.2791C98.9538 18.9961 100.014 17.2521 101.461 15.8961C100.098 15.9361 99.4698 16.7081 98.6268 17.2671ZM68.7398 16.9941C69.0838 17.1321 69.3308 17.2261 69.7448 17.0851C69.8098 16.5811 68.7868 16.5981 68.7398 16.9941ZM78.4278 17.9071C77.8718 17.5041 77.3168 16.5291 76.4168 17.0851C78.0548 17.7631 78.8498 19.2831 80.8958 19.5531C80.7368 18.6151 79.2338 18.4921 78.4278 17.9071ZM91.5898 19.0041C92.1768 18.7391 92.4688 18.1771 93.0508 17.9071C92.9088 17.5021 92.5398 17.3221 92.1378 17.1761C91.9908 17.8211 91.6978 18.3201 91.5898 19.0041ZM94.8798 17.8161C95.4998 18.1951 96.4838 17.5051 96.1588 17.2671C95.8538 17.5721 95.1158 17.4421 94.8798 17.8161ZM84.3688 19.0961C84.5098 18.8411 84.2498 18.3381 84.1868 17.9981C83.8748 17.8831 83.5398 17.7921 83.1808 17.7251C83.2918 18.4661 83.8208 18.7911 84.3688 19.0961ZM81.9008 18.2731C82.6858 18.6331 83.1328 19.7591 84.1868 19.5531C83.6658 18.9901 82.8068 17.8471 81.9008 18.2731ZM92.2298 19.0041C93.4538 18.8301 94.8828 19.4131 95.1538 18.2731C94.1598 17.8501 92.5868 18.2041 92.2298 19.0041ZM60.9708 18.9131C61.5188 19.1171 61.8928 18.5431 62.2508 18.2731C61.6128 17.9791 61.1328 18.4451 60.9708 18.9131ZM88.1158 21.8371V19.8271C87.7188 19.6461 87.6028 19.1831 87.2938 18.9131C87.2558 20.1991 87.5318 21.1731 88.1158 21.8371ZM91.1318 20.3751C90.9518 21.2281 91.1148 22.3581 91.2238 23.2081C91.5978 22.2861 92.0788 21.5601 92.6858 20.9241C93.0838 20.5061 93.8368 20.2571 93.7828 19.6441C92.8498 19.8381 91.6798 19.7951 91.1318 20.3751ZM83.3628 20.3751C83.6768 21.8591 85.2388 22.0951 86.3798 22.7511C86.3638 22.0671 85.6688 22.0601 85.7408 21.2891C84.6808 21.8531 84.3538 21.0171 84.1868 20.1921C83.9888 20.3291 83.6718 20.3481 83.3628 20.3751ZM87.8418 23.4831C87.2938 23.1471 87.0788 21.9931 86.4708 22.0201C86.7758 22.5991 87.1958 23.5481 87.8418 23.4831ZM95.5188 28.3271C95.5998 27.2051 95.3128 25.6741 95.2448 24.3961H94.6968C94.9778 25.7001 95.0388 27.2231 95.5188 28.3271ZM89.1208 32.4391C89.9768 32.3811 91.0088 32.4991 91.5898 32.1651C90.8738 32.2251 89.2138 31.5801 89.1208 32.4391ZM88.8478 32.8961C87.9168 34.9801 88.7918 37.3771 89.3958 39.2031C90.8418 39.7371 92.3278 40.2311 94.1488 40.3911C94.0128 37.7541 94.0368 34.9581 93.7828 32.4391C92.2908 32.4141 90.2858 32.5731 88.8478 32.8961ZM94.3318 32.6221C94.3498 34.4251 94.4328 36.8141 94.5138 38.6551C94.5408 39.2441 94.1618 40.5041 95.0628 40.5741C95.3608 37.7781 94.6448 35.2031 94.6048 32.4391C94.4888 32.4341 94.4788 32.3231 94.3318 32.3481V32.6221ZM87.2028 39.2031C87.0288 38.8591 86.5078 38.8611 86.1058 38.7461C86.2538 39.1151 86.7558 39.1321 87.2028 39.2031ZM94.6968 47.0631C95.3538 45.9811 95.2458 43.6561 95.1538 42.1281C95.0368 42.1231 95.0278 42.0111 94.8798 42.0361C94.6978 43.5911 94.8288 45.4591 94.6968 47.0631Z" fill="#003683"/>
</svg>
