<svg width="164" height="62" viewBox="0 0 164 62" fill="none" xmlns="http://www.w3.org/2000/svg">
<path d="M20.5858 56.5907C20.9098 56.3867 21.2608 56.2847 21.6398 56.2847C21.7528 56.2847 21.8618 56.2937 21.9668 56.3127C22.0148 56.3197 22.0348 56.3467 22.0268 56.3937L21.8688 57.1587C21.8578 57.2017 21.8308 57.2207 21.7868 57.2127C21.7398 57.2057 21.6908 57.2017 21.6398 57.2017C21.3708 57.2017 21.1358 57.2927 20.9348 57.4747C20.7348 57.6537 20.6188 57.8757 20.5858 58.1407V61.1007C20.5858 61.1477 20.5618 61.1717 20.5148 61.1717H19.7228C19.6758 61.1717 19.6518 61.1477 19.6518 61.1007V56.3177C19.6518 56.2707 19.6758 56.2467 19.7228 56.2467H20.5148C20.5618 56.2467 20.5858 56.2707 20.5858 56.3177V56.5907Z" fill="#083783"/>
<path d="M26.6678 56.2686C27.3198 56.2716 27.8748 56.5126 28.3328 56.9896C28.7918 57.4626 29.0208 58.0266 29.0208 58.6816V58.9926C29.0208 59.0366 28.9988 59.0606 28.9558 59.0636L25.3518 59.3746C25.4758 59.6366 25.6618 59.8486 25.9088 60.0086C26.1598 60.1686 26.4348 60.2486 26.7338 60.2486C26.9948 60.2486 27.2408 60.1866 27.4698 60.0626C27.7028 59.9356 27.8888 59.7626 28.0268 59.5446C28.0528 59.5046 28.0858 59.4946 28.1258 59.5166L28.7968 59.9096C28.8408 59.9316 28.8498 59.9646 28.8248 60.0086C28.6018 60.3686 28.3038 60.6526 27.9288 60.8596C27.5578 61.0676 27.1588 61.1716 26.7338 61.1716C26.0598 61.1716 25.4828 60.9306 25.0028 60.4506C24.5218 59.9736 24.2818 59.3966 24.2818 58.7196C24.2818 58.0286 24.5128 57.4456 24.9758 56.9726C25.4378 56.4996 26.0018 56.2646 26.6678 56.2686ZM28.0488 58.2176C27.9688 57.9046 27.8038 57.6556 27.5518 57.4696C27.3008 57.2806 27.0008 57.1856 26.6518 57.1856C26.2838 57.1856 25.9668 57.3056 25.7018 57.5456C25.4358 57.7826 25.2758 58.0886 25.2208 58.4636L28.0488 58.2176Z" fill="#083783"/>
<path d="M34.1965 60.2541C34.4875 60.2541 34.7545 60.1771 34.9985 60.0251C35.0395 60.0031 35.0715 60.0101 35.0975 60.0471L35.5335 60.6911C35.5635 60.7311 35.5555 60.7641 35.5125 60.7891C35.1115 61.0441 34.6735 61.1711 34.1965 61.1711C33.5015 61.1711 32.9115 60.9201 32.4275 60.4181C31.9435 59.9121 31.7175 59.3081 31.7505 58.6051C31.7765 57.9941 32.0055 57.4641 32.4385 57.0161C32.8715 56.5691 33.3925 56.3211 33.9995 56.2741C34.5455 56.2301 35.0485 56.3541 35.5065 56.6451C35.5505 56.6711 35.5575 56.7051 35.5285 56.7491L35.0915 57.3931C35.0665 57.4301 35.0355 57.4351 34.9985 57.4101C34.6895 57.2241 34.3525 57.1551 33.9885 57.2021C33.6435 57.2461 33.3465 57.3971 33.0985 57.6551C32.8515 57.9141 32.7095 58.2181 32.6735 58.5671C32.6295 59.0221 32.7605 59.4171 33.0665 59.7521C33.3725 60.0871 33.7485 60.2541 34.1965 60.2541Z" fill="#083783"/>
<path d="M40.573 56.2467C41.254 56.2467 41.832 56.4847 42.309 56.9617C42.79 57.4417 43.03 58.0207 43.03 58.6977C43.03 59.3787 42.79 59.9597 42.309 60.4397C41.832 60.9167 41.254 61.1547 40.573 61.1547C39.896 61.1547 39.317 60.9167 38.837 60.4397C38.356 59.9597 38.116 59.3787 38.116 58.6977C38.116 58.0207 38.356 57.4417 38.837 56.9617C39.317 56.4847 39.896 56.2467 40.573 56.2467ZM40.573 60.2377C40.999 60.2377 41.361 60.0867 41.66 59.7847C41.962 59.4857 42.113 59.1237 42.113 58.6977C42.113 58.2757 41.962 57.9157 41.66 57.6167C41.361 57.3147 40.999 57.1637 40.573 57.1637C40.151 57.1637 39.791 57.3147 39.492 57.6167C39.19 57.9157 39.039 58.2757 39.039 58.6977C39.039 59.1237 39.19 59.4857 39.492 59.7847C39.791 60.0867 40.151 60.2377 40.573 60.2377Z" fill="#083783"/>
<path d="M50.2635 59.5716C50.2675 60.0226 50.2695 60.3996 50.2695 60.7016L50.2745 61.0896C50.2745 61.1366 50.2505 61.1606 50.2035 61.1606H49.4175C49.3705 61.1606 49.3465 61.1366 49.3465 61.0896L49.3515 60.7016C49.3515 60.3996 49.3535 60.0226 49.3575 59.5716C49.3575 59.4516 49.3595 59.2696 49.3625 59.0256V58.8786V58.7256V58.4146V58.2556L49.3575 58.1416C49.3505 58.0606 49.3355 57.9846 49.3135 57.9116C49.2625 57.7586 49.1805 57.6226 49.0675 57.5026C48.9585 57.3856 48.8255 57.2986 48.6695 57.2406C48.6005 57.2116 48.5255 57.1916 48.4455 57.1806L48.4125 57.1746C48.4015 57.1716 48.3945 57.1696 48.3915 57.1696H48.3745H48.3635H48.3305L48.2925 57.1636H48.2815H48.2705H48.2385L48.2105 57.1696C47.9195 57.1806 47.6735 57.2946 47.4735 57.5136C47.3935 57.5936 47.3295 57.6846 47.2825 57.7866C47.2425 57.8666 47.2135 57.9486 47.1955 58.0316C47.1845 58.0716 47.1765 58.1026 47.1735 58.1246V58.1466V58.1626L47.1675 58.1906C47.1675 58.2226 47.1655 58.2486 47.1625 58.2666V58.3326V61.1006C47.1625 61.1476 47.1385 61.1716 47.0915 61.1716H46.2945C46.2475 61.1716 46.2235 61.1476 46.2235 61.1006V56.3066C46.2235 56.2596 46.2475 56.2356 46.2945 56.2356H47.0915C47.1385 56.2356 47.1625 56.2596 47.1625 56.3066V56.6776C47.2465 56.6156 47.3285 56.5656 47.4085 56.5246C47.6415 56.4046 47.8905 56.3336 48.1565 56.3126L48.2055 56.3066H48.2545H48.2815H48.3035H48.3145H48.3525H48.4015L48.4295 56.3126H48.4565C48.4745 56.3126 48.4925 56.3136 48.5105 56.3176L48.5655 56.3226C48.7075 56.3446 48.8445 56.3796 48.9755 56.4266C49.2555 56.5286 49.4955 56.6856 49.6955 56.8966C49.9035 57.1076 50.0545 57.3516 50.1495 57.6276C50.1965 57.7626 50.2275 57.9006 50.2415 58.0426C50.2525 58.1126 50.2585 58.1826 50.2585 58.2556V58.4146V58.7256V58.8786L50.2635 59.0256V59.5716Z" fill="#083783"/>
<path d="M56.4602 59.6916V59.7296V59.7796V59.8286V59.8446L56.4542 59.8556V59.8886L56.4442 59.9706L56.4332 60.0516C56.3932 60.2556 56.3112 60.4376 56.1872 60.5976C56.0702 60.7506 55.9252 60.8706 55.7502 60.9586C55.6162 61.0276 55.4632 61.0826 55.2922 61.1226C55.1352 61.1516 54.9972 61.1676 54.8772 61.1716H54.8272H54.8062H54.7782H54.7682L54.6912 61.1656H54.6042C54.5782 61.1626 54.5452 61.1586 54.5052 61.1546C54.3962 61.1406 54.2802 61.1166 54.1562 61.0836C53.9742 61.0366 53.8012 60.9656 53.6372 60.8706C53.5542 60.8236 53.4752 60.7726 53.4032 60.7176C53.3522 60.6816 53.3062 60.6436 53.2662 60.6036C53.2302 60.5706 53.2302 60.5366 53.2662 60.4996L53.8342 59.9596C53.8632 59.9336 53.8942 59.9316 53.9272 59.9536C53.9562 59.9796 53.9832 60.0016 54.0092 60.0196C54.0412 60.0406 54.0692 60.0596 54.0912 60.0736C54.1922 60.1316 54.2982 60.1756 54.4072 60.2046L54.4562 60.2216L54.5052 60.2326L54.5332 60.2376L54.5602 60.2436C54.5822 60.2466 54.5982 60.2486 54.6092 60.2486L54.6312 60.2536H54.6532C54.6752 60.2576 54.6982 60.2596 54.7242 60.2596L54.8002 60.2646L54.8492 60.2596C54.9182 60.2596 55.0042 60.2526 55.1062 60.2376C55.1972 60.2156 55.2722 60.1906 55.3302 60.1616C55.4502 60.0956 55.5252 59.9996 55.5542 59.8716L55.5592 59.8496L55.5652 59.8336V59.8176V59.8006V59.7896L55.5702 59.7406V59.7296V59.7186L55.5652 59.6916C55.5682 59.6846 55.5682 59.6766 55.5652 59.6696L55.5592 59.6426C55.5482 59.5806 55.5192 59.5206 55.4722 59.4626C55.3772 59.3496 55.1932 59.2296 54.9202 59.1016L54.7182 59.0096L54.6202 58.9656L54.5982 58.9546L54.5822 58.9496V58.9436L54.5332 58.9276C54.3582 58.8476 54.2162 58.7746 54.1072 58.7086C53.9282 58.6036 53.7832 58.4886 53.6702 58.3656C53.6562 58.3506 53.6392 58.3306 53.6212 58.3046L53.5772 58.2396C53.5412 58.1886 53.5142 58.1436 53.4952 58.1026L53.4572 58.0266C53.4462 57.9976 53.4372 57.9716 53.4302 57.9496L53.4082 57.8686L53.3972 57.8246L53.3922 57.7806C53.3842 57.7476 53.3792 57.7166 53.3752 57.6876V57.6386L53.3702 57.6116V57.6006V57.5956V57.5736V57.5626L53.3752 57.4916C53.3752 57.4516 53.3792 57.4036 53.3862 57.3496C53.3902 57.3166 53.4012 57.2696 53.4192 57.2076C53.4742 57.0036 53.5722 56.8326 53.7142 56.6946C53.8342 56.5666 53.9832 56.4686 54.1612 56.3996C54.2892 56.3526 54.4332 56.3176 54.5932 56.2956C54.6912 56.2886 54.7572 56.2846 54.7892 56.2846L54.8822 56.2796L54.9752 56.2846C55.0772 56.2886 55.1912 56.3026 55.3192 56.3286C55.5052 56.3726 55.6832 56.4396 55.8542 56.5306C55.9192 56.5636 55.9802 56.5996 56.0342 56.6396C56.0812 56.6686 56.1252 56.6996 56.1652 56.7326C56.1762 56.7436 56.1942 56.7616 56.2202 56.7876C56.2602 56.8196 56.2612 56.8546 56.2252 56.8906L55.7232 57.3766C55.6942 57.4056 55.6632 57.4076 55.6302 57.3826C55.6012 57.3606 55.5742 57.3406 55.5482 57.3226C55.5122 57.3006 55.4832 57.2826 55.4612 57.2676C55.3592 57.2166 55.2542 57.1786 55.1442 57.1526C55.0602 57.1386 54.9912 57.1316 54.9372 57.1316L54.8772 57.1256L54.8172 57.1316H54.7462L54.7182 57.1366H54.6962C54.6052 57.1516 54.5312 57.1696 54.4732 57.1916C54.4112 57.2206 54.3622 57.2536 54.3252 57.2896C54.2892 57.3256 54.2632 57.3736 54.2492 57.4316L54.2432 57.4536L54.2382 57.4806L54.2332 57.5076V57.5356V57.5626V57.5896L54.2382 57.6386V57.6446H54.2432V57.6496V57.6556L54.2492 57.6776L54.2542 57.6936L54.2652 57.7096L54.2872 57.7476L54.3032 57.7696L54.3202 57.7916C54.3712 57.8466 54.4452 57.9026 54.5442 57.9606C54.6272 58.0086 54.7422 58.0626 54.8882 58.1246L54.9312 58.1466L54.9972 58.1736L55.0952 58.2226L55.2862 58.3046C55.4572 58.3816 55.6012 58.4576 55.7172 58.5346C55.8962 58.6436 56.0402 58.7636 56.1492 58.8946C56.2942 59.0616 56.3892 59.2516 56.4332 59.4626L56.4442 59.5386C56.4512 59.5716 56.4542 59.5966 56.4542 59.6156L56.4602 59.6916Z" fill="#083783"/>
<path d="M60.8932 60.2212C61.0102 60.2792 61.1462 60.2592 61.3032 60.1612C61.3392 60.1392 61.3702 60.1472 61.3952 60.1832L61.8592 60.8052C61.8922 60.8452 61.8872 60.8782 61.8432 60.9032C61.5842 61.0822 61.3132 61.1712 61.0292 61.1712C60.8372 61.1712 60.6532 61.1272 60.4782 61.0402C60.2562 60.9312 60.0812 60.7642 59.9542 60.5382C59.8302 60.3122 59.7682 60.0572 59.7682 59.7732V57.1692H59.0212C58.9732 57.1692 58.9492 57.1452 58.9492 57.0982V56.3232C58.9492 56.2762 58.9732 56.2522 59.0212 56.2522H59.7682L59.7632 55.2202C59.7632 55.1732 59.7872 55.1492 59.8342 55.1492H60.6152C60.6622 55.1492 60.6862 55.1732 60.6862 55.2202V56.2522H61.4342C61.4812 56.2522 61.5052 56.2762 61.5052 56.3232V57.0982C61.5052 57.1452 61.4812 57.1692 61.4342 57.1692H60.6862V59.7732C60.6862 60.0032 60.7552 60.1522 60.8932 60.2212Z" fill="#083783"/>
<path d="M65.752 56.5907C66.076 56.3867 66.427 56.2847 66.806 56.2847C66.919 56.2847 67.028 56.2937 67.133 56.3127C67.18 56.3197 67.201 56.3467 67.193 56.3937L67.035 57.1587C67.024 57.2017 66.997 57.2207 66.953 57.2127C66.906 57.2057 66.857 57.2017 66.806 57.2017C66.536 57.2017 66.301 57.2927 66.101 57.4747C65.901 57.6537 65.785 57.8757 65.752 58.1407V61.1007C65.752 61.1477 65.728 61.1717 65.681 61.1717H64.889C64.842 61.1717 64.818 61.1477 64.818 61.1007V56.3177C64.818 56.2707 64.842 56.2467 64.889 56.2467H65.681C65.728 56.2467 65.752 56.2707 65.752 56.3177V56.5907Z" fill="#083783"/>
<path d="M72.9858 56.2793C72.9858 56.2323 73.0098 56.2083 73.0568 56.2083H73.8488C73.8958 56.2083 73.9198 56.2323 73.9198 56.2793V61.0623C73.9198 61.1093 73.8958 61.1333 73.8488 61.1333H73.0568C73.0098 61.1333 72.9858 61.1093 72.9858 61.0623V60.8003C72.8948 60.8653 72.8058 60.9203 72.7188 60.9633C72.4778 61.0843 72.2248 61.1513 71.9598 61.1653L71.9098 61.1713H71.8828H71.8718H71.8448H71.7628L71.7028 61.1653L71.6488 61.1603L71.5938 61.1543L71.5448 61.1493C71.4028 61.1243 71.2638 61.0853 71.1298 61.0353C70.8568 60.9293 70.6178 60.7653 70.4148 60.5433C70.2108 60.3213 70.0648 60.0703 69.9778 59.7903C69.9378 59.6513 69.9118 59.5093 69.9008 59.3643C69.8978 59.3023 69.8938 59.2363 69.8898 59.1673V59.0853V59.0093V58.3923V58.2453L69.8848 58.1033V57.8403C69.8808 57.3823 69.8798 57.0023 69.8798 56.7003V56.3123C69.8798 56.2613 69.9028 56.2353 69.9508 56.2353H70.7308C70.7778 56.2353 70.8018 56.2613 70.8018 56.3123L70.7968 56.7003C70.7968 57.0023 70.7948 57.3823 70.7908 57.8403V58.3923L70.7858 58.5393V58.6923V59.0093V59.0913V59.1673V59.2983C70.7928 59.3793 70.8078 59.4573 70.8298 59.5333C70.8728 59.6903 70.9498 59.8303 71.0588 59.9533C71.1718 60.0773 71.3028 60.1703 71.4518 60.2323C71.5278 60.2613 71.6048 60.2833 71.6808 60.2973L71.7138 60.3033L71.7408 60.3083H71.7898L71.8608 60.3143H71.8888H71.9158C72.2138 60.3033 72.4648 60.1903 72.6688 59.9753C72.7498 59.8953 72.8148 59.8023 72.8658 59.6973C72.9018 59.6203 72.9308 59.5383 72.9528 59.4513C72.9608 59.4113 72.9658 59.3793 72.9698 59.3533L72.9748 59.3373V59.3203V59.2933L72.9808 59.2113L72.9858 59.1513V56.2793Z" fill="#083783"/>
<path d="M79.2426 60.2541C79.5336 60.2541 79.8006 60.1771 80.0446 60.0251C80.0856 60.0031 80.1176 60.0101 80.1436 60.0471L80.5796 60.6911C80.6096 60.7311 80.6016 60.7641 80.5586 60.7891C80.1576 61.0441 79.7196 61.1711 79.2426 61.1711C78.5476 61.1711 77.9576 60.9201 77.4736 60.4181C76.9896 59.9121 76.7636 59.3081 76.7966 58.6051C76.8226 57.9941 77.0516 57.4641 77.4846 57.0161C77.9176 56.5691 78.4386 56.3211 79.0456 56.2741C79.5916 56.2301 80.0946 56.3541 80.5526 56.6451C80.5966 56.6711 80.6036 56.7051 80.5746 56.7491L80.1376 57.3931C80.1126 57.4301 80.0816 57.4351 80.0446 57.4101C79.7356 57.2241 79.3986 57.1551 79.0346 57.2021C78.6886 57.2461 78.3926 57.3971 78.1456 57.6551C77.8976 57.9141 77.7556 58.2181 77.7196 58.5671C77.6756 59.0221 77.8066 59.4171 78.1126 59.7521C78.4186 60.0871 78.7946 60.2541 79.2426 60.2541Z" fill="#083783"/>
<path d="M85.1001 60.2212C85.2171 60.2792 85.3531 60.2592 85.5101 60.1612C85.5461 60.1392 85.5771 60.1472 85.6021 60.1832L86.0661 60.8052C86.0991 60.8452 86.0941 60.8782 86.0501 60.9032C85.7911 61.0822 85.5211 61.1712 85.2371 61.1712C85.0441 61.1712 84.8601 61.1272 84.6851 61.0402C84.4631 60.9312 84.2881 60.7642 84.1611 60.5382C84.0371 60.3122 83.9761 60.0572 83.9761 59.7732V57.1692H83.2281C83.1801 57.1692 83.1561 57.1452 83.1561 57.0982V56.3232C83.1561 56.2762 83.1801 56.2522 83.2281 56.2522H83.9761L83.9701 55.2202C83.9701 55.1732 83.9931 55.1492 84.0411 55.1492H84.8221C84.8691 55.1492 84.8921 55.1732 84.8921 55.2202V56.2522H85.6411C85.6881 56.2522 85.7121 56.2762 85.7121 56.3232V57.0982C85.7121 57.1452 85.6881 57.1692 85.6411 57.1692H84.8921V59.7732C84.8921 60.0032 84.9621 60.1522 85.1001 60.2212Z" fill="#083783"/>
<path d="M89.6263 55.3676C89.4803 55.3676 89.3573 55.3166 89.2553 55.2146C89.1493 55.1096 89.0963 54.9836 89.0963 54.8376C89.0963 54.6926 89.1493 54.5686 89.2553 54.4666C89.3573 54.3646 89.4803 54.3136 89.6263 54.3136C89.7713 54.3136 89.8953 54.3646 89.9973 54.4666C90.0993 54.5686 90.1503 54.6926 90.1503 54.8376C90.1503 54.9836 90.0993 55.1096 89.9973 55.2146C89.8953 55.3166 89.7713 55.3676 89.6263 55.3676ZM90.0143 56.2686C90.0613 56.2686 90.0843 56.2926 90.0843 56.3396V61.1006C90.0843 61.1476 90.0613 61.1716 90.0143 61.1716H89.2383C89.1913 61.1716 89.1673 61.1476 89.1673 61.1006V56.3396C89.1673 56.2926 89.1913 56.2686 89.2383 56.2686H90.0143Z" fill="#083783"/>
<path d="M95.293 56.2467C95.974 56.2467 96.553 56.4847 97.03 56.9617C97.51 57.4417 97.75 58.0207 97.75 58.6977C97.75 59.3787 97.51 59.9597 97.03 60.4397C96.553 60.9167 95.974 61.1547 95.293 61.1547C94.616 61.1547 94.037 60.9167 93.557 60.4397C93.077 59.9597 92.837 59.3787 92.837 58.6977C92.837 58.0207 93.077 57.4417 93.557 56.9617C94.037 56.4847 94.616 56.2467 95.293 56.2467ZM95.293 60.2377C95.719 60.2377 96.081 60.0867 96.38 59.7847C96.682 59.4857 96.833 59.1237 96.833 58.6977C96.833 58.2757 96.682 57.9157 96.38 57.6167C96.081 57.3147 95.719 57.1637 95.293 57.1637C94.871 57.1637 94.511 57.3147 94.212 57.6167C93.91 57.9157 93.759 58.2757 93.759 58.6977C93.759 59.1237 93.91 59.4857 94.212 59.7847C94.511 60.0867 94.871 60.2377 95.293 60.2377Z" fill="#083783"/>
<path d="M104.983 59.5716C104.987 60.0226 104.988 60.3996 104.988 60.7016L104.994 61.0896C104.994 61.1366 104.971 61.1606 104.923 61.1606H104.137C104.09 61.1606 104.066 61.1366 104.066 61.0896L104.072 60.7016C104.072 60.3996 104.073 60.0226 104.077 59.5716C104.077 59.4516 104.079 59.2696 104.083 59.0256V58.8786V58.7256V58.4146V58.2556L104.077 58.1416C104.07 58.0606 104.055 57.9846 104.033 57.9116C103.982 57.7586 103.9 57.6226 103.788 57.5026C103.678 57.3856 103.545 57.2986 103.389 57.2406C103.32 57.2116 103.245 57.1916 103.165 57.1806L103.132 57.1746C103.122 57.1716 103.114 57.1696 103.111 57.1696H103.094H103.083H103.05L103.012 57.1636H103.001H102.991H102.958L102.931 57.1696C102.639 57.1806 102.393 57.2946 102.193 57.5136C102.113 57.5936 102.05 57.6846 102.002 57.7866C101.962 57.8666 101.933 57.9486 101.915 58.0316C101.904 58.0716 101.896 58.1026 101.893 58.1246V58.1466V58.1626L101.887 58.1906C101.887 58.2226 101.885 58.2486 101.882 58.2666V58.3326V61.1006C101.882 61.1476 101.859 61.1716 101.811 61.1716H101.014C100.967 61.1716 100.943 61.1476 100.943 61.1006V56.3066C100.943 56.2596 100.967 56.2356 101.014 56.2356H101.811C101.859 56.2356 101.882 56.2596 101.882 56.3066V56.6776C101.966 56.6156 102.048 56.5656 102.128 56.5246C102.361 56.4046 102.61 56.3336 102.876 56.3126L102.925 56.3066H102.974H103.001H103.023H103.034H103.072H103.122L103.149 56.3126H103.176C103.194 56.3126 103.213 56.3136 103.23 56.3176L103.285 56.3226C103.427 56.3446 103.564 56.3796 103.695 56.4266C103.975 56.5286 104.215 56.6856 104.415 56.8966C104.623 57.1076 104.774 57.3516 104.869 57.6276C104.916 57.7626 104.947 57.9006 104.962 58.0426C104.973 58.1126 104.978 58.1826 104.978 58.2556V58.4146V58.7256V58.8786L104.983 59.0256V59.5716Z" fill="#083783"/>
<path d="M115.99 56.2793C115.99 56.2323 116.013 56.2083 116.061 56.2083H116.853C116.9 56.2083 116.923 56.2323 116.923 56.2793V61.0623C116.923 61.1093 116.9 61.1333 116.853 61.1333H116.061C116.013 61.1333 115.99 61.1093 115.99 61.0623V60.8003C115.899 60.8653 115.81 60.9203 115.723 60.9633C115.482 61.0843 115.229 61.1513 114.963 61.1653L114.914 61.1713H114.887H114.876H114.849H114.767L114.707 61.1653L114.653 61.1603L114.598 61.1543L114.549 61.1493C114.407 61.1243 114.268 61.0853 114.134 61.0353C113.861 60.9293 113.622 60.7653 113.418 60.5433C113.215 60.3213 113.069 60.0703 112.982 59.7903C112.941 59.6513 112.916 59.5093 112.905 59.3643C112.901 59.3023 112.898 59.2363 112.894 59.1673V59.0853V59.0093V58.3923V58.2453L112.889 58.1033V57.8403C112.885 57.3823 112.883 57.0023 112.883 56.7003V56.3123C112.883 56.2613 112.907 56.2353 112.954 56.2353H113.735C113.783 56.2353 113.806 56.2613 113.806 56.3123L113.8 56.7003C113.8 57.0023 113.799 57.3823 113.795 57.8403V58.3923L113.789 58.5393V58.6923V59.0093V59.0913V59.1673V59.2983C113.797 59.3793 113.811 59.4573 113.833 59.5333C113.877 59.6903 113.954 59.8303 114.063 59.9533C114.176 60.0773 114.306 60.1703 114.456 60.2323C114.532 60.2613 114.609 60.2833 114.685 60.2973L114.718 60.3033L114.745 60.3083H114.794L114.865 60.3143H114.892H114.92C115.218 60.3033 115.469 60.1903 115.673 59.9753C115.754 59.8953 115.819 59.8023 115.87 59.6973C115.906 59.6203 115.935 59.5383 115.957 59.4513C115.965 59.4113 115.97 59.3793 115.974 59.3533L115.979 59.3373V59.3203V59.2933L115.985 59.2113L115.99 59.1513V56.2793Z" fill="#083783"/>
<path d="M124.305 59.5716C124.308 60.0226 124.31 60.3996 124.31 60.7016L124.316 61.0896C124.316 61.1366 124.292 61.1606 124.245 61.1606H123.459C123.411 61.1606 123.388 61.1366 123.388 61.0896L123.393 60.7016C123.393 60.3996 123.395 60.0226 123.399 59.5716C123.399 59.4516 123.401 59.2696 123.404 59.0256V58.8786V58.7256V58.4146V58.2556L123.399 58.1416C123.392 58.0606 123.377 57.9846 123.355 57.9116C123.304 57.7586 123.222 57.6226 123.109 57.5026C123 57.3856 122.867 57.2986 122.711 57.2406C122.642 57.2116 122.567 57.1916 122.487 57.1806L122.454 57.1746C122.443 57.1716 122.436 57.1696 122.432 57.1696H122.416H122.405H122.372L122.334 57.1636H122.323H122.312H122.28L122.252 57.1696C121.961 57.1806 121.715 57.2946 121.515 57.5136C121.435 57.5936 121.371 57.6846 121.324 57.7866C121.284 57.8666 121.255 57.9486 121.236 58.0316C121.226 58.0716 121.218 58.1026 121.215 58.1246V58.1466V58.1626L121.21 58.1906C121.21 58.2226 121.207 58.2486 121.204 58.2666V58.3326V61.1006C121.204 61.1476 121.18 61.1716 121.133 61.1716H120.336C120.289 61.1716 120.265 61.1476 120.265 61.1006V56.3066C120.265 56.2596 120.289 56.2356 120.336 56.2356H121.133C121.18 56.2356 121.204 56.2596 121.204 56.3066V56.6776C121.288 56.6156 121.37 56.5656 121.449 56.5246C121.682 56.4046 121.932 56.3336 122.198 56.3126L122.247 56.3066H122.296H122.323H122.345H122.356H122.394H122.443L122.471 56.3126H122.498C122.516 56.3126 122.534 56.3136 122.552 56.3176L122.607 56.3226C122.749 56.3446 122.886 56.3796 123.016 56.4266C123.297 56.5286 123.537 56.6856 123.737 56.8966C123.945 57.1076 124.095 57.3516 124.19 57.6276C124.238 57.7626 124.269 57.9006 124.283 58.0426C124.294 58.1126 124.299 58.1826 124.299 58.2556V58.4146V58.7256V58.8786L124.305 59.0256V59.5716Z" fill="#083783"/>
<path d="M128.257 55.3676C128.111 55.3676 127.988 55.3166 127.886 55.2146C127.78 55.1096 127.727 54.9836 127.727 54.8376C127.727 54.6926 127.78 54.5686 127.886 54.4666C127.988 54.3646 128.111 54.3136 128.257 54.3136C128.403 54.3136 128.526 54.3646 128.628 54.4666C128.73 54.5686 128.781 54.6926 128.781 54.8376C128.781 54.9836 128.73 55.1096 128.628 55.2146C128.526 55.3166 128.403 55.3676 128.257 55.3676ZM128.645 56.2686C128.692 56.2686 128.715 56.2926 128.715 56.3396V61.1006C128.715 61.1476 128.692 61.1716 128.645 61.1716H127.869C127.822 61.1716 127.799 61.1476 127.799 61.1006V56.3396C127.799 56.2926 127.822 56.2686 127.869 56.2686H128.645Z" fill="#083783"/>
<path d="M133.406 60.2212C133.522 60.2792 133.659 60.2592 133.815 60.1612C133.851 60.1392 133.882 60.1472 133.908 60.1832L134.372 60.8052C134.405 60.8452 134.399 60.8782 134.356 60.9032C134.097 61.0822 133.826 61.1712 133.542 61.1712C133.349 61.1712 133.166 61.1272 132.991 61.0402C132.769 60.9312 132.594 60.7642 132.467 60.5382C132.343 60.3122 132.281 60.0572 132.281 59.7732V57.1692H131.533C131.486 57.1692 131.462 57.1452 131.462 57.0982V56.3232C131.462 56.2762 131.486 56.2522 131.533 56.2522H132.281L132.276 55.2202C132.276 55.1732 132.3 55.1492 132.346 55.1492H133.127C133.175 55.1492 133.198 55.1732 133.198 55.2202V56.2522H133.946C133.994 56.2522 134.017 56.2762 134.017 56.3232V57.0982C134.017 57.1452 133.994 57.1692 133.946 57.1692H133.198V59.7732C133.198 60.0032 133.267 60.1522 133.406 60.2212Z" fill="#083783"/>
<path d="M104.287 38.2669V38.3879C104.233 38.3879 104.186 38.4819 104.146 38.6689C104.106 38.8569 104.059 38.9909 104.005 39.0709C103.818 39.2319 103.724 39.6209 103.724 40.2369C103.428 40.9609 103.187 41.8729 103 42.9719C102.812 44.0719 102.745 44.8889 102.799 45.4249C102.906 46.3099 103.643 47.0199 105.011 47.5559C105.627 47.7979 106.082 47.9179 106.378 47.9179C106.994 48.0529 108.228 47.8649 110.077 47.3549C110.372 47.2749 110.721 47.2079 111.123 47.1539C111.525 47.1009 111.941 46.9929 112.37 46.8329C113.469 46.5379 114.099 46.4439 114.26 46.5509C114.554 46.7919 114.635 47.1139 114.501 47.5159C114.42 47.7309 113.991 48.0529 113.214 48.4809C112.436 48.9099 111.686 49.2319 110.962 49.4459C110.131 49.8219 109.126 50.0629 107.946 50.1699C106.766 50.2769 105.868 50.2239 105.252 50.0089C104.206 49.7409 103.254 49.2109 102.397 48.4209C101.538 47.6309 100.989 46.7919 100.748 45.9079C100.668 45.3179 100.62 44.5939 100.607 43.7359C100.593 42.8789 100.627 42.3429 100.708 42.1279C100.788 42.0739 100.821 41.9399 100.808 41.7249C100.794 41.5109 100.889 41.1019 101.09 40.4989C101.291 39.8959 101.351 39.4199 101.271 39.0709C101.405 38.7769 101.538 38.5619 101.673 38.4279C101.86 38.2139 101.927 37.9789 101.874 37.7239C101.82 37.4699 101.927 37.1549 102.196 36.7789L102.557 36.1759C102.584 35.9889 102.792 35.3919 103.181 34.3869C103.569 33.3809 103.831 32.7719 103.965 32.5569V32.4759C104.072 32.2089 104.22 31.9269 104.407 31.6319C104.568 30.5599 105.413 28.8039 106.941 26.3639C109.139 22.7989 110.573 20.9889 111.244 20.9349C111.539 20.9089 111.833 21.0429 112.128 21.3369C112.423 21.6319 112.611 21.9139 112.691 22.1819C112.879 22.8249 112.852 23.1739 112.611 23.2269C112.262 23.4689 111.565 24.3399 110.52 25.8409C109.474 27.3429 108.63 28.6829 107.987 29.8629L106.418 33.1199C105.775 34.4869 105.172 35.9619 104.608 37.5429C104.394 37.7579 104.287 37.9989 104.287 38.2669Z" fill="#4FB29E"/>
<path d="M118.16 44.6208L118.321 43.7758C118.294 43.6158 118.401 43.1728 118.642 42.4488C119.125 41.3778 119.769 39.4868 120.573 36.7788C120.573 36.4578 120.787 36.2838 121.216 36.2568C121.538 36.1498 121.779 36.1428 121.94 36.2368C122.101 36.3308 122.315 36.5918 122.583 37.0208C122.986 37.4228 122.952 38.1468 122.483 39.1918C122.014 40.2378 121.725 41.0418 121.619 41.6048C121.216 42.4898 120.915 43.3338 120.714 44.1378C120.513 44.9428 120.332 45.4788 120.171 45.7468C119.929 46.8468 119.708 47.4898 119.507 47.6768C119.306 47.8648 119.011 47.7508 118.622 47.3348C118.234 46.9198 118.012 46.4438 117.959 45.9078C117.905 45.3718 117.972 44.9428 118.16 44.6208ZM123.468 26.9268C124.085 26.4988 124.688 26.7528 125.278 27.6908C125.492 28.2278 125.559 28.6498 125.479 28.9578C125.399 29.2658 125.103 29.7288 124.594 30.3448C123.871 31.3098 123.147 31.4848 122.423 30.8678C122.101 30.5998 121.926 30.2648 121.9 29.8628C121.873 29.4608 121.886 29.2458 121.94 29.2188C122.154 29.1928 122.402 28.9578 122.684 28.5158C122.966 28.0728 123.099 27.7108 123.086 27.4298C123.072 27.1478 123.2 26.9808 123.468 26.9268Z" fill="#4FB29E"/>
<path d="M127.631 36.0551C127.912 35.3311 128.053 34.7821 128.053 34.4071C128.053 34.0311 128.207 33.7371 128.516 33.5221C128.823 33.3081 129.125 33.2271 129.42 33.2801C130.171 33.4411 130.559 33.9241 130.586 34.7281C130.613 35.1571 130.506 35.6801 130.265 36.2971C129.085 39.1921 128.496 40.7741 128.496 41.0421C128.522 41.1491 128.763 41.0081 129.219 40.6191C129.675 40.2311 130.15 39.8091 130.647 39.3531C131.143 38.8971 131.947 38.3211 133.06 37.6231C134.172 36.9271 135.023 36.4841 135.613 36.2971C135.774 36.2971 135.908 36.3101 136.016 36.3371C136.122 36.3641 136.21 36.3841 136.277 36.3971C136.343 36.4111 136.438 36.4641 136.558 36.5581C136.679 36.6521 136.766 36.7121 136.82 36.7391C137.034 36.9801 137.282 37.2411 137.564 37.5231C137.845 37.8041 137.905 38.2941 137.745 38.9911L136.94 41.5241C138.951 39.8091 140.291 38.7761 140.962 38.4281C142.275 37.7581 143.254 37.9051 143.897 38.8701C144.219 39.1921 144.386 39.4871 144.4 39.7551C144.413 40.0231 144.42 40.1971 144.42 40.2781V41.6451C144.581 43.7361 144.708 44.8421 144.802 44.9621C144.896 45.0831 145.245 45.1911 145.848 45.2841C146.451 45.3781 146.779 45.5721 146.833 45.8671C146.886 46.1631 146.712 46.4441 146.31 46.7121C145.586 47.1411 144.701 47.1611 143.656 46.7721C142.611 46.3841 142.101 45.1571 142.128 43.0931C142.181 42.2881 142.201 41.6591 142.188 41.2021C142.175 40.7471 142.074 40.5191 141.887 40.5191C141.538 40.5191 140.787 40.9751 139.635 41.8861C138.214 43.0391 136.953 44.2451 135.854 45.5051C135.72 45.6931 135.613 45.8211 135.533 45.8871C135.452 45.9551 135.345 46.0481 135.211 46.1691C135.077 46.2901 134.97 46.3641 134.89 46.3901C134.809 46.4171 134.701 46.4441 134.568 46.4701C134.38 46.5251 133.991 46.3101 133.401 45.8271C133.16 45.6131 133.093 45.3041 133.2 44.9021L134.125 42.2481C134.983 40.1841 135.318 39.1521 135.131 39.1521C134.89 39.1791 134.554 39.3061 134.125 39.5341C133.696 39.7621 133.428 39.9831 133.321 40.1971C133.241 40.1971 133.053 40.3451 132.758 40.6391C132.463 40.9351 132.222 41.1361 132.034 41.2431C131.9 41.4581 131.457 41.9331 130.707 42.6701C129.956 43.4081 129.454 43.8911 129.199 44.1181C128.944 44.3461 128.636 44.6881 128.274 45.1431C127.912 45.6001 127.617 45.9821 127.39 46.2901C127.162 46.5981 127.021 46.7521 126.968 46.7521C126.136 46.7521 125.613 46.3501 125.399 45.5461C125.211 45.1431 125.198 44.5671 125.359 43.8161C125.52 43.0661 125.666 42.4231 125.801 41.8861C125.935 41.3501 126.036 40.9151 126.103 40.5791C126.169 40.2441 126.23 39.9561 126.284 39.7141C126.337 39.4731 126.377 39.3061 126.404 39.2121C126.431 39.1181 126.491 38.9371 126.585 38.6691C126.679 38.4011 126.806 38.0801 126.968 37.7041C127.128 37.3291 127.349 36.7791 127.631 36.0551Z" fill="#4FB29E"/>
<path d="M151.376 34.7683L151.818 33.4013C151.952 33.2943 152.201 32.7113 152.562 31.6523C152.924 30.5933 153.266 29.7153 153.588 29.0183C154.553 26.8733 155.223 25.2783 155.598 24.2323C155.76 23.9913 155.934 23.7093 156.121 23.3883C156.496 22.6913 156.751 22.3163 156.886 22.2623C157.1 22.2083 157.374 22.2493 157.71 22.3823C158.045 22.5173 158.299 22.7183 158.474 22.9853C158.648 23.2543 158.695 23.5083 158.615 23.7503C158.534 23.9913 158.004 25.1443 157.026 27.2083C156.047 29.2733 155.303 30.9623 154.794 32.2753C154.285 33.5893 153.829 34.8353 153.427 36.0153C153.025 37.1953 152.756 37.9593 152.623 38.3073L152.422 39.1923L153.427 38.2263C153.749 37.9853 154.257 37.5573 154.955 36.9403C155.652 36.3233 156.087 35.9613 156.262 35.8543C156.436 35.7473 156.831 35.5593 157.448 35.2913C158.494 34.8353 159.513 34.6073 160.505 34.6073C161.496 34.6073 162.327 35.1703 162.998 36.2963C163.641 37.5033 163.547 38.8033 162.716 40.1973C162.314 40.4923 162.099 40.8003 162.073 41.1223C162.046 41.4443 161.362 42.3423 160.022 43.8163C159.324 44.5403 158.407 45.2643 157.268 45.9883C156.128 46.7113 155.343 47.1483 154.915 47.2953C154.486 47.4423 154.137 47.5433 153.869 47.5963C153.199 47.6773 152.77 47.7443 152.583 47.7973C152.046 47.7443 151.718 47.6773 151.597 47.5963C151.477 47.5163 151.336 47.3023 151.175 46.9533C150.853 46.6053 150.719 46.2963 150.773 46.0283C151.095 46.0283 151.282 45.9753 151.336 45.8673C151.336 45.7063 151.59 45.6533 152.1 45.7063C152.609 45.7603 153.548 45.3843 154.915 44.5803C156.282 43.7763 157.649 42.7443 159.017 41.4843C160.008 40.1973 160.632 39.2593 160.886 38.6693C161.141 38.0803 161.174 37.5833 160.987 37.1813C160.933 36.9133 160.538 36.8193 159.801 36.8993C159.063 36.9803 158.319 37.2753 157.569 37.7843C154.674 39.5813 152.729 41.5913 151.738 43.8163L151.537 44.2183C151.537 44.3263 151.382 44.4603 151.075 44.6203C150.766 44.7813 150.504 44.8623 150.29 44.8623C149.861 44.6753 149.606 44.3793 149.526 43.9773C149.151 43.7093 148.963 43.4743 148.963 43.2733C148.963 43.0723 149.151 42.3023 149.526 40.9613C149.741 39.9433 150.015 38.8843 150.351 37.7843C150.686 36.6853 150.92 36.0823 151.054 35.9753C151.269 35.5993 151.376 35.1973 151.376 34.7683Z" fill="#4FB29E"/>
<path d="M12.724 47.0537C12.782 47.1027 12.795 47.1617 12.762 47.2277C12.737 47.2937 12.687 47.3267 12.612 47.3267H9.75497C9.70497 47.3267 9.66797 47.3107 9.64297 47.2767L2.28297 40.4127V47.1657C2.28297 47.2727 2.22897 47.3267 2.12097 47.3267H0.16297C0.0539696 47.3267 -3.05176e-05 47.2727 -3.05176e-05 47.1657V29.6997C-3.05176e-05 29.5927 0.0539696 29.5387 0.16297 29.5387H2.12097C2.22897 29.5387 2.28297 29.5927 2.28297 29.6997V36.3037L9.04397 29.6007C9.07697 29.5677 9.11497 29.5507 9.15597 29.5507H11.926C12.001 29.5507 12.05 29.5847 12.076 29.6507C12.109 29.7167 12.1 29.7747 12.05 29.8247L3.43097 38.3767L12.724 47.0537Z" fill="#083783"/>
<path d="M17.1967 29.5509C17.3137 29.5509 17.3717 29.6049 17.3717 29.7119V47.1659C17.3717 47.2729 17.3137 47.3269 17.1967 47.3269H15.0837C14.9667 47.3269 14.9087 47.2729 14.9087 47.1659V29.7119C14.9087 29.6049 14.9667 29.5509 15.0837 29.5509H17.1967Z" fill="#083783"/>
<path d="M29.7757 29.5141C29.8847 29.5141 29.9387 29.5681 29.9387 29.6751V41.6911C29.9387 43.2471 29.3837 44.5751 28.2737 45.6761C27.1547 46.7761 25.8147 47.3271 24.2547 47.3271C23.2697 47.3271 22.3427 47.0871 21.4747 46.6071C20.6147 46.1271 19.9267 45.4731 19.4087 44.6451C19.3507 44.5541 19.3677 44.4801 19.4597 44.4221L21.1617 43.4411C21.2537 43.3921 21.3287 43.4121 21.3877 43.5031C21.6957 43.9831 22.1047 44.3641 22.6137 44.6451C23.1237 44.9191 23.6697 45.0551 24.2547 45.0551C25.1887 45.0551 25.9857 44.7281 26.6457 44.0741C27.3137 43.4121 27.6477 42.6181 27.6477 41.6911V29.6751C27.6477 29.5681 27.7017 29.5141 27.8097 29.5141H29.7757Z" fill="#083783"/>
<path d="M41.1444 29.5141C41.2194 29.5141 41.2684 29.5471 41.2934 29.6131L48.5614 47.1031C48.5864 47.1531 48.5824 47.2021 48.5494 47.2521C48.5164 47.3021 48.4704 47.3271 48.4124 47.3271H46.4244C46.3504 47.3271 46.3004 47.2941 46.2754 47.2271L43.4304 40.3751H37.1314L34.2864 47.2271C34.2614 47.2941 34.2114 47.3271 34.1374 47.3271H32.1494C32.0914 47.3271 32.0454 47.3021 32.0124 47.2521C31.9794 47.2021 31.9754 47.1531 32.0004 47.1031L39.2684 29.6131C39.3014 29.5471 39.3514 29.5141 39.4174 29.5141H41.1444ZM42.5234 38.2151L40.2874 32.8161L38.0384 38.2151H42.5234Z" fill="#083783"/>
<path d="M60.8033 37.6443C61.5773 38.1323 62.1843 38.7783 62.6253 39.5813C63.0743 40.4003 63.2863 41.2853 63.2623 42.2373C63.2203 43.6603 62.6713 44.8653 61.6143 45.8493C60.5663 46.8343 59.3183 47.3263 57.8703 47.3263H50.9813C50.8733 47.3263 50.8193 47.2733 50.8193 47.1653V29.7123C50.8193 29.6053 50.8733 29.5513 50.9813 29.5513H57.4213C58.7273 29.5513 59.8463 30.0103 60.7783 30.9283C61.7103 31.8393 62.1883 32.9443 62.2133 34.2433C62.2383 35.5593 61.7683 36.6933 60.8033 37.6443ZM53.0903 36.8253H57.4213C58.1113 36.8253 58.7023 36.5813 59.1933 36.0923C59.6923 35.6043 59.9423 35.0123 59.9423 34.3173C59.9423 33.6313 59.6923 33.0433 59.1933 32.5553C58.7023 32.0583 58.1113 31.8103 57.4213 31.8103H53.0903V36.8253ZM57.9833 45.0673C58.8143 45.0673 59.5223 44.7743 60.1043 44.1863C60.6953 43.6073 60.9903 42.9033 60.9903 42.0763C60.9903 41.2563 60.6953 40.5533 60.1043 39.9653C59.5223 39.3863 58.8143 39.0963 57.9833 39.0963H53.0903V45.0673H57.9833Z" fill="#083783"/>
<path d="M78.6086 29.5509C78.7166 29.5509 78.7706 29.6049 78.7706 29.7119V31.6489C78.7706 31.7559 78.7166 31.8099 78.6086 31.8099H69.1036V37.3089H75.9856C76.0936 37.3089 76.1486 37.3629 76.1486 37.4709V39.4069C76.1486 39.5149 76.0936 39.5689 75.9856 39.5689H69.1036V45.0679H78.6086C78.7166 45.0679 78.7706 45.1219 78.7706 45.2289V47.1659C78.7706 47.2729 78.7166 47.3269 78.6086 47.3269H66.9936C66.8846 47.3269 66.8306 47.2729 66.8306 47.1659V29.7119C66.8306 29.6049 66.8846 29.5509 66.9936 29.5509H78.6086Z" fill="#083783"/>
<path d="M88.6745 44.5437L88.6715 44.5557C89.0225 42.6277 88.1495 40.7477 87.7215 39.1307C87.0065 38.5977 85.8345 38.5197 84.8885 38.2167C84.8825 37.9047 85.2275 37.9457 85.5285 37.9427C85.4215 37.8057 85.4145 37.5687 85.2545 37.4857C85.7255 37.3817 86.4055 37.8557 86.9905 37.9427C86.7535 36.9597 86.1565 35.5477 86.1685 34.0127C86.1965 33.7707 85.9775 33.7767 85.8025 33.7387C85.9355 33.5967 86.1595 33.5457 86.4425 33.5557C86.4725 32.9447 86.6865 32.5207 86.7165 31.9097C85.8665 31.5107 84.5725 31.5557 83.7925 31.0877C84.3655 31.1197 86.5775 32.0267 87.0825 30.9967C86.3175 30.7167 85.1435 30.4907 84.2495 30.6307C84.6855 30.0617 86.1185 30.4887 86.9905 30.3567C87.1415 30.3157 86.8445 29.9627 86.7165 29.8997C88.0795 29.3247 88.4185 26.0857 87.5385 24.6897C87.3715 24.5537 87.2295 24.4447 87.0825 24.6897C87.0305 23.1767 85.4415 22.4377 83.7005 22.3137C82.8175 21.8927 82.2015 20.2177 81.4155 19.3887C81.0665 19.0207 79.5785 19.1317 78.8565 18.8407C77.4185 18.2617 75.9275 16.3837 74.5605 16.1897C74.1225 16.1277 73.6945 16.3627 73.2805 16.3727C72.0585 16.4027 70.9625 15.7607 69.7165 15.9157C69.7335 16.2947 70.3715 16.0517 70.3555 16.4647C67.1355 16.4267 63.4885 16.7147 61.3995 18.1097C61.4625 18.4417 61.7695 18.5307 61.7645 18.9317C61.4205 18.9907 60.8005 19.1327 60.4855 18.9317C60.7095 18.0827 60.1705 18.0197 60.3935 17.2867C59.1535 17.0337 57.3455 17.3497 56.0985 17.1037C56.3085 16.8397 55.7865 16.5227 55.8235 16.1897C55.9045 15.4647 58.3095 14.2887 59.1135 13.7217C60.3305 12.8667 61.5285 12.1357 62.4955 11.4367C62.9605 11.1017 63.2345 10.3967 63.5925 10.2487C64.3215 9.94873 65.6255 10.4327 66.0605 9.97472C66.2585 9.92372 65.7505 9.62172 66.0605 9.42672C66.6795 8.85672 68.0195 9.00972 68.5275 8.32972C68.2265 7.77772 66.9935 8.15872 66.7005 7.59872C66.7425 7.09472 67.1805 7.20672 67.5225 6.95872C67.9825 6.62472 68.3115 6.04073 68.8025 5.77073C69.9275 5.15173 71.9945 4.73172 73.9205 4.30772C75.7415 3.90872 77.7885 3.35272 79.4035 3.21172C80.4875 3.11672 81.4135 3.24072 82.2385 2.84572C82.2665 3.05672 81.9735 2.94772 81.9645 3.11972C85.4405 3.76372 88.7045 2.78672 91.6515 1.56572C93.8375 0.661723 96.5015 0.172726 98.8715 0.0127258C100.726 -0.112274 102.351 0.729722 104.356 0.560722C104.757 0.527722 105.352 0.271724 105.909 0.377724C104.676 1.22372 102.575 1.70872 100.608 1.84072C99.4515 1.91772 98.2595 1.65272 97.1355 1.84072C95.5235 2.10872 94.4495 2.97373 93.2975 3.48573C96.9505 3.11773 100.861 2.21473 105.361 2.38873C105.574 1.86673 106.649 2.45972 107.463 2.57172C108.138 2.66472 109.215 2.50572 110.023 2.57172C112.399 2.76672 115.258 4.25472 118.247 5.03972C119.589 5.39172 120.764 5.81272 122.27 6.41072C123.216 6.78572 125.529 7.67572 125.56 8.42072C125.595 9.25272 124.722 9.17073 123.823 9.15273C125.087 11.4477 121.432 12.2647 118.705 11.9857C117.444 11.8567 116.181 10.9817 114.775 10.7977C112.326 10.4767 109.956 10.3687 108.469 11.5287C109.288 11.4687 110.389 11.1977 110.388 12.1687C108.852 13.5087 106.6 13.0857 104.812 13.9047C104.054 14.2527 103.743 15.1927 102.985 15.5497C102.507 15.7757 101.861 15.6847 101.34 15.9157C100.39 16.3357 99.5255 17.7447 98.5985 18.4747C97.8635 19.0537 96.0645 18.9097 95.0335 19.3887C94.1475 19.8007 93.6395 20.9297 92.6565 21.1257C92.1135 22.5177 90.7135 23.7707 90.0985 25.1467C89.4075 26.6907 89.6225 28.5307 89.0015 30.3567C90.2475 30.5967 91.6965 30.2487 93.0235 30.2657C94.2135 28.6197 93.1405 25.1377 93.5715 22.8617C94.2275 23.3607 95.2575 22.9837 96.1305 23.3187C95.6275 25.3607 95.7625 28.1217 96.1305 30.2657C97.0025 30.2607 97.8855 29.9617 98.6895 30.1737C98.2985 30.7257 97.2635 30.6367 96.4045 30.7217C96.1205 30.9537 96.9235 30.8667 96.8615 31.1787C96.6525 31.2747 96.3105 31.2367 96.1305 31.3617C96.1365 34.6167 96.0835 37.9287 96.6785 40.5927C97.3595 40.6737 98.3625 40.4327 98.3235 41.2327C97.6945 41.1617 97.1995 40.9567 96.5875 40.8667C96.9235 41.3847 98.0235 41.1367 98.4155 41.5987C98.1035 41.9567 97.1835 41.7067 96.5875 41.7807C95.7475 42.6557 97.0645 47.4777 96.0395 47.7227C95.4265 47.8677 95.4755 47.2867 95.3075 46.8077C94.7875 47.0787 95.1255 48.2097 94.5775 48.4527C94.3065 48.2367 94.1625 47.8927 93.6625 47.9047C93.7435 45.5827 94.1715 43.5267 93.9375 41.1417C92.7975 40.5127 91.2745 40.2697 90.0065 39.7707C90.6925 41.7857 90.0895 44.8327 90.8295 46.6257C91.0245 47.0977 91.7625 47.7587 91.7435 48.2707C91.7095 49.1937 90.6705 49.0667 90.0065 49.3667C89.2895 49.6917 89.2295 50.3767 88.4535 50.3727C88.6575 49.2917 88.8305 47.4017 88.7265 45.7107M85.6205 4.39972C85.7135 5.08072 86.5435 4.75573 86.9905 4.67373C88.5465 4.39073 90.7595 4.11872 91.7435 3.39372C91.7335 3.28272 91.7165 3.17772 91.5605 3.21172C89.8995 3.92672 87.5695 3.97272 85.6205 4.39972ZM78.3075 6.59372C77.9205 7.39372 76.7045 7.36572 75.9315 7.78072C78.5735 7.93272 80.8445 7.15572 83.2435 7.05072C83.8195 7.02472 84.9165 7.27572 85.3465 6.77572C83.1935 6.53672 80.3395 6.38972 78.3075 6.59372ZM86.1685 7.05072C86.5205 7.21172 87.1685 6.98272 87.2645 6.59372C86.9035 6.74972 86.4445 6.80772 86.1685 7.05072ZM100.06 7.05072C100.444 7.00772 100.911 7.04872 101.066 6.77572C100.686 6.58772 100.233 6.76672 100.06 7.05072ZM93.1135 7.87272C94.2195 7.84672 96.8975 7.81972 97.7755 6.95872C96.0365 7.07872 94.5165 7.41572 93.1135 7.87272ZM70.5385 7.50673C69.8945 7.69473 68.7275 7.72873 68.7105 8.60373C70.1485 8.09173 71.9165 7.90972 73.0975 7.14172C72.2025 7.02772 71.2845 7.29073 70.5385 7.50673ZM105.452 8.32972C107.275 8.11072 109.538 8.33272 111.028 7.78072C109.693 7.14272 106.438 7.26872 105.452 8.32972ZM112.856 7.59872C112.522 7.53672 112.191 7.47073 111.759 7.50673C111.76 8.01473 112.667 7.73672 112.856 7.59872ZM76.6625 8.23772C78.0125 8.85872 80.2155 8.52272 81.8725 8.42072C83.3275 8.33172 85.0105 8.38272 85.7115 7.68972C82.4535 7.22272 79.5205 8.29972 76.6625 8.23772ZM122.362 8.14573C122.789 8.08773 123.456 8.26573 123.732 8.05573C123.294 7.76073 122.596 7.48173 122.362 8.14573ZM113.313 8.14573C114.051 8.00073 115.394 8.46072 115.689 7.87272C114.851 7.91772 113.802 7.75273 113.313 8.14573ZM69.8995 9.24372C71.1925 9.07472 72.3375 8.75673 73.6465 8.60373C72.5485 8.24273 70.7735 8.77272 69.8995 9.24372ZM81.9645 8.60373C82.3835 9.03673 83.1455 8.92772 83.7925 9.06072C84.4085 9.18772 85.0935 9.48672 85.7115 9.24372C85.4905 7.82472 83.2665 8.71273 81.9645 8.60373ZM87.9045 9.15273C89.1905 10.0367 91.3235 8.97272 92.8405 8.69572C91.2815 8.57572 88.8045 8.13073 87.9045 9.15273ZM98.3235 10.5237C98.9055 10.3977 98.8775 10.8837 99.3295 10.8887C100.611 10.2827 102.158 9.93972 103.625 9.51772C101.879 8.72072 99.8235 9.95072 98.3235 10.5237ZM102.894 10.1577C103.333 10.2427 103.979 10.2617 103.716 9.79173C103.558 10.0297 102.91 9.77872 102.894 10.1577ZM72.8235 11.7107C71.1465 12.1097 69.3885 12.7907 67.7975 12.8997C67.0285 12.9517 66.2055 12.6457 65.4205 12.8077C64.5395 12.9917 63.9085 13.8957 63.0445 14.2707C64.4635 14.3067 65.9965 14.0097 67.5225 13.7217C69.3155 13.3837 71.8495 13.0407 73.0065 12.2597C73.1595 12.3807 73.3135 12.5017 73.6465 12.4427C76.0815 11.6787 79.3495 11.7477 81.3235 10.5237C77.8885 10.1887 75.5085 11.0747 72.8235 11.7107ZM82.6035 11.2547C83.2055 11.3767 84.0755 10.8667 83.7925 10.7057C83.4565 10.9507 82.8985 10.9707 82.6035 11.2547ZM121.081 11.1627C119.803 11.2227 118.404 10.9167 117.335 11.0717C118.19 11.5597 120.167 11.7667 121.081 11.1627ZM81.9645 13.0817C83.5665 13.1617 84.5985 12.6717 85.8945 12.4427C85.9955 11.8127 86.5075 11.5947 86.8995 11.2547C84.7575 11.3677 83.2055 12.0697 81.9645 13.0817ZM93.0235 12.2597C93.8095 12.0827 93.8425 12.6587 94.3945 12.7167C95.3555 12.1557 96.9435 12.2197 97.7755 11.5287C96.2265 11.8077 94.3245 11.7337 93.0235 12.2597ZM79.4955 12.3507C80.4875 12.2467 81.4995 12.1617 82.0555 11.6197C80.9105 11.5727 80.2295 11.9877 79.4955 12.3507ZM99.3295 12.4427C100.395 12.6697 101.499 12.3527 101.888 11.6197C100.989 11.8477 100.04 12.0267 99.3295 12.4427ZM63.6835 11.7107C62.2835 12.3197 60.5485 14.0597 58.9315 14.9097C58.1805 15.3047 57.4025 15.2967 57.2865 16.0987C60.4325 15.4067 63.3175 14.4527 65.1465 12.4427C64.7755 12.3007 64.1785 11.4967 63.6835 11.7107ZM104.722 11.8947H103.533C103.659 12.3037 104.503 11.9867 104.722 11.8947ZM72.5495 13.7217C74.1415 13.8167 75.5345 12.9317 76.6625 12.2597C76.6435 12.1567 76.5605 12.1177 76.4795 12.0767C75.3345 12.7897 72.9605 12.2747 72.5495 13.7217ZM91.0115 12.7167C91.5285 12.6237 92.1185 12.6037 92.3825 12.2597C91.8665 12.3517 91.2775 12.3717 91.0115 12.7167ZM75.4745 14.0877C76.9395 14.5727 78.6065 14.4197 80.0445 13.9967C79.8565 13.4877 80.5105 12.7597 80.3185 12.6257C78.5985 13.0077 76.5955 13.1067 75.4745 14.0877ZM70.9965 13.2647C71.1455 13.6337 71.7365 13.5597 72.1845 13.6307C72.1815 13.4157 72.3415 13.3617 72.2755 13.0817C71.8005 13.0947 71.4705 13.2527 70.9965 13.2647ZM92.2015 15.5497C94.1035 14.7417 97.0835 15.0107 98.4155 13.6307C97.8885 13.1087 96.8625 13.2177 96.3135 13.3567C96.3115 13.2227 96.6985 13.0667 96.3135 13.0817C94.9805 13.8817 92.1055 13.6267 92.2015 15.5497ZM69.0765 14.4537C70.0165 14.2057 71.5575 14.5577 72.0015 13.8137C70.8735 13.5317 69.8435 14.0747 69.0765 14.4537ZM86.0765 14.0877C87.3855 14.6007 86.8125 16.1847 87.8125 17.1947C87.9375 16.7407 87.8165 16.0417 88.1785 15.8247C87.9975 17.8377 87.5785 20.6657 88.3615 22.3137C88.5805 22.3687 88.7785 22.4447 89.0925 22.4047C89.0655 22.7377 89.1075 22.9997 89.1845 23.2277C89.9775 22.6797 89.4895 20.8507 90.1905 20.2107C90.0605 19.2297 90.3455 18.6607 90.6465 18.1097C90.5435 16.8267 90.5255 15.7387 91.1035 14.5447C89.6845 14.4047 89.3895 15.3897 88.0875 15.3667C87.5535 14.4727 88.9745 14.0087 88.7265 13.7217C87.9725 13.9727 86.6575 13.6627 86.0765 14.0877ZM85.0715 13.9047C82.8875 14.3407 80.5585 14.6327 78.3075 15.0017C79.6635 16.9967 85.5455 14.4657 84.8885 18.4747C85.9595 18.4887 86.0275 17.0147 86.8995 17.3777C86.3195 16.1907 85.7695 14.9737 85.0715 13.9047ZM101.797 15.5497C102.633 15.3497 103.06 14.7417 103.625 14.2707C102.675 14.2967 101.728 14.8107 101.797 15.5497ZM98.2325 16.2807C98.0445 16.2557 98.1465 15.9407 97.9575 15.9157C97.3895 16.7787 96.5775 17.3977 96.0395 18.2927C98.5595 18.0097 99.6195 16.2657 101.066 14.9097C99.7035 14.9497 99.0755 15.7217 98.2325 16.2807ZM68.3455 16.0077C68.6895 16.1457 68.9365 16.2397 69.3505 16.0987C69.4155 15.5947 68.3925 15.6117 68.3455 16.0077ZM78.0335 16.9207C77.4775 16.5177 76.9225 15.5427 76.0225 16.0987C77.6605 16.7767 78.4555 18.2967 80.5015 18.5667C80.3425 17.6287 78.8395 17.5057 78.0335 16.9207ZM91.1955 18.0177C91.7825 17.7527 92.0745 17.1907 92.6565 16.9207C92.5145 16.5157 92.1455 16.3357 91.7435 16.1897C91.5965 16.8347 91.3035 17.3337 91.1955 18.0177ZM94.4855 16.8297C95.1055 17.2087 96.0895 16.5187 95.7645 16.2807C95.4595 16.5857 94.7215 16.4557 94.4855 16.8297ZM83.9745 18.1097C84.1155 17.8547 83.8555 17.3517 83.7925 17.0117C83.4805 16.8967 83.1455 16.8057 82.7865 16.7387C82.8975 17.4797 83.4265 17.8047 83.9745 18.1097ZM81.5065 17.2867C82.2915 17.6467 82.7385 18.7727 83.7925 18.5667C83.2715 18.0037 82.4125 16.8607 81.5065 17.2867ZM91.8355 18.0177C93.0595 17.8437 94.4885 18.4267 94.7595 17.2867C93.7655 16.8637 92.1925 17.2177 91.8355 18.0177ZM60.5765 17.9267C61.1245 18.1307 61.4985 17.5567 61.8565 17.2867C61.2185 16.9927 60.7385 17.4587 60.5765 17.9267ZM87.7215 20.8507V18.8407C87.3245 18.6597 87.2085 18.1967 86.8995 17.9267C86.8615 19.2127 87.1375 20.1867 87.7215 20.8507ZM90.7375 19.3887C90.5575 20.2417 90.7205 21.3717 90.8295 22.2217C91.2035 21.2997 91.6845 20.5737 92.2915 19.9377C92.6895 19.5197 93.4425 19.2707 93.3885 18.6577C92.4555 18.8517 91.2855 18.8087 90.7375 19.3887ZM82.9685 19.3887C83.2825 20.8727 84.8445 21.1087 85.9855 21.7647C85.9695 21.0807 85.2745 21.0737 85.3465 20.3027C84.2865 20.8667 83.9595 20.0307 83.7925 19.2057C83.5945 19.3427 83.2775 19.3617 82.9685 19.3887ZM87.4475 22.4967C86.8995 22.1607 86.6845 21.0067 86.0765 21.0337C86.3815 21.6127 86.8015 22.5617 87.4475 22.4967ZM95.1245 27.3407C95.2055 26.2187 94.9185 24.6877 94.8505 23.4097H94.3025C94.5835 24.7137 94.6445 26.2367 95.1245 27.3407ZM88.7265 31.4527C89.5825 31.3947 90.6145 31.5127 91.1955 31.1787C90.4795 31.2387 88.8195 30.5937 88.7265 31.4527ZM88.4535 31.9097C87.5225 33.9937 88.3975 36.3907 89.0015 38.2167C90.4475 38.7507 91.9335 39.2447 93.7545 39.4047C93.6185 36.7677 93.6425 33.9717 93.3885 31.4527C91.8965 31.4277 89.8915 31.5867 88.4535 31.9097ZM93.9375 31.6357C93.9555 33.4387 94.0385 35.8277 94.1195 37.6687C94.1465 38.2577 93.7675 39.5177 94.6685 39.5877C94.9665 36.7917 94.2505 34.2167 94.2105 31.4527C94.0945 31.4477 94.0845 31.3367 93.9375 31.3617V31.6357ZM86.8085 38.2167C86.6345 37.8727 86.1135 37.8747 85.7115 37.7597C85.8595 38.1287 86.3615 38.1457 86.8085 38.2167ZM94.3025 46.0767C94.9595 44.9947 94.8515 42.6697 94.7595 41.1417C94.6425 41.1367 94.6335 41.0247 94.4855 41.0497C94.3035 42.6047 94.4345 44.4727 94.3025 46.0767Z" fill="#003683"/>
</svg>
