<svg width="71" height="51" viewBox="0 0 71 51" fill="none" xmlns="http://www.w3.org/2000/svg">
<path d="M33.4123 45.1627L33.4093 45.1747C33.7603 43.2467 32.8873 41.3667 32.4593 39.7497C31.7443 39.2167 30.5723 39.1387 29.6263 38.8357C29.6203 38.5237 29.9653 38.5647 30.2663 38.5617C30.1593 38.4247 30.1523 38.1877 29.9923 38.1047C30.4633 38.0007 31.1433 38.4747 31.7283 38.5617C31.4913 37.5787 30.8943 36.1667 30.9063 34.6317C30.9343 34.3897 30.7153 34.3957 30.5403 34.3577C30.6733 34.2157 30.8973 34.1647 31.1803 34.1747C31.2103 33.5637 31.4243 33.1397 31.4543 32.5287C30.6043 32.1297 29.3103 32.1747 28.5303 31.7067C29.1033 31.7387 31.3153 32.6457 31.8203 31.6157C31.0553 31.3357 29.8813 31.1097 28.9873 31.2497C29.4233 30.6807 30.8563 31.1077 31.7283 30.9757C31.8793 30.9347 31.5823 30.5817 31.4543 30.5187C32.8173 29.9437 33.1563 26.7047 32.2763 25.3087C32.1093 25.1727 31.9673 25.0637 31.8203 25.3087C31.7683 23.7957 30.1793 23.0567 28.4383 22.9327C27.5553 22.5117 26.9393 20.8367 26.1533 20.0077C25.8043 19.6397 24.3163 19.7507 23.5943 19.4597C22.1563 18.8807 20.6653 17.0027 19.2983 16.8087C18.8603 16.7467 18.4323 16.9817 18.0183 16.9917C16.7963 17.0217 15.7003 16.3797 14.4543 16.5347C14.4713 16.9137 15.1093 16.6707 15.0933 17.0837C11.8733 17.0457 8.22634 17.3337 6.13734 18.7287C6.20034 19.0607 6.50734 19.1497 6.50234 19.5507C6.15834 19.6097 5.53834 19.7517 5.22334 19.5507C5.44734 18.7017 4.90834 18.6387 5.13134 17.9057C3.89134 17.6527 2.08334 17.9687 0.836336 17.7227C1.04634 17.4587 0.524335 17.1417 0.561335 16.8087C0.642335 16.0837 3.04734 14.9077 3.85234 14.3407C5.06834 13.4857 6.26634 12.7547 7.23334 12.0557C7.69834 11.7207 7.97234 11.0157 8.33034 10.8677C9.05934 10.5677 10.3633 11.0517 10.7983 10.5937C10.9963 10.5427 10.4883 10.2407 10.7983 10.0457C11.4173 9.47568 12.7573 9.62868 13.2653 8.94868C12.9643 8.39668 11.7313 8.77768 11.4383 8.21768C11.4803 7.71368 11.9183 7.82568 12.2603 7.57768C12.7203 7.24368 13.0493 6.65968 13.5403 6.38968C14.6653 5.77068 16.7323 5.35068 18.6583 4.92668C20.4793 4.52768 22.5263 3.97168 24.1413 3.83068C25.2253 3.73568 26.1513 3.85968 26.9763 3.46468C27.0043 3.67568 26.7113 3.56668 26.7023 3.73868C30.1783 4.38268 33.4423 3.40568 36.3893 2.18468C38.5753 1.28068 41.2393 0.791683 43.6093 0.631683C45.4643 0.506683 47.0893 1.34868 49.0943 1.17968C49.4953 1.14668 50.0903 0.890682 50.6473 0.996681C49.4143 1.84268 47.3133 2.32768 45.3463 2.45968C44.1893 2.53668 42.9973 2.27168 41.8733 2.45968C40.2613 2.72768 39.1873 3.59268 38.0353 4.10468C41.6883 3.73668 45.5993 2.83368 50.0993 3.00768C50.3123 2.48568 51.3873 3.07868 52.2013 3.19068C52.8763 3.28368 53.9533 3.12468 54.7613 3.19068C57.1373 3.38568 59.9963 4.87368 62.9853 5.65868C64.3273 6.01068 65.5023 6.43168 67.0083 7.02968C67.9543 7.40468 70.2673 8.29468 70.2983 9.03968C70.3333 9.87168 69.4603 9.78968 68.5613 9.77168C69.8253 12.0667 66.1703 12.8837 63.4433 12.6047C62.1823 12.4757 60.9193 11.6007 59.5133 11.4167C57.0643 11.0957 54.6943 10.9877 53.2073 12.1477C54.0263 12.0877 55.1273 11.8167 55.1263 12.7877C53.5903 14.1277 51.3383 13.7047 49.5503 14.5237C48.7923 14.8717 48.4813 15.8117 47.7233 16.1687C47.2453 16.3947 46.5993 16.3037 46.0783 16.5347C45.1283 16.9547 44.2633 18.3637 43.3363 19.0937C42.6013 19.6727 40.8023 19.5287 39.7713 20.0077C38.8853 20.4197 38.3773 21.5487 37.3943 21.7447C36.8513 23.1367 35.4513 24.3897 34.8363 25.7657C34.1453 27.3097 34.3603 29.1497 33.7393 30.9757C34.9853 31.2157 36.4343 30.8677 37.7613 30.8847C38.9513 29.2387 37.8783 25.7567 38.3093 23.4807C38.9653 23.9797 39.9953 23.6027 40.8683 23.9377C40.3653 25.9797 40.5003 28.7407 40.8683 30.8847C41.7403 30.8797 42.6233 30.5807 43.4273 30.7927C43.0363 31.3447 42.0013 31.2557 41.1423 31.3407C40.8583 31.5727 41.6613 31.4857 41.5993 31.7977C41.3903 31.8937 41.0483 31.8557 40.8683 31.9807C40.8743 35.2357 40.8213 38.5477 41.4163 41.2117C42.0973 41.2927 43.1003 41.0517 43.0613 41.8517C42.4323 41.7807 41.9373 41.5757 41.3253 41.4857C41.6613 42.0037 42.7613 41.7557 43.1533 42.2177C42.8413 42.5757 41.9213 42.3257 41.3253 42.3997C40.4853 43.2747 41.8023 48.0967 40.7773 48.3417C40.1643 48.4867 40.2133 47.9057 40.0453 47.4267C39.5253 47.6977 39.8633 48.8287 39.3153 49.0717C39.0443 48.8557 38.9003 48.5117 38.4003 48.5237C38.4813 46.2017 38.9093 44.1457 38.6753 41.7607C37.5353 41.1317 36.0123 40.8887 34.7443 40.3897C35.4303 42.4047 34.8273 45.4517 35.5673 47.2447C35.7623 47.7167 36.5003 48.3777 36.4813 48.8897C36.4473 49.8127 35.4083 49.6857 34.7443 49.9857C34.0273 50.3107 33.9673 50.9957 33.1913 50.9917C33.3953 49.9107 33.5683 48.0207 33.4643 46.3297M30.3583 5.01868C30.4513 5.69968 31.2813 5.37468 31.7283 5.29268C33.2843 5.00968 35.4973 4.73768 36.4813 4.01268C36.4713 3.90168 36.4543 3.79668 36.2983 3.83068C34.6373 4.54568 32.3073 4.59168 30.3583 5.01868ZM23.0453 7.21268C22.6583 8.01268 21.4423 7.98468 20.6693 8.39968C23.3113 8.55168 25.5823 7.77468 27.9813 7.66968C28.5573 7.64368 29.6543 7.89468 30.0843 7.39468C27.9313 7.15568 25.0773 7.00868 23.0453 7.21268ZM30.9063 7.66968C31.2583 7.83068 31.9063 7.60168 32.0023 7.21268C31.6413 7.36868 31.1823 7.42668 30.9063 7.66968ZM44.7983 7.66968C45.1823 7.62668 45.6493 7.66768 45.8043 7.39468C45.4243 7.20668 44.9713 7.38568 44.7983 7.66968ZM37.8513 8.49168C38.9573 8.46568 41.6353 8.43868 42.5133 7.57768C40.7743 7.69768 39.2543 8.03468 37.8513 8.49168ZM15.2763 8.12568C14.6323 8.31368 13.4653 8.34768 13.4483 9.22268C14.8863 8.71068 16.6543 8.52868 17.8353 7.76068C16.9403 7.64668 16.0223 7.90968 15.2763 8.12568ZM50.1903 8.94868C52.0133 8.72968 54.2763 8.95168 55.7663 8.39968C54.4313 7.76168 51.1763 7.88768 50.1903 8.94868ZM57.5943 8.21768C57.2603 8.15568 56.9293 8.08968 56.4973 8.12568C56.4983 8.63368 57.4053 8.35568 57.5943 8.21768ZM21.4003 8.85668C22.7503 9.47768 24.9533 9.14168 26.6103 9.03968C28.0653 8.95068 29.7483 9.00168 30.4493 8.30868C27.1913 7.84168 24.2583 8.91868 21.4003 8.85668ZM67.1003 8.76468C67.5273 8.70668 68.1943 8.88468 68.4703 8.67468C68.0323 8.37968 67.3343 8.10068 67.1003 8.76468ZM58.0513 8.76468C58.7893 8.61968 60.1323 9.07968 60.4273 8.49168C59.5893 8.53668 58.5403 8.37168 58.0513 8.76468ZM14.6373 9.86268C15.9303 9.69368 17.0753 9.37568 18.3843 9.22268C17.2863 8.86168 15.5113 9.39168 14.6373 9.86268ZM26.7023 9.22268C27.1213 9.65568 27.8833 9.54668 28.5303 9.67968C29.1463 9.80668 29.8313 10.1057 30.4493 9.86268C30.2283 8.44368 28.0043 9.33168 26.7023 9.22268ZM32.6423 9.77168C33.9283 10.6557 36.0613 9.59168 37.5783 9.31468C36.0193 9.19468 33.5423 8.74968 32.6423 9.77168ZM43.0613 11.1427C43.6433 11.0167 43.6153 11.5027 44.0673 11.5077C45.3493 10.9017 46.8963 10.5587 48.3633 10.1367C46.6173 9.33968 44.5613 10.5697 43.0613 11.1427ZM47.6323 10.7767C48.0713 10.8617 48.7173 10.8807 48.4543 10.4107C48.2963 10.6487 47.6483 10.3977 47.6323 10.7767ZM17.5613 12.3297C15.8853 12.7287 14.1263 13.4097 12.5353 13.5187C11.7663 13.5707 10.9433 13.2647 10.1583 13.4267C9.27734 13.6107 8.64634 14.5147 7.78234 14.8897C9.20134 14.9257 10.7343 14.6287 12.2603 14.3407C14.0533 14.0027 16.5873 13.6597 17.7443 12.8787C17.8973 12.9997 18.0513 13.1207 18.3843 13.0617C20.8193 12.2977 24.0873 12.3667 26.0613 11.1427C22.6263 10.8077 20.2463 11.6937 17.5613 12.3297ZM27.3413 11.8737C27.9433 11.9957 28.8133 11.4857 28.5303 11.3247C28.1943 11.5697 27.6363 11.5897 27.3413 11.8737ZM65.8193 11.7817C64.5413 11.8417 63.1423 11.5357 62.0733 11.6907C62.9283 12.1787 64.9053 12.3857 65.8193 11.7817ZM26.7023 13.7007C28.3043 13.7807 29.3363 13.2907 30.6323 13.0617C30.7333 12.4317 31.2453 12.2137 31.6373 11.8737C29.4953 11.9867 27.9433 12.6887 26.7023 13.7007ZM37.7613 12.8787C38.5473 12.7017 38.5803 13.2777 39.1323 13.3357C40.0933 12.7747 41.6813 12.8387 42.5133 12.1477C40.9643 12.4267 39.0623 12.3527 37.7613 12.8787ZM24.2333 12.9697C25.2253 12.8657 26.2373 12.7807 26.7933 12.2387C25.6483 12.1917 24.9673 12.6067 24.2333 12.9697ZM44.0673 13.0617C45.1333 13.2887 46.2373 12.9717 46.6263 12.2387C45.7273 12.4667 44.7783 12.6457 44.0673 13.0617ZM8.42134 12.3297C7.02134 12.9387 5.28634 14.6787 3.66934 15.5287C2.91834 15.9237 2.14034 15.9157 2.02434 16.7177C5.17034 16.0257 8.05534 15.0717 9.88434 13.0617C9.51334 12.9197 8.91634 12.1157 8.42134 12.3297ZM49.4603 12.5137H48.2713C48.3973 12.9227 49.2413 12.6057 49.4603 12.5137ZM17.2873 14.3407C18.8793 14.4357 20.2723 13.5507 21.4003 12.8787C21.3813 12.7757 21.2983 12.7367 21.2173 12.6957C20.0723 13.4087 17.6983 12.8937 17.2873 14.3407ZM35.7493 13.3357C36.2663 13.2427 36.8563 13.2227 37.1203 12.8787C36.6043 12.9707 36.0153 12.9907 35.7493 13.3357ZM20.2123 14.7067C21.6773 15.1917 23.3443 15.0387 24.7823 14.6157C24.5943 14.1067 25.2483 13.3787 25.0563 13.2447C23.3363 13.6267 21.3333 13.7257 20.2123 14.7067ZM15.7343 13.8837C15.8833 14.2527 16.4743 14.1787 16.9223 14.2497C16.9193 14.0347 17.0793 13.9807 17.0133 13.7007C16.5383 13.7137 16.2083 13.8717 15.7343 13.8837ZM36.9393 16.1687C38.8413 15.3607 41.8213 15.6297 43.1533 14.2497C42.6263 13.7277 41.6003 13.8367 41.0513 13.9757C41.0493 13.8417 41.4363 13.6857 41.0513 13.7007C39.7183 14.5007 36.8433 14.2457 36.9393 16.1687ZM13.8143 15.0727C14.7543 14.8247 16.2953 15.1767 16.7393 14.4327C15.6113 14.1507 14.5813 14.6937 13.8143 15.0727ZM30.8143 14.7067C32.1233 15.2197 31.5503 16.8037 32.5503 17.8137C32.6753 17.3597 32.5543 16.6607 32.9163 16.4437C32.7353 18.4567 32.3163 21.2847 33.0993 22.9327C33.3183 22.9877 33.5163 23.0637 33.8303 23.0237C33.8033 23.3567 33.8453 23.6187 33.9223 23.8467C34.7153 23.2987 34.2273 21.4697 34.9283 20.8297C34.7983 19.8487 35.0833 19.2797 35.3843 18.7287C35.2813 17.4457 35.2633 16.3577 35.8413 15.1637C34.4223 15.0237 34.1273 16.0087 32.8253 15.9857C32.2913 15.0917 33.7123 14.6277 33.4643 14.3407C32.7103 14.5917 31.3953 14.2817 30.8143 14.7067ZM29.8093 14.5237C27.6253 14.9597 25.2963 15.2517 23.0453 15.6207C24.4013 17.6157 30.2833 15.0847 29.6263 19.0937C30.6973 19.1077 30.7653 17.6337 31.6373 17.9967C31.0573 16.8097 30.5073 15.5927 29.8093 14.5237ZM46.5353 16.1687C47.3713 15.9687 47.7983 15.3607 48.3633 14.8897C47.4133 14.9157 46.4663 15.4297 46.5353 16.1687ZM42.9703 16.8997C42.7823 16.8747 42.8843 16.5597 42.6953 16.5347C42.1273 17.3977 41.3153 18.0167 40.7773 18.9117C43.2973 18.6287 44.3573 16.8847 45.8043 15.5287C44.4413 15.5687 43.8133 16.3407 42.9703 16.8997ZM13.0833 16.6267C13.4273 16.7647 13.6743 16.8587 14.0883 16.7177C14.1533 16.2137 13.1303 16.2307 13.0833 16.6267ZM22.7713 17.5397C22.2153 17.1367 21.6603 16.1617 20.7603 16.7177C22.3983 17.3957 23.1933 18.9157 25.2393 19.1857C25.0803 18.2477 23.5773 18.1247 22.7713 17.5397ZM35.9333 18.6367C36.5203 18.3717 36.8123 17.8097 37.3943 17.5397C37.2523 17.1347 36.8833 16.9547 36.4813 16.8087C36.3343 17.4537 36.0413 17.9527 35.9333 18.6367ZM39.2233 17.4487C39.8433 17.8277 40.8273 17.1377 40.5023 16.8997C40.1973 17.2047 39.4593 17.0747 39.2233 17.4487ZM28.7123 18.7287C28.8533 18.4737 28.5933 17.9707 28.5303 17.6307C28.2183 17.5157 27.8833 17.4247 27.5243 17.3577C27.6353 18.0987 28.1643 18.4237 28.7123 18.7287ZM26.2443 17.9057C27.0293 18.2657 27.4763 19.3917 28.5303 19.1857C28.0093 18.6227 27.1503 17.4797 26.2443 17.9057ZM36.5733 18.6367C37.7973 18.4627 39.2263 19.0457 39.4973 17.9057C38.5033 17.4827 36.9303 17.8367 36.5733 18.6367ZM5.31434 18.5457C5.86234 18.7497 6.23634 18.1757 6.59434 17.9057C5.95634 17.6117 5.47634 18.0777 5.31434 18.5457ZM32.4593 21.4697V19.4597C32.0623 19.2787 31.9463 18.8157 31.6373 18.5457C31.5993 19.8317 31.8753 20.8057 32.4593 21.4697ZM35.4753 20.0077C35.2953 20.8607 35.4583 21.9907 35.5673 22.8407C35.9413 21.9187 36.4223 21.1927 37.0293 20.5567C37.4273 20.1387 38.1803 19.8897 38.1263 19.2767C37.1933 19.4707 36.0233 19.4277 35.4753 20.0077ZM27.7063 20.0077C28.0203 21.4917 29.5823 21.7277 30.7233 22.3837C30.7073 21.6997 30.0123 21.6927 30.0843 20.9217C29.0243 21.4857 28.6973 20.6497 28.5303 19.8247C28.3323 19.9617 28.0153 19.9807 27.7063 20.0077ZM32.1853 23.1157C31.6373 22.7797 31.4223 21.6257 30.8143 21.6527C31.1193 22.2317 31.5393 23.1807 32.1853 23.1157ZM39.8623 27.9597C39.9433 26.8377 39.6563 25.3067 39.5883 24.0287H39.0403C39.3213 25.3327 39.3823 26.8557 39.8623 27.9597ZM33.4643 32.0717C34.3203 32.0137 35.3523 32.1317 35.9333 31.7977C35.2173 31.8577 33.5573 31.2127 33.4643 32.0717ZM33.1913 32.5287C32.2603 34.6127 33.1353 37.0097 33.7393 38.8357C35.1853 39.3697 36.6713 39.8637 38.4923 40.0237C38.3563 37.3867 38.3803 34.5907 38.1263 32.0717C36.6343 32.0467 34.6293 32.2057 33.1913 32.5287ZM38.6753 32.2547C38.6933 34.0577 38.7763 36.4467 38.8573 38.2877C38.8843 38.8767 38.5053 40.1367 39.4063 40.2067C39.7043 37.4107 38.9883 34.8357 38.9483 32.0717C38.8323 32.0667 38.8223 31.9557 38.6753 31.9807V32.2547ZM31.5463 38.8357C31.3723 38.4917 30.8513 38.4937 30.4493 38.3787C30.5973 38.7477 31.0993 38.7647 31.5463 38.8357ZM39.0403 46.6957C39.6973 45.6137 39.5893 43.2887 39.4973 41.7607C39.3803 41.7557 39.3713 41.6437 39.2233 41.6687C39.0413 43.2237 39.1723 45.0917 39.0403 46.6957Z" fill="##003683"/>
</svg>
