<svg width="165" height="62" viewBox="0 0 165 62" fill="none" xmlns="http://www.w3.org/2000/svg">
<path d="M21.5858 56.5907C21.9098 56.3867 22.2608 56.2847 22.6398 56.2847C22.7528 56.2847 22.8618 56.2937 22.9668 56.3127C23.0148 56.3197 23.0348 56.3467 23.0268 56.3937L22.8688 57.1587C22.8578 57.2017 22.8308 57.2207 22.7868 57.2127C22.7398 57.2057 22.6908 57.2017 22.6398 57.2017C22.3708 57.2017 22.1358 57.2927 21.9348 57.4747C21.7348 57.6537 21.6188 57.8757 21.5858 58.1407V61.1007C21.5858 61.1477 21.5618 61.1717 21.5148 61.1717H20.7228C20.6758 61.1717 20.6518 61.1477 20.6518 61.1007V56.3177C20.6518 56.2707 20.6758 56.2467 20.7228 56.2467H21.5148C21.5618 56.2467 21.5858 56.2707 21.5858 56.3177V56.5907Z" fill="#083783"/>
<path d="M27.6678 56.2686C28.3198 56.2716 28.8748 56.5126 29.3328 56.9896C29.7918 57.4626 30.0208 58.0266 30.0208 58.6816V58.9926C30.0208 59.0366 29.9988 59.0606 29.9558 59.0636L26.3518 59.3746C26.4758 59.6366 26.6618 59.8486 26.9088 60.0086C27.1598 60.1686 27.4348 60.2486 27.7338 60.2486C27.9948 60.2486 28.2408 60.1866 28.4698 60.0626C28.7028 59.9356 28.8888 59.7626 29.0268 59.5446C29.0528 59.5046 29.0858 59.4946 29.1258 59.5166L29.7968 59.9096C29.8408 59.9316 29.8498 59.9646 29.8248 60.0086C29.6018 60.3686 29.3038 60.6526 28.9288 60.8596C28.5578 61.0676 28.1588 61.1716 27.7338 61.1716C27.0598 61.1716 26.4828 60.9306 26.0028 60.4506C25.5218 59.9736 25.2818 59.3966 25.2818 58.7196C25.2818 58.0286 25.5128 57.4456 25.9758 56.9726C26.4378 56.4996 27.0018 56.2646 27.6678 56.2686ZM29.0488 58.2176C28.9688 57.9046 28.8038 57.6556 28.5518 57.4696C28.3008 57.2806 28.0008 57.1856 27.6518 57.1856C27.2838 57.1856 26.9668 57.3056 26.7018 57.5456C26.4358 57.7826 26.2758 58.0886 26.2208 58.4636L29.0488 58.2176Z" fill="#083783"/>
<path d="M35.1965 60.2541C35.4875 60.2541 35.7545 60.1771 35.9985 60.0251C36.0395 60.0031 36.0715 60.0101 36.0975 60.0471L36.5335 60.6911C36.5635 60.7311 36.5555 60.7641 36.5125 60.7891C36.1115 61.0441 35.6735 61.1711 35.1965 61.1711C34.5015 61.1711 33.9115 60.9201 33.4275 60.4181C32.9435 59.9121 32.7175 59.3081 32.7505 58.6051C32.7765 57.9941 33.0055 57.4641 33.4385 57.0161C33.8715 56.5691 34.3925 56.3211 34.9995 56.2741C35.5455 56.2301 36.0485 56.3541 36.5065 56.6451C36.5505 56.6711 36.5575 56.7051 36.5285 56.7491L36.0915 57.3931C36.0665 57.4301 36.0355 57.4351 35.9985 57.4101C35.6895 57.2241 35.3525 57.1551 34.9885 57.2021C34.6435 57.2461 34.3465 57.3971 34.0985 57.6551C33.8515 57.9141 33.7095 58.2181 33.6735 58.5671C33.6295 59.0221 33.7605 59.4171 34.0665 59.7521C34.3725 60.0871 34.7485 60.2541 35.1965 60.2541Z" fill="#083783"/>
<path d="M41.573 56.2467C42.254 56.2467 42.832 56.4847 43.309 56.9617C43.79 57.4417 44.03 58.0207 44.03 58.6977C44.03 59.3787 43.79 59.9597 43.309 60.4397C42.832 60.9167 42.254 61.1547 41.573 61.1547C40.896 61.1547 40.317 60.9167 39.837 60.4397C39.356 59.9597 39.116 59.3787 39.116 58.6977C39.116 58.0207 39.356 57.4417 39.837 56.9617C40.317 56.4847 40.896 56.2467 41.573 56.2467ZM41.573 60.2377C41.999 60.2377 42.361 60.0867 42.66 59.7847C42.962 59.4857 43.113 59.1237 43.113 58.6977C43.113 58.2757 42.962 57.9157 42.66 57.6167C42.361 57.3147 41.999 57.1637 41.573 57.1637C41.151 57.1637 40.791 57.3147 40.492 57.6167C40.19 57.9157 40.039 58.2757 40.039 58.6977C40.039 59.1237 40.19 59.4857 40.492 59.7847C40.791 60.0867 41.151 60.2377 41.573 60.2377Z" fill="#083783"/>
<path d="M51.2635 59.5716C51.2675 60.0226 51.2695 60.3996 51.2695 60.7016L51.2745 61.0896C51.2745 61.1366 51.2505 61.1606 51.2035 61.1606H50.4175C50.3705 61.1606 50.3465 61.1366 50.3465 61.0896L50.3515 60.7016C50.3515 60.3996 50.3535 60.0226 50.3575 59.5716C50.3575 59.4516 50.3595 59.2696 50.3625 59.0256V58.8786V58.7256V58.4146V58.2556L50.3575 58.1416C50.3505 58.0606 50.3355 57.9846 50.3135 57.9116C50.2625 57.7586 50.1805 57.6226 50.0675 57.5026C49.9585 57.3856 49.8255 57.2986 49.6695 57.2406C49.6005 57.2116 49.5255 57.1916 49.4455 57.1806L49.4125 57.1746C49.4015 57.1716 49.3945 57.1696 49.3915 57.1696H49.3745H49.3635H49.3305L49.2925 57.1636H49.2815H49.2705H49.2385L49.2105 57.1696C48.9195 57.1806 48.6735 57.2946 48.4735 57.5136C48.3935 57.5936 48.3295 57.6846 48.2825 57.7866C48.2425 57.8666 48.2135 57.9486 48.1955 58.0316C48.1845 58.0716 48.1765 58.1026 48.1735 58.1246V58.1466V58.1626L48.1675 58.1906C48.1675 58.2226 48.1655 58.2486 48.1625 58.2666V58.3326V61.1006C48.1625 61.1476 48.1385 61.1716 48.0915 61.1716H47.2945C47.2475 61.1716 47.2235 61.1476 47.2235 61.1006V56.3066C47.2235 56.2596 47.2475 56.2356 47.2945 56.2356H48.0915C48.1385 56.2356 48.1625 56.2596 48.1625 56.3066V56.6776C48.2465 56.6156 48.3285 56.5656 48.4085 56.5246C48.6415 56.4046 48.8905 56.3336 49.1565 56.3126L49.2055 56.3066H49.2545H49.2815H49.3035H49.3145H49.3525H49.4015L49.4295 56.3126H49.4565C49.4745 56.3126 49.4925 56.3136 49.5105 56.3176L49.5655 56.3226C49.7075 56.3446 49.8445 56.3796 49.9755 56.4266C50.2555 56.5286 50.4955 56.6856 50.6955 56.8966C50.9035 57.1076 51.0545 57.3516 51.1495 57.6276C51.1965 57.7626 51.2275 57.9006 51.2415 58.0426C51.2525 58.1126 51.2585 58.1826 51.2585 58.2556V58.4146V58.7256V58.8786L51.2635 59.0256V59.5716Z" fill="#083783"/>
<path d="M57.4603 59.6916V59.7296V59.7796V59.8286V59.8446L57.4543 59.8556V59.8886L57.4443 59.9706L57.4333 60.0516C57.3933 60.2556 57.3113 60.4376 57.1873 60.5976C57.0703 60.7506 56.9253 60.8706 56.7503 60.9586C56.6163 61.0276 56.4633 61.0826 56.2923 61.1226C56.1353 61.1516 55.9973 61.1676 55.8773 61.1716H55.8273H55.8063H55.7783H55.7683L55.6913 61.1656H55.6043C55.5783 61.1626 55.5453 61.1586 55.5053 61.1546C55.3963 61.1406 55.2803 61.1166 55.1563 61.0836C54.9743 61.0366 54.8013 60.9656 54.6373 60.8706C54.5543 60.8236 54.4753 60.7726 54.4033 60.7176C54.3523 60.6816 54.3063 60.6436 54.2663 60.6036C54.2303 60.5706 54.2303 60.5366 54.2663 60.4996L54.8343 59.9596C54.8633 59.9336 54.8943 59.9316 54.9273 59.9536C54.9563 59.9796 54.9833 60.0016 55.0093 60.0196C55.0413 60.0406 55.0693 60.0596 55.0913 60.0736C55.1923 60.1316 55.2983 60.1756 55.4073 60.2046L55.4563 60.2216L55.5053 60.2326L55.5333 60.2376L55.5603 60.2436C55.5823 60.2466 55.5983 60.2486 55.6093 60.2486L55.6313 60.2536H55.6533C55.6753 60.2576 55.6983 60.2596 55.7243 60.2596L55.8003 60.2646L55.8493 60.2596C55.9183 60.2596 56.0043 60.2526 56.1063 60.2376C56.1973 60.2156 56.2723 60.1906 56.3303 60.1616C56.4503 60.0956 56.5253 59.9996 56.5543 59.8716L56.5593 59.8496L56.5653 59.8336V59.8176V59.8006V59.7896L56.5703 59.7406V59.7296V59.7186L56.5653 59.6916C56.5683 59.6846 56.5683 59.6766 56.5653 59.6696L56.5593 59.6426C56.5483 59.5806 56.5193 59.5206 56.4723 59.4626C56.3773 59.3496 56.1933 59.2296 55.9203 59.1016L55.7183 59.0096L55.6203 58.9656L55.5983 58.9546L55.5823 58.9496V58.9436L55.5333 58.9276C55.3583 58.8476 55.2163 58.7746 55.1073 58.7086C54.9283 58.6036 54.7833 58.4886 54.6703 58.3656C54.6563 58.3506 54.6393 58.3306 54.6213 58.3046L54.5773 58.2396C54.5413 58.1886 54.5143 58.1436 54.4953 58.1026L54.4573 58.0266C54.4463 57.9976 54.4373 57.9716 54.4303 57.9496L54.4083 57.8686L54.3973 57.8246L54.3923 57.7806C54.3843 57.7476 54.3793 57.7166 54.3753 57.6876V57.6386L54.3703 57.6116V57.6006V57.5956V57.5736V57.5626L54.3753 57.4916C54.3753 57.4516 54.3793 57.4036 54.3863 57.3496C54.3903 57.3166 54.4013 57.2696 54.4193 57.2076C54.4743 57.0036 54.5723 56.8326 54.7143 56.6946C54.8343 56.5666 54.9833 56.4686 55.1613 56.3996C55.2893 56.3526 55.4333 56.3176 55.5933 56.2956C55.6913 56.2886 55.7573 56.2846 55.7893 56.2846L55.8823 56.2796L55.9753 56.2846C56.0773 56.2886 56.1913 56.3026 56.3193 56.3286C56.5053 56.3726 56.6833 56.4396 56.8543 56.5306C56.9193 56.5636 56.9803 56.5996 57.0343 56.6396C57.0813 56.6686 57.1253 56.6996 57.1653 56.7326C57.1763 56.7436 57.1943 56.7616 57.2203 56.7876C57.2603 56.8196 57.2613 56.8546 57.2253 56.8906L56.7233 57.3766C56.6943 57.4056 56.6633 57.4076 56.6303 57.3826C56.6013 57.3606 56.5743 57.3406 56.5483 57.3226C56.5123 57.3006 56.4833 57.2826 56.4613 57.2676C56.3593 57.2166 56.2543 57.1786 56.1443 57.1526C56.0603 57.1386 55.9913 57.1316 55.9373 57.1316L55.8773 57.1256L55.8173 57.1316H55.7463L55.7183 57.1366H55.6963C55.6053 57.1516 55.5313 57.1696 55.4733 57.1916C55.4113 57.2206 55.3623 57.2536 55.3253 57.2896C55.2893 57.3256 55.2633 57.3736 55.2493 57.4316L55.2433 57.4536L55.2383 57.4806L55.2333 57.5076V57.5356V57.5626V57.5896L55.2383 57.6386V57.6446H55.2433V57.6496V57.6556L55.2493 57.6776L55.2543 57.6936L55.2653 57.7096L55.2873 57.7476L55.3033 57.7696L55.3203 57.7916C55.3713 57.8466 55.4453 57.9026 55.5443 57.9606C55.6273 58.0086 55.7423 58.0626 55.8883 58.1246L55.9313 58.1466L55.9973 58.1736L56.0953 58.2226L56.2863 58.3046C56.4573 58.3816 56.6013 58.4576 56.7173 58.5346C56.8963 58.6436 57.0403 58.7636 57.1493 58.8946C57.2943 59.0616 57.3893 59.2516 57.4333 59.4626L57.4443 59.5386C57.4513 59.5716 57.4543 59.5966 57.4543 59.6156L57.4603 59.6916Z" fill="#083783"/>
<path d="M61.8932 60.2212C62.0102 60.2792 62.1462 60.2592 62.3032 60.1612C62.3392 60.1392 62.3702 60.1472 62.3952 60.1832L62.8592 60.8052C62.8922 60.8452 62.8872 60.8782 62.8432 60.9032C62.5842 61.0822 62.3132 61.1712 62.0292 61.1712C61.8372 61.1712 61.6532 61.1272 61.4782 61.0402C61.2562 60.9312 61.0812 60.7642 60.9542 60.5382C60.8302 60.3122 60.7682 60.0572 60.7682 59.7732V57.1692H60.0212C59.9732 57.1692 59.9492 57.1452 59.9492 57.0982V56.3232C59.9492 56.2762 59.9732 56.2522 60.0212 56.2522H60.7682L60.7632 55.2202C60.7632 55.1732 60.7872 55.1492 60.8342 55.1492H61.6152C61.6622 55.1492 61.6862 55.1732 61.6862 55.2202V56.2522H62.4342C62.4812 56.2522 62.5052 56.2762 62.5052 56.3232V57.0982C62.5052 57.1452 62.4812 57.1692 62.4342 57.1692H61.6862V59.7732C61.6862 60.0032 61.7552 60.1522 61.8932 60.2212Z" fill="#083783"/>
<path d="M66.752 56.5907C67.076 56.3867 67.427 56.2847 67.806 56.2847C67.919 56.2847 68.028 56.2937 68.133 56.3127C68.18 56.3197 68.201 56.3467 68.193 56.3937L68.035 57.1587C68.024 57.2017 67.997 57.2207 67.953 57.2127C67.906 57.2057 67.857 57.2017 67.806 57.2017C67.536 57.2017 67.301 57.2927 67.101 57.4747C66.901 57.6537 66.785 57.8757 66.752 58.1407V61.1007C66.752 61.1477 66.728 61.1717 66.681 61.1717H65.889C65.842 61.1717 65.818 61.1477 65.818 61.1007V56.3177C65.818 56.2707 65.842 56.2467 65.889 56.2467H66.681C66.728 56.2467 66.752 56.2707 66.752 56.3177V56.5907Z" fill="#083783"/>
<path d="M73.9858 56.2793C73.9858 56.2323 74.0098 56.2083 74.0568 56.2083H74.8488C74.8958 56.2083 74.9198 56.2323 74.9198 56.2793V61.0623C74.9198 61.1093 74.8958 61.1333 74.8488 61.1333H74.0568C74.0098 61.1333 73.9858 61.1093 73.9858 61.0623V60.8003C73.8948 60.8653 73.8058 60.9203 73.7188 60.9633C73.4778 61.0843 73.2248 61.1513 72.9598 61.1653L72.9098 61.1713H72.8828H72.8718H72.8448H72.7628L72.7028 61.1653L72.6488 61.1603L72.5938 61.1543L72.5448 61.1493C72.4028 61.1243 72.2638 61.0853 72.1298 61.0353C71.8568 60.9293 71.6178 60.7653 71.4148 60.5433C71.2108 60.3213 71.0648 60.0703 70.9778 59.7903C70.9378 59.6513 70.9118 59.5093 70.9008 59.3643C70.8978 59.3023 70.8938 59.2363 70.8898 59.1673V59.0853V59.0093V58.3923V58.2453L70.8848 58.1033V57.8403C70.8808 57.3823 70.8798 57.0023 70.8798 56.7003V56.3123C70.8798 56.2613 70.9028 56.2353 70.9508 56.2353H71.7308C71.7778 56.2353 71.8018 56.2613 71.8018 56.3123L71.7968 56.7003C71.7968 57.0023 71.7948 57.3823 71.7908 57.8403V58.3923L71.7858 58.5393V58.6923V59.0093V59.0913V59.1673V59.2983C71.7928 59.3793 71.8078 59.4573 71.8298 59.5333C71.8728 59.6903 71.9498 59.8303 72.0588 59.9533C72.1718 60.0773 72.3028 60.1703 72.4518 60.2323C72.5278 60.2613 72.6048 60.2833 72.6808 60.2973L72.7138 60.3033L72.7408 60.3083H72.7898L72.8608 60.3143H72.8888H72.9158C73.2138 60.3033 73.4648 60.1903 73.6688 59.9753C73.7498 59.8953 73.8148 59.8023 73.8658 59.6973C73.9018 59.6203 73.9308 59.5383 73.9528 59.4513C73.9608 59.4113 73.9658 59.3793 73.9698 59.3533L73.9748 59.3373V59.3203V59.2933L73.9808 59.2113L73.9858 59.1513V56.2793Z" fill="#083783"/>
<path d="M80.2426 60.2541C80.5336 60.2541 80.8006 60.1771 81.0446 60.0251C81.0856 60.0031 81.1176 60.0101 81.1436 60.0471L81.5796 60.6911C81.6096 60.7311 81.6016 60.7641 81.5586 60.7891C81.1576 61.0441 80.7196 61.1711 80.2426 61.1711C79.5476 61.1711 78.9576 60.9201 78.4736 60.4181C77.9896 59.9121 77.7636 59.3081 77.7966 58.6051C77.8226 57.9941 78.0516 57.4641 78.4846 57.0161C78.9176 56.5691 79.4386 56.3211 80.0456 56.2741C80.5916 56.2301 81.0946 56.3541 81.5526 56.6451C81.5966 56.6711 81.6036 56.7051 81.5746 56.7491L81.1376 57.3931C81.1126 57.4301 81.0816 57.4351 81.0446 57.4101C80.7356 57.2241 80.3986 57.1551 80.0346 57.2021C79.6886 57.2461 79.3926 57.3971 79.1456 57.6551C78.8976 57.9141 78.7556 58.2181 78.7196 58.5671C78.6756 59.0221 78.8066 59.4171 79.1126 59.7521C79.4186 60.0871 79.7946 60.2541 80.2426 60.2541Z" fill="#083783"/>
<path d="M86.1001 60.2212C86.2171 60.2792 86.3531 60.2592 86.5101 60.1612C86.5461 60.1392 86.5771 60.1472 86.6021 60.1832L87.0661 60.8052C87.0991 60.8452 87.0941 60.8782 87.0501 60.9032C86.7911 61.0822 86.5211 61.1712 86.2371 61.1712C86.0441 61.1712 85.8601 61.1272 85.6851 61.0402C85.4631 60.9312 85.2881 60.7642 85.1611 60.5382C85.0371 60.3122 84.9761 60.0572 84.9761 59.7732V57.1692H84.2281C84.1801 57.1692 84.1561 57.1452 84.1561 57.0982V56.3232C84.1561 56.2762 84.1801 56.2522 84.2281 56.2522H84.9761L84.9701 55.2202C84.9701 55.1732 84.9931 55.1492 85.0411 55.1492H85.8221C85.8691 55.1492 85.8921 55.1732 85.8921 55.2202V56.2522H86.6411C86.6881 56.2522 86.7121 56.2762 86.7121 56.3232V57.0982C86.7121 57.1452 86.6881 57.1692 86.6411 57.1692H85.8921V59.7732C85.8921 60.0032 85.9621 60.1522 86.1001 60.2212Z" fill="#083783"/>
<path d="M90.6263 55.3676C90.4803 55.3676 90.3573 55.3166 90.2553 55.2146C90.1493 55.1096 90.0963 54.9836 90.0963 54.8376C90.0963 54.6926 90.1493 54.5686 90.2553 54.4666C90.3573 54.3646 90.4803 54.3136 90.6263 54.3136C90.7713 54.3136 90.8953 54.3646 90.9973 54.4666C91.0993 54.5686 91.1503 54.6926 91.1503 54.8376C91.1503 54.9836 91.0993 55.1096 90.9973 55.2146C90.8953 55.3166 90.7713 55.3676 90.6263 55.3676ZM91.0143 56.2686C91.0613 56.2686 91.0843 56.2926 91.0843 56.3396V61.1006C91.0843 61.1476 91.0613 61.1716 91.0143 61.1716H90.2383C90.1913 61.1716 90.1673 61.1476 90.1673 61.1006V56.3396C90.1673 56.2926 90.1913 56.2686 90.2383 56.2686H91.0143Z" fill="#083783"/>
<path d="M96.293 56.2467C96.974 56.2467 97.553 56.4847 98.03 56.9617C98.51 57.4417 98.75 58.0207 98.75 58.6977C98.75 59.3787 98.51 59.9597 98.03 60.4397C97.553 60.9167 96.974 61.1547 96.293 61.1547C95.616 61.1547 95.037 60.9167 94.557 60.4397C94.077 59.9597 93.837 59.3787 93.837 58.6977C93.837 58.0207 94.077 57.4417 94.557 56.9617C95.037 56.4847 95.616 56.2467 96.293 56.2467ZM96.293 60.2377C96.719 60.2377 97.081 60.0867 97.38 59.7847C97.682 59.4857 97.833 59.1237 97.833 58.6977C97.833 58.2757 97.682 57.9157 97.38 57.6167C97.081 57.3147 96.719 57.1637 96.293 57.1637C95.871 57.1637 95.511 57.3147 95.212 57.6167C94.91 57.9157 94.759 58.2757 94.759 58.6977C94.759 59.1237 94.91 59.4857 95.212 59.7847C95.511 60.0867 95.871 60.2377 96.293 60.2377Z" fill="#083783"/>
<path d="M105.984 59.5716C105.988 60.0226 105.989 60.3996 105.989 60.7016L105.995 61.0896C105.995 61.1366 105.972 61.1606 105.924 61.1606H105.138C105.091 61.1606 105.067 61.1366 105.067 61.0896L105.073 60.7016C105.073 60.3996 105.074 60.0226 105.078 59.5716C105.078 59.4516 105.08 59.2696 105.084 59.0256V58.8786V58.7256V58.4146V58.2556L105.078 58.1416C105.071 58.0606 105.056 57.9846 105.034 57.9116C104.983 57.7586 104.901 57.6226 104.789 57.5026C104.679 57.3856 104.546 57.2986 104.39 57.2406C104.321 57.2116 104.246 57.1916 104.166 57.1806L104.133 57.1746C104.123 57.1716 104.115 57.1696 104.112 57.1696H104.095H104.084H104.051L104.013 57.1636H104.002H103.992H103.959L103.932 57.1696C103.64 57.1806 103.394 57.2946 103.194 57.5136C103.114 57.5936 103.051 57.6846 103.003 57.7866C102.963 57.8666 102.934 57.9486 102.916 58.0316C102.905 58.0716 102.897 58.1026 102.894 58.1246V58.1466V58.1626L102.888 58.1906C102.888 58.2226 102.886 58.2486 102.883 58.2666V58.3326V61.1006C102.883 61.1476 102.86 61.1716 102.812 61.1716H102.015C101.968 61.1716 101.944 61.1476 101.944 61.1006V56.3066C101.944 56.2596 101.968 56.2356 102.015 56.2356H102.812C102.86 56.2356 102.883 56.2596 102.883 56.3066V56.6776C102.967 56.6156 103.049 56.5656 103.129 56.5246C103.362 56.4046 103.611 56.3336 103.877 56.3126L103.926 56.3066H103.975H104.002H104.024H104.035H104.073H104.123L104.15 56.3126H104.177C104.195 56.3126 104.214 56.3136 104.231 56.3176L104.286 56.3226C104.428 56.3446 104.565 56.3796 104.696 56.4266C104.976 56.5286 105.216 56.6856 105.416 56.8966C105.624 57.1076 105.775 57.3516 105.87 57.6276C105.917 57.7626 105.948 57.9006 105.963 58.0426C105.974 58.1126 105.979 58.1826 105.979 58.2556V58.4146V58.7256V58.8786L105.984 59.0256V59.5716Z" fill="#083783"/>
<path d="M116.99 56.2793C116.99 56.2323 117.013 56.2083 117.061 56.2083H117.853C117.9 56.2083 117.923 56.2323 117.923 56.2793V61.0623C117.923 61.1093 117.9 61.1333 117.853 61.1333H117.061C117.013 61.1333 116.99 61.1093 116.99 61.0623V60.8003C116.899 60.8653 116.81 60.9203 116.723 60.9633C116.482 61.0843 116.229 61.1513 115.963 61.1653L115.914 61.1713H115.887H115.876H115.849H115.767L115.707 61.1653L115.653 61.1603L115.598 61.1543L115.549 61.1493C115.407 61.1243 115.268 61.0853 115.134 61.0353C114.861 60.9293 114.622 60.7653 114.418 60.5433C114.215 60.3213 114.069 60.0703 113.982 59.7903C113.941 59.6513 113.916 59.5093 113.905 59.3643C113.901 59.3023 113.898 59.2363 113.895 59.1673V59.0853V59.0093V58.3923V58.2453L113.889 58.1033V57.8403C113.885 57.3823 113.884 57.0023 113.884 56.7003V56.3123C113.884 56.2613 113.907 56.2353 113.954 56.2353H114.735C114.783 56.2353 114.806 56.2613 114.806 56.3123L114.8 56.7003C114.8 57.0023 114.799 57.3823 114.795 57.8403V58.3923L114.789 58.5393V58.6923V59.0093V59.0913V59.1673V59.2983C114.797 59.3793 114.811 59.4573 114.833 59.5333C114.877 59.6903 114.954 59.8303 115.063 59.9533C115.176 60.0773 115.306 60.1703 115.456 60.2323C115.532 60.2613 115.609 60.2833 115.685 60.2973L115.718 60.3033L115.745 60.3083H115.794L115.865 60.3143H115.892H115.92C116.218 60.3033 116.469 60.1903 116.673 59.9753C116.754 59.8953 116.819 59.8023 116.87 59.6973C116.906 59.6203 116.935 59.5383 116.957 59.4513C116.965 59.4113 116.97 59.3793 116.974 59.3533L116.979 59.3373V59.3203V59.2933L116.985 59.2113L116.99 59.1513V56.2793Z" fill="#083783"/>
<path d="M125.305 59.5716C125.308 60.0226 125.31 60.3996 125.31 60.7016L125.316 61.0896C125.316 61.1366 125.292 61.1606 125.245 61.1606H124.459C124.411 61.1606 124.388 61.1366 124.388 61.0896L124.393 60.7016C124.393 60.3996 124.395 60.0226 124.399 59.5716C124.399 59.4516 124.401 59.2696 124.404 59.0256V58.8786V58.7256V58.4146V58.2556L124.399 58.1416C124.392 58.0606 124.377 57.9846 124.355 57.9116C124.304 57.7586 124.222 57.6226 124.109 57.5026C124 57.3856 123.867 57.2986 123.711 57.2406C123.642 57.2116 123.567 57.1916 123.487 57.1806L123.454 57.1746C123.443 57.1716 123.436 57.1696 123.432 57.1696H123.416H123.405H123.372L123.334 57.1636H123.323H123.312H123.28L123.252 57.1696C122.961 57.1806 122.715 57.2946 122.515 57.5136C122.435 57.5936 122.371 57.6846 122.324 57.7866C122.284 57.8666 122.255 57.9486 122.236 58.0316C122.226 58.0716 122.219 58.1026 122.215 58.1246V58.1466V58.1626L122.21 58.1906C122.21 58.2226 122.208 58.2486 122.204 58.2666V58.3326V61.1006C122.204 61.1476 122.18 61.1716 122.133 61.1716H121.336C121.289 61.1716 121.265 61.1476 121.265 61.1006V56.3066C121.265 56.2596 121.289 56.2356 121.336 56.2356H122.133C122.18 56.2356 122.204 56.2596 122.204 56.3066V56.6776C122.288 56.6156 122.37 56.5656 122.449 56.5246C122.682 56.4046 122.932 56.3336 123.198 56.3126L123.247 56.3066H123.296H123.323H123.345H123.356H123.394H123.443L123.471 56.3126H123.498C123.516 56.3126 123.534 56.3136 123.552 56.3176L123.607 56.3226C123.749 56.3446 123.886 56.3796 124.016 56.4266C124.297 56.5286 124.537 56.6856 124.737 56.8966C124.945 57.1076 125.095 57.3516 125.19 57.6276C125.238 57.7626 125.269 57.9006 125.283 58.0426C125.294 58.1126 125.3 58.1826 125.3 58.2556V58.4146V58.7256V58.8786L125.305 59.0256V59.5716Z" fill="#083783"/>
<path d="M129.257 55.3676C129.111 55.3676 128.988 55.3166 128.886 55.2146C128.78 55.1096 128.727 54.9836 128.727 54.8376C128.727 54.6926 128.78 54.5686 128.886 54.4666C128.988 54.3646 129.111 54.3136 129.257 54.3136C129.403 54.3136 129.526 54.3646 129.628 54.4666C129.73 54.5686 129.781 54.6926 129.781 54.8376C129.781 54.9836 129.73 55.1096 129.628 55.2146C129.526 55.3166 129.403 55.3676 129.257 55.3676ZM129.645 56.2686C129.692 56.2686 129.715 56.2926 129.715 56.3396V61.1006C129.715 61.1476 129.692 61.1716 129.645 61.1716H128.869C128.822 61.1716 128.799 61.1476 128.799 61.1006V56.3396C128.799 56.2926 128.822 56.2686 128.869 56.2686H129.645Z" fill="#083783"/>
<path d="M134.406 60.2212C134.522 60.2792 134.659 60.2592 134.815 60.1612C134.851 60.1392 134.882 60.1472 134.908 60.1832L135.372 60.8052C135.405 60.8452 135.399 60.8782 135.356 60.9032C135.097 61.0822 134.826 61.1712 134.542 61.1712C134.349 61.1712 134.166 61.1272 133.991 61.0402C133.769 60.9312 133.594 60.7642 133.467 60.5382C133.343 60.3122 133.281 60.0572 133.281 59.7732V57.1692H132.533C132.486 57.1692 132.462 57.1452 132.462 57.0982V56.3232C132.462 56.2762 132.486 56.2522 132.533 56.2522H133.281L133.276 55.2202C133.276 55.1732 133.3 55.1492 133.346 55.1492H134.127C134.175 55.1492 134.199 55.1732 134.199 55.2202V56.2522H134.946C134.994 56.2522 135.017 56.2762 135.017 56.3232V57.0982C135.017 57.1452 134.994 57.1692 134.946 57.1692H134.199V59.7732C134.199 60.0032 134.267 60.1522 134.406 60.2212Z" fill="#083783"/>
<path d="M105.287 38.2669V38.3879C105.233 38.3879 105.186 38.4819 105.146 38.6689C105.106 38.8569 105.059 38.9909 105.005 39.0709C104.818 39.2319 104.724 39.6209 104.724 40.2369C104.428 40.9609 104.187 41.8729 104 42.9719C103.812 44.0719 103.745 44.8889 103.799 45.4249C103.906 46.3099 104.643 47.0199 106.011 47.5559C106.627 47.7979 107.082 47.9179 107.378 47.9179C107.994 48.0529 109.228 47.8649 111.077 47.3549C111.372 47.2749 111.721 47.2079 112.123 47.1539C112.525 47.1009 112.941 46.9929 113.37 46.8329C114.469 46.5379 115.099 46.4439 115.26 46.5509C115.554 46.7919 115.635 47.1139 115.501 47.5159C115.42 47.7309 114.991 48.0529 114.214 48.4809C113.436 48.9099 112.686 49.2319 111.962 49.4459C111.131 49.8219 110.126 50.0629 108.946 50.1699C107.766 50.2769 106.868 50.2239 106.252 50.0089C105.206 49.7409 104.254 49.2109 103.397 48.4209C102.538 47.6309 101.989 46.7919 101.748 45.9079C101.668 45.3179 101.62 44.5939 101.607 43.7359C101.593 42.8789 101.627 42.3429 101.708 42.1279C101.788 42.0739 101.821 41.9399 101.808 41.7249C101.794 41.5109 101.889 41.1019 102.09 40.4989C102.291 39.8959 102.351 39.4199 102.271 39.0709C102.405 38.7769 102.538 38.5619 102.673 38.4279C102.86 38.2139 102.927 37.9789 102.874 37.7239C102.82 37.4699 102.927 37.1549 103.196 36.7789L103.557 36.1759C103.584 35.9889 103.792 35.3919 104.181 34.3869C104.569 33.3809 104.831 32.7719 104.965 32.5569V32.4759C105.072 32.2089 105.22 31.9269 105.407 31.6319C105.568 30.5599 106.413 28.8039 107.941 26.3639C110.139 22.7989 111.573 20.9889 112.244 20.9349C112.539 20.9089 112.833 21.0429 113.128 21.3369C113.423 21.6319 113.611 21.9139 113.691 22.1819C113.879 22.8249 113.852 23.1739 113.611 23.2269C113.262 23.4689 112.566 24.3399 111.52 25.8409C110.474 27.3429 109.63 28.6829 108.987 29.8629L107.418 33.1199C106.775 34.4869 106.172 35.9619 105.608 37.5429C105.394 37.7579 105.287 37.9989 105.287 38.2669Z" fill="#4FB29E"/>
<path d="M119.16 44.6208L119.321 43.7758C119.294 43.6158 119.401 43.1728 119.642 42.4488C120.125 41.3778 120.769 39.4868 121.573 36.7788C121.573 36.4578 121.787 36.2838 122.216 36.2568C122.538 36.1498 122.779 36.1428 122.94 36.2368C123.101 36.3308 123.315 36.5918 123.583 37.0208C123.986 37.4228 123.952 38.1468 123.483 39.1918C123.014 40.2378 122.725 41.0418 122.619 41.6048C122.216 42.4898 121.915 43.3338 121.714 44.1378C121.513 44.9428 121.332 45.4788 121.171 45.7468C120.929 46.8468 120.708 47.4898 120.507 47.6768C120.306 47.8648 120.011 47.7508 119.622 47.3348C119.234 46.9198 119.012 46.4438 118.959 45.9078C118.905 45.3718 118.972 44.9428 119.16 44.6208ZM124.468 26.9268C125.085 26.4988 125.688 26.7528 126.278 27.6908C126.492 28.2278 126.559 28.6498 126.479 28.9578C126.399 29.2658 126.103 29.7288 125.594 30.3448C124.871 31.3098 124.147 31.4848 123.423 30.8678C123.101 30.5998 122.926 30.2648 122.9 29.8628C122.873 29.4608 122.886 29.2458 122.94 29.2188C123.154 29.1928 123.402 28.9578 123.684 28.5158C123.966 28.0728 124.099 27.7108 124.086 27.4298C124.072 27.1478 124.2 26.9808 124.468 26.9268Z" fill="#4FB29E"/>
<path d="M128.631 36.0551C128.912 35.3311 129.053 34.7821 129.053 34.4071C129.053 34.0311 129.207 33.7371 129.516 33.5221C129.823 33.3081 130.125 33.2271 130.42 33.2801C131.171 33.4411 131.559 33.9241 131.586 34.7281C131.613 35.1571 131.506 35.6801 131.265 36.2971C130.085 39.1921 129.496 40.7741 129.496 41.0421C129.522 41.1491 129.763 41.0081 130.219 40.6191C130.675 40.2311 131.15 39.8091 131.647 39.3531C132.143 38.8971 132.947 38.3211 134.06 37.6231C135.172 36.9271 136.023 36.4841 136.613 36.2971C136.774 36.2971 136.908 36.3101 137.015 36.3371C137.122 36.3641 137.21 36.3841 137.277 36.3971C137.343 36.4111 137.438 36.4641 137.558 36.5581C137.679 36.6521 137.766 36.7121 137.82 36.7391C138.034 36.9801 138.282 37.2411 138.563 37.5231C138.845 37.8041 138.905 38.2941 138.745 38.9911L137.94 41.5241C139.951 39.8091 141.291 38.7761 141.962 38.4281C143.275 37.7581 144.254 37.9051 144.897 38.8701C145.219 39.1921 145.386 39.4871 145.4 39.7551C145.413 40.0231 145.42 40.1971 145.42 40.2781V41.6451C145.581 43.7361 145.708 44.8421 145.802 44.9621C145.896 45.0831 146.245 45.1911 146.848 45.2841C147.451 45.3781 147.779 45.5721 147.833 45.8671C147.886 46.1631 147.712 46.4441 147.31 46.7121C146.586 47.1411 145.701 47.1611 144.656 46.7721C143.611 46.3841 143.101 45.1571 143.128 43.0931C143.181 42.2881 143.201 41.6591 143.188 41.2021C143.175 40.7471 143.074 40.5191 142.887 40.5191C142.538 40.5191 141.787 40.9751 140.635 41.8861C139.213 43.0391 137.953 44.2451 136.854 45.5051C136.72 45.6931 136.613 45.8211 136.533 45.8871C136.452 45.9551 136.345 46.0481 136.211 46.1691C136.077 46.2901 135.97 46.3641 135.89 46.3901C135.809 46.4171 135.701 46.4441 135.568 46.4701C135.38 46.5251 134.991 46.3101 134.401 45.8271C134.16 45.6131 134.093 45.3041 134.2 44.9021L135.125 42.2481C135.983 40.1841 136.318 39.1521 136.131 39.1521C135.89 39.1791 135.554 39.3061 135.125 39.5341C134.696 39.7621 134.428 39.9831 134.321 40.1971C134.241 40.1971 134.053 40.3451 133.758 40.6391C133.463 40.9351 133.222 41.1361 133.034 41.2431C132.9 41.4581 132.457 41.9331 131.707 42.6701C130.956 43.4081 130.454 43.8911 130.199 44.1181C129.944 44.3461 129.636 44.6881 129.274 45.1431C128.912 45.6001 128.617 45.9821 128.39 46.2901C128.162 46.5981 128.021 46.7521 127.968 46.7521C127.136 46.7521 126.613 46.3501 126.399 45.5461C126.211 45.1431 126.198 44.5671 126.359 43.8161C126.52 43.0661 126.666 42.4231 126.801 41.8861C126.935 41.3501 127.036 40.9151 127.103 40.5791C127.169 40.2441 127.23 39.9561 127.284 39.7141C127.337 39.4731 127.377 39.3061 127.404 39.2121C127.431 39.1181 127.491 38.9371 127.585 38.6691C127.679 38.4011 127.806 38.0801 127.968 37.7041C128.128 37.3291 128.349 36.7791 128.631 36.0551Z" fill="#4FB29E"/>
<path d="M152.376 34.7683L152.819 33.4013C152.952 33.2943 153.201 32.7113 153.562 31.6523C153.925 30.5933 154.266 29.7153 154.588 29.0183C155.553 26.8733 156.223 25.2783 156.598 24.2323C156.76 23.9913 156.934 23.7093 157.121 23.3883C157.496 22.6913 157.751 22.3163 157.886 22.2623C158.1 22.2083 158.374 22.2493 158.71 22.3823C159.045 22.5173 159.299 22.7183 159.474 22.9853C159.648 23.2543 159.695 23.5083 159.615 23.7503C159.534 23.9913 159.004 25.1443 158.026 27.2083C157.047 29.2733 156.303 30.9623 155.794 32.2753C155.285 33.5893 154.829 34.8353 154.427 36.0153C154.025 37.1953 153.756 37.9593 153.623 38.3073L153.422 39.1923L154.427 38.2263C154.749 37.9853 155.257 37.5573 155.955 36.9403C156.652 36.3233 157.087 35.9613 157.262 35.8543C157.436 35.7473 157.831 35.5593 158.448 35.2913C159.494 34.8353 160.513 34.6073 161.505 34.6073C162.496 34.6073 163.327 35.1703 163.998 36.2963C164.641 37.5033 164.547 38.8033 163.716 40.1973C163.314 40.4923 163.099 40.8003 163.073 41.1223C163.046 41.4443 162.362 42.3423 161.022 43.8163C160.325 44.5403 159.407 45.2643 158.268 45.9883C157.128 46.7113 156.344 47.1483 155.915 47.2953C155.486 47.4423 155.137 47.5433 154.869 47.5963C154.199 47.6773 153.77 47.7443 153.583 47.7973C153.046 47.7443 152.718 47.6773 152.597 47.5963C152.477 47.5163 152.336 47.3023 152.175 46.9533C151.853 46.6053 151.719 46.2963 151.773 46.0283C152.095 46.0283 152.282 45.9753 152.336 45.8673C152.336 45.7063 152.591 45.6533 153.1 45.7063C153.609 45.7603 154.548 45.3843 155.915 44.5803C157.282 43.7763 158.649 42.7443 160.017 41.4843C161.008 40.1973 161.632 39.2593 161.886 38.6693C162.141 38.0803 162.174 37.5833 161.987 37.1813C161.933 36.9133 161.538 36.8193 160.801 36.8993C160.063 36.9803 159.319 37.2753 158.569 37.7843C155.674 39.5813 153.729 41.5913 152.738 43.8163L152.537 44.2183C152.537 44.3263 152.383 44.4603 152.075 44.6203C151.766 44.7813 151.505 44.8623 151.29 44.8623C150.861 44.6753 150.606 44.3793 150.526 43.9773C150.151 43.7093 149.963 43.4743 149.963 43.2733C149.963 43.0723 150.151 42.3023 150.526 40.9613C150.741 39.9433 151.015 38.8843 151.351 37.7843C151.686 36.6853 151.92 36.0823 152.054 35.9753C152.269 35.5993 152.376 35.1973 152.376 34.7683Z" fill="#4FB29E"/>
<path d="M13.724 47.0537C13.782 47.1027 13.795 47.1617 13.762 47.2277C13.737 47.2937 13.687 47.3267 13.612 47.3267H10.755C10.705 47.3267 10.668 47.3107 10.643 47.2767L3.283 40.4127V47.1657C3.283 47.2727 3.229 47.3267 3.121 47.3267H1.163C1.054 47.3267 1 47.2727 1 47.1657V29.6997C1 29.5927 1.054 29.5387 1.163 29.5387H3.121C3.229 29.5387 3.283 29.5927 3.283 29.6997V36.3037L10.044 29.6007C10.077 29.5677 10.115 29.5507 10.156 29.5507H12.926C13.001 29.5507 13.05 29.5847 13.076 29.6507C13.109 29.7167 13.1 29.7747 13.05 29.8247L4.431 38.3767L13.724 47.0537Z" fill="#083783"/>
<path d="M13.724 47.0537C13.782 47.1027 13.795 47.1617 13.762 47.2277C13.737 47.2937 13.687 47.3267 13.612 47.3267H10.755C10.705 47.3267 10.668 47.3107 10.643 47.2767L3.283 40.4127V47.1657C3.283 47.2727 3.229 47.3267 3.121 47.3267H1.163C1.054 47.3267 1 47.2727 1 47.1657V29.6997C1 29.5927 1.054 29.5387 1.163 29.5387H3.121C3.229 29.5387 3.283 29.5927 3.283 29.6997V36.3037L10.044 29.6007C10.077 29.5677 10.115 29.5507 10.156 29.5507H12.926C13.001 29.5507 13.05 29.5847 13.076 29.6507C13.109 29.7167 13.1 29.7747 13.05 29.8247L4.431 38.3767L13.724 47.0537Z" stroke="#003683" stroke-width="0.762"/>
<path d="M18.1968 29.5509C18.3138 29.5509 18.3718 29.6049 18.3718 29.7119V47.1659C18.3718 47.2729 18.3138 47.3269 18.1968 47.3269H16.0838C15.9668 47.3269 15.9088 47.2729 15.9088 47.1659V29.7119C15.9088 29.6049 15.9668 29.5509 16.0838 29.5509H18.1968Z" fill="#083783"/>
<path d="M18.1968 29.5509C18.3138 29.5509 18.3718 29.6049 18.3718 29.7119V47.1659C18.3718 47.2729 18.3138 47.3269 18.1968 47.3269H16.0838C15.9668 47.3269 15.9088 47.2729 15.9088 47.1659V29.7119C15.9088 29.6049 15.9668 29.5509 16.0838 29.5509H18.1968Z" stroke="#003683" stroke-width="0.762"/>
<path d="M30.7757 29.5141C30.8847 29.5141 30.9387 29.5681 30.9387 29.6751V41.6911C30.9387 43.2471 30.3837 44.5751 29.2737 45.6761C28.1547 46.7761 26.8147 47.3271 25.2547 47.3271C24.2697 47.3271 23.3427 47.0871 22.4747 46.6071C21.6147 46.1271 20.9267 45.4731 20.4087 44.6451C20.3507 44.5541 20.3677 44.4801 20.4597 44.4221L22.1617 43.4411C22.2537 43.3921 22.3287 43.4121 22.3877 43.5031C22.6957 43.9831 23.1047 44.3641 23.6137 44.6451C24.1237 44.9191 24.6697 45.0551 25.2547 45.0551C26.1887 45.0551 26.9857 44.7281 27.6457 44.0741C28.3137 43.4121 28.6477 42.6181 28.6477 41.6911V29.6751C28.6477 29.5681 28.7017 29.5141 28.8097 29.5141H30.7757Z" fill="#083783"/>
<path d="M30.7757 29.5141C30.8847 29.5141 30.9387 29.5681 30.9387 29.6751V41.6911C30.9387 43.2471 30.3837 44.5751 29.2737 45.6761C28.1547 46.7761 26.8147 47.3271 25.2547 47.3271C24.2697 47.3271 23.3427 47.0871 22.4747 46.6071C21.6147 46.1271 20.9267 45.4731 20.4087 44.6451C20.3507 44.5541 20.3677 44.4801 20.4597 44.4221L22.1617 43.4411C22.2537 43.3921 22.3287 43.4121 22.3877 43.5031C22.6957 43.9831 23.1047 44.3641 23.6137 44.6451C24.1237 44.9191 24.6697 45.0551 25.2547 45.0551C26.1887 45.0551 26.9857 44.7281 27.6457 44.0741C28.3137 43.4121 28.6477 42.6181 28.6477 41.6911V29.6751C28.6477 29.5681 28.7017 29.5141 28.8097 29.5141H30.7757Z" stroke="#003683" stroke-width="0.762"/>
<path d="M42.1444 29.5141C42.2194 29.5141 42.2684 29.5471 42.2934 29.6131L49.5614 47.1031C49.5864 47.1531 49.5824 47.2021 49.5494 47.2521C49.5164 47.3021 49.4704 47.3271 49.4124 47.3271H47.4244C47.3504 47.3271 47.3004 47.2941 47.2754 47.2271L44.4304 40.3751H38.1314L35.2864 47.2271C35.2614 47.2941 35.2114 47.3271 35.1374 47.3271H33.1494C33.0914 47.3271 33.0454 47.3021 33.0124 47.2521C32.9794 47.2021 32.9754 47.1531 33.0004 47.1031L40.2684 29.6131C40.3014 29.5471 40.3514 29.5141 40.4174 29.5141H42.1444ZM43.5234 38.2151L41.2874 32.8161L39.0384 38.2151H43.5234Z" fill="#083783"/>
<path d="M42.1444 29.5141C42.2194 29.5141 42.2684 29.5471 42.2934 29.6131L49.5614 47.1031C49.5864 47.1531 49.5824 47.2021 49.5494 47.2521C49.5164 47.3021 49.4704 47.3271 49.4124 47.3271H47.4244C47.3504 47.3271 47.3004 47.2941 47.2754 47.2271L44.4304 40.3751H38.1314L35.2864 47.2271C35.2614 47.2941 35.2114 47.3271 35.1374 47.3271H33.1494C33.0914 47.3271 33.0454 47.3021 33.0124 47.2521C32.9794 47.2021 32.9754 47.1531 33.0004 47.1031L40.2684 29.6131C40.3014 29.5471 40.3514 29.5141 40.4174 29.5141H42.1444ZM43.5234 38.2151L41.2874 32.8161L39.0384 38.2151H43.5234Z" stroke="#003683" stroke-width="0.762"/>
<path d="M61.8033 37.6443C62.5773 38.1323 63.1843 38.7783 63.6253 39.5813C64.0743 40.4003 64.2863 41.2853 64.2623 42.2373C64.2203 43.6603 63.6713 44.8653 62.6143 45.8493C61.5663 46.8343 60.3183 47.3263 58.8703 47.3263H51.9813C51.8733 47.3263 51.8193 47.2733 51.8193 47.1653V29.7123C51.8193 29.6053 51.8733 29.5513 51.9813 29.5513H58.4213C59.7273 29.5513 60.8463 30.0103 61.7783 30.9283C62.7103 31.8393 63.1883 32.9443 63.2133 34.2433C63.2383 35.5593 62.7683 36.6933 61.8033 37.6443ZM54.0903 36.8253H58.4213C59.1113 36.8253 59.7023 36.5813 60.1933 36.0923C60.6923 35.6043 60.9423 35.0123 60.9423 34.3173C60.9423 33.6313 60.6923 33.0433 60.1933 32.5553C59.7023 32.0583 59.1113 31.8103 58.4213 31.8103H54.0903V36.8253ZM58.9833 45.0673C59.8143 45.0673 60.5223 44.7743 61.1043 44.1863C61.6953 43.6073 61.9903 42.9033 61.9903 42.0763C61.9903 41.2563 61.6953 40.5533 61.1043 39.9653C60.5223 39.3863 59.8143 39.0963 58.9833 39.0963H54.0903V45.0673H58.9833Z" fill="#083783"/>
<path d="M61.8033 37.6443C62.5773 38.1323 63.1843 38.7783 63.6253 39.5813C64.0743 40.4003 64.2863 41.2853 64.2623 42.2373C64.2203 43.6603 63.6713 44.8653 62.6143 45.8493C61.5663 46.8343 60.3183 47.3263 58.8703 47.3263H51.9813C51.8733 47.3263 51.8193 47.2733 51.8193 47.1653V29.7123C51.8193 29.6053 51.8733 29.5513 51.9813 29.5513H58.4213C59.7273 29.5513 60.8463 30.0103 61.7783 30.9283C62.7103 31.8393 63.1883 32.9443 63.2133 34.2433C63.2383 35.5593 62.7683 36.6933 61.8033 37.6443ZM54.0903 36.8253H58.4213C59.1113 36.8253 59.7023 36.5813 60.1933 36.0923C60.6923 35.6043 60.9423 35.0123 60.9423 34.3173C60.9423 33.6313 60.6923 33.0433 60.1933 32.5553C59.7023 32.0583 59.1113 31.8103 58.4213 31.8103H54.0903V36.8253ZM58.9833 45.0673C59.8143 45.0673 60.5223 44.7743 61.1043 44.1863C61.6953 43.6073 61.9903 42.9033 61.9903 42.0763C61.9903 41.2563 61.6953 40.5533 61.1043 39.9653C60.5223 39.3863 59.8143 39.0963 58.9833 39.0963H54.0903V45.0673H58.9833Z" stroke="#003683" stroke-width="0.762"/>
<path d="M79.6086 29.5509C79.7166 29.5509 79.7706 29.6049 79.7706 29.7119V31.6489C79.7706 31.7559 79.7166 31.8099 79.6086 31.8099H70.1036V37.3089H76.9856C77.0936 37.3089 77.1486 37.3629 77.1486 37.4709V39.4069C77.1486 39.5149 77.0936 39.5689 76.9856 39.5689H70.1036V45.0679H79.6086C79.7166 45.0679 79.7706 45.1219 79.7706 45.2289V47.1659C79.7706 47.2729 79.7166 47.3269 79.6086 47.3269H67.9936C67.8846 47.3269 67.8306 47.2729 67.8306 47.1659V29.7119C67.8306 29.6049 67.8846 29.5509 67.9936 29.5509H79.6086Z" fill="#083783"/>
<path d="M79.6086 29.5509C79.7166 29.5509 79.7706 29.6049 79.7706 29.7119V31.6489C79.7706 31.7559 79.7166 31.8099 79.6086 31.8099H70.1036V37.3089H76.9856C77.0936 37.3089 77.1486 37.3629 77.1486 37.4709V39.4069C77.1486 39.5149 77.0936 39.5689 76.9856 39.5689H70.1036V45.0679H79.6086C79.7166 45.0679 79.7706 45.1219 79.7706 45.2289V47.1659C79.7706 47.2729 79.7166 47.3269 79.6086 47.3269H67.9936C67.8846 47.3269 67.8306 47.2729 67.8306 47.1659V29.7119C67.8306 29.6049 67.8846 29.5509 67.9936 29.5509H79.6086Z" stroke="#003683" stroke-width="0.762"/>
<path d="M89.6745 44.5437L89.6715 44.5557C90.0225 42.6277 89.1495 40.7477 88.7215 39.1307C88.0065 38.5977 86.8345 38.5197 85.8885 38.2167C85.8825 37.9047 86.2275 37.9457 86.5285 37.9427C86.4215 37.8057 86.4145 37.5687 86.2545 37.4857C86.7255 37.3817 87.4055 37.8557 87.9905 37.9427C87.7535 36.9597 87.1565 35.5477 87.1685 34.0127C87.1965 33.7707 86.9775 33.7767 86.8025 33.7387C86.9355 33.5967 87.1595 33.5457 87.4425 33.5557C87.4725 32.9447 87.6865 32.5207 87.7165 31.9097C86.8665 31.5107 85.5725 31.5557 84.7925 31.0877C85.3655 31.1197 87.5775 32.0267 88.0825 30.9967C87.3175 30.7167 86.1435 30.4907 85.2495 30.6307C85.6855 30.0617 87.1185 30.4887 87.9905 30.3567C88.1415 30.3157 87.8445 29.9627 87.7165 29.8997C89.0795 29.3247 89.4185 26.0857 88.5385 24.6897C88.3715 24.5537 88.2295 24.4447 88.0825 24.6897C88.0305 23.1767 86.4415 22.4377 84.7005 22.3137C83.8175 21.8927 83.2015 20.2177 82.4155 19.3887C82.0665 19.0207 80.5785 19.1317 79.8565 18.8407C78.4185 18.2617 76.9275 16.3837 75.5605 16.1897C75.1225 16.1277 74.6945 16.3627 74.2805 16.3727C73.0585 16.4027 71.9625 15.7607 70.7165 15.9157C70.7335 16.2947 71.3715 16.0517 71.3555 16.4647C68.1355 16.4267 64.4885 16.7147 62.3995 18.1097C62.4625 18.4417 62.7695 18.5307 62.7645 18.9317C62.4205 18.9907 61.8005 19.1327 61.4855 18.9317C61.7095 18.0827 61.1705 18.0197 61.3935 17.2867C60.1535 17.0337 58.3455 17.3497 57.0985 17.1037C57.3085 16.8397 56.7865 16.5227 56.8235 16.1897C56.9045 15.4647 59.3095 14.2887 60.1135 13.7217C61.3305 12.8667 62.5285 12.1357 63.4955 11.4367C63.9605 11.1017 64.2345 10.3967 64.5925 10.2487C65.3215 9.94871 66.6255 10.4327 67.0605 9.97471C67.2585 9.92371 66.7505 9.62171 67.0605 9.42671C67.6795 8.85671 69.0195 9.00971 69.5275 8.32971C69.2265 7.77771 67.9935 8.15871 67.7005 7.59871C67.7425 7.09471 68.1805 7.20671 68.5225 6.95871C68.9825 6.62471 69.3115 6.04071 69.8025 5.77071C70.9275 5.15171 72.9945 4.73171 74.9205 4.30771C76.7415 3.90871 78.7885 3.35271 80.4035 3.21171C81.4875 3.11671 82.4135 3.24071 83.2385 2.84571C83.2665 3.05671 82.9735 2.94771 82.9645 3.11971C86.4405 3.76371 89.7045 2.78671 92.6515 1.56571C94.8375 0.661708 97.5015 0.172711 99.8715 0.0127106C101.727 -0.112289 103.352 0.729707 105.357 0.560707C105.758 0.527707 106.353 0.271708 106.91 0.377708C105.677 1.22371 103.576 1.70871 101.609 1.84071C100.452 1.91771 99.2595 1.65271 98.1355 1.84071C96.5235 2.10871 95.4495 2.97371 94.2975 3.48571C97.9505 3.11771 101.862 2.21471 106.362 2.38871C106.575 1.86671 107.65 2.45971 108.464 2.57171C109.139 2.66471 110.216 2.50571 111.024 2.57171C113.4 2.76671 116.259 4.25471 119.248 5.03971C120.59 5.39171 121.765 5.81271 123.271 6.41071C124.217 6.78571 126.53 7.67571 126.561 8.42071C126.596 9.25271 125.723 9.17071 124.824 9.15271C126.088 11.4477 122.433 12.2647 119.706 11.9857C118.445 11.8567 117.182 10.9817 115.776 10.7977C113.327 10.4767 110.957 10.3687 109.47 11.5287C110.289 11.4687 111.39 11.1977 111.389 12.1687C109.853 13.5087 107.601 13.0857 105.813 13.9047C105.055 14.2527 104.744 15.1927 103.986 15.5497C103.508 15.7757 102.862 15.6847 102.341 15.9157C101.391 16.3357 100.526 17.7447 99.5985 18.4747C98.8635 19.0537 97.0645 18.9097 96.0335 19.3887C95.1475 19.8007 94.6395 20.9297 93.6565 21.1257C93.1135 22.5177 91.7135 23.7707 91.0985 25.1467C90.4075 26.6907 90.6225 28.5307 90.0015 30.3567C91.2475 30.5967 92.6965 30.2487 94.0235 30.2657C95.2135 28.6197 94.1405 25.1377 94.5715 22.8617C95.2275 23.3607 96.2575 22.9837 97.1305 23.3187C96.6275 25.3607 96.7625 28.1217 97.1305 30.2657C98.0025 30.2607 98.8855 29.9617 99.6895 30.1737C99.2985 30.7257 98.2635 30.6367 97.4045 30.7217C97.1205 30.9537 97.9235 30.8667 97.8615 31.1787C97.6525 31.2747 97.3105 31.2367 97.1305 31.3617C97.1365 34.6167 97.0835 37.9287 97.6785 40.5927C98.3595 40.6737 99.3625 40.4327 99.3235 41.2327C98.6945 41.1617 98.1995 40.9567 97.5875 40.8667C97.9235 41.3847 99.0235 41.1367 99.4155 41.5987C99.1035 41.9567 98.1835 41.7067 97.5875 41.7807C96.7475 42.6557 98.0645 47.4777 97.0395 47.7227C96.4265 47.8677 96.4755 47.2867 96.3075 46.8077C95.7875 47.0787 96.1255 48.2097 95.5775 48.4527C95.3065 48.2367 95.1625 47.8927 94.6625 47.9047C94.7435 45.5827 95.1715 43.5267 94.9375 41.1417C93.7975 40.5127 92.2745 40.2697 91.0065 39.7707C91.6925 41.7857 91.0895 44.8327 91.8295 46.6257C92.0245 47.0977 92.7625 47.7587 92.7435 48.2707C92.7095 49.1937 91.6705 49.0667 91.0065 49.3667C90.2895 49.6917 90.2295 50.3767 89.4535 50.3727C89.6575 49.2917 89.8305 47.4017 89.7265 45.7107M86.6205 4.39971C86.7135 5.08071 87.5435 4.75571 87.9905 4.67371C89.5465 4.39071 91.7595 4.11871 92.7435 3.39371C92.7335 3.28271 92.7165 3.17771 92.5605 3.21171C90.8995 3.92671 88.5695 3.97271 86.6205 4.39971ZM79.3075 6.59371C78.9205 7.39371 77.7045 7.36571 76.9315 7.78071C79.5735 7.93271 81.8445 7.15571 84.2435 7.05071C84.8195 7.02471 85.9165 7.27571 86.3465 6.77571C84.1935 6.53671 81.3395 6.38971 79.3075 6.59371ZM87.1685 7.05071C87.5205 7.21171 88.1685 6.98271 88.2645 6.59371C87.9035 6.74971 87.4445 6.80771 87.1685 7.05071ZM101.061 7.05071C101.445 7.00771 101.912 7.04871 102.067 6.77571C101.687 6.58771 101.234 6.76671 101.061 7.05071ZM94.1135 7.87271C95.2195 7.84671 97.8975 7.81971 98.7755 6.95871C97.0365 7.07871 95.5165 7.41571 94.1135 7.87271ZM71.5385 7.50671C70.8945 7.69471 69.7275 7.72871 69.7105 8.60371C71.1485 8.09171 72.9165 7.90971 74.0975 7.14171C73.2025 7.02771 72.2845 7.29071 71.5385 7.50671ZM106.453 8.32971C108.276 8.11071 110.539 8.33271 112.029 7.78071C110.694 7.14271 107.439 7.26871 106.453 8.32971ZM113.857 7.59871C113.523 7.53671 113.192 7.47071 112.76 7.50671C112.761 8.01471 113.668 7.73671 113.857 7.59871ZM77.6625 8.23771C79.0125 8.85871 81.2155 8.52271 82.8725 8.42071C84.3275 8.33171 86.0105 8.38271 86.7115 7.68971C83.4535 7.22271 80.5205 8.29971 77.6625 8.23771ZM123.363 8.14571C123.79 8.08771 124.457 8.26571 124.733 8.05571C124.295 7.76071 123.597 7.48171 123.363 8.14571ZM114.314 8.14571C115.052 8.00071 116.395 8.46071 116.69 7.87271C115.852 7.91771 114.803 7.75271 114.314 8.14571ZM70.8995 9.24371C72.1925 9.07471 73.3375 8.75671 74.6465 8.60371C73.5485 8.24271 71.7735 8.77271 70.8995 9.24371ZM82.9645 8.60371C83.3835 9.03671 84.1455 8.92771 84.7925 9.06071C85.4085 9.18771 86.0935 9.48671 86.7115 9.24371C86.4905 7.82471 84.2665 8.71271 82.9645 8.60371ZM88.9045 9.15271C90.1905 10.0367 92.3235 8.97271 93.8405 8.69571C92.2815 8.57571 89.8045 8.13071 88.9045 9.15271ZM99.3235 10.5237C99.9055 10.3977 99.8775 10.8837 100.33 10.8887C101.612 10.2827 103.159 9.93971 104.626 9.51771C102.88 8.72071 100.824 9.95071 99.3235 10.5237ZM103.895 10.1577C104.334 10.2427 104.98 10.2617 104.717 9.79171C104.559 10.0297 103.911 9.77871 103.895 10.1577ZM73.8235 11.7107C72.1465 12.1097 70.3885 12.7907 68.7975 12.8997C68.0285 12.9517 67.2055 12.6457 66.4205 12.8077C65.5395 12.9917 64.9085 13.8957 64.0445 14.2707C65.4635 14.3067 66.9965 14.0097 68.5225 13.7217C70.3155 13.3837 72.8495 13.0407 74.0065 12.2597C74.1595 12.3807 74.3135 12.5017 74.6465 12.4427C77.0815 11.6787 80.3495 11.7477 82.3235 10.5237C78.8885 10.1887 76.5085 11.0747 73.8235 11.7107ZM83.6035 11.2547C84.2055 11.3767 85.0755 10.8667 84.7925 10.7057C84.4565 10.9507 83.8985 10.9707 83.6035 11.2547ZM122.082 11.1627C120.804 11.2227 119.405 10.9167 118.336 11.0717C119.191 11.5597 121.168 11.7667 122.082 11.1627ZM82.9645 13.0817C84.5665 13.1617 85.5985 12.6717 86.8945 12.4427C86.9955 11.8127 87.5075 11.5947 87.8995 11.2547C85.7575 11.3677 84.2055 12.0697 82.9645 13.0817ZM94.0235 12.2597C94.8095 12.0827 94.8425 12.6587 95.3945 12.7167C96.3555 12.1557 97.9435 12.2197 98.7755 11.5287C97.2265 11.8077 95.3245 11.7337 94.0235 12.2597ZM80.4955 12.3507C81.4875 12.2467 82.4995 12.1617 83.0555 11.6197C81.9105 11.5727 81.2295 11.9877 80.4955 12.3507ZM100.33 12.4427C101.396 12.6697 102.5 12.3527 102.889 11.6197C101.99 11.8477 101.041 12.0267 100.33 12.4427ZM64.6835 11.7107C63.2835 12.3197 61.5485 14.0597 59.9315 14.9097C59.1805 15.3047 58.4025 15.2967 58.2865 16.0987C61.4325 15.4067 64.3175 14.4527 66.1465 12.4427C65.7755 12.3007 65.1785 11.4967 64.6835 11.7107ZM105.723 11.8947H104.534C104.66 12.3037 105.504 11.9867 105.723 11.8947ZM73.5495 13.7217C75.1415 13.8167 76.5345 12.9317 77.6625 12.2597C77.6435 12.1567 77.5605 12.1177 77.4795 12.0767C76.3345 12.7897 73.9605 12.2747 73.5495 13.7217ZM92.0115 12.7167C92.5285 12.6237 93.1185 12.6037 93.3825 12.2597C92.8665 12.3517 92.2775 12.3717 92.0115 12.7167ZM76.4745 14.0877C77.9395 14.5727 79.6065 14.4197 81.0445 13.9967C80.8565 13.4877 81.5105 12.7597 81.3185 12.6257C79.5985 13.0077 77.5955 13.1067 76.4745 14.0877ZM71.9965 13.2647C72.1455 13.6337 72.7365 13.5597 73.1845 13.6307C73.1815 13.4157 73.3415 13.3617 73.2755 13.0817C72.8005 13.0947 72.4705 13.2527 71.9965 13.2647ZM93.2015 15.5497C95.1035 14.7417 98.0835 15.0107 99.4155 13.6307C98.8885 13.1087 97.8625 13.2177 97.3135 13.3567C97.3115 13.2227 97.6985 13.0667 97.3135 13.0817C95.9805 13.8817 93.1055 13.6267 93.2015 15.5497ZM70.0765 14.4537C71.0165 14.2057 72.5575 14.5577 73.0015 13.8137C71.8735 13.5317 70.8435 14.0747 70.0765 14.4537ZM87.0765 14.0877C88.3855 14.6007 87.8125 16.1847 88.8125 17.1947C88.9375 16.7407 88.8165 16.0417 89.1785 15.8247C88.9975 17.8377 88.5785 20.6657 89.3615 22.3137C89.5805 22.3687 89.7785 22.4447 90.0925 22.4047C90.0655 22.7377 90.1075 22.9997 90.1845 23.2277C90.9775 22.6797 90.4895 20.8507 91.1905 20.2107C91.0605 19.2297 91.3455 18.6607 91.6465 18.1097C91.5435 16.8267 91.5255 15.7387 92.1035 14.5447C90.6845 14.4047 90.3895 15.3897 89.0875 15.3667C88.5535 14.4727 89.9745 14.0087 89.7265 13.7217C88.9725 13.9727 87.6575 13.6627 87.0765 14.0877ZM86.0715 13.9047C83.8875 14.3407 81.5585 14.6327 79.3075 15.0017C80.6635 16.9967 86.5455 14.4657 85.8885 18.4747C86.9595 18.4887 87.0275 17.0147 87.8995 17.3777C87.3195 16.1907 86.7695 14.9737 86.0715 13.9047ZM102.798 15.5497C103.634 15.3497 104.061 14.7417 104.626 14.2707C103.676 14.2967 102.729 14.8107 102.798 15.5497ZM99.2325 16.2807C99.0445 16.2557 99.1465 15.9407 98.9575 15.9157C98.3895 16.7787 97.5775 17.3977 97.0395 18.2927C99.5595 18.0097 100.62 16.2657 102.067 14.9097C100.704 14.9497 100.076 15.7217 99.2325 16.2807ZM69.3455 16.0077C69.6895 16.1457 69.9365 16.2397 70.3505 16.0987C70.4155 15.5947 69.3925 15.6117 69.3455 16.0077ZM79.0335 16.9207C78.4775 16.5177 77.9225 15.5427 77.0225 16.0987C78.6605 16.7767 79.4555 18.2967 81.5015 18.5667C81.3425 17.6287 79.8395 17.5057 79.0335 16.9207ZM92.1955 18.0177C92.7825 17.7527 93.0745 17.1907 93.6565 16.9207C93.5145 16.5157 93.1455 16.3357 92.7435 16.1897C92.5965 16.8347 92.3035 17.3337 92.1955 18.0177ZM95.4855 16.8297C96.1055 17.2087 97.0895 16.5187 96.7645 16.2807C96.4595 16.5857 95.7215 16.4557 95.4855 16.8297ZM84.9745 18.1097C85.1155 17.8547 84.8555 17.3517 84.7925 17.0117C84.4805 16.8967 84.1455 16.8057 83.7865 16.7387C83.8975 17.4797 84.4265 17.8047 84.9745 18.1097ZM82.5065 17.2867C83.2915 17.6467 83.7385 18.7727 84.7925 18.5667C84.2715 18.0037 83.4125 16.8607 82.5065 17.2867ZM92.8355 18.0177C94.0595 17.8437 95.4885 18.4267 95.7595 17.2867C94.7655 16.8637 93.1925 17.2177 92.8355 18.0177ZM61.5765 17.9267C62.1245 18.1307 62.4985 17.5567 62.8565 17.2867C62.2185 16.9927 61.7385 17.4587 61.5765 17.9267ZM88.7215 20.8507V18.8407C88.3245 18.6597 88.2085 18.1967 87.8995 17.9267C87.8615 19.2127 88.1375 20.1867 88.7215 20.8507ZM91.7375 19.3887C91.5575 20.2417 91.7205 21.3717 91.8295 22.2217C92.2035 21.2997 92.6845 20.5737 93.2915 19.9377C93.6895 19.5197 94.4425 19.2707 94.3885 18.6577C93.4555 18.8517 92.2855 18.8087 91.7375 19.3887ZM83.9685 19.3887C84.2825 20.8727 85.8445 21.1087 86.9855 21.7647C86.9695 21.0807 86.2745 21.0737 86.3465 20.3027C85.2865 20.8667 84.9595 20.0307 84.7925 19.2057C84.5945 19.3427 84.2775 19.3617 83.9685 19.3887ZM88.4475 22.4967C87.8995 22.1607 87.6845 21.0067 87.0765 21.0337C87.3815 21.6127 87.8015 22.5617 88.4475 22.4967ZM96.1245 27.3407C96.2055 26.2187 95.9185 24.6877 95.8505 23.4097H95.3025C95.5835 24.7137 95.6445 26.2367 96.1245 27.3407ZM89.7265 31.4527C90.5825 31.3947 91.6145 31.5127 92.1955 31.1787C91.4795 31.2387 89.8195 30.5937 89.7265 31.4527ZM89.4535 31.9097C88.5225 33.9937 89.3975 36.3907 90.0015 38.2167C91.4475 38.7507 92.9335 39.2447 94.7545 39.4047C94.6185 36.7677 94.6425 33.9717 94.3885 31.4527C92.8965 31.4277 90.8915 31.5867 89.4535 31.9097ZM94.9375 31.6357C94.9555 33.4387 95.0385 35.8277 95.1195 37.6687C95.1465 38.2577 94.7675 39.5177 95.6685 39.5877C95.9665 36.7917 95.2505 34.2167 95.2105 31.4527C95.0945 31.4477 95.0845 31.3367 94.9375 31.3617V31.6357ZM87.8085 38.2167C87.6345 37.8727 87.1135 37.8747 86.7115 37.7597C86.8595 38.1287 87.3615 38.1457 87.8085 38.2167ZM95.3025 46.0767C95.9595 44.9947 95.8515 42.6697 95.7595 41.1417C95.6425 41.1367 95.6335 41.0247 95.4855 41.0497C95.3035 42.6047 95.4345 44.4727 95.3025 46.0767Z" fill="#003683"/>
</svg>
