<svg width="109" height="100" viewBox="0 0 109 100" fill="none" xmlns="http://www.w3.org/2000/svg">
<path d="M68.8057 81.0604H12.0466C5.39327 81.0604 0 75.9959 0 69.7482V11.3112C0 5.06451 5.39327 -7.62939e-06 12.0466 -7.62939e-06H96.7814C103.435 -7.62939e-06 108.828 5.06451 108.828 11.3112V69.7482C108.828 75.9959 103.435 81.0604 96.7814 81.0604H88.3547L62.317 100L68.8057 81.0604Z" fill="#C7D886"/>
<path d="M24.0203 32.7516C24.6582 33.374 25.4207 33.6852 26.3076 33.6852C27.21 33.6852 27.9841 33.3662 28.6299 32.7283C29.2678 32.0903 29.5868 31.3201 29.5868 30.4176C29.5868 29.5152 29.2678 28.741 28.6299 28.0953C27.9841 27.4574 27.21 27.1384 26.3076 27.1384C25.4207 27.1384 24.6582 27.4496 24.0203 28.072C23.3823 28.6944 23.0555 29.4529 23.04 30.3476V30.4876C23.0555 31.3746 23.3823 32.1292 24.0203 32.7516ZM23.04 26.3215C24.0592 25.5046 25.2223 25.1234 26.5293 25.1778C27.8519 25.2323 28.9955 25.7302 29.9603 26.6716C30.925 27.613 31.4501 28.7449 31.5357 30.0675C31.5902 30.8144 31.489 31.534 31.2323 32.2265C30.9833 32.8955 30.6138 33.4907 30.1236 34.012C29.0889 35.1089 27.8169 35.6574 26.3076 35.6574C25.0861 35.6574 23.9969 35.2723 23.04 34.5021V41.7608C23.04 41.8619 22.9894 41.9125 22.8883 41.9125H21.1961C21.095 41.9125 21.0444 41.8619 21.0444 41.7608V25.3529C21.0444 25.2517 21.095 25.2012 21.1961 25.2012H22.8883C22.9894 25.2012 23.04 25.2517 23.04 25.3529V26.3215Z" fill="white"/>
<path d="M35.7019 33.2768C35.943 33.5491 36.3943 33.6852 37.0556 33.6852C37.2812 33.6852 37.5029 33.658 37.7208 33.6035C38.0086 33.5257 38.2692 33.4051 38.5026 33.2417C39.125 32.7905 39.4985 32.0359 39.6229 30.9778C39.2729 30.9544 38.9383 30.9428 38.6193 30.9428C37.2112 30.9428 36.262 31.1606 35.7719 31.5963C35.5618 31.783 35.4568 32.0397 35.4568 32.3665C35.4568 32.7866 35.5385 33.09 35.7019 33.2768ZM41.6302 30.1726C41.6302 30.297 41.6263 30.4254 41.6185 30.5577C41.6107 30.83 41.6068 31.0322 41.6068 31.1645C41.6068 31.8414 41.6535 32.6544 41.7469 33.6035C41.778 33.9536 41.8169 34.3115 41.8636 34.6771C41.8947 34.9494 41.9297 35.2179 41.9686 35.4824C41.9842 35.5991 41.9336 35.6574 41.8169 35.6574H40.1364C40.0508 35.6574 40.0003 35.6146 39.9847 35.5291C39.9458 35.2412 39.9108 34.9494 39.8797 34.6538C39.0861 35.3151 38.1448 35.6458 37.0556 35.6458C35.9353 35.6458 35.06 35.3579 34.4298 34.7822C33.7997 34.1987 33.4846 33.3935 33.4846 32.3665C33.4846 31.4485 33.8152 30.6977 34.4765 30.1142C35.4801 29.2195 37.1995 28.85 39.6346 29.0056C39.5802 28.3132 39.4207 27.8308 39.1562 27.5585C38.8839 27.2706 38.4054 27.1267 37.7208 27.1267C37.2073 27.1267 36.7366 27.2162 36.3087 27.3951C36.1531 27.4574 36.0053 27.5313 35.8652 27.6168C35.7641 27.6791 35.6746 27.7413 35.5968 27.8036C35.5268 27.8658 35.4607 27.8658 35.3984 27.8036L34.1614 26.6716C34.0836 26.5938 34.0836 26.5199 34.1614 26.4499C34.2159 26.3954 34.2742 26.3448 34.3365 26.2981C34.4143 26.2281 34.4999 26.162 34.5932 26.0998C34.8188 25.9442 35.0639 25.8041 35.3284 25.6796C36.052 25.3373 36.8494 25.1662 37.7208 25.1662C38.9578 25.1662 39.9069 25.5046 40.5682 26.1814C41.0272 26.656 41.3345 27.2862 41.4901 28.072C41.5991 28.5932 41.6457 29.2934 41.6302 30.1726Z" fill="white"/>
<path d="M47.4535 32.6699C47.4535 33.1601 47.6013 33.479 47.8969 33.6269C48.1459 33.7513 48.4376 33.7085 48.7722 33.4985C48.85 33.4518 48.9161 33.4674 48.9706 33.5452L49.9625 34.8755C50.0325 34.9611 50.0208 35.0311 49.9275 35.0856C49.3751 35.4668 48.7955 35.6574 48.1887 35.6574C47.7763 35.6574 47.3834 35.5641 47.01 35.3773C46.5354 35.1439 46.162 34.7861 45.8897 34.3037C45.6252 33.8214 45.4929 33.2768 45.4929 32.6699V27.1034H43.8941C43.793 27.1034 43.7424 27.0528 43.7424 26.9517V25.2945C43.7424 25.1934 43.793 25.1428 43.8941 25.1428H45.4929L45.4812 22.9372C45.4812 22.8361 45.5318 22.7855 45.633 22.7855H47.3018C47.4029 22.7855 47.4535 22.8361 47.4535 22.9372V25.1428H49.0522C49.1534 25.1428 49.204 25.1934 49.204 25.2945V26.9517C49.204 27.0528 49.1534 27.1034 49.0522 27.1034H47.4535V32.6699Z" fill="white"/>
<path d="M52.775 25.1778H54.4321C54.5332 25.1778 54.5838 25.2284 54.5838 25.3295V35.5057C54.5838 35.6069 54.5332 35.6574 54.4321 35.6574H52.775C52.6738 35.6574 52.6232 35.6069 52.6232 35.5057V25.3295C52.6232 25.2284 52.6738 25.1778 52.775 25.1778ZM54.3971 22.9255C54.1792 23.1434 53.9147 23.2523 53.6035 23.2523C53.2923 23.2523 53.0278 23.1434 52.81 22.9255C52.5843 22.6999 52.4715 22.4315 52.4715 22.1203C52.4715 21.8091 52.5843 21.5446 52.81 21.3268C53.0278 21.1089 53.2923 21 53.6035 21C53.9147 21 54.1792 21.1089 54.3971 21.3268C54.6149 21.5446 54.7238 21.8091 54.7238 22.1203C54.7238 22.4315 54.6149 22.6999 54.3971 22.9255Z" fill="white"/>
<path d="M58.5049 29.8691L64.5499 29.344C64.3787 28.6749 64.0248 28.142 63.4879 27.7452C62.9511 27.3407 62.3093 27.1384 61.5624 27.1384C60.7766 27.1384 60.0998 27.3951 59.5318 27.9086C58.9639 28.4143 58.6216 29.0678 58.5049 29.8691ZM57.9797 26.6833C58.9678 25.6719 60.1737 25.1701 61.5974 25.1778C62.99 25.1856 64.1765 25.6991 65.1567 26.7183C66.137 27.7297 66.6271 28.9355 66.6271 30.3359V31.0011C66.6271 31.0945 66.5805 31.1451 66.4871 31.1528L58.785 31.818C59.0495 32.3782 59.4463 32.8294 59.9753 33.1717C60.5121 33.514 61.0995 33.6852 61.7375 33.6852C62.2976 33.6852 62.8228 33.5529 63.3129 33.2884C63.8108 33.0161 64.2076 32.6466 64.5032 32.1798C64.5577 32.0942 64.6277 32.0748 64.7133 32.1214L66.1487 32.9617C66.242 33.0083 66.2615 33.0784 66.207 33.1717C65.7325 33.9419 65.0945 34.5488 64.2932 34.9922C63.4996 35.4357 62.6477 35.6574 61.7375 35.6574C60.2982 35.6574 59.065 35.1439 58.0381 34.117C57.0111 33.0978 56.4977 31.8647 56.4977 30.4176C56.4977 28.9394 56.9917 27.6946 57.9797 26.6833Z" fill="white"/>
<path d="M78.1337 31.0711C78.1337 31.5924 78.1337 31.9814 78.1337 32.2381C78.1415 33.2028 78.1454 34.0081 78.1454 34.6538L78.157 35.4824C78.157 35.5835 78.1065 35.6341 78.0053 35.6341H76.3249C76.2237 35.6341 76.1731 35.5835 76.1731 35.4824L76.1848 34.6538C76.1848 34.0081 76.1887 33.2028 76.1965 32.2381C76.1965 31.9814 76.2004 31.5924 76.2082 31.0711V30.4293C76.2082 30.1881 76.2082 29.9664 76.2082 29.7641V29.4257L76.1965 29.1806C76.1809 29.0095 76.1498 28.8461 76.1031 28.6905C75.9942 28.3637 75.8192 28.072 75.578 27.8152C75.3446 27.5663 75.0606 27.3796 74.7261 27.2551C74.5783 27.1928 74.4188 27.15 74.2476 27.1267L74.1776 27.115C74.1542 27.1073 74.1387 27.1034 74.1309 27.1034H74.0726C74.057 27.1034 74.0337 27.1034 74.0025 27.1034L73.9208 27.0917H73.8041L73.7458 27.1034C73.1234 27.1267 72.5983 27.3718 72.1704 27.8386C71.9992 28.0097 71.8631 28.2042 71.7619 28.4221C71.6763 28.5932 71.6141 28.7683 71.5752 28.9472C71.5519 29.0328 71.5363 29.0989 71.5285 29.1456V29.2273L71.5168 29.2856C71.5168 29.3557 71.513 29.4101 71.5052 29.449V35.5057C71.5052 35.6069 71.4546 35.6574 71.3535 35.6574H69.6497C69.5485 35.6574 69.498 35.6069 69.498 35.5057V25.2595C69.498 25.1584 69.5485 25.1078 69.6497 25.1078H71.3535C71.4546 25.1078 71.5052 25.1584 71.5052 25.2595V26.0531C71.6841 25.9208 71.8592 25.8119 72.0303 25.7263C72.5282 25.4696 73.0612 25.3179 73.6291 25.2712L73.7341 25.2595H74.0492C74.0726 25.2595 74.1076 25.2595 74.1542 25.2595L74.2126 25.2712H74.2709C74.3098 25.2712 74.3487 25.2751 74.3876 25.2829L74.5043 25.2945C74.8078 25.3412 75.0995 25.4151 75.3796 25.5163C75.9786 25.7341 76.4921 26.0686 76.92 26.5199C77.3635 26.9711 77.6863 27.4924 77.8886 28.0836C77.9898 28.3715 78.0559 28.6671 78.087 28.9706C78.1104 29.1184 78.122 29.2701 78.122 29.4257V29.7641C78.122 29.9664 78.122 30.1881 78.122 30.4293V30.7561L78.1337 31.0711Z" fill="white"/>
<path d="M83.9336 32.6699C83.9336 33.1601 84.0815 33.479 84.3771 33.6269C84.6261 33.7513 84.9178 33.7085 85.2523 33.4985C85.3301 33.4518 85.3963 33.4674 85.4507 33.5452L86.4427 34.8755C86.5127 34.9611 86.501 35.0311 86.4077 35.0856C85.8553 35.4668 85.2757 35.6574 84.6688 35.6574C84.2565 35.6574 83.8636 35.5641 83.4902 35.3773C83.0156 35.1439 82.6422 34.7861 82.3699 34.3037C82.1054 33.8214 81.9731 33.2768 81.9731 32.6699V27.1034H80.3743C80.2732 27.1034 80.2226 27.0528 80.2226 26.9517V25.2945C80.2226 25.1934 80.2732 25.1428 80.3743 25.1428H81.9731L81.9614 22.9372C81.9614 22.8361 82.012 22.7855 82.1131 22.7855H83.7819C83.8831 22.7855 83.9336 22.8361 83.9336 22.9372V25.1428H85.5324C85.6336 25.1428 85.6841 25.1934 85.6841 25.2945V26.9517C85.6841 27.0528 85.6336 27.1034 85.5324 27.1034H83.9336V32.6699Z" fill="white"/>
<path d="M31.619 46.2084C31.549 46.2706 31.4751 46.2745 31.3973 46.2201C31.3273 46.1578 31.2534 46.1034 31.1756 46.0567C31.0822 45.9867 30.9889 45.9283 30.8955 45.8816C30.631 45.7416 30.3548 45.6405 30.0669 45.5782C29.8491 45.5393 29.6663 45.516 29.5185 45.5082H29.215C29.1606 45.5082 29.1022 45.5121 29.04 45.5199H28.97L28.9 45.5315C28.651 45.5627 28.4448 45.6132 28.2814 45.6833C28.0714 45.7611 27.9041 45.87 27.7796 46.01C27.6396 46.1423 27.5423 46.3134 27.4879 46.5235L27.4646 46.6052L27.4529 46.6869C27.4451 46.7647 27.4412 46.823 27.4412 46.8619L27.4295 46.9553V46.9319V46.9436L27.4412 46.9786V47.142L27.4646 47.212C27.4646 47.2276 27.4684 47.247 27.4762 47.2704L27.4996 47.3521L27.5229 47.4221L27.5929 47.5621L27.6396 47.6321L27.7563 47.7722C27.9041 47.9355 28.1103 48.095 28.3748 48.2506C28.5771 48.3673 28.8494 48.5035 29.1917 48.6591L29.3084 48.7058L29.4368 48.7641L29.6585 48.8691L30.102 49.0559C30.4676 49.227 30.7749 49.3904 31.0239 49.546C31.3818 49.7716 31.6696 50.0167 31.8875 50.2812C32.1675 50.6002 32.3465 50.9581 32.4243 51.3548L32.4593 51.5065C32.4671 51.5688 32.4709 51.6194 32.4709 51.6583L32.4826 51.7983V52.0784C32.4748 52.125 32.4709 52.1678 32.4709 52.2067L32.4243 52.5102C32.3465 52.8992 32.1909 53.2454 31.9575 53.5488C31.7319 53.8366 31.4518 54.0661 31.1172 54.2373C30.8527 54.3773 30.5493 54.4824 30.207 54.5524C29.8802 54.6146 29.5963 54.6496 29.3551 54.6574H29.1334L28.9583 54.6458C28.9116 54.6458 28.8494 54.6419 28.7716 54.6341H28.6666L28.5732 54.6224C28.3554 54.5913 28.1181 54.5446 27.8613 54.4824C27.4879 54.3735 27.13 54.2217 26.7877 54.0272C26.6243 53.9417 26.4765 53.8483 26.3442 53.7472C26.2431 53.6694 26.1497 53.5955 26.0642 53.5254C25.9786 53.4476 25.9786 53.366 26.0642 53.2804L26.6243 52.7436C26.6943 52.6735 26.7682 52.6696 26.846 52.7319C26.9005 52.7863 26.9627 52.8369 27.0328 52.8836C27.1261 52.9536 27.2273 53.0197 27.3362 53.082C27.6007 53.2298 27.873 53.3426 28.1531 53.4204C28.3554 53.4749 28.5343 53.5138 28.6899 53.5371L28.7599 53.5488H28.8299C28.8844 53.5566 28.9389 53.5604 28.9933 53.5604L29.1684 53.5721H29.2384L29.3201 53.5604C29.499 53.5604 29.7207 53.541 29.9853 53.5021C30.2342 53.4476 30.4443 53.3737 30.6154 53.2804C31.0355 53.0703 31.2884 52.7397 31.374 52.2884L31.3856 52.2067L31.3973 52.1367C31.4051 52.1134 31.409 52.0784 31.409 52.0317V51.915L31.4207 51.88V51.8566C31.4207 51.88 31.4207 51.8878 31.4207 51.88L31.409 51.8333V51.7516C31.409 51.7283 31.4051 51.6972 31.3973 51.6583L31.3856 51.5766C31.339 51.3509 31.0822 50.9581 31.0822 50.9581C31.0822 50.9581 30.3431 50.3318 29.6585 50.0128L29.2034 49.8144L28.9816 49.7094L28.8883 49.6627L28.7716 49.616C28.3904 49.4449 28.0831 49.2893 27.8497 49.1492C27.4918 48.9392 27.2 48.7097 26.9744 48.4607C26.9433 48.4296 26.9122 48.3907 26.8811 48.344L26.7877 48.2273C26.7177 48.1184 26.6671 48.0289 26.636 47.9589L26.566 47.8188C26.5426 47.7644 26.5271 47.7177 26.5193 47.6788C26.4804 47.5543 26.4532 47.4493 26.4376 47.3637L26.4143 47.2003V47.0953L26.4026 47.037V46.9436L26.4143 46.8036C26.4143 46.7335 26.422 46.6441 26.4376 46.5352L26.4609 46.3951L26.4959 46.2551C26.5971 45.8739 26.7799 45.551 27.0444 45.2865C27.2778 45.0531 27.5657 44.8664 27.908 44.7263C28.157 44.633 28.4448 44.5629 28.7716 44.5163H28.8883L28.9933 44.5046C29.0711 44.4968 29.1333 44.4929 29.18 44.4929H29.5651C29.7674 44.5007 30.0047 44.5318 30.277 44.5863C30.6582 44.6719 31.0239 44.808 31.374 44.9947C31.5062 45.0647 31.6307 45.1387 31.7474 45.2165C31.833 45.2787 31.9186 45.3448 32.0042 45.4148C32.0275 45.4304 32.0586 45.4576 32.0975 45.4965C32.1831 45.5743 32.1831 45.6521 32.0975 45.7299L31.619 46.2084Z" fill="white"/>
<path d="M38.9127 53.292L39.3795 53.9222C39.4496 54.0156 39.4379 54.0895 39.3445 54.1439C38.8388 54.4863 38.3176 54.6574 37.7808 54.6574C37.4151 54.6574 37.0728 54.5757 36.7538 54.4124C36.3337 54.2023 36.003 53.8833 35.7619 53.4554C35.5285 53.0197 35.4118 52.5257 35.4118 51.9733V45.6249H33.9997C33.8908 45.6249 33.8363 45.5704 33.8363 45.4615V44.6796C33.8363 44.5707 33.8908 44.5163 33.9997 44.5163H35.4118L35.4001 41.6338C35.4001 41.5249 35.4546 41.4704 35.5635 41.4704H36.3454C36.4543 41.4704 36.5087 41.5249 36.5087 41.6338V44.5163H38.1075C38.2164 44.5163 38.2709 44.5707 38.2709 44.6796V45.4615C38.2709 45.5704 38.2164 45.6249 38.1075 45.6249H36.5087V51.9733C36.5087 52.6969 36.7538 53.1831 37.2439 53.4321C37.6874 53.6577 38.1698 53.5993 38.691 53.257C38.7844 53.2026 38.8583 53.2142 38.9127 53.292Z" fill="white"/>
<path d="M45.5063 45.6249C44.4093 45.6249 43.4718 46.0139 42.6938 46.7919C41.9236 47.5621 41.5385 48.4957 41.5385 49.5927C41.5385 50.6819 41.9236 51.6155 42.6938 52.3935C43.4718 53.1715 44.4093 53.5604 45.5063 53.5604C46.5954 53.5604 47.529 53.1715 48.307 52.3935C49.085 51.6155 49.474 50.6819 49.474 49.5927C49.474 48.4957 49.085 47.5621 48.307 46.7919C47.529 46.0139 46.5954 45.6249 45.5063 45.6249ZM45.5063 54.6574C44.1059 54.6574 42.9116 54.1634 41.9236 53.1753C40.9355 52.1795 40.4415 50.9853 40.4415 49.5927C40.4415 48.1923 40.9355 46.9981 41.9236 46.01C42.9116 45.022 44.1059 44.5279 45.5063 44.5279C46.8989 44.5279 48.0892 45.022 49.0772 46.01C50.0731 46.9981 50.571 48.1923 50.571 49.5927C50.571 50.9853 50.0731 52.1795 49.0772 53.1753C48.0892 54.1634 46.8989 54.6574 45.5063 54.6574Z" fill="white"/>
<path d="M57.3162 44.5629C57.5341 44.5629 57.748 44.5785 57.9581 44.6096C58.067 44.633 58.1098 44.6991 58.0864 44.808L57.9347 45.5666C57.9114 45.6677 57.8491 45.7105 57.748 45.6949C57.608 45.6716 57.464 45.6599 57.3162 45.6599C56.5149 45.6599 55.8302 45.9439 55.2623 46.5118C54.6944 47.0798 54.4104 47.7644 54.4104 48.5657C54.4104 50.8809 54.4104 52.1789 54.4104 54.494C54.4104 54.603 54.3598 54.6574 54.2587 54.6574H53.4768C53.3679 54.6574 53.3134 54.603 53.3134 54.494V44.6563C53.3134 44.5474 53.3679 44.4929 53.4768 44.4929H54.2587C54.3598 44.4929 54.4104 44.5474 54.4104 44.6563V45.8233C55.204 44.9831 56.1726 44.5629 57.3162 44.5629Z" fill="white"/>
<path d="M59.6035 54.6574C59.5024 54.6574 59.4518 54.603 59.4518 54.494V44.703C59.4518 44.5941 59.5024 44.5396 59.6035 44.5396H60.3854C60.4943 44.5396 60.5488 44.5941 60.5488 44.703V49.5985V54.494C60.5488 54.603 60.4943 54.6574 60.3854 54.6574H59.6035ZM60.7938 41.2954C60.7938 41.5132 60.7161 41.6999 60.5605 41.8555C60.4049 42.0111 60.2181 42.0889 60.0003 42.0889C59.7747 42.0889 59.588 42.0111 59.4401 41.8555C59.2845 41.6999 59.2067 41.5132 59.2067 41.2954C59.2067 41.0775 59.2845 40.8908 59.4401 40.7352C59.588 40.5796 59.7747 40.5018 60.0003 40.5018C60.2181 40.5018 60.4049 40.5796 60.5605 40.7352C60.7161 40.8908 60.7938 41.0775 60.7938 41.2954Z" fill="white"/>
<path d="M68.0175 45.6132C66.9439 45.6132 66.0492 45.9867 65.3335 46.7335C64.6099 47.4882 64.2443 48.4257 64.2365 49.546L71.7636 48.8925C71.6547 47.9278 71.254 47.142 70.5616 46.5352C69.8692 45.9205 69.0211 45.6132 68.0175 45.6132ZM68.2043 54.6574C66.8039 54.6574 65.6096 54.1634 64.6216 53.1753C63.6257 52.1795 63.1278 50.9814 63.1278 49.581C63.1278 48.1573 63.6063 46.9553 64.5632 45.975C65.5124 44.9947 66.6755 44.5085 68.0525 44.5163C69.3907 44.524 70.5343 45.0181 71.4835 45.9983C72.4249 46.9708 72.8956 48.1378 72.8956 49.4993V49.7561C72.8956 49.8494 72.8489 49.9 72.7555 49.9078C69.4833 50.1949 67.6487 50.3559 64.3765 50.643C64.6099 51.491 65.0767 52.1873 65.7769 52.7319C66.4927 53.2843 67.3018 53.5604 68.2043 53.5604C68.8889 53.5604 69.5307 53.3932 70.1298 53.0586C70.7211 52.7319 71.1995 52.2806 71.5652 51.7049C71.6196 51.6116 71.6936 51.5921 71.7869 51.6466L72.4638 52.0317C72.5571 52.0939 72.5766 52.1717 72.5221 52.2651C72.0553 53.0042 71.4368 53.5877 70.6666 54.0156C69.9042 54.4435 69.0834 54.6574 68.2043 54.6574Z" fill="white"/>
<path d="M80.376 46.2084C80.306 46.2706 80.232 46.2745 80.1542 46.2201C80.0842 46.1578 80.0103 46.1034 79.9325 46.0567C79.8392 45.9867 79.7458 45.9283 79.6524 45.8816C79.3879 45.7416 79.1117 45.6405 78.8239 45.5782C78.606 45.5393 78.4232 45.516 78.2754 45.5082H77.972C77.9175 45.5082 77.8592 45.5121 77.7969 45.5199H77.7269L77.6569 45.5315C77.4079 45.5627 77.2018 45.6132 77.0384 45.6833C76.8283 45.7611 76.6611 45.87 76.5366 46.01C76.3965 46.1423 76.2993 46.3134 76.2448 46.5235L76.2215 46.6052L76.2098 46.6869C76.202 46.7647 76.1981 46.823 76.1981 46.8619L76.1865 46.9553V46.9319V46.9436L76.1981 46.9786V47.142L76.2215 47.212C76.2215 47.2276 76.2254 47.247 76.2332 47.2704L76.2565 47.3521L76.2798 47.4221L76.3499 47.5621L76.3965 47.6321L76.5132 47.7722C76.6611 47.9355 76.8672 48.095 77.1317 48.2506C77.334 48.3673 77.6063 48.5035 77.9486 48.6591L78.0653 48.7058L78.1937 48.7641L78.4154 48.8691L78.8589 49.0559C79.2245 49.227 79.5319 49.3904 79.7808 49.546C80.1387 49.7716 80.4265 50.0167 80.6444 50.2812C80.9245 50.6002 81.1034 50.9581 81.1812 51.3548L81.2162 51.5065C81.224 51.5688 81.2279 51.6194 81.2279 51.6583L81.2396 51.7983V52.0784C81.2318 52.125 81.2279 52.1678 81.2279 52.2067L81.1812 52.5102C81.1034 52.8992 80.9478 53.2454 80.7144 53.5488C80.4888 53.8366 80.2087 54.0661 79.8742 54.2373C79.6097 54.3773 79.3062 54.4824 78.9639 54.5524C78.6372 54.6146 78.3532 54.6496 78.112 54.6574H77.8903L77.7152 54.6458C77.6686 54.6458 77.6063 54.6419 77.5285 54.6341H77.4235L77.3301 54.6224C77.1123 54.5913 76.875 54.5446 76.6183 54.4824C76.2448 54.3735 75.8869 54.2217 75.5446 54.0272C75.3812 53.9417 75.2334 53.8483 75.1012 53.7472C75 53.6694 74.9067 53.5955 74.8211 53.5254C74.7355 53.4476 74.7355 53.366 74.8211 53.2804L75.3812 52.7436C75.4513 52.6735 75.5252 52.6696 75.603 52.7319C75.6574 52.7863 75.7197 52.8369 75.7897 52.8836C75.8831 52.9536 75.9842 53.0197 76.0931 53.082C76.3576 53.2298 76.6299 53.3426 76.91 53.4204C77.1123 53.4749 77.2912 53.5138 77.4468 53.5371L77.5168 53.5488H77.5869C77.6413 53.5566 77.6958 53.5604 77.7502 53.5604L77.9253 53.5721H77.9953L78.077 53.5604C78.2559 53.5604 78.4777 53.541 78.7422 53.5021C78.9911 53.4476 79.2012 53.3737 79.3724 53.2804C79.7925 53.0703 80.0453 52.7397 80.1309 52.2884L80.1426 52.2067L80.1542 52.1367C80.162 52.1134 80.1659 52.0784 80.1659 52.0317V51.915L80.1776 51.88V51.8566C80.1776 51.88 80.1776 51.8878 80.1776 51.88L80.1659 51.8333V51.7516C80.1659 51.7283 80.162 51.6972 80.1542 51.6583L80.1426 51.5766C80.0959 51.3509 79.9948 51.1448 79.8392 50.9581C79.5746 50.6469 79.1001 50.3318 78.4154 50.0128L77.9603 49.8144L77.7386 49.7094L77.6452 49.6627L77.5285 49.616C77.1473 49.4449 76.84 49.2893 76.6066 49.1492C76.2487 48.9392 75.957 48.7097 75.7313 48.4607C75.7002 48.4296 75.6691 48.3907 75.638 48.344L75.5446 48.2273C75.4746 48.1184 75.424 48.0289 75.3929 47.9589L75.3229 47.8188C75.2996 47.7644 75.284 47.7177 75.2762 47.6788C75.2373 47.5543 75.2101 47.4493 75.1945 47.3637L75.1712 47.2003V47.0953L75.1595 47.037V46.9436L75.1712 46.8036C75.1712 46.7335 75.179 46.6441 75.1945 46.5352L75.2179 46.3951L75.2529 46.2551C75.354 45.8739 75.5368 45.551 75.8014 45.2865C76.0348 45.0531 76.3226 44.8664 76.6649 44.7263C76.9139 44.633 77.2018 44.5629 77.5285 44.5163H77.6452L77.7502 44.5046C77.828 44.4968 77.8903 44.4929 77.937 44.4929H78.3221C78.5243 44.5007 78.7616 44.5318 79.0339 44.5863C79.4152 44.6719 79.7808 44.808 80.1309 44.9947C80.2632 45.0647 80.3876 45.1387 80.5043 45.2165C80.5899 45.2787 80.6755 45.3448 80.7611 45.4148C80.7844 45.4304 80.8155 45.4576 80.8544 45.4965C80.94 45.5743 80.94 45.6521 80.8544 45.7299L80.376 46.2084Z" fill="white"/>
</svg>
