<svg width="109" height="100" viewBox="0 0 109 100" fill="none" xmlns="http://www.w3.org/2000/svg">
<path d="M68.8057 81.0604H12.0466C5.39327 81.0604 0 75.9959 0 69.7482V11.3112C0 5.06452 5.39327 4.76606e-06 12.0466 4.76606e-06H96.7814C103.435 4.76606e-06 108.828 5.06452 108.828 11.3112V69.7482C108.828 75.9959 103.435 81.0604 96.7814 81.0604H88.3547L62.317 100L68.8057 81.0604Z" fill="#C7D886"/>
<path d="M23.9809 35.0942C24.6188 35.7166 25.3813 36.0278 26.2682 36.0278C27.1707 36.0278 27.9448 35.7088 28.5905 35.0708C29.2285 34.4329 29.5474 33.6627 29.5474 32.7602C29.5474 31.8577 29.2285 31.0836 28.5905 30.4379C27.9448 29.7999 27.1707 29.481 26.2682 29.481C25.3813 29.481 24.6188 29.7922 23.9809 30.4145C23.3429 31.0369 23.0162 31.7955 23.0006 32.6902V32.8302C23.0162 33.7171 23.3429 34.4718 23.9809 35.0942ZM23.0006 28.6641C24.0198 27.8472 25.1829 27.4659 26.4899 27.5204C27.8125 27.5749 28.9562 28.0728 29.9209 29.0142C30.8856 29.9555 31.4107 31.0875 31.4963 32.4101C31.5508 33.157 31.4496 33.8766 31.1929 34.569C30.9439 35.2381 30.5744 35.8333 30.0843 36.3545C29.0495 37.4515 27.7775 38 26.2682 38C25.0467 38 23.9575 37.6149 23.0006 36.8447V44.1034C23.0006 44.2045 22.95 44.2551 22.8489 44.2551H21.1568C21.0556 44.2551 21.0051 44.2045 21.0051 44.1034V27.6955C21.0051 27.5943 21.0556 27.5437 21.1568 27.5437H22.8489C22.95 27.5437 23.0006 27.5943 23.0006 27.6955V28.6641Z" fill="white"/>
<path d="M35.6625 35.6193C35.9037 35.8916 36.3549 36.0278 37.0162 36.0278C37.2418 36.0278 37.4635 36.0006 37.6814 35.9461C37.9692 35.8683 38.2299 35.7477 38.4633 35.5843C39.0857 35.1331 39.4591 34.3784 39.5836 33.3204C39.2335 33.297 38.8989 33.2853 38.58 33.2853C37.1718 33.2853 36.2226 33.5032 35.7325 33.9389C35.5224 34.1256 35.4174 34.3823 35.4174 34.7091C35.4174 35.1292 35.4991 35.4326 35.6625 35.6193ZM41.5908 32.5151C41.5908 32.6396 41.5869 32.768 41.5791 32.9002C41.5714 33.1725 41.5675 33.3748 41.5675 33.5071C41.5675 34.1839 41.6141 34.9969 41.7075 35.9461C41.7386 36.2962 41.7775 36.6541 41.8242 37.0197C41.8553 37.292 41.8903 37.5604 41.9292 37.8249C41.9448 37.9416 41.8942 38 41.7775 38H40.0971C40.0115 38 39.9609 37.9572 39.9453 37.8716C39.9064 37.5838 39.8714 37.292 39.8403 36.9964C39.0468 37.6577 38.1054 37.9883 37.0162 37.9883C35.8959 37.9883 35.0206 37.7005 34.3905 37.1248C33.7603 36.5413 33.4452 35.736 33.4452 34.7091C33.4452 33.791 33.7758 33.0403 34.4371 32.4568C35.4408 31.5621 37.1601 31.1925 39.5952 31.3481C39.5408 30.6557 39.3813 30.1734 39.1168 29.9011C38.8445 29.6132 38.366 29.4693 37.6814 29.4693C37.1679 29.4693 36.6972 29.5588 36.2693 29.7377C36.1137 29.7999 35.9659 29.8738 35.8259 29.9594C35.7247 30.0217 35.6353 30.0839 35.5575 30.1461C35.4874 30.2084 35.4213 30.2084 35.3591 30.1461L34.1221 29.0142C34.0443 28.9364 34.0443 28.8624 34.1221 28.7924C34.1765 28.738 34.2349 28.6874 34.2971 28.6407C34.3749 28.5707 34.4605 28.5046 34.5538 28.4423C34.7795 28.2867 35.0245 28.1467 35.289 28.0222C36.0126 27.6799 36.81 27.5087 37.6814 27.5087C38.9184 27.5087 39.8675 27.8472 40.5288 28.524C40.9879 28.9986 41.2952 29.6288 41.4508 30.4145C41.5597 30.9358 41.6064 31.636 41.5908 32.5151Z" fill="white"/>
<path d="M47.4141 35.0125C47.4141 35.5026 47.5619 35.8216 47.8575 35.9694C48.1065 36.0939 48.3983 36.0511 48.7328 35.8411C48.8106 35.7944 48.8767 35.8099 48.9312 35.8877L49.9231 37.2181C49.9931 37.3037 49.9815 37.3737 49.8881 37.4282C49.3357 37.8094 48.7561 38 48.1493 38C47.737 38 47.3441 37.9066 46.9706 37.7199C46.4961 37.4865 46.1226 37.1286 45.8503 36.6463C45.5858 36.1639 45.4535 35.6193 45.4535 35.0125V29.4459H43.8548C43.7536 29.4459 43.7031 29.3954 43.7031 29.2942V27.6371C43.7031 27.536 43.7536 27.4854 43.8548 27.4854H45.4535L45.4419 25.2798C45.4419 25.1786 45.4924 25.1281 45.5936 25.1281H47.2624C47.3635 25.1281 47.4141 25.1786 47.4141 25.2798V27.4854H49.0129C49.114 27.4854 49.1646 27.536 49.1646 27.6371V29.2942C49.1646 29.3954 49.114 29.4459 49.0129 29.4459H47.4141V35.0125Z" fill="white"/>
<path d="M52.7356 27.5204H54.3927C54.4938 27.5204 54.5444 27.571 54.5444 27.6721V37.8483C54.5444 37.9494 54.4938 38 54.3927 38H52.7356C52.6344 38 52.5839 37.9494 52.5839 37.8483V27.6721C52.5839 27.571 52.6344 27.5204 52.7356 27.5204ZM54.3577 25.2681C54.1399 25.486 53.8753 25.5949 53.5641 25.5949C53.2529 25.5949 52.9884 25.486 52.7706 25.2681C52.545 25.0425 52.4322 24.7741 52.4322 24.4629C52.4322 24.1517 52.545 23.8872 52.7706 23.6693C52.9884 23.4515 53.2529 23.3426 53.5641 23.3426C53.8753 23.3426 54.1399 23.4515 54.3577 23.6693C54.5755 23.8872 54.6845 24.1517 54.6845 24.4629C54.6845 24.7741 54.5755 25.0425 54.3577 25.2681Z" fill="white"/>
<path d="M58.4655 32.2117L64.5105 31.6866C64.3394 31.0175 63.9854 30.4846 63.4486 30.0878C62.9118 29.6832 62.2699 29.481 61.523 29.481C60.7373 29.481 60.0604 29.7377 59.4925 30.2512C58.9245 30.7569 58.5822 31.4104 58.4655 32.2117ZM57.9404 29.0258C58.9284 28.0144 60.1343 27.5126 61.558 27.5204C62.9506 27.5282 64.1371 28.0417 65.1174 29.0608C66.0976 30.0722 66.5878 31.2781 66.5878 32.6785V33.3437C66.5878 33.4371 66.5411 33.4876 66.4477 33.4954L58.7456 34.1606C59.0101 34.7207 59.4069 35.172 59.9359 35.5143C60.4727 35.8566 61.0601 36.0278 61.6981 36.0278C62.2582 36.0278 62.7834 35.8955 63.2735 35.631C63.7714 35.3587 64.1682 34.9892 64.4638 34.5224C64.5183 34.4368 64.5883 34.4173 64.6739 34.464L66.1093 35.3042C66.2027 35.3509 66.2221 35.4209 66.1677 35.5143C65.6931 36.2845 65.0551 36.8914 64.2538 37.3348C63.4602 37.7783 62.6083 38 61.6981 38C60.2588 38 59.0257 37.4865 57.9987 36.4596C56.9718 35.4404 56.4583 34.2073 56.4583 32.7602C56.4583 31.282 56.9523 30.0372 57.9404 29.0258Z" fill="white"/>
<path d="M78.0943 33.4137C78.0943 33.935 78.0943 34.324 78.0943 34.5807C78.1021 35.5454 78.106 36.3506 78.106 36.9964L78.1177 37.8249C78.1177 37.9261 78.0671 37.9767 77.9659 37.9767H76.2855C76.1843 37.9767 76.1338 37.9261 76.1338 37.8249L76.1454 36.9964C76.1454 36.3506 76.1493 35.5454 76.1571 34.5807C76.1571 34.324 76.161 33.935 76.1688 33.4137V32.7719C76.1688 32.5307 76.1688 32.309 76.1688 32.1067V31.7683L76.1571 31.5232C76.1415 31.352 76.1104 31.1887 76.0638 31.0331C75.9548 30.7063 75.7798 30.4145 75.5386 30.1578C75.3052 29.9089 75.0212 29.7221 74.6867 29.5977C74.5389 29.5354 74.3794 29.4926 74.2082 29.4693L74.1382 29.4576C74.1149 29.4498 74.0993 29.4459 74.0915 29.4459H74.0332C74.0176 29.4459 73.9943 29.4459 73.9632 29.4459L73.8815 29.4343H73.7648L73.7064 29.4459C73.084 29.4693 72.5589 29.7144 72.131 30.1811C71.9598 30.3523 71.8237 30.5468 71.7225 30.7646C71.637 30.9358 71.5747 31.1109 71.5358 31.2898C71.5125 31.3754 71.4969 31.4415 71.4891 31.4882V31.5699L71.4775 31.6282C71.4775 31.6982 71.4736 31.7527 71.4658 31.7916V37.8483C71.4658 37.9494 71.4152 38 71.3141 38H69.6103C69.5091 38 69.4586 37.9494 69.4586 37.8483V27.6021C69.4586 27.501 69.5091 27.4504 69.6103 27.4504H71.3141C71.4152 27.4504 71.4658 27.501 71.4658 27.6021V28.3957C71.6447 28.2634 71.8198 28.1545 71.9909 28.0689C72.4889 27.8122 73.0218 27.6604 73.5897 27.6138L73.6948 27.6021H74.0098C74.0332 27.6021 74.0682 27.6021 74.1149 27.6021L74.1732 27.6138H74.2316C74.2705 27.6138 74.3094 27.6177 74.3483 27.6254L74.465 27.6371C74.7684 27.6838 75.0601 27.7577 75.3402 27.8588C75.9393 28.0767 76.4527 28.4112 76.8806 28.8624C77.3241 29.3137 77.647 29.8349 77.8492 30.4262C77.9504 30.7141 78.0165 31.0097 78.0476 31.3131C78.071 31.461 78.0826 31.6127 78.0826 31.7683V32.1067C78.0826 32.309 78.0826 32.5307 78.0826 32.7719V33.0986L78.0943 33.4137Z" fill="white"/>
<path d="M83.8943 35.0125C83.8943 35.5026 84.0421 35.8216 84.3377 35.9694C84.5867 36.0939 84.8784 36.0511 85.213 35.8411C85.2908 35.7944 85.3569 35.8099 85.4114 35.8877L86.4033 37.2181C86.4733 37.3037 86.4617 37.3737 86.3683 37.4282C85.8159 37.8094 85.2363 38 84.6295 38C84.2171 38 83.8243 37.9066 83.4508 37.7199C82.9762 37.4865 82.6028 37.1286 82.3305 36.6463C82.066 36.1639 81.9337 35.6193 81.9337 35.0125V29.4459H80.3349C80.2338 29.4459 80.1832 29.3954 80.1832 29.2942V27.6371C80.1832 27.536 80.2338 27.4854 80.3349 27.4854H81.9337L81.9221 25.2798C81.9221 25.1786 81.9726 25.1281 82.0738 25.1281H83.7426C83.8437 25.1281 83.8943 25.1786 83.8943 25.2798V27.4854H85.493C85.5942 27.4854 85.6448 27.536 85.6448 27.6371V29.2942C85.6448 29.3954 85.5942 29.4459 85.493 29.4459H83.8943V35.0125Z" fill="white"/>
<path d="M25.5797 48.551C25.5096 48.6132 25.4357 48.6171 25.3579 48.5626C25.2879 48.5004 25.214 48.4459 25.1362 48.3993C25.0429 48.3292 24.9495 48.2709 24.8561 48.2242C24.5916 48.0842 24.3154 47.983 24.0276 47.9208C23.8097 47.8819 23.6269 47.8586 23.4791 47.8508H23.1757C23.1212 47.8508 23.0629 47.8547 23.0006 47.8624H22.9306L22.8606 47.8741C22.6116 47.9052 22.4055 47.9558 22.2421 48.0258C22.032 48.1036 21.8647 48.2125 21.7403 48.3526C21.6002 48.4848 21.503 48.656 21.4485 48.8661L21.4252 48.9478L21.4135 49.0294C21.4057 49.1072 21.4018 49.1656 21.4018 49.2045L21.3902 49.2978V49.2745V49.2862L21.4018 49.3212V49.4846L21.4252 49.5546C21.4252 49.5701 21.4291 49.5896 21.4368 49.6129L21.4602 49.6946L21.4835 49.7646L21.5535 49.9047L21.6002 49.9747L21.7169 50.1147C21.8647 50.2781 22.0709 50.4376 22.3354 50.5932C22.5377 50.7099 22.81 50.8461 23.1523 51.0017L23.269 51.0483L23.3974 51.1067L23.6191 51.2117L24.0626 51.3984C24.4282 51.5696 24.7355 51.733 24.9845 51.8886C25.3424 52.1142 25.6302 52.3593 25.8481 52.6238C26.1282 52.9428 26.3071 53.3006 26.3849 53.6974L26.4199 53.8491C26.4277 53.9114 26.4316 53.9619 26.4316 54.0008L26.4432 54.1409V54.4209C26.4355 54.4676 26.4316 54.5104 26.4316 54.5493L26.3849 54.8527C26.3071 55.2417 26.1515 55.5879 25.9181 55.8914C25.6925 56.1792 25.4124 56.4087 25.0779 56.5799C24.8133 56.7199 24.5099 56.8249 24.1676 56.895C23.8409 56.9572 23.5569 56.9922 23.3157 57H23.094L22.9189 56.9883C22.8722 56.9883 22.81 56.9844 22.7322 56.9767H22.6272L22.5338 56.965C22.316 56.9339 22.0787 56.8872 21.822 56.8249C21.4485 56.716 21.0906 56.5643 20.7483 56.3698C20.5849 56.2842 20.4371 56.1909 20.3049 56.0897C20.2037 56.0119 20.1104 55.938 20.0248 55.868C19.9392 55.7902 19.9392 55.7085 20.0248 55.6229L20.5849 55.0861C20.655 55.0161 20.7289 55.0122 20.8067 55.0745C20.8611 55.1289 20.9234 55.1795 20.9934 55.2262C21.0867 55.2962 21.1879 55.3623 21.2968 55.4246C21.5613 55.5724 21.8336 55.6852 22.1137 55.763C22.316 55.8174 22.4949 55.8563 22.6505 55.8797L22.7205 55.8914H22.7906C22.845 55.8991 22.8995 55.903 22.9539 55.903L23.129 55.9147H23.199L23.2807 55.903C23.4596 55.903 23.6814 55.8836 23.9459 55.8447C24.1948 55.7902 24.4049 55.7163 24.5761 55.6229C24.9962 55.4129 25.249 55.0822 25.3346 54.631L25.3463 54.5493L25.3579 54.4793C25.3657 54.456 25.3696 54.4209 25.3696 54.3743V54.2576L25.3813 54.2226V54.1992C25.3813 54.2226 25.3813 54.2303 25.3813 54.2226L25.3696 54.1759V54.0942C25.3696 54.0708 25.3657 54.0397 25.3579 54.0008L25.3463 53.9191C25.2996 53.6935 25.1985 53.4874 25.0429 53.3006C24.7783 52.9894 24.3038 52.6743 23.6191 52.3554L23.164 52.157L22.9423 52.052L22.8489 52.0053L22.7322 51.9586C22.351 51.7874 22.0437 51.6318 21.8103 51.4918C21.4524 51.2817 21.1607 51.0522 20.935 50.8033C20.9039 50.7721 20.8728 50.7332 20.8417 50.6866L20.7483 50.5699C20.6783 50.461 20.6277 50.3715 20.5966 50.3015L20.5266 50.1614C20.5033 50.107 20.4877 50.0603 20.4799 50.0214C20.441 49.8969 20.4138 49.7919 20.3982 49.7063L20.3749 49.5429V49.4379L20.3632 49.3795V49.2862L20.3749 49.1461C20.3749 49.0761 20.3827 48.9867 20.3982 48.8777L20.4216 48.7377L20.4566 48.5977C20.5577 48.2164 20.7405 47.8936 21.0051 47.629C21.2385 47.3957 21.5263 47.2089 21.8686 47.0689C22.1176 46.9755 22.4055 46.9055 22.7322 46.8588H22.8489L22.9539 46.8472C23.0317 46.8394 23.094 46.8355 23.1407 46.8355H23.5258C23.728 46.8433 23.9653 46.8744 24.2376 46.9289C24.6188 47.0144 24.9845 47.1506 25.3346 47.3373C25.4669 47.4073 25.5913 47.4812 25.708 47.559C25.7936 47.6213 25.8792 47.6874 25.9648 47.7574C25.9881 47.773 26.0192 47.8002 26.0581 47.8391C26.1437 47.9169 26.1437 47.9947 26.0581 48.0725L25.5797 48.551Z" fill="white"/>
<path d="M32.8734 55.6346L33.3402 56.2648C33.4102 56.3582 33.3985 56.4321 33.3052 56.4865C32.7995 56.8288 32.2782 57 31.7414 57C31.3757 57 31.0334 56.9183 30.7144 56.7549C30.2943 56.5449 29.9637 56.2259 29.7225 55.798C29.4891 55.3623 29.3724 54.8683 29.3724 54.3159V47.9675H27.9603C27.8514 47.9675 27.797 47.913 27.797 47.8041V47.0222C27.797 46.9133 27.8514 46.8588 27.9603 46.8588H29.3724L29.3607 43.9764C29.3607 43.8674 29.4152 43.813 29.5241 43.813H30.306C30.4149 43.813 30.4694 43.8674 30.4694 43.9764V46.8588H32.0681C32.1771 46.8588 32.2315 46.9133 32.2315 47.0222V47.8041C32.2315 47.913 32.1771 47.9675 32.0681 47.9675H30.4694V54.3159C30.4694 55.0394 30.7144 55.5257 31.2046 55.7747C31.648 56.0003 32.1304 55.9419 32.6516 55.5996C32.745 55.5451 32.8189 55.5568 32.8734 55.6346Z" fill="white"/>
<path d="M39.4669 47.9675C38.3699 47.9675 37.4324 48.3565 36.6544 49.1345C35.8842 49.9047 35.4991 50.8383 35.4991 51.9353C35.4991 53.0244 35.8842 53.958 36.6544 54.736C37.4324 55.514 38.3699 55.903 39.4669 55.903C40.5561 55.903 41.4897 55.514 42.2677 54.736C43.0457 53.958 43.4347 53.0244 43.4347 51.9353C43.4347 50.8383 43.0457 49.9047 42.2677 49.1345C41.4897 48.3565 40.5561 47.9675 39.4669 47.9675ZM39.4669 57C38.0665 57 36.8723 56.506 35.8842 55.5179C34.8962 54.5221 34.4021 53.3279 34.4021 51.9353C34.4021 50.5349 34.8962 49.3406 35.8842 48.3526C36.8723 47.3645 38.0665 46.8705 39.4669 46.8705C40.8595 46.8705 42.0498 47.3645 43.0379 48.3526C44.0337 49.3406 44.5316 50.5349 44.5316 51.9353C44.5316 53.3279 44.0337 54.5221 43.0379 55.5179C42.0498 56.506 40.8595 57 39.4669 57Z" fill="white"/>
<path d="M51.2768 46.9055C51.4947 46.9055 51.7086 46.9211 51.9187 46.9522C52.0276 46.9755 52.0704 47.0417 52.0471 47.1506L51.8953 47.9091C51.872 48.0103 51.8098 48.0531 51.7086 48.0375C51.5686 48.0142 51.4247 48.0025 51.2768 48.0025C50.4755 48.0025 49.7909 48.2865 49.2229 48.8544C48.655 49.4223 48.371 50.107 48.371 50.9083V56.8366C48.371 56.9455 48.3205 57 48.2193 57H47.4374C47.3285 57 47.2741 56.9455 47.2741 56.8366V46.9989C47.2741 46.89 47.3285 46.8355 47.4374 46.8355H48.2193C48.3205 46.8355 48.371 46.89 48.371 46.9989V48.1659C49.1646 47.3256 50.1332 46.9055 51.2768 46.9055Z" fill="white"/>
<path d="M53.5641 57C53.463 57 53.4124 56.9455 53.4124 56.8366V47.0456C53.4124 46.9366 53.463 46.8822 53.5641 46.8822H54.346C54.4549 46.8822 54.5094 46.9366 54.5094 47.0456V56.8366C54.5094 56.9455 54.4549 57 54.346 57H53.5641ZM54.7545 43.6379C54.7545 43.8558 54.6767 44.0425 54.5211 44.1981C54.3655 44.3537 54.1788 44.4315 53.9609 44.4315C53.7353 44.4315 53.5486 44.3537 53.4008 44.1981C53.2452 44.0425 53.1674 43.8558 53.1674 43.6379C53.1674 43.4201 53.2452 43.2334 53.4008 43.0778C53.5486 42.9222 53.7353 42.8444 53.9609 42.8444C54.1788 42.8444 54.3655 42.9222 54.5211 43.0778C54.6767 43.2334 54.7545 43.4201 54.7545 43.6379Z" fill="white"/>
<path d="M61.9782 47.9558C60.9045 47.9558 60.0098 48.3292 59.2941 49.0761C58.5705 49.8308 58.2049 50.7683 58.1971 51.8886L65.7242 51.2351C65.6153 50.2703 65.2146 49.4846 64.5222 48.8777C63.8298 48.2631 62.9818 47.9558 61.9782 47.9558ZM62.1649 57C60.7645 57 59.5703 56.506 58.5822 55.5179C57.5864 54.5221 57.0885 53.324 57.0885 51.9236C57.0885 50.4998 57.5669 49.2978 58.5239 48.3176C59.473 47.3373 60.6361 46.8511 62.0132 46.8588C63.3513 46.8666 64.495 47.3606 65.4441 48.3409C66.3855 49.3134 66.8562 50.4804 66.8562 51.8419V52.0986C66.8562 52.192 66.8095 52.2426 66.7161 52.2503L58.3371 52.9855C58.5705 53.8336 59.0373 54.5299 59.7375 55.0745C60.4533 55.6268 61.2624 55.903 62.1649 55.903C62.8495 55.903 63.4914 55.7358 64.0904 55.4012C64.6817 55.0745 65.1602 54.6232 65.5258 54.0475C65.5803 53.9541 65.6542 53.9347 65.7475 53.9892L66.4244 54.3743C66.5178 54.4365 66.5372 54.5143 66.4827 54.6077C66.0159 55.3468 65.3974 55.9303 64.6272 56.3582C63.8648 56.786 63.044 57 62.1649 57Z" fill="white"/>
<path d="M74.3366 48.551C74.2666 48.6132 74.1927 48.6171 74.1149 48.5626C74.0449 48.5004 73.9709 48.4459 73.8931 48.3993C73.7998 48.3292 73.7064 48.2709 73.6131 48.2242C73.3485 48.0842 73.0724 47.983 72.7845 47.9208C72.5667 47.8819 72.3838 47.8586 72.236 47.8508H71.9326C71.8781 47.8508 71.8198 47.8547 71.7575 47.8624H71.6875L71.6175 47.8741C71.3685 47.9052 71.1624 47.9558 70.999 48.0258C70.7889 48.1036 70.6217 48.2125 70.4972 48.3526C70.3572 48.4848 70.2599 48.656 70.2054 48.8661L70.1821 48.9478L70.1704 49.0294C70.1627 49.1072 70.1588 49.1656 70.1588 49.2045L70.1471 49.2978V49.2745V49.2862L70.1588 49.3212V49.4846L70.1821 49.5546C70.1821 49.5701 70.186 49.5896 70.1938 49.6129L70.2171 49.6946L70.2405 49.7646L70.3105 49.9047L70.3572 49.9747L70.4739 50.1147C70.6217 50.2781 70.8278 50.4376 71.0924 50.5932C71.2946 50.7099 71.5669 50.8461 71.9093 51.0017L72.026 51.0483L72.1543 51.1067L72.3761 51.2117L72.8195 51.3984C73.1852 51.5696 73.4925 51.733 73.7414 51.8886C74.0993 52.1142 74.3872 52.3593 74.605 52.6238C74.8851 52.9428 75.064 53.3006 75.1418 53.6974L75.1768 53.8491C75.1846 53.9114 75.1885 53.9619 75.1885 54.0008L75.2002 54.1409V54.4209C75.1924 54.4676 75.1885 54.5104 75.1885 54.5493L75.1418 54.8527C75.064 55.2417 74.9084 55.5879 74.675 55.8914C74.4494 56.1792 74.1693 56.4087 73.8348 56.5799C73.5703 56.7199 73.2669 56.8249 72.9245 56.895C72.5978 56.9572 72.3138 56.9922 72.0726 57H71.8509L71.6759 56.9883C71.6292 56.9883 71.5669 56.9844 71.4891 56.9767H71.3841L71.2908 56.965C71.0729 56.9339 70.8356 56.8872 70.5789 56.8249C70.2054 56.716 69.8476 56.5643 69.5053 56.3698C69.3419 56.2842 69.1941 56.1909 69.0618 56.0897C68.9607 56.0119 68.8673 55.938 68.7817 55.868C68.6961 55.7902 68.6961 55.7085 68.7817 55.6229L69.3419 55.0861C69.4119 55.0161 69.4858 55.0122 69.5636 55.0745C69.6181 55.1289 69.6803 55.1795 69.7503 55.2262C69.8437 55.2962 69.9448 55.3623 70.0537 55.4246C70.3183 55.5724 70.5906 55.6852 70.8706 55.763C71.0729 55.8174 71.2519 55.8563 71.4075 55.8797L71.4775 55.8914H71.5475C71.6019 55.8991 71.6564 55.903 71.7109 55.903L71.8859 55.9147H71.9559L72.0376 55.903C72.2166 55.903 72.4383 55.8836 72.7028 55.8447C72.9518 55.7902 73.1618 55.7163 73.333 55.6229C73.7531 55.4129 74.006 55.0822 74.0915 54.631L74.1032 54.5493L74.1149 54.4793C74.1227 54.456 74.1265 54.4209 74.1265 54.3743V54.2576L74.1382 54.2226V54.1992C74.1382 54.2226 74.1382 54.2303 74.1382 54.2226L74.1265 54.1759V54.0942C74.1265 54.0708 74.1227 54.0397 74.1149 54.0008L74.1032 53.9191C74.0565 53.6935 73.9554 53.4874 73.7998 53.3006C73.5353 52.9894 73.0607 52.6743 72.3761 52.3554L71.9209 52.157L71.6992 52.052L71.6058 52.0053L71.4891 51.9586C71.1079 51.7874 70.8006 51.6318 70.5672 51.4918C70.2093 51.2817 69.9176 51.0522 69.692 50.8033C69.6609 50.7721 69.6297 50.7332 69.5986 50.6866L69.5053 50.5699C69.4352 50.461 69.3847 50.3715 69.3535 50.3015L69.2835 50.1614C69.2602 50.107 69.2446 50.0603 69.2368 50.0214C69.1979 49.8969 69.1707 49.7919 69.1552 49.7063L69.1318 49.5429V49.4379L69.1201 49.3795V49.2862L69.1318 49.1461C69.1318 49.0761 69.1396 48.9867 69.1552 48.8777L69.1785 48.7377L69.2135 48.5977C69.3146 48.2164 69.4975 47.8936 69.762 47.629C69.9954 47.3957 70.2832 47.2089 70.6256 47.0689C70.8745 46.9755 71.1624 46.9055 71.4891 46.8588H71.6058L71.7109 46.8472C71.7887 46.8394 71.8509 46.8355 71.8976 46.8355H72.2827C72.485 46.8433 72.7223 46.8744 72.9946 46.9289C73.3758 47.0144 73.7414 47.1506 74.0915 47.3373C74.2238 47.4073 74.3483 47.4812 74.465 47.559C74.5505 47.6213 74.6361 47.6874 74.7217 47.7574C74.745 47.773 74.7762 47.8002 74.8151 47.8391C74.9006 47.9169 74.9006 47.9947 74.8151 48.0725L74.3366 48.551Z" fill="white"/>
</svg>
