<svg width="100" height="100" viewBox="0 0 100 100" fill="none" xmlns="http://www.w3.org/2000/svg">
<path d="M63.125 80.844H11.052C4.948 80.844 0 75.793 0 69.562V11.281C0 5.051 4.948 0 11.052 0H88.791C94.895 0 99.843 5.051 99.843 11.281V69.562C99.843 75.793 94.895 80.844 88.791 80.844H81.06L57.172 99.733L63.125 80.844Z" fill="#C7D886"/>
<path d="M16.3759 42.3522V25.2522H19.7765V27.3412H19.9303C20.0815 27.0065 20.3001 26.6664 20.5862 26.321C20.8776 25.9701 21.2555 25.6787 21.7197 25.4466C22.1893 25.2091 22.7722 25.0903 23.4685 25.0903C24.3754 25.0903 25.212 25.3278 25.9785 25.8028C26.745 26.2724 27.3576 26.9822 27.8164 27.9322C28.2752 28.8768 28.5046 30.0616 28.5046 31.4866C28.5046 32.8738 28.2806 34.0451 27.8326 35.0005C27.39 35.9505 26.7854 36.6711 26.019 37.1623C25.2579 37.6481 24.4051 37.891 23.4604 37.891C22.7911 37.891 22.2217 37.7804 21.7521 37.5591C21.2879 37.3377 20.9073 37.0598 20.6104 36.7251C20.3136 36.385 20.0869 36.0423 19.9303 35.6968H19.8251V42.3522H16.3759ZM19.7522 31.4704C19.7522 32.2099 19.8548 32.8549 20.0599 33.4055C20.265 33.9561 20.5619 34.3852 20.9505 34.6929C21.3391 34.9951 21.8114 35.1463 22.3674 35.1463C22.9288 35.1463 23.4038 34.9924 23.7924 34.6848C24.181 34.3717 24.4752 33.9399 24.6749 33.3893C24.8801 32.8333 24.9826 32.1937 24.9826 31.4704C24.9826 30.7525 24.8828 30.121 24.683 29.5758C24.4833 29.0306 24.1891 28.6042 23.8005 28.2966C23.4119 27.9889 22.9342 27.835 22.3674 27.835C21.806 27.835 21.331 27.9835 20.9424 28.2804C20.5592 28.5772 20.265 28.9983 20.0599 29.5434C19.8548 30.0886 19.7522 30.7309 19.7522 31.4704ZM32.5691 37.9234C31.7756 37.9234 31.0685 37.7858 30.4478 37.5105C29.8271 37.2298 29.3359 36.8169 28.9742 36.2717C28.618 35.7211 28.4399 35.0356 28.4399 34.2152C28.4399 33.5243 28.5667 32.944 28.8204 32.4744C29.0741 32.0048 29.4195 31.627 29.8568 31.3409C30.294 31.0548 30.7906 30.8389 31.3465 30.6931C31.9079 30.5474 32.4962 30.4448 33.1116 30.3855C33.8349 30.3099 34.4178 30.2397 34.8604 30.175C35.3031 30.1048 35.6242 30.0022 35.8239 29.8673C36.0237 29.7323 36.1235 29.5326 36.1235 29.2681V29.2196C36.1235 28.7068 35.9616 28.31 35.6377 28.0294C35.3193 27.7487 34.8658 27.6083 34.2775 27.6083C33.6568 27.6083 33.1629 27.746 32.7958 28.0213C32.4288 28.2912 32.1859 28.6312 32.0671 29.0414L28.8771 28.7823C29.039 28.0267 29.3575 27.3735 29.8325 26.823C30.3075 26.267 30.9201 25.8406 31.6704 25.5437C32.4261 25.2414 33.3005 25.0903 34.2937 25.0903C34.9846 25.0903 35.6458 25.1713 36.2774 25.3332C36.9143 25.4951 37.4783 25.7461 37.9695 26.0862C38.4661 26.4262 38.8575 26.8635 39.1435 27.3978C39.4296 27.9268 39.5727 28.561 39.5727 29.3005V37.6886H36.3016V35.964H36.2045C36.0048 36.3527 35.7376 36.6954 35.4029 36.9923C35.0683 37.2838 34.6661 37.5132 34.1965 37.6805C33.7269 37.8424 33.1845 37.9234 32.5691 37.9234ZM33.5569 35.543C34.0643 35.543 34.5123 35.4431 34.9009 35.2434C35.2896 35.0383 35.5945 34.763 35.8158 34.4176C36.0372 34.0721 36.1478 33.6808 36.1478 33.2436V31.9238C36.0399 31.994 35.8914 32.0588 35.7025 32.1181C35.519 32.1721 35.3112 32.2234 35.0791 32.272C34.847 32.3152 34.6149 32.3556 34.3827 32.3934C34.1506 32.4258 33.9401 32.4555 33.7512 32.4825C33.3464 32.5419 32.9928 32.6363 32.6906 32.7659C32.3883 32.8954 32.1535 33.0708 31.9862 33.2921C31.8188 33.5081 31.7352 33.7779 31.7352 34.1018C31.7352 34.5714 31.9052 34.9304 32.2452 35.1787C32.5907 35.4216 33.0279 35.543 33.5569 35.543ZM47.0823 25.2522V27.8431H39.5929V25.2522H47.0823ZM41.2932 22.2727H44.7423V33.867C44.7423 34.1855 44.7909 34.4338 44.8881 34.6119C44.9852 34.7846 45.1202 34.9061 45.2929 34.9762C45.471 35.0464 45.6761 35.0815 45.9082 35.0815C46.0702 35.0815 46.2321 35.068 46.394 35.041C46.556 35.0086 46.6801 34.9843 46.7665 34.9681L47.309 37.5348C47.1362 37.5887 46.8933 37.6508 46.5803 37.721C46.2672 37.7966 45.8867 37.8424 45.4386 37.8586C44.6074 37.891 43.8787 37.7804 43.2526 37.5267C42.6318 37.273 42.1487 36.8789 41.8033 36.3446C41.4578 35.8102 41.2878 35.1355 41.2932 34.3204V22.2727ZM47.5478 37.6886V25.2522H50.997V37.6886H47.5478ZM49.2805 23.6491C48.7677 23.6491 48.3278 23.4791 47.9607 23.139C47.5991 22.7936 47.4183 22.3806 47.4183 21.9002C47.4183 21.4252 47.5991 21.0177 47.9607 20.6777C48.3278 20.3322 48.7677 20.1595 49.2805 20.1595C49.7933 20.1595 50.2305 20.3322 50.5921 20.6777C50.9592 21.0177 51.1427 21.4252 51.1427 21.9002C51.1427 22.3806 50.9592 22.7936 50.5921 23.139C50.2305 23.4791 49.7933 23.6491 49.2805 23.6491ZM57.6463 37.9315C56.367 37.9315 55.2659 37.6724 54.3429 37.1542C53.4253 36.6306 52.7182 35.8912 52.2216 34.9358C51.725 33.975 51.4767 32.8387 51.4767 31.5271C51.4767 30.2478 51.725 29.1251 52.2216 28.1589C52.7182 27.1927 53.4172 26.4397 54.3186 25.9C55.2254 25.3602 56.2888 25.0903 57.5086 25.0903C58.3291 25.0903 59.0929 25.2225 59.8 25.487C60.5125 25.7461 61.1332 26.1375 61.6622 26.661C62.1966 27.1846 62.6122 27.8431 62.9091 28.6366C63.2059 29.4247 63.3544 30.3477 63.3544 31.4056V32.3529H52.8531V30.2154H60.1076C60.1076 29.7189 59.9997 29.2789 59.7838 28.8957C59.5679 28.5125 59.2683 28.2129 58.8851 27.997C58.5072 27.7757 58.0673 27.665 57.5653 27.665C57.0417 27.665 56.5775 27.7865 56.1727 28.0294C55.7733 28.2669 55.4602 28.588 55.2335 28.9929C55.0068 29.3923 54.8907 29.8376 54.8853 30.3288V32.361C54.8853 32.9764 54.9987 33.5081 55.2254 33.9561C55.4575 34.4041 55.7841 34.7495 56.2051 34.9924C56.6261 35.2353 57.1254 35.3568 57.703 35.3568C58.0862 35.3568 58.437 35.3028 58.7555 35.1948C59.074 35.0869 59.3466 34.925 59.5733 34.7091C59.8 34.4931 59.9727 34.2287 60.0914 33.9156L63.2815 34.1261C63.1196 34.8926 62.7876 35.5619 62.2856 36.1341C61.789 36.7008 61.1467 37.1434 60.3586 37.4619C59.576 37.775 58.6718 37.9315 57.6463 37.9315ZM67.2731 30.4988V37.6886H63.824V25.2522H67.1112V27.4464H67.2569C67.5322 26.7231 67.9937 26.151 68.6414 25.7299C69.2892 25.3035 70.0745 25.0903 70.9976 25.0903C71.8612 25.0903 72.6142 25.2792 73.2565 25.6571C73.8988 26.0349 74.3981 26.5747 74.7544 27.2764C75.1106 27.9727 75.2887 28.8039 75.2887 29.7701V37.6886H71.8396V30.3855C71.845 29.6244 71.6507 29.0306 71.2566 28.6042C70.8626 28.1724 70.3201 27.9565 69.6292 27.9565C69.165 27.9565 68.7548 28.0564 68.3985 28.2561C68.0477 28.4558 67.7724 28.7473 67.5727 29.1305C67.3784 29.5083 67.2785 29.9645 67.2731 30.4988ZM82.8408 25.2522V27.8431H75.3515V25.2522H82.8408ZM77.0518 22.2727H80.5009V33.867C80.5009 34.1855 80.5495 34.4338 80.6467 34.6119C80.7438 34.7846 80.8788 34.9061 81.0515 34.9762C81.2296 35.0464 81.4347 35.0815 81.6668 35.0815C81.8288 35.0815 81.9907 35.068 82.1526 35.041C82.3146 35.0086 82.4387 34.9843 82.5251 34.9681L83.0675 37.5348C82.8948 37.5887 82.6519 37.6508 82.3389 37.721C82.0258 37.7966 81.6452 37.8424 81.1972 37.8586C80.366 37.891 79.6373 37.7804 79.0112 37.5267C78.3904 37.273 77.9073 36.8789 77.5619 36.3446C77.2164 35.8102 77.0464 35.1355 77.0518 34.3204V22.2727Z" fill="white"/>
<path d="M30.8277 46.9516L29.508 47.324C29.3784 46.9516 29.1949 46.6142 28.9574 46.3119C28.7199 46.0097 28.4095 45.7695 28.0263 45.5914C27.6485 45.4132 27.1789 45.3242 26.6175 45.3242C25.7754 45.3242 25.0845 45.5239 24.5448 45.9233C24.005 46.3227 23.7351 46.8382 23.7351 47.4698C23.7351 48.0041 23.9186 48.4387 24.2857 48.7733C24.6581 49.1026 25.2303 49.3644 26.0021 49.5587L27.8806 50.0202C28.9223 50.2739 29.7023 50.676 30.2205 51.2266C30.7441 51.7771 31.0058 52.4681 31.0058 53.2993C31.0058 54.001 30.8115 54.6245 30.4229 55.1696C30.0343 55.7148 29.4918 56.1439 28.7955 56.457C28.1046 56.7646 27.303 56.9185 26.3908 56.9185C25.1763 56.9185 24.175 56.6459 23.3869 56.1007C22.5989 55.5502 22.0942 54.7567 21.8729 53.7203L23.2574 53.3803C23.4355 54.1198 23.7837 54.6784 24.3019 55.0563C24.8254 55.4341 25.5137 55.623 26.3665 55.623C27.3219 55.623 28.0857 55.4098 28.6578 54.9834C29.23 54.5516 29.5161 54.0118 29.5161 53.3641C29.5161 52.8621 29.3487 52.4411 29.0141 52.101C28.6794 51.7556 28.172 51.5019 27.4919 51.3399L25.4597 50.8541C24.3801 50.595 23.5813 50.1848 23.0631 49.6235C22.5449 49.0621 22.2858 48.3658 22.2858 47.5345C22.2858 46.849 22.472 46.2472 22.8445 45.729C23.2169 45.2054 23.7297 44.7952 24.3828 44.4983C25.036 44.2014 25.7808 44.053 26.6175 44.053C27.7564 44.053 28.6659 44.3121 29.346 44.8303C30.0316 45.3431 30.5254 46.0502 30.8277 46.9516ZM36.5662 44.223V45.478H30.6314V44.223H36.5662ZM32.4855 41.2435H33.9348V53.4127C33.9348 53.9308 34.0238 54.3384 34.202 54.6352C34.3801 54.9267 34.6122 55.1345 34.8983 55.2587C35.1844 55.3774 35.4893 55.4368 35.8132 55.4368C36.0021 55.4368 36.164 55.426 36.299 55.4044C36.4339 55.3774 36.5527 55.3504 36.6552 55.3235L36.9629 56.627C36.8226 56.681 36.6498 56.7296 36.4447 56.7727C36.2396 56.8213 35.9859 56.8456 35.6836 56.8456C35.1547 56.8456 34.6446 56.7296 34.1534 56.4975C33.6676 56.2654 33.2682 55.9199 32.9551 55.4611C32.642 55.0023 32.4855 54.4328 32.4855 53.7527V41.2435ZM42.0455 56.9185C40.9714 56.9185 40.0214 56.6459 39.1955 56.1007C38.3751 55.5556 37.7328 54.8026 37.2686 53.8418C36.8043 52.8756 36.5722 51.761 36.5722 50.4979C36.5722 49.224 36.8043 48.104 37.2686 47.1378C37.7328 46.1662 38.3751 45.4105 39.1955 44.8708C40.0214 44.3256 40.9714 44.053 42.0455 44.053C43.1197 44.053 44.067 44.3256 44.8874 44.8708C45.7079 45.4159 46.3502 46.1716 46.8144 47.1378C47.284 48.104 47.5188 49.224 47.5188 50.4979C47.5188 51.761 47.2867 52.8756 46.8225 53.8418C46.3583 54.8026 45.7133 55.5556 44.8874 56.1007C44.067 56.6459 43.1197 56.9185 42.0455 56.9185ZM42.0455 55.5987C42.9092 55.5987 43.6406 55.3666 44.2397 54.9024C44.8389 54.4382 45.2923 53.8202 45.5999 53.0483C45.913 52.2764 46.0695 51.4263 46.0695 50.4979C46.0695 49.5695 45.913 48.7166 45.5999 47.9394C45.2923 47.1621 44.8389 46.5387 44.2397 46.0691C43.6406 45.5995 42.9092 45.3646 42.0455 45.3646C41.1873 45.3646 40.4559 45.5995 39.8514 46.0691C39.2522 46.5387 38.7961 47.1621 38.483 47.9394C38.1754 48.7166 38.0215 49.5695 38.0215 50.4979C38.0215 51.4263 38.1754 52.2764 38.483 53.0483C38.7961 53.8202 39.2522 54.4382 39.8514 54.9024C40.4505 55.3666 41.1819 55.5987 42.0455 55.5987ZM48.1888 56.6594V44.223H49.5895V46.1338H49.6948C49.9431 45.5077 50.3749 45.003 50.9903 44.6198C51.611 44.2311 52.3127 44.0368 53.0954 44.0368C53.2141 44.0368 53.3464 44.0395 53.4921 44.0449C53.6378 44.0503 53.7593 44.0557 53.8564 44.0611V45.5266C53.7917 45.5158 53.6783 45.4996 53.5164 45.478C53.3545 45.4564 53.179 45.4456 52.9901 45.4456C52.3424 45.4456 51.7648 45.5833 51.2574 45.8585C50.7555 46.1284 50.3587 46.5036 50.0672 46.984C49.7758 47.4644 49.63 48.0122 49.63 48.6276V56.6594H48.1888ZM53.8382 56.6594V44.223H55.2875V56.6594H53.8382ZM54.575 42.0855C54.2781 42.0855 54.0244 41.9857 53.8139 41.786C53.6034 41.5808 53.4982 41.3352 53.4982 41.0492C53.4982 40.7631 53.6034 40.5202 53.8139 40.3205C54.0244 40.1154 54.2781 40.0128 54.575 40.0128C54.8719 40.0128 55.1256 40.1154 55.3361 40.3205C55.5466 40.5202 55.6519 40.7631 55.6519 41.0492C55.6519 41.3352 55.5466 41.5808 55.3361 41.786C55.1256 41.9857 54.8719 42.0855 54.575 42.0855ZM61.6332 56.9185C60.4727 56.9185 59.4687 56.6486 58.6213 56.1088C57.7738 55.5637 57.118 54.8107 56.6538 53.8499C56.195 52.8837 55.9656 51.7718 55.9656 50.5141C55.9656 49.2618 56.195 48.1499 56.6538 47.1783C57.118 46.2013 57.7577 45.4375 58.5727 44.887C59.3932 44.331 60.3405 44.053 61.4146 44.053C62.0893 44.053 62.7398 44.1771 63.3659 44.4254C63.992 44.6683 64.5534 45.0435 65.05 45.5509C65.552 46.0529 65.9487 46.6871 66.2402 47.4536C66.5317 48.2146 66.6774 49.1161 66.6774 50.1578V50.8703H56.9615V49.5992H65.2038C65.2038 48.8003 65.0419 48.0824 64.718 47.4455C64.3996 46.8031 63.9542 46.2958 63.3821 45.9233C62.8153 45.5509 62.1595 45.3646 61.4146 45.3646C60.6265 45.3646 59.9329 45.5752 59.3338 45.9962C58.7346 46.4172 58.265 46.9732 57.925 47.6641C57.5903 48.355 57.4203 49.1107 57.4149 49.9311V50.6922C57.4149 51.68 57.5849 52.5436 57.925 53.2831C58.2704 54.0172 58.7589 54.5867 59.3905 54.9915C60.022 55.3963 60.7696 55.5987 61.6332 55.5987C62.2216 55.5987 62.7371 55.507 63.1797 55.3235C63.6277 55.1399 64.0028 54.8943 64.3051 54.5867C64.6128 54.2736 64.8449 53.9308 65.0014 53.5584L66.3697 54.0037C66.1808 54.5273 65.8704 55.0104 65.4386 55.453C65.0122 55.8956 64.4778 56.2519 63.8355 56.5218C63.1986 56.7862 62.4645 56.9185 61.6332 56.9185ZM75.7152 46.9516L74.3955 47.324C74.2659 46.9516 74.0824 46.6142 73.8449 46.3119C73.6074 46.0097 73.297 45.7695 72.9138 45.5914C72.536 45.4132 72.0664 45.3242 71.505 45.3242C70.6629 45.3242 69.972 45.5239 69.4323 45.9233C68.8925 46.3227 68.6226 46.8382 68.6226 47.4698C68.6226 48.0041 68.8061 48.4387 69.1732 48.7733C69.5456 49.1026 70.1178 49.3644 70.8896 49.5587L72.7681 50.0202C73.8098 50.2739 74.5898 50.676 75.108 51.2266C75.6316 51.7771 75.8933 52.4681 75.8933 53.2993C75.8933 54.001 75.699 54.6245 75.3104 55.1696C74.9218 55.7148 74.3793 56.1439 73.683 56.457C72.9921 56.7646 72.1905 56.9185 71.2783 56.9185C70.0638 56.9185 69.0625 56.6459 68.2745 56.1007C67.4864 55.5502 66.9817 54.7567 66.7604 53.7203L68.1449 53.3803C68.323 54.1198 68.6712 54.6784 69.1894 55.0563C69.7129 55.4341 70.4012 55.623 71.254 55.623C72.2094 55.623 72.9732 55.4098 73.5453 54.9834C74.1175 54.5516 74.4036 54.0118 74.4036 53.3641C74.4036 52.8621 74.2362 52.4411 73.9016 52.101C73.5669 51.7556 73.0595 51.5019 72.3794 51.3399L70.3472 50.8541C69.2676 50.595 68.4688 50.1848 67.9506 49.6235C67.4324 49.0621 67.1733 48.3658 67.1733 47.5345C67.1733 46.849 67.3595 46.2472 67.732 45.729C68.1044 45.2054 68.6172 44.7952 69.2703 44.4983C69.9235 44.2014 70.6683 44.053 71.505 44.053C72.6439 44.053 73.5534 44.3121 74.2335 44.8303C74.9191 45.3431 75.4129 46.0502 75.7152 46.9516Z" fill="white"/>
</svg>
