<svg width="188" height="127" viewBox="0 0 188 127" fill="none" xmlns="http://www.w3.org/2000/svg">
<path d="M100.998 102.947H17.6828C7.91664 102.947 0 96.5148 0 88.5803V14.3652C0 6.43194 7.91664 7.02803e-07 17.6828 7.02803e-07H142.063C151.829 7.02803e-07 159.746 6.43194 159.746 14.3652V88.5803C159.746 96.5148 151.829 102.947 142.063 102.947H129.693L91.4734 127L100.998 102.947Z" fill="#C7D886"/>
<path d="M42.1959 47.8771C42.8338 48.4995 43.5963 48.8107 44.4832 48.8107C45.3857 48.8107 46.1598 48.4917 46.8055 47.8537C47.4435 47.2158 47.7624 46.4456 47.7624 45.5431C47.7624 44.6406 47.4435 43.8665 46.8055 43.2208C46.1598 42.5828 45.3857 42.2639 44.4832 42.2639C43.5963 42.2639 42.8338 42.5751 42.1959 43.1974C41.5579 43.8198 41.2312 44.5784 41.2156 45.4731V45.6131C41.2312 46.5 41.5579 47.2547 42.1959 47.8771ZM41.2156 41.447C42.2348 40.6301 43.3979 40.2488 44.7049 40.3033C46.0275 40.3578 47.1712 40.8557 48.1359 41.7971C49.1006 42.7384 49.6257 43.8704 49.7113 45.193C49.7658 45.9399 49.6646 46.6595 49.4079 47.3519C49.1589 48.021 48.7894 48.6162 48.2992 49.1374C47.2645 50.2344 45.9925 50.7829 44.4832 50.7829C43.2617 50.7829 42.1725 50.3978 41.2156 49.6276V56.8863C41.2156 56.9874 41.165 57.038 41.0639 57.038H39.3718C39.2706 57.038 39.2201 56.9874 39.2201 56.8863V40.4784C39.2201 40.3772 39.2706 40.3266 39.3718 40.3266H41.0639C41.165 40.3266 41.2156 40.3772 41.2156 40.4784V41.447ZM53.8775 48.4022C54.1186 48.6745 54.5699 48.8107 55.2312 48.8107C55.4568 48.8107 55.6785 48.7835 55.8964 48.729C56.1842 48.6512 56.4449 48.5306 56.6783 48.3672C57.3006 47.916 57.6741 47.1613 57.7986 46.1033C57.4485 46.0799 57.1139 46.0682 56.795 46.0682C55.3868 46.0682 54.4376 46.2861 53.9475 46.7218C53.7374 46.9085 53.6324 47.1652 53.6324 47.492C53.6324 47.9121 53.7141 48.2155 53.8775 48.4022ZM59.8058 45.298C59.8058 45.4225 59.8019 45.5509 59.7941 45.6831C59.7863 45.9554 59.7825 46.1577 59.7825 46.29C59.7825 46.9668 59.8291 47.7798 59.9225 48.729C59.9536 49.0791 59.9925 49.437 60.0392 49.8026C60.0703 50.0749 60.1053 50.3433 60.1442 50.6078C60.1598 50.7245 60.1092 50.7829 59.9925 50.7829H58.312C58.2265 50.7829 58.1759 50.7401 58.1603 50.6545C58.1214 50.3667 58.0864 50.0749 58.0553 49.7793C57.2617 50.4406 56.3204 50.7712 55.2312 50.7712C54.1109 50.7712 53.2356 50.4834 52.6054 49.9077C51.9753 49.3242 51.6602 48.5189 51.6602 47.492C51.6602 46.5739 51.9908 45.8232 52.6521 45.2397C53.6557 44.345 55.3751 43.9754 57.8102 44.131C57.7558 43.4386 57.5963 42.9563 57.3318 42.684C57.0595 42.3961 56.581 42.2522 55.8964 42.2522C55.3829 42.2522 54.9122 42.3417 54.4843 42.5206C54.3287 42.5828 54.1809 42.6567 54.0409 42.7423C53.9397 42.8046 53.8502 42.8668 53.7724 42.929C53.7024 42.9913 53.6363 42.9913 53.5741 42.929L52.337 41.7971C52.2592 41.7193 52.2592 41.6453 52.337 41.5753C52.3915 41.5209 52.4499 41.4703 52.5121 41.4236C52.5899 41.3536 52.6755 41.2875 52.7688 41.2252C52.9944 41.0696 53.2395 40.9296 53.504 40.8051C54.2276 40.4628 55.025 40.2916 55.8964 40.2916C57.1334 40.2916 58.0825 40.6301 58.7438 41.3069C59.2028 41.7815 59.5102 42.4117 59.6658 43.1974C59.7747 43.7187 59.8214 44.4189 59.8058 45.298ZM65.6291 47.7954C65.6291 48.2855 65.7769 48.6045 66.0725 48.7523C66.3215 48.8768 66.6132 48.834 66.9478 48.624C67.0256 48.5773 67.0917 48.5928 67.1462 48.6706L68.1381 50.001C68.2081 50.0866 68.1965 50.1566 68.1031 50.2111C67.5507 50.5923 66.9711 50.7829 66.3643 50.7829C65.9519 50.7829 65.5591 50.6895 65.1856 50.5028C64.711 50.2694 64.3376 49.9115 64.0653 49.4292C63.8008 48.9468 63.6685 48.4022 63.6685 47.7954V42.2288H62.0698C61.9686 42.2288 61.918 42.1783 61.918 42.0771V40.42C61.918 40.3189 61.9686 40.2683 62.0698 40.2683H63.6685L63.6569 38.0627C63.6569 37.9615 63.7074 37.911 63.8086 37.911H65.4774C65.5785 37.911 65.6291 37.9615 65.6291 38.0627V40.2683H67.2279C67.329 40.2683 67.3796 40.3189 67.3796 40.42V42.0771C67.3796 42.1783 67.329 42.2288 67.2279 42.2288H65.6291V47.7954ZM70.9506 40.3033H72.6077C72.7088 40.3033 72.7594 40.3539 72.7594 40.455V50.6312C72.7594 50.7323 72.7088 50.7829 72.6077 50.7829H70.9506C70.8494 50.7829 70.7989 50.7323 70.7989 50.6312V40.455C70.7989 40.3539 70.8494 40.3033 70.9506 40.3033ZM72.5727 38.051C72.3548 38.2689 72.0903 38.3778 71.7791 38.3778C71.4679 38.3778 71.2034 38.2689 70.9856 38.051C70.76 37.8254 70.6471 37.557 70.6471 37.2458C70.6471 36.9346 70.76 36.6701 70.9856 36.4522C71.2034 36.2344 71.4679 36.1255 71.7791 36.1255C72.0903 36.1255 72.3548 36.2344 72.5727 36.4522C72.7905 36.6701 72.8994 36.9346 72.8994 37.2458C72.8994 37.557 72.7905 37.8254 72.5727 38.051ZM76.6805 44.9946L82.7255 44.4695C82.5544 43.8004 82.2004 43.2675 81.6636 42.8707C81.1267 42.4661 80.4849 42.2639 79.738 42.2639C78.9522 42.2639 78.2754 42.5206 77.7075 43.0341C77.1395 43.5398 76.7972 44.1933 76.6805 44.9946ZM76.1554 41.8087C77.1434 40.7973 78.3493 40.2955 79.773 40.3033C81.1656 40.3111 82.3521 40.8246 83.3324 41.8437C84.3126 42.8551 84.8028 44.061 84.8028 45.4614V46.1266C84.8028 46.22 84.7561 46.2705 84.6627 46.2783L76.9606 46.9435C77.2251 47.5036 77.6219 47.9549 78.1509 48.2972C78.6877 48.6395 79.2751 48.8107 79.9131 48.8107C80.4732 48.8107 80.9984 48.6784 81.4885 48.4139C81.9864 48.1416 82.3832 47.7721 82.6788 47.3053C82.7333 47.2197 82.8033 47.2002 82.8889 47.2469L84.3243 48.0871C84.4177 48.1338 84.4371 48.2038 84.3826 48.2972C83.9081 49.0674 83.2701 49.6743 82.4688 50.1177C81.6752 50.5612 80.8233 50.7829 79.9131 50.7829C78.4738 50.7829 77.2407 50.2694 76.2137 49.2425C75.1867 48.2233 74.6733 46.9902 74.6733 45.5431C74.6733 44.0649 75.1673 42.8201 76.1554 41.8087ZM96.3093 46.1966C96.3093 46.7179 96.3093 47.1069 96.3093 47.3636C96.3171 48.3283 96.321 49.1335 96.321 49.7793L96.3326 50.6078C96.3326 50.709 96.2821 50.7596 96.1809 50.7596H94.5005C94.3993 50.7596 94.3488 50.709 94.3488 50.6078L94.3604 49.7793C94.3604 49.1335 94.3643 48.3283 94.3721 47.3636C94.3721 47.1069 94.376 46.7179 94.3838 46.1966V45.8815V45.5548C94.3838 45.3136 94.3838 45.0919 94.3838 44.8896V44.5512L94.3721 44.3061C94.3565 44.1349 94.3254 43.9716 94.2787 43.816C94.1698 43.4892 93.9948 43.1974 93.7536 42.9407C93.5202 42.6918 93.2362 42.505 92.9017 42.3806C92.7539 42.3183 92.5944 42.2755 92.4232 42.2522L92.3532 42.2405C92.3299 42.2327 92.3143 42.2288 92.3065 42.2288H92.2715H92.2482C92.2326 42.2288 92.2093 42.2288 92.1782 42.2288L92.0965 42.2172H92.0731H92.0498H91.9798L91.9214 42.2288C91.299 42.2522 90.7739 42.4973 90.346 42.9641C90.1748 43.1352 90.0387 43.3297 89.9375 43.5475C89.852 43.7187 89.7897 43.8938 89.7508 44.0727C89.7275 44.1583 89.7119 44.2244 89.7041 44.2711V44.3178V44.3528L89.6925 44.4111C89.6925 44.4811 89.6886 44.5356 89.6808 44.5745V44.7145V50.6312C89.6808 50.7323 89.6302 50.7829 89.5291 50.7829H87.8253C87.7241 50.7829 87.6736 50.7323 87.6736 50.6312V40.385C87.6736 40.2839 87.7241 40.2333 87.8253 40.2333H89.5291C89.6302 40.2333 89.6808 40.2839 89.6808 40.385V41.1786C89.8597 41.0463 90.0348 40.9374 90.2059 40.8518C90.7039 40.5951 91.2368 40.4433 91.8047 40.3967L91.9097 40.385H92.0148H92.0731H92.1198H92.1431H92.2248C92.2482 40.385 92.2832 40.385 92.3299 40.385L92.3882 40.3967H92.4466C92.4855 40.3967 92.5244 40.4006 92.5633 40.4083L92.68 40.42C92.9834 40.4667 93.2751 40.5406 93.5552 40.6417C94.1543 40.8596 94.6677 41.1941 95.0956 41.6453C95.5391 42.0966 95.862 42.6178 96.0642 43.2091C96.1654 43.497 96.2315 43.7926 96.2626 44.096C96.286 44.2439 96.2976 44.3956 96.2976 44.5512V44.8896C96.2976 45.0919 96.2976 45.3136 96.2976 45.5548V45.8815L96.3093 46.1966ZM102.109 47.7954C102.109 48.2855 102.257 48.6045 102.553 48.7523C102.802 48.8768 103.093 48.834 103.428 48.624C103.506 48.5773 103.572 48.5928 103.626 48.6706L104.618 50.001C104.688 50.0866 104.677 50.1566 104.583 50.2111C104.031 50.5923 103.451 50.7829 102.844 50.7829C102.432 50.7829 102.039 50.6895 101.666 50.5028C101.191 50.2694 100.818 49.9115 100.545 49.4292C100.281 48.9468 100.149 48.4022 100.149 47.7954V42.2288H98.5499C98.4488 42.2288 98.3982 42.1783 98.3982 42.0771V40.42C98.3982 40.3189 98.4488 40.2683 98.5499 40.2683H100.149L100.137 38.0627C100.137 37.9615 100.188 37.911 100.289 37.911H101.958C102.059 37.911 102.109 37.9615 102.109 38.0627V40.2683H103.708C103.809 40.2683 103.86 40.3189 103.86 40.42V42.0771C103.86 42.1783 103.809 42.2288 103.708 42.2288H102.109V47.7954ZM43.7947 61.3339C43.7246 61.3961 43.6507 61.4 43.5729 61.3455C43.5029 61.2833 43.429 61.2288 43.3512 61.1822C43.2578 61.1121 43.1645 61.0538 43.0711 61.0071C42.8066 60.8671 42.5304 60.7659 42.2426 60.7037C42.0247 60.6648 41.8419 60.6415 41.6941 60.6337H41.5424H41.3907C41.3362 60.6337 41.2778 60.6376 41.2156 60.6453H41.1456L41.0756 60.657C40.8266 60.6881 40.6204 60.7387 40.4571 60.8087C40.247 60.8865 40.0797 60.9954 39.9553 61.1355C39.8152 61.2677 39.718 61.4389 39.6635 61.649L39.6402 61.7307L39.6285 61.8123C39.6207 61.8901 39.6168 61.9485 39.6168 61.9874L39.6052 62.0807V62.0574V62.0691L39.6168 62.1041V62.1624V62.2675L39.6402 62.3375C39.6402 62.353 39.6441 62.3725 39.6518 62.3958L39.6752 62.4775L39.6985 62.5475L39.7335 62.6176L39.7685 62.6876L39.8152 62.7576L39.8736 62.8276L39.9319 62.8976C40.0797 63.061 40.2859 63.2205 40.5504 63.3761C40.7527 63.4928 41.025 63.629 41.3673 63.7846L41.484 63.8312L41.6124 63.8896L41.8341 63.9946L42.2776 64.1813C42.6432 64.3525 42.9505 64.5159 43.1995 64.6715C43.5574 64.8971 43.8452 65.1422 44.0631 65.4067C44.3431 65.7257 44.5221 66.0835 44.5999 66.4803L44.6349 66.632C44.6427 66.6943 44.6466 66.7448 44.6466 66.7837L44.6582 66.9238V67.0055V67.0521V67.0871V67.1455V67.2038C44.6505 67.2505 44.6466 67.2933 44.6466 67.3322L44.6232 67.4839L44.5999 67.6356C44.5221 68.0246 44.3665 68.3708 44.1331 68.6743C43.9075 68.9621 43.6274 69.1916 43.2929 69.3628C43.0283 69.5028 42.7249 69.6078 42.3826 69.6779C42.0558 69.7401 41.7719 69.7751 41.5307 69.7829H41.4257H41.379H41.3323H41.309L41.1339 69.7712C41.0872 69.7712 41.025 69.7673 40.9472 69.7596H40.8422L40.7488 69.7479C40.531 69.7168 40.2937 69.6701 40.0369 69.6078C39.6635 69.4989 39.3056 69.3472 38.9633 69.1527C38.7999 69.0671 38.6521 68.9738 38.5199 68.8726C38.4187 68.7948 38.3254 68.7209 38.2398 68.6509C38.1542 68.5731 38.1542 68.4914 38.2398 68.4058L38.7999 67.869C38.87 67.799 38.9439 67.7951 39.0217 67.8574C39.0761 67.9118 39.1384 67.9624 39.2084 68.0091C39.3017 68.0791 39.4029 68.1452 39.5118 68.2075C39.7763 68.3553 40.0486 68.4681 40.3287 68.5459C40.531 68.6003 40.7099 68.6392 40.8655 68.6626L40.9355 68.6743H41.0055C41.06 68.682 41.1145 68.6859 41.1689 68.6859L41.344 68.6976H41.3673H41.414L41.4957 68.6859C41.6746 68.6859 41.8964 68.6665 42.1609 68.6276C42.4098 68.5731 42.6199 68.4992 42.791 68.4058C43.2112 68.1958 43.464 67.8651 43.5496 67.4139L43.5613 67.3322L43.5729 67.2622C43.5807 67.2389 43.5846 67.2038 43.5846 67.1572V67.0988V67.0405L43.5963 67.0055V66.9938V66.9821C43.5963 67.0055 43.5963 67.0132 43.5963 67.0055L43.5846 66.9588V66.8771C43.5846 66.8537 43.5807 66.8226 43.5729 66.7837L43.5613 66.702C43.5146 66.4764 43.4134 66.2703 43.2578 66.0835C42.9933 65.7723 42.5187 65.4572 41.8341 65.1383L41.379 64.9399L41.1573 64.8349L41.0639 64.7882L40.9472 64.7415C40.566 64.5703 40.2587 64.4147 40.0253 64.2747C39.6674 64.0646 39.3756 63.8351 39.15 63.5862C39.1189 63.555 39.0878 63.5162 39.0567 63.4695L38.9633 63.3528C38.8933 63.2439 38.8427 63.1544 38.8116 63.0844L38.7416 62.9443C38.7182 62.8899 38.7027 62.8432 38.6949 62.8043C38.656 62.6798 38.6288 62.5748 38.6132 62.4892L38.5899 62.3258V62.2208L38.5782 62.1624V62.1274V62.1158V62.0807V62.0691L38.5899 61.929C38.5899 61.859 38.5977 61.7696 38.6132 61.6606L38.6366 61.5206L38.6716 61.3806C38.7727 60.9993 38.9555 60.6765 39.2201 60.412C39.4534 60.1786 39.7413 59.9918 40.0836 59.8518C40.3326 59.7584 40.6204 59.6884 40.9472 59.6417H41.0639L41.1689 59.6301C41.2467 59.6223 41.309 59.6184 41.3556 59.6184H41.5424H41.7408C41.943 59.6262 42.1803 59.6573 42.4526 59.7118C42.8338 59.7973 43.1995 59.9335 43.5496 60.1202C43.6819 60.1902 43.8063 60.2641 43.923 60.3419C44.0086 60.4042 44.0942 60.4703 44.1798 60.5403C44.2031 60.5559 44.2342 60.5831 44.2731 60.622C44.3587 60.6998 44.3587 60.7776 44.2731 60.8554L43.7947 61.3339ZM51.0884 68.4175L51.5552 69.0477C51.6252 69.1411 51.6135 69.215 51.5201 69.2694C51.0145 69.6117 50.4932 69.7829 49.9564 69.7829C49.5907 69.7829 49.2484 69.7012 48.9294 69.5378C48.5093 69.3278 48.1787 69.0088 47.9375 68.5809C47.7041 68.1452 47.5874 67.6512 47.5874 67.0988V60.7504H46.1753C46.0664 60.7504 46.0119 60.6959 46.0119 60.587V59.8051C46.0119 59.6962 46.0664 59.6417 46.1753 59.6417H47.5874L47.5757 56.7593C47.5757 56.6503 47.6302 56.5959 47.7391 56.5959H48.521C48.6299 56.5959 48.6844 56.6503 48.6844 56.7593V59.6417H50.2831C50.3921 59.6417 50.4465 59.6962 50.4465 59.8051V60.587C50.4465 60.6959 50.3921 60.7504 50.2831 60.7504H48.6844V67.0988C48.6844 67.8224 48.9294 68.3086 49.4196 68.5576C49.863 68.7832 50.3454 68.7248 50.8666 68.3825C50.96 68.328 51.0339 68.3397 51.0884 68.4175ZM57.6819 60.7504C56.5849 60.7504 55.6474 61.1394 54.8694 61.9174C54.0992 62.6876 53.7141 63.6212 53.7141 64.7182C53.7141 65.8073 54.0992 66.7409 54.8694 67.5189C55.6474 68.2969 56.5849 68.6859 57.6819 68.6859C58.7711 68.6859 59.7047 68.2969 60.4826 67.5189C61.2606 66.7409 61.6496 65.8073 61.6496 64.7182C61.6496 63.6212 61.2606 62.6876 60.4826 61.9174C59.7047 61.1394 58.7711 60.7504 57.6819 60.7504ZM57.6819 69.7829C56.2815 69.7829 55.0873 69.2889 54.0992 68.3008C53.1111 67.305 52.6171 66.1108 52.6171 64.7182C52.6171 63.3178 53.1111 62.1235 54.0992 61.1355C55.0873 60.1474 56.2815 59.6534 57.6819 59.6534C59.0745 59.6534 60.2648 60.1474 61.2529 61.1355C62.2487 62.1235 62.7466 63.3178 62.7466 64.7182C62.7466 66.1108 62.2487 67.305 61.2529 68.3008C60.2648 69.2889 59.0745 69.7829 57.6819 69.7829ZM69.4918 59.6884C69.7097 59.6884 69.9236 59.704 70.1337 59.7351C70.2426 59.7584 70.2854 59.8246 70.262 59.9335L70.1103 60.692C70.087 60.7932 70.0248 60.836 69.9236 60.8204C69.7836 60.7971 69.6396 60.7854 69.4918 60.7854C68.6905 60.7854 68.0059 61.0694 67.4379 61.6373C66.87 62.2052 66.586 62.8899 66.586 63.6912V69.6195C66.586 69.7284 66.5354 69.7829 66.4343 69.7829H65.6524C65.5435 69.7829 65.489 69.7284 65.489 69.6195V59.7818C65.489 59.6729 65.5435 59.6184 65.6524 59.6184H66.4343C66.5354 59.6184 66.586 59.6729 66.586 59.7818V60.9488C67.3796 60.1085 68.3482 59.6884 69.4918 59.6884ZM71.7791 69.7829C71.678 69.7829 71.6274 69.7284 71.6274 69.6195V59.8285C71.6274 59.7195 71.678 59.6651 71.7791 59.6651H72.561C72.6699 59.6651 72.7244 59.7195 72.7244 59.8285V69.6195C72.7244 69.7284 72.6699 69.7829 72.561 69.7829H71.7791ZM72.9695 56.4208C72.9695 56.6387 72.8917 56.8254 72.7361 56.981C72.5805 57.1366 72.3937 57.2144 72.1759 57.2144C71.9503 57.2144 71.7636 57.1366 71.6158 56.981C71.4602 56.8254 71.3824 56.6387 71.3824 56.4208C71.3824 56.203 71.4602 56.0163 71.6158 55.8607C71.7636 55.7051 71.9503 55.6273 72.1759 55.6273C72.3937 55.6273 72.5805 55.7051 72.7361 55.8607C72.8917 56.0163 72.9695 56.203 72.9695 56.4208ZM80.1931 60.7387C79.1195 60.7387 78.2248 61.1121 77.5091 61.859C76.7855 62.6137 76.4199 63.5512 76.4121 64.6715L83.9392 64.018C83.8303 63.0532 83.4296 62.2675 82.7372 61.6606C82.0448 61.046 81.1968 60.7387 80.1931 60.7387ZM80.3799 69.7829C78.9795 69.7829 77.7853 69.2889 76.7972 68.3008C75.8014 67.305 75.3034 66.1069 75.3034 64.7065C75.3034 63.2828 75.7819 62.0807 76.7388 61.1005C77.688 60.1202 78.8511 59.634 80.2282 59.6417C81.5663 59.6495 82.71 60.1435 83.6591 61.1238C84.6005 62.0963 85.0712 63.2633 85.0712 64.6248V64.8815C85.0712 64.9749 85.0245 65.0255 84.9311 65.0332L76.5521 65.7684C76.7855 66.6165 77.2523 67.3128 77.9525 67.8574C78.6683 68.4097 79.4774 68.6859 80.3799 68.6859C81.0645 68.6859 81.7063 68.5187 82.3054 68.1841C82.8967 67.8574 83.3751 67.4061 83.7408 66.8304C83.7953 66.737 83.8692 66.7176 83.9625 66.7721L84.6394 67.1572C84.7327 67.2194 84.7522 67.2972 84.6977 67.3906C84.2309 68.1297 83.6124 68.7132 82.8422 69.1411C82.0798 69.5689 81.259 69.7829 80.3799 69.7829ZM92.5516 61.3339C92.4816 61.3961 92.4077 61.4 92.3299 61.3455C92.2598 61.2833 92.1859 61.2288 92.1081 61.1822C92.0148 61.1121 91.9214 61.0538 91.8281 61.0071C91.5635 60.8671 91.2873 60.7659 90.9995 60.7037C90.7817 60.6648 90.5988 60.6415 90.451 60.6337H90.2993H90.1476C90.0931 60.6337 90.0348 60.6376 89.9725 60.6453H89.9025L89.8325 60.657C89.5835 60.6881 89.3774 60.7387 89.214 60.8087C89.0039 60.8865 88.8367 60.9954 88.7122 61.1355C88.5721 61.2677 88.4749 61.4389 88.4204 61.649L88.3971 61.7307L88.3854 61.8123C88.3776 61.8901 88.3738 61.9485 88.3738 61.9874L88.3621 62.0807V62.0574V62.0691L88.3738 62.1041V62.1624V62.2675L88.3971 62.3375C88.3971 62.353 88.401 62.3725 88.4088 62.3958L88.4321 62.4775L88.4554 62.5475L88.4905 62.6176L88.5255 62.6876L88.5721 62.7576L88.6305 62.8276L88.6888 62.8976C88.8367 63.061 89.0428 63.2205 89.3074 63.3761C89.5096 63.4928 89.7819 63.629 90.1242 63.7846L90.2409 63.8312L90.3693 63.8896L90.591 63.9946L91.0345 64.1813C91.4002 64.3525 91.7075 64.5159 91.9564 64.6715C92.3143 64.8971 92.6022 65.1422 92.82 65.4067C93.1001 65.7257 93.279 66.0835 93.3568 66.4803L93.3918 66.632C93.3996 66.6943 93.4035 66.7448 93.4035 66.7837L93.4152 66.9238V67.0055V67.0521V67.0871V67.1455V67.2038C93.4074 67.2505 93.4035 67.2933 93.4035 67.3322L93.3802 67.4839L93.3568 67.6356C93.279 68.0246 93.1234 68.3708 92.89 68.6743C92.6644 68.9621 92.3843 69.1916 92.0498 69.3628C91.7853 69.5028 91.4818 69.6078 91.1395 69.6779C90.8128 69.7401 90.5288 69.7751 90.2876 69.7829H90.1826H90.1359H90.0892H90.0659L89.8908 69.7712C89.8442 69.7712 89.7819 69.7673 89.7041 69.7596H89.5991L89.5057 69.7479C89.2879 69.7168 89.0506 69.6701 88.7939 69.6078C88.4204 69.4989 88.0626 69.3472 87.7202 69.1527C87.5569 69.0671 87.409 68.9738 87.2768 68.8726C87.1756 68.7948 87.0823 68.7209 86.9967 68.6509C86.9111 68.5731 86.9111 68.4914 86.9967 68.4058L87.5569 67.869C87.6269 67.799 87.7008 67.7951 87.7786 67.8574C87.8331 67.9118 87.8953 67.9624 87.9653 68.0091C88.0587 68.0791 88.1598 68.1452 88.2687 68.2075C88.5332 68.3553 88.8055 68.4681 89.0856 68.5459C89.2879 68.6003 89.4668 68.6392 89.6224 68.6626L89.6925 68.6743H89.7625C89.8169 68.682 89.8714 68.6859 89.9259 68.6859L90.1009 68.6976H90.1242H90.1709L90.2526 68.6859C90.4316 68.6859 90.6533 68.6665 90.9178 68.6276C91.1668 68.5731 91.3768 68.4992 91.548 68.4058C91.9681 68.1958 92.2209 67.8651 92.3065 67.4139L92.3182 67.3322L92.3299 67.2622C92.3376 67.2389 92.3415 67.2038 92.3415 67.1572V67.0988V67.0405L92.3532 67.0055V66.9938V66.9821C92.3532 67.0055 92.3532 67.0132 92.3532 67.0055L92.3415 66.9588V66.8771C92.3415 66.8537 92.3376 66.8226 92.3299 66.7837L92.3182 66.702C92.2715 66.4764 92.1704 66.2703 92.0148 66.0835C91.7503 65.7723 91.2757 65.4572 90.591 65.1383L90.1359 64.9399L89.9142 64.8349L89.8208 64.7882L89.7041 64.7415C89.3229 64.5703 89.0156 64.4147 88.7822 64.2747C88.4243 64.0646 88.1326 63.8351 87.907 63.5862C87.8758 63.555 87.8447 63.5162 87.8136 63.4695L87.7202 63.3528C87.6502 63.2439 87.5997 63.1544 87.5685 63.0844L87.4985 62.9443C87.4752 62.8899 87.4596 62.8432 87.4518 62.8043C87.4129 62.6798 87.3857 62.5748 87.3701 62.4892L87.3468 62.3258V62.2208L87.3351 62.1624V62.1274V62.1158V62.0807V62.0691L87.3468 61.929C87.3468 61.859 87.3546 61.7696 87.3701 61.6606L87.3935 61.5206L87.4285 61.3806C87.5296 60.9993 87.7125 60.6765 87.977 60.412C88.2104 60.1786 88.4982 59.9918 88.8406 59.8518C89.0895 59.7584 89.3774 59.6884 89.7041 59.6417H89.8208L89.9259 59.6301C90.0037 59.6223 90.0659 59.6184 90.1126 59.6184H90.2993H90.4977C90.7 59.6262 90.9373 59.6573 91.2095 59.7118C91.5908 59.7973 91.9564 59.9335 92.3065 60.1202C92.4388 60.1902 92.5633 60.2641 92.68 60.3419C92.7655 60.4042 92.8511 60.4703 92.9367 60.5403C92.96 60.5559 92.9912 60.5831 93.0301 60.622C93.1156 60.6998 93.1156 60.7776 93.0301 60.8554L92.5516 61.3339Z" fill="white"/>
</svg>
