<svg width="132" height="107" viewBox="0 0 132 107" fill="none" xmlns="http://www.w3.org/2000/svg">
<path d="M75.2198 86.7347H13.1696C5.89603 86.7347 0 81.3156 0 74.6306V12.103C0 5.41904 5.89603 -2.50409e-07 13.1696 -2.50409e-07H105.803C113.077 -2.50409e-07 118.973 5.41904 118.973 12.103V74.6306C118.973 81.3156 113.077 86.7347 105.803 86.7347H96.5911L68.1262 107L75.2198 86.7347Z" fill="#C7D886"/>
<path d="M28.7823 37.1642C29.4203 37.7866 30.1827 38.0978 31.0696 38.0978C31.9721 38.0978 32.7462 37.7788 33.392 37.1408C34.0299 36.5029 34.3489 35.7327 34.3489 34.8302C34.3489 33.9277 34.0299 33.1536 33.392 32.5079C32.7462 31.8699 31.9721 31.551 31.0696 31.551C30.1827 31.551 29.4203 31.8622 28.7823 32.4846C28.1444 33.1069 27.8176 33.8655 27.8021 34.7602V34.9002C27.8176 35.7871 28.1444 36.5418 28.7823 37.1642ZM27.8021 30.7341C28.8212 29.9172 29.9843 29.536 31.2914 29.5904C32.614 29.6449 33.7576 30.1428 34.7223 31.0842C35.687 32.0255 36.2122 33.1575 36.2978 34.4801C36.3522 35.227 36.2511 35.9466 35.9943 36.639C35.7454 37.3081 35.3758 37.9033 34.8857 38.4245C33.851 39.5215 32.579 40.07 31.0696 40.07C29.8482 40.07 28.759 39.6849 27.8021 38.9147V46.1734C27.8021 46.2745 27.7515 46.3251 27.6504 46.3251H25.9582C25.8571 46.3251 25.8065 46.2745 25.8065 46.1734V29.7655C25.8065 29.6643 25.8571 29.6137 25.9582 29.6137H27.6504C27.7515 29.6137 27.8021 29.6643 27.8021 29.7655V30.7341ZM40.4639 37.6893C40.7051 37.9616 41.1563 38.0978 41.8176 38.0978C42.0433 38.0978 42.265 38.0706 42.4828 38.0161C42.7707 37.9383 43.0313 37.8177 43.2647 37.6543C43.8871 37.2031 44.2605 36.4484 44.385 35.3904C44.0349 35.367 43.7004 35.3554 43.3814 35.3554C41.9732 35.3554 41.0241 35.5732 40.5339 36.0089C40.3239 36.1956 40.2189 36.4523 40.2189 36.7791C40.2189 37.1992 40.3005 37.5026 40.4639 37.6893ZM46.3922 34.5851C46.3922 34.7096 46.3884 34.838 46.3806 34.9702C46.3728 35.2425 46.3689 35.4448 46.3689 35.5771C46.3689 36.2539 46.4156 37.0669 46.5089 38.0161C46.5401 38.3662 46.579 38.7241 46.6256 39.0897C46.6568 39.362 46.6918 39.6304 46.7307 39.895C46.7462 40.0117 46.6957 40.07 46.579 40.07H44.8985C44.8129 40.07 44.7623 40.0272 44.7468 39.9416C44.7079 39.6538 44.6729 39.362 44.6418 39.0664C43.8482 39.7277 42.9068 40.0583 41.8176 40.0583C40.6973 40.0583 39.8221 39.7705 39.1919 39.1948C38.5617 38.6113 38.2466 37.806 38.2466 36.7791C38.2466 35.861 38.5773 35.1103 39.2386 34.5268C40.2422 33.6321 41.9616 33.2625 44.3967 33.4181C44.3422 32.7257 44.1827 32.2434 43.9182 31.9711C43.6459 31.6832 43.1675 31.5393 42.4828 31.5393C41.9693 31.5393 41.4987 31.6288 41.0708 31.8077C40.9152 31.8699 40.7673 31.9438 40.6273 32.0294C40.5262 32.0917 40.4367 32.1539 40.3589 32.2161C40.2889 32.2784 40.2227 32.2784 40.1605 32.2161L38.9235 31.0842C38.8457 31.0064 38.8457 30.9325 38.9235 30.8624C38.978 30.808 39.0363 30.7574 39.0985 30.7107C39.1763 30.6407 39.2619 30.5746 39.3553 30.5123C39.5809 30.3567 39.826 30.2167 40.0905 30.0922C40.814 29.7499 41.6115 29.5787 42.4828 29.5787C43.7198 29.5787 44.669 29.9172 45.3303 30.594C45.7893 31.0686 46.0966 31.6988 46.2522 32.4846C46.3611 33.0058 46.4078 33.706 46.3922 34.5851ZM52.2155 37.0825C52.2155 37.5726 52.3634 37.8916 52.659 38.0394C52.908 38.1639 53.1997 38.1211 53.5342 37.9111C53.612 37.8644 53.6782 37.8799 53.7326 37.9577L54.7246 39.2881C54.7946 39.3737 54.7829 39.4437 54.6896 39.4982C54.1372 39.8794 53.5576 40.07 52.9507 40.07C52.5384 40.07 52.1455 39.9766 51.7721 39.7899C51.2975 39.5565 50.9241 39.1986 50.6518 38.7163C50.3873 38.2339 50.255 37.6893 50.255 37.0825V31.5159H48.6562C48.5551 31.5159 48.5045 31.4654 48.5045 31.3642V29.7071C48.5045 29.606 48.5551 29.5554 48.6562 29.5554H50.255L50.2433 27.3498C50.2433 27.2486 50.2939 27.1981 50.395 27.1981H52.0638C52.165 27.1981 52.2155 27.2486 52.2155 27.3498V29.5554H53.8143C53.9155 29.5554 53.966 29.606 53.966 29.7071V31.3642C53.966 31.4654 53.9155 31.5159 53.8143 31.5159H52.2155V37.0825ZM57.537 29.5904H59.1942C59.2953 29.5904 59.3459 29.641 59.3459 29.7421V39.9183C59.3459 40.0194 59.2953 40.07 59.1942 40.07H57.537C57.4359 40.07 57.3853 40.0194 57.3853 39.9183V29.7421C57.3853 29.641 57.4359 29.5904 57.537 29.5904ZM59.1591 27.3381C58.9413 27.556 58.6768 27.6649 58.3656 27.6649C58.0544 27.6649 57.7899 27.556 57.572 27.3381C57.3464 27.1125 57.2336 26.8441 57.2336 26.5329C57.2336 26.2217 57.3464 25.9572 57.572 25.7393C57.7899 25.5215 58.0544 25.4126 58.3656 25.4126C58.6768 25.4126 58.9413 25.5215 59.1591 25.7393C59.377 25.9572 59.4859 26.2217 59.4859 26.5329C59.4859 26.8441 59.377 27.1125 59.1591 27.3381ZM63.267 34.2817L69.312 33.7566C69.1408 33.0875 68.7868 32.5546 68.25 32.1578C67.7132 31.7532 67.0713 31.551 66.3245 31.551C65.5387 31.551 64.8618 31.8077 64.2939 32.3212C63.726 32.8269 63.3837 33.4804 63.267 34.2817ZM62.7418 31.0958C63.7299 30.0844 64.9358 29.5826 66.3595 29.5904C67.7521 29.5982 68.9385 30.1117 69.9188 31.1308C70.8991 32.1422 71.3892 33.3481 71.3892 34.7485V35.4137C71.3892 35.5071 71.3425 35.5576 71.2492 35.5654L63.547 36.2306C63.8116 36.7908 64.2083 37.242 64.7374 37.5843C65.2742 37.9266 65.8616 38.0978 66.4995 38.0978C67.0597 38.0978 67.5848 37.9655 68.075 37.701C68.5729 37.4287 68.9697 37.0592 69.2653 36.5924C69.3198 36.5068 69.3898 36.4873 69.4754 36.534L70.9108 37.3742C71.0041 37.4209 71.0236 37.4909 70.9691 37.5843C70.4945 38.3545 69.8566 38.9614 69.0552 39.4048C68.2617 39.8483 67.4098 40.07 66.4995 40.07C65.0602 40.07 63.8271 39.5565 62.8002 38.5296C61.7732 37.5104 61.2597 36.2773 61.2597 34.8302C61.2597 33.352 61.7538 32.1072 62.7418 31.0958ZM82.8958 35.4837C82.8958 36.005 82.8958 36.394 82.8958 36.6507C82.9035 37.6154 82.9074 38.4207 82.9074 39.0664L82.9191 39.895C82.9191 39.9961 82.8685 40.0467 82.7674 40.0467H81.0869C80.9858 40.0467 80.9352 39.9961 80.9352 39.895L80.9469 39.0664C80.9469 38.4207 80.9508 37.6154 80.9586 36.6507C80.9586 36.394 80.9624 36.005 80.9702 35.4837V35.1686V34.8419C80.9702 34.6007 80.9702 34.379 80.9702 34.1767V33.8383L80.9586 33.5932C80.943 33.422 80.9119 33.2587 80.8652 33.1031C80.7563 32.7763 80.5812 32.4846 80.3401 32.2278C80.1067 31.9789 79.8227 31.7921 79.4881 31.6677C79.3403 31.6054 79.1808 31.5626 79.0097 31.5393L78.9397 31.5276C78.9163 31.5198 78.9008 31.5159 78.893 31.5159H78.858H78.8346C78.8191 31.5159 78.7957 31.5159 78.7646 31.5159L78.6829 31.5043H78.6596H78.6362H78.5662L78.5079 31.5159C77.8855 31.5393 77.3603 31.7844 76.9324 32.2512C76.7613 32.4223 76.6251 32.6168 76.524 32.8346C76.4384 33.0058 76.3762 33.1809 76.3373 33.3598C76.3139 33.4454 76.2984 33.5115 76.2906 33.5582V33.6049V33.6399L76.2789 33.6982C76.2789 33.7682 76.275 33.8227 76.2672 33.8616V34.0016V39.9183C76.2672 40.0194 76.2167 40.07 76.1155 40.07H74.4117C74.3106 40.07 74.26 40.0194 74.26 39.9183V29.6721C74.26 29.571 74.3106 29.5204 74.4117 29.5204H76.1155C76.2167 29.5204 76.2672 29.571 76.2672 29.6721V30.4657C76.4462 30.3334 76.6212 30.2245 76.7924 30.1389C77.2903 29.8822 77.8232 29.7304 78.3912 29.6838L78.4962 29.6721H78.6012H78.6596H78.7063H78.7296H78.8113C78.8346 29.6721 78.8696 29.6721 78.9163 29.6721L78.9747 29.6838H79.033C79.0719 29.6838 79.1108 29.6877 79.1497 29.6954L79.2664 29.7071C79.5698 29.7538 79.8616 29.8277 80.1417 29.9288C80.7407 30.1467 81.2542 30.4812 81.6821 30.9325C82.1255 31.3837 82.4484 31.9049 82.6507 32.4962C82.7518 32.7841 82.818 33.0797 82.8491 33.3831C82.8724 33.531 82.8841 33.6827 82.8841 33.8383V34.1767C82.8841 34.379 82.8841 34.6007 82.8841 34.8419V35.1686L82.8958 35.4837ZM88.6957 37.0825C88.6957 37.5726 88.8435 37.8916 89.1392 38.0394C89.3881 38.1639 89.6799 38.1211 90.0144 37.9111C90.0922 37.8644 90.1583 37.8799 90.2128 37.9577L91.2047 39.2881C91.2748 39.3737 91.2631 39.4437 91.1697 39.4982C90.6174 39.8794 90.0378 40.07 89.4309 40.07C89.0186 40.07 88.6257 39.9766 88.2523 39.7899C87.7777 39.5565 87.4042 39.1986 87.1319 38.7163C86.8674 38.2339 86.7352 37.6893 86.7352 37.0825V31.5159H85.1364C85.0352 31.5159 84.9847 31.4654 84.9847 31.3642V29.7071C84.9847 29.606 85.0352 29.5554 85.1364 29.5554H86.7352L86.7235 27.3498C86.7235 27.2486 86.7741 27.1981 86.8752 27.1981H88.544C88.6451 27.1981 88.6957 27.2486 88.6957 27.3498V29.5554H90.2945C90.3956 29.5554 90.4462 29.606 90.4462 29.7071V31.3642C90.4462 31.4654 90.3956 31.5159 90.2945 31.5159H88.6957V37.0825ZM30.3811 50.621C30.3111 50.6832 30.2372 50.6871 30.1594 50.6326C30.0894 50.5704 30.0155 50.5159 29.9377 50.4693C29.8443 50.3992 29.7509 50.3409 29.6576 50.2942C29.3931 50.1542 29.1169 50.053 28.829 49.9908C28.6112 49.9519 28.4283 49.9286 28.2805 49.9208H28.1288H27.9771C27.9227 49.9208 27.8643 49.9247 27.8021 49.9325H27.732L27.662 49.9441C27.4131 49.9752 27.2069 50.0258 27.0435 50.0958C26.8335 50.1736 26.6662 50.2825 26.5417 50.4226C26.4017 50.5548 26.3044 50.726 26.25 50.9361L26.2266 51.0178L26.215 51.0994C26.2072 51.1772 26.2033 51.2356 26.2033 51.2745L26.1916 51.3679V51.3445V51.3562L26.2033 51.3912V51.4495V51.5546L26.2266 51.6246C26.2266 51.6401 26.2305 51.6596 26.2383 51.6829L26.2616 51.7646L26.285 51.8346L26.32 51.9047L26.355 51.9747L26.4017 52.0447L26.46 52.1147L26.5184 52.1847C26.6662 52.3481 26.8724 52.5076 27.1369 52.6632C27.3392 52.7799 27.6115 52.9161 27.9538 53.0717L28.0705 53.1183L28.1988 53.1767L28.4206 53.2817L28.864 53.4684C29.2297 53.6396 29.537 53.803 29.7859 53.9586C30.1438 54.1842 30.4317 54.4293 30.6495 54.6938C30.9296 55.0128 31.1085 55.3706 31.1863 55.7674L31.2213 55.9191C31.2291 55.9814 31.233 56.0319 31.233 56.0708L31.2447 56.2109V56.2926V56.3392V56.3742V56.4326V56.4909C31.2369 56.5376 31.233 56.5804 31.233 56.6193L31.2097 56.771L31.1863 56.9227C31.1085 57.3117 30.9529 57.6579 30.7195 57.9614C30.4939 58.2492 30.2138 58.4787 29.8793 58.6499C29.6148 58.7899 29.3114 58.895 28.9691 58.965C28.6423 59.0272 28.3583 59.0622 28.1172 59.07H28.0121H27.9654H27.9188H27.8954L27.7204 59.0583C27.6737 59.0583 27.6115 59.0544 27.5337 59.0467H27.4286L27.3353 59.035C27.1174 59.0039 26.8801 58.9572 26.6234 58.895C26.25 58.786 25.8921 58.6343 25.5498 58.4398C25.3864 58.3542 25.2386 58.2609 25.1063 58.1597C25.0052 58.0819 24.9118 58.008 24.8262 57.938C24.7407 57.8602 24.7407 57.7785 24.8262 57.6929L25.3864 57.1561C25.4564 57.0861 25.5303 57.0822 25.6081 57.1445C25.6626 57.1989 25.7248 57.2495 25.7948 57.2962C25.8882 57.3662 25.9893 57.4323 26.0983 57.4946C26.3628 57.6424 26.6351 57.7552 26.9151 57.833C27.1174 57.8874 27.2964 57.9263 27.452 57.9497L27.522 57.9614H27.592C27.6465 57.9691 27.7009 57.973 27.7554 57.973L27.9304 57.9847H27.9538H28.0005L28.0821 57.973C28.2611 57.973 28.4828 57.9536 28.7473 57.9147C28.9963 57.8602 29.2063 57.7863 29.3775 57.6929C29.7976 57.4829 30.0505 57.1522 30.136 56.701L30.1477 56.6193L30.1594 56.5493C30.1672 56.526 30.1711 56.4909 30.1711 56.4443V56.3859V56.3276L30.1827 56.2926V56.2809V56.2692C30.1827 56.2926 30.1827 56.3003 30.1827 56.2926L30.1711 56.2459V56.1642C30.1711 56.1408 30.1672 56.1097 30.1594 56.0708L30.1477 55.9891C30.101 55.7635 29.9999 55.5574 29.8443 55.3706C29.5798 55.0594 29.1052 54.7443 28.4206 54.4254L27.9654 54.227L27.7437 54.122L27.6504 54.0753L27.5337 54.0286C27.1524 53.8574 26.8451 53.7018 26.6117 53.5618C26.2539 53.3517 25.9621 53.1222 25.7365 52.8733C25.7054 52.8422 25.6742 52.8033 25.6431 52.7566L25.5498 52.6399C25.4797 52.531 25.4292 52.4415 25.3981 52.3715L25.328 52.2314C25.3047 52.177 25.2891 52.1303 25.2814 52.0914C25.2425 51.9669 25.2152 51.8619 25.1997 51.7763L25.1763 51.6129V51.5079L25.1647 51.4495V51.4145V51.4029V51.3679V51.3562L25.1763 51.2161C25.1763 51.1461 25.1841 51.0567 25.1997 50.9477L25.223 50.8077L25.258 50.6677C25.3592 50.2864 25.542 49.9636 25.8065 49.6991C26.0399 49.4657 26.3278 49.2789 26.6701 49.1389C26.919 49.0455 27.2069 48.9755 27.5337 48.9288H27.6504L27.7554 48.9172C27.8332 48.9094 27.8954 48.9055 27.9421 48.9055H28.1288H28.3272C28.5295 48.9133 28.7668 48.9444 29.0391 48.9989C29.4203 49.0844 29.7859 49.2206 30.136 49.4073C30.2683 49.4773 30.3928 49.5512 30.5095 49.629C30.5951 49.6913 30.6806 49.7574 30.7662 49.8274C30.7896 49.843 30.8207 49.8702 30.8596 49.9091C30.9452 49.9869 30.9452 50.0647 30.8596 50.1425L30.3811 50.621ZM37.6748 57.7046L38.1416 58.3348C38.2116 58.4282 38.2 58.5021 38.1066 58.5565C37.6009 58.8988 37.0797 59.07 36.5428 59.07C36.1772 59.07 35.8349 58.9883 35.5159 58.8249C35.0958 58.6149 34.7651 58.2959 34.5239 57.868C34.2905 57.4323 34.1738 56.9383 34.1738 56.3859V50.0375H32.7618C32.6529 50.0375 32.5984 49.983 32.5984 49.8741V49.0922C32.5984 48.9833 32.6529 48.9288 32.7618 48.9288H34.1738L34.1622 46.0464C34.1622 45.9374 34.2166 45.883 34.3255 45.883H35.1074C35.2164 45.883 35.2708 45.9374 35.2708 46.0464V48.9288H36.8696C36.9785 48.9288 37.033 48.9833 37.033 49.0922V49.8741C37.033 49.983 36.9785 50.0375 36.8696 50.0375H35.2708V56.3859C35.2708 57.1095 35.5159 57.5957 36.006 57.8447C36.4495 58.0703 36.9318 58.0119 37.4531 57.6696C37.5464 57.6151 37.6204 57.6268 37.6748 57.7046ZM44.2683 50.0375C43.1714 50.0375 42.2339 50.4265 41.4559 51.2045C40.6857 51.9747 40.3005 52.9083 40.3005 54.0053C40.3005 55.0944 40.6857 56.028 41.4559 56.806C42.2339 57.584 43.1714 57.973 44.2683 57.973C45.3575 57.973 46.2911 57.584 47.0691 56.806C47.8471 56.028 48.2361 55.0944 48.2361 54.0053C48.2361 52.9083 47.8471 51.9747 47.0691 51.2045C46.2911 50.4265 45.3575 50.0375 44.2683 50.0375ZM44.2683 59.07C42.8679 59.07 41.6737 58.576 40.6857 57.5879C39.6976 56.5921 39.2036 55.3979 39.2036 54.0053C39.2036 52.6049 39.6976 51.4106 40.6857 50.4226C41.6737 49.4345 42.8679 48.9405 44.2683 48.9405C45.6609 48.9405 46.8513 49.4345 47.8393 50.4226C48.8352 51.4106 49.3331 52.6049 49.3331 54.0053C49.3331 55.3979 48.8352 56.5921 47.8393 57.5879C46.8513 58.576 45.6609 59.07 44.2683 59.07ZM56.0783 48.9755C56.2961 48.9755 56.5101 48.9911 56.7201 49.0222C56.829 49.0455 56.8718 49.1117 56.8485 49.2206L56.6968 49.9791C56.6734 50.0803 56.6112 50.1231 56.5101 50.1075C56.37 50.0842 56.2261 50.0725 56.0783 50.0725C55.2769 50.0725 54.5923 50.3565 54.0244 50.9244C53.4564 51.4923 53.1725 52.177 53.1725 52.9783V58.9066C53.1725 59.0155 53.1219 59.07 53.0208 59.07H52.2389C52.13 59.07 52.0755 59.0155 52.0755 58.9066V49.0689C52.0755 48.96 52.13 48.9055 52.2389 48.9055H53.0208C53.1219 48.9055 53.1725 48.96 53.1725 49.0689V50.2359C53.966 49.3956 54.9346 48.9755 56.0783 48.9755ZM58.3656 59.07C58.2644 59.07 58.2139 59.0155 58.2139 58.9066V49.1156C58.2139 49.0066 58.2644 48.9522 58.3656 48.9522H59.1475C59.2564 48.9522 59.3109 49.0066 59.3109 49.1156V58.9066C59.3109 59.0155 59.2564 59.07 59.1475 59.07H58.3656ZM59.5559 45.7079C59.5559 45.9258 59.4781 46.1125 59.3225 46.2681C59.1669 46.4237 58.9802 46.5015 58.7624 46.5015C58.5367 46.5015 58.35 46.4237 58.2022 46.2681C58.0466 46.1125 57.9688 45.9258 57.9688 45.7079C57.9688 45.4901 58.0466 45.3034 58.2022 45.1478C58.35 44.9922 58.5367 44.9144 58.7624 44.9144C58.9802 44.9144 59.1669 44.9922 59.3225 45.1478C59.4781 45.3034 59.5559 45.4901 59.5559 45.7079ZM66.7796 50.0258C65.706 50.0258 64.8113 50.3992 64.0955 51.1461C63.372 51.9008 63.0063 52.8383 62.9985 53.9586L70.5256 53.3051C70.4167 52.3403 70.0161 51.5546 69.3236 50.9477C68.6312 50.3331 67.7832 50.0258 66.7796 50.0258ZM66.9663 59.07C65.5659 59.07 64.3717 58.576 63.3837 57.5879C62.3878 56.5921 61.8899 55.394 61.8899 53.9936C61.8899 52.5699 62.3684 51.3679 63.3253 50.3876C64.2745 49.4073 65.4376 48.9211 66.8146 48.9288C68.1528 48.9366 69.2964 49.4306 70.2456 50.4109C71.1869 51.3834 71.6576 52.5504 71.6576 53.9119V54.1686C71.6576 54.262 71.6109 54.3126 71.5176 54.3203L63.1386 55.0555C63.372 55.9036 63.8388 56.5999 64.539 57.1445C65.2547 57.6968 66.0638 57.973 66.9663 57.973C67.651 57.973 68.2928 57.8058 68.8919 57.4712C69.4831 57.1445 69.9616 56.6932 70.3273 56.1175C70.3817 56.0242 70.4556 56.0047 70.549 56.0592L71.2258 56.4443C71.3192 56.5065 71.3387 56.5843 71.2842 56.6777C70.8174 57.4168 70.1989 58.0003 69.4287 58.4282C68.6662 58.8561 67.8455 59.07 66.9663 59.07ZM79.138 50.621C79.068 50.6832 78.9941 50.6871 78.9163 50.6326C78.8463 50.5704 78.7724 50.5159 78.6946 50.4693C78.6012 50.3992 78.5079 50.3409 78.4145 50.2942C78.15 50.1542 77.8738 50.053 77.5859 49.9908C77.3681 49.9519 77.1853 49.9286 77.0375 49.9208H76.8858H76.734C76.6796 49.9208 76.6212 49.9247 76.559 49.9325H76.489L76.419 49.9441C76.17 49.9752 75.9638 50.0258 75.8004 50.0958C75.5904 50.1736 75.4231 50.2825 75.2986 50.4226C75.1586 50.5548 75.0614 50.726 75.0069 50.9361L74.9836 51.0178L74.9719 51.0994C74.9641 51.1772 74.9602 51.2356 74.9602 51.2745L74.9485 51.3679V51.3445V51.3562L74.9602 51.3912V51.4495V51.5546L74.9836 51.6246C74.9836 51.6401 74.9874 51.6596 74.9952 51.6829L75.0186 51.7646L75.0419 51.8346L75.0769 51.9047L75.1119 51.9747L75.1586 52.0447L75.217 52.1147L75.2753 52.1847C75.4231 52.3481 75.6293 52.5076 75.8938 52.6632C76.0961 52.7799 76.3684 52.9161 76.7107 53.0717L76.8274 53.1183L76.9558 53.1767L77.1775 53.2817L77.621 53.4684C77.9866 53.6396 78.2939 53.803 78.5429 53.9586C78.9008 54.1842 79.1886 54.4293 79.4065 54.6938C79.6865 55.0128 79.8655 55.3706 79.9433 55.7674L79.9783 55.9191C79.9861 55.9814 79.99 56.0319 79.99 56.0708L80.0016 56.2109V56.2926V56.3392V56.3742V56.4326V56.4909C79.9938 56.5376 79.99 56.5804 79.99 56.6193L79.9666 56.771L79.9433 56.9227C79.8655 57.3117 79.7099 57.6579 79.4765 57.9614C79.2509 58.2492 78.9708 58.4787 78.6362 58.6499C78.3717 58.7899 78.0683 58.895 77.726 58.965C77.3992 59.0272 77.1153 59.0622 76.8741 59.07H76.7691H76.7224H76.6757H76.6524L76.4773 59.0583C76.4306 59.0583 76.3684 59.0544 76.2906 59.0467H76.1856L76.0922 59.035C75.8744 59.0039 75.6371 58.9572 75.3803 58.895C75.0069 58.786 74.649 58.6343 74.3067 58.4398C74.1433 58.3542 73.9955 58.2609 73.8632 58.1597C73.7621 58.0819 73.6687 58.008 73.5832 57.938C73.4976 57.8602 73.4976 57.7785 73.5832 57.6929L74.1433 57.1561C74.2133 57.0861 74.2872 57.0822 74.365 57.1445C74.4195 57.1989 74.4817 57.2495 74.5518 57.2962C74.6451 57.3662 74.7463 57.4323 74.8552 57.4946C75.1197 57.6424 75.392 57.7552 75.6721 57.833C75.8744 57.8874 76.0533 57.9263 76.2089 57.9497L76.2789 57.9614H76.3489C76.4034 57.9691 76.4579 57.973 76.5123 57.973L76.6874 57.9847H76.7107H76.7574L76.8391 57.973C77.018 57.973 77.2397 57.9536 77.5043 57.9147C77.7532 57.8602 77.9633 57.7863 78.1344 57.6929C78.5546 57.4829 78.8074 57.1522 78.893 56.701L78.9046 56.6193L78.9163 56.5493C78.9241 56.526 78.928 56.4909 78.928 56.4443V56.3859V56.3276L78.9397 56.2926V56.2809V56.2692C78.9397 56.2926 78.9397 56.3003 78.9397 56.2926L78.928 56.2459V56.1642C78.928 56.1408 78.9241 56.1097 78.9163 56.0708L78.9046 55.9891C78.858 55.7635 78.7568 55.5574 78.6012 55.3706C78.3367 55.0594 77.8621 54.7443 77.1775 54.4254L76.7224 54.227L76.5006 54.122L76.4073 54.0753L76.2906 54.0286C75.9094 53.8574 75.6021 53.7018 75.3687 53.5618C75.0108 53.3517 74.719 53.1222 74.4934 52.8733C74.4623 52.8422 74.4312 52.8033 74.4001 52.7566L74.3067 52.6399C74.2367 52.531 74.1861 52.4415 74.155 52.3715L74.085 52.2314C74.0616 52.177 74.0461 52.1303 74.0383 52.0914C73.9994 51.9669 73.9722 51.8619 73.9566 51.7763L73.9333 51.6129V51.5079L73.9216 51.4495V51.4145V51.4029V51.3679V51.3562L73.9333 51.2161C73.9333 51.1461 73.941 51.0567 73.9566 50.9477L73.9799 50.8077L74.015 50.6677C74.1161 50.2864 74.2989 49.9636 74.5634 49.6991C74.7968 49.4657 75.0847 49.2789 75.427 49.1389C75.676 49.0455 75.9638 48.9755 76.2906 48.9288H76.4073L76.5123 48.9172C76.5901 48.9094 76.6524 48.9055 76.699 48.9055H76.8858H77.0841C77.2864 48.9133 77.5237 48.9444 77.796 48.9989C78.1772 49.0844 78.5429 49.2206 78.893 49.4073C79.0252 49.4773 79.1497 49.5512 79.2664 49.629C79.352 49.6913 79.4376 49.7574 79.5232 49.8274C79.5465 49.843 79.5776 49.8702 79.6165 49.9091C79.7021 49.9869 79.7021 50.0647 79.6165 50.1425L79.138 50.621Z" fill="white"/>
</svg>
