<svg width="223" height="29" viewBox="0 0 223 29" fill="none" xmlns="http://www.w3.org/2000/svg">
<path d="M-36.7778 26.6448L107.014 26.4168C107.014 26.4168 120.155 4.0388 124.905 1.7048C124.905 1.7048 127.771 -0.998202 131.411 4.1828C131.411 4.1828 141.828 20.5378 143.26 22.2858C143.26 22.2858 147.045 27.9938 152.631 27.9938C152.631 27.9938 155.788 27.5358 158.286 26.7908C158.286 26.7908 177.028 21.3838 180.049 21.3838C180.049 21.3838 182.815 21.1118 189.42 23.1008C189.42 23.1008 196.374 25.2598 206.15 26.1168C206.15 26.1168 216.528 26.5658 221.717 20.6328" stroke="white" stroke-width="2"/>
</svg>
