<svg width="549" height="29" viewBox="0 0 549 29" fill="none" xmlns="http://www.w3.org/2000/svg">
<path d="M287 25.7506L431.629 25.5395C431.629 25.5395 444.847 4.81433 449.624 2.65272C449.624 2.65272 452.507 0.149367 456.168 4.9477C456.168 4.9477 466.646 20.0947 468.086 21.7136C468.086 21.7136 471.893 27 477.512 27C477.512 27 480.687 26.5758 483.2 25.8859C483.2 25.8859 502.051 20.8782 505.089 20.8782C505.089 20.8782 507.872 20.6263 514.515 22.4684C514.515 22.4684 521.509 24.4679 531.342 25.2616C531.342 25.2616 541.781 25.6775 547 20.1827" stroke="white" stroke-width="3"/>
<line y1="25.6" x2="300" y2="25.6" stroke="white" stroke-width="2.8"/>
</svg>
