<svg width="226" height="29" viewBox="0 0 226 29" fill="none" xmlns="http://www.w3.org/2000/svg">
<path d="M0.00146484 26.6448L143.793 26.4168C143.793 26.4168 156.934 4.0388 161.684 1.7048C161.684 1.7048 164.55 -0.998204 168.19 4.1828C168.19 4.1828 178.607 20.5378 180.039 22.2858C180.039 22.2858 183.824 27.9938 189.41 27.9938C189.41 27.9938 192.567 27.5358 195.065 26.7908C195.065 26.7908 213.807 21.3838 216.828 21.3838C216.828 21.3838 219.594 21.1118 226.199 23.1008C226.199 23.1008 233.153 25.2598 242.929 26.1168C242.929 26.1168 253.307 26.5658 258.496 20.6328" stroke="white" stroke-width="2"/>
</svg>
