<svg width="56" height="61" viewBox="0 0 56 61" fill="none" xmlns="http://www.w3.org/2000/svg">
<path d="M27.5683 46.1394C28.0763 46.6474 28.3303 47.2524 28.3303 47.9554C28.3303 48.6594 28.0763 49.2644 27.5683 49.7724C27.0603 50.2804 26.4553 50.5344 25.7523 50.5344C25.0483 50.5344 24.4433 50.2804 23.9353 49.7724C23.4273 49.2644 23.1733 48.6594 23.1733 47.9554C23.1733 47.2524 23.4273 46.6474 23.9353 46.1394C24.4433 45.6314 25.0483 45.3774 25.7523 45.3774C26.4553 45.3774 27.0603 45.6314 27.5683 46.1394ZM35.2143 23.6394L35.1853 23.8734V24.2254C35.1663 24.3624 35.1563 24.4794 35.1563 24.5764C35.1173 24.9484 35.0293 25.3684 34.8923 25.8364C34.6583 26.6964 34.3063 27.4974 33.8383 28.2394C33.3883 28.9034 32.8413 29.5284 32.1973 30.1144C31.6703 30.5824 31.0543 31.0414 30.3513 31.4914C29.7073 31.9204 28.8963 32.3794 27.9203 32.8684L27.9493 41.6274C27.9493 41.8814 27.8323 42.0084 27.5973 42.0084H23.9353C23.6813 42.0084 23.5543 41.8814 23.5543 41.6274L23.5843 31.5494V30.4364C23.5843 30.2804 23.6523 30.1634 23.7893 30.0844L24.7853 29.6164C26.2893 28.8734 27.3733 28.2974 28.0373 27.8874C29.0723 27.2434 29.8243 26.5794 30.2933 25.8954C30.5273 25.5244 30.7033 25.1334 30.8203 24.7234C30.8983 24.4504 30.9373 24.2354 30.9373 24.0784C30.9563 24.0204 30.9663 23.9614 30.9663 23.9034L30.9963 23.7854V23.5224V23.4054V23.3464C30.9963 22.7994 30.9373 22.3114 30.8203 21.8814C30.7223 21.4324 30.5663 21.0324 30.3513 20.6804C29.9413 19.9774 29.2973 19.4604 28.4183 19.1274C28.0073 18.9514 27.5293 18.8344 26.9823 18.7764L26.8063 18.7464L26.6013 18.7174L26.2203 18.6884H25.7813H25.6053L25.4003 18.7174C24.3653 18.7564 23.3683 19.0104 22.4123 19.4794C21.9433 19.6944 21.4843 19.9584 21.0353 20.2704C20.8203 20.4264 20.6153 20.5924 20.4203 20.7684C20.3803 20.8074 20.3023 20.8854 20.1853 21.0024C20.0093 21.1594 19.8433 21.1684 19.6873 21.0324L17.1683 18.9514C16.9523 18.7764 16.9433 18.5904 17.1383 18.3954C17.2363 18.2784 17.3533 18.1604 17.4903 18.0434L17.7543 17.7804C18.0273 17.5264 18.3293 17.2824 18.6623 17.0474C19.2873 16.5784 19.9413 16.1684 20.6253 15.8174C22.0703 15.1144 23.5843 14.7134 25.1663 14.6164H25.4593H25.7523H26.3083L26.9233 14.6454L27.1873 14.6744L27.4803 14.7034C28.3593 14.8014 29.1503 14.9874 29.8533 15.2604C30.6933 15.5534 31.4543 15.9634 32.1383 16.4914C32.8613 17.0574 33.4573 17.7314 33.9253 18.5124C34.3743 19.2354 34.6973 20.0354 34.8923 20.9144C35.0873 21.6574 35.1953 22.4574 35.2143 23.3174V23.6394Z" stroke="white" stroke-width="0.238" stroke-miterlimit="1.9"/>
<path d="M25.752 44.1042C26.4551 44.1042 27.0605 44.3582 27.5684 44.866C28.0762 45.3738 28.3301 45.9792 28.3301 46.6824C28.3301 47.3855 28.0762 47.991 27.5684 48.4988C27.0605 49.0066 26.4551 49.2605 25.752 49.2605C25.0488 49.2605 24.4434 49.0066 23.9355 48.4988C23.4277 47.991 23.1738 47.3855 23.1738 46.6824C23.1738 45.9792 23.4277 45.3738 23.9355 44.866C24.4434 44.3582 25.0488 44.1042 25.752 44.1042ZM35.2148 22.0437V22.366L35.1855 22.6003V22.9519C35.166 23.0886 35.1562 23.2058 35.1562 23.3035C35.1172 23.6746 35.0293 24.0945 34.8926 24.5632C34.6582 25.4226 34.3066 26.2234 33.8379 26.9656C33.3887 27.6296 32.8418 28.2546 32.1973 28.8406C31.6699 29.3093 31.0547 29.7683 30.3516 30.2175C29.707 30.6472 28.8965 31.1062 27.9199 31.5945L27.9492 40.3542C27.9492 40.6082 27.832 40.7351 27.5977 40.7351H23.9355C23.6816 40.7351 23.5547 40.6082 23.5547 40.3542L23.584 30.2761V29.1628C23.584 29.0066 23.6523 28.8894 23.7891 28.8113L24.7852 28.3425C26.2891 27.6003 27.373 27.0242 28.0371 26.614C29.0723 25.9695 29.8242 25.3054 30.293 24.6218C30.5273 24.2507 30.7031 23.8601 30.8203 23.45C30.8984 23.1765 30.9375 22.9617 30.9375 22.8054C30.957 22.7468 30.9668 22.6882 30.9668 22.6296L30.9961 22.5125V22.2488V22.1316V22.073C30.9961 21.5261 30.9375 21.0378 30.8203 20.6082C30.7227 20.1589 30.5664 19.7585 30.3516 19.407C29.9414 18.7039 29.2969 18.1863 28.418 17.8542C28.0078 17.6785 27.5293 17.5613 26.9824 17.5027L26.8066 17.4734L26.6016 17.4441L26.2207 17.4148H25.7812H25.6055L25.4004 17.4441C24.3652 17.4832 23.3691 17.7371 22.4121 18.2058C21.9434 18.4207 21.4844 18.6843 21.0352 18.9968C20.8203 19.1531 20.6152 19.3191 20.4199 19.4949C20.3809 19.5339 20.3027 19.6121 20.1855 19.7292C20.0098 19.8855 19.8438 19.8953 19.6875 19.7585L17.168 17.6785C16.9531 17.5027 16.9434 17.3171 17.1387 17.1218C17.2363 17.0046 17.3535 16.8875 17.4902 16.7703C17.6074 16.6531 17.6953 16.5652 17.7539 16.5066C18.0273 16.2527 18.3301 16.0085 18.6621 15.7742C19.2871 15.3054 19.9414 14.8953 20.625 14.5437C22.0703 13.8406 23.584 13.4402 25.166 13.3425H25.459H25.752H26.3086L26.9238 13.3718L27.1875 13.4011L27.4805 13.4304C28.3594 13.5281 29.1504 13.7136 29.8535 13.9871C30.6934 14.28 31.4551 14.6902 32.1387 15.2175C32.8613 15.7839 33.457 16.4578 33.9258 17.239C34.375 17.9617 34.6973 18.7625 34.8926 19.6414C35.0879 20.3835 35.1953 21.1843 35.2148 22.0437Z" fill="white"/>
<path d="M50.0454 29.4568C50.2994 29.7108 50.4264 30.0138 50.4264 30.3648C50.4264 30.7168 50.2994 31.0198 50.0454 31.2728C49.7914 31.5268 49.4884 31.6538 49.1374 31.6538C48.7854 31.6538 48.4824 31.5268 48.2294 31.2728C47.9754 31.0198 47.8484 30.7168 47.8484 30.3648C47.8484 30.0138 47.9754 29.7108 48.2294 29.4568C48.4824 29.2028 48.7854 29.0758 49.1374 29.0758C49.4884 29.0758 49.7914 29.2028 50.0454 29.4568ZM53.8684 18.2068L53.8544 18.3238V18.4998C53.8444 18.5678 53.8394 18.6268 53.8394 18.6758C53.8194 18.8608 53.7754 19.0708 53.7074 19.3058C53.5904 19.7348 53.4144 20.1358 53.1804 20.5068C52.9554 20.8388 52.6824 21.1508 52.3594 21.4438C52.0964 21.6788 51.7884 21.9078 51.4374 22.1328C51.1144 22.3478 50.7094 22.5768 50.2214 22.8208L50.2354 27.2008C50.2354 27.3278 50.1774 27.3918 50.0604 27.3918H48.2294C48.1024 27.3918 48.0384 27.3278 48.0384 27.2008L48.0534 22.1618V21.6048C48.0534 21.5268 48.0874 21.4688 48.1554 21.4298L48.6534 21.1948C49.4054 20.8238 49.9474 20.5358 50.2794 20.3308C50.7974 20.0088 51.1734 19.6768 51.4074 19.3348C51.5244 19.1498 51.6124 18.9538 51.6714 18.7488C51.7104 18.6118 51.7304 18.5048 51.7304 18.4268C51.7394 18.3968 51.7444 18.3678 51.7444 18.3388L51.7594 18.2798V18.1478V18.0898V18.0608C51.7594 17.7868 51.7304 17.5428 51.6714 17.3278C51.6224 17.1038 51.5444 16.9028 51.4374 16.7278C51.2324 16.3758 50.9094 16.1168 50.4704 15.9508C50.2654 15.8628 50.0254 15.8048 49.7524 15.7748L49.6644 15.7608L49.5624 15.7458L49.3714 15.7308H49.1514H49.0644L48.9614 15.7458C48.4434 15.7658 47.9454 15.8928 47.4674 16.1268C47.2324 16.2338 47.0034 16.3658 46.7784 16.5218C46.6714 16.6008 46.5684 16.6838 46.4714 16.7708C46.4514 16.7908 46.4124 16.8298 46.3544 16.8888C46.2664 16.9668 46.1834 16.9718 46.1054 16.9028L44.8454 15.8628C44.7374 15.7748 44.7324 15.6828 44.8304 15.5848C44.8794 15.5258 44.9384 15.4678 45.0064 15.4088L45.1384 15.2768C45.2744 15.1498 45.4264 15.0278 45.5924 14.9108C45.9044 14.6768 46.2314 14.4718 46.5734 14.2958C47.2964 13.9438 48.0534 13.7438 48.8444 13.6948H48.9904H49.1374H49.4154L49.7234 13.7098L49.8554 13.7248L50.0014 13.7388C50.4414 13.7878 50.8364 13.8808 51.1884 14.0178C51.6074 14.1638 51.9884 14.3688 52.3304 14.6328C52.6914 14.9158 52.9894 15.2528 53.2244 15.6438C53.4484 16.0048 53.6094 16.4048 53.7074 16.8448C53.8054 17.2158 53.8584 17.6158 53.8684 18.0458V18.2068Z" stroke="white" stroke-width="0.238" stroke-miterlimit="1.9"/>
<path d="M49.1372 28.9391C49.4888 28.9391 49.7915 29.0661 50.0454 29.32C50.2993 29.5739 50.4263 29.8766 50.4263 30.2282C50.4263 30.5798 50.2993 30.8825 50.0454 31.1364C49.7915 31.3903 49.4888 31.5173 49.1372 31.5173C48.7856 31.5173 48.4829 31.3903 48.229 31.1364C47.9751 30.8825 47.8481 30.5798 47.8481 30.2282C47.8481 29.8766 47.9751 29.5739 48.229 29.32C48.4829 29.0661 48.7856 28.9391 49.1372 28.9391ZM53.8687 17.9089V18.07L53.854 18.1872V18.363C53.8442 18.4313 53.8394 18.4899 53.8394 18.5388C53.8198 18.7243 53.7759 18.9343 53.7075 19.1686C53.5903 19.5983 53.4146 19.9987 53.1802 20.3698C52.9556 20.7018 52.6821 21.0143 52.3599 21.3073C52.0962 21.5417 51.7886 21.7712 51.437 21.9958C51.1147 22.2106 50.7095 22.4401 50.2212 22.6843L50.2358 27.0641C50.2358 27.1911 50.1772 27.2546 50.0601 27.2546H48.229C48.1021 27.2546 48.0386 27.1911 48.0386 27.0641L48.0532 22.0251V21.4684C48.0532 21.3903 48.0874 21.3317 48.1558 21.2927L48.6538 21.0583C49.4058 20.6872 49.9478 20.3991 50.2798 20.194C50.7974 19.8718 51.1733 19.5397 51.4077 19.1979C51.5249 19.0124 51.6128 18.8171 51.6714 18.612C51.7104 18.4753 51.73 18.3679 51.73 18.2897C51.7397 18.2604 51.7446 18.2311 51.7446 18.2018L51.7593 18.1432V18.0114V17.9528V17.9235C51.7593 17.6501 51.73 17.4059 51.6714 17.1911C51.6226 16.9665 51.5444 16.7663 51.437 16.5905C51.2319 16.239 50.9097 15.9802 50.4702 15.8141C50.2651 15.7263 50.0259 15.6677 49.7524 15.6384L49.6646 15.6237L49.562 15.6091L49.3716 15.5944H49.1519H49.064L48.9614 15.6091C48.4438 15.6286 47.9458 15.7556 47.4673 15.9899C47.2329 16.0974 47.0034 16.2292 46.7788 16.3854C46.6714 16.4636 46.5688 16.5466 46.4712 16.6345C46.4517 16.654 46.4126 16.6931 46.354 16.7516C46.2661 16.8298 46.1831 16.8347 46.105 16.7663L44.8452 15.7263C44.7378 15.6384 44.7329 15.5456 44.8306 15.4479C44.8794 15.3893 44.938 15.3307 45.0063 15.2722C45.0649 15.2136 45.1089 15.1696 45.1382 15.1403C45.2749 15.0134 45.4263 14.8913 45.5923 14.7741C45.9048 14.5397 46.2319 14.3347 46.5737 14.1589C47.2964 13.8073 48.0532 13.6071 48.8442 13.5583H48.9907H49.1372H49.4155L49.7231 13.5729L49.855 13.5876L50.0015 13.6022C50.4409 13.6511 50.8364 13.7438 51.188 13.8806C51.6079 14.027 51.9888 14.2321 52.3306 14.4958C52.6919 14.779 52.9897 15.1159 53.2241 15.5065C53.4487 15.8679 53.6099 16.2682 53.7075 16.7077C53.8052 17.0788 53.8589 17.4792 53.8687 17.9089Z" fill="white"/>
<path d="M5.96657 44.3386C6.22057 44.5926 6.34757 44.8956 6.34757 45.2466C6.34757 45.5986 6.22057 45.9016 5.96657 46.1546C5.71257 46.4086 5.40957 46.5356 5.05857 46.5356C4.70657 46.5356 4.40357 46.4086 4.15057 46.1546C3.89657 45.9016 3.76957 45.5986 3.76957 45.2466C3.76957 44.8956 3.89657 44.5926 4.15057 44.3386C4.40357 44.0846 4.70657 43.9576 5.05857 43.9576C5.40957 43.9576 5.71257 44.0846 5.96657 44.3386ZM9.78957 33.0886L9.77557 33.2056V33.3816C9.76557 33.4496 9.76057 33.5086 9.76057 33.5576C9.74057 33.7426 9.69657 33.9526 9.62857 34.1876C9.51157 34.6166 9.33557 35.0176 9.10157 35.3886C8.87657 35.7206 8.60357 36.0326 8.28057 36.3256C8.01757 36.5606 7.70957 36.7896 7.35857 37.0146C7.03557 37.2296 6.63057 37.4586 6.14257 37.7026L6.15657 42.0826C6.15657 42.2096 6.09857 42.2736 5.98157 42.2736H4.15057C4.02357 42.2736 3.95957 42.2096 3.95957 42.0826L3.97457 37.0436V36.4866C3.97457 36.4086 4.00857 36.3506 4.07657 36.3116L4.57457 36.0766C5.32657 35.7056 5.86857 35.4176 6.20057 35.2126C6.71857 34.8906 7.09457 34.5586 7.32857 34.2166C7.44557 34.0316 7.53357 33.8356 7.59257 33.6306C7.63157 33.4936 7.65157 33.3866 7.65157 33.3086C7.66057 33.2786 7.66557 33.2496 7.66557 33.2206L7.68057 33.1616V33.0296V32.9716V32.9426C7.68057 32.6686 7.65157 32.4246 7.59257 32.2096C7.54357 31.9856 7.46557 31.7846 7.35857 31.6096C7.15357 31.2576 6.83057 30.9986 6.39157 30.8326C6.18657 30.7446 5.94657 30.6866 5.67357 30.6566L5.58557 30.6426L5.48357 30.6276L5.29257 30.6126H5.07257H4.98557L4.88257 30.6276C4.36457 30.6476 3.86657 30.7746 3.38857 31.0086C3.15357 31.1156 2.92457 31.2476 2.69957 31.4036C2.59257 31.4826 2.48957 31.5656 2.39257 31.6526C2.37257 31.6726 2.33357 31.7116 2.27557 31.7706C2.18757 31.8486 2.10457 31.8536 2.02657 31.7846L0.766573 30.7446C0.658573 30.6566 0.653573 30.5646 0.751573 30.4666C0.800573 30.4076 0.859573 30.3496 0.927573 30.2906L1.05957 30.1586C1.19557 30.0316 1.34757 29.9096 1.51357 29.7926C1.82557 29.5586 2.15257 29.3536 2.49457 29.1776C3.21757 28.8256 3.97457 28.6256 4.76557 28.5766H4.91157H5.05857H5.33657L5.64457 28.5916L5.77657 28.6066L5.92257 28.6206C6.36257 28.6696 6.75757 28.7626 7.10957 28.8996C7.52857 29.0456 7.90957 29.2506 8.25157 29.5146C8.61257 29.7976 8.91057 30.1346 9.14557 30.5256C9.36957 30.8866 9.53057 31.2866 9.62857 31.7266C9.72657 32.0976 9.77957 32.4976 9.78957 32.9276V33.0886Z" stroke="white" stroke-width="0.238" stroke-miterlimit="1.9"/>
<path d="M5.05835 43.821C5.40991 43.821 5.71265 43.948 5.96655 44.2019C6.22046 44.4558 6.34741 44.7585 6.34741 45.1101C6.34741 45.4617 6.22046 45.7644 5.96655 46.0183C5.71265 46.2722 5.40991 46.3992 5.05835 46.3992C4.70679 46.3992 4.40405 46.2722 4.15015 46.0183C3.89624 45.7644 3.76929 45.4617 3.76929 45.1101C3.76929 44.7585 3.89624 44.4558 4.15015 44.2019C4.40405 43.948 4.70679 43.821 5.05835 43.821ZM9.78979 32.7908V32.9519L9.77515 33.0691V33.2449C9.76538 33.3132 9.7605 33.3718 9.7605 33.4207C9.74097 33.6062 9.69702 33.8162 9.62866 34.0505C9.51147 34.4802 9.33569 34.8806 9.10132 35.2517C8.87671 35.5837 8.60327 35.8962 8.28101 36.1892C8.01733 36.4236 7.70972 36.6531 7.35815 36.8777C7.03589 37.0925 6.63062 37.322 6.14233 37.5662L6.15698 41.946C6.15698 42.073 6.09839 42.1365 5.9812 42.1365H4.15015C4.02319 42.1365 3.95972 42.073 3.95972 41.946L3.97437 36.907V36.3503C3.97437 36.2722 4.00854 36.2136 4.0769 36.1746L4.57495 35.9402C5.3269 35.5691 5.8689 35.281 6.20093 35.0759C6.71851 34.7537 7.09448 34.4216 7.32886 34.0798C7.44604 33.8943 7.53394 33.699 7.59253 33.4939C7.63159 33.3572 7.65112 33.2498 7.65112 33.1716C7.66089 33.1423 7.66577 33.113 7.66577 33.0837L7.68042 33.0251V32.8933V32.8347V32.8054C7.68042 32.532 7.65112 32.2878 7.59253 32.073C7.5437 31.8484 7.46558 31.6482 7.35815 31.4724C7.15308 31.1208 6.83081 30.8621 6.39136 30.696C6.18628 30.6082 5.94702 30.5496 5.67358 30.5203L5.58569 30.5056L5.48315 30.491L5.29272 30.4763H5.073H4.98511L4.88257 30.491C4.36499 30.5105 3.86694 30.6375 3.38843 30.8718C3.15405 30.9792 2.92456 31.1111 2.69995 31.2673C2.59253 31.3455 2.48999 31.4285 2.39233 31.5164C2.3728 31.5359 2.33374 31.575 2.27515 31.6335C2.18726 31.7117 2.10425 31.7166 2.02612 31.6482L0.766357 30.6082C0.658936 30.5203 0.654053 30.4275 0.751709 30.3298C0.800537 30.2712 0.859131 30.2126 0.92749 30.1541C0.986084 30.0955 1.03003 30.0515 1.05933 30.0222C1.19604 29.8953 1.34741 29.7732 1.51343 29.656C1.82593 29.4216 2.15308 29.2166 2.49487 29.0408C3.21753 28.6892 3.97437 28.489 4.76538 28.4402H4.91187H5.05835H5.33667L5.64429 28.4548L5.77612 28.4695L5.92261 28.4841C6.36206 28.533 6.75757 28.6257 7.10913 28.7625C7.52905 28.9089 7.90991 29.114 8.25171 29.3777C8.61304 29.6609 8.91089 29.9978 9.14526 30.3884C9.36987 30.7498 9.53101 31.1501 9.62866 31.5896C9.72632 31.9607 9.78003 32.3611 9.78979 32.7908Z" fill="white"/>
</svg>
