<svg width="115" height="80" viewBox="0 0 115 80" fill="none" xmlns="http://www.w3.org/2000/svg">
<path d="M58.1182 70.4157C59.2162 71.5137 59.7662 72.8207 59.7662 74.3387C59.7662 75.8577 59.2162 77.1657 58.1182 78.2627C57.0192 79.3597 55.7092 79.9077 54.1882 79.9077C52.6672 79.9077 51.3562 79.3597 50.2582 78.2627C49.1582 77.1657 48.6102 75.8577 48.6102 74.3387C48.6102 72.8207 49.1582 71.5137 50.2582 70.4157C51.3562 69.3197 52.6672 68.7707 54.1882 68.7707C55.7092 68.7707 57.0192 69.3197 58.1182 70.4157ZM74.6622 21.8167L74.5992 22.3237V23.0827C74.5562 23.3787 74.5362 23.6317 74.5362 23.8417C74.4502 24.6437 74.2602 25.5507 73.9652 26.5627C73.4582 28.4197 72.6972 30.1497 71.6832 31.7517C70.7102 33.1867 69.5282 34.5367 68.1332 35.8017C66.9922 36.8147 65.6612 37.8057 64.1402 38.7757C62.7452 39.7047 60.9912 40.6957 58.8792 41.7497L58.9422 60.6707C58.9422 61.2197 58.6882 61.4937 58.1812 61.4937H50.2582C49.7082 61.4937 49.4342 61.2197 49.4342 60.6707L49.4972 38.9027V36.4977C49.4972 36.1607 49.6452 35.9077 49.9412 35.7387L52.0962 34.7257C55.3502 33.1237 57.6952 31.8787 59.1322 30.9927C61.3722 29.6007 62.9992 28.1667 64.0132 26.6897C64.5202 25.8887 64.9012 25.0447 65.1542 24.1587C65.3222 23.5677 65.4082 23.1047 65.4082 22.7667C65.4492 22.6397 65.4712 22.5127 65.4712 22.3867L65.5342 22.1337V21.5637V21.3107V21.1847C65.5342 20.0037 65.4082 18.9487 65.1542 18.0207C64.9422 17.0507 64.6042 16.1857 64.1402 15.4257C63.2522 13.9067 61.8582 12.7897 59.9562 12.0717C59.0692 11.6927 58.0332 11.4397 56.8502 11.3127L56.4702 11.2497L56.0262 11.1857L55.2022 11.1227H54.2512H53.8712L53.4272 11.1857C51.1872 11.2707 49.0322 11.8187 46.9622 12.8317C45.9472 13.2957 44.9542 13.8657 43.9822 14.5397C43.5172 14.8777 43.0732 15.2357 42.6512 15.6157C42.5662 15.7007 42.3982 15.8687 42.1442 16.1217C41.7642 16.4597 41.4042 16.4807 41.0672 16.1857L35.6152 11.6927C35.1502 11.3127 35.1292 10.9127 35.5522 10.4897C35.7632 10.2367 36.0162 9.98371 36.3122 9.73071C36.5662 9.47771 36.7562 9.28771 36.8832 9.16071C37.4742 8.61371 38.1292 8.08571 38.8482 7.57871C40.2002 6.56671 41.6152 5.68071 43.0952 4.92171C46.2222 3.40271 49.4972 2.53872 52.9202 2.32672H53.5542H54.1882H55.3922L56.7232 2.39072L57.2942 2.45372L57.9282 2.51672C59.8292 2.72872 61.5412 3.12872 63.0622 3.71872C64.8792 4.35172 66.5272 5.23772 68.0072 6.37672C69.5692 7.60072 70.8592 9.05671 71.8732 10.7437C72.8452 12.3047 73.5422 14.0337 73.9652 15.9317C74.3872 17.5357 74.6202 19.2647 74.6622 21.1207V21.8167Z" fill="#87CBBD"/>
<path d="M106.582 34.4461C107.133 34.9961 107.409 35.6501 107.409 36.4111C107.409 37.1721 107.133 37.8271 106.582 38.3761C106.03 38.9261 105.373 39.2001 104.61 39.2001C103.847 39.2001 103.189 38.9261 102.638 38.3761C102.087 37.8271 101.811 37.1721 101.811 36.4111C101.811 35.6501 102.087 34.9961 102.638 34.4461C103.189 33.8971 103.847 33.6221 104.61 33.6221C105.373 33.6221 106.03 33.8971 106.582 34.4461ZM114.883 10.1041L114.851 10.3571V10.7381C114.83 10.8861 114.819 11.0121 114.819 11.1181C114.777 11.5201 114.681 11.9741 114.533 12.4811C114.279 13.4111 113.897 14.2771 113.388 15.0801C112.9 15.7991 112.307 16.4741 111.607 17.1081C111.035 17.6161 110.367 18.1121 109.603 18.5981C108.904 19.0631 108.024 19.5601 106.964 20.0881L106.995 29.5651C106.995 29.8401 106.868 29.9771 106.614 29.9771H102.638C102.362 29.9771 102.225 29.8401 102.225 29.5651L102.257 18.6611V17.4571C102.257 17.2881 102.331 17.1611 102.479 17.0771L103.561 16.5701C105.193 15.7671 106.37 15.1431 107.091 14.7001C108.214 14.0021 109.031 13.2841 109.54 12.5441C109.794 12.1431 109.985 11.7201 110.112 11.2761C110.197 10.9811 110.24 10.7481 110.24 10.5791C110.26 10.5161 110.271 10.4521 110.271 10.3891L110.303 10.2621V9.97707V9.85007V9.78707C110.303 9.19507 110.24 8.66707 110.112 8.20207C110.006 7.71607 109.837 7.28307 109.603 6.90207C109.158 6.14207 108.458 5.58207 107.504 5.22207C107.059 5.03207 106.539 4.90607 105.946 4.84207L105.755 4.81107L105.532 4.77907L105.119 4.74707H104.642H104.451L104.228 4.77907C103.104 4.82107 102.023 5.09607 100.984 5.60307C100.476 5.83607 99.9768 6.12107 99.4898 6.45907C99.2558 6.62807 99.0328 6.80707 98.8218 6.99807C98.7788 7.04007 98.6938 7.12407 98.5668 7.25107C98.3758 7.42007 98.1958 7.43107 98.0268 7.28307L95.2908 5.03207C95.0578 4.84207 95.0468 4.64207 95.2598 4.43007C95.3648 4.30307 95.4928 4.17707 95.6408 4.05007C95.7678 3.92307 95.8638 3.82807 95.9268 3.76407C96.2238 3.49007 96.5528 3.22607 96.9128 2.97207C97.5918 2.46507 98.3018 2.02107 99.0438 1.64107C100.613 0.880071 102.257 0.447072 103.974 0.341072H104.292H104.61H105.214L105.882 0.37307L106.169 0.405071L106.487 0.436073C107.441 0.542073 108.299 0.74307 109.063 1.03907C109.974 1.35607 110.801 1.79907 111.544 2.37007C112.328 2.98307 112.975 3.71207 113.484 4.55707C113.971 5.33907 114.321 6.20507 114.533 7.15607C114.745 7.95907 114.862 8.82507 114.883 9.75507V10.1041Z" fill="#87CBBD"/>
<path d="M11.5428 66.5332C12.0938 67.0832 12.3698 67.7372 12.3698 68.4982C12.3698 69.2592 12.0938 69.9142 11.5428 70.4632C10.9908 71.0132 10.3338 71.2872 9.57085 71.2872C8.80785 71.2872 8.14985 71.0132 7.59885 70.4632C7.04785 69.9142 6.77185 69.2592 6.77185 68.4982C6.77185 67.7372 7.04785 67.0832 7.59885 66.5332C8.14985 65.9842 8.80785 65.7092 9.57085 65.7092C10.3338 65.7092 10.9908 65.9842 11.5428 66.5332ZM19.8438 42.1912L19.8118 42.4442V42.8252C19.7908 42.9732 19.7798 43.0992 19.7798 43.2052C19.7378 43.6072 19.6418 44.0612 19.4938 44.5682C19.2398 45.4982 18.8578 46.3642 18.3488 47.1672C17.8608 47.8862 17.2678 48.5622 16.5678 49.1952C15.9958 49.7032 15.3278 50.1992 14.5638 50.6852C13.8648 51.1502 12.9848 51.6472 11.9248 52.1752L11.9558 61.6522C11.9558 61.9272 11.8288 62.0642 11.5748 62.0642H7.59885C7.32285 62.0642 7.18585 61.9272 7.18585 61.6522L7.21785 50.7492V49.5442C7.21785 49.3752 7.29185 49.2482 7.43985 49.1642L8.52185 48.6572C10.1538 47.8542 11.3308 47.2302 12.0518 46.7872C13.1748 46.0892 13.9918 45.3712 14.5008 44.6312C14.7548 44.2302 14.9458 43.8072 15.0728 43.3632C15.1578 43.0682 15.2008 42.8352 15.2008 42.6662C15.2208 42.6032 15.2318 42.5392 15.2318 42.4762L15.2638 42.3492V42.0642V41.9372V41.8742C15.2638 41.2822 15.2008 40.7542 15.0728 40.2892C14.9668 39.8032 14.7978 39.3702 14.5638 38.9892C14.1188 38.2292 13.4188 37.6692 12.4648 37.3092C12.0198 37.1192 11.4998 36.9932 10.9068 36.9292L10.7158 36.8982L10.4928 36.8662L10.0798 36.8342H9.60285H9.41185L9.18885 36.8662C8.06485 36.9082 6.98385 37.1832 5.94485 37.6902C5.43685 37.9232 4.93785 38.2082 4.45085 38.5462C4.21685 38.7152 3.99385 38.8942 3.78285 39.0852C3.73985 39.1272 3.65485 39.2112 3.52785 39.3382C3.33685 39.5072 3.15685 39.5182 2.98785 39.3702L0.251846 37.1192C0.0188459 36.9292 0.00784673 36.7292 0.220847 36.5172C0.325847 36.3902 0.453846 36.2642 0.601846 36.1372C0.728846 36.0102 0.824847 35.9152 0.887847 35.8512C1.18485 35.5772 1.51385 35.3132 1.87385 35.0592C2.55285 34.5522 3.26285 34.1082 4.00485 33.7282C5.57385 32.9672 7.21785 32.5342 8.93485 32.4282H9.25285H9.57085H10.1748L10.8428 32.4602L11.1298 32.4922L11.4478 32.5232C12.4018 32.6292 13.2598 32.8302 14.0238 33.1262C14.9348 33.4432 15.7618 33.8862 16.5048 34.4572C17.2888 35.0702 17.9358 35.7992 18.4448 36.6442C18.9318 37.4262 19.2818 38.2922 19.4938 39.2432C19.7058 40.0462 19.8228 40.9122 19.8438 41.8422V42.1912Z" fill="#87CBBD"/>
</svg>
