<svg width="224" height="30" viewBox="0 0 224 30" fill="none" xmlns="http://www.w3.org/2000/svg">
<path d="M-35.7888 27.556L108.003 27.328C108.003 27.328 121.144 4.95 125.894 2.616C125.894 2.616 128.76 -0.0870023 132.4 5.094C132.4 5.094 142.817 21.449 144.249 23.197C144.249 23.197 148.034 28.905 153.62 28.905C153.62 28.905 156.777 28.447 159.275 27.702C159.275 27.702 178.017 22.295 181.038 22.295C181.038 22.295 183.804 22.023 190.409 24.012C190.409 24.012 197.363 26.171 207.139 27.028C207.139 27.028 217.517 27.477 222.706 21.544" stroke="white" stroke-width="2"/>
</svg>
