<svg width="102" height="116" viewBox="0 0 102 116" fill="none" xmlns="http://www.w3.org/2000/svg">
<path d="M85.978 64.329L85.831 64.264L85.515 64.171L85.328 64.202C85.328 64.202 85.337 64.148 85.237 64.658C84.946 66.152 83.915 67.86 83.915 67.86L81.873 66.282L81.789 66.162L81.645 65.95C81.645 65.95 81.831 65.959 81.612 65.95C81.392 65.941 81.468 65.756 81.468 65.756L81.553 65.691L81.612 65.599V65.359L81.579 65.184L75.734 61.603V60.578C75.734 60.578 75.833 60.291 75.841 60.209C75.849 60.126 75.782 60.015 75.749 59.904C75.715 59.794 75.749 59.719 75.749 59.719C75.749 59.719 75.951 59.415 75.993 59.415C76.036 59.415 76.027 59.313 76.027 59.313C76.01 58.917 76.179 58.908 76.238 58.917C76.297 58.926 76.348 58.723 76.348 58.723C76.381 58.649 76.558 58.52 76.558 58.52C76.6 58.483 76.6 58.243 76.634 58.132C76.636 58.128 76.637 58.124 76.64 58.12C76.698 58.01 77.073 57.864 77.073 57.864C77.149 57.855 77.107 57.726 77.107 57.726C77.081 57.578 77.174 57.393 77.174 57.393C77.309 57.311 77.376 57.089 77.376 57.089V56.425L77.326 56.24C77.326 56.24 77.282 56.016 77.274 55.981C77.265 55.946 77.31 55.826 77.322 55.8C77.334 55.773 77.27 55.65 77.253 55.611C77.237 55.571 77.08 55.487 77.08 55.447C77.08 55.408 77.076 55.214 77.032 55.17C76.987 55.126 76.794 54.976 76.794 54.976C76.758 54.919 76.722 54.708 76.722 54.708C76.649 54.659 76.541 54.457 76.541 54.457C76.541 54.457 76.541 54.272 76.521 54.241C76.501 54.21 76.477 54.087 76.477 54.034C76.477 53.982 76.545 53.836 76.537 53.77C76.529 53.703 76.444 53.665 76.424 53.638C76.404 53.611 76.303 53.634 76.279 53.594C76.255 53.554 76.134 53.567 76.102 53.554C76.07 53.541 76.134 53.418 76.134 53.378C76.134 53.338 76.006 53.347 76.006 53.347C76.006 53.347 76.058 53.268 76.026 53.228C75.994 53.189 75.953 53.096 75.953 53.096C75.953 53.096 75.961 52.912 75.929 52.876C75.897 52.841 75.89 52.694 75.89 52.694L76.463 52.083H78.861L78.887 52.234L79.022 52.382L80.304 52.345C80.304 52.345 80.388 52.41 80.447 52.428C80.507 52.447 81.502 53.203 81.502 53.203C82.017 53.527 82.219 53.813 82.219 53.813C82.219 53.813 82.852 53.803 82.885 53.776C82.919 53.748 82.953 53.803 82.953 53.803C83.315 53.859 83.392 54.006 83.392 54.006L83.813 53.96L83.932 54.053L84.218 54.08L84.471 54.191L84.885 53.61C84.91 53.453 85.155 53.25 85.155 53.25L86.429 52.641L86.994 53.213L87.424 53.222L87.559 53.176L87.914 53.167L88.124 53.213L87.677 53.914C87.543 54.256 86.758 55.16 86.758 55.16L86.741 61.39L87.458 62.475L87.377 62.621L87.009 63.321M85.978 64.329L86.32 63.527L86.407 63.321M85.978 64.329C85.978 64.329 85.247 63.962 85.29 64.329C85.333 64.695 84.474 66.71 84.345 67.123C84.216 67.534 83.743 68.267 83.614 68.451C83.485 68.633 83.184 69.825 83.184 69.825C83.614 70.466 84.173 71.015 84.173 71.336C84.173 71.656 83.914 71.793 83.914 72.068C83.914 72.343 84.044 72.572 83.957 72.801C83.871 73.03 83.785 73.855 83.785 73.855C84.216 74.999 84.173 75.504 84.345 75.732C84.516 75.961 85.161 76.327 85.376 76.465C85.591 76.602 85.591 77.335 85.622 77.517C85.652 77.702 85.548 78.068 85.333 78.159C85.118 78.25 85.247 79.029 85.247 79.213C85.247 79.395 85.591 80.403 85.376 80.632C85.161 80.862 85.247 82.418 85.247 82.418C85.247 82.418 85.462 82.784 85.591 83.104C85.72 83.425 85.419 84.021 85.118 84.799C84.817 85.578 81.981 87.547 81.981 87.547C80.477 87.501 78.414 90.157 78.414 90.157C78.414 90.157 77.941 90.294 77.812 90.477C77.683 90.661 76.823 91.577 76.522 91.577C76.222 91.577 75.878 92.219 76.351 92.585C76.823 92.951 76.609 93.684 76.781 93.729C76.953 93.775 77.382 94.05 77.382 94.05V94.737C77.382 95.011 77.124 95.286 77.124 95.286H77.382V95.561L77.124 96.156H77.382V96.432L77.124 96.981C77.124 96.981 77.081 98.125 76.909 98.447C76.738 98.767 75.534 99.499 75.534 99.499C74.718 99.545 73.213 100.369 73.213 100.69C73.213 101.011 73.042 102.981 72.87 103.301C72.697 103.621 72.397 105.178 72.397 105.178C72.268 105.545 71.151 106.277 70.85 106.461C70.549 106.643 69.604 108.338 69.604 108.338C69.475 108.979 67.884 110.17 67.884 110.17C67.196 110.811 64.403 113.193 64.145 113.193H62.985V113.375C62.985 113.375 62.856 113.696 62.598 113.65C62.341 113.605 62.082 113.422 62.082 113.422L61.781 113.742L61.48 114.062L60.836 113.834L60.062 113.559C60.062 113.559 59.633 113.834 59.375 113.879C59.117 113.925 58.773 113.559 58.773 113.559L58.515 113.696C58.515 113.696 57.827 114.017 57.698 114.154C57.569 114.292 56.281 114.245 56.281 114.245L55.937 114.475C55.937 114.475 55.249 114.749 54.862 114.749C54.476 114.749 54.175 113.879 53.959 114.017C53.745 114.154 52.971 114.017 52.971 114.017V112.78C52.971 112.551 52.584 112.232 52.284 111.773C52.107 111.504 52.286 111.283 52.464 111.145C52.589 111.048 52.713 110.994 52.713 110.994M85.978 64.329L86.407 63.321M86.407 63.321H87.009M87.009 63.321C87.009 63.321 87.826 61.673 88.384 61.078C88.384 61.078 90.791 58.09 91.307 57.844C91.307 57.844 93.542 56.681 94.23 55.582C94.23 55.582 98.226 50.59 98.27 50.132C98.313 49.674 98.27 48.85 98.27 48.85C98.27 48.85 99.129 47.613 99.172 46.972C99.172 46.972 100.204 45.14 100.375 44.728C100.547 44.316 100.633 43.034 100.633 43.034C100.633 43.034 101.578 42.667 101.278 42.53C100.977 42.392 100.719 42.255 100.719 42.255C100.719 42.255 100.762 40.331 100.375 40.057C99.989 39.782 99.301 40.561 99.043 40.744C98.785 40.927 98.012 41.156 97.754 41.202C97.496 41.247 96.249 41.613 95.992 41.66C95.734 41.706 95.132 41.385 94.96 41.614C94.788 41.843 94.015 42.392 93.8 42.347C93.585 42.301 93.027 41.888 92.769 42.118C92.511 42.347 91.909 42.759 91.608 42.759C91.308 42.759 90.663 43.034 90.448 42.759C90.233 42.484 89.46 41.431 89.287 41.293C89.116 41.156 88.9 41.065 88.9 41.065C88.9 41.065 89.588 40.17 89.459 39.999C89.33 39.828 88.643 38.775 88.299 38.683C87.955 38.592 87.096 37.447 86.751 37.263C86.408 37.08 86.107 36.21 85.892 36.21C85.677 36.21 84.56 35.157 84.302 35.065C84.044 34.974 83.657 35.065 83.657 35.065L83.142 34.241C83.142 34.241 82.497 30.898 80.434 29.799C80.434 29.799 79.918 28.882 79.746 26.364C79.746 26.364 79.833 26.135 79.446 25.861C79.059 25.586 79.231 24.99 79.102 24.853C78.973 24.715 77.383 23.479 77.297 23.342C77.211 23.205 76.996 22.654 77.297 22.517C77.598 22.38 77.511 22.059 77.382 21.831C77.261 21.614 76.063 20.538 75.497 19.145C75.465 19.064 75.434 18.982 75.406 18.899C74.89 17.388 74.589 17.617 74.46 17.297C74.332 16.976 74.116 16.106 74.546 16.106C74.546 16.106 74.933 16.519 74.976 16.106C75.019 15.694 75.234 14.824 75.234 14.458C75.234 14.092 75.492 12.809 75.406 12.625C75.32 12.442 75.019 11.297 74.847 11.115C74.675 10.931 74.675 10.336 74.417 10.29C74.159 10.244 73.816 10.748 73.558 10.657C73.3 10.565 72.612 10.287 72.612 10.287C72.612 10.287 72.398 10.702 72.097 10.657C71.796 10.611 70.979 9.97002 70.721 9.97002C70.463 9.97002 70.034 9.92402 69.905 9.97002C69.776 10.015 68.099 10.931 67.498 11.297C67.498 11.297 67.197 11.206 66.853 11.023C66.51 10.84 65.864 10.931 65.521 10.794C65.177 10.657 62.383 10.336 62.383 10.336C62.383 10.336 62.298 9.74102 62.083 9.55702C61.868 9.37502 60.88 9.83202 60.622 9.55702C60.364 9.28202 59.805 9.14502 59.805 9.14502C59.805 9.14502 59.074 8.55003 58.687 8.41203C58.301 8.27503 57.054 7.81703 56.324 8.64203C56.324 8.64203 54.82 8.96202 55.077 10.794C55.077 10.794 55.336 12.26 54.218 12.442C54.218 12.442 52.499 11.389 51.854 11.206C51.854 11.206 50.393 10.931 50.006 10.748C49.619 10.565 49.748 9.64903 49.491 9.32903C49.233 9.00803 48.545 8.91603 48.244 8.82503C47.943 8.73303 47.083 8.18503 46.783 8.16103C46.482 8.13803 45.88 8.00203 45.665 8.16103C45.451 8.32103 45.064 8.30702 44.935 8.08502C44.806 7.86302 44.032 7.58803 44.032 7.58803C44.032 7.58803 43.904 6.53503 43.603 6.44403C43.302 6.35203 42.872 6.90102 42.872 6.90102C42.872 6.90102 42.571 6.69703 42.614 6.43303C42.657 6.16803 43.001 5.61903 43.731 5.39003C44.462 5.16103 44.204 4.24502 43.99 3.97102C43.775 3.69602 43.13 3.42103 43.689 3.00903C44.247 2.59703 44.548 1.81803 44.247 1.63503C43.946 1.45203 43.56 1.63503 43.388 1.63503C43.216 1.63503 43.301 1.58903 42.958 1.31403C42.614 1.03903 41.754 1.03903 41.325 1.31403C40.895 1.58903 40.551 1.77203 40.293 1.63503C40.035 1.49703 39.606 1.03902 39.391 1.10802C39.175 1.17702 38.918 1.72702 38.789 1.58902C38.661 1.45202 38.488 0.980028 38.273 1.10103C38.059 1.22303 37.757 1.45203 37.629 1.54303C37.499 1.63503 37.113 1.45203 37.027 1.68103L36.941 1.91003C36.941 1.91003 36.125 1.36002 35.824 1.26802C35.523 1.17702 34.792 1.17702 34.62 1.40602C34.448 1.63502 34.104 1.54303 34.104 1.54303L33.589 1.08102C33.589 1.08102 33.46 1.68103 32.987 1.68103C32.515 1.68103 31.612 1.58902 31.612 1.58902C31.612 1.58902 30.28 1.95503 29.85 2.45903C29.85 2.45903 29.334 2.59703 29.163 2.64203C28.99 2.68803 28.733 2.50503 28.561 2.64203C28.388 2.78003 27.529 3.51203 27.099 3.46703C26.669 3.42103 26.369 3.23802 26.197 3.05402C26.025 2.87102 25.81 2.73402 25.595 2.91702C25.38 3.10102 24.005 3.28303 23.962 3.10103C23.919 2.91703 23.274 2.04703 22.802 1.91003C22.329 1.77203 21.77 2.55003 21.04 4.24503C21.04 4.24503 19.922 5.34502 19.062 5.34502C19.062 5.34502 16.914 5.80203 16.871 7.58803C16.871 7.58803 15.754 7.90902 15.538 9.97002C15.538 9.97002 16.183 10.611 15.754 10.886C15.754 10.886 14.035 12.351 13.82 12.442C13.604 12.534 12.831 13.45 12.444 13.496C12.057 13.542 10.639 12.718 9.69298 15.374C9.69298 15.374 8.70498 16.107 8.40398 16.152C8.40398 16.152 7.24398 17.663 7.32998 18.626C7.32998 18.626 5.56698 19.815 5.43898 20.228C5.43898 20.228 4.53598 21.831 4.40698 22.426C4.40698 22.426 3.80498 22.105 3.28998 24.396C3.28998 24.396 2.90298 25.082 3.28998 25.266C3.28998 25.266 4.06398 25.495 4.06398 26.09C4.06398 26.09 3.46198 26.822 3.46198 27.464C3.46198 27.464 3.80498 27.876 3.97798 28.38C3.97798 28.38 3.89198 29.707 3.84898 30.303C3.84898 30.303 2.98898 32.913 2.81698 33.143C2.64498 33.371 2.47298 34.15 2.30198 34.242C2.12998 34.333 1.14098 34.837 1.18398 35.203C1.22698 35.57 1.39898 35.524 1.69998 35.844C2.00098 36.165 2.21498 36.898 2.21498 37.264C2.21498 37.63 2.00098 37.539 2.00098 37.539L1.82798 38.958C1.82798 38.958 2.04398 39.371 2.25798 39.691C2.47298 40.012 2.73098 40.378 2.42998 40.47C2.12898 40.561 1.95698 41.66 2.60198 41.798C3.24698 41.935 3.46098 41.294 3.63298 41.386C3.80498 41.477 4.06298 41.798 4.14898 42.027C4.23498 42.256 4.53598 42.256 4.53598 42.256L5.95398 44.042L5.91098 44.545C5.91098 44.545 6.38398 44.271 6.38398 44.637C6.38398 45.004 6.51298 46.698 6.51298 46.698C6.51298 46.698 6.55598 47.614 6.94298 47.751C7.32898 47.889 9.09198 48.53 9.90798 49.858C9.90798 49.858 12.615 51.507 13.088 52.514C13.088 52.514 14.249 53.384 14.765 53.384C15.28 53.384 16.527 52.285 17.171 52.102C17.171 52.102 20.308 51.278 22.758 52.514C22.758 52.514 23.789 52.285 24.219 52.148C24.649 52.01 26.282 51.232 26.54 51.185C26.798 51.14 27.7 51.14 27.7 51.14C27.7 51.14 28.001 50.178 28.689 50.27C28.689 50.27 31.955 49.675 32.513 50.178C32.513 50.178 33.975 53.018 34.491 53.521C34.491 53.521 34.79 53.761 35.633 53.495C35.693 53.477 35.757 53.454 35.823 53.43C36.811 53.063 38.402 52.926 38.66 53.293C38.918 53.659 39.433 54.3 39.777 54.3C40.121 54.3 40.379 54.758 40.293 55.216C40.207 55.674 40.207 56.956 40.121 57.093C40.035 57.231 39.347 58.238 39.476 58.376C39.605 58.513 39.82 58.833 39.82 58.833C39.82 58.833 39.39 58.833 39.39 60.3L38.961 60.802L38.531 60.941C38.531 60.941 38.574 62.177 39.347 63.414C39.347 63.414 43.301 67.351 43.473 68.222C43.473 68.222 43.817 69.595 43.945 70.099C43.945 70.099 44.849 72.023 44.935 72.527C45.02 73.031 45.45 73.717 45.192 74.084C45.192 74.084 44.72 74.129 45.364 76.145C45.364 76.145 46.223 76.602 46.181 77.061C46.138 77.519 46.094 78.939 46.094 78.939C46.094 78.939 44.633 80.129 44.418 81.365C44.203 82.601 44.16 83.289 43.774 83.747C43.387 84.204 43.215 85.167 43.301 85.487C43.387 85.808 43.344 88.326 43.688 88.922C43.688 88.922 45.708 91.761 45.966 93.272C45.966 93.272 47.298 94.784 47.384 95.195C47.47 95.607 47.298 97.576 47.599 98.63C47.9 99.683 48.201 100.279 48.244 101.058C48.286 101.836 48.502 103.302 48.888 103.713C49.275 104.126 50.221 104.905 50.522 105.546C50.822 106.187 51.725 108.338 52.025 108.797C52.326 109.254 52.885 109.805 52.928 110.079C52.971 110.354 53.014 110.766 53.014 110.766" stroke="#4FB29E" stroke-linecap="square" stroke-linejoin="round"/>
<path d="M54.7644 44.9929L57.1652 47.2455C57.1803 47.2584 57.1835 47.2734 57.1749 47.2906C57.1685 47.3078 57.1556 47.3164 57.1362 47.3164H56.3982C56.3854 47.3164 56.3757 47.3121 56.3692 47.3035L54.4679 45.5214V47.2745C54.4679 47.3024 54.4539 47.3164 54.426 47.3164H53.92C53.8921 47.3164 53.8781 47.3024 53.8781 47.2745V42.7402C53.8781 42.7123 53.8921 42.6983 53.92 42.6983H54.426C54.4539 42.6983 54.4679 42.7123 54.4679 42.7402V44.4547L56.2146 42.7145C56.2231 42.7059 56.2328 42.7016 56.2436 42.7016H56.959C56.9783 42.7016 56.9912 42.7102 56.9977 42.7273C57.0062 42.7445 57.0041 42.7596 56.9912 42.7725L54.7644 44.9929ZM57.813 44.4225H58.2706C58.2985 44.4225 58.3125 44.4364 58.3125 44.4644V47.2745C58.3125 47.3024 58.2985 47.3164 58.2706 47.3164H57.813C57.7851 47.3164 57.7711 47.3024 57.7711 47.2745V44.4644C57.7711 44.4364 57.7851 44.4225 57.813 44.4225ZM58.2609 43.8005C58.2008 43.8606 58.1277 43.8907 58.0418 43.8907C57.9559 43.8907 57.8828 43.8606 57.8227 43.8005C57.7604 43.7382 57.7292 43.6641 57.7292 43.5781C57.7292 43.4922 57.7604 43.4191 57.8227 43.359C57.8828 43.2988 57.9559 43.2688 58.0418 43.2688C58.1277 43.2688 58.2008 43.2988 58.2609 43.359C58.3211 43.4191 58.3512 43.4922 58.3512 43.5781C58.3512 43.6641 58.3211 43.7382 58.2609 43.8005ZM59.2793 43.3654C59.3416 43.3053 59.4157 43.2752 59.5017 43.2752C59.5854 43.2752 59.6585 43.3053 59.7208 43.3654C59.781 43.4277 59.811 43.5019 59.811 43.5878C59.811 43.6716 59.781 43.7446 59.7208 43.8069C59.6585 43.8671 59.5854 43.8972 59.5017 43.8972C59.4157 43.8972 59.3416 43.8671 59.2793 43.8069C59.2191 43.7446 59.1891 43.6716 59.1891 43.5878C59.1891 43.5019 59.2191 43.4277 59.2793 43.3654ZM59.2277 47.5742V44.4644C59.2277 44.4364 59.2417 44.4225 59.2696 44.4225H59.7305C59.7584 44.4225 59.7724 44.4364 59.7724 44.4644V47.5742C59.7724 47.7504 59.7326 47.9083 59.6531 48.0479C59.5758 48.1854 59.4684 48.2886 59.3309 48.3573C59.2256 48.411 59.1128 48.4379 58.9925 48.4379C58.8163 48.4379 58.6466 48.382 58.4833 48.2703C58.4597 48.2553 58.4564 48.2359 58.4736 48.2123L58.7508 47.8449C58.7658 47.8234 58.7841 47.8202 58.8056 47.8353C58.9108 47.9019 59.0043 47.9147 59.0859 47.8739C59.1805 47.8267 59.2277 47.7268 59.2277 47.5742ZM61.1549 46.659C61.2215 46.7342 61.3461 46.7718 61.5287 46.7718C61.591 46.7718 61.6522 46.7643 61.7124 46.7492C61.7919 46.7277 61.8639 46.6944 61.9283 46.6493C62.1002 46.5247 62.2033 46.3163 62.2377 46.0241C62.141 46.0177 62.0486 46.0145 61.9605 46.0145C61.5717 46.0145 61.3096 46.0746 61.1742 46.1949C61.1162 46.2465 61.0872 46.3174 61.0872 46.4076C61.0872 46.5236 61.1098 46.6074 61.1549 46.659ZM62.792 45.8018C62.792 45.8361 62.7909 45.8716 62.7888 45.9081C62.7866 45.9833 62.7855 46.0392 62.7855 46.0757C62.7855 46.2626 62.7984 46.4871 62.8242 46.7492C62.8328 46.8459 62.8436 46.9447 62.8564 47.0457C62.865 47.1209 62.8747 47.195 62.8854 47.2681C62.8897 47.3003 62.8758 47.3164 62.8436 47.3164H62.3795C62.3559 47.3164 62.3419 47.3046 62.3376 47.281C62.3269 47.2015 62.3172 47.1209 62.3086 47.0393C62.0895 47.2219 61.8295 47.3132 61.5287 47.3132C61.2193 47.3132 60.9776 47.2337 60.8036 47.0747C60.6296 46.9136 60.5426 46.6912 60.5426 46.4076C60.5426 46.1541 60.6339 45.9468 60.8165 45.7856C61.0937 45.5386 61.5685 45.4365 62.2409 45.4795C62.2259 45.2883 62.1818 45.1551 62.1088 45.0799C62.0336 45.0004 61.9015 44.9606 61.7124 44.9606C61.5706 44.9606 61.4406 44.9854 61.3225 45.0348C61.2795 45.052 61.2387 45.0724 61.2 45.096C61.1721 45.1132 61.1474 45.1304 61.1259 45.1476C61.1065 45.1647 61.0883 45.1647 61.0711 45.1476L60.7295 44.835C60.708 44.8135 60.708 44.7931 60.7295 44.7737C60.7445 44.7587 60.7606 44.7447 60.7778 44.7318C60.7993 44.7125 60.8229 44.6942 60.8487 44.6771C60.911 44.6341 60.9787 44.5954 61.0518 44.561C61.2516 44.4665 61.4718 44.4192 61.7124 44.4192C62.054 44.4192 62.3161 44.5127 62.4987 44.6996C62.6255 44.8307 62.7104 45.0047 62.7533 45.2217C62.7834 45.3656 62.7963 45.559 62.792 45.8018ZM64.5677 46.514C64.7438 46.6858 64.9544 46.7718 65.1993 46.7718C65.4485 46.7718 65.6623 46.6837 65.8406 46.5075C66.0168 46.3313 66.1049 46.1187 66.1049 45.8694C66.1049 45.6202 66.0168 45.4064 65.8406 45.2281C65.6623 45.052 65.4485 44.9639 65.1993 44.9639C64.9544 44.9639 64.7438 45.0498 64.5677 45.2217C64.3937 45.3936 64.3034 45.602 64.297 45.8469V45.8888C64.3034 46.1337 64.3937 46.3421 64.5677 46.514ZM64.297 44.7383C64.5784 44.5127 64.8996 44.4074 65.2605 44.4225C65.6279 44.4375 65.9448 44.575 66.2112 44.835C66.4776 45.0949 66.6227 45.4075 66.6463 45.7728C66.6592 45.979 66.6302 46.1777 66.5593 46.3689C66.4905 46.5537 66.3885 46.717 66.2531 46.8588C65.9674 47.1639 65.6161 47.3164 65.1993 47.3164C64.862 47.3164 64.5612 47.2101 64.297 46.9974V47.2648C64.297 47.2928 64.283 47.3067 64.2551 47.3067H63.7878C63.7599 47.3067 63.7459 47.2928 63.7459 47.2648V42.7338C63.7459 42.7059 63.7599 42.6919 63.7878 42.6919H64.2551C64.283 42.6919 64.297 42.7059 64.297 42.7338V44.7383ZM67.7098 45.718L69.3791 45.5729C69.3318 45.3882 69.2341 45.241 69.0858 45.1314C68.9376 45.0197 68.7604 44.9639 68.5541 44.9639C68.3371 44.9639 68.1502 45.0348 67.9934 45.1766C67.8365 45.3162 67.742 45.4967 67.7098 45.718ZM67.5647 44.8382C67.8376 44.5589 68.1706 44.4203 68.5638 44.4225C68.9483 44.4246 69.276 44.5664 69.5467 44.8479C69.8174 45.1271 69.9527 45.4602 69.9527 45.8469V46.0306C69.9527 46.0563 69.9398 46.0703 69.9141 46.0725L67.7871 46.2562C67.8602 46.4108 67.9697 46.5354 68.1158 46.63C68.2641 46.7245 68.4263 46.7718 68.6024 46.7718C68.7571 46.7718 68.9021 46.7353 69.0375 46.6622C69.175 46.587 69.2846 46.485 69.3662 46.3561C69.3812 46.3324 69.4006 46.3271 69.4242 46.3399L69.8206 46.572C69.8464 46.5849 69.8518 46.6042 69.8367 46.63C69.7057 46.8427 69.5295 47.0103 69.3082 47.1327C69.0891 47.2552 68.8538 47.3164 68.6024 47.3164C68.205 47.3164 67.8645 47.1746 67.5809 46.891C67.2973 46.6096 67.1555 46.269 67.1555 45.8694C67.1555 45.4612 67.2919 45.1175 67.5647 44.8382ZM70.6843 46.6944H71.0259C71.0517 46.6944 71.0731 46.703 71.0903 46.7202C71.1097 46.7396 71.1193 46.7621 71.1193 46.7879V47.3229C71.1193 47.3658 71.1032 47.4034 71.071 47.4356C71.0409 47.4657 71.0033 47.4808 70.9582 47.4808H70.9292C70.8347 47.4808 70.7552 47.4485 70.6907 47.3841C70.6241 47.3175 70.5908 47.2369 70.5908 47.1424V46.7879C70.5908 46.7621 70.5994 46.7396 70.6166 46.7202C70.6359 46.703 70.6585 46.6944 70.6843 46.6944ZM54.7644 50.9929L57.1652 53.2455C57.1803 53.2584 57.1835 53.2734 57.1749 53.2906C57.1685 53.3078 57.1556 53.3164 57.1362 53.3164H56.3982C56.3854 53.3164 56.3757 53.3121 56.3692 53.3035L54.4679 51.5214V53.2745C54.4679 53.3024 54.4539 53.3164 54.426 53.3164H53.92C53.8921 53.3164 53.8781 53.3024 53.8781 53.2745V48.7402C53.8781 48.7123 53.8921 48.6983 53.92 48.6983H54.426C54.4539 48.6983 54.4679 48.7123 54.4679 48.7402V50.4547L56.2146 48.7145C56.2231 48.7059 56.2328 48.7016 56.2436 48.7016H56.959C56.9783 48.7016 56.9912 48.7102 56.9977 48.7273C57.0062 48.7445 57.0041 48.7596 56.9912 48.7725L54.7644 50.9929ZM57.9387 51.718L59.608 51.5729C59.5607 51.3882 59.463 51.241 59.3147 51.1314C59.1665 51.0197 58.9893 50.9639 58.783 50.9639C58.566 50.9639 58.3791 51.0348 58.2223 51.1766C58.0654 51.3162 57.9709 51.4967 57.9387 51.718ZM57.7937 50.8382C58.0665 50.5589 58.3995 50.4203 58.7927 50.4225C59.1772 50.4246 59.5049 50.5664 59.7756 50.8479C60.0463 51.1271 60.1816 51.4602 60.1816 51.8469V52.0306C60.1816 52.0563 60.1688 52.0703 60.143 52.0725L58.016 52.2562C58.0891 52.4108 58.1986 52.5354 58.3447 52.63C58.493 52.7245 58.6552 52.7718 58.8313 52.7718C58.986 52.7718 59.1311 52.7353 59.2664 52.6622C59.4039 52.587 59.5135 52.485 59.5951 52.3561C59.6102 52.3324 59.6295 52.3271 59.6531 52.3399L60.0495 52.572C60.0753 52.5849 60.0807 52.6042 60.0656 52.63C59.9346 52.8427 59.7584 53.0103 59.5371 53.1327C59.318 53.2552 59.0827 53.3164 58.8313 53.3164C58.4339 53.3164 58.0934 53.1746 57.8098 52.891C57.5262 52.6096 57.3844 52.269 57.3844 51.8694C57.3844 51.4612 57.5208 51.1175 57.7937 50.8382ZM63.3592 52.0499C63.3592 52.1938 63.3592 52.3013 63.3592 52.3722C63.3613 52.6386 63.3624 52.8609 63.3624 53.0393L63.3656 53.2681C63.3656 53.296 63.3517 53.31 63.3237 53.31H62.8597C62.8317 53.31 62.8178 53.296 62.8178 53.2681L62.821 53.0393C62.821 52.8609 62.8221 52.6386 62.8242 52.3722C62.8242 52.3013 62.8253 52.1938 62.8274 52.0499V51.9629V51.8727C62.8274 51.8061 62.8274 51.7448 62.8274 51.689V51.5955L62.8242 51.5278C62.8199 51.4806 62.8113 51.4354 62.7984 51.3925C62.7684 51.3022 62.72 51.2217 62.6534 51.1508C62.589 51.082 62.5105 51.0305 62.4182 50.9961C62.3773 50.9789 62.3333 50.9671 62.286 50.9606L62.2667 50.9574C62.2603 50.9553 62.256 50.9542 62.2538 50.9542H62.2441H62.2377C62.2334 50.9542 62.227 50.9542 62.2184 50.9542L62.1958 50.951H62.1894H62.1829H62.1636L62.1475 50.9542C61.9756 50.9606 61.8306 51.0283 61.7124 51.1572C61.6651 51.2045 61.6275 51.2582 61.5996 51.3184C61.576 51.3656 61.5588 51.414 61.548 51.4634C61.5416 51.487 61.5373 51.5053 61.5352 51.5182V51.5311V51.5407L61.5319 51.5568C61.5319 51.5762 61.5309 51.5912 61.5287 51.602V51.6406V53.2745C61.5287 53.3024 61.5147 53.3164 61.4868 53.3164H61.0163C60.9884 53.3164 60.9744 53.3024 60.9744 53.2745V50.445C60.9744 50.4171 60.9884 50.4031 61.0163 50.4031H61.4868C61.5147 50.4031 61.5287 50.4171 61.5287 50.445V50.6642C61.5781 50.6276 61.6265 50.5976 61.6737 50.5739C61.8112 50.503 61.9584 50.4611 62.1152 50.4482L62.1442 50.445H62.1732H62.1894H62.2022H62.2087H62.2312C62.2377 50.445 62.2474 50.445 62.2603 50.445L62.2764 50.4482H62.2925C62.3032 50.4482 62.314 50.4493 62.3247 50.4515L62.3569 50.4547C62.4407 50.4676 62.5213 50.488 62.5986 50.5159C62.7641 50.5761 62.9059 50.6685 63.024 50.7931C63.1465 50.9177 63.2356 51.0616 63.2915 51.2249C63.3194 51.3044 63.3377 51.386 63.3463 51.4698C63.3527 51.5106 63.356 51.5525 63.356 51.5955V51.689C63.356 51.7448 63.356 51.8061 63.356 51.8727V51.9629L63.3592 52.0499ZM65.3218 52.4624L66.1371 50.4289C66.1457 50.4117 66.1586 50.4031 66.1758 50.4031H66.6817C66.6968 50.4031 66.7086 50.4096 66.7172 50.4225C66.7258 50.4332 66.7269 50.4461 66.7204 50.4611L65.1187 54.4443C65.1123 54.4615 65.0994 54.4701 65.0801 54.4701H64.5741C64.5591 54.4701 64.5483 54.4637 64.5419 54.4508C64.5333 54.44 64.5312 54.4271 64.5354 54.4121L65.0253 53.1939L63.8941 50.4611C63.8877 50.4461 63.8888 50.4332 63.8974 50.4225C63.906 50.4096 63.9178 50.4031 63.9328 50.4031H64.4388C64.4581 50.4031 64.471 50.4117 64.4774 50.4289L65.3218 52.4624ZM67.7098 52.659C67.7764 52.7342 67.901 52.7718 68.0836 52.7718C68.1459 52.7718 68.2071 52.7643 68.2673 52.7492C68.3468 52.7277 68.4188 52.6944 68.4832 52.6493C68.6551 52.5247 68.7582 52.3163 68.7926 52.0241C68.6959 52.0177 68.6035 52.0145 68.5154 52.0145C68.1266 52.0145 67.8645 52.0746 67.7291 52.1949C67.6711 52.2465 67.6421 52.3174 67.6421 52.4076C67.6421 52.5236 67.6646 52.6074 67.7098 52.659ZM69.3469 51.8018C69.3469 51.8361 69.3458 51.8716 69.3437 51.9081C69.3415 51.9833 69.3404 52.0392 69.3404 52.0757C69.3404 52.2626 69.3533 52.4871 69.3791 52.7492C69.3877 52.8459 69.3984 52.9447 69.4113 53.0457C69.4199 53.1209 69.4296 53.195 69.4403 53.2681C69.4446 53.3003 69.4307 53.3164 69.3984 53.3164H68.9344C68.9107 53.3164 68.8968 53.3046 68.8925 53.281C68.8817 53.2015 68.8721 53.1209 68.8635 53.0393C68.6443 53.2219 68.3844 53.3132 68.0836 53.3132C67.7742 53.3132 67.5325 53.2337 67.3585 53.0747C67.1845 52.9136 67.0975 52.6912 67.0975 52.4076C67.0975 52.1541 67.1888 51.9468 67.3714 51.7856C67.6485 51.5386 68.1233 51.4365 68.7958 51.4795C68.7808 51.2883 68.7367 51.1551 68.6637 51.0799C68.5885 51.0004 68.4563 50.9606 68.2673 50.9606C68.1255 50.9606 67.9955 50.9854 67.8773 51.0348C67.8344 51.052 67.7936 51.0724 67.7549 51.096C67.727 51.1132 67.7022 51.1304 67.6808 51.1476C67.6614 51.1647 67.6432 51.1647 67.626 51.1476L67.2844 50.835C67.2629 50.8135 67.2629 50.7931 67.2844 50.7737C67.2994 50.7587 67.3155 50.7447 67.3327 50.7318C67.3542 50.7125 67.3778 50.6942 67.4036 50.6771C67.4659 50.6341 67.5336 50.5954 67.6066 50.561C67.8064 50.4665 68.0267 50.4192 68.2673 50.4192C68.6089 50.4192 68.871 50.5127 69.0536 50.6996C69.1804 50.8307 69.2652 51.0047 69.3082 51.2217C69.3383 51.3656 69.3512 51.559 69.3469 51.8018Z" fill="white"/>
</svg>
