<svg width="234" height="19" viewBox="0 0 234 19" fill="none" xmlns="http://www.w3.org/2000/svg">
<path d="M1.96533 7.04897H5.37715C6.00605 7.04897 6.54325 6.82624 6.98872 6.38076C7.4342 5.93529 7.65693 5.3981 7.65693 4.76919C7.65693 4.14028 7.4342 3.60047 6.98872 3.14976C6.54325 2.70428 6.00605 2.48154 5.37715 2.48154H1.96533V7.04897ZM1.22637 7.7958V1.85264C1.22637 1.77926 1.26305 1.74258 1.33643 1.74258H5.37715C6.19997 1.74258 6.90749 2.03083 7.49971 2.60732C8.08669 3.18906 8.38804 3.89134 8.40376 4.71416C8.41424 5.55794 8.11289 6.28381 7.49971 6.89175C6.88652 7.49445 6.15542 7.7958 5.3064 7.7958H1.22637ZM1.33643 13C1.26305 13 1.22637 12.9633 1.22637 12.8899V6.16851H1.96533V12.8899C1.96533 12.9633 1.93127 13 1.86313 13H1.33643ZM7.45254 13C7.41061 13 7.37917 12.9817 7.3582 12.945L4.48882 7.70146L5.14131 7.3477L8.14434 12.8428C8.1653 12.8742 8.1653 12.9083 8.14434 12.945C8.12337 12.9817 8.09193 13 8.05 13H7.45254ZM14.1293 6.90747C13.4061 6.90747 12.8034 7.15903 12.3212 7.66216C11.8338 8.17052 11.5875 8.80205 11.5823 9.55674L16.6528 9.1165C16.5794 8.46663 16.3095 7.9373 15.8431 7.52852C15.3767 7.11449 14.8054 6.90747 14.1293 6.90747ZM14.2551 13C13.3117 13 12.5073 12.6672 11.8417 12.0016C11.1708 11.3308 10.8354 10.5237 10.8354 9.58032C10.8354 8.62124 11.1577 7.81152 11.8024 7.15117C12.4418 6.49082 13.2253 6.16326 14.1529 6.16851C15.0543 6.17375 15.8247 6.50654 16.4641 7.16689C17.0983 7.82201 17.4154 8.60814 17.4154 9.52529V9.69824C17.4154 9.76113 17.3839 9.7952 17.321 9.80044L11.6766 10.2957C11.8338 10.867 12.1483 11.336 12.6199 11.7029C13.1021 12.075 13.6472 12.261 14.2551 12.261C14.7163 12.261 15.1487 12.1484 15.5522 11.923C15.9505 11.7029 16.2728 11.3989 16.5192 11.0111C16.5559 10.9482 16.6056 10.9351 16.6685 10.9718L17.1245 11.2312C17.1874 11.2731 17.2005 11.3255 17.1638 11.3884C16.8493 11.8863 16.4327 12.2794 15.9138 12.5676C15.4002 12.8559 14.8473 13 14.2551 13ZM23.872 7.3084C23.8249 7.35033 23.7751 7.35295 23.7227 7.31626C23.6755 7.27433 23.6257 7.23765 23.5733 7.2062C23.5104 7.15903 23.4475 7.11973 23.3846 7.08828C23.2064 6.99395 23.0204 6.92581 22.8265 6.88389C22.6797 6.85768 22.5566 6.84196 22.457 6.83672H22.3548H22.2526C22.2159 6.83672 22.1766 6.83934 22.1347 6.84458H22.0875L22.0403 6.85244C21.8726 6.8734 21.7337 6.90747 21.6237 6.95464C21.4822 7.00705 21.3695 7.08042 21.2856 7.17476C21.1913 7.26385 21.1258 7.37915 21.0891 7.52065L21.0734 7.57568L21.0655 7.63071C21.0603 7.68312 21.0577 7.72243 21.0577 7.74863L21.0498 7.81152V7.7958V7.80366L21.0577 7.82725V7.86655V7.9373L21.0734 7.98447C21.0734 7.99495 21.076 8.00806 21.0813 8.02378L21.097 8.07881L21.1127 8.12598L21.1363 8.17314L21.1599 8.22031L21.1913 8.26748L21.2306 8.31465L21.2699 8.36182C21.3695 8.47187 21.5084 8.57931 21.6866 8.68413C21.8228 8.76274 22.0063 8.85446 22.2369 8.95928L22.3155 8.99072L22.402 9.03003L22.5513 9.10078L22.8501 9.22656C23.0964 9.34186 23.3034 9.45192 23.4711 9.55674C23.7122 9.70872 23.9061 9.87381 24.0528 10.052C24.2415 10.2669 24.362 10.508 24.4145 10.7752L24.438 10.8774C24.4433 10.9194 24.4459 10.9534 24.4459 10.9796L24.4538 11.074V11.129V11.1604V11.184V11.2233V11.2626C24.4485 11.2941 24.4459 11.3229 24.4459 11.3491L24.4302 11.4513L24.4145 11.5535C24.362 11.8156 24.2572 12.0488 24.1 12.2532C23.948 12.4471 23.7593 12.6017 23.534 12.717C23.3558 12.8113 23.1514 12.8821 22.9208 12.9292C22.7007 12.9712 22.5094 12.9948 22.3469 13H22.2762H22.2447H22.2133H22.1976L22.0796 12.9921C22.0482 12.9921 22.0063 12.9895 21.9539 12.9843H21.8831L21.8202 12.9764C21.6735 12.9555 21.5136 12.924 21.3407 12.8821C21.0891 12.8087 20.848 12.7065 20.6174 12.5755C20.5074 12.5178 20.4078 12.4549 20.3187 12.3868C20.2506 12.3344 20.1877 12.2846 20.13 12.2375C20.0724 12.185 20.0724 12.13 20.13 12.0724L20.5074 11.7107C20.5545 11.6636 20.6043 11.661 20.6567 11.7029C20.6934 11.7396 20.7354 11.7736 20.7825 11.8051C20.8454 11.8522 20.9135 11.8968 20.9869 11.9387C21.1651 12.0383 21.3485 12.1143 21.5372 12.1667C21.6735 12.2034 21.794 12.2296 21.8988 12.2453L21.946 12.2532H21.9932C22.0299 12.2584 22.0665 12.261 22.1032 12.261L22.2211 12.2689H22.2369H22.2683L22.3233 12.261C22.4439 12.261 22.5932 12.2479 22.7714 12.2217C22.9391 12.185 23.0807 12.1353 23.1959 12.0724C23.479 11.9309 23.6493 11.7081 23.7069 11.4042L23.7148 11.3491L23.7227 11.302C23.7279 11.2862 23.7305 11.2626 23.7305 11.2312V11.1919V11.1526L23.7384 11.129V11.1211V11.1133C23.7384 11.129 23.7384 11.1342 23.7384 11.129L23.7305 11.0976V11.0425C23.7305 11.0268 23.7279 11.0058 23.7227 10.9796L23.7148 10.9246C23.6834 10.7726 23.6152 10.6337 23.5104 10.508C23.3322 10.2983 23.0125 10.0861 22.5513 9.87119L22.2447 9.73755L22.0954 9.6668L22.0325 9.63535L21.9539 9.60391C21.6971 9.48861 21.49 9.38379 21.3328 9.28945C21.0917 9.14795 20.8952 8.99334 20.7432 8.82563C20.7223 8.80467 20.7013 8.77847 20.6803 8.74702L20.6174 8.66841C20.5703 8.59504 20.5362 8.53477 20.5152 8.4876L20.4681 8.39326C20.4523 8.35658 20.4419 8.32513 20.4366 8.29893C20.4104 8.21507 20.3921 8.14432 20.3816 8.08667L20.3659 7.97661V7.90586L20.358 7.86655V7.84297V7.83511V7.81152V7.80366L20.3659 7.70933C20.3659 7.66216 20.3711 7.60189 20.3816 7.52852L20.3973 7.43418L20.4209 7.33984C20.489 7.08304 20.6122 6.86554 20.7904 6.68735C20.9476 6.53013 21.1415 6.40435 21.3721 6.31001C21.5398 6.24712 21.7337 6.19995 21.9539 6.16851H22.0325L22.1032 6.16064C22.1556 6.1554 22.1976 6.15278 22.229 6.15278H22.3548H22.4884C22.6247 6.15802 22.7845 6.17899 22.968 6.21567C23.2248 6.27332 23.4711 6.36504 23.7069 6.49082C23.796 6.53799 23.8799 6.58778 23.9585 6.64019C24.0161 6.68211 24.0738 6.72666 24.1314 6.77383C24.1472 6.78431 24.1681 6.80265 24.1943 6.82886C24.252 6.88127 24.252 6.93367 24.1943 6.98608L23.872 7.3084ZM30.2029 12.0802L30.5174 12.5047C30.5645 12.5676 30.5567 12.6174 30.4938 12.6541C30.1531 12.8847 29.802 13 29.4404 13C29.194 13 28.9634 12.945 28.7486 12.8349C28.4656 12.6934 28.2428 12.4785 28.0804 12.1903C27.9231 11.8968 27.8445 11.564 27.8445 11.1919V6.91533H26.8933C26.8199 6.91533 26.7832 6.87865 26.7832 6.80527V6.27856C26.7832 6.20519 26.8199 6.16851 26.8933 6.16851H27.8445L27.8367 4.22676C27.8367 4.15339 27.8733 4.1167 27.9467 4.1167H28.4734C28.5468 4.1167 28.5835 4.15339 28.5835 4.22676V6.16851H29.6605C29.7339 6.16851 29.7705 6.20519 29.7705 6.27856V6.80527C29.7705 6.87865 29.7339 6.91533 29.6605 6.91533H28.5835V11.1919C28.5835 11.6793 28.7486 12.0069 29.0787 12.1746C29.3775 12.3265 29.7024 12.2872 30.0535 12.0566C30.1164 12.02 30.1662 12.0278 30.2029 12.0802ZM35.6219 6.91533C34.8829 6.91533 34.2514 7.17738 33.7273 7.70146C33.2085 8.22031 32.949 8.84922 32.949 9.58818C32.949 10.3219 33.2085 10.9508 33.7273 11.4749C34.2514 11.999 34.8829 12.261 35.6219 12.261C36.3556 12.261 36.9845 11.999 37.5086 11.4749C38.0327 10.9508 38.2947 10.3219 38.2947 9.58818C38.2947 8.84922 38.0327 8.22031 37.5086 7.70146C36.9845 7.17738 36.3556 6.91533 35.6219 6.91533ZM35.6219 13C34.6785 13 33.874 12.6672 33.2085 12.0016C32.5429 11.3308 32.2101 10.5263 32.2101 9.58818C32.2101 8.64482 32.5429 7.84035 33.2085 7.17476C33.874 6.50916 34.6785 6.17637 35.6219 6.17637C36.56 6.17637 37.3619 6.50916 38.0274 7.17476C38.6983 7.84035 39.0337 8.64482 39.0337 9.58818C39.0337 10.5263 38.6983 11.3308 38.0274 12.0016C37.3619 12.6672 36.56 13 35.6219 13ZM44.5391 6.19995C44.6859 6.19995 44.83 6.21043 44.9715 6.2314C45.0449 6.24712 45.0737 6.29167 45.058 6.36504L44.9558 6.87603C44.9401 6.94416 44.8981 6.97298 44.83 6.9625C44.7357 6.94678 44.6387 6.93892 44.5391 6.93892C43.9993 6.93892 43.5381 7.13021 43.1555 7.51279C42.773 7.89538 42.5817 8.35658 42.5817 8.89639V12.8899C42.5817 12.9633 42.5476 13 42.4795 13H41.9528C41.8794 13 41.8427 12.9633 41.8427 12.8899V6.26284C41.8427 6.18947 41.8794 6.15278 41.9528 6.15278H42.4795C42.5476 6.15278 42.5817 6.18947 42.5817 6.26284V7.04897C43.1162 6.48296 43.7687 6.19995 44.5391 6.19995ZM47.4975 13C47.4294 13 47.3953 12.9633 47.3953 12.8899V6.29429C47.3953 6.22091 47.4294 6.18423 47.4975 6.18423H48.0242C48.0976 6.18423 48.1343 6.22091 48.1343 6.29429V12.8899C48.1343 12.9633 48.0976 13 48.0242 13H47.4975ZM48.2994 3.99878C48.2994 4.14552 48.247 4.27131 48.1421 4.37612C48.0373 4.48094 47.9116 4.53335 47.7648 4.53335C47.6128 4.53335 47.487 4.48094 47.3875 4.37612C47.2826 4.27131 47.2302 4.14552 47.2302 3.99878C47.2302 3.85203 47.2826 3.72625 47.3875 3.62144C47.487 3.51662 47.6128 3.46421 47.7648 3.46421C47.9116 3.46421 48.0373 3.51662 48.1421 3.62144C48.247 3.72625 48.2994 3.85203 48.2994 3.99878ZM57.539 12.6305V12.8899C57.539 12.9633 57.5023 13 57.4289 13H56.9022C56.8288 13 56.7921 12.9633 56.7921 12.8899V12.6305C56.7974 12.1693 56.8 11.5928 56.8 10.901V10.7045V10.4922C56.8 10.3403 56.8 10.1961 56.8 10.0599C56.8052 9.72445 56.8078 9.41523 56.8078 9.13223V8.88853C56.8078 8.80991 56.8052 8.73916 56.8 8.67627C56.7843 8.53477 56.7528 8.39588 56.7057 8.25962C56.6113 7.97661 56.4619 7.72767 56.2576 7.51279C56.0584 7.30316 55.8173 7.14331 55.5343 7.03325C55.4033 6.98608 55.2644 6.95202 55.1177 6.93105L55.0626 6.92319L55.0155 6.91533L54.9683 6.90747C54.9473 6.90747 54.929 6.90747 54.9133 6.90747H54.8504H54.8268H54.8032H54.7482H54.701C54.4285 6.92319 54.1743 6.99132 53.9385 7.11187C53.7183 7.22192 53.5271 7.36605 53.3646 7.54424C53.2283 7.69098 53.1156 7.85607 53.0265 8.0395C52.9584 8.18625 52.906 8.33299 52.8693 8.47974C52.8588 8.53739 52.851 8.59504 52.8457 8.65269L52.8379 8.72344L52.83 8.77847C52.83 8.83088 52.83 8.87018 52.83 8.89639L52.8222 9.06934V12.8899C52.8222 12.9633 52.7855 13 52.7121 13H52.1854C52.1173 13 52.0832 12.9633 52.0832 12.8899V6.25498C52.0832 6.18161 52.1173 6.14492 52.1854 6.14492H52.7121C52.7855 6.14492 52.8222 6.18161 52.8222 6.25498V7.15117L52.8693 7.08828C53.0894 6.85244 53.341 6.65853 53.624 6.50654C53.9489 6.34408 54.2922 6.24974 54.6538 6.22353L54.7246 6.21567H54.7953H54.8661H54.929C54.9447 6.21567 54.9683 6.21567 54.9997 6.21567L55.0705 6.22353L55.1491 6.2314L55.2199 6.23926C55.4138 6.26546 55.5998 6.31263 55.778 6.38076C56.1606 6.52227 56.4908 6.73714 56.7685 7.02539C57.0515 7.31364 57.2559 7.64906 57.3817 8.03164C57.4446 8.21507 57.4865 8.40374 57.5075 8.59766C57.518 8.68675 57.5258 8.78109 57.5311 8.88066V9.13223C57.5311 9.27373 57.5311 9.43096 57.5311 9.60391C57.5311 9.71921 57.5311 9.87119 57.5311 10.0599V10.28V10.4922C57.5311 10.6495 57.5311 10.7857 57.5311 10.901C57.5363 11.5928 57.539 12.1693 57.539 12.6305ZM61.59 7.68574C61.066 8.20983 60.8039 8.84398 60.8039 9.58818C60.8039 10.3271 61.066 10.9587 61.59 11.4828C62.1194 12.0069 62.7535 12.2689 63.4925 12.2689C64.2315 12.2689 64.863 12.0069 65.3871 11.4828C65.9112 10.9587 66.1732 10.3271 66.1732 9.58818C66.1732 8.84398 65.9112 8.20983 65.3871 7.68574C64.863 7.16165 64.2315 6.89961 63.4925 6.89961C62.7535 6.89961 62.1194 7.16165 61.59 7.68574ZM66.2204 11.6636C66.126 11.7841 66.0238 11.8994 65.9138 12.0095C65.2429 12.6803 64.4359 13.0157 63.4925 13.0157C62.5439 13.0157 61.7342 12.6803 61.0633 12.0095C60.3977 11.3386 60.065 10.5315 60.065 9.58818C60.065 8.63958 60.3977 7.82987 61.0633 7.15903C61.7342 6.4882 62.5439 6.15278 63.4925 6.15278C64.4359 6.15278 65.2429 6.4882 65.9138 7.15903C66.0238 7.26909 66.126 7.38439 66.2204 7.50493V6.27856C66.2204 6.20519 66.2544 6.16851 66.3226 6.16851H66.8493C66.9227 6.16851 66.9593 6.20519 66.9593 6.27856V13.2358C66.9593 14.1792 66.6239 14.9863 65.9531 15.6571C65.2823 16.328 64.4752 16.6634 63.5318 16.6634C62.9396 16.6634 62.384 16.5193 61.8652 16.231C61.3463 15.9428 60.9297 15.5471 60.6152 15.0439C60.5786 14.9811 60.5917 14.9313 60.6546 14.8946L61.1105 14.6273C61.1734 14.5906 61.2232 14.6037 61.2599 14.6666C61.5691 15.1592 61.9962 15.513 62.5413 15.7279C63.0968 15.948 63.6628 15.9794 64.2393 15.8222C64.8263 15.665 65.3032 15.3348 65.6701 14.8317C66.0369 14.339 66.2204 13.7835 66.2204 13.1651V11.6636ZM73.8968 13H73.3701C73.2967 13 73.26 12.9633 73.26 12.8899V1.82905C73.26 1.76092 73.2967 1.72686 73.3701 1.72686H73.8968C73.9649 1.72686 73.999 1.76092 73.999 1.82905V12.8899C73.999 12.9633 73.9649 13 73.8968 13ZM77.4448 13C77.3766 13 77.3426 12.9633 77.3426 12.8899V6.29429C77.3426 6.22091 77.3766 6.18423 77.4448 6.18423H77.9715C78.0449 6.18423 78.0815 6.22091 78.0815 6.29429V12.8899C78.0815 12.9633 78.0449 13 77.9715 13H77.4448ZM78.2466 3.99878C78.2466 4.14552 78.1942 4.27131 78.0894 4.37612C77.9846 4.48094 77.8588 4.53335 77.7121 4.53335C77.5601 4.53335 77.4343 4.48094 77.3347 4.37612C77.2299 4.27131 77.1775 4.14552 77.1775 3.99878C77.1775 3.85203 77.2299 3.72625 77.3347 3.62144C77.4343 3.51662 77.5601 3.46421 77.7121 3.46421C77.8588 3.46421 77.9846 3.51662 78.0894 3.62144C78.1942 3.72625 78.2466 3.85203 78.2466 3.99878ZM92.1794 12.6148V12.8742C92.1794 12.9476 92.1427 12.9843 92.0694 12.9843H91.5427C91.4693 12.9843 91.4326 12.9476 91.4326 12.8742V12.6148C91.4378 12.1536 91.4405 11.5797 91.4405 10.8932V10.6888V10.4844C91.4405 10.3271 91.4405 10.183 91.4405 10.052C91.4457 9.71659 91.4483 9.40737 91.4483 9.12437V8.88066C91.4483 8.80205 91.4431 8.7313 91.4326 8.66841C91.4221 8.5269 91.3933 8.38802 91.3461 8.25176C91.2518 7.97399 91.1024 7.72767 90.898 7.51279C90.6989 7.30316 90.4578 7.14331 90.1748 7.03325C90.0438 6.98084 89.9075 6.94416 89.766 6.92319H89.711L89.6638 6.91533L89.6088 6.90747C89.593 6.90747 89.5747 6.90747 89.5537 6.90747H89.4908H89.483H89.4751H89.4515H89.3965H89.3415C89.0742 6.92319 88.82 6.99132 88.5789 7.11187C88.3641 7.22192 88.1754 7.36343 88.0129 7.53638C87.8767 7.68836 87.764 7.85607 87.6749 8.0395C87.6067 8.18101 87.557 8.32775 87.5255 8.47974C87.5098 8.53215 87.4993 8.58979 87.4941 8.65269C87.4941 8.67365 87.4915 8.69461 87.4862 8.71558V8.77061C87.481 8.82301 87.4783 8.86232 87.4783 8.88853L87.4705 9.1165V9.12437C87.4705 9.26587 87.4705 9.4231 87.4705 9.59604C87.4705 9.71134 87.4705 9.86333 87.4705 10.052V10.2721L87.4783 10.4844C87.4783 10.6416 87.4783 10.7779 87.4783 10.8932C87.4783 11.5797 87.4783 12.1536 87.4783 12.6148V12.8742C87.4836 12.9476 87.4495 12.9843 87.3762 12.9843H86.8494C86.7761 12.9843 86.7394 12.9476 86.7394 12.8742V12.6148C86.7394 12.1536 86.742 11.5797 86.7472 10.8932C86.7472 10.7307 86.7472 10.4503 86.7472 10.052C86.7472 9.86333 86.7472 9.71134 86.7472 9.59604C86.7472 9.4231 86.7472 9.26587 86.7472 9.12437L86.7551 8.88066C86.7499 8.80205 86.7446 8.7313 86.7394 8.66841C86.7237 8.5269 86.6948 8.38802 86.6529 8.25176C86.5586 7.97399 86.4092 7.72767 86.2048 7.51279C86.0057 7.30316 85.7646 7.14331 85.4816 7.03325C85.3505 6.98084 85.2117 6.94416 85.0649 6.92319H85.0178L84.9627 6.91533L84.9156 6.90747C84.8946 6.90747 84.8762 6.90747 84.8605 6.90747H84.7976H84.7819H84.7505H84.6483C84.381 6.92319 84.1268 6.99132 83.8857 7.11187C83.6708 7.22192 83.4822 7.36343 83.3197 7.53638C83.1782 7.68836 83.0655 7.85607 82.9817 8.0395C82.9083 8.18101 82.8559 8.32775 82.8244 8.47974C82.814 8.53215 82.8061 8.58979 82.8009 8.65269L82.793 8.71558L82.7851 8.77061C82.7851 8.82301 82.7851 8.86232 82.7851 8.88853L82.7694 9.21084V12.8742C82.7694 12.9476 82.7327 12.9843 82.6594 12.9843H82.1405C82.0671 12.9843 82.0304 12.9476 82.0304 12.8742V6.25498C82.0304 6.18161 82.0671 6.14492 82.1405 6.14492H82.6594C82.7327 6.14492 82.7694 6.18161 82.7694 6.25498V7.15903L82.8244 7.08828C83.0393 6.85244 83.2909 6.65853 83.5791 6.50654C83.8988 6.34408 84.2395 6.24974 84.6011 6.22353L84.6719 6.21567H84.7426H84.7741H84.8134H84.8762C84.892 6.21567 84.9156 6.21567 84.947 6.21567L85.0178 6.22353L85.0964 6.2314L85.1671 6.23926C85.361 6.26546 85.5471 6.31263 85.7253 6.38076C86.1079 6.52227 86.4354 6.73714 86.7079 7.02539C86.8809 7.20358 87.0276 7.40273 87.1482 7.62285C87.253 7.42894 87.3788 7.25075 87.5255 7.08828C87.7404 6.85244 87.9893 6.65853 88.2723 6.50654C88.592 6.34408 88.9327 6.24974 89.2943 6.22353L89.3651 6.21567H89.4358H89.4751H89.5144H89.5773C89.5878 6.21567 89.6088 6.21567 89.6402 6.21567L89.7188 6.22353L89.7896 6.2314L89.8603 6.23926C90.0542 6.26546 90.2403 6.31263 90.4185 6.38076C90.8011 6.52227 91.1312 6.73714 91.409 7.02539C91.6868 7.31364 91.8912 7.64644 92.0222 8.02378C92.0851 8.20721 92.127 8.39588 92.148 8.58979C92.1585 8.67889 92.1637 8.77585 92.1637 8.88066V9.12437C92.1637 9.34972 92.1663 9.65894 92.1716 10.052V10.2721V10.4844C92.1716 10.6416 92.1716 10.7779 92.1716 10.8932C92.1716 11.5797 92.1742 12.1536 92.1794 12.6148ZM96.4113 11.4749C96.9354 11.999 97.5643 12.261 98.2981 12.261C99.037 12.261 99.6685 11.999 100.193 11.4749C100.717 10.9508 100.979 10.3219 100.979 9.58818C100.979 8.84922 100.717 8.21769 100.193 7.6936C99.6685 7.16951 99.037 6.90747 98.2981 6.90747C97.5643 6.90747 96.9354 7.16951 96.4113 7.6936C95.8872 8.21769 95.6252 8.84922 95.6252 9.58818C95.6252 10.3219 95.8872 10.9508 96.4113 11.4749ZM96.9459 6.45151C97.491 6.21567 98.0648 6.1292 98.6675 6.19209C99.4537 6.2707 100.132 6.59302 100.704 7.15903C101.275 7.72505 101.605 8.40112 101.694 9.18726C101.752 9.69038 101.702 10.1804 101.545 10.6573C101.398 11.108 101.162 11.5116 100.837 11.868C100.518 12.2243 100.143 12.4995 99.7131 12.6934C99.2676 12.8978 98.7959 13 98.2981 13C97.7687 13 97.2682 12.8821 96.7965 12.6462C96.3353 12.4209 95.9449 12.1064 95.6252 11.7029V12.8899C95.6252 12.9633 95.5885 13 95.5151 13H94.9963C94.9229 13 94.8862 12.9633 94.8862 12.8899V1.84478C94.8862 1.7714 94.9229 1.73472 94.9963 1.73472H95.5151C95.5885 1.73472 95.6252 1.7714 95.6252 1.84478V7.46562C95.9816 7.01491 96.4218 6.67687 96.9459 6.45151ZM107.656 7.3084C107.608 7.35033 107.559 7.35295 107.506 7.31626C107.459 7.27433 107.409 7.23765 107.357 7.2062C107.294 7.15903 107.231 7.11973 107.168 7.08828C106.99 6.99395 106.804 6.92581 106.61 6.88389C106.463 6.85768 106.34 6.84196 106.241 6.83672H106.138H106.036C105.999 6.83672 105.96 6.83934 105.918 6.84458H105.871L105.824 6.85244C105.656 6.8734 105.517 6.90747 105.407 6.95464C105.266 7.00705 105.153 7.08042 105.069 7.17476C104.975 7.26385 104.909 7.37915 104.873 7.52065L104.857 7.57568L104.849 7.63071C104.844 7.68312 104.841 7.72243 104.841 7.74863L104.833 7.81152V7.7958V7.80366L104.841 7.82725V7.86655V7.9373L104.857 7.98447C104.857 7.99495 104.86 8.00806 104.865 8.02378L104.881 8.07881L104.896 8.12598L104.92 8.17314L104.943 8.22031L104.975 8.26748L105.014 8.31465L105.053 8.36182C105.153 8.47187 105.292 8.57931 105.47 8.68413C105.606 8.76274 105.79 8.85446 106.02 8.95928L106.099 8.99072L106.185 9.03003L106.335 9.10078L106.634 9.22656C106.88 9.34186 107.087 9.45192 107.255 9.55674C107.496 9.70872 107.69 9.87381 107.836 10.052C108.025 10.2669 108.146 10.508 108.198 10.7752L108.222 10.8774C108.227 10.9194 108.229 10.9534 108.229 10.9796L108.237 11.074V11.129V11.1604V11.184V11.2233V11.2626C108.232 11.2941 108.229 11.3229 108.229 11.3491L108.214 11.4513L108.198 11.5535C108.146 11.8156 108.041 12.0488 107.884 12.2532C107.732 12.4471 107.543 12.6017 107.318 12.717C107.139 12.8113 106.935 12.8821 106.704 12.9292C106.484 12.9712 106.293 12.9948 106.13 13H106.06H106.028H105.997H105.981L105.863 12.9921C105.832 12.9921 105.79 12.9895 105.737 12.9843H105.667L105.604 12.9764C105.457 12.9555 105.297 12.924 105.124 12.8821C104.873 12.8087 104.632 12.7065 104.401 12.5755C104.291 12.5178 104.191 12.4549 104.102 12.3868C104.034 12.3344 103.971 12.2846 103.914 12.2375C103.856 12.185 103.856 12.13 103.914 12.0724L104.291 11.7107C104.338 11.6636 104.388 11.661 104.44 11.7029C104.477 11.7396 104.519 11.7736 104.566 11.8051C104.629 11.8522 104.697 11.8968 104.77 11.9387C104.949 12.0383 105.132 12.1143 105.321 12.1667C105.457 12.2034 105.578 12.2296 105.682 12.2453L105.73 12.2532H105.777C105.813 12.2584 105.85 12.261 105.887 12.261L106.005 12.2689H106.02H106.052L106.107 12.261C106.227 12.261 106.377 12.2479 106.555 12.2217C106.723 12.185 106.864 12.1353 106.979 12.0724C107.262 11.9309 107.433 11.7081 107.49 11.4042L107.498 11.3491L107.506 11.302C107.511 11.2862 107.514 11.2626 107.514 11.2312V11.1919V11.1526L107.522 11.129V11.1211V11.1133C107.522 11.129 107.522 11.1342 107.522 11.129L107.514 11.0976V11.0425C107.514 11.0268 107.511 11.0058 107.506 10.9796L107.498 10.9246C107.467 10.7726 107.399 10.6337 107.294 10.508C107.116 10.2983 106.796 10.0861 106.335 9.87119L106.028 9.73755L105.879 9.6668L105.816 9.63535L105.737 9.60391C105.481 9.48861 105.274 9.38379 105.116 9.28945C104.875 9.14795 104.679 8.99334 104.527 8.82563C104.506 8.80467 104.485 8.77847 104.464 8.74702L104.401 8.66841C104.354 8.59504 104.32 8.53477 104.299 8.4876L104.252 8.39326C104.236 8.35658 104.225 8.32513 104.22 8.29893C104.194 8.21507 104.176 8.14432 104.165 8.08667L104.149 7.97661V7.90586L104.142 7.86655V7.84297V7.83511V7.81152V7.80366L104.149 7.70933C104.149 7.66216 104.155 7.60189 104.165 7.52852L104.181 7.43418L104.204 7.33984C104.273 7.08304 104.396 6.86554 104.574 6.68735C104.731 6.53013 104.925 6.40435 105.156 6.31001C105.323 6.24712 105.517 6.19995 105.737 6.16851H105.816L105.887 6.16064C105.939 6.1554 105.981 6.15278 106.013 6.15278H106.138H106.272C106.408 6.15802 106.568 6.17899 106.751 6.21567C107.008 6.27332 107.255 6.36504 107.49 6.49082C107.58 6.53799 107.663 6.58778 107.742 6.64019C107.8 6.68211 107.857 6.72666 107.915 6.77383C107.931 6.78431 107.952 6.80265 107.978 6.82886C108.036 6.88127 108.036 6.93367 107.978 6.98608L107.656 7.3084Z" fill="#003683"/>
<path d="M120.799 6.68735H123.605C124.093 6.68735 124.509 6.5144 124.855 6.16851C125.201 5.82261 125.374 5.40858 125.374 4.92642C125.374 4.43901 125.201 4.02236 124.855 3.67646C124.509 3.33581 124.093 3.16548 123.605 3.16548H120.799V6.68735ZM124.305 8.02378L126.954 12.8506C126.97 12.8821 126.967 12.9161 126.946 12.9528C126.93 12.9843 126.902 13 126.86 13H125.46C125.418 13 125.39 12.9817 125.374 12.945L122.733 8.12598L122.74 8.11812H120.799V12.8742C120.799 12.9424 120.765 12.9764 120.696 12.9764H119.47C119.402 12.9764 119.368 12.9424 119.368 12.8742V1.83691C119.368 1.76878 119.402 1.73472 119.47 1.73472H123.605C124.507 1.73472 125.272 2.05703 125.901 2.70166C126.53 3.34629 126.831 4.11932 126.805 5.02075C126.778 5.74923 126.53 6.39386 126.058 6.95464C125.591 7.49969 125.007 7.85607 124.305 8.02378ZM129.772 9.10078L133.844 8.74702C133.729 8.29631 133.49 7.9373 133.129 7.67002C132.767 7.39749 132.335 7.26123 131.832 7.26123C131.302 7.26123 130.846 7.43418 130.464 7.78008C130.081 8.12074 129.85 8.56097 129.772 9.10078ZM129.418 6.95464C130.084 6.27332 130.896 5.93529 131.855 5.94053C132.793 5.94577 133.592 6.29167 134.253 6.97822C134.913 7.65954 135.243 8.47187 135.243 9.41523V9.86333C135.243 9.92622 135.212 9.96029 135.149 9.96553L129.961 10.4136C130.139 10.791 130.406 11.0949 130.762 11.3255C131.124 11.5561 131.52 11.6714 131.949 11.6714C132.327 11.6714 132.681 11.5823 133.011 11.4042C133.346 11.2207 133.613 10.9718 133.813 10.6573C133.849 10.5997 133.896 10.5866 133.954 10.618L134.921 11.184C134.984 11.2155 134.997 11.2626 134.96 11.3255C134.641 11.8444 134.211 12.2532 133.671 12.5519C133.137 12.8506 132.563 13 131.949 13C130.98 13 130.149 12.6541 129.457 11.9623C128.766 11.2757 128.42 10.4451 128.42 9.47026C128.42 8.4745 128.753 7.63595 129.418 6.95464ZM139.791 11.0425C140.22 11.4618 140.734 11.6714 141.331 11.6714C141.939 11.6714 142.461 11.4566 142.896 11.0268C143.326 10.5971 143.541 10.0782 143.541 9.47026C143.541 8.86232 143.326 8.34085 142.896 7.90586C142.461 7.47611 141.939 7.26123 141.331 7.26123C140.734 7.26123 140.22 7.47087 139.791 7.89014C139.366 8.30941 139.146 8.81777 139.13 9.41523V9.51743C139.146 10.1149 139.366 10.6233 139.791 11.0425ZM139.13 6.71094C139.817 6.16064 140.6 5.90384 141.481 5.94053C142.377 5.97721 143.15 6.31263 143.8 6.94678C144.45 7.58092 144.804 8.34347 144.861 9.23442C144.893 9.73755 144.822 10.2223 144.649 10.6888C144.481 11.1395 144.232 11.5378 143.902 11.8837C143.205 12.6279 142.348 13 141.331 13C140.509 13 139.775 12.7406 139.13 12.2217V12.8742C139.13 12.9424 139.096 12.9764 139.028 12.9764H137.888C137.82 12.9764 137.786 12.9424 137.786 12.8742V1.82119C137.786 1.75306 137.82 1.71899 137.888 1.71899H139.028C139.096 1.71899 139.13 1.75306 139.13 1.82119V6.71094ZM151.649 10.0913V5.95625C151.649 5.88812 151.683 5.85405 151.751 5.85405H152.891C152.959 5.85405 152.993 5.88812 152.993 5.95625V12.8428C152.993 12.9109 152.959 12.945 152.891 12.945H151.751C151.683 12.945 151.649 12.9109 151.649 12.8428V12.4654C151.518 12.5598 151.39 12.6384 151.264 12.7013C150.918 12.8742 150.554 12.9712 150.171 12.9921L150.1 13H150.061H150.045H150.006H149.888L149.802 12.9921L149.723 12.9843L149.644 12.9764L149.574 12.9686C149.369 12.9319 149.17 12.8768 148.976 12.8035C148.583 12.6515 148.24 12.4156 147.946 12.0959C147.653 11.7763 147.443 11.4146 147.317 11.0111C147.26 10.8119 147.223 10.6075 147.207 10.3979C147.202 10.3088 147.197 10.2145 147.192 10.1149V9.99697V9.88691C147.192 9.65632 147.192 9.3602 147.192 8.99858V8.78633L147.184 8.58193C147.184 8.43519 147.184 8.30941 147.184 8.20459C147.179 7.54424 147.176 6.99657 147.176 6.56157V6.00342C147.176 5.93005 147.21 5.89336 147.278 5.89336H148.402C148.47 5.89336 148.504 5.93005 148.504 6.00342L148.497 6.56157C148.497 6.99657 148.494 7.54424 148.489 8.20459C148.489 8.38802 148.489 8.65269 148.489 8.99858L148.481 9.21084V9.43096C148.481 9.59867 148.481 9.75065 148.481 9.88691V10.0048V10.1149C148.481 10.204 148.481 10.2669 148.481 10.3036C148.491 10.4189 148.512 10.5315 148.544 10.6416C148.607 10.867 148.717 11.0687 148.874 11.2469C149.036 11.4251 149.225 11.5588 149.44 11.6479C149.55 11.6898 149.66 11.7212 149.77 11.7422L149.817 11.75L149.857 11.7579H149.927L150.03 11.7658H150.069H150.108C150.538 11.75 150.9 11.5876 151.193 11.2784C151.308 11.1631 151.403 11.0294 151.476 10.8774C151.528 10.7674 151.57 10.6495 151.602 10.5237C151.612 10.466 151.62 10.4189 151.625 10.3822L151.633 10.3586V10.335V10.2957L151.641 10.1778L151.649 10.0913ZM155.898 5.94053H157.014C157.082 5.94053 157.116 5.97459 157.116 6.04272V12.8978C157.116 12.9659 157.082 13 157.014 13H155.898C155.829 13 155.795 12.9659 155.795 12.8978V6.04272C155.795 5.97459 155.829 5.94053 155.898 5.94053ZM156.99 4.42329C156.844 4.57004 156.665 4.64341 156.456 4.64341C156.246 4.64341 156.068 4.57004 155.921 4.42329C155.769 4.27131 155.693 4.09049 155.693 3.88086C155.693 3.67122 155.769 3.49303 155.921 3.34629C156.068 3.19954 156.246 3.12617 156.456 3.12617C156.665 3.12617 156.844 3.19954 156.99 3.34629C157.137 3.49303 157.21 3.67122 157.21 3.88086C157.21 4.09049 157.137 4.27131 156.99 4.42329ZM161.003 13H159.855C159.787 13 159.753 12.9659 159.753 12.8978V1.82119C159.753 1.75306 159.787 1.71899 159.855 1.71899H161.003C161.071 1.71899 161.105 1.75306 161.105 1.82119V12.8978C161.105 12.9659 161.071 13 161.003 13ZM168.773 9.52529V9.4231C168.758 8.82563 168.538 8.31727 168.113 7.898C167.683 7.47873 167.17 7.26909 166.572 7.26909C165.964 7.26909 165.446 7.48397 165.016 7.91372C164.586 8.34347 164.371 8.86232 164.371 9.47026C164.371 10.0782 164.586 10.5997 165.016 11.0347C165.446 11.4644 165.964 11.6793 166.572 11.6793C167.17 11.6793 167.683 11.4697 168.113 11.0504C168.538 10.6311 168.758 10.1228 168.773 9.52529ZM168.773 6.7188V1.83691C168.773 1.76878 168.808 1.73472 168.876 1.73472H170.016C170.084 1.73472 170.118 1.76878 170.118 1.83691V12.8821C170.118 12.9502 170.084 12.9843 170.016 12.9843H168.876C168.808 12.9843 168.773 12.9502 168.773 12.8821V12.2296C168.129 12.7432 167.395 13 166.572 13C166.074 13 165.6 12.9004 165.149 12.7013C164.714 12.5074 164.334 12.2375 164.01 11.8916C163.307 11.1473 162.988 10.2643 163.05 9.24229C163.108 8.35133 163.462 7.58879 164.112 6.95464C164.762 6.32049 165.535 5.98507 166.431 5.94839C167.306 5.9117 168.087 6.16851 168.773 6.7188ZM173.022 5.94053H174.138C174.207 5.94053 174.241 5.97459 174.241 6.04272V12.8978C174.241 12.9659 174.207 13 174.138 13H173.022C172.954 13 172.92 12.9659 172.92 12.8978V6.04272C172.92 5.97459 172.954 5.94053 173.022 5.94053ZM174.115 4.42329C173.968 4.57004 173.79 4.64341 173.58 4.64341C173.371 4.64341 173.192 4.57004 173.046 4.42329C172.894 4.27131 172.818 4.09049 172.818 3.88086C172.818 3.67122 172.894 3.49303 173.046 3.34629C173.192 3.19954 173.371 3.12617 173.58 3.12617C173.79 3.12617 173.968 3.19954 174.115 3.34629C174.262 3.49303 174.335 3.67122 174.335 3.88086C174.335 4.09049 174.262 4.27131 174.115 4.42329ZM182.538 9.9105C182.538 10.2616 182.538 10.5237 182.538 10.6966C182.543 11.3465 182.546 11.8889 182.546 12.3239L182.553 12.8821C182.553 12.9502 182.519 12.9843 182.451 12.9843H181.319C181.251 12.9843 181.217 12.9502 181.217 12.8821L181.225 12.3239C181.225 11.8889 181.228 11.3465 181.233 10.6966C181.233 10.5237 181.235 10.2616 181.241 9.9105V9.69824V9.47812C181.241 9.31566 181.241 9.16629 181.241 9.03003V8.80205L181.233 8.63696C181.222 8.52166 181.201 8.4116 181.17 8.30679C181.096 8.08667 180.979 7.89014 180.816 7.71719C180.659 7.54948 180.468 7.4237 180.242 7.33984C180.143 7.29792 180.035 7.26909 179.92 7.25337L179.873 7.24551C179.857 7.24027 179.847 7.23765 179.841 7.23765H179.818H179.802C179.792 7.23765 179.776 7.23765 179.755 7.23765L179.7 7.22979H179.684H179.668H179.621L179.582 7.23765C179.163 7.25337 178.809 7.41846 178.521 7.73291C178.405 7.84821 178.314 7.97923 178.245 8.12598C178.188 8.24128 178.146 8.3592 178.12 8.47974C178.104 8.53739 178.093 8.58193 178.088 8.61338V8.64482V8.66841L178.08 8.70771C178.08 8.75488 178.078 8.79157 178.073 8.81777V8.91211V12.8978C178.073 12.9659 178.038 13 177.97 13H176.823C176.754 13 176.72 12.9659 176.72 12.8978V5.99556C176.72 5.92742 176.754 5.89336 176.823 5.89336H177.97C178.038 5.89336 178.073 5.92742 178.073 5.99556V6.53013C178.193 6.44103 178.311 6.36766 178.426 6.31001C178.762 6.13706 179.121 6.03486 179.503 6.00342L179.574 5.99556H179.645H179.684H179.716H179.731H179.786C179.802 5.99556 179.826 5.99556 179.857 5.99556L179.896 6.00342H179.936C179.962 6.00342 179.988 6.00604 180.014 6.01128L180.093 6.01914C180.297 6.05059 180.494 6.10037 180.682 6.16851C181.086 6.31525 181.432 6.54061 181.72 6.84458C182.019 7.14855 182.236 7.49969 182.373 7.898C182.441 8.09191 182.485 8.29106 182.506 8.49546C182.522 8.59504 182.53 8.69723 182.53 8.80205V9.03003C182.53 9.16629 182.53 9.31566 182.53 9.47812V9.69824L182.538 9.9105ZM186.472 11.0347C186.902 11.4644 187.423 11.6793 188.036 11.6793C188.644 11.6793 189.166 11.4644 189.601 11.0347C190.03 10.5997 190.245 10.0782 190.245 9.47026C190.245 8.86232 190.03 8.34085 189.601 7.90586C189.166 7.47611 188.644 7.26123 188.036 7.26123C187.423 7.26123 186.902 7.47611 186.472 7.90586C186.037 8.34085 185.819 8.86232 185.819 9.47026C185.819 10.0782 186.037 10.5997 186.472 11.0347ZM190.285 6.74238V6.01914C190.285 5.95101 190.319 5.91694 190.387 5.91694H191.511C191.579 5.91694 191.613 5.95101 191.613 6.01914V12.9057C191.613 13.8805 191.267 14.7138 190.575 15.4056C189.884 16.0974 189.05 16.4433 188.076 16.4433C187.462 16.4433 186.886 16.2939 186.346 15.9952C185.812 15.6912 185.384 15.2798 185.065 14.7609C185.028 14.7033 185.038 14.6561 185.096 14.6194L186.071 14.0613C186.129 14.0246 186.176 14.0351 186.212 14.0927C186.474 14.5068 186.833 14.8002 187.289 14.9732C187.761 15.1514 188.238 15.1671 188.72 15.0204C189.187 14.8789 189.567 14.6037 189.86 14.1949C190.143 13.7914 190.285 13.3407 190.285 12.8428V12.1981C189.629 12.738 188.88 13.0079 188.036 13.0079C187.538 13.0079 187.061 12.9083 186.606 12.7091C186.171 12.5152 185.788 12.2427 185.458 11.8916C184.755 11.1473 184.438 10.2616 184.507 9.23442C184.564 8.33823 184.921 7.57044 185.576 6.93105C186.236 6.29691 187.017 5.96411 187.918 5.93267C188.809 5.90122 189.598 6.17113 190.285 6.74238ZM197.888 13H196.74C196.672 13 196.638 12.9659 196.638 12.8978V1.82119C196.638 1.75306 196.672 1.71899 196.74 1.71899H197.888C197.956 1.71899 197.99 1.75306 197.99 1.82119V12.8978C197.99 12.9659 197.956 13 197.888 13ZM200.886 5.94053H202.003C202.071 5.94053 202.105 5.97459 202.105 6.04272V12.8978C202.105 12.9659 202.071 13 202.003 13H200.886C200.818 13 200.784 12.9659 200.784 12.8978V6.04272C200.784 5.97459 200.818 5.94053 200.886 5.94053ZM201.979 4.42329C201.832 4.57004 201.654 4.64341 201.445 4.64341C201.235 4.64341 201.057 4.57004 200.91 4.42329C200.758 4.27131 200.682 4.09049 200.682 3.88086C200.682 3.67122 200.758 3.49303 200.91 3.34629C201.057 3.19954 201.235 3.12617 201.445 3.12617C201.654 3.12617 201.832 3.19954 201.979 3.34629C202.126 3.49303 202.199 3.67122 202.199 3.88086C202.199 4.09049 202.126 4.27131 201.979 4.42329ZM206.833 10.5001L208.531 5.93267C208.547 5.89074 208.578 5.86978 208.625 5.86978H209.844C209.881 5.86978 209.909 5.88288 209.93 5.90908C209.951 5.94053 209.954 5.97197 209.938 6.00342L207.383 12.9057C207.368 12.9528 207.334 12.9764 207.281 12.9764H206.385C206.338 12.9764 206.306 12.9528 206.291 12.9057L203.728 6.00342C203.717 5.97197 203.723 5.94053 203.744 5.90908C203.759 5.88288 203.785 5.86978 203.822 5.86978H205.041C205.093 5.86978 205.127 5.89074 205.143 5.93267L206.833 10.5001ZM212.332 9.10078L216.404 8.74702C216.288 8.29631 216.05 7.9373 215.688 7.67002C215.327 7.39749 214.894 7.26123 214.391 7.26123C213.862 7.26123 213.406 7.43418 213.023 7.78008C212.641 8.12074 212.41 8.56097 212.332 9.10078ZM211.978 6.95464C212.643 6.27332 213.456 5.93529 214.415 5.94053C215.353 5.94577 216.152 6.29167 216.812 6.97822C217.473 7.65954 217.803 8.47187 217.803 9.41523V9.86333C217.803 9.92622 217.772 9.96029 217.709 9.96553L212.52 10.4136C212.698 10.791 212.966 11.0949 213.322 11.3255C213.684 11.5561 214.079 11.6714 214.509 11.6714C214.886 11.6714 215.24 11.5823 215.57 11.4042C215.906 11.2207 216.173 10.9718 216.372 10.6573C216.409 10.5997 216.456 10.5866 216.514 10.618L217.481 11.184C217.544 11.2155 217.557 11.2626 217.52 11.3255C217.2 11.8444 216.771 12.2532 216.231 12.5519C215.696 12.8506 215.122 13 214.509 13C213.54 13 212.709 12.6541 212.017 11.9623C211.325 11.2757 210.979 10.4451 210.979 9.47026C210.979 8.4745 211.312 7.63595 211.978 6.95464ZM224.276 10.7595L224.284 10.8696V10.9246V10.9954V11.0661V11.0897L224.276 11.1054C224.276 11.1211 224.276 11.1369 224.276 11.1526L224.261 11.2705L224.245 11.3884C224.187 11.6819 224.069 11.944 223.891 12.1746C223.723 12.3947 223.514 12.5676 223.262 12.6934C223.068 12.793 222.848 12.8716 222.602 12.9292C222.377 12.9712 222.177 12.9948 222.004 13H221.934H221.902H221.863H221.847L221.737 12.9921C221.706 12.9921 221.664 12.9921 221.611 12.9921C221.575 12.9869 221.528 12.9817 221.47 12.9764C221.313 12.9555 221.145 12.9214 220.967 12.8742C220.705 12.8061 220.456 12.7039 220.22 12.5676C220.099 12.4995 219.987 12.4261 219.882 12.3475C219.809 12.2951 219.743 12.2401 219.685 12.1824C219.633 12.1353 219.633 12.0855 219.685 12.0331L220.503 11.2548C220.545 11.2181 220.589 11.2155 220.637 11.2469C220.678 11.2836 220.718 11.3151 220.754 11.3413C220.802 11.3727 220.841 11.3989 220.872 11.4199C221.019 11.5037 221.171 11.5666 221.328 11.6085L221.399 11.6321L221.47 11.6479L221.509 11.6557L221.548 11.6636C221.58 11.6688 221.604 11.6714 221.619 11.6714L221.651 11.6793H221.682C221.714 11.6845 221.748 11.6872 221.784 11.6872L221.894 11.695L221.965 11.6872C222.065 11.6872 222.188 11.6767 222.335 11.6557C222.466 11.6243 222.573 11.5876 222.657 11.5457C222.83 11.4513 222.937 11.3124 222.979 11.129L222.987 11.0976L222.995 11.074C222.995 11.074 222.995 11.0661 222.995 11.0504V11.0268V11.0111L223.003 10.9403V10.9246V10.9089L222.995 10.8696C223 10.8591 223 10.8486 222.995 10.8381L222.987 10.7988C222.971 10.7097 222.929 10.6233 222.861 10.5394C222.725 10.3769 222.46 10.204 222.067 10.0206L221.776 9.88691L221.635 9.82402L221.604 9.8083L221.58 9.80044V9.79258L221.509 9.76899C221.258 9.65369 221.053 9.54888 220.896 9.45454C220.639 9.30256 220.43 9.13747 220.267 8.95928C220.246 8.93831 220.223 8.90949 220.196 8.8728L220.133 8.77847C220.081 8.70509 220.042 8.63958 220.016 8.58193L219.96 8.47187C219.945 8.42995 219.932 8.39326 219.921 8.36182L219.89 8.2439L219.874 8.18101L219.866 8.11812C219.856 8.07095 219.848 8.0264 219.843 7.98447V7.91372L219.835 7.87441V7.85869V7.85083V7.81938V7.80366C219.835 7.79842 219.835 7.80104 219.835 7.81152V7.80366L219.843 7.70146C219.843 7.64381 219.848 7.57568 219.858 7.49707C219.864 7.4499 219.879 7.38177 219.905 7.29268C219.984 6.99919 220.126 6.75286 220.33 6.55371C220.503 6.37028 220.718 6.22878 220.975 6.1292C221.158 6.06107 221.365 6.01128 221.596 5.97983C221.737 5.96935 221.831 5.96411 221.879 5.96411L222.012 5.95625L222.146 5.96411C222.293 5.96935 222.458 5.99032 222.641 6.027C222.908 6.08989 223.165 6.18685 223.412 6.31787C223.506 6.36504 223.592 6.41745 223.671 6.4751C223.739 6.51702 223.802 6.56157 223.86 6.60874C223.875 6.62446 223.902 6.65067 223.938 6.68735C223.996 6.73452 223.999 6.78431 223.946 6.83672L223.223 7.53638C223.181 7.5783 223.136 7.58092 223.089 7.54424C223.047 7.51279 223.008 7.48397 222.971 7.45776C222.919 7.42632 222.877 7.40011 222.846 7.37915C222.699 7.30578 222.547 7.25075 222.39 7.21406C222.269 7.1931 222.17 7.18262 222.091 7.18262L222.004 7.17476L221.918 7.18262C221.881 7.18262 221.847 7.18262 221.816 7.18262L221.776 7.19048H221.745C221.614 7.21144 221.507 7.23765 221.423 7.26909C221.334 7.31102 221.263 7.35819 221.21 7.4106C221.158 7.463 221.121 7.53114 221.1 7.61499L221.093 7.64644L221.085 7.68574L221.077 7.72505V7.76436V7.80366V7.84297L221.085 7.91372V7.92158H221.093V7.92944V7.9373L221.1 7.96875L221.108 7.99233L221.124 8.01592L221.155 8.07095L221.179 8.10239L221.203 8.13384C221.276 8.21245 221.383 8.29368 221.525 8.37754C221.645 8.44567 221.811 8.52428 222.02 8.61338L222.083 8.64482L222.177 8.68413L222.319 8.75488L222.594 8.8728C222.84 8.98286 223.047 9.09292 223.215 9.20298C223.472 9.3602 223.679 9.53315 223.836 9.72183C224.046 9.96291 224.182 10.2354 224.245 10.5394L224.261 10.6495C224.271 10.6966 224.276 10.7333 224.276 10.7595ZM226.654 13C226.444 13 226.263 12.9266 226.112 12.7799C225.965 12.6279 225.891 12.4471 225.891 12.2375C225.891 12.0278 225.965 11.8496 226.112 11.7029C226.263 11.5561 226.444 11.4828 226.654 11.4828C226.864 11.4828 227.042 11.5561 227.189 11.7029C227.335 11.8496 227.409 12.0278 227.409 12.2375C227.409 12.4471 227.335 12.6279 227.189 12.7799C227.042 12.9266 226.864 13 226.654 13Z" fill="#003683"/>
<path d="M113.55 0.0800037V18.104" stroke="#003683" stroke-width="0.62"/>
</svg>
