<svg width="139" height="172" viewBox="0 0 139 172" fill="none" xmlns="http://www.w3.org/2000/svg">
<path d="M35.9713 0.382599H41.4563C46.6753 1.7916 50.3373 4.7566 53.1113 8.6096C61.9663 5.2766 76.6163 4.7516 85.3333 8.6096C89.1093 5.5296 91.9853 1.5496 97.6743 0.382599H103.159C119.202 0.458599 125.187 27.6906 108.643 31.9196C112.535 41.7976 110.545 56.7796 105.215 63.4566C120.272 72.3966 133.989 82.6746 138.809 101.851V107.335C139.083 119.733 122.871 122.754 114.128 116.248C114.76 123.669 119.998 121.656 123.726 125.846C137.189 140.972 125.288 169.521 105.901 171.095H100.416C91.9033 168.869 85.3153 164.715 83.2763 156.012C76.4883 158.214 65.0053 157.55 57.2243 156.698C52.6203 162.835 48.5833 169.539 39.3993 171.095H33.9143C13.9423 170.672 0.0942612 137.106 18.1463 123.104C20.4333 121.33 25.5733 121.856 25.0023 116.934C17.4033 121.421 -0.252739 120.676 0.320261 107.335V101.851C5.30326 83.0656 18.0943 72.0906 33.9143 64.1426C29.5223 57.2296 25.9263 42.8846 30.4863 33.2906C15.3453 27.5826 18.6933 1.1566 35.9713 0.382599ZM32.5433 27.1206C36.3603 20.1966 42.1573 15.2526 48.3123 10.6666C37.4023 -5.3284 13.1973 20.4786 32.5433 27.1206ZM90.8183 11.3516C98.2223 14.6886 102.26 21.3916 107.272 27.1206C125.953 19.3806 100.367 -5.57541 90.8183 11.3516ZM94.2463 19.5796C80.7623 8.06761 57.7983 8.55361 44.8843 19.5796C29.4113 32.7896 29.7173 63.2946 51.0543 73.0556C48.9603 68.0456 46.3423 65.8596 46.9403 59.3436C48.9273 37.7076 91.0543 39.9356 92.1893 60.0286C92.5403 66.2266 89.5413 68.2336 88.7613 73.0556C108.548 63.9096 109.766 32.8296 94.2463 19.5796ZM49.6833 58.6576C45.6733 85.8966 94.2553 84.3346 89.4473 57.9726C87.9333 49.6716 79.2933 45.8436 66.8233 47.0026C56.4423 47.9676 50.7183 51.6226 49.6833 58.6576ZM35.9713 68.2566C27.4443 73.5476 0.719262 90.6326 5.80526 109.392C8.10426 117.87 20.5093 114.813 24.3163 109.392C25.8703 92.8916 33.6023 82.5696 42.1413 73.0556C39.5813 71.9586 39.0943 68.7906 35.9713 68.2566ZM102.473 79.2256C109.638 88.3616 113.42 97.3926 114.814 109.392C119.269 115.407 131.201 117.225 133.325 109.392C138.62 89.8636 112.149 74.0686 102.473 68.2566C95.3883 72.6416 98.2713 73.8666 102.473 79.2256ZM46.9403 77.1686C37.1313 84.2716 27.9363 97.9286 29.8013 118.99C47.6543 121.019 57.3623 131.193 57.2243 151.213C64.2143 153.084 74.9153 153.084 81.9053 151.213C81.6563 131.081 91.0673 120.611 109.329 118.99C110.925 97.5126 102.715 85.8396 92.1893 76.4836C82.3743 84.9336 57.7173 84.2506 46.9403 77.1686ZM31.8573 165.611C62.6643 171.519 55.2993 118.558 27.0583 125.161C5.56526 130.186 16.3263 162.632 31.8573 165.611ZM98.3603 164.925C127.727 172.937 133.731 119.03 103.844 125.161C86.7093 128.676 78.2643 159.443 98.3603 164.925Z" fill="#7DC6B7"/>
<path d="M88.7618 73.0554C89.5418 68.2334 92.5408 66.2264 92.1898 60.0294C91.0538 39.9354 48.9278 37.7074 46.9408 59.3434C46.3428 65.8594 48.9608 68.0454 51.0548 73.0554C29.7178 63.2954 29.4118 32.7894 44.8838 19.5794C57.7988 8.55342 80.7628 8.06742 94.2468 19.5794C109.767 32.8294 108.549 63.9094 88.7618 73.0554ZM57.2248 40.8324C58.8168 39.1554 59.0238 35.0384 57.9108 32.6054C47.4028 25.2074 44.7848 46.1064 57.2248 40.8324ZM90.8188 35.3474C89.6428 28.3604 76.8548 30.6244 81.2198 40.1474C86.3918 43.6934 91.5858 39.9034 90.8188 35.3474Z" fill="#4FB29E"/>
<path d="M57.9107 32.6056C59.0247 35.0376 58.8167 39.1556 57.2247 40.8326C44.7847 46.1066 47.4027 25.2076 57.9107 32.6056Z" fill="#7DC6B7"/>
<path d="M81.22 40.1469C76.855 30.6239 89.643 28.3599 90.818 35.3479C91.586 39.9029 86.391 43.6929 81.22 40.1469Z" fill="#7DC6B7"/>
<path d="M77.107 51.1165C77.404 56.4405 74.855 58.9205 70.937 60.0295V68.9415C76.421 69.1705 78.155 65.6485 82.592 64.8285C80.151 73.9365 58.981 73.9365 56.54 64.8285C59.489 64.3495 62.462 69.2825 67.509 68.9415C69.082 67.5445 67.757 63.2485 68.195 60.7145C65.181 58.4725 61.393 57.0035 62.024 51.1165C65.325 49.1155 73.806 49.1155 77.107 51.1165Z" fill="#7DC6B7"/>
<path d="M42.1414 73.0555C33.6024 82.5705 25.8704 92.8924 24.3164 109.391C20.5084 114.812 8.10339 117.869 5.80539 109.391C0.718388 90.6324 27.4444 73.5485 35.9714 68.2565C39.0934 68.7905 39.5814 71.9595 42.1414 73.0555Z" fill="#4FB29E"/>
<path d="M102.473 68.2563C112.149 74.0683 138.62 89.8643 133.325 109.391C131.201 117.224 119.269 115.406 114.814 109.391C113.42 97.3923 109.638 88.3623 102.473 79.2253C98.2714 73.8663 95.3884 72.6413 102.473 68.2563Z" fill="#4FB29E"/>
</svg>
