<svg width="121" height="130" viewBox="0 0 121 130" fill="none" xmlns="http://www.w3.org/2000/svg">
<path d="M6.96034 33.3341C6.57834 33.0251 6.23234 33.0611 5.92334 33.4431L0.324343 40.3581C0.0143425 40.7401 0.0513427 41.0861 0.433343 41.3951L35.5203 69.8101C35.9023 70.1201 36.2473 70.0841 36.5573 69.7011L86.7403 7.72509C87.0493 7.34409 87.0133 6.99809 86.6313 6.68809L79.7103 1.08409C79.3293 0.775091 78.9833 0.811092 78.6743 1.19309L34.5543 55.6811L6.96034 33.3341Z" fill="#5BBBDB"/>
<path d="M89.9796 50.1891C89.8346 50.0711 89.7026 50.0851 89.5846 50.2311L87.4476 52.8701C87.3296 53.0161 87.3436 53.1471 87.4896 53.2651L100.849 64.0851C100.994 64.2031 101.126 64.1891 101.244 64.0431L120.392 40.3931C120.509 40.2471 120.496 40.1161 120.35 39.9981L117.715 37.8641C117.57 37.7461 117.438 37.7601 117.32 37.9051L100.486 58.6981L89.9796 50.1891Z" fill="#5BBBDB"/>
<path d="M26.6161 102.162C26.3281 101.929 26.0661 101.956 25.8331 102.244L21.6011 107.471C21.3671 107.759 21.3951 108.021 21.6831 108.254L48.1881 129.719C48.4771 129.953 48.7381 129.926 48.9721 129.637L86.8971 82.799C87.1301 82.511 87.1031 82.249 86.8141 82.015L81.5871 77.782C81.2981 77.548 81.0371 77.576 80.8031 77.864L47.4601 119.043L26.6161 102.162Z" fill="#5BBBDB"/>
</svg>
