<svg width="166" height="189" viewBox="0 0 166 189" fill="none" xmlns="http://www.w3.org/2000/svg">
<path d="M142.952 101.726L141.764 99.928L141.792 89.606C141.792 89.606 143.092 88.107 143.315 87.541L144.056 86.379L143.707 86.303L143.12 86.318L142.896 86.395L142.183 86.379L141.247 85.431L139.136 86.44C139.136 86.44 138.731 86.777 138.689 87.037L138.004 88.001L137.584 87.816L137.11 87.771L136.913 87.618L136.214 87.694C136.214 87.694 136.088 87.45 135.488 87.358C135.488 87.358 135.432 87.266 135.376 87.312C135.32 87.358 134.271 87.373 134.271 87.373C134.271 87.373 133.936 86.899 133.084 86.364C133.084 86.364 131.434 85.11 131.336 85.079C131.238 85.048 131.099 84.941 131.099 84.941L128.974 85.003L128.75 84.757L128.708 84.508H124.735L123.784 85.52C123.784 85.52 123.796 85.763 123.85 85.821C123.903 85.88 123.89 86.186 123.89 86.186C123.89 86.186 123.956 86.34 124.01 86.405C124.063 86.471 123.976 86.602 123.976 86.602C123.976 86.602 124.19 86.587 124.19 86.653C124.19 86.719 124.083 86.923 124.136 86.945C124.19 86.966 124.389 86.945 124.43 87.011C124.469 87.076 124.637 87.04 124.67 87.084C124.703 87.128 124.843 87.192 124.857 87.302C124.87 87.412 124.757 87.654 124.757 87.74C124.757 87.827 124.796 88.032 124.83 88.083C124.863 88.134 124.863 88.441 124.863 88.441C124.863 88.441 125.043 88.776 125.164 88.857C125.164 88.857 125.224 89.206 125.283 89.301C125.283 89.301 125.603 89.549 125.677 89.623C125.75 89.695 125.757 90.017 125.757 90.082C125.757 90.148 126.017 90.287 126.043 90.353C126.071 90.418 126.177 90.622 126.157 90.666C126.137 90.71 126.063 90.907 126.077 90.966C126.09 91.023 126.164 91.395 126.164 91.395L126.246 91.701V92.802C126.246 92.802 126.136 93.169 125.912 93.306C125.912 93.306 125.758 93.612 125.801 93.857C125.801 93.857 125.871 94.071 125.745 94.086C125.745 94.086 125.123 94.328 125.027 94.509C125.023 94.517 125.021 94.523 125.018 94.531C124.961 94.714 124.961 95.111 124.892 95.173C124.892 95.173 124.598 95.387 124.543 95.509C124.543 95.509 124.459 95.845 124.361 95.83C124.263 95.816 123.983 95.83 124.012 96.487C124.012 96.487 124.026 96.656 123.956 96.656C123.885 96.656 123.55 97.16 123.55 97.16C123.55 97.16 123.495 97.284 123.55 97.466C123.606 97.65 123.718 97.834 123.704 97.971C123.691 98.108 123.526 98.583 123.526 98.583V100.281L133.21 106.215L133.265 106.505V106.902L133.168 107.055L133.027 107.163C133.027 107.163 132.901 107.468 133.265 107.483C133.629 107.499 133.321 107.483 133.321 107.483L133.558 107.835L133.698 108.034L137.081 110.649C137.081 110.649 138.789 107.818 139.273 105.344C139.438 104.499 139.423 104.588 139.423 104.588L139.733 104.537L140.257 104.69L140.499 104.798L141.066 103.469L141.211 103.129H142.208L142.818 101.968L142.952 101.726ZM85.3823 182.119C85.3823 182.119 85.1763 182.209 84.9693 182.369C84.6743 182.597 84.3773 182.963 84.6703 183.409C85.1693 184.169 85.8093 184.699 85.8093 185.079V187.127C85.8093 187.127 87.0913 187.355 87.4473 187.127C87.8043 186.899 88.3023 188.341 88.9433 188.341C89.5833 188.341 90.7233 187.887 90.7233 187.887L91.2933 187.506C91.2933 187.506 93.4283 187.583 93.6423 187.355C93.8563 187.127 94.9963 186.597 94.9963 186.597L95.4233 186.369C95.4233 186.369 95.9933 186.976 96.4203 186.899C96.8473 186.824 97.5593 186.369 97.5593 186.369L98.8413 186.824L99.9093 187.203L100.407 186.672L100.906 186.141C100.906 186.141 101.334 186.445 101.761 186.52C102.188 186.597 102.402 186.064 102.402 186.064V185.762H104.324C104.751 185.762 109.38 181.816 110.519 180.753C110.519 180.753 113.155 178.78 113.369 177.719C113.369 177.719 114.935 174.91 115.433 174.608C115.932 174.304 117.782 173.09 117.996 172.483C117.996 172.483 118.494 169.902 118.78 169.372C119.065 168.841 119.349 165.577 119.349 165.046C119.349 164.514 121.842 163.149 123.195 163.073C123.195 163.073 125.19 161.859 125.474 161.329C125.759 160.796 125.83 158.9 125.83 158.9L126.257 157.99V157.534H125.83L126.257 156.548V156.092H125.83C125.83 156.092 126.257 155.637 126.257 155.183V154.044C126.257 154.044 125.545 153.588 125.26 153.512C124.976 153.437 125.331 152.223 124.548 151.616C123.764 151.009 124.334 149.947 124.832 149.947C125.331 149.947 126.756 148.428 126.969 148.124C127.183 147.821 127.966 147.593 127.966 147.593C127.966 147.593 131.384 143.192 133.878 143.269C133.878 143.269 138.577 140.006 139.075 138.716C139.573 137.426 140.072 136.44 139.858 135.908C139.644 135.377 139.289 134.77 139.289 134.77C139.289 134.77 139.147 132.191 139.502 131.812C139.858 131.431 139.289 129.762 139.289 129.459C139.289 129.155 139.075 127.864 139.431 127.713C139.787 127.562 139.96 126.955 139.909 126.65C139.858 126.348 139.858 125.134 139.502 124.906C139.147 124.678 138.078 124.071 137.794 123.693C137.508 123.313 137.579 122.477 136.867 120.581C136.867 120.581 137.009 119.215 137.152 118.835C137.295 118.457 137.081 118.077 137.081 117.622C137.081 117.166 137.508 116.938 137.508 116.408C137.508 115.876 136.582 114.966 135.87 113.904C135.87 113.904 136.369 111.93 136.582 111.627C136.796 111.323 137.579 110.109 137.794 109.427C138.008 108.743 139.431 105.405 139.36 104.798C139.289 104.19 140.499 104.798 140.499 104.798L141.211 103.129H142.208C142.208 103.129 143.561 100.397 144.487 99.411C144.487 99.411 148.474 94.461 149.329 94.053C149.329 94.053 153.032 92.126 154.172 90.305C154.172 90.305 160.795 82.034 160.866 81.275C160.938 80.516 160.866 79.15 160.866 79.15C160.866 79.15 162.29 77.101 162.361 76.038C162.361 76.038 164.071 73.003 164.355 72.321C164.64 71.638 164.782 69.513 164.782 69.513C164.782 69.513 166.349 68.906 165.851 68.678C165.353 68.45 164.925 68.223 164.925 68.223C164.925 68.223 164.996 65.036 164.355 64.581C163.715 64.125 162.575 65.416 162.148 65.719C161.72 66.023 160.44 66.402 160.012 66.479C159.584 66.553 157.518 67.16 157.092 67.236C156.665 67.314 155.668 66.782 155.383 67.161C155.098 67.54 153.817 68.45 153.46 68.376C153.104 68.299 152.179 67.615 151.751 67.995C151.324 68.376 150.327 69.057 149.828 69.057C149.331 69.057 148.262 69.513 147.906 69.057C147.55 68.603 146.269 66.857 145.983 66.629C145.699 66.402 145.342 66.251 145.342 66.251C145.342 66.251 146.482 64.768 146.268 64.484C146.054 64.202 144.915 62.456 144.345 62.305C143.776 62.153 142.352 60.256 141.781 59.952C141.212 59.648 140.714 58.206 140.358 58.206C140.001 58.206 138.15 56.462 137.723 56.31C137.295 56.159 136.655 56.31 136.655 56.31L135.801 54.943C135.801 54.943 134.732 49.404 131.314 47.584C131.314 47.584 130.459 46.065 130.174 41.892C130.174 41.892 130.317 41.513 129.677 41.059C129.035 40.603 129.32 39.616 129.107 39.388C128.893 39.161 126.258 37.113 126.115 36.884C125.974 36.658 125.617 35.746 126.115 35.518C126.614 35.291 126.471 34.76 126.257 34.381C126.056 34.022 124.072 32.24 123.133 29.931C123.08 29.797 123.029 29.662 122.982 29.524C122.128 27.02 121.629 27.4 121.415 26.868C121.203 26.337 120.846 24.895 121.558 24.895C121.558 24.895 122.199 25.58 122.271 24.895C122.342 24.213 122.697 22.771 122.697 22.165C122.697 21.558 123.125 19.432 122.982 19.129C122.841 18.825 122.342 16.928 122.057 16.626C121.772 16.321 121.772 15.335 121.344 15.259C120.917 15.183 120.348 16.018 119.92 15.867C119.493 15.714 118.354 15.254 118.354 15.254C118.354 15.254 117.998 15.942 117.5 15.867C117.001 15.791 115.648 14.728 115.221 14.728C114.793 14.728 114.082 14.652 113.868 14.728C113.654 14.804 110.876 16.321 109.88 16.928C109.88 16.928 109.381 16.777 108.812 16.474C108.242 16.17 107.173 16.321 106.604 16.094C106.034 15.867 101.405 15.335 101.405 15.335C101.405 15.335 101.264 14.349 100.907 14.045C100.551 13.742 98.9133 14.5 98.4863 14.045C98.0583 13.59 97.1333 13.362 97.1333 13.362C97.1333 13.362 95.9223 12.375 95.2813 12.148C94.6403 11.921 92.5753 11.162 91.3653 12.528C91.3653 12.528 88.8723 13.059 89.3003 16.094C89.3003 16.094 89.7273 18.522 87.8753 18.825C87.8753 18.825 85.0273 17.08 83.9593 16.777C83.9593 16.777 81.5383 16.321 80.8973 16.018C80.2563 15.714 80.4703 14.197 80.0433 13.666C79.6153 13.135 78.4753 12.982 77.9763 12.831C77.4793 12.679 76.0543 11.772 75.5573 11.732C75.0583 11.693 74.0603 11.468 73.7043 11.732C73.3493 11.996 72.7073 11.974 72.4943 11.605C72.2803 11.238 70.9993 10.783 70.9993 10.783C70.9993 10.783 70.7853 9.03602 70.2873 8.88602C69.7883 8.73402 69.0763 9.64401 69.0763 9.64401C69.0763 9.64401 68.5773 9.30601 68.6483 8.86801C68.7203 8.42901 69.2903 7.52001 70.4993 7.14001C71.7103 6.76001 71.2833 5.24299 70.9283 4.78799C70.5713 4.33299 69.5033 3.877 70.4293 3.194C71.3553 2.512 71.8533 1.221 71.3553 0.917999C70.8563 0.613999 70.2153 0.917999 69.9303 0.917999C69.6453 0.917999 69.7873 0.842017 69.2183 0.386017C68.6483 -0.0689832 67.2243 -0.0689832 66.5123 0.386017C65.8013 0.842017 65.2313 1.146 64.8033 0.917999C64.3753 0.689999 63.6643 -0.0689948 63.3083 0.0460052C62.9513 0.159005 62.5243 1.07001 62.3113 0.84201C62.0983 0.61401 61.8123 -0.168003 61.4563 0.0339966C61.1003 0.234997 60.6013 0.614006 60.3883 0.766006C60.1743 0.918006 59.5343 0.614003 59.3913 0.994003L59.2483 1.37401C59.2483 1.37401 57.8963 0.463005 57.3983 0.311005C56.8993 0.159005 55.6883 0.159001 55.4033 0.539001C55.1183 0.918001 54.5493 0.766006 54.5493 0.766006L53.6943 0C53.6943 0 53.4813 0.994003 52.6973 0.994003C51.9143 0.994003 50.4193 0.84201 50.4193 0.84201C50.4193 0.84201 48.2113 1.449 47.4993 2.284C47.4993 2.284 46.6443 2.51201 46.3603 2.58701C46.0753 2.66301 45.6483 2.36001 45.3633 2.58701C45.0783 2.81501 43.6543 4.029 42.9413 3.953C42.2303 3.877 41.7313 3.574 41.4463 3.27C41.1623 2.967 40.8063 2.74001 40.4493 3.04201C40.0943 3.34701 37.8143 3.65002 37.7443 3.34702C37.6723 3.04202 36.6043 1.60101 35.8213 1.37401C35.0373 1.14601 34.1123 2.43501 32.9013 5.24301C32.9013 5.24301 31.0493 7.065 29.6253 7.065C29.6253 7.065 26.0653 7.823 25.9943 10.783C25.9943 10.783 24.1433 11.314 23.7853 14.728C23.7853 14.728 24.8543 15.791 24.1433 16.246C24.1433 16.246 21.2953 18.674 20.9383 18.825C20.5813 18.978 19.3003 20.495 18.6583 20.571C18.0183 20.647 15.6683 19.281 14.1013 23.683C14.1013 23.683 12.4643 24.897 11.9653 24.972C11.9653 24.972 10.0423 27.476 10.1853 29.07C10.1853 29.07 7.2653 31.042 7.0523 31.725C7.0523 31.725 5.55631 34.381 5.34331 35.368C5.34331 35.368 4.3453 34.836 3.4913 38.631C3.4913 38.631 2.8503 39.769 3.4913 40.073C3.4913 40.073 4.7733 40.452 4.7733 41.438C4.7733 41.438 3.7763 42.652 3.7763 43.715C3.7763 43.715 4.3453 44.398 4.6313 45.233C4.6313 45.233 4.48829 47.432 4.41729 48.419C4.41729 48.419 2.9923 52.744 2.7073 53.124C2.4233 53.503 2.1383 54.793 1.8533 54.945C1.5693 55.096 -0.0696982 55.932 0.00230176 56.539C0.0733018 57.146 0.358306 57.07 0.856306 57.601C1.35531 58.133 1.7113 59.347 1.7113 59.954C1.7113 60.56 1.3553 60.409 1.3553 60.409L1.0693 62.76C1.0693 62.76 1.42629 63.444 1.78129 63.975C2.13829 64.507 2.5653 65.113 2.0673 65.264C1.5683 65.416 1.2833 67.237 2.3513 67.465C3.4193 67.693 3.7753 66.631 4.0603 66.783C4.3453 66.934 4.7723 67.465 4.9153 67.845C5.0573 68.224 5.5563 68.224 5.5563 68.224L7.90629 71.184L7.8343 72.018C7.8343 72.018 8.61729 71.563 8.61729 72.17C8.61729 72.777 8.8313 75.584 8.8313 75.584C8.8313 75.584 8.90329 77.102 9.54429 77.33C10.1843 77.558 13.1043 78.62 14.4573 80.82C14.4573 80.82 18.9433 83.552 19.7263 85.221C19.7263 85.221 21.6503 86.663 22.5043 86.663C23.3593 86.663 25.4243 84.843 26.4923 84.539C26.4923 84.539 31.6893 83.173 35.7493 85.221C35.7493 85.221 37.4573 84.842 38.1703 84.615C38.8823 84.386 41.5873 83.097 42.0153 83.02C42.4423 82.945 43.9373 82.945 43.9373 82.945C43.9373 82.945 44.4363 81.351 45.5763 81.504C45.5763 81.504 50.9873 80.518 51.9133 81.351C51.9133 81.351 54.3343 86.056 55.1893 86.89C55.1893 86.89 55.6853 87.287 57.0813 86.847C57.1813 86.817 57.2863 86.78 57.3973 86.739C59.0343 86.131 61.6693 85.905 62.0973 86.512C62.5243 87.119 63.3783 88.181 63.9483 88.181C64.5183 88.181 64.9453 88.94 64.8023 89.698C64.6603 90.457 64.6603 92.581 64.5183 92.809C64.3753 93.037 63.2363 94.706 63.4493 94.934C63.6633 95.162 64.0193 95.692 64.0193 95.692C64.0193 95.692 63.3073 95.692 63.3073 98.122L62.5953 98.955L61.8833 99.184C61.8833 99.184 61.9543 101.233 63.2363 103.281C63.2363 103.281 69.7873 109.806 70.0723 111.248C70.0723 111.248 70.6423 113.524 70.8543 114.359C70.8543 114.359 72.3513 117.546 72.4943 118.382C72.6353 119.216 73.3473 120.354 72.9203 120.962C72.9203 120.962 72.1383 121.037 73.2063 124.376C73.2063 124.376 74.6293 125.134 74.5583 125.894C74.4873 126.652 74.4153 129.006 74.4153 129.006C74.4153 129.006 71.9943 130.977 71.6383 133.026C71.2823 135.074 71.2113 136.214 70.5713 136.972C69.9293 137.73 69.6453 139.325 69.7873 139.855C69.9293 140.387 69.8583 144.559 70.4293 145.547C70.4293 145.547 73.7753 150.251 74.2023 152.755C74.2023 152.755 76.4093 155.259 76.5523 155.941C76.6953 156.624 76.4093 159.887 76.9083 161.632C77.4063 163.377 77.9053 164.365 77.9763 165.655C78.0473 166.944 78.4043 169.374 79.0453 170.055C79.6863 170.738 81.2523 172.029 81.7513 173.091C82.2493 174.154 83.7443 177.719 84.2433 178.479C84.7413 179.236 85.6673 180.148 85.7383 180.602C85.8093 181.058 85.8813 181.741 85.8813 181.741" fill="white"/>
<path d="M142.88 101.63L141.692 99.8325L141.72 89.5105C141.72 89.5105 143.02 88.0115 143.243 87.4455L143.984 86.2835L143.635 86.2075L143.048 86.2225L142.824 86.2995L142.111 86.2835L141.175 85.3355L139.064 86.3445C139.064 86.3445 138.659 86.6815 138.617 86.9415L137.932 87.9045L137.512 87.7205L137.038 87.6755L136.841 87.5225L136.142 87.5985C136.142 87.5985 136.016 87.3545 135.416 87.2625C135.416 87.2625 135.36 87.1705 135.304 87.2165C135.248 87.2625 134.199 87.2775 134.199 87.2775C134.199 87.2775 133.864 86.8035 133.012 86.2685C133.012 86.2685 131.362 85.0145 131.264 84.9835C131.166 84.9525 131.027 84.8455 131.027 84.8455L128.902 84.9075L128.678 84.6615L128.636 84.4125H124.663L123.712 85.4245C123.712 85.4245 123.724 85.6675 123.778 85.7255C123.831 85.7845 123.818 86.0905 123.818 86.0905C123.818 86.0905 123.884 86.2445 123.938 86.3095C123.991 86.3755 123.904 86.5065 123.904 86.5065C123.904 86.5065 124.118 86.4915 124.118 86.5575C124.118 86.6235 124.011 86.8275 124.064 86.8495C124.118 86.8705 124.317 86.8495 124.358 86.9155C124.397 86.9805 124.565 86.9445 124.598 86.9885C124.631 87.0325 124.771 87.0965 124.785 87.2065C124.798 87.3165 124.685 87.5585 124.685 87.6445C124.685 87.7315 124.724 87.9365 124.758 87.9875C124.791 88.0385 124.791 88.3455 124.791 88.3455C124.791 88.3455 124.971 88.6805 125.092 88.7615C125.092 88.7615 125.152 89.1105 125.211 89.2055C125.211 89.2055 125.531 89.4535 125.605 89.5275C125.678 89.5995 125.685 89.9215 125.685 89.9865C125.685 90.0525 125.945 90.1915 125.971 90.2575C125.999 90.3225 126.105 90.5265 126.085 90.5705C126.065 90.6145 125.991 90.8115 126.005 90.8705C126.018 90.9275 126.092 91.2995 126.092 91.2995L126.174 91.6055V92.7065C126.174 92.7065 126.064 93.0735 125.84 93.2105C125.84 93.2105 125.686 93.5165 125.729 93.7615C125.729 93.7615 125.799 93.9755 125.673 93.9905C125.673 93.9905 125.051 94.2325 124.955 94.4135C124.951 94.4215 124.949 94.4275 124.946 94.4355C124.889 94.6185 124.889 95.0155 124.82 95.0775C124.82 95.0775 124.526 95.2915 124.471 95.4135C124.471 95.4135 124.387 95.7495 124.289 95.7345C124.191 95.7205 123.911 95.7345 123.94 96.3915C123.94 96.3915 123.954 96.5605 123.884 96.5605C123.813 96.5605 123.478 97.0645 123.478 97.0645C123.478 97.0645 123.423 97.1885 123.478 97.3705C123.534 97.5545 123.646 97.7385 123.632 97.8755C123.619 98.0125 123.454 98.4875 123.454 98.4875V100.185L133.138 106.119L133.193 106.409V106.806L133.096 106.959L132.955 107.067C132.955 107.067 132.829 107.372 133.193 107.387C133.557 107.403 133.249 107.387 133.249 107.387L133.486 107.739L133.626 107.938L137.009 110.553C137.009 110.553 138.717 107.722 139.201 105.248C139.366 104.403 139.351 104.492 139.351 104.492L139.661 104.441L140.185 104.594L140.427 104.702L140.994 103.373L141.139 103.033H142.136L142.746 101.872L142.88 101.63ZM141.105 103.088L140.457 104.667L139.931 104.505H139.323L139.202 105.194L138.837 106.611L138.311 107.988L137.722 109.331C137.936 108.647 139.359 105.309 139.288 104.702C139.217 104.094 140.427 104.702 140.427 104.702L141.139 103.033H142.136" fill="#C7D886"/>
<path d="M134.495 98.6898L123.743 63.1288" stroke="#083783" stroke-width="2"/>
<path d="M121.739 56.5008L121.107 67.8928L128.577 65.6348L121.739 56.5008Z" fill="#083783"/>
<path d="M132.132 100.107L59.6294 45.439" stroke="#083783" stroke-width="2"/>
<path d="M54.1006 41.2703L60.3126 50.8403L65.0106 44.6103L54.1006 41.2703Z" fill="#083783"/>
<path d="M131.566 102.894L102.805 109.617" stroke="#083783" stroke-width="2"/>
<path d="M96.062 111.193L107.39 112.552L105.614 104.953L96.062 111.193Z" fill="#083783"/>
<path d="M133.219 104.926L111.398 152.491" stroke="#083783" stroke-width="2"/>
<path d="M108.51 158.784L116.527 150.666L109.435 147.412L108.51 158.784Z" fill="#083783"/>
<path d="M135.021 103.077C135.757 103.077 136.354 102.48 136.354 101.744C136.354 101.007 135.757 100.41 135.021 100.41C134.285 100.41 133.688 101.007 133.688 101.744C133.688 102.48 134.285 103.077 135.021 103.077Z" stroke="#0E3692" stroke-width="0.787"/>
</svg>
